<?xml version="1.0" encoding="UTF-8" standalone="no"?>
<svg
   xmlns:dc="http://purl.org/dc/elements/1.1/"
   xmlns:cc="http://creativecommons.org/ns#"
   xmlns:rdf="http://www.w3.org/1999/02/22-rdf-syntax-ns#"
   xmlns:svg="http://www.w3.org/2000/svg"
   xmlns="http://www.w3.org/2000/svg"
   xmlns:sodipodi="http://sodipodi.sourceforge.net/DTD/sodipodi-0.dtd"
   xmlns:inkscape="http://www.inkscape.org/namespaces/inkscape"
   width="248.0px"
   height="248.0px"
   viewBox="0 0 248.0 248.0"
   version="1.1"
   id="SVGRoot"
   sodipodi:docname="Amazon-GuardDuty_color.svg"
   inkscape:version="1.0.2-2 (e86c870879, 2021-01-15)">
  <defs
     id="defs1402">
    <inkscape:path-effect
       effect="fillet_chamfer"
       id="path-effect2040"
       is_visible="true"
       lpeversion="1"
       satellites_param="F,0,0,1,0,0,0,1 @ F,0,0,1,0,6.0755415,0,1 @ F,0,0,1,0,6.1445293,0,1 @ F,0,0,1,0,0,0,1"
       unit="px"
       method="auto"
       mode="F"
       radius="0"
       chamfer_steps="1"
       flexible="false"
       use_knot_distance="true"
       apply_no_radius="true"
       apply_with_radius="true"
       only_selected="true"
       hide_knots="false" />
    <style
       id="style1979">.cls-1{fill:url(#GreenGradient);}.cls-2{fill:#fff;}</style>
    <linearGradient
       id="GreenGradient"
       x1="-522.53"
       y1="465.47"
       x2="-416.47"
       y2="571.53"
       gradientTransform="rotate(-90,-288.67013,-93.777572)"
       gradientUnits="userSpaceOnUse">
      <stop
         offset="0"
         stop-color="#1b660f"
         id="stop1981" />
      <stop
         offset="1"
         stop-color="#6cae3e"
         id="stop1983" />
    </linearGradient>
    <linearGradient
       id="BlueGradient"
       x1="-15.53"
       y1="90.529999"
       x2="90.529999"
       y2="-15.53"
       gradientUnits="userSpaceOnUse"
       gradientTransform="translate(284.58953,-17.797714)">
      <stop
         offset="0"
         stop-color="#2e27ad"
         id="stop4" />
      <stop
         offset="1"
         stop-color="#527fff"
         id="stop6" />
    </linearGradient>
  </defs>
  <sodipodi:namedview
     id="base"
     pagecolor="#101010"
     bordercolor="#666666"
     borderopacity="1.0"
     inkscape:pageopacity="0"
     inkscape:pageshadow="2"
     inkscape:zoom="0.95676215"
     inkscape:cx="21.792733"
     inkscape:cy="124"
     inkscape:document-units="px"
     inkscape:current-layer="layer2"
     inkscape:document-rotation="0"
     showgrid="true"
     inkscape:window-width="1366"
     inkscape:window-height="705"
     inkscape:window-x="-8"
     inkscape:window-y="-8"
     inkscape:window-maximized="1"
     inkscape:snap-global="false"
     showguides="true">
    <inkscape:grid
       type="xygrid"
       id="grid1972" />
  </sodipodi:namedview>
  <metadata
     id="metadata1405">
    <rdf:RDF>
      <cc:Work
         rdf:about="">
        <dc:format>image/svg+xml</dc:format>
        <dc:type
           rdf:resource="http://purl.org/dc/dcmitype/StillImage" />
        <dc:title />
      </cc:Work>
    </rdf:RDF>
  </metadata>
  <g
     inkscape:groupmode="layer"
     id="layer3"
     inkscape:label="BG" />
  <g
     inkscape:groupmode="layer"
     id="layer4"
     inkscape:label="Bounding Box" />
  <g
     inkscape:groupmode="layer"
     id="layer2"
     inkscape:label="Top">
    <path
       style="fill:#f14245;fill-opacity:1;stroke:none;stroke-width:3;stroke-linecap:round;stroke-linejoin:round;stroke-miterlimit:4;stroke-dasharray:none;stroke-opacity:1;paint-order:normal"
       id="path883"
       sodipodi:type="arc"
       sodipodi:cx="154.57903"
       sodipodi:cy="83.172447"
       sodipodi:rx="111.24604"
       sodipodi:ry="111.24604"
       sodipodi:start="5.9893981"
       sodipodi:end="5.9807042"
       sodipodi:open="true"
       sodipodi:arc-type="arc"
       d="M 261.05862,50.957904 A 111.24604,111.24604 0 0 1 187.02492,189.58178 111.24604,111.24604 0 0 1 48.240468,115.84955 111.24604,111.24604 0 0 1 121.67088,-23.094836 111.24604,111.24604 0 0 1 260.77453,50.03341"
       transform="rotate(16.68412)" />
    <g
       id="Icon_Test-9"
       data-name="Icon Test"
       transform="matrix(2.5050751,0,0,2.5050751,30.059684,30.059684)">
      <path
         class="cls-2"
         d="M 42.27,62.5 H 32.73 A 1,1 0 0 1 32,62.19 1,1 0 0 1 31.73,61.44 l 0.18,-3.14 a 21.39,21.39 0 0 1 -5.16,-2.14 l -2.1,2.35 A 1,1 0 0 1 23.93,58.84 1,1 0 0 1 23.2,58.55 L 16.45,51.8 a 1,1 0 0 1 -0.29,-0.73 1,1 0 0 1 0.33,-0.72 l 2.35,-2.1 a 21.36,21.36 0 0 1 -2.13,-5.16 l -3.15,0.18 A 1,1 0 0 1 12.81,43 1,1 0 0 1 12.5,42.27 V 32.73 A 1,1 0 0 1 12.81,32 1,1 0 0 1 13.56,31.73 l 3.16,0.18 a 21.09,21.09 0 0 1 2.14,-5.15 l -2.37,-2.11 a 1,1 0 0 1 -0.33,-0.72 1,1 0 0 1 0.29,-0.73 l 6.75,-6.75 a 1,1 0 0 1 0.73,-0.29 1,1 0 0 1 0.72,0.33 l 2.11,2.36 a 21.45,21.45 0 0 1 5.15,-2.13 L 31.73,13.56 A 1,1 0 0 1 32,12.81 1,1 0 0 1 32.73,12.5 h 9.54 a 1,1 0 0 1 0.73,0.31 1,1 0 0 1 0.27,0.75 l -0.18,3.16 a 21.48,21.48 0 0 1 5.15,2.14 l 2.11,-2.37 a 1,1 0 0 1 0.72,-0.33 1.05,1.05 0 0 1 0.73,0.29 l 6.75,6.75 a 1,1 0 0 1 0.29,0.73 1,1 0 0 1 -0.33,0.72 l -2.36,2.1 a 21.55,21.55 0 0 1 2.14,5.16 l 3.15,-0.18 a 1,1 0 0 1 0.75,0.27 1,1 0 0 1 0.31,0.73 v 9.54 A 1,1 0 0 1 62.19,43 1.07,1.07 0 0 1 61.44,43.27 l -3.15,-0.18 a 21.15,21.15 0 0 1 -2.14,5.16 l 2.36,2.1 a 1,1 0 0 1 0.33,0.72 1,1 0 0 1 -0.29,0.73 l -6.75,6.75 a 1,1 0 0 1 -0.73,0.29 1,1 0 0 1 -0.72,-0.33 l -2.09,-2.35 a 21.22,21.22 0 0 1 -5.17,2.14 l 0.18,3.14 A 1,1 0 0 1 43,62.19 1,1 0 0 1 42.27,62.5 Z m -8.48,-2 h 7.42 L 41,57.59 a 1,1 0 0 1 0.78,-1 19.54,19.54 0 0 0 6.14,-2.59 1,1 0 0 1 1.28,0.18 l 1.94,2.18 5.25,-5.25 -2.19,-2 a 1,1 0 0 1 -0.2,-1.2 19.12,19.12 0 0 0 2.52,-6.09 1,1 0 0 1 1,-0.78 l 2.93,0.17 V 33.79 L 57.57,34 a 1,1 0 0 1 -1,-0.78 19.58,19.58 0 0 0 -2.57,-6.13 1,1 0 0 1 0.18,-1.28 l 2.19,-1.95 -5.25,-5.25 -2,2.2 A 1,1 0 0 1 47.9,21 a 19.53,19.53 0 0 0 -6.08,-2.52 1,1 0 0 1 -0.78,-1 l 0.17,-2.94 h -7.42 l 0.21,2.9 a 1,1 0 0 1 -0.78,1 A 19.41,19.41 0 0 0 27.1,21 1,1 0 0 1 25.82,20.82 l -2,-2.19 -5.25,5.25 2.2,2 a 1,1 0 0 1 0.23,1.22 19.32,19.32 0 0 0 -2.53,6.08 1,1 0 0 1 -1,0.78 l -2.93,-0.17 v 7.42 L 17.42,41 a 1,1 0 0 1 1,0.78 19.39,19.39 0 0 0 2.58,6.13 1,1 0 0 1 -0.18,1.28 l -2.18,2 5.25,5.25 1.95,-2.18 a 1,1 0 0 1 1.25,-0.26 19.37,19.37 0 0 0 6.09,2.53 1,1 0 0 1 0.78,1 z m 3.71,-7.82 c -11.86,0 -12,-12.62 -12,-12.75 V 27 a 1,1 0 0 1 0.62,-0.92 l 11,-4.54 a 0.92,0.92 0 0 1 0.76,0 l 11,4.54 A 1,1 0 0 1 49.5,27 v 13 c 0,0.09 -0.14,12.68 -12,12.68 z m -10,-25 v 12.25 c 0,0.44 0.15,10.75 10,10.75 9.85,0 10,-10.28 10,-10.68 V 27.71 l -10,-4.13 z m 10,20.86 c -6.35,0 -7.92,-7.84 -8,-8.18 a 1.1,1.1 0 0 1 0,-0.18 v -9.85 a 1,1 0 0 1 0.63,-0.93 l 7,-2.83 a 1,1 0 0 1 0.74,0 l 7,2.83 a 1,1 0 0 1 0.63,0.93 v 9.88 a 1.1,1.1 0 0 1 0,0.18 c -0.08,0.34 -1.65,8.18 -8,8.18 z M 38.5,29 v 17.47 c 3.64,-0.77 4.85,-5.67 5,-6.37 V 31 Z m -7,11.12 c 0.16,0.7 1.38,5.59 5,6.37 V 29 l -5,2 z"
         id="path14-5" />
    </g>
  </g>
</svg>
