<?xml version="1.0" encoding="UTF-8" standalone="no"?>
<svg
   xmlns:dc="http://purl.org/dc/elements/1.1/"
   xmlns:cc="http://creativecommons.org/ns#"
   xmlns:rdf="http://www.w3.org/1999/02/22-rdf-syntax-ns#"
   xmlns:svg="http://www.w3.org/2000/svg"
   xmlns="http://www.w3.org/2000/svg"
   xmlns:sodipodi="http://sodipodi.sourceforge.net/DTD/sodipodi-0.dtd"
   xmlns:inkscape="http://www.inkscape.org/namespaces/inkscape"
   width="248.0px"
   height="248.0px"
   viewBox="0 0 248.0 248.0"
   version="1.1"
   id="SVGRoot"
   sodipodi:docname="Amazon-RDS White.svg"
   inkscape:version="1.0.2-2 (e86c870879, 2021-01-15)">
  <defs
     id="defs1402">
    <inkscape:path-effect
       effect="fillet_chamfer"
       id="path-effect2040"
       is_visible="true"
       lpeversion="1"
       satellites_param="F,0,0,1,0,0,0,1 @ F,0,0,1,0,6.0755415,0,1 @ F,0,0,1,0,6.1445293,0,1 @ F,0,0,1,0,0,0,1"
       unit="px"
       method="auto"
       mode="F"
       radius="0"
       chamfer_steps="1"
       flexible="false"
       use_knot_distance="true"
       apply_no_radius="true"
       apply_with_radius="true"
       only_selected="true"
       hide_knots="false" />
    <style
       id="style1979">.cls-1{fill:url(#GreenGradient);}.cls-2{fill:#fff;}</style>
    <linearGradient
       id="GreenGradient"
       x1="-522.53"
       y1="465.47"
       x2="-416.47"
       y2="571.53"
       gradientTransform="rotate(-90,-307.85362,-88.032578)"
       gradientUnits="userSpaceOnUse">
      <stop
         offset="0"
         stop-color="#1b660f"
         id="stop1981" />
      <stop
         offset="1"
         stop-color="#6cae3e"
         id="stop1983" />
    </linearGradient>
    <linearGradient
       id="OrangeGradient"
       x1="1131.1"
       y1="-516.47998"
       x2="1131.1"
       y2="-366.48001"
       gradientTransform="rotate(-135,816.69218,-8.7994369)"
       gradientUnits="userSpaceOnUse">
      <stop
         offset="0"
         stop-color="#c8511b"
         id="stop138" />
      <stop
         offset="1"
         stop-color="#f90"
         id="stop140" />
    </linearGradient>
    <linearGradient
       id="BlueGradient"
       x1="-897.46997"
       y1="-41.529999"
       x2="-1003.54"
       y2="64.540001"
       gradientTransform="rotate(180,-456.5,24.5)"
       gradientUnits="userSpaceOnUse">
      <stop
         offset="0"
         stop-color="#2e27ad"
         id="stop2363" />
      <stop
         offset="1"
         stop-color="#527fff"
         id="stop2365" />
    </linearGradient>
  </defs>
  <sodipodi:namedview
     id="base"
     pagecolor="#ffffff"
     bordercolor="#666666"
     borderopacity="1.0"
     inkscape:pageopacity="0.0"
     inkscape:pageshadow="2"
     inkscape:zoom="1.6572979"
     inkscape:cx="50.404785"
     inkscape:cy="124"
     inkscape:document-units="px"
     inkscape:current-layer="layer2"
     inkscape:document-rotation="0"
     showgrid="true"
     inkscape:window-width="1366"
     inkscape:window-height="705"
     inkscape:window-x="-8"
     inkscape:window-y="-8"
     inkscape:window-maximized="1"
     inkscape:snap-global="false"
     showguides="true">
    <inkscape:grid
       type="xygrid"
       id="grid1972" />
  </sodipodi:namedview>
  <metadata
     id="metadata1405">
    <rdf:RDF>
      <cc:Work
         rdf:about="">
        <dc:format>image/svg+xml</dc:format>
        <dc:type
           rdf:resource="http://purl.org/dc/dcmitype/StillImage" />
        <dc:title />
      </cc:Work>
    </rdf:RDF>
  </metadata>
  <g
     inkscape:groupmode="layer"
     id="layer3"
     inkscape:label="BG">
    <rect
       style="fill:#ffffff;fill-opacity:1;stroke:#ffffff;stroke-width:4.72441;stroke-linecap:round;stroke-linejoin:round;stroke-miterlimit:4;stroke-dasharray:none;paint-order:markers stroke fill"
       id="rect2013"
       width="250"
       height="250"
       x="-1.2067837"
       y="0" />
  </g>
  <g
     inkscape:groupmode="layer"
     id="layer4"
     inkscape:label="Bounding Box" />
  <g
     inkscape:groupmode="layer"
     id="layer2"
     inkscape:label="Top">
    <path
       style="fill:none;fill-opacity:1;stroke:#000000;stroke-width:3;stroke-linecap:round;stroke-linejoin:round;stroke-miterlimit:4;stroke-dasharray:none;stroke-opacity:1;paint-order:normal"
       id="path883"
       sodipodi:type="arc"
       sodipodi:cx="154.57903"
       sodipodi:cy="83.172447"
       sodipodi:rx="111.24604"
       sodipodi:ry="111.24604"
       sodipodi:start="5.9893981"
       sodipodi:end="5.9807042"
       sodipodi:open="true"
       sodipodi:arc-type="arc"
       d="M 261.05862,50.957904 A 111.24604,111.24604 0 0 1 187.02492,189.58178 111.24604,111.24604 0 0 1 48.240468,115.84955 111.24604,111.24604 0 0 1 121.67088,-23.094836 111.24604,111.24604 0 0 1 260.77453,50.03341"
       transform="rotate(16.68412)" />
    <path
       style="fill:#5b9f34;fill-opacity:1;stroke:none;stroke-width:4.05967;stroke-linecap:round;stroke-linejoin:round;stroke-miterlimit:4;stroke-dasharray:none;stroke-opacity:1;paint-order:normal"
       id="path885"
       sodipodi:type="arc"
       sodipodi:cx="154.57903"
       sodipodi:cy="83.172447"
       sodipodi:rx="100.36053"
       sodipodi:ry="100.36053"
       sodipodi:start="5.9893981"
       sodipodi:end="5.9807042"
       sodipodi:open="true"
       sodipodi:arc-type="arc"
       d="M 250.63951,54.110123 A 100.36053,100.36053 0 0 1 183.85007,179.16954 100.36053,100.36053 0 0 1 58.64578,112.65207 100.36053,100.36053 0 0 1 124.89097,-12.696498 100.36053,100.36053 0 0 1 250.38322,53.276091"
       transform="rotate(16.68412)" />
    <g
       id="Icon_Test"
       data-name="Icon Test"
       transform="matrix(2.56,0,0,2.5589764,28.193176,28.088319)"
       style="stroke:#000000;stroke-width:0.78140624;stroke-miterlimit:4;stroke-dasharray:none;stroke-linecap:round;stroke-linejoin:round">
      <path
         class="cls-2"
         d="m 48.45,28.23 c 0,-2.9 -5.69,-4.24 -11,-4.24 -5.31,0 -11,1.34 -11,4.24 a 1.49,1.49 0 0 0 0.05,0.43 v 18.05 c -0.05,3 5.65,4.28 11,4.28 5.35,0 11,-1.32 11,-4.22 V 28.23 Z M 37.47,26 c 5.83,0 9,1.59 9,2.24 0,0.65 -3.15,2.24 -9,2.24 -5.85,0 -9,-1.58 -9,-2.24 0,-0.66 3.17,-2.24 9,-2.24 z m 9,20.78 c 0,0.64 -3.16,2.22 -9,2.22 -5.84,0 -9,-1.58 -9,-2.22 v -3.16 c 2.11,1.15 5.65,1.7 9,1.7 3.35,0 6.86,-0.54 9,-1.67 z m 0,-5.69 c 0,0.64 -3.15,2.24 -9,2.24 -5.85,0 -9,-1.6 -9,-2.24 h 0.03 v -3.82 c 2.11,1.14 5.65,1.69 9,1.69 3.35,0 6.86,-0.54 9,-1.67 z m 0,-6.37 c 0,0.65 -3.15,2.25 -9,2.25 -5.85,0 -9,-1.6 -9,-2.25 h 0.03 v -3.9 c 2.13,1.13 5.63,1.65 9,1.65 3.37,0 6.91,-0.54 9,-1.69 z"
         id="path2373"
         style="stroke:#000000;stroke-width:0.78140624;stroke-miterlimit:4;stroke-dasharray:none;stroke-linecap:round;stroke-linejoin:round" />
      <path
         class="cls-2"
         d="m 15.91,60.51 h 6.59 v 2 h -9 a 1,1 0 0 1 -1,-1 v -9 h 2 v 6.57 L 22,51.59 23.4,53 Z"
         id="path2375"
         style="stroke:#000000;stroke-width:0.78140624;stroke-miterlimit:4;stroke-dasharray:none;stroke-linecap:round;stroke-linejoin:round" />
      <path
         class="cls-2"
         d="m 62.5,52.51 v 9 a 1,1 0 0 1 -1,1 h -9 v -2 h 6.59 l -7.39,-7.41 1.41,-1.4 7.39,7.38 v -6.57 z"
         id="path2377"
         style="stroke:#000000;stroke-width:0.78140624;stroke-miterlimit:4;stroke-dasharray:none;stroke-linecap:round;stroke-linejoin:round" />
      <path
         class="cls-2"
         d="m 62.5,13.51 v 9 h -2 v -6.6 L 53.11,23.3 51.7,21.89 59.08,14.51 H 52.5 v -2 h 9 a 1,1 0 0 1 1,1 z"
         id="path2379"
         style="stroke:#000000;stroke-width:0.78140624;stroke-miterlimit:4;stroke-dasharray:none;stroke-linecap:round;stroke-linejoin:round" />
      <path
         class="cls-2"
         d="M 23.4,22 22,23.4 14.5,15.91 v 6.58 h -2 v -9 a 1,1 0 0 1 1,-1 h 9 v 2 h -6.59 z"
         id="path2381"
         style="stroke:#000000;stroke-width:0.78140624;stroke-miterlimit:4;stroke-dasharray:none;stroke-linecap:round;stroke-linejoin:round" />
      <path
         class="cls-2"
         d="m 22.16,46.46 c -6.11,-2.2 -9.61,-5.56 -9.61,-9.21 0,-3.65 3.5,-7 9.61,-9.21 l 0.68,1.88 c -5.19,1.87 -8.29,4.61 -8.29,7.33 0,2.72 3.1,5.46 8.29,7.33 z"
         id="path2383"
         style="stroke:#000000;stroke-width:0.78140624;stroke-miterlimit:4;stroke-dasharray:none;stroke-linecap:round;stroke-linejoin:round" />
      <path
         class="cls-2"
         d="m 52.28,46.68 -0.64,-1.9 c 5.55,-1.87 8.86,-4.69 8.86,-7.53 0,-2.84 -3.31,-5.66 -8.86,-7.54 l 0.64,-1.89 c 6.49,2.18 10.22,5.64 10.22,9.43 0,3.79 -3.73,7.23 -10.22,9.43 z"
         id="path2385"
         style="stroke:#000000;stroke-width:0.78140624;stroke-miterlimit:4;stroke-dasharray:none;stroke-linecap:round;stroke-linejoin:round" />
    </g>
  </g>
</svg>
