<?xml version="1.0" encoding="UTF-8" standalone="no"?>
<svg
   xmlns:dc="http://purl.org/dc/elements/1.1/"
   xmlns:cc="http://creativecommons.org/ns#"
   xmlns:rdf="http://www.w3.org/1999/02/22-rdf-syntax-ns#"
   xmlns:svg="http://www.w3.org/2000/svg"
   xmlns="http://www.w3.org/2000/svg"
   xmlns:sodipodi="http://sodipodi.sourceforge.net/DTD/sodipodi-0.dtd"
   xmlns:inkscape="http://www.inkscape.org/namespaces/inkscape"
   width="248.0px"
   height="248.0px"
   viewBox="0 0 248.0 248.0"
   version="1.1"
   id="SVGRoot"
   sodipodi:docname="AWS-Directory-Service_color.svg"
   inkscape:version="1.0.2-2 (e86c870879, 2021-01-15)">
  <defs
     id="defs1402">
    <inkscape:path-effect
       effect="fillet_chamfer"
       id="path-effect2040"
       is_visible="true"
       lpeversion="1"
       satellites_param="F,0,0,1,0,0,0,1 @ F,0,0,1,0,6.0755415,0,1 @ F,0,0,1,0,6.1445293,0,1 @ F,0,0,1,0,0,0,1"
       unit="px"
       method="auto"
       mode="F"
       radius="0"
       chamfer_steps="1"
       flexible="false"
       use_knot_distance="true"
       apply_no_radius="true"
       apply_with_radius="true"
       only_selected="true"
       hide_knots="false" />
    <style
       id="style1979">.cls-1{fill:url(#GreenGradient);}.cls-2{fill:#fff;}</style>
    <linearGradient
       id="GreenGradient"
       x1="-522.53"
       y1="465.47"
       x2="-416.47"
       y2="571.53"
       gradientTransform="rotate(-90,-288.67013,-93.777572)"
       gradientUnits="userSpaceOnUse">
      <stop
         offset="0"
         stop-color="#1b660f"
         id="stop1981" />
      <stop
         offset="1"
         stop-color="#6cae3e"
         id="stop1983" />
    </linearGradient>
    <linearGradient
       id="BlueGradient"
       x1="-15.53"
       y1="90.529999"
       x2="90.529999"
       y2="-15.53"
       gradientUnits="userSpaceOnUse"
       gradientTransform="translate(284.58953,-17.797714)">
      <stop
         offset="0"
         stop-color="#2e27ad"
         id="stop4" />
      <stop
         offset="1"
         stop-color="#527fff"
         id="stop6" />
    </linearGradient>
    <linearGradient
       id="BlueGradient-0"
       x1="-135.73"
       y1="248.64999"
       x2="14.27"
       y2="248.64999"
       gradientTransform="matrix(1.2104658,-1.2104658,1.2104658,1.2104658,113.49179,-339.31459)"
       gradientUnits="userSpaceOnUse">
      <stop
         offset="0"
         stop-color="#2e27ad"
         id="stop4-9" />
      <stop
         offset="1"
         stop-color="#527fff"
         id="stop6-8" />
    </linearGradient>
    <linearGradient
       id="a"
       gradientTransform="matrix(10.948793,0,0,-10.948793,-716.33299,1823.6321)"
       gradientUnits="userSpaceOnUse"
       x1="62.57"
       x2="25.030001"
       y1="150.13"
       y2="85.110001">
      <stop
         offset="0"
         stop-color="#0052cc"
         id="stop2" />
      <stop
         offset=".92"
         stop-color="#2684ff"
         id="stop4-5" />
    </linearGradient>
  </defs>
  <sodipodi:namedview
     id="base"
     pagecolor="#101010"
     bordercolor="#666666"
     borderopacity="1.0"
     inkscape:pageopacity="0"
     inkscape:pageshadow="2"
     inkscape:zoom="1.2894806"
     inkscape:cx="124"
     inkscape:cy="124"
     inkscape:document-units="px"
     inkscape:current-layer="layer2"
     inkscape:document-rotation="0"
     showgrid="true"
     inkscape:window-width="1366"
     inkscape:window-height="705"
     inkscape:window-x="-8"
     inkscape:window-y="-8"
     inkscape:window-maximized="1"
     inkscape:snap-global="false"
     showguides="true">
    <inkscape:grid
       type="xygrid"
       id="grid1972" />
  </sodipodi:namedview>
  <metadata
     id="metadata1405">
    <rdf:RDF>
      <cc:Work
         rdf:about="">
        <dc:format>image/svg+xml</dc:format>
        <dc:type
           rdf:resource="http://purl.org/dc/dcmitype/StillImage" />
        <dc:title />
      </cc:Work>
    </rdf:RDF>
  </metadata>
  <g
     inkscape:groupmode="layer"
     id="layer3"
     inkscape:label="BG" />
  <g
     inkscape:groupmode="layer"
     id="layer4"
     inkscape:label="Bounding Box" />
  <g
     inkscape:groupmode="layer"
     id="layer2"
     inkscape:label="Top">
    <path
       style="fill:#f24446;fill-opacity:1;stroke:none;stroke-width:3;stroke-linecap:round;stroke-linejoin:round;stroke-miterlimit:4;stroke-dasharray:none;stroke-opacity:1;paint-order:normal"
       id="path883"
       sodipodi:type="arc"
       sodipodi:cx="154.57903"
       sodipodi:cy="83.172447"
       sodipodi:rx="111.24604"
       sodipodi:ry="111.24604"
       sodipodi:start="5.9893981"
       sodipodi:end="5.9807042"
       sodipodi:open="true"
       sodipodi:arc-type="arc"
       d="M 261.05862,50.957904 A 111.24604,111.24604 0 0 1 187.02492,189.58178 111.24604,111.24604 0 0 1 48.240468,115.84955 111.24604,111.24604 0 0 1 121.67088,-23.094836 111.24604,111.24604 0 0 1 260.77453,50.03341"
       transform="rotate(16.68412)" />
    <g
       id="Icon_Test-3"
       data-name="Icon Test"
       transform="matrix(2.36489,0,0,2.36489,35.316655,35.316655)">
      <path
         class="cls-2"
         d="M 15.26,51.39 A 3.62,3.62 0 0 1 12.5,47.86 V 22.14 a 3.64,3.64 0 0 1 3.64,-3.64 h 38.72 a 3.62,3.62 0 0 1 3.53,2.76 l -1.94,0.48 A 1.63,1.63 0 0 0 54.86,20.5 H 16.14 a 1.65,1.65 0 0 0 -1.64,1.64 v 25.72 a 1.63,1.63 0 0 0 1.24,1.59 z"
         id="path14" />
      <rect
         class="cls-2"
         x="21.5"
         y="40.5"
         width="10"
         height="2"
         id="rect16" />
      <rect
         class="cls-2"
         x="21.5"
         y="45.5"
         width="7"
         height="2"
         id="rect18" />
      <rect
         class="cls-2"
         x="29.5"
         y="45.5"
         width="3"
         height="2"
         id="rect20" />
      <path
         class="cls-2"
         d="M 58.89,23.5 H 21.11 a 3.61,3.61 0 0 0 -3.61,3.61 v 25.78 a 3.61,3.61 0 0 0 3.61,3.61 H 58.89 A 3.61,3.61 0 0 0 62.5,52.89 V 27.11 A 3.61,3.61 0 0 0 58.89,23.5 Z M 60.5,52.89 A 1.61,1.61 0 0 1 58.89,54.5 H 21.11 A 1.61,1.61 0 0 1 19.5,52.89 V 35.5 h 17 v 15 a 1,1 0 0 0 1,1 h 19 a 1,1 0 0 0 1,-1 v -15 h 3 z m -11.87,-13 a 3.55,3.55 0 0 1 -3.38,0 3.5,3.5 0 1 1 3.38,0 z m -4.1,1.92 a 5.91,5.91 0 0 0 4.92,0 7.73,7.73 0 0 1 5.55,7.44 V 49.5 H 39 v -0.25 a 7.74,7.74 0 0 1 5.53,-7.43 z m 6.67,-1.48 a 5.5,5.5 0 1 0 -8.48,0 9.51,9.51 0 0 0 -4.22,3.68 V 30.5 h 17 v 13.55 a 9.61,9.61 0 0 0 -4.3,-3.71 z m 9.3,-6.84 h -3 v -4 a 1,1 0 0 0 -1,-1 h -19 a 1,1 0 0 0 -1,1 v 4 h -17 v -6.38 a 1.61,1.61 0 0 1 1.61,-1.61 h 37.78 a 1.61,1.61 0 0 1 1.61,1.61 z"
         id="path22" />
    </g>
  </g>
</svg>
