<?xml version="1.0" encoding="UTF-8" standalone="no"?>
<svg
   xmlns:dc="http://purl.org/dc/elements/1.1/"
   xmlns:cc="http://creativecommons.org/ns#"
   xmlns:rdf="http://www.w3.org/1999/02/22-rdf-syntax-ns#"
   xmlns:svg="http://www.w3.org/2000/svg"
   xmlns="http://www.w3.org/2000/svg"
   xmlns:sodipodi="http://sodipodi.sourceforge.net/DTD/sodipodi-0.dtd"
   xmlns:inkscape="http://www.inkscape.org/namespaces/inkscape"
   width="248.0px"
   height="248.0px"
   viewBox="0 0 248.0 248.0"
   version="1.1"
   id="SVGRoot"
   sodipodi:docname="AWS-Firewall-Manager_color.svg"
   inkscape:version="1.0.2-2 (e86c870879, 2021-01-15)">
  <defs
     id="defs1402">
    <inkscape:path-effect
       effect="fillet_chamfer"
       id="path-effect2040"
       is_visible="true"
       lpeversion="1"
       satellites_param="F,0,0,1,0,0,0,1 @ F,0,0,1,0,6.0755415,0,1 @ F,0,0,1,0,6.1445293,0,1 @ F,0,0,1,0,0,0,1"
       unit="px"
       method="auto"
       mode="F"
       radius="0"
       chamfer_steps="1"
       flexible="false"
       use_knot_distance="true"
       apply_no_radius="true"
       apply_with_radius="true"
       only_selected="true"
       hide_knots="false" />
    <style
       id="style1979">.cls-1{fill:url(#GreenGradient);}.cls-2{fill:#fff;}</style>
    <linearGradient
       id="GreenGradient"
       x1="-522.53"
       y1="465.47"
       x2="-416.47"
       y2="571.53"
       gradientTransform="rotate(-90,-288.67013,-93.777572)"
       gradientUnits="userSpaceOnUse">
      <stop
         offset="0"
         stop-color="#1b660f"
         id="stop1981" />
      <stop
         offset="1"
         stop-color="#6cae3e"
         id="stop1983" />
    </linearGradient>
    <linearGradient
       id="BlueGradient"
       x1="-15.53"
       y1="90.529999"
       x2="90.529999"
       y2="-15.53"
       gradientUnits="userSpaceOnUse"
       gradientTransform="translate(284.58953,-17.797714)">
      <stop
         offset="0"
         stop-color="#2e27ad"
         id="stop4" />
      <stop
         offset="1"
         stop-color="#527fff"
         id="stop6" />
    </linearGradient>
    <linearGradient
       id="BlueGradient-0"
       x1="-135.73"
       y1="248.64999"
       x2="14.27"
       y2="248.64999"
       gradientTransform="matrix(1.2104658,-1.2104658,1.2104658,1.2104658,113.49179,-339.31459)"
       gradientUnits="userSpaceOnUse">
      <stop
         offset="0"
         stop-color="#2e27ad"
         id="stop4-9" />
      <stop
         offset="1"
         stop-color="#527fff"
         id="stop6-8" />
    </linearGradient>
    <linearGradient
       id="a"
       gradientTransform="matrix(10.948793,0,0,-10.948793,-716.33299,1823.6321)"
       gradientUnits="userSpaceOnUse"
       x1="62.57"
       x2="25.030001"
       y1="150.13"
       y2="85.110001">
      <stop
         offset="0"
         stop-color="#0052cc"
         id="stop2" />
      <stop
         offset=".92"
         stop-color="#2684ff"
         id="stop4-5" />
    </linearGradient>
  </defs>
  <sodipodi:namedview
     id="base"
     pagecolor="#101010"
     bordercolor="#666666"
     borderopacity="1.0"
     inkscape:pageopacity="0"
     inkscape:pageshadow="2"
     inkscape:zoom="1.2269109"
     inkscape:cx="124"
     inkscape:cy="124"
     inkscape:document-units="px"
     inkscape:current-layer="layer2"
     inkscape:document-rotation="0"
     showgrid="true"
     inkscape:window-width="1366"
     inkscape:window-height="705"
     inkscape:window-x="-8"
     inkscape:window-y="-8"
     inkscape:window-maximized="1"
     inkscape:snap-global="false"
     showguides="true">
    <inkscape:grid
       type="xygrid"
       id="grid1972" />
  </sodipodi:namedview>
  <metadata
     id="metadata1405">
    <rdf:RDF>
      <cc:Work
         rdf:about="">
        <dc:format>image/svg+xml</dc:format>
        <dc:type
           rdf:resource="http://purl.org/dc/dcmitype/StillImage" />
        <dc:title />
      </cc:Work>
    </rdf:RDF>
  </metadata>
  <g
     inkscape:groupmode="layer"
     id="layer3"
     inkscape:label="BG" />
  <g
     inkscape:groupmode="layer"
     id="layer4"
     inkscape:label="Bounding Box" />
  <g
     inkscape:groupmode="layer"
     id="layer2"
     inkscape:label="Top">
    <path
       style="fill:#f24446;fill-opacity:1;stroke:none;stroke-width:3;stroke-linecap:round;stroke-linejoin:round;stroke-miterlimit:4;stroke-dasharray:none;stroke-opacity:1;paint-order:normal"
       id="path883"
       sodipodi:type="arc"
       sodipodi:cx="154.57903"
       sodipodi:cy="83.172447"
       sodipodi:rx="111.24604"
       sodipodi:ry="111.24604"
       sodipodi:start="5.9893981"
       sodipodi:end="5.9807042"
       sodipodi:open="true"
       sodipodi:arc-type="arc"
       d="M 261.05862,50.957904 A 111.24604,111.24604 0 0 1 187.02492,189.58178 111.24604,111.24604 0 0 1 48.240468,115.84955 111.24604,111.24604 0 0 1 121.67088,-23.094836 111.24604,111.24604 0 0 1 260.77453,50.03341"
       transform="rotate(16.68412)" />
    <g
       id="Icon_Test"
       data-name="Icon Test"
       transform="matrix(2.7001907,0,0,2.7001907,22.668619,22.742691)">
      <path
         class="cls-2"
         d="m 47.32,38.35 a 1,1 0 0 0 -0.94,0 1,1 0 0 0 -0.54,0.79 14.3,14.3 0 0 1 -0.57,2.81 A 15.29,15.29 0 0 0 40.88,31.7 16.14,16.14 0 0 0 36.21,28.4 11.65,11.65 0 0 0 31,26.17 a 1,1 0 0 0 -1.09,0.57 1,1 0 0 0 0.28,1.19 10.06,10.06 0 0 1 2.69,9.51 c -1.3,-1.75 -3.44,-4 -6,-4 a 1,1 0 0 0 -0.82,0.44 1,1 0 0 0 -0.11,0.92 c 0,0.06 2.38,6.24 0.1,9.83 -0.12,0.18 -0.23,0.36 -0.35,0.56 a 10.4,10.4 0 0 0 3.16,13.51 30.24,30.24 0 0 0 7,3.5 l 0.15,0.06 V 62.2 l 0.32,0.13 h 0.09 c 1.21,-0.11 11.8,-1.31 14,-9.57 2.8,-11.03 -2.87,-14.27 -3.1,-14.41 z M 30,57.06 A 8.36,8.36 0 0 1 27.45,46.17 c 0.08,-0.16 0.18,-0.32 0.28,-0.48 2,-3.11 1.29,-7.42 0.66,-9.83 a 12.86,12.86 0 0 1 4,4.48 1,1 0 0 0 0.95,0.53 1,1 0 0 0 0.87,-0.67 c 1.78,-5.07 0.7,-8.79 -0.58,-11.09 a 7.51,7.51 0 0 1 1.23,0.78 0.52,0.52 0 0 0 0.14,0.11 9.16,9.16 0 0 1 1.19,1.11 c 0,0 0,0 0,0 a 2.94,2.94 0 0 1 0.32,0.4 9.92,9.92 0 0 1 2,6.23 15.13,15.13 0 0 1 -2,7.34 c -0.21,0.38 -0.39,0.76 -0.58,1.15 A 21.08,21.08 0 0 0 34.83,59.65 27.47,27.47 0 0 1 30,57.06 Z m 18.44,-4.8 c -1.57,6 -9.09,7.63 -11.43,8 a 19.18,19.18 0 0 1 0.68,-13.15 q 0.24,-0.51 0.51,-1 A 17,17 0 0 0 40.46,37.79 13.21,13.21 0 0 0 39.77,33.5 C 42,35.89 44,39.84 43,45.86 a 1,1 0 0 0 1.62,0.94 c 0.09,-0.08 2,-1.67 2.88,-5.57 1.18,1.52 2.55,4.77 0.95,11.03 z"
         id="path14-6" />
      <path
         class="cls-2"
         d="m 36,62.2 v 0.06 a 0.84,0.84 0 0 0 0.35,0.07 v 0 z"
         id="path16" />
      <path
         class="cls-2"
         d="m 15.17,37.67 c 0,-0.17 0,-0.33 0,-0.5 a 4.5,4.5 0 0 0 2,-8.55 21.86,21.86 0 0 1 6.25,-8.08 L 22.14,19 a 23.67,23.67 0 0 0 -7,9.19 4.5,4.5 0 0 0 -1.94,8.54 q 0,0.48 0,1 a 24,24 0 0 0 8.26,18.11 l 1.33,-1.5 A 22,22 0 0 1 15.17,37.67 Z m -2.5,-5 a 2.5,2.5 0 1 1 2.5,2.5 2.5,2.5 0 0 1 -2.5,-2.5 z"
         id="path18" />
      <path
         class="cls-2"
         d="m 59.83,29.17 h -0.21 a 23,23 0 0 0 -2,-4.13 l -1.69,1.06 a 22,22 0 0 1 1.79,3.6 4.5,4.5 0 0 0 1.48,8.41 21.74,21.74 0 0 1 -4.28,12.61 l 1.59,1.2 a 23.61,23.61 0 0 0 4.69,-14 4.5,4.5 0 0 0 -1.33,-8.8 z m 0,7 a 2.5,2.5 0 1 1 2.5,-2.5 2.5,2.5 0 0 1 -2.5,2.5 z"
         id="path20" />
      <path
         class="cls-2"
         d="M 47.54,18.27 A 22,22 0 0 0 33.89,15.92 l -0.3,-2 a 24,24 0 0 1 14.9,2.57 z"
         id="path22-0" />
      <path
         class="cls-2"
         d="m 52.67,25.67 a 4.5,4.5 0 1 1 4.5,-4.5 4.51,4.51 0 0 1 -4.5,4.5 z m 0,-7 a 2.5,2.5 0 1 0 2.5,2.5 2.51,2.51 0 0 0 -2.5,-2.5 z"
         id="path24" />
      <path
         class="cls-2"
         d="m 28.17,21.67 a 4.5,4.5 0 1 1 4.5,-4.5 4.51,4.51 0 0 1 -4.5,4.5 z m 0,-7 a 2.5,2.5 0 1 0 2.5,2.5 2.51,2.51 0 0 0 -2.5,-2.5 z"
         id="path26" />
    </g>
  </g>
</svg>
