<svg xmlns="http://www.w3.org/2000/svg" width="110" height="110" version="1.0"><circle cx="55" cy="55" r="55" fill="#25B7D3"/><path fill="#3E3E3F" d="M65 85a2 2 0 0 1-2 2H47a2 2 0 0 1-2-2V57a2 2 0 0 1 2-2h16a2 2 0 0 1 2 2v28zM87 85a2 2 0 0 1-2 2H69a2 2 0 0 1-2-2V57a2 2 0 0 1 2-2h16a2 2 0 0 1 2 2v28zM43 85a2 2 0 0 1-2 2H25a2 2 0 0 1-2-2V57a2 2 0 0 1 2-2h16a2 2 0 0 1 2 2v28z"/><circle cx="38.5" cy="59.5" r="1.5" fill="#FA5655"/><circle cx="33.5" cy="59.5" r="1.5" fill="#F99134"/><circle cx="28.5" cy="59.5" r="1.5" fill="#FACB1B"/><path fill="#F0F1F1" d="M76 41.562c0-3.954-2.442-7.332-5.898-8.723-2.738-6.696-7.162-9.417-12.579-9.417a13.086 13.086 0 0 0-11.67 7.147c-3.443-1.466-7.325.969-7.468 4.74C35.251 36.414 33 39.393 33 42.906a8.062 8.062 0 0 0 8.062 8.062h26.875c0 .001 8.063-1.495 8.063-9.406z"/><path fill="#FFF" d="M57.523 23.422a13.086 13.086 0 0 0-11.67 7.147c-3.443-1.466-7.325.969-7.468 4.74C35.251 36.414 33 39.393 33 42.906c0 4.228 3.257 7.69 7.398 8.029l24.923-24.924c-2.238-1.786-4.871-2.589-7.798-2.589z"/><circle cx="60.5" cy="59.5" r="1.5" fill="#FA5655"/><circle cx="55.5" cy="59.5" r="1.5" fill="#F99134"/><circle cx="50.5" cy="59.5" r="1.5" fill="#FACB1B"/><circle cx="82.5" cy="59.5" r="1.5" fill="#FA5655"/><circle cx="77.5" cy="59.5" r="1.5" fill="#F99134"/><circle cx="72.5" cy="59.5" r="1.5" fill="#FACB1B"/><path fill="#818284" d="M23 80h20v2H23zM23 75h20v2H23zM23 70h20v2H23zM23 65h20v2H23zM45 80h20v2H45zM45 75h20v2H45zM45 70h20v2H45zM45 65h20v2H45zM67 80h20v2H67zM67 75h20v2H67zM67 70h20v2H67zM67 65h20v2H67z"/></svg>