<svg xmlns="http://www.w3.org/2000/svg" width="48" height="48"><g transform="translate(0 -1004.362)"><circle cx="24" cy="1028.362" r="24" fill="#239fdb" fill-rule="evenodd"/><path style="line-height:normal;-inkscape-font-specification:Sans;text-indent:0;text-align:start;text-decoration-line:none;text-transform:none;block-progression:tb;marker:none" fill="#0b5ecd" d="M18.277 47.277a24 24 0 0 0 .955.244 24 24 0 0 0 2.372.36A24 24 0 0 0 24 48a24 24 0 0 0 1.697-.06 24 24 0 0 0 2.383-.29 24 24 0 0 0 2.34-.525 24 24 0 0 0 2.277-.756 24 24 0 0 0 2.19-.98 24 24 0 0 0 2.08-1.194 24 24 0 0 0 1.951-1.394 24 24 0 0 0 1.803-1.584 24 24 0 0 0 1.634-1.756 24 24 0 0 0 1.454-1.91 24 24 0 0 0 1.254-2.045 24 24 0 0 0 1.042-2.16 24 24 0 0 0 .823-2.254 24 24 0 0 0 .593-2.324 24 24 0 0 0 .36-2.372A24 24 0 0 0 48 24a24 24 0 0 0-.06-1.697 24 24 0 0 0-.221-1.824L36.119 8.88A2.99 2.99 0 0 0 34 8H14c-1.653 0-3 1.347-3 3 0 .827.338 1.576.88 2.12L14.763 16H14c-1.653 0-3 1.347-3 3 0 .827.338 1.576.88 2.12L14.763 24H14c-1.653 0-3 1.347-3 3 0 .827.338 1.576.88 2.12L16.763 34H9v4l9.277 9.277z" color="#000" font-family="Sans" font-weight="400" transform="translate(0 1004.362)"/><path style="line-height:normal;-inkscape-font-specification:Sans;text-indent:0;text-align:start;text-decoration-line:none;text-transform:none;block-progression:tb;marker:none" fill="#fff" d="M6 0C4.347 0 3 1.347 3 3s1.347 3 3 3h9.5v2H6c-1.653 0-3 1.347-3 3s1.347 3 3 3h9.5v2H6c-1.653 0-3 1.347-3 3s1.347 3 3 3h9.5v3.063a3.062 3.062 0 0 0-1.719.937H1v4h12.781c.55.61 1.338 1 2.219 1 .881 0 1.669-.39 2.219-1H31v-4H18.219a3.062 3.062 0 0 0-1.719-.938V22H26c1.653 0 3-1.347 3-3s-1.347-3-3-3h-9.5v-2H26c1.653 0 3-1.347 3-3s-1.347-3-3-3h-9.5V6H26c1.653 0 3-1.347 3-3s-1.347-3-3-3H6Zm0 1h20c1.117 0 2 .883 2 2s-.883 2-2 2H6c-1.117 0-2-.883-2-2s.883-2 2-2Zm0 8h20c1.117 0 2 .883 2 2s-.883 2-2 2H6c-1.117 0-2-.883-2-2s.883-2 2-2Zm0 8h20c1.117 0 2 .883 2 2s-.883 2-2 2H6c-1.117 0-2-.883-2-2s.883-2 2-2Zm10 9c1.11 0 2 .89 2 2 0 1.11-.89 2-2 2-1.11 0-2-.89-2-2 0-1.11.89-2 2-2zm0 .5c-.822 0-1.5.677-1.5 1.5s.678 1.5 1.5 1.5 1.5-.677 1.5-1.5-.678-1.5-1.5-1.5zM2 27h11.188A2.922 2.922 0 0 0 13 28c0 .344.08.692.188 1H2v-2Zm16.813 0H30v2H18.812c.108-.308.188-.656.188-1 0-.354-.074-.684-.188-1ZM16 27.5c.282 0 .5.218.5.5 0 .282-.218.5-.5.5a.493.493 0 0 1-.5-.5c0-.282.218-.5.5-.5z" color="#000" font-family="Sans" font-weight="400" overflow="visible" transform="translate(8 1012.362)"/></g></svg>