<svg xmlns="http://www.w3.org/2000/svg" xmlns:svgjs="http://svgjs.com/svgjs" xmlns:xlink="http://www.w3.org/1999/xlink" width="288" height="288"><svg xmlns="http://www.w3.org/2000/svg" width="288" height="288" data-name="Layer 1" viewBox="0 0 128 128"><path fill="#387adf" d="M73.46 62H28a2 2 0 1 0 0 4H70zM80.47 54H28a2 2 0 1 0 0 4H77z" class="color000 svgShape"/><path fill="#387adf" d="M94,122a2,2,0,0,1-2,2H18a2,2,0,0,1-2-2V6a2,2,0,0,1,2-2H62V27c0,4.42,2.58,7,7,7H94v4.56l1-1.16a9.91,9.91,0,0,1,3-2.31V32.2h0L63.79,0H18a6,6,0,0,0-6,6V122a6,6,0,0,0,6,6H92a6,6,0,0,0,6-6V79.35l-4,4.56ZM66,27V7.62L89.82,30H69C66.79,30,66,29.21,66,27Z" class="color000 svgShape"/><path fill="#387adf" d="M116 50.11a5.92 5.92 0 0 0-2-4.1l-7.49-6.54A6 6 0 0 0 98 40L49.55 95.35a2 2 0 0 0-.43.81l-5.05 19.34a2 2 0 0 0 2.69 2.36l18.53-7.57a2 2 0 0 0 .75-.53l48.48-55.31A5.92 5.92 0 0 0 116 50.11zM52.29 99.84l9.2 7.67-12.55 5.12zm12.53 5.23l-10.68-8.9L95.4 49.1 106.08 58zm46.7-53.27L108.72 55 98 46.09l3-3.42a2 2 0 0 1 2.8-.19L111.33 49a2 2 0 0 1 .19 2.78zM30.74 28.19A10.94 10.94 0 0 0 25 37.88V46a2 2 0 0 0 4 0V37.88a6.86 6.86 0 0 1 4.48-6.55A12.08 12.08 0 0 1 30.74 28.19zM55 48a2 2 0 0 0 2-2V37.88a10.94 10.94 0 0 0-5.74-9.7 12.08 12.08 0 0 1-2.74 3.15A6.86 6.86 0 0 1 53 37.88V46A2 2 0 0 0 55 48zM41 14a8 8 0 1 0 8 8A8 8 0 0 0 41 14zm0 12a4 4 0 1 1 4-4A4 4 0 0 1 41 26zM66.44 70H28a2 2 0 1 0 0 4H62.94zM59.43 78H28a2 2 0 1 0 0 4H55.93zM52.42 86H28a2 2 0 1 0 0 4H48.91zM45.25 95.15A6 6 0 0 1 45.68 94H28a2 2 0 1 0 0 4H44.5zM84 96a2 2 0 0 0-.09-.57L81.66 98H82A2 2 0 0 0 84 96zM26 104a2 2 0 0 0 2 2H42.41l1-4H28A2 2 0 0 0 26 104zM84 104a2 2 0 0 0-2-2H78.15l-3.51 4H82A2 2 0 0 0 84 104z" class="color000 svgShape"/></svg></svg>