<?xml version="1.0" encoding="UTF-8" standalone="no"?>
<svg
   xmlns:dc="http://purl.org/dc/elements/1.1/"
   xmlns:cc="http://creativecommons.org/ns#"
   xmlns:rdf="http://www.w3.org/1999/02/22-rdf-syntax-ns#"
   xmlns:svg="http://www.w3.org/2000/svg"
   xmlns="http://www.w3.org/2000/svg"
   xmlns:sodipodi="http://sodipodi.sourceforge.net/DTD/sodipodi-0.dtd"
   xmlns:inkscape="http://www.inkscape.org/namespaces/inkscape"
   width="248.0px"
   height="248.0px"
   viewBox="0 0 248.0 248.0"
   version="1.1"
   id="SVGRoot"
   sodipodi:docname="App-Engine Dark.svg"
   inkscape:version="1.0.2-2 (e86c870879, 2021-01-15)">
  <defs
     id="defs1402">
    <inkscape:path-effect
       effect="fillet_chamfer"
       id="path-effect2040"
       is_visible="true"
       lpeversion="1"
       satellites_param="F,0,0,1,0,0,0,1 @ F,0,0,1,0,6.0755415,0,1 @ F,0,0,1,0,6.1445293,0,1 @ F,0,0,1,0,0,0,1"
       unit="px"
       method="auto"
       mode="F"
       radius="0"
       chamfer_steps="1"
       flexible="false"
       use_knot_distance="true"
       apply_no_radius="true"
       apply_with_radius="true"
       only_selected="true"
       hide_knots="false" />
    <style
       id="style1979">.cls-1{fill:url(#GreenGradient);}.cls-2{fill:#fff;}</style>
    <linearGradient
       id="GreenGradient"
       x1="-522.53"
       y1="465.47"
       x2="-416.47"
       y2="571.53"
       gradientTransform="rotate(-90,-456.5,24.5)"
       gradientUnits="userSpaceOnUse">
      <stop
         offset="0"
         stop-color="#1b660f"
         id="stop1981" />
      <stop
         offset="1"
         stop-color="#6cae3e"
         id="stop1983" />
    </linearGradient>
  </defs>
  <sodipodi:namedview
     id="base"
     pagecolor="#101010"
     bordercolor="#666666"
     borderopacity="1.0"
     inkscape:pageopacity="0"
     inkscape:pageshadow="2"
     inkscape:zoom="1.3552412"
     inkscape:cx="68.667405"
     inkscape:cy="126.30162"
     inkscape:document-units="px"
     inkscape:current-layer="layer2"
     inkscape:document-rotation="0"
     showgrid="true"
     inkscape:window-width="1366"
     inkscape:window-height="705"
     inkscape:window-x="-8"
     inkscape:window-y="-8"
     inkscape:window-maximized="1"
     inkscape:snap-global="false"
     showguides="true">
    <inkscape:grid
       type="xygrid"
       id="grid1972" />
  </sodipodi:namedview>
  <metadata
     id="metadata1405">
    <rdf:RDF>
      <cc:Work
         rdf:about="">
        <dc:format>image/svg+xml</dc:format>
        <dc:type
           rdf:resource="http://purl.org/dc/dcmitype/StillImage" />
        <dc:title />
      </cc:Work>
    </rdf:RDF>
  </metadata>
  <g
     inkscape:groupmode="layer"
     id="layer4"
     inkscape:label="Bounding Box" />
  <g
     inkscape:groupmode="layer"
     id="layer2"
     inkscape:label="Top">
    <path
       style="fill:#77767b;fill-opacity:1;stroke:none;stroke-width:3;stroke-linecap:round;stroke-linejoin:round;stroke-miterlimit:4;stroke-dasharray:none;stroke-opacity:1;paint-order:normal"
       id="path883"
       sodipodi:type="arc"
       sodipodi:cx="154.57903"
       sodipodi:cy="83.172447"
       sodipodi:rx="111.24604"
       sodipodi:ry="111.24604"
       sodipodi:start="5.9893981"
       sodipodi:end="5.9807042"
       sodipodi:open="true"
       sodipodi:arc-type="arc"
       d="M 261.05862,50.957904 A 111.24604,111.24604 0 0 1 187.02492,189.58178 111.24604,111.24604 0 0 1 48.240468,115.84955 111.24604,111.24604 0 0 1 121.67088,-23.094836 111.24604,111.24604 0 0 1 260.77453,50.03341"
       transform="rotate(16.68412)" />
    <g
       id="art"
       transform="matrix(10.051175,0,0,10.051175,43.23881,43.389253)"
       style="fill:none;stroke:#ffffff;stroke-width:0.29847257;stroke-miterlimit:4;stroke-dasharray:none;stroke-linejoin:round;stroke-linecap:round">
      <g
         id="g12"
         style="fill:none;stroke:#ffffff;stroke-width:0.29847257;stroke-miterlimit:4;stroke-dasharray:none;stroke-linejoin:round;stroke-linecap:round">
        <path
           d="M 8,4.64 A 4.91,4.91 0 1 0 12.91,9.55 4.91,4.91 0 0 0 8,4.64 m 0,8.63 A 3.72,3.72 0 1 1 11.72,9.55 3.72,3.72 0 0 1 8,13.27"
           id="path2"
           style="fill:none;stroke:#ffffff;stroke-width:0.29847257;stroke-miterlimit:4;stroke-dasharray:none;stroke-linejoin:round;stroke-linecap:round" />
        <path
           d="m 15.7,9 -2,-0.64 a 5.78,5.78 0 0 1 0.13,1.22 5.87,5.87 0 0 1 -0.06,0.86 h 2 a 0.36,0.36 0 0 0 0.3,-0.34 V 9.3 A 0.36,0.36 0 0 0 15.7,9"
           id="path4"
           style="fill:none;stroke:#ffffff;stroke-width:0.29847257;stroke-miterlimit:4;stroke-dasharray:none;stroke-linejoin:round;stroke-linecap:round" />
        <path
           d="m 8,3.77 a 5.83,5.83 0 0 1 1.2,0.12 l -0.73,-2 A 0.36,0.36 0 0 0 8.13,1.59 H 7.82 a 0.36,0.36 0 0 0 -0.34,0.3 l -0.64,2 A 5.8,5.8 0 0 1 8,3.77"
           id="path6"
           style="fill:none;stroke:#ffffff;stroke-width:0.29847257;stroke-miterlimit:4;stroke-dasharray:none;stroke-linejoin:round;stroke-linecap:round" />
        <path
           d="M 2.22,9.55 A 5.78,5.78 0 0 1 2.35,8.33 L 0.3,9 A 0.36,0.36 0 0 0 0,9.3 v 0.77 a 0.36,0.36 0 0 0 0.3,0.34 h 2 A 5.79,5.79 0 0 1 2.24,9.55"
           id="path8"
           style="fill:none;stroke:#ffffff;stroke-width:0.29847257;stroke-miterlimit:4;stroke-dasharray:none;stroke-linejoin:round;stroke-linecap:round" />
        <path
           d="M 9.75,7.94 9.29,8.4 v 0 a 1.77,1.77 0 0 0 -2.5,2.5 L 6.33,11.36 A 2.42,2.42 0 1 0 9.75,7.94 m -1,2.4 a 1.12,1.12 0 1 1 0,-1.59 1.12,1.12 0 0 1 0,1.59"
           id="path10"
           style="fill:none;stroke:#ffffff;stroke-width:0.29847257;stroke-miterlimit:4;stroke-dasharray:none;stroke-linejoin:round;stroke-linecap:round" />
      </g>
    </g>
  </g>
</svg>
