<?xml version="1.0" encoding="UTF-8" standalone="no"?>
<svg
   xmlns:dc="http://purl.org/dc/elements/1.1/"
   xmlns:cc="http://creativecommons.org/ns#"
   xmlns:rdf="http://www.w3.org/1999/02/22-rdf-syntax-ns#"
   xmlns:svg="http://www.w3.org/2000/svg"
   xmlns="http://www.w3.org/2000/svg"
   xmlns:sodipodi="http://sodipodi.sourceforge.net/DTD/sodipodi-0.dtd"
   xmlns:inkscape="http://www.inkscape.org/namespaces/inkscape"
   width="248.0px"
   height="248.0px"
   viewBox="0 0 248.0 248.0"
   version="1.1"
   id="SVGRoot"
   sodipodi:docname="AppEngine-512-_color.svg"
   inkscape:version="1.0.2-2 (e86c870879, 2021-01-15)">
  <defs
     id="defs1402">
    <inkscape:path-effect
       effect="fillet_chamfer"
       id="path-effect2040"
       is_visible="true"
       lpeversion="1"
       satellites_param="F,0,0,1,0,0,0,1 @ F,0,0,1,0,6.0755415,0,1 @ F,0,0,1,0,6.1445293,0,1 @ F,0,0,1,0,0,0,1"
       unit="px"
       method="auto"
       mode="F"
       radius="0"
       chamfer_steps="1"
       flexible="false"
       use_knot_distance="true"
       apply_no_radius="true"
       apply_with_radius="true"
       only_selected="true"
       hide_knots="false" />
    <style
       id="style1979">.cls-1{fill:url(#GreenGradient);}.cls-2{fill:#fff;}</style>
    <linearGradient
       id="GreenGradient"
       x1="-522.53"
       y1="465.47"
       x2="-416.47"
       y2="571.53"
       gradientTransform="rotate(-90,-288.67013,-93.777572)"
       gradientUnits="userSpaceOnUse">
      <stop
         offset="0"
         stop-color="#1b660f"
         id="stop1981" />
      <stop
         offset="1"
         stop-color="#6cae3e"
         id="stop1983" />
    </linearGradient>
    <linearGradient
       id="BlueGradient"
       x1="-15.53"
       y1="90.529999"
       x2="90.529999"
       y2="-15.53"
       gradientUnits="userSpaceOnUse"
       gradientTransform="translate(284.58953,-17.797714)">
      <stop
         offset="0"
         stop-color="#2e27ad"
         id="stop4" />
      <stop
         offset="1"
         stop-color="#527fff"
         id="stop6" />
    </linearGradient>
    <linearGradient
       id="BlueGradient-0"
       x1="-135.73"
       y1="248.64999"
       x2="14.27"
       y2="248.64999"
       gradientTransform="matrix(1.2104658,-1.2104658,1.2104658,1.2104658,113.49179,-339.31459)"
       gradientUnits="userSpaceOnUse">
      <stop
         offset="0"
         stop-color="#2e27ad"
         id="stop4-9" />
      <stop
         offset="1"
         stop-color="#527fff"
         id="stop6-8" />
    </linearGradient>
  </defs>
  <sodipodi:namedview
     id="base"
     pagecolor="#101010"
     bordercolor="#666666"
     borderopacity="1.0"
     inkscape:pageopacity="0"
     inkscape:pageshadow="2"
     inkscape:zoom="1.7379032"
     inkscape:cx="124"
     inkscape:cy="124"
     inkscape:document-units="px"
     inkscape:current-layer="layer2"
     inkscape:document-rotation="0"
     showgrid="true"
     inkscape:window-width="1366"
     inkscape:window-height="705"
     inkscape:window-x="-8"
     inkscape:window-y="-8"
     inkscape:window-maximized="1"
     inkscape:snap-global="false"
     showguides="true">
    <inkscape:grid
       type="xygrid"
       id="grid1972" />
  </sodipodi:namedview>
  <metadata
     id="metadata1405">
    <rdf:RDF>
      <cc:Work
         rdf:about="">
        <dc:format>image/svg+xml</dc:format>
        <dc:type
           rdf:resource="http://purl.org/dc/dcmitype/StillImage" />
        <dc:title />
      </cc:Work>
    </rdf:RDF>
  </metadata>
  <g
     inkscape:groupmode="layer"
     id="layer3"
     inkscape:label="BG" />
  <g
     inkscape:groupmode="layer"
     id="layer4"
     inkscape:label="Bounding Box" />
  <g
     inkscape:groupmode="layer"
     id="layer2"
     inkscape:label="Top">
    <path
       style="fill:#4868e9;fill-opacity:1;stroke:none;stroke-width:3;stroke-linecap:round;stroke-linejoin:round;stroke-miterlimit:4;stroke-dasharray:none;stroke-opacity:1;paint-order:normal"
       id="path883"
       sodipodi:type="arc"
       sodipodi:cx="154.57903"
       sodipodi:cy="83.172447"
       sodipodi:rx="111.24604"
       sodipodi:ry="111.24604"
       sodipodi:start="5.9893981"
       sodipodi:end="5.9807042"
       sodipodi:open="true"
       sodipodi:arc-type="arc"
       d="M 261.05862,50.957904 A 111.24604,111.24604 0 0 1 187.02492,189.58178 111.24604,111.24604 0 0 1 48.240468,115.84955 111.24604,111.24604 0 0 1 121.67088,-23.094836 111.24604,111.24604 0 0 1 260.77453,50.03341"
       transform="rotate(16.68412)" />
    <path
       class="cls-1"
       d="m 143.30695,114.75787 -10.39941,10.39941 a 14.576231,14.576231 0 0 1 -9.20604,25.65758 14.831954,14.831954 0 0 1 -11.33707,-5.45543 l -10.39942,10.39941 a 29.237703,29.237703 0 1 0 41.34194,-41.00097 z"
       id="path8"
       style="fill:#deddda;stroke-width:8.52411" />
    <path
       class="cls-2"
       d="m 123.7015,82.87769 a 53.275697,53.275697 0 1 0 53.27569,53.2757 53.275697,53.275697 0 0 0 -53.27569,-53.2757 m 0,91.54896 a 37.932297,37.932297 0 1 1 37.84705,-37.84706 37.847056,37.847056 0 0 1 -37.84705,37.84706"
       id="path10"
       style="fill:#ffffff;stroke-width:8.52411" />
    <path
       class="cls-3"
       d="m 205.70345,130.95368 -21.82173,-6.90453 a 60.521192,60.521192 0 0 1 1.4491,13.04189 64.95373,64.95373 0 0 1 -0.68193,9.20604 h 21.05456 a 3.7506091,3.7506091 0 0 0 3.23916,-3.58013 v -8.52411 a 3.7506091,3.7506091 0 0 0 -3.23916,-3.58013"
       id="path12"
       style="fill:#ffffff;stroke-width:8.52411" />
    <path
       class="cls-3"
       d="m 123.7015,76.569847 a 63.760355,63.760355 0 0 1 12.78616,1.278617 l -7.84218,-21.736485 c -0.59669,-1.875304 -1.79006,-3.239162 -3.58013,-3.239162 h -3.23916 a 3.8358502,3.8358502 0 0 0 -3.58013,3.239162 l -6.81929,21.651244 a 65.124213,65.124213 0 0 1 12.27473,-1.193376"
       id="path14"
       style="fill:#ffffff;stroke-width:8.52411" />
    <path
       class="cls-3"
       d="m 62.072168,137.09104 a 60.521192,60.521192 0 0 1 1.449099,-13.04189 l -21.821725,6.90453 a 3.7506091,3.7506091 0 0 0 -3.239163,3.58013 v 8.52411 a 3.7506091,3.7506091 0 0 0 3.239163,3.58012 H 62.754097 A 64.95373,64.95373 0 0 1 62.072168,137.432"
       id="path16"
       style="fill:#ffffff;stroke-width:8.52411" />
    <path
       class="cls-2"
       d="m 123.7015,114.75787 a 21.310279,21.310279 0 1 0 21.31027,21.31028 21.310279,21.310279 0 0 0 -21.31027,-21.31028 z m 0,31.96542 a 10.655139,10.655139 0 1 1 10.65513,-10.65514 10.655139,10.655139 0 0 1 -10.65513,10.74038 z"
       id="path18"
       style="fill:#ffffff;stroke-width:8.52411" />
  </g>
</svg>
