<?xml version="1.0" encoding="UTF-8" standalone="no"?>
<svg
   xmlns:dc="http://purl.org/dc/elements/1.1/"
   xmlns:cc="http://creativecommons.org/ns#"
   xmlns:rdf="http://www.w3.org/1999/02/22-rdf-syntax-ns#"
   xmlns:svg="http://www.w3.org/2000/svg"
   xmlns="http://www.w3.org/2000/svg"
   xmlns:sodipodi="http://sodipodi.sourceforge.net/DTD/sodipodi-0.dtd"
   xmlns:inkscape="http://www.inkscape.org/namespaces/inkscape"
   width="248.0px"
   height="248.0px"
   viewBox="0 0 248.0 248.0"
   version="1.1"
   id="SVGRoot"
   sodipodi:docname="AWS-Fargate White.svg"
   inkscape:version="1.0.2-2 (e86c870879, 2021-01-15)">
  <defs
     id="defs1402">
    <inkscape:path-effect
       effect="fillet_chamfer"
       id="path-effect2040"
       is_visible="true"
       lpeversion="1"
       satellites_param="F,0,0,1,0,0,0,1 @ F,0,0,1,0,6.0755415,0,1 @ F,0,0,1,0,6.1445293,0,1 @ F,0,0,1,0,0,0,1"
       unit="px"
       method="auto"
       mode="F"
       radius="0"
       chamfer_steps="1"
       flexible="false"
       use_knot_distance="true"
       apply_no_radius="true"
       apply_with_radius="true"
       only_selected="true"
       hide_knots="false" />
    <style
       id="style1979">.cls-1{fill:url(#GreenGradient);}.cls-2{fill:#fff;}</style>
    <linearGradient
       id="GreenGradient"
       x1="-522.53"
       y1="465.47"
       x2="-416.47"
       y2="571.53"
       gradientTransform="rotate(-90,-311.06298,-101.59047)"
       gradientUnits="userSpaceOnUse">
      <stop
         offset="0"
         stop-color="#1b660f"
         id="stop1981" />
      <stop
         offset="1"
         stop-color="#6cae3e"
         id="stop1983" />
    </linearGradient>
    <linearGradient
       id="PurpleGradient"
       x1="47.470001"
       y1="-104.53"
       x2="153.53"
       y2="1.53"
       gradientTransform="rotate(-90,113.5,24.5)"
       gradientUnits="userSpaceOnUse">
      <stop
         offset="0"
         stop-color="#4d27a8"
         id="stop5177" />
      <stop
         offset="1"
         stop-color="#a166ff"
         id="stop5179" />
    </linearGradient>
  </defs>
  <sodipodi:namedview
     id="base"
     pagecolor="#ffffff"
     bordercolor="#666666"
     borderopacity="1.0"
     inkscape:pageopacity="0.0"
     inkscape:pageshadow="2"
     inkscape:zoom="1.4969945"
     inkscape:cx="38.509847"
     inkscape:cy="124"
     inkscape:document-units="px"
     inkscape:current-layer="layer2"
     inkscape:document-rotation="0"
     showgrid="true"
     inkscape:window-width="1366"
     inkscape:window-height="705"
     inkscape:window-x="-8"
     inkscape:window-y="-8"
     inkscape:window-maximized="1"
     inkscape:snap-global="false"
     showguides="true">
    <inkscape:grid
       type="xygrid"
       id="grid1972" />
  </sodipodi:namedview>
  <metadata
     id="metadata1405">
    <rdf:RDF>
      <cc:Work
         rdf:about="">
        <dc:format>image/svg+xml</dc:format>
        <dc:type
           rdf:resource="http://purl.org/dc/dcmitype/StillImage" />
        <dc:title />
      </cc:Work>
    </rdf:RDF>
  </metadata>
  <g
     inkscape:groupmode="layer"
     id="layer3"
     inkscape:label="BG">
    <rect
       style="fill:#ffffff;fill-opacity:1;stroke:#ffffff;stroke-width:4.72441;stroke-linecap:round;stroke-linejoin:round;stroke-miterlimit:4;stroke-dasharray:none;paint-order:markers stroke fill"
       id="rect2013"
       width="250"
       height="250"
       x="0"
       y="0" />
  </g>
  <g
     inkscape:groupmode="layer"
     id="layer4"
     inkscape:label="Bounding Box" />
  <g
     inkscape:groupmode="layer"
     id="layer2"
     inkscape:label="Top">
    <path
       style="fill:none;fill-opacity:1;stroke:#000000;stroke-width:3;stroke-linecap:round;stroke-linejoin:round;stroke-miterlimit:4;stroke-dasharray:none;stroke-opacity:1;paint-order:normal"
       id="path883"
       sodipodi:type="arc"
       sodipodi:cx="154.57903"
       sodipodi:cy="83.172447"
       sodipodi:rx="111.24604"
       sodipodi:ry="111.24604"
       sodipodi:start="5.9893981"
       sodipodi:end="5.9807042"
       sodipodi:open="true"
       sodipodi:arc-type="arc"
       d="M 261.05862,50.957904 A 111.24604,111.24604 0 0 1 187.02492,189.58178 111.24604,111.24604 0 0 1 48.240468,115.84955 111.24604,111.24604 0 0 1 121.67088,-23.094836 111.24604,111.24604 0 0 1 260.77453,50.03341"
       transform="rotate(16.68412)" />
    <path
       style="fill:#f58d05;fill-opacity:1;stroke:none;stroke-width:4.05967;stroke-linecap:round;stroke-linejoin:round;stroke-miterlimit:4;stroke-dasharray:none;stroke-opacity:1;paint-order:normal"
       id="path885"
       sodipodi:type="arc"
       sodipodi:cx="154.37965"
       sodipodi:cy="83.180077"
       sodipodi:rx="100.36053"
       sodipodi:ry="100.36053"
       sodipodi:start="5.9893981"
       sodipodi:end="5.9807042"
       sodipodi:open="true"
       sodipodi:arc-type="arc"
       d="M 250.44014,54.117752 A 100.36053,100.36053 0 0 1 183.65069,179.17717 100.36053,100.36053 0 0 1 58.446409,112.6597 100.36053,100.36053 0 0 1 124.6916,-12.688868 100.36053,100.36053 0 0 1 250.18385,53.283721"
       transform="rotate(16.68412)" />
    <g
       id="Icon_Test"
       data-name="Icon Test"
       transform="matrix(2.8772411,0,0,2.8772411,16.103459,16.151134)"
       style="stroke:#000000;stroke-width:0.69511033;stroke-miterlimit:4;stroke-dasharray:none;stroke-linejoin:round;stroke-linecap:round">
      <path
         class="cls-2"
         d="m 24.79,36.41 a 1.64,1.64 0 0 0 0.24,0.23 5.32,5.32 0 0 0 0.47,0.36 l 0.11,0.06 a 4.82,4.82 0 0 0 0.5,0.27 l 0.31,0.13 h 0.1 0.11 l 0.25,0.11 c 0.47,0.17 1,0.37 1.58,0.55 l 0.91,0.27 0.49,0.13 a 31,31 0 0 0 7.64,0.89 v 0 a 27.7,27.7 0 0 0 11.4,-2.18 4.44,4.44 0 0 0 2.6,-4 V 18.88 a 1.58,1.58 0 0 0 -0.9,-1.42 l -12.42,-5.8 a 1.52,1.52 0 0 0 -1.33,0 l -12.45,5.8 a 1.58,1.58 0 0 0 -0.9,1.42 v 14.4 a 4.44,4.44 0 0 0 1.09,2.92 2,2 0 0 0 0.2,0.21 z m 5.1,0.14 -0.84,-0.25 c -0.54,-0.17 -1,-0.35 -1.41,-0.49 l -0.36,-0.15 v 0 L 26.94,35.5 a 3.41,3.41 0 0 1 -0.33,-0.17 v 0 L 26.36,35.14 26.23,35 A 0.3,0.3 0 0 0 26.15,34.92 L 26.07,34.83 A 2.42,2.42 0 0 1 25.48,33.24 V 20.08 l 11,5.15 v 12.24 a 27.82,27.82 0 0 1 -6.15,-0.8 z m 18.2,-1.06 a 24.89,24.89 0 0 1 -9.6,2 V 25.42 l 11,-5 v 12.8 a 2.42,2.42 0 0 1 -1.4,2.27 z M 37.5,13.55 l 11.06,5.16 -10.88,4.88 -0.08,-0.05 -10.75,-5 z"
         id="path14"
         style="stroke:#000000;stroke-width:0.69511033;stroke-miterlimit:4;stroke-dasharray:none;stroke-linejoin:round;stroke-linecap:round" />
      <path
         class="cls-2"
         d="m 54.78,27.68 -0.56,1.92 c 4.49,1.32 7.28,3.2 7.28,4.9 0,3.31 -9.86,7 -24,7 -14.14,0 -24,-3.69 -24,-7 0,-1.7 2.79,-3.58 7.28,-4.9 l -0.56,-1.92 c -5.62,1.65 -8.72,4.08 -8.72,6.82 0,5.84 13.4,9 26,9 12.6,0 26,-3.16 26,-9 0,-2.74 -3.1,-5.16 -8.72,-6.82 z"
         id="path16"
         style="stroke:#000000;stroke-width:0.69511033;stroke-miterlimit:4;stroke-dasharray:none;stroke-linejoin:round;stroke-linecap:round" />
      <path
         class="cls-2"
         d="m 54.72,46.64 -4.65,-2 a 1.3,1.3 0 0 0 -1.14,0 l -4.75,2.05 a 1.22,1.22 0 0 0 -0.68,1.1 v 5.15 L 39.07,51 a 1.34,1.34 0 0 0 -1.14,0 l -4.46,1.93 v -5.16 a 1.25,1.25 0 0 0 -0.74,-1.13 l -4.66,-2 a 1.28,1.28 0 0 0 -1.13,0 l -4.76,2.05 a 1.22,1.22 0 0 0 -0.68,1.1 v 6.08 A 1.25,1.25 0 0 0 22.24,55 l 4.65,2 v 0 H 27 A 1.33,1.33 0 0 0 27.5,57.11 1,1 0 0 0 28,57 l 4.49,-1.93 v 5.15 a 1.25,1.25 0 0 0 0.74,1.12 l 4.64,2 v 0 c 0,0 0,0 0.07,0 a 1.29,1.29 0 0 0 0.54,0.12 1.1,1.1 0 0 0 0.51,-0.12 l 4.77,-2.05 a 1.24,1.24 0 0 0 0.68,-1.1 V 55.07 L 48.88,57 v 0 H 49 A 1.46,1.46 0 0 0 49.54,57.12 1.1,1.1 0 0 0 50,57 l 4.78,-2 a 1.22,1.22 0 0 0 0.68,-1.1 v -6.13 a 1.25,1.25 0 0 0 -0.74,-1.13 z m -5.24,-0.08 2.73,1.16 -2.56,1.05 L 47,47.63 Z m -11,6.38 2.73,1.16 -2.56,1 L 36,54 Z m -11,-6.38 2.72,1.17 -2.56,1 -2.64,-1.1 z m -4,2.6 3,1.28 v 4.2 l -3,-1.29 z m 5,5.47 v -4 l 3,-1.23 v 4 z m 6,0.9 3,1.29 V 61 l -3,-1.29 z m 5,5.48 V 57 l 3,-1.24 v 4 z m 6,-11.85 3,1.28 v 4.2 l -3,-1.29 z m 5,5.48 v -4 l 3,-1.24 v 4 z"
         id="path18"
         style="stroke:#000000;stroke-width:0.69511033;stroke-miterlimit:4;stroke-dasharray:none;stroke-linejoin:round;stroke-linecap:round" />
    </g>
  </g>
</svg>
