<?xml version="1.0" encoding="UTF-8" standalone="no"?>
<svg
   xmlns:dc="http://purl.org/dc/elements/1.1/"
   xmlns:cc="http://creativecommons.org/ns#"
   xmlns:rdf="http://www.w3.org/1999/02/22-rdf-syntax-ns#"
   xmlns:svg="http://www.w3.org/2000/svg"
   xmlns="http://www.w3.org/2000/svg"
   xmlns:sodipodi="http://sodipodi.sourceforge.net/DTD/sodipodi-0.dtd"
   xmlns:inkscape="http://www.inkscape.org/namespaces/inkscape"
   width="248.0px"
   height="248.0px"
   viewBox="0 0 248.0 248.0"
   version="1.1"
   id="SVGRoot"
   sodipodi:docname="AWS-Snowball White.svg"
   inkscape:version="1.0.2-2 (e86c870879, 2021-01-15)">
  <defs
     id="defs1402">
    <inkscape:path-effect
       effect="fillet_chamfer"
       id="path-effect2040"
       is_visible="true"
       lpeversion="1"
       satellites_param="F,0,0,1,0,0,0,1 @ F,0,0,1,0,6.0755415,0,1 @ F,0,0,1,0,6.1445293,0,1 @ F,0,0,1,0,0,0,1"
       unit="px"
       method="auto"
       mode="F"
       radius="0"
       chamfer_steps="1"
       flexible="false"
       use_knot_distance="true"
       apply_no_radius="true"
       apply_with_radius="true"
       only_selected="true"
       hide_knots="false" />
    <style
       id="style1979">.cls-1{fill:url(#GreenGradient);}.cls-2{fill:#fff;}</style>
    <linearGradient
       id="GreenGradient"
       x1="-522.53"
       y1="465.47"
       x2="-416.47"
       y2="571.53"
       gradientTransform="rotate(-90,-311.06298,-101.59047)"
       gradientUnits="userSpaceOnUse">
      <stop
         offset="0"
         stop-color="#1b660f"
         id="stop1981" />
      <stop
         offset="1"
         stop-color="#6cae3e"
         id="stop1983" />
    </linearGradient>
    <linearGradient
       id="PurpleGradient"
       x1="47.470001"
       y1="-104.53"
       x2="153.53"
       y2="1.53"
       gradientTransform="rotate(-90,113.5,24.5)"
       gradientUnits="userSpaceOnUse">
      <stop
         offset="0"
         stop-color="#4d27a8"
         id="stop5177" />
      <stop
         offset="1"
         stop-color="#a166ff"
         id="stop5179" />
    </linearGradient>
  </defs>
  <sodipodi:namedview
     id="base"
     pagecolor="#ffffff"
     bordercolor="#666666"
     borderopacity="1.0"
     inkscape:pageopacity="0.0"
     inkscape:pageshadow="2"
     inkscape:zoom="1.6535746"
     inkscape:cx="124"
     inkscape:cy="124"
     inkscape:document-units="px"
     inkscape:current-layer="layer2"
     inkscape:document-rotation="0"
     showgrid="true"
     inkscape:window-width="1366"
     inkscape:window-height="705"
     inkscape:window-x="-8"
     inkscape:window-y="-8"
     inkscape:window-maximized="1"
     inkscape:snap-global="false"
     showguides="true">
    <inkscape:grid
       type="xygrid"
       id="grid1972" />
  </sodipodi:namedview>
  <metadata
     id="metadata1405">
    <rdf:RDF>
      <cc:Work
         rdf:about="">
        <dc:format>image/svg+xml</dc:format>
        <dc:type
           rdf:resource="http://purl.org/dc/dcmitype/StillImage" />
        <dc:title />
      </cc:Work>
    </rdf:RDF>
  </metadata>
  <g
     inkscape:groupmode="layer"
     id="layer3"
     inkscape:label="BG">
    <rect
       style="fill:#ffffff;fill-opacity:1;stroke:#ffffff;stroke-width:4.72441;stroke-linecap:round;stroke-linejoin:round;stroke-miterlimit:4;stroke-dasharray:none;paint-order:markers stroke fill"
       id="rect2013"
       width="250"
       height="250"
       x="-2.1062157"
       y="-9.126935" />
  </g>
  <g
     inkscape:groupmode="layer"
     id="layer4"
     inkscape:label="Bounding Box" />
  <g
     inkscape:groupmode="layer"
     id="layer2"
     inkscape:label="Top">
    <path
       style="fill:none;fill-opacity:1;stroke:#000000;stroke-width:3;stroke-linecap:round;stroke-linejoin:round;stroke-miterlimit:4;stroke-dasharray:none;stroke-opacity:1;paint-order:normal"
       id="path883"
       sodipodi:type="arc"
       sodipodi:cx="154.57903"
       sodipodi:cy="83.172447"
       sodipodi:rx="111.24604"
       sodipodi:ry="111.24604"
       sodipodi:start="5.9893981"
       sodipodi:end="5.9807042"
       sodipodi:open="true"
       sodipodi:arc-type="arc"
       d="M 261.05862,50.957904 A 111.24604,111.24604 0 0 1 187.02492,189.58178 111.24604,111.24604 0 0 1 48.240468,115.84955 111.24604,111.24604 0 0 1 121.67088,-23.094836 111.24604,111.24604 0 0 1 260.77453,50.03341"
       transform="rotate(16.68412)" />
    <path
       style="fill:#f58d05;fill-opacity:1;stroke:none;stroke-width:4.05967;stroke-linecap:round;stroke-linejoin:round;stroke-miterlimit:4;stroke-dasharray:none;stroke-opacity:1;paint-order:normal"
       id="path885"
       sodipodi:type="arc"
       sodipodi:cx="154.37965"
       sodipodi:cy="83.180077"
       sodipodi:rx="100.36053"
       sodipodi:ry="100.36053"
       sodipodi:start="5.9893981"
       sodipodi:end="5.9807042"
       sodipodi:open="true"
       sodipodi:arc-type="arc"
       d="M 250.44014,54.117752 A 100.36053,100.36053 0 0 1 183.65069,179.17717 100.36053,100.36053 0 0 1 58.446409,112.6597 100.36053,100.36053 0 0 1 124.6916,-12.688868 100.36053,100.36053 0 0 1 250.18385,53.283721"
       transform="rotate(16.68412)" />
    <g
       id="Icon_Test"
       data-name="Icon Test"
       transform="matrix(2.5076173,0,0,2.5076173,29.964351,29.964351)"
       style="stroke:#000000;stroke-width:1.00015261;stroke-miterlimit:4;stroke-dasharray:none;stroke-linejoin:round;stroke-linecap:round">
      <path
         class="cls-2"
         d="M 55.32,53 H 19.68 A 3.19,3.19 0 0 1 16.5,49.82 V 25.18 A 3.19,3.19 0 0 1 19.68,22 h 9.82 a 1,1 0 0 1 0.95,0.68 L 31.58,26 h 11.83 l 1.14,-3.32 a 1,1 0 0 1 1,-0.68 h 9.83 a 3.17,3.17 0 0 1 3.17,3.17 V 49.82 A 3.19,3.19 0 0 1 55.32,53 Z M 19.68,24 A 1.18,1.18 0 0 0 18.5,25.18 V 49.82 A 1.18,1.18 0 0 0 19.68,51 H 55.32 A 1.18,1.18 0 0 0 56.5,49.82 V 25.17 A 1.18,1.18 0 0 0 55.33,24 h -9.12 l -1.14,3.32 A 1,1 0 0 1 44.13,28 H 30.87 A 1,1 0 0 1 29.92,27.32 L 28.79,24 Z"
         id="path14"
         style="stroke:#000000;stroke-width:1.00015261;stroke-miterlimit:4;stroke-dasharray:none;stroke-linejoin:round;stroke-linecap:round" />
      <path
         class="cls-2"
         d="M 57.12,57 H 17.88 A 5.46,5.46 0 0 1 12.5,51.46 V 23.54 A 5.46,5.46 0 0 1 17.88,18 h 39.24 a 5.46,5.46 0 0 1 5.38,5.54 V 51.46 A 5.46,5.46 0 0 1 57.12,57 Z M 17.88,20 A 3.47,3.47 0 0 0 14.5,23.54 V 51.46 A 3.47,3.47 0 0 0 17.88,55 H 57.12 A 3.47,3.47 0 0 0 60.5,51.46 V 23.54 A 3.47,3.47 0 0 0 57.12,20 Z"
         id="path16"
         style="stroke:#000000;stroke-width:1.00015261;stroke-miterlimit:4;stroke-dasharray:none;stroke-linejoin:round;stroke-linecap:round" />
      <path
         class="cls-2"
         d="m 50.5,46 h -26 a 1,1 0 0 1 -1,-1 V 32 a 1,1 0 0 1 1,-1 h 26 a 1,1 0 0 1 1,1 v 13 a 1,1 0 0 1 -1,1 z m -25,-2 h 24 V 33 h -24 z"
         id="path18"
         style="stroke:#000000;stroke-width:1.00015261;stroke-miterlimit:4;stroke-dasharray:none;stroke-linejoin:round;stroke-linecap:round" />
      <rect
         class="cls-2"
         x="33.5"
         y="22"
         width="8"
         height="2"
         id="rect20"
         style="stroke:#000000;stroke-width:1.00015261;stroke-miterlimit:4;stroke-dasharray:none;stroke-linejoin:round;stroke-linecap:round" />
    </g>
  </g>
</svg>
