<?xml version="1.0" encoding="UTF-8" standalone="no"?>
<svg
   xmlns:dc="http://purl.org/dc/elements/1.1/"
   xmlns:cc="http://creativecommons.org/ns#"
   xmlns:rdf="http://www.w3.org/1999/02/22-rdf-syntax-ns#"
   xmlns:svg="http://www.w3.org/2000/svg"
   xmlns="http://www.w3.org/2000/svg"
   xmlns:sodipodi="http://sodipodi.sourceforge.net/DTD/sodipodi-0.dtd"
   xmlns:inkscape="http://www.inkscape.org/namespaces/inkscape"
   width="248.0px"
   height="248.0px"
   viewBox="0 0 248.0 248.0"
   version="1.1"
   id="SVGRoot"
   sodipodi:docname="AWS-CloudHSM_color.svg"
   inkscape:version="1.0.2-2 (e86c870879, 2021-01-15)">
  <defs
     id="defs1402">
    <inkscape:path-effect
       effect="fillet_chamfer"
       id="path-effect2040"
       is_visible="true"
       lpeversion="1"
       satellites_param="F,0,0,1,0,0,0,1 @ F,0,0,1,0,6.0755415,0,1 @ F,0,0,1,0,6.1445293,0,1 @ F,0,0,1,0,0,0,1"
       unit="px"
       method="auto"
       mode="F"
       radius="0"
       chamfer_steps="1"
       flexible="false"
       use_knot_distance="true"
       apply_no_radius="true"
       apply_with_radius="true"
       only_selected="true"
       hide_knots="false" />
    <style
       id="style1979">.cls-1{fill:url(#GreenGradient);}.cls-2{fill:#fff;}</style>
    <linearGradient
       id="GreenGradient"
       x1="-522.53"
       y1="465.47"
       x2="-416.47"
       y2="571.53"
       gradientTransform="rotate(-90,-288.67013,-93.777572)"
       gradientUnits="userSpaceOnUse">
      <stop
         offset="0"
         stop-color="#1b660f"
         id="stop1981" />
      <stop
         offset="1"
         stop-color="#6cae3e"
         id="stop1983" />
    </linearGradient>
    <linearGradient
       id="BlueGradient"
       x1="-15.53"
       y1="90.529999"
       x2="90.529999"
       y2="-15.53"
       gradientUnits="userSpaceOnUse"
       gradientTransform="translate(284.58953,-17.797714)">
      <stop
         offset="0"
         stop-color="#2e27ad"
         id="stop4" />
      <stop
         offset="1"
         stop-color="#527fff"
         id="stop6" />
    </linearGradient>
    <linearGradient
       id="BlueGradient-0"
       x1="-135.73"
       y1="248.64999"
       x2="14.27"
       y2="248.64999"
       gradientTransform="matrix(1.2104658,-1.2104658,1.2104658,1.2104658,113.49179,-339.31459)"
       gradientUnits="userSpaceOnUse">
      <stop
         offset="0"
         stop-color="#2e27ad"
         id="stop4-9" />
      <stop
         offset="1"
         stop-color="#527fff"
         id="stop6-8" />
    </linearGradient>
    <linearGradient
       id="a"
       gradientTransform="matrix(10.948793,0,0,-10.948793,-716.33299,1823.6321)"
       gradientUnits="userSpaceOnUse"
       x1="62.57"
       x2="25.030001"
       y1="150.13"
       y2="85.110001">
      <stop
         offset="0"
         stop-color="#0052cc"
         id="stop2" />
      <stop
         offset=".92"
         stop-color="#2684ff"
         id="stop4-5" />
    </linearGradient>
  </defs>
  <sodipodi:namedview
     id="base"
     pagecolor="#101010"
     bordercolor="#666666"
     borderopacity="1.0"
     inkscape:pageopacity="0"
     inkscape:pageshadow="2"
     inkscape:zoom="1.4243555"
     inkscape:cx="124"
     inkscape:cy="124"
     inkscape:document-units="px"
     inkscape:current-layer="layer2"
     inkscape:document-rotation="0"
     showgrid="true"
     inkscape:window-width="1366"
     inkscape:window-height="705"
     inkscape:window-x="-8"
     inkscape:window-y="-8"
     inkscape:window-maximized="1"
     inkscape:snap-global="false"
     showguides="true">
    <inkscape:grid
       type="xygrid"
       id="grid1972" />
  </sodipodi:namedview>
  <metadata
     id="metadata1405">
    <rdf:RDF>
      <cc:Work
         rdf:about="">
        <dc:format>image/svg+xml</dc:format>
        <dc:type
           rdf:resource="http://purl.org/dc/dcmitype/StillImage" />
        <dc:title />
      </cc:Work>
    </rdf:RDF>
  </metadata>
  <g
     inkscape:groupmode="layer"
     id="layer3"
     inkscape:label="BG" />
  <g
     inkscape:groupmode="layer"
     id="layer4"
     inkscape:label="Bounding Box" />
  <g
     inkscape:groupmode="layer"
     id="layer2"
     inkscape:label="Top">
    <path
       style="fill:#ef4043;fill-opacity:1;stroke:none;stroke-width:3;stroke-linecap:round;stroke-linejoin:round;stroke-miterlimit:4;stroke-dasharray:none;stroke-opacity:1;paint-order:normal"
       id="path883"
       sodipodi:type="arc"
       sodipodi:cx="154.57903"
       sodipodi:cy="83.172447"
       sodipodi:rx="111.24604"
       sodipodi:ry="111.24604"
       sodipodi:start="5.9893981"
       sodipodi:end="5.9807042"
       sodipodi:open="true"
       sodipodi:arc-type="arc"
       d="M 261.05862,50.957904 A 111.24604,111.24604 0 0 1 187.02492,189.58178 111.24604,111.24604 0 0 1 48.240468,115.84955 111.24604,111.24604 0 0 1 121.67088,-23.094836 111.24604,111.24604 0 0 1 260.77453,50.03341"
       transform="rotate(16.68412)" />
    <g
       id="Icon_Test-4"
       data-name="Icon Test"
       transform="matrix(2.4614558,0,0,2.4614558,31.763522,31.695407)">
      <path
         class="cls-2"
         d="M 47,44 A 2.5,2.5 0 1 0 49.5,46.5 2.5,2.5 0 0 0 47,44 Z m 0,3.15 A 0.65,0.65 0 1 1 47.65,46.5 0.65,0.65 0 0 1 47,47.15 Z"
         id="path14" />
      <path
         class="cls-2"
         d="M 62.21,57.26 54.72,49.78 A 7,7 0 0 0 55.15,47.31 7.33,7.33 0 0 0 47.83,40 4.06,4.06 0 0 0 47.32,40 H 47 46.84 a 4.6,4.6 0 0 0 -0.59,0.09 7.37,7.37 0 0 0 -1.11,0.32 c -0.23,0.09 -0.45,0.19 -0.7,0.31 -0.25,0.12 -0.4,0.22 -0.59,0.35 a 7.26,7.26 0 0 0 -3.38,6.15 7.33,7.33 0 0 0 7.33,7.31 7.09,7.09 0 0 0 2.43,-0.41 l 0.24,0.22 V 56 a 1,1 0 0 0 1,1 h 1.59 l 0.41,0.41 V 59 a 1,1 0 0 0 1,1 h 2.58 l 1.68,1.7 a 1,1 0 0 0 0.71,0.3 h 2 a 1,1 0 0 0 1,-1 V 58 A 1,1 0 0 0 62.21,57.26 Z M 60.5,60 H 59.89 L 58.21,58.3 A 1,1 0 0 0 57.5,58 h -2 v -1 a 1,1 0 0 0 -0.29,-0.71 l -1,-1 A 1,1 0 0 0 53.5,55 h -1 v -1 a 1,1 0 0 0 -0.31,-0.73 l -1,-1 A 1,1 0 0 0 50.08,52.09 5.18,5.18 0 0 1 47.85,52.58 5.3,5.3 0 0 1 45,42.84 l 0.42,-0.25 0.51,-0.23 a 5,5 0 0 1 0.8,-0.22 l 0.42,-0.07 h 0.35 0.14 0.23 a 5.32,5.32 0 0 1 5.32,5.31 5.06,5.06 0 0 1 -0.51,2.26 1,1 0 0 0 0.19,1.15 l 7.67,7.66 z"
         id="path16" />
      <path
         class="cls-2"
         d="M 18.5,48.68 V 15.32 A 0.3,0.3 0 0 1 18.78,15 h 33.44 a 0.3,0.3 0 0 1 0.28,0.32 V 39 h 2 V 15.32 A 2.3,2.3 0 0 0 52.22,13 H 18.78 A 2.3,2.3 0 0 0 16.5,15.32 V 20 h -3 a 1,1 0 0 0 -1,1 v 6 a 1,1 0 0 0 1,1 h 3 v 8 h -3 a 1,1 0 0 0 -1,1 v 6 a 1,1 0 0 0 1,1 h 3 v 4.68 A 2.3,2.3 0 0 0 18.78,51 H 38.5 V 49 H 18.78 A 0.3,0.3 0 0 1 18.5,48.68 Z M 14.5,26 v -4 h 2 v 4 z m 0,16 v -4 h 2 v 4 z"
         id="path18" />
      <path
         class="cls-2"
         d="m 34.5,23 a 9,9 0 0 1 8.5,6.13 l 1.9,-0.64 a 11,11 0 1 0 0,7 L 43,34.87 A 9,9 0 1 1 34.5,23 Z"
         id="path20" />
      <path
         class="cls-2"
         d="m 48.5,31 h -8.09 a 6,6 0 1 0 0,2 h 8.09 z m -14,5 a 4,4 0 1 1 4,-4 4,4 0 0 1 -4,4 z"
         id="path22" />
    </g>
  </g>
</svg>
