<?xml version="1.0" encoding="UTF-8" standalone="no"?>
<svg
   xmlns:dc="http://purl.org/dc/elements/1.1/"
   xmlns:cc="http://creativecommons.org/ns#"
   xmlns:rdf="http://www.w3.org/1999/02/22-rdf-syntax-ns#"
   xmlns:svg="http://www.w3.org/2000/svg"
   xmlns="http://www.w3.org/2000/svg"
   xmlns:sodipodi="http://sodipodi.sourceforge.net/DTD/sodipodi-0.dtd"
   xmlns:inkscape="http://www.inkscape.org/namespaces/inkscape"
   width="248.0px"
   height="248.0px"
   viewBox="0 0 248.0 248.0"
   version="1.1"
   id="SVGRoot"
   sodipodi:docname="bootstrap-4_color.svg"
   inkscape:version="1.0.2-2 (e86c870879, 2021-01-15)">
  <defs
     id="defs1402">
    <inkscape:path-effect
       effect="fillet_chamfer"
       id="path-effect2040"
       is_visible="true"
       lpeversion="1"
       satellites_param="F,0,0,1,0,0,0,1 @ F,0,0,1,0,6.0755415,0,1 @ F,0,0,1,0,6.1445293,0,1 @ F,0,0,1,0,0,0,1"
       unit="px"
       method="auto"
       mode="F"
       radius="0"
       chamfer_steps="1"
       flexible="false"
       use_knot_distance="true"
       apply_no_radius="true"
       apply_with_radius="true"
       only_selected="true"
       hide_knots="false" />
    <style
       id="style1979">.cls-1{fill:url(#GreenGradient);}.cls-2{fill:#fff;}</style>
    <linearGradient
       id="GreenGradient"
       x1="-522.53"
       y1="465.47"
       x2="-416.47"
       y2="571.53"
       gradientTransform="rotate(-90,-288.67013,-93.777572)"
       gradientUnits="userSpaceOnUse">
      <stop
         offset="0"
         stop-color="#1b660f"
         id="stop1981" />
      <stop
         offset="1"
         stop-color="#6cae3e"
         id="stop1983" />
    </linearGradient>
    <linearGradient
       id="BlueGradient"
       x1="-15.53"
       y1="90.529999"
       x2="90.529999"
       y2="-15.53"
       gradientUnits="userSpaceOnUse"
       gradientTransform="translate(284.58953,-17.797714)">
      <stop
         offset="0"
         stop-color="#2e27ad"
         id="stop4" />
      <stop
         offset="1"
         stop-color="#527fff"
         id="stop6" />
    </linearGradient>
    <linearGradient
       id="BlueGradient-0"
       x1="-135.73"
       y1="248.64999"
       x2="14.27"
       y2="248.64999"
       gradientTransform="matrix(1.2104658,-1.2104658,1.2104658,1.2104658,113.49179,-339.31459)"
       gradientUnits="userSpaceOnUse">
      <stop
         offset="0"
         stop-color="#2e27ad"
         id="stop4-9" />
      <stop
         offset="1"
         stop-color="#527fff"
         id="stop6-8" />
    </linearGradient>
    <linearGradient
       id="a"
       gradientTransform="matrix(10.948793,0,0,-10.948793,-716.33299,1823.6321)"
       gradientUnits="userSpaceOnUse"
       x1="62.57"
       x2="25.030001"
       y1="150.13"
       y2="85.110001">
      <stop
         offset="0"
         stop-color="#0052cc"
         id="stop2" />
      <stop
         offset=".92"
         stop-color="#2684ff"
         id="stop4-5" />
    </linearGradient>
  </defs>
  <sodipodi:namedview
     id="base"
     pagecolor="#101010"
     bordercolor="#666666"
     borderopacity="1.0"
     inkscape:pageopacity="0"
     inkscape:pageshadow="2"
     inkscape:zoom="1.7379032"
     inkscape:cx="124"
     inkscape:cy="124"
     inkscape:document-units="px"
     inkscape:current-layer="layer2"
     inkscape:document-rotation="0"
     showgrid="true"
     inkscape:window-width="1366"
     inkscape:window-height="705"
     inkscape:window-x="-8"
     inkscape:window-y="-8"
     inkscape:window-maximized="1"
     inkscape:snap-global="false"
     showguides="true">
    <inkscape:grid
       type="xygrid"
       id="grid1972" />
  </sodipodi:namedview>
  <metadata
     id="metadata1405">
    <rdf:RDF>
      <cc:Work
         rdf:about="">
        <dc:format>image/svg+xml</dc:format>
        <dc:type
           rdf:resource="http://purl.org/dc/dcmitype/StillImage" />
        <dc:title />
      </cc:Work>
    </rdf:RDF>
  </metadata>
  <g
     inkscape:groupmode="layer"
     id="layer3"
     inkscape:label="BG" />
  <g
     inkscape:groupmode="layer"
     id="layer4"
     inkscape:label="Bounding Box" />
  <g
     inkscape:groupmode="layer"
     id="layer2"
     inkscape:label="Top">
    <path
       style="fill:#563d7c;fill-opacity:1;stroke:none;stroke-width:3;stroke-linecap:round;stroke-linejoin:round;stroke-miterlimit:4;stroke-dasharray:none;stroke-opacity:1;paint-order:normal"
       id="path883"
       sodipodi:type="arc"
       sodipodi:cx="154.57903"
       sodipodi:cy="83.172447"
       sodipodi:rx="111.24604"
       sodipodi:ry="111.24604"
       sodipodi:start="5.9893981"
       sodipodi:end="5.9807042"
       sodipodi:open="true"
       sodipodi:arc-type="arc"
       d="M 261.05862,50.957904 A 111.24604,111.24604 0 0 1 187.02492,189.58178 111.24604,111.24604 0 0 1 48.240468,115.84955 111.24604,111.24604 0 0 1 121.67088,-23.094836 111.24604,111.24604 0 0 1 260.77453,50.03341"
       transform="rotate(16.68412)" />
    <path
       d="M 104.46075,113.68526 V 88.353964 h 22.29738 c 2.12415,0 4.17145,0.176781 6.14329,0.53104 1.97183,0.353561 3.71657,0.985219 5.23353,1.895672 1.51626,0.910454 2.72996,2.174468 3.64042,3.792042 0.90975,1.618273 1.36533,3.691424 1.36533,6.218752 0,4.55087 -1.36533,7.83773 -4.09599,9.85987 -2.72997,2.02284 -6.21876,3.03392 -10.46638,3.03392 z M 80.645727,69.847932 V 178.15207 H 133.1292 c 4.85413,0 9.58178,-0.60651 14.18295,-1.82021 4.60118,-1.21371 8.69648,-3.08422 12.28658,-5.61225 3.58941,-2.52803 6.44655,-5.78973 8.57001,-9.78371 2.12415,-3.99467 3.18553,-8.72232 3.18553,-14.18295 0,-6.77564 -1.64342,-12.56467 -4.92958,-17.36779 -3.28686,-4.80381 -8.26745,-8.16613 -14.94178,-10.08765 4.85412,-2.3254 8.52039,-5.309 10.99811,-8.94942 2.47702,-3.64041 3.71588,-8.19059 3.71588,-13.651912 0,-5.056056 -0.83429,-9.302976 -2.50287,-12.741457 -1.66858,-3.437783 -4.01983,-6.193599 -7.05375,-8.26675 -3.03321,-2.073151 -6.67363,-3.564953 -10.92124,-4.474708 -4.24692,-0.910454 -8.94942,-1.365331 -14.10679,-1.365331 z M 104.46075,159.64603 V 129.9155 h 25.93779 c 5.15738,0 9.30368,1.18785 12.43891,3.56496 3.13453,2.3764 4.70249,6.34522 4.70249,11.90716 0,2.83198 -0.48073,5.15737 -1.44149,6.97758 -0.96076,1.82021 -2.24993,3.2617 -3.86821,4.32308 -1.61757,1.06208 -3.48879,1.82021 -5.61225,2.27579 -2.12415,0.45418 -4.34823,0.68196 -6.67432,0.68196 z"
       fill="#ffffff"
       id="path4"
       style="stroke-width:0.698736" />
  </g>
</svg>
