<?xml version="1.0" encoding="UTF-8" standalone="no"?>
<svg
   xmlns:dc="http://purl.org/dc/elements/1.1/"
   xmlns:cc="http://creativecommons.org/ns#"
   xmlns:rdf="http://www.w3.org/1999/02/22-rdf-syntax-ns#"
   xmlns:svg="http://www.w3.org/2000/svg"
   xmlns="http://www.w3.org/2000/svg"
   xmlns:sodipodi="http://sodipodi.sourceforge.net/DTD/sodipodi-0.dtd"
   xmlns:inkscape="http://www.inkscape.org/namespaces/inkscape"
   width="248.0px"
   height="248.0px"
   viewBox="0 0 248.0 248.0"
   version="1.1"
   id="SVGRoot"
   sodipodi:docname="EFS-Standard_dark-bg-color.svg"
   inkscape:version="1.0.2-2 (e86c870879, 2021-01-15)">
  <defs
     id="defs1402">
    <inkscape:path-effect
       effect="fillet_chamfer"
       id="path-effect2040"
       is_visible="true"
       lpeversion="1"
       satellites_param="F,0,0,1,0,0,0,1 @ F,0,0,1,0,6.0755415,0,1 @ F,0,0,1,0,6.1445293,0,1 @ F,0,0,1,0,0,0,1"
       unit="px"
       method="auto"
       mode="F"
       radius="0"
       chamfer_steps="1"
       flexible="false"
       use_knot_distance="true"
       apply_no_radius="true"
       apply_with_radius="true"
       only_selected="true"
       hide_knots="false" />
    <style
       id="style1979">.cls-1{fill:url(#GreenGradient);}.cls-2{fill:#fff;}</style>
    <linearGradient
       id="GreenGradient"
       x1="-522.53"
       y1="465.47"
       x2="-416.47"
       y2="571.53"
       gradientTransform="rotate(-90,-288.67013,-93.777572)"
       gradientUnits="userSpaceOnUse">
      <stop
         offset="0"
         stop-color="#1b660f"
         id="stop1981" />
      <stop
         offset="1"
         stop-color="#6cae3e"
         id="stop1983" />
    </linearGradient>
    <linearGradient
       id="BlueGradient"
       x1="-15.53"
       y1="90.529999"
       x2="90.529999"
       y2="-15.53"
       gradientUnits="userSpaceOnUse"
       gradientTransform="translate(284.58953,-17.797714)">
      <stop
         offset="0"
         stop-color="#2e27ad"
         id="stop4" />
      <stop
         offset="1"
         stop-color="#527fff"
         id="stop6" />
    </linearGradient>
    <linearGradient
       id="BlueGradient-0"
       x1="-135.73"
       y1="248.64999"
       x2="14.27"
       y2="248.64999"
       gradientTransform="matrix(1.2104658,-1.2104658,1.2104658,1.2104658,113.49179,-339.31459)"
       gradientUnits="userSpaceOnUse">
      <stop
         offset="0"
         stop-color="#2e27ad"
         id="stop4-9" />
      <stop
         offset="1"
         stop-color="#527fff"
         id="stop6-8" />
    </linearGradient>
    <linearGradient
       id="a"
       gradientTransform="matrix(10.948793,0,0,-10.948793,-716.33299,1823.6321)"
       gradientUnits="userSpaceOnUse"
       x1="62.57"
       x2="25.030001"
       y1="150.13"
       y2="85.110001">
      <stop
         offset="0"
         stop-color="#0052cc"
         id="stop2" />
      <stop
         offset=".92"
         stop-color="#2684ff"
         id="stop4-5" />
    </linearGradient>
  </defs>
  <sodipodi:namedview
     id="base"
     pagecolor="#101010"
     bordercolor="#666666"
     borderopacity="1.0"
     inkscape:pageopacity="0"
     inkscape:pageshadow="2"
     inkscape:zoom="1.6535746"
     inkscape:cx="124"
     inkscape:cy="124"
     inkscape:document-units="px"
     inkscape:current-layer="layer2"
     inkscape:document-rotation="0"
     showgrid="true"
     inkscape:window-width="1366"
     inkscape:window-height="705"
     inkscape:window-x="-8"
     inkscape:window-y="-8"
     inkscape:window-maximized="1"
     inkscape:snap-global="false"
     showguides="true">
    <inkscape:grid
       type="xygrid"
       id="grid1972" />
  </sodipodi:namedview>
  <metadata
     id="metadata1405">
    <rdf:RDF>
      <cc:Work
         rdf:about="">
        <dc:format>image/svg+xml</dc:format>
        <dc:type
           rdf:resource="http://purl.org/dc/dcmitype/StillImage" />
        <dc:title />
      </cc:Work>
    </rdf:RDF>
  </metadata>
  <g
     inkscape:groupmode="layer"
     id="layer3"
     inkscape:label="BG"
     style="display:inline" />
  <g
     inkscape:groupmode="layer"
     id="layer4"
     inkscape:label="Bounding Box"
     style="display:inline" />
  <g
     inkscape:groupmode="layer"
     id="layer2"
     inkscape:label="Top"
     style="display:inline">
    <path
       style="display:inline;fill:#6cae3e;fill-opacity:1;stroke:none;stroke-width:3;stroke-linecap:round;stroke-linejoin:round;stroke-miterlimit:4;stroke-dasharray:none;stroke-opacity:1;paint-order:normal"
       id="path883"
       sodipodi:type="arc"
       sodipodi:cx="154.57903"
       sodipodi:cy="83.172447"
       sodipodi:rx="111.24604"
       sodipodi:ry="111.24604"
       sodipodi:start="5.9893981"
       sodipodi:end="5.9807042"
       sodipodi:open="true"
       sodipodi:arc-type="arc"
       d="M 261.05862,50.957904 A 111.24604,111.24604 0 0 1 187.02492,189.58178 111.24604,111.24604 0 0 1 48.240468,115.84955 111.24604,111.24604 0 0 1 121.67088,-23.094836 111.24604,111.24604 0 0 1 260.77453,50.03341"
       transform="rotate(16.68412)" />
    <g
       id="Group-16"
       transform="matrix(2.4353823,0,0,2.4353823,59.129266,60.119679)"
       fill="#232f3e"
       style="fill-rule:evenodd;stroke:none;stroke-width:1">
      <path
         d="m 41,30.3711 v -11.734 l 8,-3.79 v 11.314 z m -10,18.391 v -11.646 l 8,-3.581 v 11.227 z m -10,-15.086 8,3.789 v 11.522 l -8,-4.211 z m -11,-18.928 8,3.789 v 11.665 l -8,-4 z m 8.839,-5.422 8.28,4.091 -7.845,3.512 -7.831,-3.71 z M 29,14.7671 v 11.413 l -9,4.737 v -12.122 z m 10,15.662 -8,-4 v -11.308 l 8,3.58 z m -9.384,5.116 -7.428,-3.52 7.567,-3.982 7.85,3.925 z m 10.626,-26.12 7.359,3.873 -7.665,3.631 -7.808,-3.495 z m 10.224,3.121 -9.743,-5.128 c -0.284,-0.151 -0.622,-0.154 -0.91,-0.012 l -10.222,5.051 0.019,-0.04 -10.342,-5.109 c -0.287,-0.142 -0.625,-0.137 -0.909,0.011 l -9.825,5.171 C 8.206,12.6631 8,13.0041 8,13.3751 v 13.445 c 0,0.379 0.214,0.725 0.553,0.895 l 10.342,5.171 0.105,-0.21 v 12.704 c 0,0.371 0.206,0.712 0.534,0.885 l 9.743,5.128 c 0.146,0.078 0.306,0.116 0.466,0.116 0.153,0 0.307,-0.035 0.447,-0.106 l 0.807,-0.403 H 31 v -0.002 l 9.447,-4.724 C 40.786,46.1041 41,45.7591 41,45.3801 v -12.749 l 9.466,-4.982 C 50.794,27.4761 51,27.1361 51,26.7651 v -13.334 c 0,-0.372 -0.206,-0.712 -0.534,-0.885 z"
         id="Fill-2" />
      <polygon
         id="Fill-4"
         points="17.189,4.2471 11.539,0.9511 10.531,2.6801 16.181,5.9761 " />
      <polygon
         id="Fill-6"
         points="12.5679,6.5898 7.2809,3.6658 6.3139,5.4158 11.5999,8.3398 " />
      <polygon
         id="Fill-8"
         points="8.4136,10.1553 2.1746,6.5643 1.1766,8.2993 7.4156,11.8893 " />
      <polygon
         id="Fill-10"
         points="5.4766,17.6348 6.4686,15.8988 3.5846,14.2498 2.5926,15.9868 " />
      <polygon
         id="Fill-12"
         points="3.3574,29.7988 11.3574,33.9848 12.2844,32.2128 4.2844,28.0278 " />
      <polygon
         id="Fill-14"
         points="6.7871,23.4307 1.6151,20.5077 0.6311,22.2477 5.8031,25.1707 " />
    </g>
  </g>
</svg>
