<?xml version="1.0" encoding="UTF-8" standalone="no"?>
<svg
   xmlns:dc="http://purl.org/dc/elements/1.1/"
   xmlns:cc="http://creativecommons.org/ns#"
   xmlns:rdf="http://www.w3.org/1999/02/22-rdf-syntax-ns#"
   xmlns:svg="http://www.w3.org/2000/svg"
   xmlns="http://www.w3.org/2000/svg"
   xmlns:sodipodi="http://sodipodi.sourceforge.net/DTD/sodipodi-0.dtd"
   xmlns:inkscape="http://www.inkscape.org/namespaces/inkscape"
   width="248.0px"
   height="248.0px"
   viewBox="0 0 248.0 248.0"
   version="1.1"
   id="SVGRoot"
   sodipodi:docname="iconmonstr-github-1 White.svg"
   inkscape:version="1.0.2-2 (e86c870879, 2021-01-15)">
  <defs
     id="defs1402">
    <inkscape:path-effect
       effect="fillet_chamfer"
       id="path-effect2040"
       is_visible="true"
       lpeversion="1"
       satellites_param="F,0,0,1,0,0,0,1 @ F,0,0,1,0,6.0755415,0,1 @ F,0,0,1,0,6.1445293,0,1 @ F,0,0,1,0,0,0,1"
       unit="px"
       method="auto"
       mode="F"
       radius="0"
       chamfer_steps="1"
       flexible="false"
       use_knot_distance="true"
       apply_no_radius="true"
       apply_with_radius="true"
       only_selected="true"
       hide_knots="false" />
    <style
       id="style1979">.cls-1{fill:url(#GreenGradient);}.cls-2{fill:#fff;}</style>
    <linearGradient
       id="GreenGradient"
       x1="-522.53"
       y1="465.47"
       x2="-416.47"
       y2="571.53"
       gradientTransform="rotate(-90,-311.06298,-101.59047)"
       gradientUnits="userSpaceOnUse">
      <stop
         offset="0"
         stop-color="#1b660f"
         id="stop1981" />
      <stop
         offset="1"
         stop-color="#6cae3e"
         id="stop1983" />
    </linearGradient>
    <linearGradient
       id="PurpleGradient"
       x1="47.470001"
       y1="-104.53"
       x2="153.53"
       y2="1.53"
       gradientTransform="rotate(-90,113.5,24.5)"
       gradientUnits="userSpaceOnUse">
      <stop
         offset="0"
         stop-color="#4d27a8"
         id="stop5177" />
      <stop
         offset="1"
         stop-color="#a166ff"
         id="stop5179" />
    </linearGradient>
  </defs>
  <sodipodi:namedview
     id="base"
     pagecolor="#ffffff"
     bordercolor="#666666"
     borderopacity="1.0"
     inkscape:pageopacity="0.0"
     inkscape:pageshadow="2"
     inkscape:zoom="1.6535746"
     inkscape:cx="124"
     inkscape:cy="124"
     inkscape:document-units="px"
     inkscape:current-layer="layer2"
     inkscape:document-rotation="0"
     showgrid="true"
     inkscape:window-width="1366"
     inkscape:window-height="705"
     inkscape:window-x="-8"
     inkscape:window-y="-8"
     inkscape:window-maximized="1"
     inkscape:snap-global="false"
     showguides="true">
    <inkscape:grid
       type="xygrid"
       id="grid1972" />
  </sodipodi:namedview>
  <metadata
     id="metadata1405">
    <rdf:RDF>
      <cc:Work
         rdf:about="">
        <dc:format>image/svg+xml</dc:format>
        <dc:type
           rdf:resource="http://purl.org/dc/dcmitype/StillImage" />
        <dc:title />
      </cc:Work>
    </rdf:RDF>
  </metadata>
  <g
     inkscape:groupmode="layer"
     id="layer3"
     inkscape:label="BG">
    <rect
       style="fill:#ffffff;fill-opacity:1;stroke:#ffffff;stroke-width:4.72441;stroke-linecap:round;stroke-linejoin:round;stroke-miterlimit:4;stroke-dasharray:none;paint-order:markers stroke fill"
       id="rect2013"
       width="250"
       height="250"
       x="-2.1062157"
       y="-9.126935" />
  </g>
  <g
     inkscape:groupmode="layer"
     id="layer4"
     inkscape:label="Bounding Box" />
  <g
     inkscape:groupmode="layer"
     id="layer2"
     inkscape:label="Top">
    <path
       style="fill:none;fill-opacity:1;stroke:#000000;stroke-width:3;stroke-linecap:round;stroke-linejoin:round;stroke-miterlimit:4;stroke-dasharray:none;stroke-opacity:1;paint-order:normal"
       id="path883"
       sodipodi:type="arc"
       sodipodi:cx="154.57903"
       sodipodi:cy="83.172447"
       sodipodi:rx="111.24604"
       sodipodi:ry="111.24604"
       sodipodi:start="5.9893981"
       sodipodi:end="5.9807042"
       sodipodi:open="true"
       sodipodi:arc-type="arc"
       d="M 261.05862,50.957904 A 111.24604,111.24604 0 0 1 187.02492,189.58178 111.24604,111.24604 0 0 1 48.240468,115.84955 111.24604,111.24604 0 0 1 121.67088,-23.094836 111.24604,111.24604 0 0 1 260.77453,50.03341"
       transform="rotate(16.68412)" />
    <path
       style="fill:#fd9601;fill-opacity:1;stroke:none;stroke-width:4.05967;stroke-linecap:round;stroke-linejoin:round;stroke-miterlimit:4;stroke-dasharray:none;stroke-opacity:1;paint-order:normal"
       id="path885"
       sodipodi:type="arc"
       sodipodi:cx="154.37965"
       sodipodi:cy="83.180077"
       sodipodi:rx="100.36053"
       sodipodi:ry="100.36053"
       sodipodi:start="5.9893981"
       sodipodi:end="5.9807042"
       sodipodi:open="true"
       sodipodi:arc-type="arc"
       d="M 250.44014,54.117752 A 100.36053,100.36053 0 0 1 183.65069,179.17717 100.36053,100.36053 0 0 1 58.446409,112.6597 100.36053,100.36053 0 0 1 124.6916,-12.688868 100.36053,100.36053 0 0 1 250.18385,53.283721"
       transform="rotate(16.68412)" />
    <path
       d="m 124,50.643519 c -41.528987,0 -75.210963,33.675706 -75.210963,75.210951 0,33.23071 21.547939,61.42228 51.438033,71.36893 3.75428,0.6957 4.97019,-1.63584 4.97019,-3.61639 v -14.00177 c -20.921187,4.55026 -25.277156,-8.8749 -25.277156,-8.8749 -3.422096,-8.69313 -8.354682,-11.00587 -8.354682,-11.00587 -6.825394,-4.66935 0.520209,-4.56906 0.520209,-4.56906 7.552432,0.52647 11.526083,7.75299 11.526083,7.75299 6.70631,11.49475 17.593096,8.17293 21.886386,6.24878 0.67064,-4.85738 2.61985,-8.17919 4.7759,-10.0532 -16.703102,-1.91161 -34.264864,-8.36095 -34.264864,-37.17301 0,-8.2168 2.939498,-14.92311 7.746728,-20.18788 -0.77718,-1.89907 -3.35315,-9.551785 0.73331,-19.905827 0,0 6.317724,-2.018161 20.689286,7.709123 5.99807,-1.667176 12.42861,-2.500764 18.82154,-2.532102 6.39293,0.03134 12.82974,0.864926 18.84034,2.532102 14.35903,-9.727284 20.66421,-7.709123 20.66421,-7.709123 4.09273,10.360309 1.51676,18.013024 0.73958,19.905827 4.82604,5.26477 7.74046,11.97735 7.74046,20.18788 0,28.88727 -17.5931,35.24886 -34.34007,37.11034 2.69506,2.33153 5.15822,6.90687 5.15822,13.92656 v 20.63914 c 0,1.99936 1.20337,4.3497 5.02033,3.61013 29.86502,-9.95919 51.38789,-38.1445 51.38789,-71.36267 0,-41.535245 -33.67571,-75.210951 -75.21096,-75.210951 z"
       id="path2"
       style="fill:#000000;stroke-width:2.5;stroke:#000000;stroke-miterlimit:4;stroke-dasharray:none;stroke-linejoin:round;stroke-linecap:round" />
  </g>
</svg>
