<svg width="64" height="64" viewBox="0 0 64 64" fill="none" xmlns="http://www.w3.org/2000/svg">
<path fill-rule="evenodd" clip-rule="evenodd" d="M35.8064 34.1023C35.8064 34.2617 35.7607 37.6601 32.9516 38.2967V28.1166L35.8064 29.3213V34.1023ZM28.1936 34.0875V29.3213L31.0484 28.1166V38.2995C28.3126 37.6879 28.1965 34.486 28.1936 34.0875ZM37.1358 27.8626L32.3778 25.8544C32.137 25.7525 31.863 25.7525 31.6222 25.8544L26.8643 27.8626C26.515 28.0091 26.2904 28.3436 26.2904 28.7134V34.0875C26.2904 36.2236 27.4837 40.2623 32 40.2623C36.5163 40.2623 37.7096 36.2329 37.7096 34.1023V28.7134C37.7096 28.3436 37.485 28.0091 37.1358 27.8626ZM49.909 46.0841C48.218 46.0841 46.843 44.7449 46.843 43.0981C46.843 41.4513 48.218 40.1113 49.909 40.1113C51.6009 40.1113 52.976 41.4513 52.976 43.0981C52.976 44.7449 51.6009 46.0841 49.909 46.0841ZM32.0923 42.1714C26.8329 42.1714 22.5545 38.0048 22.5545 32.8837C22.5545 27.7616 26.8329 23.595 32.0923 23.595C37.3508 23.595 41.6292 27.7616 41.6292 32.8837C41.6292 38.0048 37.3508 42.1714 32.0923 42.1714ZM35.1764 53.1597C35.1764 54.8065 33.8014 56.1465 32.1094 56.1465C30.4185 56.1465 29.0434 54.8065 29.0434 53.1597C29.0434 51.5138 30.4185 50.1737 32.1094 50.1737C33.8014 50.1737 35.1764 51.5138 35.1764 53.1597ZM29.1024 11.8394C29.1024 10.1926 30.4775 8.85347 32.1694 8.85347C33.8594 8.85347 35.2345 10.1926 35.2345 11.8394C35.2345 13.4862 33.8594 14.8263 32.1694 14.8263C30.4775 14.8263 29.1024 13.4862 29.1024 11.8394ZM13.9702 44.9553C12.2782 44.9553 10.9032 43.6162 10.9032 41.9694C10.9032 40.3226 12.2782 38.9834 13.9702 38.9834C15.6602 38.9834 17.0353 40.3226 17.0353 41.9694C17.0353 43.6162 15.6602 44.9553 13.9702 44.9553ZM15.0141 25.4142C13.3231 25.4142 11.948 24.0751 11.948 22.4283C11.948 20.7815 13.3231 19.4414 15.0141 19.4414C16.705 19.4414 18.0801 20.7815 18.0801 22.4283C18.0801 24.0751 16.705 25.4142 15.0141 25.4142ZM50.0298 18.7074C51.7218 18.7074 53.0968 20.0466 53.0968 21.6934C53.0968 23.3402 51.7218 24.6802 50.0298 24.6802C48.3398 24.6802 46.9648 23.3402 46.9648 21.6934C46.9648 20.0466 48.3398 18.7074 50.0298 18.7074ZM49.909 38.2578C48.5339 38.2578 47.2873 38.8064 46.3871 39.6887L42.6131 37.2532C43.2031 35.9104 43.5324 34.4341 43.5324 32.8837C43.5324 30.855 42.9633 28.958 41.9879 27.3186L46.3063 24.8637C47.2179 25.8785 48.5406 26.5337 50.0298 26.5337C52.7704 26.5337 55 24.3624 55 21.6934C55 19.0244 52.7704 16.854 50.0298 16.854C47.2902 16.854 45.0616 19.0244 45.0616 21.6934C45.0616 22.2448 45.1767 22.7665 45.3518 23.2605L40.905 25.7877C38.9961 23.5422 36.1984 22.0437 33.0439 21.7888V16.5935C35.3658 16.1886 37.1377 14.2165 37.1377 11.8394C37.1377 9.17134 34.909 7 32.1694 7C29.4288 7 27.1992 9.17134 27.1992 11.8394C27.1992 14.1646 28.8921 16.1089 31.1407 16.5722V21.7888C27.7626 22.0613 24.8041 23.7692 22.8971 26.2825L19.6255 24.2057C19.8501 23.6543 19.9833 23.0575 19.9833 22.4283C19.9833 19.7593 17.7537 17.5879 15.0141 17.5879C12.2744 17.5879 10.0448 19.7593 10.0448 22.4283C10.0448 25.0973 12.2744 27.2677 15.0141 27.2677C16.4243 27.2677 17.6918 26.6875 18.5968 25.7654L21.895 27.8598C21.1062 29.3713 20.6513 31.0747 20.6513 32.8837C20.6513 34.2608 20.9216 35.5749 21.3935 36.7945L17.7194 38.8296C16.8078 37.7981 15.4737 37.13 13.9702 37.13C11.2296 37.13 9 39.3004 9 41.9694C9 44.6384 11.2296 46.8088 13.9702 46.8088C16.7098 46.8088 18.9384 44.6384 18.9384 41.9694C18.9384 41.4319 18.8271 40.924 18.6606 40.4403L22.2119 38.4728C24.0475 41.5394 27.3372 43.6764 31.1578 43.9785V48.4139C28.8721 48.8476 27.1402 50.8085 27.1402 53.1597C27.1402 55.8287 29.3688 58 32.1094 58C34.85 58 37.0796 55.8287 37.0796 53.1597C37.0796 50.8085 35.3477 48.8476 33.061 48.4139V43.9767C36.6914 43.6783 39.8373 41.7256 41.7101 38.8935L45.3271 41.228C45.0777 41.8035 44.9398 42.4355 44.9398 43.0981C44.9398 45.7662 47.1684 47.9375 49.909 47.9375C52.6496 47.9375 54.8792 45.7662 54.8792 43.0981C54.8792 40.4291 52.6496 38.2578 49.909 38.2578Z" fill="#C4101D"/>
</svg>
