<svg width="64" height="64" viewBox="0 0 64 64" fill="none" xmlns="http://www.w3.org/2000/svg">
<g clip-path="url(#clip0_201_171)">
<path d="M10 31.9688C10 34.1285 10.2997 36.212 10.8095 38.2111H40.8992C44.3119 38.2111 47.0789 35.416 47.0789 31.9688C47.0789 28.52 44.3117 25.7266 40.8992 25.7266H10.8095C10.2997 27.7241 10 29.809 10 31.9688Z" fill="#343741"/>
<path d="M51.596 18.9554C52.4596 18.1517 53.2631 17.2887 54 16.3634C49.4687 10.6595 42.521 7 34.719 7C24.9531 7 16.5486 12.7382 12.5394 21.0451H46.323C48.2789 21.0451 50.1591 20.2944 51.5958 18.9554" fill="#FEC514"/>
<path d="M46.3231 42.8927H12.5393C16.5502 51.1981 24.9532 56.9378 34.7189 56.9378C42.5208 56.9378 49.4685 53.2767 53.9999 47.5745C53.2638 46.6504 52.4603 45.7834 51.5958 44.9807C50.159 43.6403 48.2788 42.8927 46.3231 42.8927Z" fill="#00BFB3"/>
</g>
<defs>
<clipPath id="clip0_201_171">
<rect width="44" height="50" fill="white" transform="translate(10 7)"/>
</clipPath>
</defs>
</svg>
