<svg width="64" height="64" viewBox="0 0 64 64" fill="none" xmlns="http://www.w3.org/2000/svg">
<path d="M10.25 22.3333L29.3175 35.045C30.1118 35.5749 31.0452 35.8577 32 35.8577C32.9548 35.8577 33.8882 35.5749 34.6825 35.045L53.75 22.3333M15.0833 48.9167H48.9167C50.1985 48.9167 51.4279 48.4074 52.3343 47.501C53.2408 46.5946 53.75 45.3652 53.75 44.0833V19.9167C53.75 18.6348 53.2408 17.4054 52.3343 16.499C51.4279 15.5926 50.1985 15.0833 48.9167 15.0833H15.0833C13.8015 15.0833 12.5721 15.5926 11.6657 16.499C10.7592 17.4054 10.25 18.6348 10.25 19.9167V44.0833C10.25 45.3652 10.7592 46.5946 11.6657 47.501C12.5721 48.4074 13.8015 48.9167 15.0833 48.9167Z" stroke="#C4101D" stroke-width="3" stroke-linecap="round" stroke-linejoin="round"/>
</svg>
