<svg width="24" height="21" viewBox="0 0 24 21" fill="none" xmlns="http://www.w3.org/2000/svg">
<path fill-rule="evenodd" clip-rule="evenodd" d="M0.799805 2.4999C0.799805 2.07556 0.968376 1.66859 1.26843 1.36853C1.56849 1.06847 1.97546 0.899902 2.3998 0.899902H21.5998C22.0242 0.899902 22.4311 1.06847 22.7312 1.36853C23.0312 1.66859 23.1998 2.07556 23.1998 2.4999C23.1998 2.92425 23.0312 3.33121 22.7312 3.63127C22.4311 3.93133 22.0242 4.0999 21.5998 4.0999H2.3998C1.97546 4.0999 1.56849 3.93133 1.26843 3.63127C0.968376 3.33121 0.799805 2.92425 0.799805 2.4999ZM0.799805 10.4999C0.799805 10.0756 0.968376 9.66859 1.26843 9.36853C1.56849 9.06847 1.97546 8.8999 2.3998 8.8999H21.5998C22.0242 8.8999 22.4311 9.06847 22.7312 9.36853C23.0312 9.66859 23.1998 10.0756 23.1998 10.4999C23.1998 10.9242 23.0312 11.3312 22.7312 11.6313C22.4311 11.9313 22.0242 12.0999 21.5998 12.0999H2.3998C1.97546 12.0999 1.56849 11.9313 1.26843 11.6313C0.968376 11.3312 0.799805 10.9242 0.799805 10.4999ZM0.799805 18.4999C0.799805 18.0756 0.968376 17.6686 1.26843 17.3685C1.56849 17.0685 1.97546 16.8999 2.3998 16.8999H11.9998C12.4242 16.8999 12.8311 17.0685 13.1312 17.3685C13.4312 17.6686 13.5998 18.0756 13.5998 18.4999C13.5998 18.9242 13.4312 19.3312 13.1312 19.6313C12.8311 19.9313 12.4242 20.0999 11.9998 20.0999H2.3998C1.97546 20.0999 1.56849 19.9313 1.26843 19.6313C0.968376 19.3312 0.799805 18.9242 0.799805 18.4999Z" fill="#6B7280"/>
</svg>
