<svg width="64" height="64" viewBox="0 0 64 64" fill="none" xmlns="http://www.w3.org/2000/svg">
<g clip-path="url(#clip0_201_193)">
<path d="M54.7847 7H30.7709C30.7709 9.87501 31.913 12.6323 33.9459 14.6652C35.9788 16.6981 38.7361 17.8402 41.6111 17.8402H46.0347V22.1113C46.0386 28.0928 50.8865 32.9408 56.8679 32.9447V9.0832C56.8679 7.93301 55.9355 7 54.7847 7Z" fill="#2684FF"/>
<path d="M42.9027 18.9652H18.889C18.8927 24.9467 23.7406 29.7947 29.7222 29.7986H34.1459V34.0834C34.1535 40.0648 39.0047 44.9096 44.9861 44.9096V21.0488C44.9861 19.8982 44.0533 18.9652 42.9027 18.9652Z" fill="url(#paint0_linear_201_193)"/>
<path d="M31.0139 30.9236H7C7 36.9105 11.8535 41.7639 17.8402 41.7639H22.2777V46.0348C22.2816 52.0107 27.1211 56.8566 33.0973 56.868V33.007C33.0973 31.8564 32.1645 30.9236 31.0139 30.9236Z" fill="url(#paint1_linear_201_193)"/>
</g>
<defs>
<linearGradient id="paint0_linear_201_193" x1="2577.21" y1="23.1423" x2="1561.91" y2="1082.57" gradientUnits="userSpaceOnUse">
<stop offset="0.18" stop-color="#0052CC"/>
<stop offset="1" stop-color="#2684FF"/>
</linearGradient>
<linearGradient id="paint1_linear_201_193" x1="2634.08" y1="42.7283" x2="1459.63" y2="1198.24" gradientUnits="userSpaceOnUse">
<stop offset="0.18" stop-color="#0052CC"/>
<stop offset="1" stop-color="#2684FF"/>
</linearGradient>
<clipPath id="clip0_201_193">
<rect width="50" height="50" fill="white" transform="translate(7 7)"/>
</clipPath>
</defs>
</svg>
