<svg width="54" height="32" viewBox="0 0 54 32" fill="none" xmlns="http://www.w3.org/2000/svg">
<path d="M15.3249 11.6216C15.3249 12.2801 15.3961 12.814 15.5207 13.2056C15.6631 13.5971 15.8411 14.0242 16.0902 14.487C16.1792 14.6293 16.2148 14.7717 16.2148 14.8963C16.2148 15.0743 16.108 15.2522 15.8766 15.4302L14.7554 16.1777C14.5952 16.2845 14.4351 16.3379 14.2927 16.3379C14.1147 16.3379 13.9367 16.2489 13.7588 16.0887C13.5096 15.8218 13.296 15.537 13.1181 15.2522C12.9401 14.9497 12.7621 14.6115 12.5664 14.2022C11.1782 15.8396 9.43404 16.6582 7.33397 16.6582C5.839 16.6582 4.64658 16.2311 3.77452 15.3768C2.90245 14.5226 2.45752 13.3835 2.45752 11.9598C2.45752 10.447 2.99144 9.21898 4.07707 8.29352C5.1627 7.36806 6.60428 6.90533 8.4374 6.90533C9.0425 6.90533 9.66541 6.95873 10.3239 7.04771C10.9824 7.1367 11.6587 7.27908 12.3706 7.43925V6.14005C12.3706 4.78746 12.0858 3.84421 11.5341 3.29249C10.9646 2.74078 10.0036 2.47382 8.63317 2.47382C8.01026 2.47382 7.36956 2.54501 6.71106 2.70518C6.05256 2.86536 5.41186 3.06113 4.78896 3.31029C4.5042 3.43487 4.29064 3.50606 4.16606 3.54165C4.04148 3.57725 3.95249 3.59504 3.8813 3.59504C3.63214 3.59504 3.50756 3.41707 3.50756 3.04333V2.17126C3.50756 1.88651 3.54315 1.67294 3.63214 1.54836C3.72112 1.42378 3.8813 1.2992 4.13046 1.17462C4.75337 0.854268 5.50085 0.587309 6.37291 0.373742C7.24498 0.142378 8.17044 0.0355945 9.14929 0.0355945C11.2672 0.0355945 12.8155 0.51612 13.8122 1.47717C14.791 2.43822 15.2893 3.8976 15.2893 5.8553V11.6216H15.3249ZM8.09925 14.3268C8.68656 14.3268 9.29166 14.22 9.93237 14.0064C10.5731 13.7929 11.1426 13.4013 11.6231 12.8674C11.9079 12.5293 12.1214 12.1555 12.2282 11.7284C12.335 11.3013 12.4062 10.7851 12.4062 10.18V9.43254C11.8901 9.30796 11.3383 9.20118 10.7688 9.12999C10.1993 9.0588 9.64761 9.02321 9.0959 9.02321C7.90348 9.02321 7.03141 9.25457 6.4441 9.7351C5.85679 10.2156 5.57204 10.8919 5.57204 11.7818C5.57204 12.6183 5.78561 13.2412 6.23054 13.6683C6.65767 14.1132 7.28057 14.3268 8.09925 14.3268ZM22.3904 16.2489C22.0701 16.2489 21.8565 16.1955 21.7141 16.0709C21.5718 15.9641 21.4472 15.715 21.3404 15.3768L17.158 1.61955C17.0513 1.2636 16.9979 1.03224 16.9979 0.90766C16.9979 0.622904 17.1403 0.462729 17.425 0.462729H19.1691C19.5073 0.462729 19.7387 0.51612 19.8632 0.640701C20.0056 0.747485 20.1124 0.996646 20.2192 1.33479L23.2091 13.1166L25.9855 1.33479C26.0745 0.978849 26.1813 0.747485 26.3236 0.640701C26.466 0.533918 26.7152 0.462729 27.0355 0.462729H28.4593C28.7975 0.462729 29.0288 0.51612 29.1712 0.640701C29.3136 0.747485 29.4382 0.996646 29.5093 1.33479L32.3213 13.259L35.4002 1.33479C35.507 0.978849 35.6316 0.747485 35.7562 0.640701C35.8986 0.533918 36.1299 0.462729 36.4503 0.462729H38.1054C38.3902 0.462729 38.5503 0.605107 38.5503 0.90766C38.5503 0.996646 38.5325 1.08563 38.5148 1.19242C38.497 1.2992 38.4614 1.44158 38.3902 1.63735L34.101 15.3946C33.9942 15.7506 33.8697 15.9819 33.7273 16.0887C33.5849 16.1955 33.3535 16.2667 33.051 16.2667H31.5204C31.1823 16.2667 30.9509 16.2133 30.8085 16.0887C30.6662 15.9641 30.5416 15.7328 30.4704 15.3768L27.7118 3.8976L24.971 15.359C24.8821 15.715 24.7753 15.9463 24.6329 16.0709C24.4905 16.1955 24.2414 16.2489 23.921 16.2489H22.3904ZM45.2599 16.7294C44.3345 16.7294 43.409 16.6226 42.5191 16.4091C41.6293 16.1955 40.9352 15.9641 40.4725 15.6972C40.1877 15.537 39.9919 15.359 39.9207 15.1989C39.8495 15.0387 39.814 14.8607 39.814 14.7005V13.7929C39.814 13.4191 39.9563 13.2412 40.2233 13.2412C40.3301 13.2412 40.4369 13.259 40.5436 13.2945C40.6504 13.3301 40.8106 13.4013 40.9886 13.4725C41.5937 13.7395 42.2522 13.953 42.9463 14.0954C43.6582 14.2378 44.3522 14.309 45.0641 14.309C46.1854 14.309 47.0574 14.1132 47.6625 13.7217C48.2676 13.3301 48.588 12.7606 48.588 12.0309C48.588 11.5326 48.4278 11.1233 48.1075 10.7851C47.7871 10.447 47.182 10.1444 46.3099 9.85968L43.7293 9.0588C42.4301 8.64946 41.4691 8.04436 40.8818 7.24348C40.2945 6.4604 39.9919 5.58834 39.9919 4.66288C39.9919 3.9154 40.1521 3.2569 40.4725 2.68739C40.7928 2.11787 41.2199 1.61955 41.7539 1.22801C42.2878 0.818674 42.8929 0.51612 43.6048 0.302553C44.3167 0.0889862 45.0641 0 45.8472 0C46.2388 0 46.6481 0.0177972 47.0396 0.071189C47.449 0.124581 47.8227 0.19577 48.1965 0.266959C48.5524 0.355945 48.8905 0.444931 49.2109 0.551715C49.5312 0.658498 49.7804 0.765282 49.9584 0.872065C50.2075 1.01444 50.3855 1.15682 50.4923 1.317C50.5991 1.45937 50.6525 1.65514 50.6525 1.90431V2.74078C50.6525 3.11452 50.5101 3.31029 50.2431 3.31029C50.1008 3.31029 49.8694 3.2391 49.5668 3.09672C48.5524 2.63399 47.4134 2.40263 46.1498 2.40263C45.1353 2.40263 44.3345 2.5628 43.7827 2.90095C43.231 3.2391 42.9463 3.75522 42.9463 4.48491C42.9463 4.98323 43.1242 5.41037 43.4802 5.74851C43.8361 6.08666 44.4946 6.42481 45.4379 6.72736L47.9651 7.52824C49.2465 7.93758 50.172 8.50709 50.7237 9.23677C51.2754 9.96646 51.5423 10.8029 51.5423 11.7284C51.5423 12.4937 51.3822 13.1878 51.0796 13.7929C50.7593 14.398 50.3321 14.9319 49.7804 15.359C49.2287 15.804 48.5702 16.1243 47.8049 16.3557C47.004 16.6048 46.1676 16.7294 45.2599 16.7294Z" fill="#252F3E"/>
<path fill-rule="evenodd" clip-rule="evenodd" d="M48.6233 25.3793C42.768 29.704 34.2609 31.9998 26.9462 31.9998C16.695 31.9998 7.45822 28.209 0.481691 21.9088C-0.0700235 21.4105 0.4283 20.7342 1.0868 21.1257C8.63283 25.5038 17.9408 28.1556 27.5691 28.1556C34.0651 28.1556 41.2018 26.803 47.769 24.0267C48.7478 23.5817 49.5843 24.6674 48.6233 25.3793Z" fill="#FF9900"/>
<path fill-rule="evenodd" clip-rule="evenodd" d="M51.0614 22.6024C50.3139 21.6413 46.1138 22.1397 44.2095 22.371C43.64 22.4422 43.551 21.9439 44.0671 21.5701C47.413 19.2209 52.9123 19.8972 53.553 20.6803C54.1937 21.4812 53.3751 26.9805 50.2427 29.6145C49.7622 30.0238 49.2995 29.8103 49.5131 29.2764C50.2249 27.5144 51.8089 23.5456 51.0614 22.6024Z" fill="#FF9900"/>
</svg>
