<?xml version="1.0" encoding="UTF-8"?>
<svg xmlns="http://www.w3.org/2000/svg" xmlns:xlink="http://www.w3.org/1999/xlink" width="45pt" height="45pt" viewBox="0 0 45 45" version="1.1">
<g id="surface1">
<path style=" stroke:none;fill-rule:nonzero;fill:rgb(88.627451%,26.27451%,16.078431%);fill-opacity:1;" d="M 22.511719 45.007812 L 30.792969 17.371094 L 14.234375 17.371094 Z M 22.511719 45.007812 "/>
<path style=" stroke:none;fill-rule:nonzero;fill:rgb(98.823529%,42.745098%,14.901961%);fill-opacity:1;" d="M 22.511719 45.007812 L 14.234375 17.371094 L 2.628906 17.371094 Z M 22.511719 45.007812 "/>
<path style=" stroke:none;fill-rule:nonzero;fill:rgb(98.823529%,63.921569%,14.901961%);fill-opacity:1;" d="M 2.628906 17.371094 L 0.113281 25.769531 C -0.117188 26.535156 0.132812 27.375 0.734375 27.847656 L 22.511719 45.007812 Z M 2.628906 17.371094 "/>
<path style=" stroke:none;fill-rule:nonzero;fill:rgb(88.627451%,26.27451%,16.078431%);fill-opacity:1;" d="M 2.628906 17.371094 L 14.234375 17.371094 L 9.246094 0.722656 C 8.988281 -0.132812 7.871094 -0.132812 7.617188 0.722656 Z M 2.628906 17.371094 "/>
<path style=" stroke:none;fill-rule:nonzero;fill:rgb(98.823529%,42.745098%,14.901961%);fill-opacity:1;" d="M 22.511719 45.007812 L 30.792969 17.371094 L 42.398438 17.371094 Z M 22.511719 45.007812 "/>
<path style=" stroke:none;fill-rule:nonzero;fill:rgb(98.823529%,63.921569%,14.901961%);fill-opacity:1;" d="M 42.398438 17.371094 L 44.914062 25.769531 C 45.144531 26.535156 44.890625 27.375 44.289062 27.847656 L 22.511719 45.007812 Z M 42.398438 17.371094 "/>
<path style=" stroke:none;fill-rule:nonzero;fill:rgb(88.627451%,26.27451%,16.078431%);fill-opacity:1;" d="M 42.398438 17.371094 L 30.792969 17.371094 L 35.78125 0.722656 C 36.035156 -0.132812 37.152344 -0.132812 37.410156 0.722656 Z M 42.398438 17.371094 "/>
</g>
</svg>
