<svg width="23" height="21" viewBox="0 0 23 21" fill="none" xmlns="http://www.w3.org/2000/svg">
<path d="M7.4668 0.700195C7.09549 0.700195 6.7394 0.847695 6.47685 1.11025C6.2143 1.3728 6.0668 1.72889 6.0668 2.1002C6.0668 2.4715 6.2143 2.82759 6.47685 3.09014C6.7394 3.3527 7.09549 3.5002 7.4668 3.5002H15.8668C16.2381 3.5002 16.5942 3.3527 16.8567 3.09014C17.1193 2.82759 17.2668 2.4715 17.2668 2.1002C17.2668 1.72889 17.1193 1.3728 16.8567 1.11025C16.5942 0.847695 16.2381 0.700195 15.8668 0.700195H7.4668ZM3.2668 6.30019C3.2668 5.92889 3.4143 5.5728 3.67685 5.31025C3.9394 5.04769 4.29549 4.90019 4.6668 4.9002H18.6668C19.0381 4.9002 19.3942 5.04769 19.6567 5.31025C19.9193 5.5728 20.0668 5.92889 20.0668 6.30019C20.0668 6.6715 19.9193 7.02759 19.6567 7.29014C19.3942 7.55269 19.0381 7.70019 18.6668 7.70019H4.6668C4.29549 7.70019 3.9394 7.55269 3.67685 7.29014C3.4143 7.02759 3.2668 6.6715 3.2668 6.30019ZM0.466797 11.9002C0.466797 11.1576 0.761796 10.4454 1.2869 9.9203C1.812 9.39519 2.52419 9.10019 3.2668 9.10019H20.0668C20.8094 9.10019 21.5216 9.39519 22.0467 9.9203C22.5718 10.4454 22.8668 11.1576 22.8668 11.9002V17.5002C22.8668 18.2428 22.5718 18.955 22.0467 19.4801C21.5216 20.0052 20.8094 20.3002 20.0668 20.3002H3.2668C2.52419 20.3002 1.812 20.0052 1.2869 19.4801C0.761796 18.955 0.466797 18.2428 0.466797 17.5002V11.9002Z" fill="#1C64F2"/>
</svg>
