<svg width="21" height="23" viewBox="0 0 21 23" fill="none" xmlns="http://www.w3.org/2000/svg">
<path d="M11.9 21.3C11.9001 21.5386 11.9612 21.7731 12.0774 21.9815C12.1936 22.1898 12.3612 22.3649 12.5641 22.4903C12.767 22.6157 12.9987 22.6871 13.237 22.6979C13.4753 22.7086 13.7124 22.6583 13.9257 22.5516L19.5257 19.7516C19.7583 19.6354 19.9538 19.4568 20.0906 19.2358C20.2273 19.0147 20.2998 18.76 20.2999 18.5V10.4304C20.2998 10.1919 20.2387 9.95733 20.1225 9.74901C20.0063 9.5407 19.8387 9.36554 19.6358 9.24016C19.4329 9.11478 19.2012 9.04333 18.9629 9.0326C18.7246 9.02187 18.4875 9.0722 18.2742 9.17883L12.6742 11.9788C12.4416 12.095 12.2461 12.2736 12.1093 12.4947C11.9726 12.7158 11.9001 12.9705 11.9 13.2304V21.3ZM17.7953 6.28643C18.0276 6.17004 18.2229 5.99133 18.3593 5.77029C18.4958 5.54925 18.5681 5.2946 18.5681 5.03483C18.5681 4.77506 18.4958 4.52042 18.3593 4.29938C18.2229 4.07834 18.0276 3.89963 17.7953 3.78323L11.1257 0.448434C10.9314 0.351332 10.7172 0.300781 10.5 0.300781C10.2827 0.300781 10.0685 0.351332 9.87415 0.448434L3.20455 3.78323C2.97232 3.89963 2.77705 4.07834 2.64058 4.29938C2.50412 4.52042 2.43184 4.77506 2.43184 5.03483C2.43184 5.2946 2.50412 5.54925 2.64058 5.77029C2.77705 5.99133 2.97232 6.17004 3.20455 6.28643L9.87415 9.62123C10.0685 9.71834 10.2827 9.76889 10.5 9.76889C10.7172 9.76889 10.9314 9.71834 11.1257 9.62123L17.7953 6.28643ZM2.72575 9.17883C2.51236 9.0722 2.27527 9.02187 2.03696 9.0326C1.79865 9.04333 1.56704 9.11478 1.3641 9.24016C1.16116 9.36554 0.993628 9.5407 0.877393 9.74901C0.761158 9.95733 0.700079 10.1919 0.699951 10.4304V18.5C0.70009 18.76 0.772588 19.0147 0.909324 19.2358C1.04606 19.4568 1.24164 19.6354 1.47415 19.7516L7.07415 22.5516C7.28754 22.6583 7.52464 22.7086 7.76294 22.6979C8.00125 22.6871 8.23286 22.6157 8.4358 22.4903C8.63874 22.3649 8.80627 22.1898 8.92251 21.9815C9.03874 21.7731 9.09982 21.5386 9.09995 21.3V13.2304C9.09981 12.9705 9.02731 12.7158 8.89058 12.4947C8.75384 12.2736 8.55826 12.095 8.32575 11.9788L2.72575 9.17883Z" fill="#1C64F2"/>
</svg>
