<svg width="22" height="17" viewBox="0 0 22 17" fill="none" xmlns="http://www.w3.org/2000/svg">
<path d="M2.20033 15.2998C1.32516 14.4246 0.833496 13.2376 0.833496 12C0.833443 10.9406 1.19377 9.91264 1.85527 9.08513C2.51677 8.25762 3.44009 7.67975 4.4735 7.44647C4.29606 6.69106 4.27105 5.90785 4.39995 5.14266C4.52885 4.37747 4.80906 3.64567 5.22419 2.99008C5.63931 2.33449 6.18102 1.76827 6.81762 1.32456C7.45421 0.880846 8.1729 0.568549 8.93164 0.405939C9.69038 0.243329 10.4739 0.233673 11.2365 0.377535C11.999 0.521397 12.7251 0.815889 13.3725 1.24378C14.0198 1.67167 14.5753 2.22436 15.0065 2.86952C15.4376 3.51469 15.7358 4.23936 15.8835 5.00114C16.6543 4.98572 17.4205 5.12325 18.1378 5.40577C18.8551 5.68829 19.5093 6.1102 20.0626 6.64711C20.6159 7.18401 21.0572 7.82527 21.3611 8.53379C21.665 9.24232 21.8255 10.0041 21.8332 10.775C21.8409 11.5459 21.6957 12.3107 21.406 13.0251C21.1164 13.7396 20.6879 14.3895 20.1455 14.9374C19.6031 15.4853 18.9575 15.9202 18.2459 16.217C17.5344 16.5138 16.7711 16.6666 16.0002 16.6666H5.50016C4.26249 16.6666 3.0755 16.175 2.20033 15.2998Z" fill="#1C64F2"/>
</svg>
