<svg width="54" height="32" viewBox="0 0 54 32" fill="none" xmlns="http://www.w3.org/2000/svg">
<path d="M15.0803 11.6216C15.0803 12.2801 15.1515 12.814 15.2761 13.2056C15.4185 13.5971 15.5964 14.0242 15.8456 14.487C15.9346 14.6293 15.9702 14.7717 15.9702 14.8963C15.9702 15.0743 15.8634 15.2522 15.632 15.4302L14.5108 16.1777C14.3506 16.2845 14.1904 16.3379 14.0481 16.3379C13.8701 16.3379 13.6921 16.2489 13.5141 16.0887C13.265 15.8218 13.0514 15.537 12.8734 15.2522C12.6955 14.9497 12.5175 14.6115 12.3217 14.2022C10.9335 15.8396 9.18941 16.6582 7.08934 16.6582C5.59437 16.6582 4.40195 16.2311 3.52989 15.3768C2.65782 14.5226 2.21289 13.3835 2.21289 11.9598C2.21289 10.447 2.74681 9.21898 3.83244 8.29352C4.91807 7.36806 6.35965 6.90533 8.19277 6.90533C8.79787 6.90533 9.42078 6.95873 10.0793 7.04771C10.7378 7.1367 11.4141 7.27908 12.126 7.43925V6.14005C12.126 4.78746 11.8412 3.84421 11.2895 3.29249C10.72 2.74078 9.75892 2.47382 8.38854 2.47382C7.76563 2.47382 7.12493 2.54501 6.46643 2.70518C5.80794 2.86536 5.16723 3.06113 4.54433 3.31029C4.25957 3.43487 4.04601 3.50606 3.92143 3.54165C3.79685 3.57725 3.70786 3.59504 3.63667 3.59504C3.38751 3.59504 3.26293 3.41707 3.26293 3.04333V2.17126C3.26293 1.88651 3.29852 1.67294 3.38751 1.54836C3.4765 1.42378 3.63667 1.2992 3.88583 1.17462C4.50874 0.854268 5.25622 0.587309 6.12829 0.373742C7.00035 0.142378 7.92581 0.0355945 8.90466 0.0355945C11.0225 0.0355945 12.5709 0.51612 13.5675 1.47717C14.5464 2.43822 15.0447 3.8976 15.0447 5.8553V11.6216H15.0803ZM7.85462 14.3268C8.44193 14.3268 9.04704 14.22 9.68774 14.0064C10.3284 13.7929 10.898 13.4013 11.3785 12.8674C11.6632 12.5293 11.8768 12.1555 11.9836 11.7284C12.0904 11.3013 12.1616 10.7851 12.1616 10.18V9.43254C11.6454 9.30796 11.0937 9.20118 10.5242 9.12999C9.95469 9.0588 9.40298 9.02321 8.85127 9.02321C7.65885 9.02321 6.78678 9.25457 6.19948 9.7351C5.61217 10.2156 5.32741 10.8919 5.32741 11.7818C5.32741 12.6183 5.54098 13.2412 5.98591 13.6683C6.41304 14.1132 7.03595 14.3268 7.85462 14.3268ZM22.1458 16.2489C21.8255 16.2489 21.6119 16.1955 21.4695 16.0709C21.3271 15.9641 21.2026 15.715 21.0958 15.3768L16.9134 1.61955C16.8066 1.2636 16.7532 1.03224 16.7532 0.90766C16.7532 0.622904 16.8956 0.462729 17.1804 0.462729H18.9245C19.2627 0.462729 19.494 0.51612 19.6186 0.640701C19.761 0.747485 19.8678 0.996646 19.9745 1.33479L22.9645 13.1166L25.7409 1.33479C25.8298 0.978849 25.9366 0.747485 26.079 0.640701C26.2214 0.533918 26.4705 0.462729 26.7909 0.462729H28.2147C28.5528 0.462729 28.7842 0.51612 28.9266 0.640701C29.0689 0.747485 29.1935 0.996646 29.2647 1.33479L32.0767 13.259L35.1556 1.33479C35.2624 0.978849 35.387 0.747485 35.5115 0.640701C35.6539 0.533918 35.8853 0.462729 36.2056 0.462729H37.8608C38.1455 0.462729 38.3057 0.605107 38.3057 0.90766C38.3057 0.996646 38.2879 1.08563 38.2701 1.19242C38.2523 1.2992 38.2167 1.44158 38.1455 1.63735L33.8564 15.3946C33.7496 15.7506 33.625 15.9819 33.4827 16.0887C33.3403 16.1955 33.1089 16.2667 32.8064 16.2667H31.2758C30.9377 16.2667 30.7063 16.2133 30.5639 16.0887C30.4215 15.9641 30.297 15.7328 30.2258 15.3768L27.4672 3.8976L24.7264 15.359C24.6374 15.715 24.5306 15.9463 24.3883 16.0709C24.2459 16.1955 23.9967 16.2489 23.6764 16.2489H22.1458ZM45.0153 16.7294C44.0898 16.7294 43.1644 16.6226 42.2745 16.4091C41.3846 16.1955 40.6905 15.9641 40.2278 15.6972C39.9431 15.537 39.7473 15.359 39.6761 15.1989C39.6049 15.0387 39.5693 14.8607 39.5693 14.7005V13.7929C39.5693 13.4191 39.7117 13.2412 39.9787 13.2412C40.0854 13.2412 40.1922 13.259 40.299 13.2945C40.4058 13.3301 40.566 13.4013 40.7439 13.4725C41.349 13.7395 42.0075 13.953 42.7016 14.0954C43.4135 14.2378 44.1076 14.309 44.8195 14.309C45.9407 14.309 46.8128 14.1132 47.4179 13.7217C48.023 13.3301 48.3434 12.7606 48.3434 12.0309C48.3434 11.5326 48.1832 11.1233 47.8628 10.7851C47.5425 10.447 46.9374 10.1444 46.0653 9.85968L43.4847 9.0588C42.1855 8.64946 41.2245 8.04436 40.6372 7.24348C40.0498 6.4604 39.7473 5.58834 39.7473 4.66288C39.7473 3.9154 39.9075 3.2569 40.2278 2.68739C40.5482 2.11787 40.9753 1.61955 41.5092 1.22801C42.0431 0.818674 42.6482 0.51612 43.3601 0.302553C44.072 0.0889862 44.8195 0 45.6026 0C45.9941 0 46.4035 0.0177972 46.795 0.071189C47.2043 0.124581 47.5781 0.19577 47.9518 0.266959C48.3078 0.355945 48.6459 0.444931 48.9663 0.551715C49.2866 0.658498 49.5358 0.765282 49.7138 0.872065C49.9629 1.01444 50.1409 1.15682 50.2477 1.317C50.3545 1.45937 50.4078 1.65514 50.4078 1.90431V2.74078C50.4078 3.11452 50.2655 3.31029 49.9985 3.31029C49.8561 3.31029 49.6248 3.2391 49.3222 3.09672C48.3078 2.63399 47.1688 2.40263 45.9051 2.40263C44.8907 2.40263 44.0898 2.5628 43.5381 2.90095C42.9864 3.2391 42.7016 3.75522 42.7016 4.48491C42.7016 4.98323 42.8796 5.41037 43.2356 5.74851C43.5915 6.08666 44.25 6.42481 45.1933 6.72736L47.7205 7.52824C49.0019 7.93758 49.9273 8.50709 50.479 9.23677C51.0308 9.96646 51.2977 10.8029 51.2977 11.7284C51.2977 12.4937 51.1375 13.1878 50.835 13.7929C50.5146 14.398 50.0875 14.9319 49.5358 15.359C48.9841 15.804 48.3256 16.1243 47.5603 16.3557C46.7594 16.6048 45.9229 16.7294 45.0153 16.7294Z" fill="white"/>
<path fill-rule="evenodd" clip-rule="evenodd" d="M48.3786 25.3793C42.5233 29.704 34.0163 31.9998 26.7016 31.9998C16.4504 31.9998 7.21359 28.209 0.237062 21.9088C-0.314652 21.4105 0.183671 20.7342 0.842169 21.1257C8.38821 25.5038 17.6962 28.1556 27.3245 28.1556C33.8205 28.1556 40.9572 26.8031 47.5244 24.0267C48.5032 23.5817 49.3397 24.6674 48.3786 25.3793Z" fill="#FF9900"/>
<path fill-rule="evenodd" clip-rule="evenodd" d="M50.8167 22.6024C50.0692 21.6413 45.869 22.1397 43.9647 22.371C43.3952 22.4422 43.3062 21.9439 43.8223 21.5701C47.1682 19.2209 52.6676 19.8972 53.3083 20.6803C53.949 21.4812 53.1303 26.9805 49.998 29.6145C49.5175 30.0238 49.0547 29.8103 49.2683 29.2764C49.9802 27.5144 51.5641 23.5456 50.8167 22.6024Z" fill="#FF9900"/>
</svg>
