<?xml version="1.0" encoding="UTF-8"?>
<svg xmlns="http://www.w3.org/2000/svg" xmlns:xlink="http://www.w3.org/1999/xlink" width="45pt" height="45pt" viewBox="0 0 45 45" version="1.1">
<g id="surface1">
<path style=" stroke:none;fill-rule:nonzero;fill:rgb(25.490196%,74.901961%,27.843137%);fill-opacity:1;" d="M 19.769531 27.433594 L 18.046875 27.914062 C 18.195312 28.351562 18.316406 29.128906 18.316406 30.179688 L 18.316406 35.339844 L 20.25 35.339844 L 20.25 29.878906 C 20.609375 29.445312 21 29.234375 21.421875 29.234375 C 21.628906 29.234375 21.796875 29.28125 21.976562 29.386719 L 22.5 27.601562 C 22.199219 27.464844 22.066406 27.433594 21.78125 27.433594 C 21.570312 27.433594 21.316406 27.480469 21.148438 27.554688 C 20.789062 27.734375 20.339844 28.140625 20.054688 28.53125 C 20.054688 28.09375 19.949219 27.75 19.769531 27.433594 Z M 13.109375 24.886719 L 12.898438 24.886719 L 12.898438 35.324219 L 14.910156 35.324219 L 14.910156 30.703125 L 17.445312 30.703125 L 17.445312 28.980469 L 14.910156 28.980469 L 14.910156 26.578125 L 18.074219 26.578125 L 18.195312 25.664062 C 16.289062 25.53125 14.566406 25.230469 13.109375 24.886719 Z M 8.414062 36.71875 L 9.34375 37.800781 C 10.246094 37.441406 11.371094 36.628906 11.671875 35.339844 C 11.773438 34.921875 11.804688 34.648438 11.804688 33.285156 L 11.804688 24.898438 L 9.78125 24.898438 L 9.78125 33.511719 C 9.78125 34.636719 9.734375 35.054688 9.585938 35.445312 C 9.390625 35.878906 8.925781 36.390625 8.414062 36.71875 Z M 26.671875 31.425781 C 26.671875 33.253906 26.308594 34.035156 25.484375 34.035156 C 25.109375 34.035156 24.691406 33.824219 24.511719 33.40625 C 24.359375 33.015625 24.269531 32.355469 24.269531 31.453125 C 24.269531 30.691406 24.34375 30.148438 24.464844 29.730469 C 24.613281 29.25 24.988281 28.949219 25.453125 28.949219 C 25.800781 28.949219 26.101562 29.101562 26.28125 29.355469 C 26.550781 29.714844 26.671875 30.390625 26.671875 31.425781 Z M 27.855469 34.425781 C 28.484375 33.675781 28.769531 32.761719 28.769531 31.441406 C 28.769531 30.195312 28.515625 29.339844 27.929688 28.621094 C 27.300781 27.839844 26.488281 27.464844 25.441406 27.464844 C 23.460938 27.464844 22.140625 29.070312 22.140625 31.5 C 22.140625 33.929688 23.445312 35.488281 25.441406 35.488281 C 26.566406 35.503906 27.300781 35.085938 27.855469 34.425781 Z M 33.34375 30.105469 C 33.34375 30.808594 32.925781 31.199219 32.175781 31.199219 C 31.5 31.199219 31.050781 30.886719 31.050781 30.105469 C 31.050781 29.386719 31.46875 28.964844 32.191406 28.964844 C 32.910156 28.964844 33.34375 29.386719 33.34375 30.105469 Z M 36.75 28.453125 L 35.953125 27.179688 C 35.503906 27.601562 34.964844 27.839844 34.441406 27.839844 C 34.199219 27.839844 34.066406 27.808594 33.539062 27.675781 C 33.015625 27.523438 32.640625 27.480469 32.21875 27.480469 C 30.34375 27.480469 29.128906 28.5 29.128906 30.089844 C 29.128906 31.230469 29.640625 31.949219 30.703125 32.234375 C 30.269531 32.339844 29.804688 32.566406 29.59375 32.820312 C 29.445312 33 29.371094 33.238281 29.371094 33.523438 C 29.371094 33.765625 29.429688 33.976562 29.519531 34.15625 C 29.625 34.320312 29.761719 34.453125 29.941406 34.53125 C 30.285156 34.664062 30.839844 34.753906 31.695312 34.769531 C 32.144531 34.769531 32.414062 34.785156 32.503906 34.785156 C 33.03125 34.816406 33.300781 34.90625 33.511719 35.011719 C 33.703125 35.128906 33.855469 35.398438 33.855469 35.699219 C 33.855469 36 33.675781 36.300781 33.390625 36.480469 C 33.136719 36.660156 32.714844 36.734375 32.175781 36.734375 C 31.289062 36.734375 30.796875 36.40625 30.796875 35.789062 C 30.796875 35.519531 30.824219 35.460938 30.886719 35.296875 L 29.113281 35.296875 C 29.039062 35.445312 28.949219 35.65625 28.949219 36.074219 C 28.949219 36.601562 29.144531 37.050781 29.550781 37.441406 C 30.210938 38.085938 31.289062 38.265625 32.324219 38.265625 C 33.464844 38.265625 34.574219 37.996094 35.21875 37.273438 C 35.625 36.824219 35.804688 36.328125 35.804688 35.683594 C 35.804688 34.996094 35.609375 34.46875 35.175781 34.035156 C 34.664062 33.539062 34.078125 33.359375 32.953125 33.34375 L 31.921875 33.328125 C 31.726562 33.328125 31.605469 33.253906 31.605469 33.148438 C 31.605469 32.941406 31.875 32.761719 32.371094 32.519531 C 32.519531 32.535156 32.566406 32.535156 32.65625 32.535156 C 34.214844 32.535156 35.355469 31.574219 35.355469 30.238281 C 35.355469 29.730469 35.203125 29.339844 34.921875 28.980469 C 35.160156 29.011719 35.234375 29.023438 35.414062 29.023438 C 35.925781 29.023438 36.328125 28.859375 36.75 28.453125 Z M 12.601562 15.808594 C 10.199219 16.394531 8.566406 17.550781 8.566406 18.871094 C 8.566406 19.695312 9.195312 20.445312 10.230469 21.03125 C 9.914062 20.535156 9.75 19.996094 9.75 19.453125 C 9.765625 18.089844 10.828125 16.816406 12.601562 15.808594 Z M 37.921875 20.984375 C 37.921875 20.113281 37.378906 19.320312 36.480469 18.660156 C 36.554688 18.929688 36.613281 19.199219 36.613281 19.46875 C 36.613281 21.945312 33.148438 24.074219 28.230469 24.960938 C 28.785156 25.019531 29.355469 25.050781 29.953125 25.050781 C 34.351562 25.035156 37.921875 23.21875 37.921875 20.984375 Z M 35.085938 19.636719 C 35.085938 18.71875 34.304688 17.878906 32.96875 17.191406 C 33.285156 17.566406 33.449219 17.96875 33.449219 18.390625 C 33.449219 20.59375 28.769531 22.378906 22.980469 22.378906 C 17.203125 22.378906 12.511719 20.59375 12.511719 18.390625 C 12.511719 18.105469 12.585938 17.835938 12.734375 17.578125 C 11.804688 18.195312 11.28125 18.898438 11.28125 19.648438 C 11.28125 22.035156 16.605469 23.96875 23.175781 23.96875 C 29.746094 23.96875 35.085938 22.003906 35.085938 19.636719 Z M 29.894531 19.515625 C 27.464844 21.074219 19.996094 21.675781 16.785156 19.664062 C 14.265625 18.089844 15.136719 15.585938 7.921875 10.09375 C 6.976562 9.375 8.101562 8.609375 8.804688 9.105469 C 9.511719 9.601562 8.863281 9.71875 10.289062 11.144531 C 13.171875 14.023438 13.140625 11.429688 13.589844 12.421875 C 14.550781 14.476562 16.648438 16.546875 16.648438 16.546875 C 18.765625 17.925781 20.445312 18.226562 23.566406 16.109375 C 25.546875 14.773438 24.734375 18.238281 29.578125 15.734375 C 31.351562 14.820312 31.273438 15.433594 33.074219 12.929688 C 33.824219 11.894531 35.25 13.726562 33.628906 13.980469 C 32.984375 14.085938 31.890625 14.789062 31.425781 15.898438 C 30.75 17.566406 31.035156 18.796875 29.894531 19.515625 Z M 16.425781 15.285156 C 15.824219 15.015625 15.195312 13.996094 14.953125 13.589844 C 15.628906 12.929688 15.359375 11.835938 14.96875 11.234375 C 14.59375 10.636719 14.128906 10.800781 13.636719 10.246094 C 13.125 9.691406 13.828125 8.25 14.476562 9.359375 C 16.890625 13.515625 18.480469 11.789062 20.445312 11.535156 C 22.335938 11.296875 24.015625 12.328125 24.523438 9.40625 C 24.613281 8.925781 25.078125 8.820312 25.125 9.601562 C 25.171875 10.394531 25.46875 12.316406 26.503906 12.554688 C 27.539062 12.808594 28.378906 12.316406 28.621094 12.046875 C 28.859375 11.773438 28.996094 11.804688 29.101562 12.496094 C 29.203125 13.171875 29.476562 14.113281 30.929688 13.066406 C 33.914062 10.933594 33.058594 10.109375 34.230469 9.554688 C 34.890625 9.238281 35.941406 10.261719 34.425781 11.023438 C 32.265625 12.121094 32.039062 13.46875 30.675781 14.324219 C 28.378906 15.765625 29.085938 14.386719 25.394531 13.859375 C 23.96875 13.664062 23.519531 15.238281 22.410156 14.789062 C 19.875 13.738281 18.089844 13.949219 16.425781 15.285156 Z M 24.421875 7.589844 C 24.511719 8.21875 24.613281 8.203125 24.839844 8.25 C 25.066406 8.308594 25.351562 7.949219 25.351562 7.621094 C 25.363281 7.273438 25.199219 7.066406 24.871094 7.078125 C 24.523438 7.09375 24.40625 7.261719 24.421875 7.589844 Z M 35.519531 8.714844 C 35.789062 8.96875 36.511719 8.804688 36.675781 8.609375 C 37.109375 8.128906 37.125 7.84375 36.898438 7.515625 C 36.675781 7.199219 36.210938 7.246094 35.746094 7.589844 C 35.28125 7.933594 35.371094 8.578125 35.519531 8.714844 Z M 35.324219 11.894531 C 35.101562 12.195312 35.085938 12.421875 35.25 12.585938 C 35.429688 12.765625 35.789062 12.914062 36.046875 12.71875 C 36.300781 12.511719 36.300781 12.210938 36.089844 11.953125 C 35.863281 11.683594 35.566406 11.683594 35.324219 11.894531 Z M 12.554688 8.144531 C 12.898438 8.25 13.066406 8.578125 13.351562 8.203125 C 13.5 8.023438 13.515625 7.769531 13.320312 7.5 C 13.199219 7.335938 12.628906 7.214844 12.390625 7.453125 C 12.148438 7.695312 12.375 8.085938 12.554688 8.144531 Z M 5.519531 7.933594 C 6.148438 8.324219 6.554688 8.910156 7.035156 8.386719 C 7.199219 8.203125 7.394531 7.890625 7.050781 7.261719 C 6.796875 6.796875 5.96875 6.613281 5.683594 6.796875 C 5.386719 6.960938 5.023438 7.636719 5.519531 7.933594 Z M 11.324219 10.921875 C 11.519531 11.128906 11.863281 11.113281 12.074219 10.996094 C 12.269531 10.875 12.238281 10.558594 12.046875 10.289062 C 11.925781 10.125 11.566406 10.035156 11.324219 10.289062 C 11.085938 10.546875 11.191406 10.769531 11.324219 10.921875 Z M 11.324219 10.921875 "/>
</g>
</svg>
