<svg width="40" height="34" viewBox="0 0 40 34" fill="none" xmlns="http://www.w3.org/2000/svg">
<path d="M25.3827 9.76704H26.6025L30.0792 6.29028L30.2497 4.81362C23.7788 -0.898548 13.9032 -0.281471 8.19102 6.18943C6.60391 7.98544 5.45379 10.1248 4.82471 12.4394C5.21128 12.281 5.64107 12.2546 6.04445 12.3674L12.998 11.2197C12.998 11.2197 13.3509 10.6338 13.5358 10.6698C16.6284 7.27232 21.8339 6.87614 25.4067 9.76704H25.3827Z" fill="#EA4335"/>
<path d="M35.0321 12.4395C34.2325 9.49582 32.5926 6.84983 30.3115 4.82812L25.4326 9.70711C27.4927 11.3903 28.6668 13.9282 28.6164 16.5886V17.4554C31.0151 17.4554 32.9599 19.4003 32.9599 21.7989C32.9599 24.1976 31.0151 26.1425 28.6164 26.1425H19.9293L19.0625 27.0213V32.2316L19.9293 33.0984H28.6164C34.8544 33.1464 39.9519 28.1282 39.9999 21.8902C40.0287 18.1013 38.1631 14.5573 35.0321 12.4395Z" fill="#4285F4"/>
<path d="M11.2292 33.0422H19.9163V26.0886H11.2292C10.6097 26.0886 9.99986 25.9542 9.43561 25.6973L8.21586 26.0766L4.71509 29.5534L4.41016 30.7731C6.37184 32.257 8.76811 33.0542 11.2292 33.0422Z" fill="#34A853"/>
<path d="M11.23 10.4874C4.98963 10.5234 -0.0358238 15.6113 0.000192385 21.8517C0.0218021 25.3357 1.64733 28.6155 4.41097 30.7381L9.44843 25.7006C7.26345 24.7138 6.29101 22.1398 7.27786 19.9548C8.2647 17.7699 10.8387 16.7974 13.0236 17.7843C13.9865 18.2189 14.7572 18.992 15.1942 19.9548L20.2317 14.9174C18.0899 12.1129 14.7572 10.473 11.23 10.4874Z" fill="#FBBC05"/>
</svg>
