<svg width="122" height="77" viewBox="0 0 122 77" fill="none" xmlns="http://www.w3.org/2000/svg">
<path d="M71.1 44.1996L54.2 23.0996L46.9 13.8996L43.6 9.79961L36.3 0.599609H21H15.3H0L10.1 13.8996H25.4H31.1L34.4 17.8996L39 23.0996L63.5 53.6996L60.6 57.2996L33.2 23.0996L28.6 17.8996H13.4L18 23.0996L53 66.8996L60.6 76.3996L68.2 66.8996L71.1 63.2996L78.7 53.6996L71.1 44.1996Z" fill="#1C64F2"/>
<path d="M91.8999 37.2996L103.2 23.0996L107.2 18.0996H76.3999L91.8999 37.2996Z" fill="#1C64F2"/>
<path d="M67.9 13.9996H73.1H110.5L110.6 13.8996L113.8 9.79961L121.2 0.599609H105.9H57.2H42L49.4 9.79961L52.6 13.8996L60 23.0996L74 40.5996L81.6 50.0996L89.2 40.5996L89.3 40.4996L71.2 18.0996L67.9 13.9996Z" fill="#1C64F2"/>
</svg>
