<svg width="122" height="77" viewBox="0 0 122 77" fill="none" xmlns="http://www.w3.org/2000/svg">
<path d="M71.1 44.3998L54.2 23.2998L46.9 14.0998L43.6 9.9998L36.3 0.799805H21H15.3H0L10.1 14.0998H25.4H31.1L34.4 18.0998L39 23.2998L63.5 53.8998L60.6 57.4998L33.2 23.2998L28.6 18.0998H13.4L18 23.2998L53 67.0998L60.6 76.5998L68.2 67.0998L71.1 63.4998L78.7 53.8998L71.1 44.3998Z" fill="white"/>
<path d="M91.8999 37.4998L103.2 23.2998L107.2 18.2998H76.3999L91.8999 37.4998Z" fill="white"/>
<path d="M67.9 14.1998H73.1H110.5L110.6 14.0998L113.8 9.9998L121.2 0.799805H105.9H57.2H42L49.4 9.9998L52.6 14.0998L60 23.2998L74 40.7998L81.6 50.2998L89.2 40.7998L89.3 40.6998L71.2 18.2998L67.9 14.1998Z" fill="white"/>
</svg>
