<svg width="64" height="64" viewBox="0 0 64 64" fill="none" xmlns="http://www.w3.org/2000/svg">
<g clip-path="url(#clip0_201_112)">
<path d="M42.2706 25.3088H55.7022C56.9713 25.3088 58 26.3472 58 27.628V39.9766C58 44.6839 54.2192 48.5001 49.5555 48.5001H49.5154C44.8517 48.5007 41.0703 44.6853 41.0697 39.9778V26.5211C41.0697 26.3619 41.1007 26.2042 41.1611 26.0572C41.2214 25.9101 41.3098 25.7764 41.4214 25.6639C41.5329 25.5513 41.6653 25.462 41.811 25.4011C41.9567 25.3401 42.1129 25.3088 42.2706 25.3088Z" fill="#5059C9"/>
<path d="M51.3489 22.8678C54.3544 22.8678 56.7908 20.4086 56.7908 17.3751C56.7908 14.3415 54.3544 11.8824 51.3489 11.8824C48.3434 11.8824 45.907 14.3415 45.907 17.3751C45.907 20.4086 48.3434 22.8678 51.3489 22.8678Z" fill="#5059C9"/>
<path d="M34.4186 22.8678C38.7599 22.8678 42.2792 19.3157 42.2792 14.9339C42.2792 10.5521 38.7599 7 34.4186 7C30.0774 7 26.5581 10.5521 26.5581 14.9339C26.5581 19.3157 30.0774 22.8678 34.4186 22.8678Z" fill="#7B83EB"/>
<path d="M44.8996 25.3088H22.7283C21.4745 25.3401 20.4826 26.3905 20.5116 27.6561V41.7404C20.3365 49.3352 26.2895 55.6377 33.8139 55.8237C41.3382 55.6377 47.2912 49.3352 47.1163 41.7404V27.6561C47.1454 26.3905 46.1535 25.3401 44.8996 25.3088Z" fill="#7B83EB"/>
<path opacity="0.1" d="M35.0233 25.3088V45.0457C35.0204 45.4884 34.888 45.9204 34.6427 46.2874C34.3975 46.6544 34.0502 46.9401 33.6447 47.1087C33.3806 47.2214 33.0968 47.2794 32.8102 47.2794H21.5756C21.4184 46.8766 21.2733 46.4737 21.1523 46.0589C20.729 44.6583 20.513 43.2023 20.5114 41.7379V27.6524C20.4824 26.3888 21.4726 25.3401 22.7245 25.309H35.0231L35.0233 25.3088Z" fill="black"/>
<path opacity="0.2" d="M33.8139 25.3088V46.2664C33.8139 46.5557 33.7564 46.8421 33.6447 47.1087C33.4777 47.518 33.1946 47.8685 32.831 48.116C32.4674 48.3636 32.0394 48.4972 31.6009 48.5001H22.1444C21.9388 48.0973 21.7452 47.6944 21.576 47.2794C21.4135 46.8805 21.2722 46.4731 21.1527 46.0589C20.7294 44.6583 20.5135 43.2023 20.5119 41.7379V27.6524C20.4828 26.3888 21.473 25.3401 22.7249 25.309H33.8141L33.8139 25.3088Z" fill="black"/>
<path opacity="0.2" d="M33.8139 25.3088V43.8252C33.8048 45.055 32.8194 46.0497 31.6009 46.0589H21.1525C20.7292 44.6583 20.5133 43.2023 20.5117 41.7379V27.6524C20.4826 26.3888 21.4729 25.3401 22.7247 25.309L33.8139 25.3088Z" fill="black"/>
<path opacity="0.2" d="M32.6047 25.3088V43.8252C32.5954 45.055 31.61 46.0497 30.3917 46.0589H21.1525C20.7292 44.6583 20.5133 43.2023 20.5117 41.7379V27.6524C20.4826 26.3888 21.4729 25.3401 22.7247 25.309L32.6047 25.3088Z" fill="black"/>
<path opacity="0.1" d="M35.0233 18.9984V22.8432C34.8177 22.8555 34.6242 22.8678 34.4186 22.8678C34.213 22.8678 34.0195 22.8555 33.8139 22.8432C33.4057 22.8159 33.0009 22.7506 32.6047 22.648C31.3974 22.3595 30.275 21.7866 29.3291 20.9762C28.3833 20.1658 27.6409 19.1409 27.1628 17.9854C26.9959 17.5918 26.8663 17.1831 26.7758 16.7647H32.8103C34.0304 16.7695 35.0186 17.7667 35.0233 18.9984Z" fill="black"/>
<path opacity="0.2" d="M33.8139 20.2189V22.8432C33.4057 22.8159 33.0009 22.7505 32.6047 22.648C31.3974 22.3594 30.275 21.7865 29.3292 20.9761C28.3834 20.1657 27.6411 19.1409 27.163 17.9854H31.6008C32.8212 17.9899 33.8092 18.9874 33.8139 20.2189Z" fill="black"/>
<path opacity="0.2" d="M33.8139 20.2189V22.8432C33.4057 22.8159 33.0009 22.7505 32.6047 22.648C31.3974 22.3594 30.275 21.7865 29.3292 20.9761C28.3834 20.1657 27.6411 19.1409 27.163 17.9854H31.6008C32.8212 17.9899 33.8092 18.9874 33.8139 20.2189Z" fill="black"/>
<path opacity="0.2" d="M32.6047 20.2189V22.648C31.3974 22.3594 30.2749 21.7865 29.3291 20.9761C28.3833 20.1657 27.6409 19.1408 27.1628 17.9852H30.3917C31.612 17.9899 32.6 18.9874 32.6047 20.2189Z" fill="black"/>
<path d="M8.2167 17.9852H30.3878C31.6122 17.9852 32.6047 18.987 32.6047 20.2226V42.6009C32.6047 43.8365 31.6122 44.8383 30.388 44.8383H8.2167C6.99247 44.8383 6 43.8365 6 42.6009V20.2228C6 18.9868 6.99247 17.9852 8.2167 17.9852Z" fill="url(#paint0_linear_201_112)"/>
<path d="M25.136 26.5026H20.7038V38.6841H17.8802V26.5026H13.4687V24.1395H25.136V26.5026Z" fill="white"/>
</g>
<defs>
<linearGradient id="paint0_linear_201_112" x1="468.177" y1="-156.829" x2="2228.62" y2="2863.95" gradientUnits="userSpaceOnUse">
<stop stop-color="#5A62C3"/>
<stop offset="0.5" stop-color="#4D55BD"/>
<stop offset="1" stop-color="#3940AB"/>
</linearGradient>
<clipPath id="clip0_201_112">
<rect width="52" height="49" fill="white" transform="translate(6 7)"/>
</clipPath>
</defs>
</svg>
