<svg width="64" height="64" viewBox="0 0 64 64" fill="none" xmlns="http://www.w3.org/2000/svg">
<g clip-path="url(#clip0_201_106)">
<path d="M22.2455 43.634V56.9296H15V43.634H22.2455ZM29.4828 7.00013C35.6911 7.00699 38.3819 7.36344 42.2056 9.45363C46.4063 11.7362 49 16.2726 49 21.9218C49 27.1715 46.8856 31.7081 42.8258 34.4184C39.1044 36.9292 34.8757 37.2716 29.2371 37.2716H15V7L29.4828 7.00013ZM30.4213 13.4195L22.2453 13.4766V30.9376H30.9004C36.9619 30.9376 41.5853 28.484 41.5853 22.0075C41.5853 15.9874 37.8641 13.3624 30.4213 13.4195Z" fill="#06AC38"/>
</g>
<defs>
<clipPath id="clip0_201_106">
<rect width="34" height="50" fill="white" transform="translate(15 7)"/>
</clipPath>
</defs>
</svg>
