<svg width="64" height="64" viewBox="0 0 64 64" fill="none" xmlns="http://www.w3.org/2000/svg">
<g clip-path="url(#clip0_201_198)">
<path d="M56 8H8V56H56V8Z" fill="url(#paint0_linear_201_198)"/>
<path fill-rule="evenodd" clip-rule="evenodd" d="M44.5015 33.7356L44.7319 32.1132C46.8565 33.3858 46.8841 33.9114 46.8835 33.9258C46.8799 33.9288 46.5175 34.2312 44.5015 33.7356ZM43.3357 33.4116C39.6637 32.3004 34.5499 29.9544 32.4805 28.9764C32.4805 28.968 32.4829 28.9602 32.4829 28.9518C32.4829 28.1568 31.8361 27.51 31.0405 27.51C30.2461 27.51 29.5993 28.1568 29.5993 28.9518C29.5993 29.7468 30.2461 30.3936 31.0405 30.3936C31.3897 30.3936 31.7065 30.2634 31.9567 30.0564C34.3915 31.209 39.4657 33.5208 43.1647 34.6128L41.7019 44.9364C41.6977 44.9646 41.6959 44.9928 41.6959 45.021C41.6959 45.93 37.6717 47.5998 31.0963 47.5998C24.4513 47.5998 20.3845 45.93 20.3845 45.021C20.3845 44.9934 20.3827 44.9664 20.3791 44.9394L17.3227 22.6152C19.9681 24.4362 25.6579 25.3998 31.0999 25.3998C36.5335 25.3998 42.2137 24.4398 44.8645 22.6242L43.3357 33.4116ZM16.9999 20.2866C17.0431 19.497 21.5803 16.3998 31.0999 16.3998C40.6183 16.3998 45.1561 19.4964 45.1999 20.2866V20.556C44.6779 22.3266 38.7979 24.1998 31.0999 24.1998C23.3887 24.1998 17.5057 22.3206 16.9999 20.5476V20.2866ZM46.3999 20.2998C46.3999 18.2208 40.4395 15.1998 31.0999 15.1998C21.7603 15.1998 15.7999 18.2208 15.7999 20.2998L15.8563 20.7522L19.1851 45.0666C19.2649 47.7858 26.5165 48.7998 31.0963 48.7998C36.7795 48.7998 42.8173 47.493 42.8953 45.0684L44.3329 34.9302C45.1327 35.1216 45.7909 35.2194 46.3195 35.2194C47.0293 35.2194 47.5093 35.046 47.8003 34.6992C48.0391 34.4148 48.1303 34.0704 48.0619 33.7038C47.9065 32.8734 46.9207 31.9782 44.9131 30.8328L46.3387 20.7756L46.3999 20.2998Z" fill="white"/>
</g>
<defs>
<linearGradient id="paint0_linear_201_198" x1="8" y1="4808" x2="4808" y2="8" gradientUnits="userSpaceOnUse">
<stop stop-color="#1B660F"/>
<stop offset="1" stop-color="#6CAE3E"/>
</linearGradient>
<clipPath id="clip0_201_198">
<rect width="48" height="48" fill="white" transform="translate(8 8)"/>
</clipPath>
</defs>
</svg>
