<svg width="64" height="64" viewBox="0 0 64 64" fill="none" xmlns="http://www.w3.org/2000/svg">
<g clip-path="url(#clip0_201_130)">
<path d="M17.5158 38.5078C17.5158 41.4047 15.1746 43.7461 12.2778 43.7461C9.38088 43.7461 7.03967 41.4047 7.03967 38.5078C7.03967 35.6111 9.38088 33.2699 12.278 33.2699H17.5156V38.508L17.5158 38.5078ZM20.135 38.5078C20.135 35.6111 22.4762 33.2699 25.3731 33.2699C28.2699 33.2699 30.6112 35.6111 30.6112 38.508V51.6031C30.6112 54.5 28.2699 56.8414 25.3729 56.8414C22.4764 56.8414 20.135 54.5 20.135 51.6031V38.5078Z" fill="#E01E5A"/>
<path d="M25.373 17.4762C22.4762 17.4762 20.1348 15.135 20.1348 12.2381C20.1348 9.34121 22.4764 7 25.373 7C28.2697 7 30.6111 9.34121 30.6111 12.2381V17.4764H25.3729L25.373 17.4762ZM25.373 20.135C28.2699 20.135 30.6111 22.4762 30.6111 25.373C30.6111 28.2699 28.2699 30.6111 25.3729 30.6111H12.2383C9.34121 30.6111 7 28.2699 7 25.3729C7 22.4764 9.34121 20.135 12.2381 20.135H25.373Z" fill="#36C5F0"/>
<path d="M46.3652 25.373C46.3652 22.4762 48.7064 20.1348 51.6031 20.1348C54.5 20.1348 56.8414 22.4762 56.8414 25.373C56.8414 28.2699 54.5 30.6111 51.6031 30.6111H46.3652V25.373ZM43.7461 25.373C43.7461 28.2699 41.4047 30.6111 38.5078 30.6111C35.6111 30.6111 33.2699 28.2699 33.2699 25.3729V12.2383C33.2699 9.34121 35.6111 7 38.5078 7C41.4045 7 43.7459 9.34121 43.7459 12.2381V25.3729L43.7461 25.373Z" fill="#2EB67D"/>
<path d="M38.5078 46.3652C41.4047 46.3652 43.7461 48.7064 43.7461 51.6031C43.7461 54.5 41.4047 56.8414 38.5078 56.8414C35.6111 56.8414 33.2699 54.5 33.2699 51.6031V46.3652H38.5078ZM38.5078 43.7461C35.6111 43.7461 33.2699 41.4047 33.2699 38.5078C33.2699 35.6111 35.6111 33.2699 38.508 33.2699H51.6428C54.5396 33.2699 56.881 35.6111 56.881 38.508C56.881 41.4047 54.5396 43.7461 51.6428 43.7461H38.5078Z" fill="#ECB22E"/>
</g>
<defs>
<clipPath id="clip0_201_130">
<rect width="50" height="50" fill="white" transform="translate(7 7)"/>
</clipPath>
</defs>
</svg>
