<svg width="64" height="64" viewBox="0 0 64 64" fill="none" xmlns="http://www.w3.org/2000/svg">
<path d="M58.4787 31.7923L53.2497 29.2467V27.73L60 31.1157V32.4993L53.2497 35.8547V34.3707L58.4787 31.7923ZM45.8857 36.088H43.6433V23.698H45.8857V30.9687H46.1237L49.1103 27.513L50.7973 28.2363L47.9273 31.307L51.3177 35.528L49.2457 36.2537L45.8857 31.5963V36.088ZM39.8727 36.0833V31.258C39.8781 30.9302 39.8578 30.6026 39.812 30.278C39.778 30.0651 39.7069 29.8597 39.602 29.6713C39.3383 29.2 38.8833 28.962 38.2253 28.962C37.8495 28.9507 37.4777 29.0418 37.1497 29.2257C36.8478 29.401 36.613 29.672 36.4823 29.9957C36.4005 30.1919 36.3456 30.3984 36.319 30.6093C36.291 30.9127 36.2747 31.2207 36.2793 31.531V36.081H34.037V27.6483H36.2793L36.284 28.78C36.7157 28.3133 37.1543 27.968 37.6047 27.7603C38.0527 27.5527 38.58 27.4477 39.175 27.4477C39.8423 27.4477 40.4047 27.583 40.8573 27.8607C41.1394 28.0285 41.3836 28.253 41.5744 28.5201C41.7652 28.7872 41.8984 29.0911 41.9657 29.4123C42.0475 29.7548 42.0898 30.1055 42.0917 30.4577C42.0963 30.691 42.101 30.971 42.101 31.293V36.0833H39.8727ZM30.271 36.088L30.2663 34.9563C29.9002 35.3817 29.4517 35.7285 28.948 35.976C28.4529 36.1939 27.9162 36.3014 27.3753 36.291C26.7103 36.291 26.1527 36.158 25.6953 35.8943C25.2379 35.6298 24.8871 35.2139 24.7037 34.7183C24.6466 34.5938 24.6043 34.463 24.5777 34.3287C24.5439 34.1753 24.5182 34.0204 24.5007 33.8643C24.4747 33.6647 24.4614 33.4636 24.461 33.2623C24.454 32.9863 24.4501 32.7101 24.4493 32.434V27.6367H26.68V32.4667C26.673 32.7957 26.694 33.1247 26.7407 33.4467C26.7757 33.6613 26.8457 33.8667 26.9507 34.0533C27.2143 34.5293 27.6693 34.7673 28.3273 34.7673C29.1673 34.7673 29.7413 34.4173 30.054 33.7197C30.1357 33.5283 30.194 33.3277 30.2267 33.12C30.2663 32.8073 30.2827 32.4923 30.278 32.1797V27.6297H32.5063V36.0857L30.271 36.088ZM20.7627 23.6933H22.991V36.0833H20.7627V23.6933ZM17.4377 31.7667C17.4377 30.8427 17.251 30.1147 16.8777 29.5803C16.7124 29.3262 16.4847 29.1187 16.2163 28.9777C15.9478 28.8368 15.6477 28.7671 15.3447 28.7753C15.0247 28.7679 14.7081 28.8425 14.4251 28.992C14.142 29.1414 13.902 29.3609 13.7277 29.6293C13.3287 30.201 13.1303 30.9687 13.1373 31.9393C13.1373 32.8843 13.3333 33.6263 13.7207 34.1723C13.8982 34.4328 14.1392 34.6439 14.4209 34.7855C14.7026 34.9272 15.0156 34.9948 15.3307 34.982C15.6934 34.9948 16.0498 34.8837 16.341 34.667C16.6133 34.4545 16.8342 34.1833 16.9873 33.8737C17.153 33.547 17.2697 33.1923 17.3303 32.8283C17.4003 32.476 17.4307 32.1283 17.4377 31.7667ZM19.7943 31.6827C19.8013 32.3033 19.701 32.924 19.4933 33.5167C19.302 34.0533 19.0173 34.5457 18.644 34.9773C17.9207 35.8197 16.8613 36.3003 15.7507 36.291C15.5057 36.2922 15.2612 36.2703 15.0203 36.2257C14.7968 36.18 14.5808 36.103 14.3787 35.997C14.1631 35.8826 13.9619 35.7432 13.779 35.5817C13.5567 35.3899 13.3499 35.1808 13.1607 34.9563V40.3067H10.993V27.6483H13.163L13.1723 28.8827C13.5667 28.388 13.996 28.024 14.4557 27.7907C14.9153 27.5573 15.4497 27.4407 16.061 27.4477C16.5694 27.4384 17.0737 27.5394 17.5393 27.7436C18.0049 27.9478 18.4208 28.2504 18.7583 28.6307C19.1037 29.018 19.3627 29.473 19.5283 29.963C19.715 30.5137 19.806 31.0947 19.7943 31.6827ZM9.97333 33.7593C9.97844 34.1165 9.89677 34.4696 9.73533 34.7883C9.57886 35.1024 9.35403 35.3775 9.07733 35.5933C8.774 35.8267 8.43567 35.997 8.074 36.1067C7.66145 36.234 7.23174 36.297 6.8 36.2933C6.29554 36.2993 5.79348 36.2229 5.31367 36.067C4.83748 35.8925 4.39356 35.6402 4 35.3203L4.728 34.142C5.078 34.436 5.39067 34.6483 5.673 34.7837C5.94133 34.9167 6.233 34.9867 6.53167 34.9867C6.84611 35.0018 7.15538 34.9023 7.402 34.7067C7.51055 34.615 7.5965 34.4995 7.65316 34.3692C7.70981 34.2389 7.73565 34.0973 7.72867 33.9553C7.73005 33.6819 7.63032 33.4177 7.44867 33.2133C7.31672 33.0649 7.17058 32.9297 7.01233 32.8097C6.77657 32.6242 6.53697 32.4437 6.29367 32.2683C6.07093 32.1107 5.8523 31.9473 5.638 31.7783C5.42765 31.6141 5.23101 31.4331 5.05 31.237C4.87684 31.0467 4.73507 30.8301 4.63 30.5953C4.51849 30.3402 4.46356 30.064 4.469 29.7857C4.46526 29.4546 4.54045 29.1275 4.68833 28.8313C4.83083 28.5466 5.03392 28.2965 5.28333 28.0987C5.55548 27.887 5.86382 27.7265 6.19333 27.625C6.56667 27.5083 6.95633 27.4523 7.346 27.457C7.77533 27.457 8.20467 27.5177 8.61767 27.6343C9.02367 27.751 9.40633 27.9213 9.75633 28.1453L9.09833 29.2047C8.68581 28.9044 8.18985 28.7405 7.67967 28.7357C7.40851 28.7257 7.14224 28.8098 6.926 28.9737C6.83329 29.0413 6.75819 29.1302 6.70702 29.233C6.65586 29.3357 6.63013 29.4492 6.632 29.564C6.632 29.7927 6.72767 30.0143 6.89567 30.1707C7.06833 30.3527 7.36933 30.6047 7.794 30.929C8.22567 31.2463 8.578 31.5193 8.86033 31.7573C9.103 31.9557 9.33167 32.182 9.52767 32.4247C9.67933 32.6113 9.796 32.8283 9.866 33.0617C9.94538 33.2854 9.9818 33.5221 9.97333 33.7593Z" fill="#3E9B17"/>
</svg>
