<svg width="64" height="64" viewBox="0 0 64 64" fill="none" xmlns="http://www.w3.org/2000/svg">
<g clip-path="url(#clip0_201_178)">
<path d="M32 58C46.3594 58 58 46.3594 58 32C58 17.6406 46.3594 6 32 6C17.6406 6 6 17.6406 6 32C6 46.3594 17.6406 58 32 58Z" fill="#000099"/>
<path d="M23.9208 24.3523C23.2758 24.2152 22.8137 24.0934 22.5547 24.0324C22.2348 23.941 21.986 23.8191 21.8641 23.6465V22.9406C22.0774 22.6055 22.6004 22.3871 23.3215 22.3871C24.3168 22.3871 25.0075 22.6156 26.0993 23.4789L27.3739 21.9453C26.084 20.8688 24.9821 20.4879 23.3825 20.4879C21.5391 20.4879 20.2696 21.2395 19.7618 22.316V24.6469C20.1629 25.4289 21.0821 25.8758 22.9204 26.2719C23.5805 26.4242 24.0274 26.5309 24.2864 26.5766C24.6215 26.6832 24.9313 26.8203 25.0989 27.0691V27.8816C24.8704 28.2523 24.3168 28.4504 23.5958 28.4504C23.0727 28.4656 22.57 28.359 22.0926 28.1609C21.6305 27.9781 21.0973 27.6227 20.4219 27.0691L19.0559 28.5875C20.5286 29.8926 21.7727 30.3344 23.5348 30.3344C25.4239 30.3344 26.7594 29.6133 27.2622 28.4605V26.1145C26.8356 25.241 25.8047 24.784 23.9208 24.3523ZM44.3094 20.7926V30.0602H42.1461V29.0801C41.6536 29.8773 40.7497 30.3395 39.4293 30.3395C37.2356 30.3395 36.1438 29.202 36.1438 27.3941V20.7926H38.5051V26.7594C38.5051 27.7242 39.0282 28.293 40.0387 28.293C41.2219 28.293 41.943 27.6176 41.943 26.3734V20.7875H44.3094V20.7926ZM33.0055 36.8191V43.2938H30.6442V37.525C30.6442 36.418 30.1973 35.7426 29.1715 35.7426C28.1458 35.7426 27.5465 36.5094 27.5465 37.5859V43.2938H25.1852V37.525C25.1852 36.3418 24.6926 35.7426 23.7125 35.7426C22.6715 35.7426 22.0875 36.5094 22.0875 37.5859V43.2938H19.7262V34.0262H21.92V35.052C22.4583 34.1633 23.3469 33.7164 24.5606 33.7164C25.7438 33.7164 26.6325 34.209 27.1403 35.0824C27.77 34.1785 28.7043 33.7164 29.918 33.7164C31.8883 33.7215 33.0055 34.9047 33.0055 36.8191ZM40.1047 33.6301C37.9719 33.6301 36.3012 34.7828 35.6106 36.6211V40.5211C36.286 42.3645 37.9719 43.5121 40.1047 43.5121C42.2375 43.5121 43.893 42.3594 44.5684 40.5363V36.6059C43.8829 34.7828 42.2071 33.6301 40.1047 33.6301ZM42.2883 39.9371C41.9176 40.9172 41.1356 41.5012 40.0946 41.5012C39.0688 41.5012 38.2512 40.9172 37.8856 39.9371V37.2051C38.2563 36.225 39.0383 35.6258 40.0946 35.6258C41.1356 35.6258 41.9075 36.225 42.2731 37.2051L42.2883 39.9371Z" fill="white"/>
</g>
<defs>
<clipPath id="clip0_201_178">
<rect width="52" height="52" fill="white" transform="translate(6 6)"/>
</clipPath>
</defs>
</svg>
