<?xml version="1.0" encoding="iso-8859-1"?>
<svg version="1.1" id="Layer_1" xmlns="http://www.w3.org/2000/svg" xmlns:xlink="http://www.w3.org/1999/xlink" x="0px" y="0px"
	 viewBox="0 0 512 512" style="enable-background:new 0 0 512 512;" xml:space="preserve">
<g transform="translate(1 1)">
	<g>
		<g>
			<path d="M484.517,69.677h-15.89c-69.714-23.528-145.443-23.813-213.613-0.04c-67.409-23.773-146.543-23.488-213.642,0.04h-15.89
				H-1v344.276v17.655v26.483h512v-26.483v-17.655V69.677H484.517z M227.235,413.952H46.669
				C98.797,391.048,159.412,391.482,227.235,413.952z M463.331,413.07l1.766,0.883H281.483
				C352.986,391.001,413.897,390.118,463.331,413.07z M463.331,86.449l1.766,0.883h1.766v307.2
				c-55.614-23.834-123.586-22.069-203.034,6.179V84.683C328.269,64.38,399.772,64.38,463.331,86.449z M45.786,86.449
				c62.676-22.069,136.828-22.952,200.386-1.766v316.028c-3.095-1.054-6.164-2.061-9.22-3.045
				c-70.021-23.909-133.516-25.794-188.58-4.362c-1.752,0.679-3.497,1.382-5.235,2.11V87.332h1.766L45.786,86.449z M16.655,87.332
				h8.828v326.621h-8.828V87.332z M493.345,440.435H16.655v-8.828h476.69V440.435z M484.517,413.952V87.332h8.828v326.621H484.517z"
				/>
			<path d="M122.586,149.125h79.448c5.297,0,8.828-3.531,8.828-8.828c0-5.297-3.531-8.828-8.828-8.828h-79.448
				c-5.297,0-8.828,3.531-8.828,8.828C113.759,145.594,117.29,149.125,122.586,149.125z"/>
			<path d="M87.276,193.263h114.759c5.297,0,8.828-3.531,8.828-8.828c0-5.297-3.531-8.828-8.828-8.828H87.276
				c-5.297,0-8.828,3.531-8.828,8.828C78.448,189.732,81.979,193.263,87.276,193.263z"/>
			<path d="M87.276,237.401h79.448c5.297,0,8.828-3.531,8.828-8.828c0-5.297-3.531-8.828-8.828-8.828H87.276
				c-5.297,0-8.828,3.531-8.828,8.828C78.448,233.87,81.979,237.401,87.276,237.401z"/>
			<path d="M202.034,263.884h-79.448c-5.297,0-8.828,3.531-8.828,8.828c0,5.297,3.531,8.828,8.828,8.828h79.448
				c5.297,0,8.828-3.531,8.828-8.828C210.862,267.415,207.331,263.884,202.034,263.884z"/>
			<path d="M87.276,325.677h114.759c5.297,0,8.828-3.531,8.828-8.828s-3.531-8.828-8.828-8.828H87.276
				c-5.297,0-8.828,3.531-8.828,8.828S81.979,325.677,87.276,325.677z"/>
			<path d="M307.966,193.263h79.448c5.297,0,8.828-3.531,8.828-8.828c0-5.297-3.531-8.828-8.828-8.828h-79.448
				c-5.297,0-8.828,3.531-8.828,8.828C299.138,189.732,302.669,193.263,307.966,193.263z"/>
			<path d="M307.966,149.125h123.586c5.297,0,8.828-3.531,8.828-8.828c0-5.297-3.531-8.828-8.828-8.828H307.966
				c-5.297,0-8.828,3.531-8.828,8.828C299.138,145.594,302.669,149.125,307.966,149.125z"/>
			<path d="M431.552,308.021h-88.276c-5.297,0-8.828,3.531-8.828,8.828s3.531,8.828,8.828,8.828h88.276
				c5.297,0,8.828-3.531,8.828-8.828S436.848,308.021,431.552,308.021z"/>
			<path d="M307.966,281.539h79.448c5.297,0,8.828-3.531,8.828-8.828c0-5.297-3.531-8.828-8.828-8.828h-79.448
				c-5.297,0-8.828,3.531-8.828,8.828C299.138,278.008,302.669,281.539,307.966,281.539z"/>
			<path d="M307.966,237.401h123.586c5.297,0,8.828-3.531,8.828-8.828c0-5.297-3.531-8.828-8.828-8.828H307.966
				c-5.297,0-8.828,3.531-8.828,8.828C299.138,233.87,302.669,237.401,307.966,237.401z"/>
		</g>
	</g>
</g>
</svg>
