<?xml version="1.0" encoding="utf-8"?>
<!-- Generator: Adobe Illustrator 25.4.1, SVG Export Plug-In . SVG Version: 6.00 Build 0)  -->
<svg version="1.1" id="Layer_1" xmlns="http://www.w3.org/2000/svg" xmlns:xlink="http://www.w3.org/1999/xlink" x="0px" y="0px"
	 viewBox="0 0 121.2 75.8" style="enable-background:new 0 0 121.2 75.8;" xml:space="preserve">
<style type="text/css">
	.st0{fill:url(#SVGID_1_);}
	.st1{fill:url(#SVGID_00000183936163574530884420000001365521504195622035_);}
	.st2{fill:url(#SVGID_00000116957465671860862520000012357046122034789248_);}
</style>
<g>
	<linearGradient id="SVGID_1_" gradientUnits="userSpaceOnUse" x1="39.3564" y1="0.7229" x2="39.3564" y2="70.8801">
		<stop  offset="0" style="stop-color:#16C7F3"/>
		<stop  offset="1" style="stop-color:#1F72B3"/>
	</linearGradient>
	<polygon class="st0" points="71.1,43.6 54.2,22.5 46.9,13.3 43.6,9.2 36.3,0 21,0 15.3,0 0,0 10.1,13.3 25.4,13.3 31.1,13.3 
		34.4,17.3 39,22.5 63.5,53.1 60.6,56.7 33.2,22.5 28.6,17.3 13.4,17.3 18,22.5 53,66.3 60.6,75.8 68.2,66.3 71.1,62.7 78.7,53.1 	
		"/>
	<g>
		
			<linearGradient id="SVGID_00000146501797533988333200000014447285528729100954_" gradientUnits="userSpaceOnUse" x1="91.8085" y1="0.7229" x2="91.8085" y2="70.8801">
			<stop  offset="0" style="stop-color:#16C7F3"/>
			<stop  offset="1" style="stop-color:#1F72B3"/>
		</linearGradient>
		<polygon style="fill:url(#SVGID_00000146501797533988333200000014447285528729100954_);" points="91.9,36.7 103.2,22.5 
			107.2,17.5 76.4,17.5 		"/>
		
			<linearGradient id="SVGID_00000168079326617515050170000011740888822359231659_" gradientUnits="userSpaceOnUse" x1="81.5827" y1="0.7229" x2="81.5827" y2="70.8801">
			<stop  offset="0" style="stop-color:#16C7F3"/>
			<stop  offset="1" style="stop-color:#1F72B3"/>
		</linearGradient>
		<polygon style="fill:url(#SVGID_00000168079326617515050170000011740888822359231659_);" points="67.9,13.4 73.1,13.4 110.5,13.4 
			110.6,13.3 113.8,9.2 121.2,0 105.9,0 57.2,0 42,0 49.4,9.2 52.6,13.3 60,22.5 74,40 81.6,49.5 89.2,40 89.3,39.9 71.2,17.5 		"/>
	</g>
</g>
</svg>
