<?xml version="1.0" encoding="UTF-8"?>
<svg xmlns="http://www.w3.org/2000/svg" xmlns:xlink="http://www.w3.org/1999/xlink" width="37pt" height="40pt" viewBox="0 0 37 40" version="1.1">
<g id="surface1">
<path style=" stroke:none;fill-rule:nonzero;fill:rgb(14.509804%,18.431373%,24.313725%);fill-opacity:1;" d="M 10.546875 14.375 C 10.546875 15.191406 10.597656 15.851562 10.679688 16.335938 C 10.777344 16.820312 10.894531 17.347656 11.066406 17.921875 C 11.125 18.09375 11.148438 18.273438 11.148438 18.429688 C 11.148438 18.648438 11.078125 18.867188 10.921875 19.085938 L 10.164062 20.011719 C 10.050781 20.144531 9.941406 20.210938 9.847656 20.210938 C 9.726562 20.210938 9.605469 20.101562 9.484375 19.902344 C 9.316406 19.570312 9.171875 19.21875 9.050781 18.867188 C 8.929688 18.492188 8.808594 18.074219 8.679688 17.570312 C 7.738281 19.59375 6.554688 20.605469 5.132812 20.605469 C 4.117188 20.605469 3.3125 20.078125 2.722656 19.023438 C 2.128906 17.964844 1.828125 16.558594 1.828125 14.796875 C 1.828125 12.921875 2.191406 11.40625 2.925781 10.257812 C 3.660156 9.113281 4.636719 8.539062 5.878906 8.539062 C 6.289062 8.539062 6.710938 8.605469 7.160156 8.71875 C 7.605469 8.828125 8.0625 9.003906 8.546875 9.203125 L 8.546875 7.597656 C 8.546875 5.921875 8.351562 4.757812 7.980469 4.074219 C 7.59375 3.390625 6.941406 3.058594 6.015625 3.058594 C 5.589844 3.058594 5.15625 3.148438 4.710938 3.34375 C 4.265625 3.542969 3.828125 3.789062 3.40625 4.09375 C 3.214844 4.25 3.070312 4.335938 2.984375 4.382812 C 2.902344 4.425781 2.839844 4.449219 2.792969 4.449219 C 2.625 4.449219 2.539062 4.226562 2.539062 3.765625 L 2.539062 2.6875 C 2.539062 2.335938 2.5625 2.070312 2.625 1.917969 C 2.683594 1.761719 2.792969 1.605469 2.960938 1.453125 C 3.386719 1.058594 3.890625 0.726562 4.480469 0.464844 C 5.070312 0.175781 5.699219 0.0429688 6.363281 0.0429688 C 7.796875 0.0429688 8.847656 0.640625 9.519531 1.828125 C 10.183594 3.015625 10.523438 4.820312 10.523438 7.242188 L 10.523438 14.375 Z M 5.648438 17.71875 C 6.050781 17.71875 6.457031 17.589844 6.890625 17.324219 C 7.328125 17.0625 7.714844 16.578125 8.039062 15.917969 C 8.230469 15.5 8.375 15.035156 8.449219 14.507812 C 8.519531 13.980469 8.570312 13.34375 8.570312 12.59375 L 8.570312 11.667969 C 8.21875 11.515625 7.84375 11.382812 7.460938 11.296875 C 7.074219 11.207031 6.699219 11.160156 6.324219 11.160156 C 5.519531 11.160156 4.925781 11.445312 4.53125 12.042969 C 4.132812 12.636719 3.9375 13.472656 3.9375 14.574219 C 3.9375 15.609375 4.082031 16.378906 4.386719 16.90625 C 4.675781 17.457031 5.097656 17.71875 5.648438 17.71875 Z M 15.332031 20.101562 C 15.117188 20.101562 14.972656 20.035156 14.875 19.882812 C 14.78125 19.746094 14.695312 19.4375 14.621094 19.023438 L 11.789062 2 C 11.714844 1.5625 11.679688 1.277344 11.679688 1.125 C 11.679688 0.769531 11.777344 0.574219 11.96875 0.574219 L 13.152344 0.574219 C 13.378906 0.574219 13.539062 0.640625 13.621094 0.792969 C 13.71875 0.921875 13.792969 1.234375 13.863281 1.652344 L 15.890625 16.226562 L 17.769531 1.652344 C 17.832031 1.210938 17.902344 0.921875 18 0.792969 C 18.097656 0.660156 18.265625 0.574219 18.480469 0.574219 L 19.445312 0.574219 C 19.675781 0.574219 19.832031 0.640625 19.929688 0.792969 C 20.023438 0.921875 20.109375 1.234375 20.15625 1.652344 L 22.0625 16.402344 L 24.148438 1.652344 C 24.222656 1.210938 24.304688 0.921875 24.390625 0.792969 C 24.488281 0.660156 24.644531 0.574219 24.863281 0.574219 L 25.980469 0.574219 C 26.175781 0.574219 26.285156 0.75 26.285156 1.125 C 26.285156 1.234375 26.273438 1.34375 26.257812 1.476562 C 26.25 1.605469 26.222656 1.78125 26.175781 2.027344 L 23.269531 19.042969 C 23.199219 19.484375 23.113281 19.769531 23.015625 19.902344 C 22.917969 20.035156 22.765625 20.121094 22.558594 20.121094 L 21.523438 20.121094 C 21.292969 20.121094 21.136719 20.054688 21.039062 19.902344 C 20.941406 19.746094 20.859375 19.460938 20.808594 19.023438 L 18.941406 4.820312 L 17.085938 19 C 17.023438 19.4375 16.949219 19.726562 16.855469 19.882812 C 16.757812 20.035156 16.589844 20.101562 16.371094 20.101562 Z M 30.832031 20.695312 C 30.203125 20.695312 29.578125 20.5625 28.972656 20.296875 C 28.371094 20.035156 27.898438 19.746094 27.585938 19.417969 C 27.394531 19.21875 27.261719 19 27.210938 18.804688 C 27.164062 18.605469 27.140625 18.382812 27.140625 18.183594 L 27.140625 17.0625 C 27.140625 16.597656 27.238281 16.378906 27.417969 16.378906 C 27.492188 16.378906 27.5625 16.402344 27.636719 16.445312 C 27.707031 16.488281 27.816406 16.578125 27.933594 16.667969 C 28.347656 16.996094 28.792969 17.261719 29.261719 17.4375 C 29.742188 17.609375 30.214844 17.699219 30.695312 17.699219 C 31.457031 17.699219 32.046875 17.457031 32.457031 16.972656 C 32.867188 16.488281 33.085938 15.785156 33.085938 14.878906 C 33.085938 14.265625 32.976562 13.761719 32.757812 13.34375 C 32.542969 12.921875 32.132812 12.546875 31.542969 12.195312 L 29.792969 11.207031 C 28.914062 10.699219 28.261719 9.953125 27.863281 8.960938 C 27.464844 7.992188 27.261719 6.914062 27.261719 5.769531 C 27.261719 4.84375 27.367188 4.027344 27.585938 3.324219 C 27.804688 2.621094 28.09375 2 28.453125 1.519531 C 28.816406 1.011719 29.226562 0.640625 29.707031 0.375 C 30.191406 0.109375 30.695312 0 31.226562 0 C 31.496094 0 31.769531 0.0195312 32.035156 0.0898438 C 32.3125 0.15625 32.566406 0.246094 32.820312 0.328125 C 33.0625 0.441406 33.289062 0.550781 33.507812 0.683594 C 33.726562 0.8125 33.894531 0.949219 34.015625 1.078125 C 34.183594 1.253906 34.304688 1.433594 34.375 1.628906 C 34.449219 1.808594 34.484375 2.046875 34.484375 2.355469 L 34.484375 3.390625 C 34.484375 3.851562 34.386719 4.09375 34.207031 4.09375 C 34.109375 4.09375 33.953125 4.007812 33.75 3.828125 C 33.0625 3.257812 32.289062 2.96875 31.433594 2.96875 C 30.746094 2.96875 30.203125 3.167969 29.828125 3.589844 C 29.453125 4.007812 29.261719 4.648438 29.261719 5.546875 C 29.261719 6.164062 29.382812 6.695312 29.625 7.113281 C 29.867188 7.527344 30.3125 7.945312 30.949219 8.320312 L 32.664062 9.3125 C 33.53125 9.820312 34.160156 10.523438 34.53125 11.425781 C 34.90625 12.328125 35.085938 13.363281 35.085938 14.507812 C 35.085938 15.453125 34.980469 16.3125 34.773438 17.0625 C 34.554688 17.808594 34.265625 18.46875 33.894531 19 C 33.519531 19.546875 33.074219 19.945312 32.554688 20.230469 C 32.011719 20.539062 31.445312 20.695312 30.832031 20.695312 Z M 30.832031 20.695312 "/>
<path style=" stroke:none;fill-rule:evenodd;fill:rgb(100%,60%,0%);fill-opacity:1;" d="M 33.109375 31.390625 C 29.140625 36.742188 23.378906 39.582031 18.421875 39.582031 C 11.476562 39.582031 5.214844 34.894531 0.488281 27.101562 C 0.113281 26.484375 0.453125 25.648438 0.902344 26.132812 C 6.015625 31.546875 12.320312 34.828125 18.84375 34.828125 C 23.246094 34.828125 28.078125 33.15625 32.53125 29.71875 C 33.195312 29.171875 33.761719 30.511719 33.109375 31.390625 Z M 33.109375 31.390625 "/>
<path style=" stroke:none;fill-rule:evenodd;fill:rgb(100%,60%,0%);fill-opacity:1;" d="M 34.761719 27.957031 C 34.253906 26.769531 31.410156 27.386719 30.117188 27.671875 C 29.734375 27.761719 29.671875 27.144531 30.023438 26.679688 C 32.289062 23.773438 36.015625 24.613281 36.449219 25.582031 C 36.886719 26.570312 36.328125 33.375 34.207031 36.632812 C 33.882812 37.136719 33.566406 36.878906 33.710938 36.214844 C 34.195312 34.039062 35.269531 29.125 34.761719 27.957031 Z M 34.761719 27.957031 "/>
</g>
</svg>
