<?xml version="1.0" encoding="UTF-8"?>
<svg width="42px" height="50px" viewBox="0 0 42 50" version="1.1" xmlns="http://www.w3.org/2000/svg" xmlns:xlink="http://www.w3.org/1999/xlink">
    <title>B440A66B-2041-4930-8282-8D8729FE0C52</title>
    <g id="Visual-directions" stroke="none" stroke-width="1" fill="none" fill-rule="evenodd">
        <g id="Dashboard" transform="translate(-39.000000, -36.000000)" fill-rule="nonzero">
            <g id="Group-2" transform="translate(39.000000, 36.254289)">
                <g id="Group" opacity="0.5" transform="translate(0.000000, 0.044967)">
                    <polygon id="Path" fill="#27B4EE" points="20.3481356 15.1762138 13.0769492 19.3918288 13.0769492 27.8230587 20.3481356 32.0386736 27.6081356 27.8230587 27.6081356 19.3918288 20.3481356 15.1762138"></polygon>
                    <polygon id="Path" fill="#1493E8" points="20.3481356 15.1762138 20.3481356 32.0386736 27.6081356 27.8230587 27.6081356 19.3918288 20.3481356 15.1762138"></polygon>
                    <polygon id="Path" fill="#0878CA" points="20.3481356 15.1762138 13.0769492 19.3918288 20.3481356 23.6074437 27.6081356 19.3918288 20.3481356 15.1762138"></polygon>
                    <polygon id="Path" fill="#27B4EE" points="32.8545763 7.26209936 32.8545763 30.8695431 20.3481356 38.1316425 7.83050847 30.8695431 7.83050847 16.3453444 20.3481356 9.08324502 27.6081356 13.29886 27.6081356 4.21561495 20.3481356 0 0 11.8037219 0 35.4111656 20.3481356 47.2148875 40.6850847 35.4111656 40.6850847 11.8037219"></polygon>
                    <polygon id="Path" fill="#1493E8" points="32.8545763 7.26209936 32.8545763 30.8695431 20.3481356 38.1316425 20.3481356 47.2148875 40.6850847 35.4111656 40.6850847 11.8037219"></polygon>
                    <polygon id="Path" fill="#0878CA" points="40.6850847 11.8037219 32.8545763 7.26209936 32.8545763 16.3453444"></polygon>
                    <polygon id="Path" fill="#0878CA" points="7.83050847 16.3453444 20.3481356 9.08324502 27.6081356 13.29886 27.6081356 4.21561495 20.3481356 0 0 11.8037219"></polygon>
                </g>
                <path d="M20.3481356,16.513969 L26.500678,20.0775688 L26.500678,27.2160101 L20.3481356,30.77961 L14.1955932,27.2160101 L14.1955932,20.0888105 L20.3481356,16.5252106 M20.3481356,15.232422 L13.0769492,19.448037 L13.0769492,27.8230587 L20.3481356,32.0386736 L27.619322,27.8230587 L27.619322,19.3918288 L20.3481356,15.1762138 L20.3481356,15.232422 Z" id="Shape" fill="#27B4EE"></path>
                <path d="M26.4783051,20.0775688 L26.4783051,20.0775688 L26.4783051,27.2160101 L21.4444068,30.1388365 L21.4444068,23.0341201 L25.9189831,20.4035764 L26.4783051,20.0663272 M20.359322,15.2099388 L25.3484746,19.4255537 L20.359322,22.382105 L20.359322,32.0723986 L27.619322,27.8230587 L27.619322,19.3918288 L20.3481356,15.1762138 L20.359322,15.2099388 Z" id="Shape" fill="#1493E8"></path>
                <path d="M20.3481356,16.513969 L25.3820339,19.4367953 L20.3481356,22.3596217 L15.3142373,19.4367953 L20.3481356,16.513969 M20.3481356,15.2211804 L13.0769492,19.4367953 L20.3481356,23.6524103 L27.619322,19.4367953 L20.3481356,15.2211804 Z" id="Shape" fill="#0878CA"></path>
                <path d="M20.3481356,1.33775515 L26.500678,4.90135499 L26.500678,11.3877812 L20.9074576,8.15018891 L20.3481356,7.82418135 L19.7888136,8.15018891 L7.27118644,15.4572548 L6.71186441,15.7832624 L6.71186441,31.5665248 L7.27118644,31.8925323 L19.7888136,39.1546317 L20.3481356,39.4806392 L20.9074576,39.1546317 L33.4250847,31.8925323 L33.9844068,31.5665248 L33.9844068,9.25186962 L39.5776271,12.5007035 L39.5776271,34.8041171 L20.3481356,45.9670654 L1.11864407,34.8041171 L1.11864407,12.5007035 L20.3481356,1.33775515 M20.3481356,0.0449665595 L-1.21807326e-14,11.8486884 L-1.21807326e-14,35.4561322 L20.3481356,47.259854 L40.6962712,35.4561322 L40.6962712,11.8486884 L32.8657627,7.35203248 L32.8657627,30.9594762 L20.3481356,38.176609 L7.83050847,30.9145097 L7.83050847,16.3903109 L20.3481356,9.12821158 L27.619322,13.3438265 L27.619322,4.21561495 L20.3481356,-3.06669302e-15 L20.3481356,0.0449665595 Z" id="Shape" fill="#27B4EE"></path>
                <path d="M33.9844068,9.25186962 L39.5776271,12.5007035 L39.5776271,34.8041171 L21.4667797,45.3150503 L21.4667797,38.8173825 L33.4250847,31.8812907 L33.9844068,31.5552831 L33.9844068,9.25186962 M32.8657627,7.30706592 L32.8657627,30.9145097 L20.3481356,38.176609 L20.3481356,47.259854 L40.6962712,35.4561322 L40.6962712,11.8486884 L32.8657627,7.35203248 L32.8657627,7.30706592 Z" id="Shape" fill="#1493E8"></path>
                <path d="M33.9844068,9.25186962 L38.4589831,11.8486884 L33.9844068,14.4455072 L33.9844068,9.25186962 M32.8657627,7.30706592 L32.8657627,16.3903109 L40.6962712,11.893655 L32.8657627,7.39699904 L32.8657627,7.30706592 Z" id="Shape" fill="#0878CA"></path>
                <path d="M20.3481356,1.33775515 L26.500678,4.90135499 L26.500678,11.3877812 L20.9074576,8.15018891 L20.3481356,7.82418135 L19.7888136,8.15018891 L7.83050847,15.0975224 L2.23728814,11.8486884 L20.3481356,1.33775515 M20.3481356,0.0449665595 L3.34970147e-14,11.8486884 L7.83050847,16.3453444 L20.3481356,9.12821158 L27.619322,13.3438265 L27.619322,4.21561495 L20.3481356,3.06669302e-15 L20.3481356,0.0449665595 Z" id="Shape" fill="#0878CA"></path>
            </g>
        </g>
    </g>
</svg>