<?xml version="1.0" encoding="UTF-8"?>
<svg xmlns="http://www.w3.org/2000/svg" xmlns:xlink="http://www.w3.org/1999/xlink" width="55pt" height="42pt" viewBox="0 0 55 42" version="1.1">
<g id="surface1">
<path style=" stroke:none;fill-rule:nonzero;fill:rgb(93.333333%,0%,0%);fill-opacity:1;" d="M 36.6875 24.207031 C 40.296875 24.207031 45.527344 23.449219 45.527344 19.113281 C 45.539062 18.777344 45.507812 18.441406 45.4375 18.117188 L 43.285156 8.679688 C 42.789062 6.601562 42.355469 5.660156 38.742188 3.839844 C 35.941406 2.390625 29.832031 0 28.027344 0 C 26.351562 0 25.859375 2.1875 23.855469 2.1875 C 21.925781 2.1875 20.492188 0.554688 18.683594 0.554688 C 16.949219 0.554688 15.824219 1.75 14.953125 4.199219 C 14.953125 4.199219 12.523438 11.117188 12.207031 12.121094 C 12.160156 12.304688 12.140625 12.496094 12.148438 12.6875 C 12.148438 15.375 22.636719 24.195312 36.6875 24.195312 M 46.082031 20.875 C 46.582031 23.265625 46.582031 23.515625 46.582031 23.828125 C 46.582031 27.914062 42.035156 30.179688 36.058594 30.179688 C 22.550781 30.1875 10.714844 22.195312 10.714844 16.917969 C 10.714844 16.179688 10.863281 15.453125 11.148438 14.777344 C 6.300781 15.019531 0.00390625 15.894531 0.00390625 21.5 C 0.00390625 30.683594 21.554688 42 38.617188 42 C 51.695312 42 54.996094 36.027344 54.996094 31.308594 C 54.996094 27.601562 51.820312 23.390625 46.089844 20.875 "/>
<path style=" stroke:none;fill-rule:nonzero;fill:rgb(0%,0%,0%);fill-opacity:1;" d="M 46.082031 20.875 C 46.582031 23.265625 46.582031 23.515625 46.582031 23.828125 C 46.582031 27.914062 42.035156 30.179688 36.058594 30.179688 C 22.550781 30.1875 10.714844 22.195312 10.714844 16.917969 C 10.714844 16.179688 10.863281 15.453125 11.148438 14.777344 L 12.210938 12.132812 C 12.160156 12.3125 12.140625 12.5 12.144531 12.6875 C 12.144531 15.375 22.632812 24.195312 36.6875 24.195312 C 40.296875 24.195312 45.527344 23.441406 45.527344 19.101562 C 45.539062 18.765625 45.507812 18.429688 45.4375 18.101562 Z M 46.082031 20.875 "/>
</g>
</svg>
