<svg width="40" height="40" viewBox="0 0 40 40" fill="none" xmlns="http://www.w3.org/2000/svg">
<path d="M11.4636 19.6414C11.4636 20.0745 11.5158 20.4255 11.6068 20.683C11.7224 20.9726 11.8616 21.2542 12.0232 21.5255C12.0883 21.6191 12.1142 21.7127 12.1142 21.7947C12.1142 21.9116 12.0362 22.0287 11.867 22.1458L11.0473 22.6372C10.9302 22.7075 10.8131 22.7425 10.7088 22.7425C10.5788 22.7425 10.4486 22.684 10.3185 22.5787C10.1431 22.4092 9.98631 22.2251 9.8501 22.0287C9.71992 21.8299 9.58975 21.6074 9.44668 21.3383C8.43168 22.4148 7.15633 22.9532 5.62094 22.9532C4.52796 22.9532 3.65603 22.6723 3.01836 22.1107C2.38084 21.5488 2.05556 20.7999 2.05556 19.8638C2.05556 18.8692 2.44593 18.0617 3.23972 17.4532C4.03336 16.8447 5.0875 16.5404 6.42778 16.5404C6.87019 16.5404 7.32565 16.5755 7.80706 16.634C8.28861 16.6926 8.78306 16.7861 9.30361 16.8915V16.0372C9.30361 15.1478 9.0953 14.5277 8.69188 14.1649C8.27556 13.8021 7.5728 13.6265 6.57085 13.6265C6.11539 13.6265 5.64704 13.6734 5.16548 13.7788C4.68408 13.884 4.21557 14.0128 3.76011 14.1766C3.55196 14.2585 3.39584 14.3053 3.30465 14.3287C3.21362 14.3522 3.14854 14.3638 3.0965 14.3638C2.91428 14.3638 2.82325 14.2467 2.82325 14.001V13.4276C2.82325 13.2404 2.84935 13.1 2.91428 13.0181C2.97937 12.9361 3.0965 12.8542 3.27871 12.7724C3.73417 12.5617 4.28066 12.3861 4.91818 12.2457C5.55601 12.0936 6.23267 12.0235 6.94833 12.0235C8.49692 12.0235 9.62905 12.3393 10.3578 12.9713C11.0734 13.6032 11.4378 14.5627 11.4378 15.85V19.6414H11.4636ZM6.18048 21.4202C6.61 21.4202 7.05241 21.35 7.52076 21.2095C7.98927 21.0691 8.40574 20.8117 8.75697 20.4606C8.96528 20.2383 9.12139 19.9926 9.19938 19.7117C9.27751 19.4309 9.32955 19.0914 9.32955 18.6936V18.2021C8.93493 18.1157 8.53523 18.0493 8.13234 18.0032C7.72665 17.9568 7.31813 17.9334 6.90918 17.9329C6.03726 17.9329 5.39974 18.0851 4.97037 18.401C4.54086 18.717 4.3327 19.1617 4.3327 19.7467C4.3327 20.2967 4.48882 20.7063 4.8141 20.9872C5.12649 21.2798 5.58195 21.4202 6.18048 21.4202ZM16.6296 22.684C16.3954 22.684 16.2393 22.6489 16.1352 22.5669C16.0311 22.4968 15.9399 22.3329 15.8619 22.1107L12.8041 13.0649C12.7258 12.8308 12.6868 12.6786 12.6868 12.5968C12.6868 12.4096 12.7909 12.3041 12.9992 12.3041H14.2744C14.5215 12.3041 14.6908 12.3393 14.7819 12.4212C14.8859 12.4915 14.9641 12.6553 15.0421 12.8776L17.2282 20.6245L19.2582 12.8776C19.3233 12.6436 19.4014 12.4915 19.5053 12.4212C19.6096 12.3511 19.7918 12.3043 20.026 12.3043H21.067C21.3141 12.3043 21.4834 12.3393 21.5874 12.4212C21.6916 12.4915 21.7826 12.6553 21.8347 12.8776L23.8907 20.7181L26.1418 12.8776C26.2198 12.6436 26.311 12.4915 26.402 12.4212C26.5061 12.3511 26.6752 12.3043 26.9095 12.3043H28.1196C28.3279 12.3043 28.445 12.3979 28.445 12.5968C28.445 12.6553 28.432 12.7139 28.4189 12.784C28.4059 12.8542 28.3799 12.9478 28.3279 13.0766L25.1917 22.1223C25.1138 22.3564 25.0227 22.5085 24.9185 22.5787C24.8144 22.6489 24.6452 22.6957 24.4242 22.6957H23.3051C23.0578 22.6957 22.8886 22.6607 22.7844 22.5787C22.6803 22.4968 22.5893 22.3447 22.5373 22.1107L20.5202 14.5627L18.5163 22.0988C18.4513 22.3329 18.3732 22.4851 18.2691 22.5669C18.165 22.6489 17.9828 22.684 17.7487 22.684H16.6296ZM33.3509 23C32.6742 23 31.9975 22.9297 31.347 22.7893C30.6962 22.6489 30.1889 22.4967 29.8506 22.3214C29.6422 22.2159 29.499 22.099 29.4471 21.9936C29.3965 21.8903 29.3699 21.7788 29.369 21.6659V21.0691C29.369 20.8234 29.4731 20.7063 29.6683 20.7063C29.748 20.7066 29.8271 20.7185 29.9026 20.7415C29.9806 20.765 30.0977 20.8117 30.2279 20.8584C30.6875 21.0402 31.1673 21.1776 31.6592 21.268C32.1689 21.3611 32.6877 21.4081 33.2078 21.4084C34.0275 21.4084 34.6652 21.2798 35.1076 21.0223C35.55 20.7649 35.7843 20.3905 35.7843 19.9106C35.7843 19.583 35.6671 19.3138 35.4329 19.0914C35.1986 18.8692 34.7562 18.6702 34.1187 18.4829L32.2318 17.9564C31.2819 17.6872 30.5793 17.2893 30.1497 16.7627C29.7204 16.2478 29.4992 15.6744 29.4992 15.0659C29.4992 14.5745 29.6163 14.1414 29.8506 13.7669C30.0847 13.3925 30.397 13.0649 30.7874 12.8074C31.1778 12.5383 31.6202 12.3393 32.1408 12.1989C32.6611 12.0585 33.2076 12 33.7802 12C34.0665 12 34.3659 12.0117 34.6521 12.0468C34.9515 12.0819 35.2247 12.1287 35.498 12.1755C35.7582 12.234 36.0055 12.2925 36.2397 12.3628C36.474 12.4329 36.656 12.5032 36.7862 12.5733C36.9684 12.6671 37.0985 12.7606 37.1766 12.866C37.2547 12.9596 37.2937 13.0882 37.2937 13.2521V13.8021C37.2937 14.0478 37.1896 14.1766 36.9944 14.1766C36.8903 14.1766 36.7211 14.1297 36.5001 14.0361C35.7582 13.7318 34.9254 13.5797 34.0016 13.5797C33.2598 13.5797 32.6742 13.685 32.2708 13.9074C31.8675 14.1297 31.6592 14.4691 31.6592 14.9489C31.6592 15.2766 31.7894 15.5574 32.0496 15.7798C32.3099 16.002 32.7913 16.2244 33.481 16.4234L35.3288 16.95C36.2657 17.2192 36.9423 17.5936 37.3458 18.0733C37.7492 18.5532 37.9444 19.1032 37.9444 19.7117C37.9444 20.2149 37.8272 20.6713 37.606 21.0691C37.3719 21.467 37.0595 21.818 36.6561 22.099C36.2526 22.3915 35.7712 22.6021 35.2117 22.7543C34.6261 22.9181 34.0145 23 33.3509 23Z" fill="white"/>
<path d="M35.3552 29.6046C31.1972 32.4758 25.156 34 19.9617 34C12.6819 34 6.12262 31.4833 1.16838 27.3006C0.776564 26.9698 1.13036 26.5208 1.59792 26.7807C6.95666 29.6874 13.5666 31.4478 20.404 31.4478C25.017 31.4478 30.085 30.5499 34.7487 28.7067C35.4437 28.4112 36.0377 29.1321 35.3552 29.6046ZM37.0867 27.7614C36.556 27.1234 33.5732 27.4542 32.2209 27.6078C31.8164 27.6552 31.7532 27.3243 32.1198 27.0762C34.4958 25.5164 38.4012 25.9655 38.856 26.4853C39.3111 27.0171 38.7296 30.668 36.5053 32.4167C36.1642 32.6885 35.8355 32.5468 35.9872 32.1923C36.4926 31.0224 37.6175 28.3876 37.0867 27.7614Z" fill="#FF9900"/>
</svg>