<svg width="40" height="40" viewBox="0 0 40 40" fill="none" xmlns="http://www.w3.org/2000/svg">
<g id="Icon / AWS / ECS-Repository">
<path id="Amazon-Elastic-Container-Registry-Registry_Resource-Icon_light-bg" fill-rule="evenodd" clip-rule="evenodd" d="M28.1808 30.1811H29.6371V27.6361H28.1808V30.1811ZM25.635 30.1811H27.0914V27.6361H25.635V30.1811ZM23.09 30.1811H24.5464V27.6361H23.09V30.1811ZM22.0014 31.3622H30.7258V26.455H22.0014V31.3622ZM31.454 24.9986H21.2725C20.8705 24.9986 20.5443 25.3241 20.5443 25.7268V32.0904C20.5443 32.4931 20.8705 32.8186 21.2725 32.8186H31.454C31.8566 32.8186 32.1821 32.4931 32.1821 32.0904V25.7268C32.1821 25.3241 31.8566 24.9986 31.454 24.9986ZM28.1808 21.2732H29.6371V18.7275H28.1808V21.2732ZM25.635 21.2732H27.0914V18.7275H25.635V21.2732ZM23.09 21.2732H24.5464V18.7275H23.09V21.2732ZM22.0014 22.4536H30.7258V17.5471H22.0014V22.4536ZM31.454 16.0907H21.2725C20.8705 16.0907 20.5443 16.4162 20.5443 16.8189V23.1818C20.5443 23.5845 20.8705 23.91 21.2725 23.91H31.454C31.8566 23.91 32.1821 23.5845 32.1821 23.1818V16.8189C32.1821 16.4162 31.8566 16.0907 31.454 16.0907ZM28.1808 12.3639H29.6371V9.81891H28.1808V12.3639ZM25.635 12.3639H27.0914V9.81891H25.635V12.3639ZM23.09 12.3639H24.5464V9.81891H23.09V12.3639ZM22.0014 13.545H30.7258V8.6378H22.0014V13.545ZM31.454 7.18143H21.2725C20.8705 7.18143 20.5443 7.50766 20.5443 7.90961V14.2732C20.5443 14.6759 20.8705 15.0014 21.2725 15.0014H31.454C31.8566 15.0014 32.1821 14.6759 32.1821 14.2732V7.90961C32.1821 7.50766 31.8566 7.18143 31.454 7.18143ZM15.4536 30.1811H16.91V27.6361H15.4536V30.1811ZM12.9086 30.1811H14.365V27.6361H12.9086V30.1811ZM10.3629 30.1811H11.8192V27.6361H10.3629V30.1811ZM9.27423 31.3622H17.9986V26.455H9.27423V31.3622ZM18.7268 24.9986H8.54605C8.14336 24.9986 7.81786 25.3241 7.81786 25.7268V32.0904C7.81786 32.4931 8.14336 32.8186 8.54605 32.8186H18.7268C19.1295 32.8186 19.455 32.4931 19.455 32.0904V25.7268C19.455 25.3241 19.1295 24.9986 18.7268 24.9986ZM15.4536 21.2732H16.91V18.7275H15.4536V21.2732ZM12.9086 21.2732H14.365V18.7275H12.9086V21.2732ZM10.3629 21.2732H11.8192V18.7275H10.3629V21.2732ZM9.27423 22.4536H17.9986V17.5471H9.27423V22.4536ZM18.7268 16.0907H8.54605C8.14336 16.0907 7.81786 16.4162 7.81786 16.8189V23.1818C7.81786 23.5845 8.14336 23.91 8.54605 23.91H18.7268C19.1295 23.91 19.455 23.5845 19.455 23.1818V16.8189C19.455 16.4162 19.1295 16.0907 18.7268 16.0907ZM15.4536 12.3639H16.91V9.81891H15.4536V12.3639ZM12.9086 12.3639H14.365V9.81891H12.9086V12.3639ZM10.3629 12.3639H11.8192V9.81891H10.3629V12.3639ZM9.27423 13.545H17.9986V8.6378H9.27423V13.545ZM18.7268 7.18143H8.54605C8.14336 7.18143 7.81786 7.50766 7.81786 7.90961V14.2732C7.81786 14.6759 8.14336 15.0014 8.54605 15.0014H18.7268C19.1295 15.0014 19.455 14.6759 19.455 14.2732V7.90961C19.455 7.50766 19.1295 7.18143 18.7268 7.18143ZM34.5436 31.3047C34.5436 33.0909 33.0909 34.5436 31.3047 34.5436H8.69532C6.90909 34.5436 5.45637 33.0909 5.45637 31.3047V8.69532C5.45637 6.90909 6.90909 5.45637 8.69532 5.45637H31.3047C33.0909 5.45637 34.5436 6.90909 34.5436 8.69532V31.3047ZM31.3047 4H8.69532C6.10591 4 4 6.10663 4 8.69532V31.3047C4 33.8941 6.10591 36 8.69532 36H31.3047C33.8941 36 36 33.8941 36 31.3047V8.69532C36 6.10663 33.8941 4 31.3047 4Z" fill="#ED7100"/>
</g>
</svg>