<svg width="40" height="40" viewBox="0 0 40 40" fill="none" xmlns="http://www.w3.org/2000/svg">
<g id="Icon / AWS / EC2-Classic- LB ">
<path id="AWS-Elastic-Load-Balancing_Classic-Load-Balancer_Resource-Icon_light-bg" fill-rule="evenodd" clip-rule="evenodd" d="M20.0004 35.4546C11.4786 35.4546 4.54535 28.5212 4.54535 20C4.54535 11.4788 11.4786 4.54538 20.0004 4.54538C28.5214 4.54538 35.4547 11.4788 35.4547 20C35.4547 28.5212 28.5214 35.4546 20.0004 35.4546ZM20.0004 3C10.6263 3 3 10.6257 3 20C3 29.3743 10.6263 37 20.0004 37C29.3745 37 37 29.3743 37 20C37 10.6257 29.3745 3 20.0004 3ZM22.3671 22.4989C22.6731 22.4989 22.9226 22.7431 22.9226 23.0429C22.9226 23.3419 22.6731 23.5861 22.3671 23.5861C22.0603 23.5861 21.8108 23.3419 21.8108 23.0429C21.8108 22.7431 22.0603 22.4989 22.3671 22.4989ZM16.9576 20.8816C16.6508 20.8816 16.4013 20.6375 16.4013 20.3384C16.4013 20.0386 16.6508 19.7945 16.9576 19.7945C17.2643 19.7945 17.5139 20.0386 17.5139 20.3384C17.5139 20.6375 17.2643 20.8816 16.9576 20.8816ZM22.3671 17.1209C22.6491 17.1209 22.8786 17.3512 22.8786 17.634C22.8786 17.916 22.6491 18.1455 22.3671 18.1455C22.0843 18.1455 21.854 17.916 21.854 17.634C21.854 17.3512 22.0843 17.1209 22.3671 17.1209ZM19.0423 20.1661L21.0188 19.1755C21.3812 19.4923 21.8494 19.6909 22.3671 19.6909C23.5006 19.6909 24.4239 18.7676 24.4239 17.634C24.4239 16.4989 23.5006 15.5756 22.3671 15.5756C21.232 15.5756 20.3087 16.4989 20.3087 17.634C20.3087 17.6881 20.321 17.7399 20.3257 17.794L18.3484 18.7846C17.9768 18.4554 17.4931 18.2491 16.9576 18.2491C15.7986 18.2491 14.8559 19.1864 14.8559 20.3384C14.8559 21.4897 15.7986 22.427 16.9576 22.427C17.5611 22.427 18.1019 22.1697 18.4852 21.7633L20.2932 22.7678C20.2809 22.8582 20.2654 22.9478 20.2654 23.0429C20.2654 24.1942 21.2073 25.1314 22.3671 25.1314C23.5253 25.1314 24.468 24.1942 24.468 23.0429C24.468 21.8908 23.5253 20.9535 22.3671 20.9535C21.8687 20.9535 21.4159 21.1343 21.0551 21.4233L19.057 20.3137C19.0562 20.2635 19.0469 20.2156 19.0423 20.1661ZM20.338 25.9884C17.2226 25.9884 14.6875 23.4825 14.6875 20.4018C14.6875 17.3203 17.2226 14.8137 20.338 14.8137C23.4542 14.8137 25.9886 17.3203 25.9886 20.4018C25.9886 23.4825 23.4542 25.9884 20.338 25.9884ZM20.338 13.2683C16.3704 13.2683 13.1421 16.4688 13.1421 20.4018C13.1421 24.334 16.3704 27.5337 20.338 27.5337C24.3057 27.5337 27.534 24.334 27.534 20.4018C27.534 16.4688 24.3057 13.2683 20.338 13.2683ZM12.6592 30.0458V9.28044L23.9603 9.27812V12.5621C23.9603 12.9894 24.3057 13.3348 24.733 13.3348H28.0169V30.0458H12.6592ZM25.5057 10.3707L26.9243 11.7894H25.5057V10.3707ZM29.3358 12.0158L25.2793 7.95914C25.1317 7.81155 24.9347 7.73969 24.733 7.73969V7.73274L11.8865 7.73506C11.4592 7.73506 11.1139 8.08122 11.1139 8.50775V30.8185C11.1139 31.2458 11.4592 31.5912 11.8865 31.5912H28.7896C29.2168 31.5912 29.5622 31.2458 29.5622 30.8185V12.5621H29.5553C29.5553 12.3612 29.4834 12.1634 29.3358 12.0158Z" fill="#8C4FFF"/>
</g>
</svg>