<svg width="40" height="40" viewBox="0 0 40 40" fill="none" xmlns="http://www.w3.org/2000/svg">
<g id="Icon / AWS / Lambda">
<path id="Amazon-Lambda-Lambda-Function_Resource-Icon_light-bg" fill-rule="evenodd" clip-rule="evenodd" d="M20 34.5455C11.9796 34.5455 5.45455 28.0204 5.45455 20C5.45455 11.9796 11.9796 5.45455 20 5.45455C28.0204 5.45455 34.5455 11.9796 34.5455 20C34.5455 28.0204 28.0204 34.5455 20 34.5455ZM20 4C11.1775 4 4 11.1775 4 20C4 28.8225 11.1775 36 20 36C28.8225 36 36 28.8225 36 20C36 11.1775 28.8225 4 20 4ZM15.0771 28.1818H11.1825L15.7971 18.5156L17.7469 22.5396L15.0771 28.1818ZM16.4465 16.52C16.3244 16.2691 16.0705 16.1098 15.792 16.1098H15.7898C15.5098 16.1105 15.256 16.272 15.136 16.5244L9.37382 28.5956C9.26545 28.8211 9.28145 29.0858 9.41455 29.2967C9.54764 29.5084 9.77964 29.6364 10.0298 29.6364H15.5375C15.8189 29.6364 16.0749 29.4742 16.1956 29.2204L19.2109 22.8473C19.3047 22.6487 19.304 22.4167 19.208 22.2189L16.4465 16.52ZM28.8182 28.1818H24.8531L17.6444 12.6931C17.5251 12.4371 17.2676 12.2727 16.9847 12.2727H14.3644L14.3673 9.27273H19.6182L26.792 24.76C26.9113 25.0167 27.168 25.1818 27.4516 25.1818H28.8182V28.1818ZM29.5455 23.7273H27.9164L20.7425 8.24C20.6225 7.98327 20.3658 7.81818 20.0822 7.81818H13.6407C13.2393 7.81818 12.9142 8.14327 12.9135 8.54473L12.9091 12.9993C12.9091 13.1927 12.9855 13.3775 13.1222 13.5142C13.2582 13.6509 13.4429 13.7273 13.6364 13.7273H16.5215L23.7302 29.216C23.8495 29.472 24.1062 29.6364 24.3891 29.6364H29.5455C29.9476 29.6364 30.2727 29.3113 30.2727 28.9091V24.4545C30.2727 24.0524 29.9476 23.7273 29.5455 23.7273Z" fill="#ED7100"/>
</g>
</svg>