<svg width="40" height="40" viewBox="0 0 40 40" fill="none" xmlns="http://www.w3.org/2000/svg">
<g id="Icon / AWS / EC2 Instance">
<path id="Amazon-EC2-Instance_Resource-Icon_light-bg" fill-rule="evenodd" clip-rule="evenodd" d="M9.09091 30.9091H30.9091V9.09091H9.09091V30.9091ZM36 12V10.5455H32.3636V8.36364C32.3636 7.96218 32.0378 7.63636 31.6364 7.63636H29.4545V4H28V7.63636H25.0909V4H23.6364V7.63636H20.7273V4H19.2727V7.63636H16.3636V4H14.9091V7.63636H12V4H10.5455V7.63636H8.36364C7.96145 7.63636 7.63636 7.96218 7.63636 8.36364V10.5455H4V12H7.63636V14.9091H4V16.3636H7.63636V19.2727H4V20.7273H7.63636V23.6364H4V25.0909H7.63636V28H4V29.4545H7.63636V31.6364C7.63636 32.0385 7.96145 32.3636 8.36364 32.3636H10.5455V36H12V32.3636H14.9091V36H16.3636V32.3636H19.2727V36H20.7273V32.3636H23.6364V36H25.0909V32.3636H28V36H29.4545V32.3636H31.6364C32.0378 32.3636 32.3636 32.0385 32.3636 31.6364V29.4545H36V28H32.3636V25.0909H36V23.6364H32.3636V20.7273H36V19.2727H32.3636V16.3636H36V14.9091H32.3636V12H36Z" fill="#ED7100"/>
</g>
</svg>