<svg width="40" height="40" viewBox="0 0 40 40" fill="none" xmlns="http://www.w3.org/2000/svg">
<g id="Icon / AWS / ECS-Cluster">
<path id="Amazon-Elastic-Container-Service_Icon_64_Squid" fill-rule="evenodd" clip-rule="evenodd" d="M34.7451 24.9667L29.7255 21.9236V14.6769C29.7255 14.4512 29.6075 14.2427 29.4143 14.1292L22.1961 9.87614V3.74435L34.7451 11.2357V24.9667ZM35.6919 10.3281L21.888 2.08812C21.6935 1.97213 21.4544 1.97086 21.2574 2.08305C21.0623 2.19587 20.9412 2.40631 20.9412 2.63386V10.24C20.9412 10.465 21.0598 10.6735 21.2524 10.7876L28.4706 15.0407V22.283C28.4706 22.5055 28.5867 22.7121 28.7755 22.8262L35.05 26.6292C35.1492 26.6894 35.2609 26.7199 35.3726 26.7199C35.4792 26.7199 35.5859 26.6926 35.6819 26.6375C35.8789 26.5253 36 26.3142 36 26.086V10.8738C36 10.6494 35.8833 10.4422 35.6919 10.3281ZM19.9655 36.7745L5.2549 28.8743V11.2357L17.8039 3.74435V9.89199L11.1925 14.1419C11.0118 14.2585 10.902 14.4601 10.902 14.6769V25.4522C10.902 25.6886 11.0325 25.9054 11.2395 26.0144L19.6806 30.4513C19.862 30.5464 20.0778 30.547 20.2585 30.4519L28.448 26.1773L33.4877 29.2324L19.9655 36.7745ZM35.0682 28.7114L28.7937 24.9083C28.6067 24.7955 28.3758 24.7879 28.1826 24.8893L19.9718 29.1747L12.1569 25.0674V15.0248L18.7683 10.7749C18.949 10.6583 19.0588 10.4567 19.0588 10.24V2.63386C19.0588 2.40631 18.9384 2.19587 18.7426 2.08305C18.5468 1.97086 18.3071 1.97213 18.112 2.08812L4.30808 10.3281C4.11733 10.4422 4 10.6494 4 10.8738V29.2552C4 29.4891 4.128 29.7046 4.33255 29.8149L19.6762 38.0549C19.7685 38.1043 19.8695 38.129 19.9705 38.129C20.0753 38.129 20.1795 38.1024 20.2742 38.0498L35.0488 29.8099C35.2452 29.7002 35.3682 29.4929 35.3726 29.2666C35.3763 29.0397 35.2602 28.828 35.0682 28.7114Z" fill="#ED7100"/>
</g>
</svg>