<svg width="40" height="40" viewBox="0 0 40 40" fill="none" xmlns="http://www.w3.org/2000/svg">
<path fill-rule="evenodd" clip-rule="evenodd" d="M17.9914 21.0477C17.8103 21.0477 17.5914 21.0214 17.3354 20.9697C17.0801 20.9164 16.8503 20.8515 16.6467 20.775V21.6426C16.8227 21.7425 17.0394 21.8219 17.2983 21.8832C17.5565 21.9437 17.8154 21.9743 18.0735 21.9743C18.6684 21.9743 19.1339 21.8212 19.472 21.515C19.8109 21.2095 19.9796 20.7939 19.9796 20.2705C19.9796 20 19.9396 19.7696 19.8604 19.5793C19.7804 19.3898 19.6567 19.217 19.4895 19.0624C19.3208 18.9079 19.0946 18.754 18.8081 18.5995L18.363 18.3589C18.1208 18.2276 17.9572 18.1059 17.8714 17.9951C17.787 17.885 17.7434 17.7443 17.7434 17.573C17.7434 17.3695 17.8103 17.2092 17.9426 17.094C18.0735 16.978 18.2554 16.9197 18.4866 16.9197C18.827 16.9197 19.2204 17.0021 19.6669 17.1683V16.292C19.2379 16.093 18.8051 15.9931 18.371 15.9931C18.0248 15.9931 17.7179 16.0609 17.451 16.1965C17.1841 16.3314 16.974 16.5246 16.8198 16.7754C16.6663 17.0262 16.5885 17.32 16.5885 17.6561C16.5885 18.0206 16.6758 18.329 16.8525 18.5827C17.0285 18.8364 17.3201 19.0734 17.7281 19.2943L18.1724 19.5341C18.3986 19.6552 18.5593 19.7754 18.6553 19.8936C18.7513 20.0124 18.7993 20.1567 18.7993 20.3281C18.7993 20.5599 18.7317 20.7371 18.5935 20.861C18.4561 20.9857 18.2554 21.0477 17.9914 21.0477ZM14.7406 18.8969C14.7406 18.2466 14.6541 17.7683 14.4803 17.4614C14.3079 17.1559 14.0366 17.0021 13.6679 17.0021H13.1887V20.9653H13.6752C14.0337 20.9653 14.2999 20.8093 14.4766 20.4979C14.6519 20.1852 14.7406 19.7069 14.7406 19.0624V18.8969ZM15.3755 16.8453C15.7442 17.3309 15.9282 18.0417 15.9282 18.9793C15.9282 19.9227 15.7471 20.6372 15.3842 21.1228C15.0206 21.6076 14.4926 21.8504 13.7996 21.8504H12.0345V16.1177H13.7588C14.4679 16.1177 15.0068 16.3605 15.3755 16.8453ZM9.96337 17.9207C9.96337 17.6123 9.90664 17.3783 9.79465 17.2179C9.6812 17.0575 9.51757 16.978 9.30303 16.978H8.76633V18.8641H9.30303C9.51757 18.8641 9.6812 18.7847 9.79465 18.6243C9.90664 18.4639 9.96337 18.2298 9.96337 17.9207ZM10.2441 19.5509L11.3989 21.8504H10.2114L9.21285 19.7244H8.76633V21.8504H7.63693V16.1177H9.44339C9.94955 16.1177 10.3524 16.2789 10.6521 16.6018C10.9517 16.9241 11.1015 17.3637 11.1015 17.9207C11.1015 18.3064 11.0273 18.6403 10.8797 18.9217C10.7306 19.2031 10.519 19.4131 10.2441 19.5509ZM32.7936 13.5784V10.4763C32.7936 10.0738 32.7092 9.76761 32.542 9.55764C32.3733 9.3484 32.1296 9.24414 31.8118 9.24414C31.4097 9.24414 30.9893 9.40673 30.5493 9.73189L30.4584 9.35132H29.5341V13.5784H30.6642V10.3027C30.8679 10.1701 31.0548 10.1037 31.2249 10.1037C31.3849 10.1037 31.4977 10.1591 31.5638 10.2692C31.63 10.38 31.6627 10.5565 31.6627 10.7985V13.5784H32.7936ZM27.612 11.4692C27.612 11.0005 27.5662 10.6556 27.4753 10.4347C27.3851 10.2145 27.2375 10.1037 27.0346 10.1037C26.831 10.1037 26.6833 10.2145 26.5924 10.4347C26.5023 10.6556 26.4564 11.0005 26.4564 11.4692C26.4564 11.938 26.5023 12.2814 26.5924 12.4987C26.6833 12.7167 26.831 12.826 27.0346 12.826C27.2375 12.826 27.3851 12.7167 27.4753 12.4987C27.5662 12.2814 27.612 11.938 27.612 11.4692ZM28.2971 9.82302C28.5938 10.2087 28.7421 10.7577 28.7421 11.4692C28.7421 12.175 28.5938 12.7203 28.2971 13.106C28.0004 13.4931 27.5793 13.6856 27.0346 13.6856C26.4906 13.6856 26.0688 13.4931 25.7714 13.106C25.4747 12.7203 25.3263 12.175 25.3263 11.4692C25.3263 10.7577 25.4747 10.2087 25.7714 9.82302C26.0688 9.43662 26.4906 9.24414 27.0346 9.24414C27.5793 9.24414 28.0004 9.43662 28.2971 9.82302ZM21.8857 13.5784H24.8151V12.7094H23.074L24.7816 10.154V9.35132H21.9512V10.2196H23.5933L21.8857 12.7757V13.5784ZM20.1687 12.627V11.8163C20.048 11.7776 19.9055 11.7587 19.7396 11.7587C19.5811 11.7587 19.4582 11.8097 19.3731 11.9118C19.2873 12.0131 19.2451 12.1619 19.2451 12.3536C19.2451 12.5198 19.2793 12.6503 19.3484 12.7466C19.4175 12.8435 19.5091 12.8909 19.6247 12.8909C19.8066 12.8909 19.9876 12.8027 20.1687 12.627ZM19.8313 13.55C19.6546 13.6404 19.4764 13.6856 19.2946 13.6856C18.9535 13.6856 18.6837 13.5748 18.4866 13.3502C18.2881 13.1279 18.1884 12.8202 18.1884 12.4287C18.1884 12.0146 18.3099 11.688 18.5521 11.4481C18.7942 11.2082 19.1215 11.0887 19.5338 11.0887C19.704 11.0887 19.9156 11.1222 20.1687 11.1878V10.8073C20.1687 10.5207 20.1316 10.3261 20.0582 10.224C19.9833 10.1227 19.8451 10.0709 19.6415 10.0709C19.3106 10.0709 18.907 10.1591 18.4292 10.3356V9.58243C18.5877 9.47817 18.7964 9.39579 19.0553 9.33528C19.3135 9.27477 19.5782 9.24414 19.8473 9.24414C20.3258 9.24414 20.6727 9.35278 20.8872 9.57077C21.1018 9.78875 21.2094 10.1372 21.2094 10.617V13.5784H20.3345L20.2356 13.1978C20.1418 13.3415 20.0065 13.4581 19.8313 13.55ZM17.3885 13.5784V10.4763C17.3885 10.0789 17.3063 9.7749 17.1412 9.56202C16.9761 9.34986 16.7391 9.24414 16.4314 9.24414C16.0467 9.24414 15.6286 9.41183 15.1777 9.74866C15.0177 9.41183 14.7428 9.24414 14.353 9.24414C13.9675 9.24414 13.5545 9.40673 13.1152 9.73189L13.0236 9.35132H12.0993V13.5784H13.2301V10.3027C13.433 10.1701 13.6127 10.1037 13.7661 10.1037C13.9152 10.1037 14.0214 10.1591 14.0846 10.2692C14.1479 10.38 14.1792 10.5535 14.1792 10.7912V13.5784H15.3093V10.4923V10.3939C15.3093 10.3603 15.3071 10.3304 15.3013 10.3027C15.5049 10.1701 15.6867 10.1037 15.846 10.1037C15.9944 10.1037 16.0998 10.1591 16.1638 10.2692C16.2264 10.38 16.2584 10.5535 16.2584 10.7912V13.5784H17.3885ZM9.82374 11.3869L9.30303 9.0123L8.79978 11.3869H9.82374ZM11.564 13.5784H10.2935L9.99609 12.2136H8.6267L8.33798 13.5784H7.12495L8.70888 7.84653H9.98809L11.564 13.5784ZM34.5455 24.4181V21.8409C33.2867 22.5284 31.3791 22.8849 29.4796 22.8849C27.58 22.8849 25.6725 22.5284 24.4143 21.8409V24.4181C24.4143 24.8767 26.1372 25.9521 29.4796 25.9521C32.822 25.9521 34.5455 24.8767 34.5455 24.4181ZM34.5455 28.8639V26.3662C33.2867 27.0537 31.3791 27.4102 29.4796 27.4102C27.58 27.4102 25.6725 27.0537 24.4143 26.3662V28.8639C24.4143 29.3225 26.1372 30.3972 29.4796 30.3972C32.822 30.3972 34.5455 29.3225 34.5455 28.8639ZM34.5455 32.833V30.812C33.2867 31.4995 31.3791 31.8553 29.4796 31.8553C27.58 31.8553 25.6725 31.4995 24.4143 30.812V32.833C24.4143 33.2915 26.1372 34.3669 29.4796 34.3669C32.822 34.3669 34.5455 33.2915 34.5455 32.833ZM24.4143 19.8928C24.4143 20.3514 26.1372 21.4268 29.4796 21.4268C32.822 21.4268 34.5455 20.3514 34.5455 19.8928C34.5455 19.4342 32.822 18.3589 29.4796 18.3589C26.1372 18.3589 24.4143 19.4342 24.4143 19.8928ZM36 19.8928V32.833C36 34.797 32.7194 35.825 29.4796 35.825C26.2397 35.825 22.9599 34.797 22.9599 32.833V19.8928C22.9599 17.9287 26.2397 16.9015 29.4796 16.9015C32.7194 16.9015 36 17.9287 36 19.8928ZM8.18454 34.5419H22.4981V36H8.18454C5.87701 36 4 34.1183 4 31.805V8.19575C4 5.88244 5.87701 4 8.18454 4H31.734C34.0415 4 35.9193 5.88244 35.9193 8.19575V17.4548H34.4648V8.19575C34.4648 6.68659 33.2401 5.45812 31.734 5.45812H8.18454C6.67842 5.45812 5.45448 6.68659 5.45448 8.19575V31.805C5.45448 33.3141 6.67842 34.5419 8.18454 34.5419Z" fill="#C925D1"/>
</svg>