<svg width="40" height="40" viewBox="0 0 40 40" fill="none" xmlns="http://www.w3.org/2000/svg">
<g id="Icon / AWS / ECS-Task">
<path id="Amazon-Elastic-Container-Service_Task_Resource-Icon_light-bg" fill-rule="evenodd" clip-rule="evenodd" d="M17.4925 29H28.7761V27.5455H17.4925V29ZM17.4925 20.0909H28.7761V18.6364H17.4925V20.0909ZM17.4925 11.1818H28.7761V9.72727H17.4925V11.1818ZM12.5672 29.4545H14.8955V27.0909H12.5672V29.4545ZM11.8507 30.9091H15.6119C16.0081 30.9091 16.3284 30.584 16.3284 30.1818V26.3636C16.3284 25.9622 16.0081 25.6364 15.6119 25.6364H11.8507C11.4546 25.6364 11.1343 25.9622 11.1343 26.3636V30.1818C11.1343 30.584 11.4546 30.9091 11.8507 30.9091ZM12.5672 20.5455H14.8955V18.1818H12.5672V20.5455ZM11.8507 22H15.6119C16.0081 22 16.3284 21.6749 16.3284 21.2727V17.4545C16.3284 17.0531 16.0081 16.7273 15.6119 16.7273H11.8507C11.4546 16.7273 11.1343 17.0531 11.1343 17.4545V21.2727C11.1343 21.6749 11.4546 22 11.8507 22ZM12.5672 11.6364H14.8955V9.27273H12.5672V11.6364ZM11.8507 13.0909H15.6119C16.0081 13.0909 16.3284 12.7658 16.3284 12.3636V8.54545C16.3284 8.144 16.0081 7.81818 15.6119 7.81818H11.8507C11.4546 7.81818 11.1343 8.144 11.1343 8.54545V12.3636C11.1343 12.7658 11.4546 13.0909 11.8507 13.0909ZM9.43284 34.5455H30.5672V5.45455H9.43284V34.5455ZM31.2836 4H8.71642C8.32024 4 8 4.32582 8 4.72727V35.2727C8 35.6749 8.32024 36 8.71642 36H31.2836C31.6798 36 32 35.6749 32 35.2727V4.72727C32 4.32582 31.6798 4 31.2836 4Z" fill="#ED7100"/>
</g>
</svg>