<svg width="40" height="40" viewBox="0 0 40 40" fill="none" xmlns="http://www.w3.org/2000/svg">
<g id="Icon / AWS / EC2-Network- LB ">
<path id="AWS-Elastic-Load-Balancing_Network-Load-Balancer_Resource-Icon_light-bg" fill-rule="evenodd" clip-rule="evenodd" d="M20.0004 35.4547C11.4786 35.4547 4.54535 28.5214 4.54535 19.9996C4.54535 11.4786 11.4786 4.54535 20.0004 4.54535C28.5214 4.54535 35.4547 11.4786 35.4547 19.9996C35.4547 28.5214 28.5214 35.4547 20.0004 35.4547ZM20.0004 3C10.6263 3 3 10.6255 3 19.9996C3 29.3737 10.6263 37 20.0004 37C29.3745 37 37 29.3737 37 19.9996C37 10.6255 29.3745 3 20.0004 3ZM23.9271 19.4533C24.2292 19.7554 24.2292 20.2438 23.9271 20.5459L21.6531 22.8222L20.5606 21.7296L21.5171 20.7723H15.9431V19.2269H21.5171L20.5606 18.2696L21.6531 17.177L23.9271 19.4533ZM26.1818 28.693H28.693V26.1818H26.1818V28.693ZM29.4657 24.6364H25.4091C24.9818 24.6364 24.6364 24.9818 24.6364 25.4091V29.4657C24.6364 29.8929 24.9818 30.2383 25.4091 30.2383H29.4657C29.8929 30.2383 30.2383 29.8929 30.2383 29.4657V25.4091C30.2383 24.9818 29.8929 24.6364 29.4657 24.6364ZM15.1055 15.9353L20.7422 12.9605L19.5314 12.6322L19.9355 11.1409L23.0409 11.9823C23.4527 12.0944 23.6953 12.5178 23.5841 12.9304L22.7426 16.0373L21.2513 15.6332L21.6284 14.2401L15.8272 17.303L15.1055 15.9353ZM26.1818 13.8182H28.693V11.307H26.1818V13.8182ZM29.4657 9.76168H25.4091C24.9818 9.76168 24.6364 10.1071 24.6364 10.5344V14.5909C24.6364 15.0182 24.9818 15.3636 25.4091 15.3636H29.4657C29.8929 15.3636 30.2383 15.0182 30.2383 14.5909V10.5344C30.2383 10.1071 29.8929 9.76168 29.4657 9.76168ZM7.90339 22.585H13.0726V17.4158H7.90339V22.585ZM13.8453 15.8697H7.13072C6.70343 15.8697 6.35804 16.2158 6.35804 16.6423V23.3577C6.35804 23.7842 6.70343 24.1303 7.13072 24.1303H13.8453C14.2725 24.1303 14.6179 23.7842 14.6179 23.3577V16.6423C14.6179 16.2158 14.2725 15.8697 13.8453 15.8697ZM23.5841 27.0688C23.6953 27.4814 23.4527 27.9048 23.0409 28.0169L19.9355 28.8591L19.5314 27.3678L20.7429 27.0395L15.1055 24.0647L15.8272 22.697L21.6284 25.7591L21.2513 24.366L22.7426 23.9619L23.5841 27.0688ZM26.1818 21.2552H28.693V18.744H26.1818V21.2552ZM29.4657 17.1987H25.4091C24.9818 17.1987 24.6364 17.5441 24.6364 17.9713V22.0279C24.6364 22.4552 24.9818 22.8006 25.4091 22.8006H29.4657C29.8929 22.8006 30.2383 22.4552 30.2383 22.0279V17.9713C30.2383 17.5441 29.8929 17.1987 29.4657 17.1987Z" fill="#8C4FFF"/>
</g>
</svg>