<svg width="40" height="40" viewBox="0 0 40 40" fill="none" xmlns="http://www.w3.org/2000/svg">
<g id="Icon / AWS / RDS-DB-Cluster">
<path id="Fill-1" fill-rule="evenodd" clip-rule="evenodd" d="M30.3193 12.0797C27.3491 12.0797 25.8182 11.2046 25.8182 10.8316V8.57779C26.9825 9.16023 28.6858 9.43758 30.3193 9.43758C32.0851 9.43758 33.5455 9.14052 34.5455 8.62888V10.8316C34.5455 11.2791 33.1331 12.0797 30.3193 12.0797ZM30.3193 15.9182C27.3491 15.9182 25.8182 15.0752 25.8182 14.7146V12.7038C26.9658 13.2724 28.6465 13.5395 30.3193 13.5395C32.1011 13.5395 33.5535 13.2541 34.5455 12.7534V14.7146C34.5455 15.135 33.0931 15.9182 30.3193 15.9182ZM30.3193 24.0818C33.0931 24.0818 34.5455 24.9015 34.5455 25.3409C34.5455 25.7803 33.0931 26.5999 30.3193 26.5999C27.3491 26.5999 25.8182 25.7175 25.8182 25.3409C25.8182 24.9643 27.3491 24.0818 30.3193 24.0818ZM30.3193 30.7018C27.3491 30.7018 25.8182 29.8267 25.8182 29.453V27.1999C26.9825 27.7823 28.6858 28.0597 30.3193 28.0597C32.0851 28.0597 33.5455 27.7626 34.5455 27.251V29.453C34.5455 29.9011 33.1331 30.7018 30.3193 30.7018ZM30.3193 34.5402C27.3491 34.5402 25.8182 33.6972 25.8182 33.3374V31.3259C26.9658 31.8944 28.6465 32.1616 30.3193 32.1616C32.1011 32.1616 33.5535 31.8762 34.5455 31.3755V33.3374C34.5455 33.7571 33.0931 34.5402 30.3193 34.5402ZM11.4495 24.5898C7.78909 24.5898 5.45455 23.5337 5.45455 22.8067V19.7756C6.904 20.6047 9.22764 20.9959 11.4495 20.9959C13.8778 20.9959 15.8473 20.566 17.0909 19.8347V22.8067C17.0909 23.5541 15.1302 24.5898 11.4495 24.5898ZM11.4495 29.4961C7.51345 29.4961 5.45455 28.3531 5.45455 27.7407V24.8343C6.904 25.6598 9.22764 26.0496 11.4495 26.0496C13.8778 26.0496 15.8473 25.6211 17.0909 24.8927V27.7407C17.0909 28.4764 15.1302 29.4961 11.4495 29.4961ZM5.45455 14.3613C6.904 15.1905 9.22764 15.5817 11.4495 15.5817C13.8778 15.5817 15.8473 15.1518 17.0909 14.4205V17.7392C17.0909 18.4932 15.1302 19.5362 11.4495 19.5362C7.78909 19.5362 5.45455 18.472 5.45455 17.7392V14.3613ZM11.4495 10.5288C15.0815 10.5288 17.0909 11.5907 17.0909 12.325C17.0909 13.06 15.0815 14.1219 11.4495 14.1219C7.51345 14.1219 5.45455 12.9527 5.45455 12.325C5.45455 11.698 7.51345 10.5288 11.4495 10.5288ZM30.3193 5.45975C33.0931 5.45975 34.5455 6.27941 34.5455 6.71879C34.5455 7.15818 33.0931 7.97783 30.3193 7.97783C27.3491 7.97783 25.8182 7.09541 25.8182 6.71879C25.8182 6.34218 27.3491 5.45975 30.3193 5.45975ZM36 6.71879C36 5.09263 33.7171 4 30.3193 4C27.4509 4 24.3636 4.85104 24.3636 6.71879C24.3636 6.76842 24.3738 6.81441 24.3782 6.86258H24.3636V14.5891L18.5455 18.6764V12.7016H18.5069C18.5309 12.579 18.5455 12.4534 18.5455 12.325C18.5455 10.3769 15.6938 9.069 11.4495 9.069C8.05673 9.069 4.42545 9.98134 4.03855 11.9717H4V27.7407C4 29.9501 7.86109 30.9558 11.4495 30.9558C15.7593 30.9558 18.5455 29.6939 18.5455 27.7407V21.4806L24.3636 25.5679V33.3374C24.3636 35.1767 27.3549 36 30.3193 36C33.7702 36 36 34.9548 36 33.3374V25.1095H35.9789C35.7709 23.6125 33.552 22.6221 30.3193 22.6221C28.1556 22.6221 25.8698 23.1067 24.8756 24.1453L19.0858 20.0785L24.9418 15.9649C25.9513 16.9312 28.1404 17.3779 30.3193 17.3779C33.7702 17.3779 36 16.3327 36 14.7146V6.86258H35.9869C35.9913 6.81441 36 6.76769 36 6.71879Z" fill="#C925D1"/>
</g>
</svg>