<svg width="40" height="40" viewBox="0 0 40 40" fill="none" xmlns="http://www.w3.org/2000/svg">
<g id="Icon / AWS / EC2- LB ">
<path id="AWS-Elastic-Load-Balancing_-Application-Load-Balancer_Resource-Icon_light-bg" fill-rule="evenodd" clip-rule="evenodd" d="M27.4872 28.017H29.2992V26.1818H27.4872V28.017ZM22.1253 28.017H23.9605V26.1818H22.1253V28.017ZM16.0402 28.017H17.8754V26.1818H16.0402V28.017ZM10.7008 28.017H12.4665V26.1818H10.7008V28.017ZM15.3641 14.4943H24.6366V9.95455H15.3641V14.4943ZM30.0719 24.6364H28.8865V22.0284C28.8865 21.6011 28.5404 21.2557 28.1138 21.2557H26.1821V18.6477C26.1821 18.2204 25.8359 17.875 25.4094 17.875H20.7731V16.0398H25.4094C25.8359 16.0398 26.1821 15.6944 26.1821 15.267V9.18182C26.1821 8.7545 25.8359 8.40909 25.4094 8.40909H14.5914C14.1641 8.40909 13.8187 8.7545 13.8187 9.18182V15.267C13.8187 15.6944 14.1641 16.0398 14.5914 16.0398H19.2277V17.875H14.5914C14.1641 17.875 13.8187 18.2204 13.8187 18.6477V21.2557H11.8869C11.4596 21.2557 11.1142 21.6011 11.1142 22.0284V24.6364H9.92734C9.50081 24.6364 9.15463 24.9818 9.15463 25.4091V28.7898C9.15463 29.2171 9.50081 29.5625 9.92734 29.5625H13.2392C13.6657 29.5625 14.0119 29.2171 14.0119 28.7898V25.4091C14.0119 24.9818 13.6657 24.6364 13.2392 24.6364H12.6596V22.8011H15.8471V24.6364H15.2675C14.8402 24.6364 14.4948 24.9818 14.4948 25.4091V28.7898C14.4948 29.2171 14.8402 29.5625 15.2675 29.5625H18.6481C19.0747 29.5625 19.4209 29.2171 19.4209 28.7898V25.4091C19.4209 24.9818 19.0747 24.6364 18.6481 24.6364H17.3925V22.0284C17.3925 21.6011 17.0463 21.2557 16.6198 21.2557H15.3641V19.4205H24.6366V21.2557H23.381C22.9537 21.2557 22.6083 21.6011 22.6083 22.0284V24.6364H21.3526C20.9253 24.6364 20.5799 24.9818 20.5799 25.4091V28.7898C20.5799 29.2171 20.9253 29.5625 21.3526 29.5625H24.7332C25.1598 29.5625 25.5059 29.2171 25.5059 28.7898V25.4091C25.5059 24.9818 25.1598 24.6364 24.7332 24.6364H24.1537V22.8011H27.3411V24.6364H26.7145C26.2872 24.6364 25.9418 24.9818 25.9418 25.4091V28.7898C25.9418 29.2171 26.2872 29.5625 26.7145 29.5625H30.0719C30.4984 29.5625 30.8446 29.2171 30.8446 28.7898V25.4091C30.8446 24.9818 30.4984 24.6364 30.0719 24.6364ZM20.0004 35.4545C11.4782 35.4545 4.54542 28.5216 4.54542 20C4.54542 11.4784 11.4782 4.54545 20.0004 4.54545C28.5218 4.54545 35.4546 11.4784 35.4546 20C35.4546 28.5216 28.5218 35.4545 20.0004 35.4545ZM20.0004 3C10.6259 3 3 10.626 3 20C3 29.374 10.6259 37 20.0004 37C29.3734 37 37 29.374 37 20C37 10.626 29.3734 3 20.0004 3Z" fill="#8C4FFF"/>
</g>
</svg>