<svg width="40" height="40" viewBox="0 0 40 40" fill="none" xmlns="http://www.w3.org/2000/svg">
<path fill-rule="evenodd" clip-rule="evenodd" d="M32.3823 21.6419L32.551 20.3657C33.8883 21.1964 34.3069 21.6791 34.43 21.8844C34.0729 21.9929 33.3526 21.8945 32.3823 21.6419ZM18.989 16.9766C18.989 16.9386 19.0194 16.9068 19.0573 16.9068C19.0687 16.9068 19.0756 16.9138 19.0855 16.9185L19.033 17.0269C19.0087 17.02 18.989 17.006 18.989 16.9766ZM29.3575 32.9375C29.3529 32.9724 29.3506 33.0065 29.3506 33.0413C29.3506 33.1591 29.0642 33.6116 27.7899 34.1253C27.2216 34.3539 26.5507 34.56 25.7947 34.7367C23.845 35.1969 21.4515 35.4503 19.0566 35.4503C12.6528 35.4503 8.76483 33.7774 8.76483 33.0413C8.76483 33.0065 8.76255 32.9724 8.75799 32.9375L5.85396 10.9444C6.04012 11.0552 6.24147 11.1614 6.45118 11.2644C6.50361 11.2908 6.56211 11.3156 6.61682 11.3412C6.80525 11.4295 7.00129 11.5155 7.20492 11.5984C7.28698 11.6317 7.3698 11.6643 7.45338 11.6968C7.66689 11.7789 7.88724 11.8572 8.11518 11.9331C8.17597 11.9533 8.23447 11.975 8.29678 11.9951C8.58703 12.0881 8.88716 12.1764 9.19717 12.2609C9.27543 12.2818 9.35673 12.3012 9.43727 12.3221C9.68041 12.3856 9.92963 12.4461 10.1842 12.5034C10.2852 12.5267 10.3855 12.5491 10.4881 12.5716C10.7708 12.632 11.058 12.6894 11.3497 12.7444C11.4082 12.7545 11.4637 12.7669 11.5222 12.7769C11.8717 12.8397 12.2288 12.897 12.5905 12.9505C12.6878 12.9652 12.7866 12.9776 12.8846 12.9916C13.1627 13.0303 13.4423 13.0667 13.7257 13.1C13.8374 13.1132 13.9483 13.1264 14.06 13.1388C14.3981 13.176 14.7385 13.2093 15.082 13.2387C15.1222 13.2426 15.1617 13.2465 15.202 13.2504C15.5834 13.2821 15.9679 13.3077 16.3539 13.3294C16.4618 13.3356 16.5689 13.341 16.6776 13.3464C16.9694 13.3612 17.2611 13.3736 17.5529 13.3829C17.6676 13.3867 17.7808 13.3906 17.8956 13.3929C18.2831 13.4022 18.6706 13.4092 19.0566 13.4092C19.4426 13.4092 19.8293 13.4022 20.2176 13.3929C20.3323 13.3906 20.4455 13.3867 20.5595 13.3829C20.852 13.3736 21.1446 13.3612 21.4363 13.3464C21.5442 13.341 21.6514 13.3356 21.7593 13.3294C22.1452 13.3077 22.5305 13.2821 22.9127 13.2504C22.9514 13.2465 22.9886 13.2426 23.0266 13.2395C23.3724 13.2101 23.715 13.176 24.0547 13.138C24.1664 13.1264 24.2758 13.1132 24.386 13.1008C24.6716 13.0667 24.9543 13.0303 25.2339 12.9908C25.3297 12.9768 25.4262 12.9652 25.5219 12.9505C25.8851 12.897 26.2437 12.8397 26.5948 12.7769C26.6487 12.7669 26.7011 12.7552 26.7558 12.7459C27.0522 12.6902 27.3432 12.632 27.6296 12.5708C27.7299 12.5491 27.8287 12.5267 27.9275 12.5042C28.1851 12.4461 28.4373 12.3849 28.6835 12.3206C28.7602 12.3004 28.8393 12.2818 28.916 12.2609C29.2268 12.1764 29.5292 12.0881 29.8202 11.9943C29.8795 11.975 29.9349 11.9548 29.9934 11.9355C30.2244 11.858 30.4486 11.7789 30.6643 11.6953C30.7464 11.6643 30.8269 11.6317 30.9067 11.6C31.1134 11.5163 31.3125 11.4287 31.5024 11.3388C31.5549 11.314 31.6111 11.2908 31.6628 11.2652C31.8732 11.1622 32.0746 11.0552 32.2615 10.9444L30.9075 21.201C28.1562 20.3006 24.2933 18.668 20.6378 16.8952C20.5945 16.0406 19.9061 15.3572 19.0573 15.3572C18.182 15.3572 17.4693 16.0832 17.4693 16.9766C17.4693 17.8707 18.182 18.5968 19.0573 18.5968C19.4008 18.5968 19.7176 18.4829 19.9775 18.293C23.2546 19.8954 27.4366 21.7868 30.7023 22.7484L29.3575 32.9375ZM19.0566 4.54968C26.9374 4.54968 32.4902 7.03847 32.5935 8.42001L32.5738 8.5804C32.5593 8.62767 32.5297 8.67726 32.5046 8.72607C32.4841 8.76559 32.4697 8.80511 32.4423 8.84462C32.4081 8.89421 32.3587 8.9438 32.3132 8.99417C32.2752 9.03446 32.2448 9.07552 32.2007 9.11659C32.146 9.16696 32.0776 9.21732 32.013 9.26768C31.9583 9.3103 31.9112 9.35214 31.8504 9.39398C31.7775 9.44435 31.6909 9.49471 31.6073 9.54508C31.5374 9.58769 31.4728 9.63108 31.3945 9.6737C31.3056 9.72252 31.2023 9.77211 31.1035 9.82015C31.0154 9.86431 30.9341 9.9077 30.8383 9.95109C30.7327 9.99913 30.6134 10.0456 30.4987 10.0937C30.3954 10.1363 30.2966 10.1804 30.1849 10.2231C30.0626 10.2696 29.9273 10.3153 29.7966 10.3602C29.6766 10.4021 29.5634 10.4454 29.4372 10.4865C29.3005 10.5299 29.1508 10.5725 29.0064 10.6159C28.8704 10.6554 28.7412 10.6973 28.5992 10.736C28.4487 10.7778 28.2861 10.8158 28.1288 10.8553C27.9776 10.8941 27.8317 10.9344 27.6729 10.9708C27.5096 11.008 27.3325 11.0436 27.1623 11.0793C26.9967 11.1149 26.8371 11.1513 26.6654 11.1846C26.4815 11.2203 26.2863 11.2521 26.0956 11.2854C25.9223 11.3156 25.7552 11.3481 25.5774 11.376C25.3752 11.4078 25.1617 11.4349 24.9528 11.4644C24.7719 11.4892 24.5972 11.5178 24.4118 11.5403C24.1945 11.5674 23.965 11.5891 23.7401 11.6139C23.5509 11.634 23.3678 11.6565 23.1733 11.6751C22.9271 11.6976 22.6688 11.7139 22.415 11.7332C22.2319 11.7464 22.0541 11.7634 21.8664 11.7751C21.5777 11.7929 21.2775 11.8037 20.9789 11.8154C20.8156 11.8223 20.6583 11.8332 20.4926 11.8378C20.0238 11.8518 19.5444 11.8595 19.0566 11.8595C18.5673 11.8595 18.0886 11.8518 17.6205 11.8378C17.4602 11.8332 17.3075 11.8223 17.1494 11.8161C16.8463 11.8045 16.5401 11.7929 16.2468 11.7751C16.0675 11.7642 15.8995 11.7479 15.7248 11.7356C15.4611 11.7154 15.1944 11.6984 14.9391 11.6751C14.756 11.6573 14.5828 11.6364 14.4042 11.617C14.1687 11.5914 13.9286 11.569 13.7006 11.5403C13.5266 11.5194 13.3633 11.4923 13.1931 11.469C12.9719 11.438 12.747 11.4093 12.5351 11.376C12.3679 11.3497 12.2121 11.3195 12.0503 11.2916C11.8489 11.2559 11.6415 11.2226 11.447 11.1846C11.2844 11.1529 11.1339 11.118 10.9774 11.0855C10.7973 11.0467 10.6119 11.0103 10.4395 10.9708C10.2898 10.9359 10.1515 10.8979 10.0079 10.8615C9.84149 10.8197 9.67053 10.7786 9.51325 10.736C9.37876 10.6988 9.25567 10.6585 9.1265 10.6206C8.97454 10.5756 8.81802 10.5314 8.67593 10.4857C8.55436 10.4462 8.44494 10.4052 8.33021 10.3649C8.19496 10.3176 8.0544 10.2703 7.92827 10.2231C7.82113 10.1812 7.72691 10.1394 7.62586 10.0983C7.50809 10.0487 7.38424 10.0007 7.27558 9.95032C7.18288 9.90848 7.1031 9.86586 7.01724 9.82325C6.91619 9.77366 6.81057 9.72329 6.72015 9.6737C6.64265 9.63108 6.57959 9.58847 6.50968 9.54663C6.4261 9.49549 6.33796 9.44512 6.26426 9.39398C6.20424 9.35214 6.15637 9.3103 6.10318 9.26846C6.0386 9.21809 5.96869 9.16696 5.91475 9.11659C5.86992 9.07552 5.83876 9.03446 5.80229 8.99417C5.7567 8.9438 5.70731 8.89421 5.67312 8.84462C5.64501 8.80511 5.63057 8.76559 5.61082 8.72607C5.58498 8.67726 5.55459 8.62767 5.54167 8.5804L5.52116 8.42001C5.62525 7.03847 11.1773 4.54968 19.0566 4.54968ZM35.9762 21.7186C35.8152 20.8314 34.813 19.8915 32.7706 18.7006L34.0699 8.86322V8.86089V8.86012L34.1078 8.55948C34.1124 8.52616 34.1147 8.49207 34.1147 8.45875C34.1147 5.24239 26.1791 3 19.0566 3C11.9356 3 4 5.24239 4 8.45875C4 8.49207 4.00228 8.52616 4.00684 8.55948L4.04559 8.86012V8.86089V8.86322L7.24595 33.101C7.34625 35.94 14.522 37 19.0566 37C21.5632 37 24.0775 36.7335 26.1366 36.2476C26.9655 36.0531 27.7094 35.8238 28.3484 35.5665C29.9889 34.9048 30.8361 34.0758 30.8695 33.101L32.1855 23.1296C32.9043 23.2845 33.5585 23.3791 34.1025 23.3791C34.8358 23.3791 35.3851 23.221 35.6822 22.8592C35.9466 22.5376 36.0515 22.1324 35.9762 21.7186ZM11.3353 21.9294L13.3078 18.5766L15.2803 21.9294H11.3353ZM17.2839 23.0854C17.4192 22.8429 17.4154 22.5446 17.274 22.3052L13.959 16.6721C13.6847 16.2056 12.9302 16.2056 12.6559 16.6721L9.34153 22.3052C9.2002 22.5454 9.19641 22.8429 9.33165 23.0862C9.4669 23.3295 9.71916 23.479 9.9927 23.479H16.6229C16.8964 23.479 17.1487 23.3295 17.2839 23.0854ZM24.2462 24.1547C25.4717 24.1547 26.4694 25.1798 26.4694 26.4405C26.4694 27.7004 25.4717 28.7263 24.2462 28.7263C23.0206 28.7263 22.0229 27.7004 22.0229 26.4405C22.0229 25.1798 23.0206 24.1547 24.2462 24.1547ZM24.2462 30.2759C26.3098 30.2759 27.989 28.5558 27.989 26.4405C27.989 24.3259 26.3098 22.605 24.2462 22.605C22.1825 22.605 20.5033 24.3259 20.5033 26.4405C20.5033 28.5558 22.1825 30.2759 24.2462 30.2759ZM12.8131 31.394H16.534V27.5361H12.8131V31.394ZM17.2938 25.9856H12.0526C11.6324 25.9856 11.2927 26.3328 11.2927 26.7605V32.1689C11.2927 32.5974 11.6324 32.9437 12.0526 32.9437H17.2938C17.7132 32.9437 18.0536 32.5974 18.0536 32.1689V26.7605C18.0536 26.3328 17.7132 25.9856 17.2938 25.9856Z" fill="#7AA116"/>
</svg>