<svg width="40" height="40" viewBox="0 0 64 64" fill="none" xmlns="http://www.w3.org/2000/svg">
<circle cx="32" cy="32" r="32" fill="#0277BD"/>
<path d="M9.45068 22.176H54.5493V48.624C54.5493 49.0236 54.3906 49.4068 54.1081 49.6894C53.8255 49.972 53.4423 50.1307 53.0427 50.1307H10.9574C10.5578 50.1307 10.1745 49.972 9.89198 49.6894C9.60942 49.4068 9.45068 49.0236 9.45068 48.624V22.176Z" fill="url(#paint0_linear_115_214)"/>
<path d="M10.9653 13.8666H53.0346C53.4342 13.8666 53.8174 14.0254 54.1 14.3079C54.3826 14.5905 54.5413 14.9737 54.5413 15.3733V22.1733H9.45862V15.376C9.45827 15.1779 9.49698 14.9817 9.57254 14.7986C9.6481 14.6155 9.75903 14.4491 9.89897 14.3089C10.0389 14.1687 10.2051 14.0575 10.3881 13.9816C10.5711 13.9057 10.7672 13.8666 10.9653 13.8666Z" fill="#773ADC"/>
<path d="M24.0907 25.16H15.7307C15.3271 25.16 15 25.4871 15 25.8906V45.584C15 45.9875 15.3271 46.3146 15.7307 46.3146H24.0907C24.4942 46.3146 24.8213 45.9875 24.8213 45.584V25.8906C24.8213 25.4871 24.4942 25.16 24.0907 25.16Z" fill="white"/>
<path opacity="0.75" d="M36.1787 25.16H27.8187C27.4151 25.16 27.088 25.4871 27.088 25.8906V45.584C27.088 45.9875 27.4151 46.3146 27.8187 46.3146H36.1787C36.5822 46.3146 36.9093 45.9875 36.9093 45.584V25.8906C36.9093 25.4871 36.5822 25.16 36.1787 25.16Z" fill="white"/>
<path opacity="0.5" d="M48.2694 25.16H39.9094C39.5058 25.16 39.1787 25.4871 39.1787 25.8906V45.584C39.1787 45.9875 39.5058 46.3146 39.9094 46.3146H48.2694C48.6729 46.3146 49 45.9875 49 45.584V25.8906C49 25.4871 48.6729 25.16 48.2694 25.16Z" fill="white"/>
<defs>
<linearGradient id="paint0_linear_115_214" x1="32" y1="50.1307" x2="32" y2="22.176" gradientUnits="userSpaceOnUse">
<stop stop-color="#A67AF4"/>
<stop offset="0.775" stop-color="#B796F9"/>
</linearGradient>
</defs>
</svg>
