<svg width="40" height="40" viewBox="0 0 64 64" fill="none" xmlns="http://www.w3.org/2000/svg">
<circle cx="32" cy="32" r="32" fill="#0277BD"/>
<path d="M22.7734 42.9467L21.2107 44.5147C21.0772 44.6477 20.8965 44.7224 20.708 44.7224C20.5196 44.7224 20.3388 44.6477 20.2054 44.5147L8.59469 32.9413C8.46222 32.8093 8.35711 32.6524 8.28539 32.4797C8.21367 32.3069 8.17676 32.1217 8.17676 31.9347C8.17676 31.7476 8.21367 31.5624 8.28539 31.3897C8.35711 31.2169 8.46222 31.06 8.59469 30.928L10.1627 29.3547L22.7814 41.936C22.8476 42.0021 22.9002 42.0807 22.9361 42.1672C22.972 42.2537 22.9904 42.3464 22.9904 42.44C22.9904 42.5336 22.972 42.6263 22.9361 42.7128C22.9002 42.7993 22.8476 42.8779 22.7814 42.944L22.7734 42.9467Z" fill="#50E6FF"/>
<path d="M20.968 19.48L22.5413 21.048C22.6076 21.1142 22.6602 21.1927 22.6961 21.2792C22.732 21.3657 22.7504 21.4584 22.7504 21.552C22.7504 21.6457 22.732 21.7384 22.6961 21.8248C22.6602 21.9113 22.6076 21.9899 22.5413 22.056L10.1493 34.4854L8.57601 32.9147C8.44377 32.7829 8.33879 32.6263 8.26708 32.4539C8.19537 32.2815 8.15833 32.0966 8.15808 31.9099C8.15783 31.7232 8.19438 31.5382 8.26563 31.3657C8.33689 31.1931 8.44145 31.0362 8.57335 30.904L19.968 19.4774C20.1014 19.3451 20.2816 19.2709 20.4693 19.2709C20.6571 19.2709 20.8373 19.3451 20.9707 19.4774L20.968 19.48Z" fill="#1490DF"/>
<path d="M53.84 29.3654L55.408 30.9387C55.5399 31.0709 55.6445 31.2277 55.7157 31.4003C55.787 31.5729 55.8235 31.7579 55.8233 31.9446C55.823 32.1313 55.786 32.3161 55.7143 32.4885C55.6426 32.661 55.5376 32.8175 55.4053 32.9494L43.7947 44.5227C43.6612 44.6557 43.4804 44.7304 43.292 44.7304C43.1036 44.7304 42.9228 44.6557 42.7893 44.5227L41.2267 42.9574C41.0936 42.8239 41.0189 42.6431 41.0189 42.4547C41.0189 42.2662 41.0936 42.0855 41.2267 41.952L53.8453 29.3707L53.84 29.3654Z" fill="#50E6FF"/>
<path d="M55.4187 32.9067L53.8453 34.4774L41.4507 22.0454C41.3176 21.9119 41.2429 21.7311 41.2429 21.5427C41.2429 21.3542 41.3176 21.1735 41.4507 21.04L43.024 19.472C43.0901 19.4057 43.1687 19.3532 43.2552 19.3173C43.3417 19.2814 43.4344 19.2629 43.528 19.2629C43.6216 19.2629 43.7143 19.2814 43.8008 19.3173C43.8873 19.3532 43.9659 19.4057 44.032 19.472L55.4267 30.9014C55.6926 31.1678 55.8419 31.5289 55.8419 31.9054C55.8419 32.2818 55.6926 32.6429 55.4267 32.9094L55.4187 32.9067Z" fill="#1490DF"/>
<path d="M30.5574 34.4H20.9867C20.8524 34.4051 20.7214 34.3575 20.6217 34.2673C20.5221 34.1771 20.4616 34.0515 20.4534 33.9173C20.4534 33.8478 20.4699 33.7793 20.5014 33.7173L31.976 11.0133C32.0249 10.9253 32.097 10.8524 32.1844 10.8025C32.2719 10.7527 32.3714 10.7278 32.472 10.7307H43.792C43.9264 10.7255 44.0574 10.7732 44.157 10.8634C44.2567 10.9536 44.3171 11.0792 44.3254 11.2133C44.3244 11.3101 44.2916 11.4038 44.232 11.48L30.7574 29.2427H43.8987C44.033 29.2375 44.164 29.2852 44.2637 29.3754C44.3634 29.4656 44.4238 29.5912 44.432 29.7253C44.43 29.8477 44.3802 29.9644 44.2934 30.0507L22.456 52.768C22.2507 52.8907 20.792 54.1013 21.5067 52.264L30.5574 34.4Z" fill="url(#paint0_linear_115_211)"/>
<defs>
<linearGradient id="paint0_linear_115_211" x1="32.3336" y1="52.9521" x2="32.3336" y2="10.3954" gradientUnits="userSpaceOnUse">
<stop stop-color="#FEA11B"/>
<stop offset="0.284" stop-color="#FEA51A"/>
<stop offset="0.547" stop-color="#FEB018"/>
<stop offset="0.8" stop-color="#FFC314"/>
<stop offset="1" stop-color="#FFD70F"/>
</linearGradient>
</defs>
</svg>
