<svg width="40" height="40" viewBox="0 0 64 64" fill="none" xmlns="http://www.w3.org/2000/svg">
<circle cx="32" cy="32" r="32" fill="#0277BD"/>
<path d="M9.33337 23.4347H54.6667V48.7094C54.6667 49.1111 54.5071 49.4963 54.2231 49.7804C53.939 50.0644 53.5538 50.224 53.152 50.224H10.848C10.4463 50.224 10.0611 50.0644 9.77701 49.7804C9.49295 49.4963 9.33337 49.1111 9.33337 48.7094V23.4347Z" fill="url(#paint0_linear_204_120)"/>
<path d="M10.856 13.776H53.144C53.5458 13.776 53.931 13.9356 54.2151 14.2197C54.4991 14.5037 54.6587 14.889 54.6587 15.2907V23.4347H9.33337V15.2907C9.33337 15.0911 9.37281 14.8935 9.44943 14.7092C9.52605 14.5249 9.63834 14.3576 9.77983 14.2168C9.92133 14.0761 10.0893 13.9647 10.2739 13.889C10.4586 13.8134 10.6565 13.775 10.856 13.776Z" fill="#0078D4"/>
<path opacity="0.9" d="M23.1227 26.9893H14.8987C14.4819 26.9893 14.144 27.3272 14.144 27.744V31.168C14.144 31.5848 14.4819 31.9227 14.8987 31.9227H23.1227C23.5395 31.9227 23.8774 31.5848 23.8774 31.168V27.744C23.8774 27.3272 23.5395 26.9893 23.1227 26.9893Z" fill="white"/>
<path opacity="0.9" d="M36.1786 26.92H27.9546C27.5378 26.92 27.2 27.2579 27.2 27.6746V31.0986C27.2 31.5154 27.5378 31.8533 27.9546 31.8533H36.1786C36.5954 31.8533 36.9333 31.5154 36.9333 31.0986V27.6746C36.9333 27.2579 36.5954 26.92 36.1786 26.92Z" fill="white"/>
<path opacity="0.9" d="M49.2346 26.92H41.0106C40.5939 26.92 40.256 27.2579 40.256 27.6746V31.0986C40.256 31.5154 40.5939 31.8533 41.0106 31.8533H49.2346C49.6514 31.8533 49.9893 31.5154 49.9893 31.0986V27.6746C49.9893 27.2579 49.6514 26.92 49.2346 26.92Z" fill="white"/>
<path opacity="0.9" d="M23.2666 34.0453H15.0426C14.6258 34.0453 14.288 34.3832 14.288 34.8V38.224C14.288 38.6408 14.6258 38.9787 15.0426 38.9787H23.2666C23.6834 38.9787 24.0213 38.6408 24.0213 38.224V34.8C24.0213 34.3832 23.6834 34.0453 23.2666 34.0453Z" fill="white"/>
<path d="M36.3227 33.976H28.0987C27.6819 33.976 27.344 34.3139 27.344 34.7307V38.1547C27.344 38.5715 27.6819 38.9093 28.0987 38.9093H36.3227C36.7395 38.9093 37.0773 38.5715 37.0773 38.1547V34.7307C37.0773 34.3139 36.7395 33.976 36.3227 33.976Z" fill="#FFD400"/>
<path d="M49.3787 33.976H41.1547C40.7379 33.976 40.4 34.3139 40.4 34.7307V38.1547C40.4 38.5715 40.7379 38.9093 41.1547 38.9093H49.3787C49.7955 38.9093 50.1334 38.5715 50.1334 38.1547V34.7307C50.1334 34.3139 49.7955 33.976 49.3787 33.976Z" fill="#FFD400"/>
<path d="M23.2666 41.1707H15.0426C14.6258 41.1707 14.288 41.5085 14.288 41.9253V45.3493C14.288 45.7661 14.6258 46.104 15.0426 46.104H23.2666C23.6834 46.104 24.0213 45.7661 24.0213 45.3493V41.9253C24.0213 41.5085 23.6834 41.1707 23.2666 41.1707Z" fill="#FFD400"/>
<path d="M36.3227 41.1013H28.0987C27.6819 41.1013 27.344 41.4392 27.344 41.856V45.28C27.344 45.6968 27.6819 46.0347 28.0987 46.0347H36.3227C36.7395 46.0347 37.0773 45.6968 37.0773 45.28V41.856C37.0773 41.4392 36.7395 41.1013 36.3227 41.1013Z" fill="#FFD400"/>
<path d="M49.3787 41.1013H41.1547C40.7379 41.1013 40.4 41.4392 40.4 41.856V45.28C40.4 45.6968 40.7379 46.0347 41.1547 46.0347H49.3787C49.7955 46.0347 50.1334 45.6968 50.1334 45.28V41.856C50.1334 41.4392 49.7955 41.1013 49.3787 41.1013Z" fill="#FFD400"/>
<defs>
<linearGradient id="paint0_linear_204_120" x1="32" y1="50.224" x2="32" y2="23.4347" gradientUnits="userSpaceOnUse">
<stop stop-color="#0078D4"/>
<stop offset="0.502" stop-color="#4093E6"/>
<stop offset="0.775" stop-color="#5EA0EF"/>
</linearGradient>
</defs>
</svg>
