<svg width="40" height="40" viewBox="0 0 40 40" fill="none" xmlns="http://www.w3.org/2000/svg">
<path d="M14.5076 3.00049H24.7222L14.1187 33.9099C14.0098 34.2277 13.8024 34.5038 13.5255 34.6993C13.2487 34.8949 12.9165 35 12.5757 35H4.62643C4.36826 34.9999 4.11381 34.9394 3.8841 34.8235C3.65438 34.7076 3.456 34.5396 3.30533 34.3333C3.1547 34.127 3.05618 33.8884 3.01793 33.6372C2.97969 33.386 3.00281 33.1295 3.08539 32.8888L12.9646 4.0903C13.0735 3.77259 13.281 3.49651 13.5578 3.30092C13.8346 3.10533 14.1668 3.00058 14.5076 3.00049Z" fill="url(#paint0_linear_11430_35069)"/>
<path d="M29.2654 23.7059H13.1896C13.0401 23.7056 12.894 23.7501 12.7703 23.8335C12.6467 23.917 12.5512 24.0355 12.4963 24.1737C12.4415 24.3119 12.4298 24.4633 12.4628 24.6081C12.4959 24.753 12.5721 24.8846 12.6815 24.9858L23.0114 34.5663C23.3121 34.845 23.7082 35 24.1195 35H33.2222L29.2654 23.7059Z" fill="#0078D4"/>
<path d="M14.4769 3.00001C14.1332 2.99874 13.7981 3.10587 13.5206 3.30576C13.243 3.50565 13.0375 3.78782 12.9341 4.11107L3.09513 32.8626C3.00729 33.1041 2.97972 33.363 3.01476 33.6172C3.04979 33.8715 3.14639 34.1137 3.29639 34.3234C3.44639 34.533 3.64538 34.704 3.87653 34.8217C4.10768 34.9395 4.36418 35.0007 4.62435 35H12.7588C13.0618 34.9466 13.3449 34.8149 13.5794 34.6182C13.8138 34.4216 13.9911 34.1671 14.0932 33.8808L16.0552 28.1775L23.0639 34.6248C23.3575 34.8644 23.7259 34.9969 24.107 35L33.2222 35L29.2244 23.7323L17.5704 23.735L24.7031 3.00001H14.4769Z" fill="url(#paint1_linear_11430_35069)"/>
<path d="M27.1323 4.08832C27.0246 3.77106 26.8194 3.49538 26.5456 3.30014C26.2719 3.10489 25.9433 2.99991 25.6063 3H14.3333C14.6703 3.00004 14.9987 3.10506 15.2724 3.3003C15.5462 3.49554 15.7513 3.77114 15.8591 4.08832L25.6424 32.8881C25.7243 33.1288 25.7473 33.3854 25.7095 33.6367C25.6717 33.888 25.5742 34.1267 25.4251 34.3331C25.276 34.5396 25.0795 34.7077 24.8519 34.8237C24.6244 34.9396 24.3723 35.0001 24.1166 35H35.39C35.6457 34.9998 35.8976 34.9392 36.125 34.8232C36.3524 34.7071 36.5488 34.539 36.6978 34.3326C36.8469 34.1263 36.9444 33.8877 36.9822 33.6365C37.0201 33.3853 36.9972 33.1288 36.9156 32.8881L27.1323 4.08832Z" fill="url(#paint2_linear_11430_35069)"/>
<defs>
<linearGradient id="paint0_linear_11430_35069" x1="26.8393" y1="5.37178" x2="19.8442" y2="38.2481" gradientUnits="userSpaceOnUse">
<stop stop-color="#114A8B"/>
<stop offset="1" stop-color="#0669BC"/>
</linearGradient>
<linearGradient id="paint1_linear_11430_35069" x1="23.8081" y1="19.7401" x2="21.1371" y2="20.7701" gradientUnits="userSpaceOnUse">
<stop stop-opacity="0.3"/>
<stop offset="0.071" stop-opacity="0.2"/>
<stop offset="0.321" stop-opacity="0.1"/>
<stop offset="0.623" stop-opacity="0.05"/>
<stop offset="1" stop-opacity="0"/>
</linearGradient>
<linearGradient id="paint2_linear_11430_35069" x1="19.8445" y1="4.47193" x2="31.2447" y2="35.0421" gradientUnits="userSpaceOnUse">
<stop stop-color="#3CCBF4"/>
<stop offset="1" stop-color="#2892DF"/>
</linearGradient>
</defs>
</svg>