<svg width="40" height="40" viewBox="0 0 64 64" fill="none" xmlns="http://www.w3.org/2000/svg">
<circle cx="32" cy="32" r="32" fill="#0277BD"/>
<path d="M9.45068 22.176H54.5493V48.624C54.5493 49.0236 54.3906 49.4068 54.1081 49.6894C53.8255 49.972 53.4423 50.1307 53.0427 50.1307H10.9574C10.5578 50.1307 10.1745 49.972 9.89198 49.6894C9.60942 49.4068 9.45068 49.0236 9.45068 48.624V22.176Z" fill="url(#paint0_linear_204_123)"/>
<path d="M10.9653 13.8666H53.0346C53.4342 13.8666 53.8174 14.0254 54.1 14.3079C54.3826 14.5905 54.5413 14.9737 54.5413 15.3733V22.1733H9.45862V15.376C9.45827 15.1779 9.49698 14.9817 9.57254 14.7986C9.6481 14.6155 9.75903 14.4491 9.89897 14.3089C10.0389 14.1687 10.2051 14.0575 10.3881 13.9816C10.5711 13.9057 10.7672 13.8666 10.9653 13.8666Z" fill="#0078D4"/>
<path d="M44.0747 27.592H33.024C32.9066 27.5917 32.7918 27.5575 32.6934 27.4933L29.5387 25.3947C29.4421 25.3286 29.3278 25.2933 29.2107 25.2933H19.9254C19.7684 25.2933 19.6178 25.3557 19.5068 25.4667C19.3958 25.5777 19.3334 25.7283 19.3334 25.8853V45.392C19.333 45.4698 19.3481 45.547 19.3777 45.619C19.4074 45.691 19.4509 45.7564 19.506 45.8114C19.561 45.8664 19.6264 45.91 19.6984 45.9397C19.7704 45.9693 19.8475 45.9844 19.9254 45.984H44.0747C44.1526 45.9844 44.2297 45.9693 44.3017 45.9397C44.3737 45.91 44.4391 45.8664 44.4941 45.8114C44.5491 45.7564 44.5927 45.691 44.6224 45.619C44.652 45.547 44.6671 45.4698 44.6667 45.392V28.184C44.6667 28.027 44.6043 27.8764 44.4933 27.7654C44.3823 27.6544 44.2317 27.592 44.0747 27.592Z" fill="#F78D1E"/>
<path d="M27.152 26.4266H21.88C21.746 26.4266 21.6373 26.5353 21.6373 26.6693V27.336C21.6373 27.47 21.746 27.5786 21.88 27.5786H27.152C27.286 27.5786 27.3947 27.47 27.3947 27.336V26.6693C27.3947 26.5353 27.286 26.4266 27.152 26.4266Z" fill="white"/>
<path d="M22.624 26.4266H21.8027C21.7114 26.4266 21.6373 26.5007 21.6373 26.592V27.4133C21.6373 27.5046 21.7114 27.5786 21.8027 27.5786H22.624C22.7153 27.5786 22.7893 27.5046 22.7893 27.4133V26.592C22.7893 26.5007 22.7153 26.4266 22.624 26.4266Z" fill="#D15900"/>
<path d="M44.0747 27.5653H31.9387C31.8613 27.5642 31.7844 27.5784 31.7125 27.6073C31.6406 27.6361 31.5752 27.6789 31.52 27.7333L29.568 29.6826C29.5135 29.7383 29.4483 29.7826 29.3764 29.8128C29.3045 29.843 29.2274 29.8586 29.1494 29.8586H19.9254C19.8478 29.8583 19.7708 29.8733 19.699 29.9027C19.6272 29.9322 19.5619 29.9756 19.5069 30.0303C19.4519 30.0851 19.4083 30.1502 19.3785 30.2218C19.3487 30.2935 19.3334 30.3704 19.3334 30.448V45.3573C19.333 45.4352 19.3481 45.5123 19.3777 45.5843C19.4074 45.6563 19.4509 45.7217 19.506 45.7767C19.561 45.8317 19.6264 45.8753 19.6984 45.905C19.7704 45.9346 19.8475 45.9497 19.9254 45.9493H44.0747C44.1526 45.9497 44.2297 45.9346 44.3017 45.905C44.3737 45.8753 44.4391 45.8317 44.4941 45.7767C44.5491 45.7217 44.5927 45.6563 44.6224 45.5843C44.652 45.5123 44.6671 45.4352 44.6667 45.3573V28.1546C44.6667 28.077 44.6514 28.0002 44.6216 27.9285C44.5918 27.8568 44.5482 27.7917 44.4932 27.737C44.4382 27.6822 44.3729 27.6389 44.3011 27.6094C44.2292 27.5799 44.1523 27.565 44.0747 27.5653Z" fill="white"/>
<defs>
<linearGradient id="paint0_linear_204_123" x1="32" y1="50.1307" x2="32" y2="22.176" gradientUnits="userSpaceOnUse">
<stop stop-color="#32BEDD"/>
<stop offset="0.775" stop-color="#32D4F5"/>
</linearGradient>
</defs>
</svg>
