<svg
  width="24"
  height="24"
  viewBox="0 0 24 24"
  fill="none"
  xmlns="http://www.w3.org/2000/svg"
>
  <g>
    <path
      fill-rule="evenodd"
      clip-rule="evenodd"
      d="M4.14664 9.1535C4.16863 4.83077 7.67719 1.33711 12 1.3335C16.3254 1.33344 19.838 4.82817 19.86 9.1535C19.86 12.2606 18.1203 14.8564 16.8476 16.7554L16.84 16.7668L16.6066 17.1202C15.3329 18.9658 13.9667 20.7458 12.5133 22.4535L12.0066 23.0468L11.5 22.4535C10.0464 20.746 8.68016 18.9659 7.40664 17.1202L7.1733 16.7735C5.8933 14.8735 4.14664 12.2668 4.14664 9.1535ZM15.4866 16.3535L15.7266 16.0002C16.9066 14.2668 18.52 11.8602 18.52 9.12683C18.52 6.79746 17.2773 4.64503 15.26 3.48034C13.2427 2.31566 10.7573 2.31566 8.73997 3.48034C6.72268 4.64503 5.47997 6.79746 5.47997 9.12683C5.47997 11.824 7.08859 14.2232 8.2675 15.9816L8.27997 16.0002L8.5133 16.3535C9.65997 18.0735 11.2133 20.0002 12 20.9535C12.82 20.0002 14.34 18.0735 15.4866 16.3535ZM12 4.48016C9.89024 4.48016 8.17997 6.19043 8.17997 8.30016C8.17997 10.4099 9.89024 12.1202 12 12.1202C14.1097 12.1202 15.82 10.4099 15.82 8.30016C15.82 7.28704 15.4175 6.3154 14.7011 5.59901C13.9847 4.88263 13.0131 4.48016 12 4.48016ZM9.5133 8.30016C9.5133 9.67351 10.6266 10.7868 12 10.7868V10.7802C13.3707 10.7802 14.483 9.67091 14.4866 8.30016C14.4866 6.92681 13.3733 5.8135 12 5.8135C10.6266 5.8135 9.5133 6.92681 9.5133 8.30016Z"
      fill="#B2C0C9"
    />
  </g>
</svg>
