<svg
  width="24"
  height="24"
  viewBox="0 0 24 24"
  fill="none"
  xmlns="http://www.w3.org/2000/svg"
>
  <path
    fill-rule="evenodd"
    clip-rule="evenodd"
    d="M7.08 22.0001H18.0933C20.8867 22.0001 23.3333 19.4001 23.3333 16.4401C23.343 13.9677 21.7095 11.7897 19.3333 11.1068C19.4631 10.6167 19.5369 10.1135 19.5533 9.60677C19.5723 5.97872 16.737 2.97611 13.1138 2.78719C9.49064 2.59828 6.35847 5.28976 6 8.9001C2.90779 9.53126 0.681811 12.2442 0.666668 15.4001C0.666668 18.7934 3.78 22.0001 7.08 22.0001ZM7.26667 9.48677C7.35282 6.52844 9.76713 4.17014 12.7267 4.15343C14.4921 4.14954 16.1501 5.0005 17.1762 6.43707C18.2024 7.87363 18.4696 9.71806 17.8933 11.3868L17.6333 12.1401L18.42 12.2601C20.4832 12.5709 22.0067 14.347 22 16.4334C22 18.6668 20.14 20.6668 18.0933 20.6668H7.08C4.51333 20.6668 2 18.0668 2 15.4001C1.99621 12.706 4.01658 10.4388 6.69333 10.1334L7.26667 10.0668V9.48677Z"
    fill="#B2C0C9"
  />
</svg>
