<svg width="40" height="40" viewBox="0 0 36 36" fill="none" xmlns="http://www.w3.org/2000/svg">
<path fill-rule="evenodd" clip-rule="evenodd" d="M33.53 18.76L26.6 15.57V6.42999C26.5935 6.03838 26.359 5.68661 26 5.52999L18.5 2.07999C18.2336 1.95669 17.9264 1.95669 17.66 2.07999L10.16 5.52999C9.80554 5.69403 9.57903 6.04942 9.57999 6.43999V15.58L2.67999 18.76C2.32554 18.924 2.09903 19.2794 2.09999 19.67V29.45C2.09903 29.8406 2.32554 30.196 2.67999 30.36L10.18 33.81C10.4464 33.9333 10.7536 33.9333 11.02 33.81L18.1 30.55L25.18 33.81C25.4464 33.9333 25.7536 33.9333 26.02 33.81L33.52 30.36C33.8744 30.196 34.101 29.8406 34.1 29.45V19.67C34.1028 19.2817 33.8805 18.9269 33.53 18.76ZM30.72 19.67L25.61 22L20.5 19.67L25.61 17.32L30.72 19.67ZM23.21 6.42999L18.1 4.07999L13 6.42999L18.1 8.77999L23.21 6.42999ZM10.6 17.31L15.71 19.66L10.6 22L5.48999 19.67L10.6 17.31ZM10.6 31.8L17.1 28.8L17.08 21.2L11 24C10.7392 24.1172 10.4408 24.1172 10.18 24L4.09999 21.23V28.8L10.6 31.8ZM11.6 15.57V7.99999L17.68 10.8C17.9464 10.9233 18.2536 10.9233 18.52 10.8L24.6 7.99999V15.58L18.1 18.58L11.6 15.57ZM25.61 31.81L32.11 28.81L32.08 21.2L26 24C25.7421 24.1142 25.4479 24.1142 25.19 24L19.1 21.22V28.81L25.61 31.81Z" fill="#737373"/>
</svg>