<svg
  width="24"
  height="24"
  viewBox="0 0 24 24"
  fill="none"
  xmlns="http://www.w3.org/2000/svg"
>
  <g>
    <path
      fill-rule="evenodd"
      clip-rule="evenodd"
      d="M2.66668 20H21.3333C22.0697 20 22.6667 19.403 22.6667 18.6667V5.33333C22.6667 4.59695 22.0697 4 21.3333 4H2.66668C1.9303 4 1.33334 4.59695 1.33334 5.33333V18.6667C1.33334 19.403 1.9303 20 2.66668 20ZM2.66668 18.6667V5.33333H21.3333V18.6667H2.66668ZM6.00001 16.8667C5.70546 16.8667 5.46668 16.6279 5.46668 16.3333V7.66667C5.46668 7.37211 5.70546 7.13333 6.00001 7.13333C6.29456 7.13333 6.53334 7.37211 6.53334 7.66667V16.3333C6.53334 16.6279 6.29456 16.8667 6.00001 16.8667ZM9.41334 16.3333C9.41334 16.6279 9.65213 16.8667 9.94668 16.8667C10.2412 16.8667 10.48 16.6279 10.48 16.3333V7.66667C10.48 7.37211 10.2412 7.13333 9.94668 7.13333C9.65213 7.13333 9.41334 7.37211 9.41334 7.66667V16.3333ZM14 16.8667C13.7055 16.8667 13.4667 16.6279 13.4667 16.3333V7.66667C13.4667 7.37211 13.7055 7.13333 14 7.13333C14.2946 7.13333 14.5333 7.37211 14.5333 7.66667V16.3333C14.5333 16.4748 14.4772 16.6104 14.3771 16.7105C14.2771 16.8105 14.1415 16.8667 14 16.8667ZM17.4667 16.3333C17.4667 16.6279 17.7055 16.8667 18 16.8667C18.2946 16.8667 18.5333 16.6279 18.5333 16.3333V7.66667C18.5333 7.37211 18.2946 7.13333 18 7.13333C17.7055 7.13333 17.4667 7.37211 17.4667 7.66667V16.3333Z"
      fill="#B2C0C9"
    />
  </g>
</svg>
