<svg width="40" height="40" viewBox="0 0 40 40" fill="none" xmlns="http://www.w3.org/2000/svg">
<path d="M19.9341 38V30.9962C27.362 30.9962 33.0926 23.6742 30.2273 15.9277C29.166 13.0625 26.9379 10.7278 23.9663 9.66651C16.3261 6.90766 9.00377 12.638 9.00377 19.96H2C2 8.28709 13.3545 -0.945158 25.7707 2.87532C31.1827 4.57293 35.4271 8.8179 37.1252 14.2297C40.9454 26.6453 31.7131 38 19.9341 38Z" fill="#0080FF"/>
<path d="M20 30.724H12.8987V24H20V30.724ZM12.8987 36H7.51873V30.724H12.8987V36ZM7.51873 30.724H3V26.3793H7.51873V30.724Z" fill="#0080FF"/>
</svg>