<svg width="40" height="40" viewBox="0 0 40 40" fill="none" xmlns="http://www.w3.org/2000/svg">
<path d="M25.38 13.1792H25.5098L25.4449 13.116L29.9872 8.69551V8.60078C26.1587 5.31696 20.8702 4.18026 15.971 5.60114C11.0718 7.02202 7.30821 10.811 5.94552 15.6105C6.01041 15.5789 6.10775 15.5473 6.20508 15.5473C7.89221 14.4738 9.9038 13.8423 12.0127 13.8423C12.7265 13.8423 13.4078 13.9054 14.0892 14.0317C14.1216 14.0001 14.1541 14.0001 14.1865 14.0001C17.1066 10.8742 22.0382 10.4953 25.4124 13.1792H25.38Z" fill="#EA4535"/>
<path d="M34.3023 15.5473C33.5561 12.8634 31.9988 10.4321 29.825 8.5692L25.1853 13.0529C27.132 14.6001 28.2676 16.9366 28.2027 19.3679V20.1573C33.6859 20.1573 33.6859 28.1142 28.2027 28.1142H19.9617V34.4293H19.9293L19.9617 34.4924H28.2027C32.9397 34.524 37.125 31.5559 38.5202 27.1985C39.9153 22.8412 38.1957 18.1049 34.3023 15.5473Z" fill="#557EBF"/>
<path d="M11.8829 34.524H20.4159V28.1458H11.8829C11.2665 28.1458 10.6825 28.0195 10.1309 27.7985L5.19929 32.4084V32.4716C7.14598 33.8293 9.48201 34.5556 11.9154 34.5556L11.8829 34.524Z" fill="#36A852"/>
<path d="M12.2723 13.6844C7.43799 13.716 3.15526 16.6209 1.59791 20.8835C0.0405529 25.1777 1.59791 29.8824 5.4264 32.661L10.4878 27.9563C7.69754 26.7881 7.04865 23.378 9.19001 21.3887C11.3314 19.3679 14.9652 19.9994 16.2305 22.5886L21.2919 17.8839C19.1506 15.2631 15.8088 13.716 12.2723 13.7475V13.6844Z" fill="#F9BC15"/>
</svg>