<svg
  width="24"
  height="24"
  viewBox="0 0 24 24"
  fill="none"
  xmlns="http://www.w3.org/2000/svg"
>
  <g>
    <path
      d="M20 12H4C2.89543 12 2 12.8954 2 14V18C2 19.1046 2.89543 20 4 20H20C21.1046 20 22 19.1046 22 18V14C22 12.8954 21.1046 12 20 12Z"
      stroke="#B2C0C9"
      stroke-width="1.5"
      stroke-linecap="round"
      stroke-linejoin="round"
    />
    <path
      d="M20 4H4C2.89543 4 2 4.89543 2 6V10C2 11.1046 2.89543 12 4 12H20C21.1046 12 22 11.1046 22 10V6C22 4.89543 21.1046 4 20 4Z"
      stroke="#B2C0C9"
      stroke-width="1.5"
      stroke-linecap="round"
      stroke-linejoin="round"
    />
    <circle cx="17.5" cy="8.5" r="1.5" fill="#B2C0C9" />
    <circle cx="17.5" cy="16.5" r="1.5" fill="#B2C0C9" />
  </g>
</svg>
