<svg
  width="24"
  height="24"
  viewBox="0 0 24 24"
  fill="none"
  xmlns="http://www.w3.org/2000/svg"
>
  <g clip-path="url(#clip0_11758_46234)">
    <path
      d="M7 22.86L1.33333 19.5933V13.0533L7 9.78662L12.6667 13.0533V19.5933L7 22.86ZM2.66666 18.82L7 21.3333L11.3333 18.82V13.8266L7 11.3333L2.66666 13.8266V18.82Z"
      fill="#737373"
    />
    <path
      d="M17 22.86L11.3333 19.5933V13.0533L17 9.78662L22.6667 13.0533V19.5933L17 22.86ZM12.6667 18.82L17 21.3333L21.3333 18.82V13.8266L17 11.3333L12.6667 13.8266V18.82Z"
      fill="#737373"
    />
    <path
      d="M12 14.2135L6.33333 10.9468V4.4068L12 1.14014L17.6667 4.4068V10.9468L12 14.2135ZM7.66666 10.1735L12 12.6668L16.3333 10.1668V5.18014L12 2.6668L7.66666 5.18014V10.1735Z"
      fill="#737373"
    />
  </g>
  <defs>
    <clipPath id="clip0_11758_46234">
      <rect width="24" height="24" fill="black" />
    </clipPath>
  </defs>
</svg>
