<svg
  width="24"
  height="24"
  viewBox="0 0 24 24"
  fill="none"
  xmlns="http://www.w3.org/2000/svg"
>
  <g clip-path="url(#clip0_11758_46212)">
    <path
      d="M17.3333 21.3332H6.66666C5.60579 21.3332 4.58838 20.9117 3.83823 20.1616C3.08808 19.4115 2.66666 18.394 2.66666 17.3332V6.6665C2.66666 5.60564 3.08808 4.58822 3.83823 3.83808C4.58838 3.08793 5.60579 2.6665 6.66666 2.6665H17.3333C18.3942 2.6665 19.4116 3.08793 20.1618 3.83808C20.9119 4.58822 21.3333 5.60564 21.3333 6.6665V17.3332C21.3333 18.394 20.9119 19.4115 20.1618 20.1616C19.4116 20.9117 18.3942 21.3332 17.3333 21.3332ZM6.66666 3.99984C5.95941 3.99984 5.28114 4.28079 4.78104 4.78089C4.28094 5.28098 3.99999 5.95926 3.99999 6.6665V17.3332C3.99999 18.0404 4.28094 18.7187 4.78104 19.2188C5.28114 19.7189 5.95941 19.9998 6.66666 19.9998H17.3333C18.0406 19.9998 18.7188 19.7189 19.2189 19.2188C19.719 18.7187 20 18.0404 20 17.3332V6.6665C20 5.95926 19.719 5.28098 19.2189 4.78089C18.7188 4.28079 18.0406 3.99984 17.3333 3.99984H6.66666Z"
      fill="#737373"
    />
    <path
      d="M17.7067 10H10.2933C10.167 9.99914 10.0418 10.0234 9.92491 10.0713C9.80804 10.1192 9.70186 10.1899 9.61254 10.2792C9.52322 10.3685 9.45254 10.4747 9.40461 10.5916C9.35668 10.7085 9.33245 10.8337 9.33334 10.96V16.3734C9.33245 16.4997 9.35668 16.6249 9.40461 16.7418C9.45254 16.8587 9.52322 16.9648 9.61254 17.0542C9.70186 17.1435 9.80804 17.2142 9.92491 17.2621C10.0418 17.31 10.167 17.3342 10.2933 17.3334H17.7067C17.833 17.3342 17.9582 17.31 18.0751 17.2621C18.192 17.2142 18.2981 17.1435 18.3875 17.0542C18.4768 16.9648 18.5475 16.8587 18.5954 16.7418C18.6433 16.6249 18.6676 16.4997 18.6667 16.3734V10.96C18.6676 10.8337 18.6433 10.7085 18.5954 10.5916C18.5475 10.4747 18.4768 10.3685 18.3875 10.2792C18.2981 10.1899 18.192 10.1192 18.0751 10.0713C17.9582 10.0234 17.833 9.99914 17.7067 10ZM17.3333 16H10.6667V11.3334H17.3333V16Z"
      fill="#737373"
    />
    <path
      d="M8.26667 12.6665H6.66667V7.99986H13.3333V8.9332H14.6667V7.59986C14.6614 7.34935 14.5578 7.11097 14.3781 6.9363C14.1984 6.76163 13.9572 6.66472 13.7067 6.66653H6.29334C6.16702 6.66564 6.04179 6.68987 5.92491 6.7378C5.80804 6.78573 5.70186 6.85641 5.61254 6.94573C5.52322 7.03505 5.45254 7.14123 5.40461 7.25811C5.35668 7.37498 5.33245 7.50021 5.33334 7.62653V13.0399C5.33245 13.1662 5.35668 13.2914 5.40461 13.4083C5.45254 13.5252 5.52322 13.6313 5.61254 13.7207C5.70186 13.81 5.80804 13.8807 5.92491 13.9286C6.04179 13.9765 6.16702 14.0007 6.29334 13.9999H8.29334L8.26667 12.6665Z"
      fill="#737373"
    />
  </g>
  <defs>
    <clipPath id="clip0_11758_46212">
      <rect width="24" height="24" fill="black" />
    </clipPath>
  </defs>
</svg>
