<svg
  width="24"
  height="24"
  viewBox="0 0 24 24"
  fill="none"
  xmlns="http://www.w3.org/2000/svg"
>
  <g>
    <path
      fill-rule="evenodd"
      clip-rule="evenodd"
      d="M2.87335 12.7199C2.96196 12.7769 3.06218 12.8134 3.16668 12.8266C3.52877 12.8741 3.86168 12.6215 3.91335 12.2599C4.48472 8.04128 8.21025 4.97541 12.46 5.22661L10.9667 6.24661C10.7506 6.40942 10.6543 6.68669 10.723 6.94839C10.7917 7.21009 11.0118 7.40431 11.28 7.43994C11.4302 7.45367 11.5806 7.41607 11.7067 7.33328L15.26 4.89328L12.22 1.83994C12.072 1.61315 11.8015 1.49843 11.5356 1.54967C11.2697 1.6009 11.0612 1.8079 11.008 2.07345C10.9549 2.33899 11.0676 2.61031 11.2934 2.75994L12.4267 3.89328C7.5217 3.65875 3.25171 7.21369 2.59335 12.0799C2.55849 12.329 2.66677 12.5765 2.87335 12.7199ZM21.5267 18.3866C21.8755 18.3013 22.2292 18.5076 22.3267 18.8533C22.4125 19.2001 22.2096 19.553 21.8667 19.6533L17.7 20.7599L17.3667 16.4666C17.2888 16.2063 17.3767 15.9249 17.5887 15.7551C17.8008 15.5853 18.0947 15.5612 18.3316 15.6941C18.5685 15.8271 18.7011 16.0905 18.6667 16.3599L18.8334 18.0333C19.5938 16.8908 20.0525 15.5743 20.1667 14.2066C20.4059 11.5731 19.3759 8.98322 17.3934 7.23328C17.1175 6.99011 17.0907 6.56954 17.3334 6.29328C17.5738 6.03443 17.9744 6.00811 18.2467 6.23328C20.5473 8.26741 21.7428 11.2748 21.4667 14.3333C21.3258 15.9452 20.7751 17.4943 19.8667 18.8333L21.5267 18.3866ZM14.6667 9.99994H9.33335C8.96516 9.99994 8.66669 10.2984 8.66669 10.6666V15.9999C8.66669 16.3681 8.96516 16.6666 9.33335 16.6666H14.6667C15.0349 16.6666 15.3334 16.3681 15.3334 15.9999V10.6666C15.3334 10.2984 15.0349 9.99994 14.6667 9.99994ZM14 15.3333H10V11.3333H14V15.3333ZM11.26 21.6266C12.3475 21.7349 13.4456 21.6191 14.4867 21.2866L14.4934 21.2733C14.8309 21.1981 15.1699 21.3935 15.274 21.7232C15.3782 22.053 15.2129 22.4076 14.8934 22.5399C13.6829 22.9292 12.4053 23.0653 11.14 22.9399C8.06923 22.6337 5.33662 20.86 3.80668 18.1799L3.52668 19.7799C3.46519 20.098 3.18393 20.3258 2.86002 20.3199H2.74668C2.39841 20.2493 2.16674 19.918 2.22002 19.5666L2.96002 15.3333L3.94002 15.6866L7.00002 16.8199C7.27386 16.9863 7.39066 17.3238 7.27817 17.6238C7.16567 17.9238 6.85569 18.1014 6.54002 18.0466L4.88002 17.4266C6.18497 19.7921 8.57133 21.3631 11.26 21.6266Z"
      fill="#B2C0C9"
    />
  </g>
</svg>
