<svg width="40" height="40" viewBox="0 0 36 36" fill="none" xmlns="http://www.w3.org/2000/svg">
<g clip-path="url(#clip0_11675_4367)">
<path d="M18 0C8.1 0 0 8.1 0 18C0 27.9 8.1 36 18 36C27.9 36 36 27.9 36 18C36 8.1 27.9 0 18 0Z" fill="#16BF00"/>
<path d="M36 18C36 28.0286 27.8571 36 18 36C8.14286 36 0 28.0286 0 18C0 7.97143 7.97143 0 18 0C28.0286 0 36 7.97143 36 18ZM17.8286 26.3143C17.8286 25.9714 17.6571 25.8 17.3143 25.6286C16.2 25.2857 15.1714 25.2857 14.2286 24.3429C14.0571 24 14.0571 23.6571 13.8857 23.2286C13.5429 22.8857 12.6 22.7143 12.0857 22.5429C11.4 22.5429 10.6286 22.5429 9.77143 22.5429C9.42857 22.5429 8.82857 22.5429 8.48571 22.5429C7.97143 22.3714 7.54286 21.6 7.2 21.0857C7.2 20.9143 7.2 20.5714 6.85714 20.5714C6.51429 20.4 6.17143 20.7429 5.74286 20.5714C5.57143 20.4 5.57143 20.2286 5.57143 20.0571C5.57143 19.5429 5.91429 18.9429 6.25714 18.6C6.77143 18.2571 7.37143 18.7714 7.88571 18.7714C8.05714 18.7714 8.05714 18.7714 8.22857 18.9429C8.74286 19.1143 8.91429 19.8 8.91429 20.4C8.91429 20.5714 8.91429 20.7429 8.91429 20.7429C8.91429 20.9143 9.08571 20.9143 9.25714 20.9143C9.42857 19.9714 9.42857 19.1143 9.6 18.1714C9.6 17.0571 10.7143 16.0286 11.5714 15.6857C11.9143 15.5143 12.0857 15.8571 12.5143 15.6857C13.6286 15.3429 16.2857 14.2286 15.7714 12.7714C15.4286 11.4857 14.3143 10.2857 12.8571 10.4571C12.5143 10.6286 12.3429 10.8 12 10.9714C11.4857 11.3143 10.3714 12.4286 9.85714 12.4286C8.91429 12.2571 8.91429 10.9714 9.17143 10.4571C9.34286 9.77143 10.9714 7.37143 12.0857 7.8C12.2571 7.97143 12.6 8.31429 12.7714 8.48571C13.1143 8.65714 13.7143 8.65714 14.2286 8.65714C14.4 8.65714 14.5714 8.65714 14.7429 8.48571C14.9143 8.31429 14.9143 8.31429 14.9143 8.14286C14.9143 7.62857 14.4 7.02857 14.0571 6.68571C13.7143 6.34286 13.1143 6 12.6 5.74286C10.8 5.22857 7.88571 5.91429 6.51429 7.2C5.14286 8.48571 4.02857 10.6286 3.25714 12.4286C2.91429 13.5429 2.57143 14.9143 2.4 16.2C2.22857 17.0571 2.05714 17.8286 2.57143 18.6857C3.08571 19.8 4.2 20.8286 5.31429 21.6C6 22.1143 7.45714 22.1143 8.22857 23.0571C8.74286 23.7429 8.57143 24.6857 8.57143 25.5429C8.57143 26.6571 9.25714 27.5143 9.68571 28.4571C9.85714 28.9714 10.0286 29.7429 10.2 30.2571C10.2 30.4286 10.3714 31.5429 10.3714 31.7143C11.4857 32.2286 12.3429 32.8286 13.6286 33.1714C13.8 33.1714 14.4857 32.0571 14.4857 31.8857C15 31.3714 15.4286 30.6 15.9429 30.2571C16.2857 30.0857 16.6286 29.9143 17.0571 29.5714C17.4 29.2286 17.5714 28.4571 17.7429 27.9429C17.8286 27.5143 18 26.8286 17.8286 26.3143ZM18.1714 9.68571C18.3429 9.68571 18.5143 9.51429 18.8571 9.34286C19.3714 9 19.9714 8.4 20.4857 8.05714C21 7.71429 21.6 7.11429 21.9429 6.77143C22.4571 6.42857 22.8857 5.65714 23.0571 5.14286C23.2286 4.8 23.7429 4.02857 23.5714 3.51429C23.4 3.17143 22.4571 3 22.1143 2.82857C20.6571 2.48571 19.4571 2.31429 18 2.31429C17.4857 2.31429 16.7143 2.48571 16.5429 3C16.3714 3.94286 17.0571 3.68571 17.8286 3.94286C17.8286 3.94286 18 5.4 18 5.57143C18.1714 6.42857 17.6571 7.02857 17.6571 7.88571C17.6571 8.4 17.6571 9.34286 18 9.68571H18.1714ZM33.2571 22.2857C33.4286 21.9429 33.4286 21.3429 33.6 21C33.7714 20.1429 33.7714 19.2 33.7714 18.3429C33.7714 16.5429 33.6 14.7429 33.0857 13.1143C32.7429 12.6 32.5714 12 32.4 11.4857C32.0571 10.5429 31.5429 9.68571 30.7714 9C30.0857 8.05714 29.1429 5.57143 27.5143 6.34286C27 6.51429 26.6571 7.2 26.2286 7.62857C25.8857 8.14286 25.5429 8.74286 25.1143 9.25714C24.9429 9.42857 24.7714 9.77143 24.9429 9.94286C24.9429 10.1143 25.1143 10.1143 25.2857 10.1143C25.6286 10.2857 25.8 10.2857 26.1429 10.4571C26.3143 10.4571 26.4857 10.6286 26.3143 10.8C26.3143 10.8 26.3143 10.9714 26.1429 10.9714C25.2857 11.9143 24.3429 12.6 23.4857 13.4571C23.3143 13.6286 23.1429 13.9714 23.1429 14.1429C23.1429 14.3143 23.3143 14.3143 23.3143 14.4857C23.3143 14.6571 23.1429 14.6571 22.9714 14.8286C22.6286 15 22.2857 15.1714 22.0286 15.3429C21.8571 15.6857 22.0286 16.2857 21.8571 16.6286C21.6857 17.5714 21.1714 18.2571 20.7429 19.1143C20.4 19.6286 20.2286 20.2286 19.8857 20.7429C19.8857 21.4286 19.7143 22.0286 20.0571 22.5429C20.9143 23.8286 22.5429 23.0571 23.8286 23.6571C24.1714 23.8286 24.5143 23.8286 24.7714 24.1714C25.2857 24.6857 25.2857 25.6286 25.4571 26.1429C25.6286 26.8286 25.8 27.6 26.1429 28.2857C26.3143 29.1429 26.6571 30.0857 26.8286 30.7714C28.4571 29.4857 29.9143 28.1143 30.9429 26.3143C32.2286 25.2 32.7429 23.7429 33.2571 22.2857Z" fill="#0F4BBF"/>
</g>
<defs>
<clipPath id="clip0_11675_4367">
<rect width="36" height="36" fill="white"/>
</clipPath>
</defs>
</svg>