<?xml version="1.0" encoding="UTF-8"?>
<svg width="48px" height="48px" viewBox="0 0 48 48" version="1.1" xmlns="http://www.w3.org/2000/svg" xmlns:xlink="http://www.w3.org/1999/xlink">
    <title>Icon-Resource/Storage/Res_AWS-Backup_Backup-Plan_48_Dark</title>
    <g id="Icon-Resource/Storage/Res_AWS-Backup_Backup-Plan_48" stroke="none" stroke-width="1" fill="none" fill-rule="evenodd">
        <path d="M39,44 L39,12 L32,12 C31.447,12 31,11.552 31,11 L31,4 L9,4 L9,44 L39,44 Z M33,10 L37.586,10 L33,5.414 L33,10 Z M41,11 L41,45 C41,45.552 40.553,46 40,46 L8,46 C7.447,46 7,45.552 7,45 L7,3 C7,2.448 7.447,2 8,2 L32,2 L32,2.01 C32.26,2.01 32.516,2.102 32.707,2.293 L40.707,10.293 C40.898,10.484 40.99,10.74 40.991,11 L41,11 Z M34.579,36.424 L32.914,38.089 L31.249,36.424 L29.835,37.838 L31.5,39.503 L29.835,41.168 L31.249,42.583 L32.914,40.917 L34.579,42.583 L35.993,41.168 L34.328,39.503 L35.993,37.838 L34.579,36.424 Z M15.5,12 C16.327,12 17,11.327 17,10.5 C17,9.673 16.327,9 15.5,9 C14.673,9 14,9.673 14,10.5 C14,11.327 14.673,12 15.5,12 L15.5,12 Z M15.5,14 C13.57,14 12,12.43 12,10.5 C12,8.57 13.57,7 15.5,7 C17.43,7 19,8.57 19,10.5 C19,12.43 17.43,14 15.5,14 L15.5,14 Z M25.527,36.876 C24.993,36.954 24.459,36.992001 23.929,36.992001 C21.596,36.993 19.334,36.247 17.43,34.827 C14.662,32.764 13.061,29.599 13.037,26.143 L15.037,26.129 C15.057,28.953 16.364,31.538 18.625,33.223 C20.534,34.646 22.879,35.238 25.239,34.897 C27.595,34.553 29.677,33.312 31.1,31.403 C34.037,27.462 33.221,21.866 29.28,18.928 C25.604,16.187 20.487,16.717 17.432,20 L19,20 L19,22 L15,22 C14.447,22 14,21.552 14,21 L14,17 L16,17 L16,18.606 C19.743,14.614 25.986,13.978 30.476,17.324 C35.301,20.921 36.3,27.773 32.703,32.598 C30.961,34.936 28.412,36.455 25.527,36.876 L25.527,36.876 Z" id="Fill-1" fill="#6CAE3E"></path>
    </g>
</svg>