<?xml version="1.0" encoding="UTF-8"?>
<svg width="48px" height="48px" viewBox="0 0 48 48" version="1.1" xmlns="http://www.w3.org/2000/svg" xmlns:xlink="http://www.w3.org/1999/xlink">
    <title>Icon-Resource/Storage/Res_Amazon-Elastic-Block-Store_Snapshot_48_Dark</title>
    <g id="Icon-Resource/Storage/Res_Amazon-Elastic-Block-Store_Snapshot_48" stroke="none" stroke-width="1" fill="none" fill-rule="evenodd">
        <path d="M36.1992,30.791 L36.2782,30.208 C36.7902,30.537 37.1402,30.802 37.3492,30.991 C37.0482,30.971 36.6542,30.899 36.1992,30.791 L36.1992,30.791 Z M22.7372,26.535 C22.7372,26.429 22.8232,26.342 22.9292,26.342 C22.9602,26.342 22.9822,26.362 23.0082,26.375 L22.8612,26.674 C22.7952,26.653 22.7372,26.614 22.7372,26.535 L22.7372,26.535 Z M32.7042,41.835 C32.7032,41.839 32.5272,42.208 31.3422,42.676 C30.8032,42.889 30.1622,43.082 29.4352,43.249 C27.5532,43.684 25.2412,43.924 22.9282,43.924 C17.1472,43.924 13.4392,42.544 13.1622,41.882 C13.1622,41.837 13.1592,41.793 13.1532,41.749 L10.3892,21.228 C10.4372,21.252 10.4972,21.271 10.5462,21.294 C10.8732,21.451 11.2192,21.601 11.5912,21.738 C11.6202,21.749 11.6452,21.761 11.6762,21.771 C12.0802,21.917 12.5132,22.05 12.9602,22.174 C13.0822,22.208 13.2062,22.24 13.3302,22.272 C13.7052,22.37 14.0882,22.461 14.4822,22.545 C14.5772,22.565 14.6692,22.587 14.7642,22.607 C15.2432,22.704 15.7322,22.79 16.2282,22.868 C16.3492,22.887 16.4712,22.903 16.5942,22.921 C16.9992,22.98 17.4062,23.034 17.8142,23.082 C17.9382,23.096 18.0612,23.111 18.1852,23.124 C18.6872,23.179 19.1862,23.225 19.6802,23.261 C19.7662,23.268 19.8492,23.271 19.9352,23.277 C20.3552,23.306 20.7682,23.329 21.1752,23.346 C21.3032,23.351 21.4292,23.356 21.5562,23.36 C22.0272,23.376 22.4902,23.386 22.9282,23.386 C23.3672,23.386 23.8302,23.376 24.3012,23.36 C24.4282,23.356 24.5542,23.351 24.6832,23.346 C25.0912,23.329 25.5052,23.306 25.9272,23.277 C26.0112,23.271 26.0922,23.268 26.1772,23.261 C26.6702,23.225 27.1682,23.179 27.6692,23.125 C27.7972,23.111 27.9242,23.095 28.0522,23.081 C28.4572,23.034 28.8592,22.98 29.2622,22.921 C29.3862,22.903 29.5092,22.887 29.6322,22.867 C30.1272,22.79 30.6162,22.704 31.0952,22.607 C31.1912,22.587 31.2832,22.565 31.3792,22.544 C31.7722,22.461 32.1552,22.37 32.5302,22.272 C32.6542,22.24 32.7772,22.208 32.8982,22.174 C33.3452,22.049 33.7782,21.917 34.1832,21.771 C34.2152,21.76 34.2412,21.748 34.2712,21.736 C34.6422,21.6 34.9872,21.451 35.3142,21.294 C35.3632,21.271 35.4232,21.252 35.4702,21.228 L34.2622,30.228 C31.6532,29.365 28.0762,27.877 24.7122,26.283 C24.5882,25.406 23.8402,24.728 22.9292,24.728 C21.9322,24.728 21.1222,25.539 21.1222,26.535 C21.1222,27.532 21.9322,28.342 22.9292,28.342 C23.2622,28.342 23.5712,28.246 23.8392,28.088 C28.0672,30.116 31.4522,31.501 33.9912,32.249 L32.7042,41.835 Z M22.9282,14.922 C30.5962,14.922 35.7142,17.326 35.8562,18.354 L35.8442,18.451 C35.8332,18.485 35.8092,18.521 35.7892,18.557 C35.7712,18.588 35.7572,18.619 35.7312,18.651 C35.7032,18.687 35.6632,18.725 35.6262,18.762 C35.5912,18.797 35.5592,18.832 35.5162,18.868 C35.4712,18.906 35.4162,18.944 35.3632,18.983 C35.3102,19.021 35.2622,19.059 35.2002,19.099 C35.1412,19.136 35.0712,19.175 35.0052,19.213 C34.9332,19.254 34.8662,19.295 34.7862,19.337 C34.7142,19.375 34.6302,19.414 34.5502,19.452 C34.4602,19.495 34.3742,19.538 34.2752,19.581 C34.1902,19.618 34.0942,19.655 34.0032,19.692 C33.8942,19.737 33.7892,19.781 33.6712,19.825 C33.5722,19.862 33.4632,19.898 33.3572,19.935 C33.2312,19.978 33.1102,20.022 32.9752,20.065 C32.8632,20.102 32.7392,20.136 32.6222,20.171 C32.4792,20.214 32.3412,20.257 32.1892,20.298 C32.0622,20.333 31.9242,20.366 31.7902,20.4 C31.6342,20.44 31.4822,20.481 31.3172,20.519 C31.1742,20.552 31.0192,20.583 30.8702,20.616 C30.7002,20.652 30.5362,20.689 30.3582,20.724 C30.1992,20.755 30.0272,20.784 29.8612,20.813 C29.6802,20.845 29.5052,20.879 29.3172,20.909 C29.1372,20.938 28.9452,20.963 28.7582,20.989 C28.5702,21.016 28.3882,21.045 28.1942,21.069 C27.9902,21.095 27.7732,21.116 27.5612,21.14 C27.3722,21.16 27.1872,21.183 26.9922,21.202 C26.7622,21.223 26.5202,21.239 26.2822,21.257 C26.0922,21.272 25.9072,21.289 25.7112,21.301 C25.4462,21.318 25.1682,21.328 24.8942,21.339 C24.7142,21.347 24.5402,21.358 24.3562,21.364 C23.8922,21.378 23.4162,21.386 22.9282,21.386 C22.4402,21.386 21.9652,21.378 21.5012,21.364 C21.3232,21.359 21.1552,21.348 20.9792,21.34 C20.7002,21.328 20.4172,21.318 20.1452,21.301 C19.9652,21.29 19.7952,21.274 19.6192,21.261 C19.3652,21.242 19.1072,21.224 18.8632,21.201 C18.6882,21.185 18.5252,21.164 18.3552,21.146 C18.1232,21.121 17.8862,21.097 17.6612,21.069 C17.4882,21.047 17.3272,21.021 17.1592,20.998 C16.9502,20.968 16.7372,20.94 16.5362,20.908 C16.3712,20.881 16.2172,20.852 16.0562,20.823 C15.8682,20.791 15.6762,20.758 15.4962,20.723 C15.3382,20.692 15.1922,20.659 15.0412,20.626 C14.8712,20.59 14.6972,20.555 14.5362,20.518 C14.3912,20.484 14.2602,20.448 14.1222,20.414 C13.9682,20.375 13.8092,20.336 13.6632,20.296 C13.5292,20.26 13.4072,20.222 13.2802,20.184 C13.1452,20.144 13.0062,20.104 12.8792,20.064 C12.7592,20.025 12.6512,19.986 12.5382,19.947 C12.4182,19.906 12.2942,19.865 12.1812,19.823 C12.0772,19.784 11.9852,19.744 11.8872,19.705 C11.7842,19.663 11.6762,19.621 11.5802,19.579 C11.4902,19.54 11.4122,19.5 11.3302,19.461 C11.2422,19.419 11.1492,19.377 11.0692,19.335 C10.9962,19.297 10.9342,19.259 10.8692,19.221 C10.7962,19.18 10.7202,19.138 10.6562,19.097 C10.5992,19.06 10.5532,19.024 10.5042,18.988 C10.4472,18.947 10.3882,18.906 10.3422,18.867 C10.3012,18.833 10.2702,18.799 10.2372,18.766 C10.1982,18.727 10.1562,18.688 10.1282,18.65 C10.1022,18.619 10.0892,18.589 10.0712,18.559 C10.0502,18.522 10.0262,18.485 10.0152,18.45 L10.0032,18.354 C10.1452,17.326 15.2622,14.922 22.9282,14.922 L22.9282,14.922 Z M39.6692,31.017 C39.4982,30.1 38.5532,29.194 36.5692,28.043 L37.8122,18.817 L37.8122,18.816 L37.8122,18.816 L37.8502,18.529 C37.8562,18.485 37.8592,18.441 37.8592,18.397 C37.8592,15.123 30.1392,12.922 22.9282,12.922 C15.7192,12.922 8.0002,15.123 8.0002,18.397 C8.0002,18.441 8.0032,18.485 8.0092,18.529 L8.0472,18.816 L8.0472,18.816 L8.0472,18.817 L11.1642,41.962 C11.2892,44.867 18.2412,45.924 22.9282,45.924 C25.3882,45.924 27.8592,45.666 29.8862,45.198 C30.7082,45.008 31.4452,44.787 32.0772,44.537 C33.7722,43.866 34.6532,42.999 34.6952,41.961 L35.9382,32.731 C36.5532,32.846 37.0972,32.907 37.5592,32.907 C38.4092,32.907 38.9982,32.712 39.3252,32.322 C39.6352,31.954 39.7572,31.491 39.6692,31.017 L39.6692,31.017 Z M12.6212,13.481 L10.6212,13.481 L10.6212,10.861 C10.6212,10.309 11.0682,9.861 11.6212,9.861 L34.3302,9.861 C34.8832,9.861 35.3302,10.309 35.3302,10.861 L35.3302,13.481 L33.3302,13.481 L33.3302,11.861 L12.6212,11.861 L12.6212,13.481 Z M16.0952,4 L29.8552,4 L32.0442,6.367 L13.9072,6.367 L16.0952,4 Z M11.6212,8.367 L34.3302,8.367 C34.7272,8.367 35.0872,8.132 35.2462,7.768 C35.4052,7.404 35.3342,6.98 35.0642,6.688 L31.0272,2.321 C30.8382,2.116 30.5722,2 30.2932,2 L15.6582,2 C15.3792,2 15.1132,2.116 14.9242,2.321 L10.8872,6.688 C10.6172,6.98 10.5462,7.404 10.7052,7.768 C10.8642,8.132 11.2232,8.367 11.6212,8.367 L11.6212,8.367 Z" id="AWS-Amazon-Elastic-Block-Store_Snapshot_Resource-Icon_light-bg" fill="#6CAE3E"></path>
    </g>
</svg>