<?xml version="1.0" encoding="UTF-8"?>
<svg width="48px" height="48px" viewBox="0 0 48 48" version="1.1" xmlns="http://www.w3.org/2000/svg" xmlns:xlink="http://www.w3.org/1999/xlink">
    <title>Icon-Resource/Security-Identity-and-Compliance/Res_AWS-WAF_Bot-Control_48_Dark</title>
    <g id="Icon-Resource/Security-Identity-and-Compliance/Res_AWS-WAF_Bot-Control_48" stroke="none" stroke-width="1" fill="none" fill-rule="evenodd">
        <path d="M32,26.5 C32,26.1 31.844,25.723 31.561,25.44 L31.561,25.439 C31.269,25.147 30.884,25.001 30.5,25.001 C30.116,25.001 29.731,25.147 29.439,25.439 C29.156,25.723 29,26.1 29,26.5 C29,26.9 29.156,27.277 29.439,27.56 C30.023,28.145 30.977,28.146 31.561,27.561 C31.844,27.277 32,26.9 32,26.5 L32,26.5 Z M32.975,24.025 C33.636,24.686 34,25.565 34,26.5 C34,27.435 33.636,28.314 32.975,28.975 C32.292,29.657 31.396,29.998 30.5,29.998 C29.604,29.998 28.708,29.657 28.025,28.975 C27.364,28.314 27,27.435 27,26.5 C27,25.565 27.364,24.686 28.025,24.025 C29.391,22.662 31.609,22.661 32.975,24.025 L32.975,24.025 Z M19,26.5 C19,26.1 18.844,25.723 18.561,25.44 C18.269,25.147 17.884,25.001 17.5,25.001 C17.116,25.001 16.731,25.147 16.439,25.439 C16.156,25.723 16,26.1 16,26.5 C16,26.9 16.156,27.277 16.439,27.56 C17.023,28.145 17.977,28.146 18.561,27.561 L18.561,27.56 C18.844,27.277 19,26.9 19,26.5 L19,26.5 Z M19.975,24.025 C20.636,24.686 21,25.565 21,26.5 C21,27.435 20.636,28.314 19.975,28.975 C19.292,29.657 18.396,29.998 17.5,29.998 C16.604,29.998 15.708,29.657 15.025,28.975 C14.364,28.314 14,27.435 14,26.5 C14,25.565 14.364,24.686 15.025,24.025 C16.391,22.662 18.609,22.66 19.975,24.025 L19.975,24.025 Z M35,21.651 C35,21.292 34.708,21 34.35,21 L13.65,21 C13.292,21 13,21.292 13,21.651 L13,31.581 C13,31.812 13.188,32 13.419,32 L34.581,32 C34.813,32 35,31.812 35,31.581 L35,21.651 Z M21.04,19 L26.944,19 C26.616,18.395 26.003,18 25.293,18 L22.707,18 C21.985,18 21.363,18.408 21.04,19 L21.04,19 Z M23,12 C23,12.551 23.448,13 24,13 C24.552,13 25,12.551 25,12 C25,11.449 24.552,11 24,11 C23.448,11 23,11.449 23,12 L23,12 Z M37,31.581 C37,32.915 35.915,34 34.581,34 L28,34 L28,38 L26,38 L26,34 L22,34 L22,38 L20,38 L20,34 L13.419,34 C12.085,34 11,32.915 11,31.581 L11,21.651 C11,20.189 12.188,19 13.65,19 L18.917,19 C19.328,17.284 20.866,16 22.707,16 L23,16 L23,14.815 C21.839,14.401 21,13.302 21,12 C21,10.346 22.346,9 24,9 C25.654,9 27,10.346 27,12 C27,13.302 26.161,14.401 25,14.816 L25,16 L25.293,16 C27.134,16 28.672,17.284 29.083,19 L34.35,19 C35.812,19 37,20.189 37,21.651 L37,31.581 Z M7.489,35.95 L9.11,34.777 C7.029,31.902 5.859,28.538 5.676,25 L8,25 L8,23 L5.679,23 C5.871,19.483 7.04,16.14 9.11,13.281 L7.489,12.108 C5.172,15.311 3.873,19.059 3.679,23 L2,23 L2,25 L3.676,25 C3.861,28.962 5.16,32.731 7.489,35.95 L7.489,35.95 Z M34.747,38.918 C31.88,40.993 28.527,42.162 25,42.351 L25,40 L23,40 L23,42.351 C19.472,42.163 16.118,40.994 13.25,38.918 L12.078,40.539 C15.289,42.862 19.049,44.161 23,44.351 L23,46 L25,46 L25,44.351 C28.951,44.16 32.709,42.862 35.919,40.539 L34.747,38.918 Z M13.25,9.14 C16.118,7.064 19.472,5.896 23,5.708 L23,8 L25,8 L25,5.708 C28.527,5.896 31.88,7.065 34.747,9.14 L35.919,7.52 C32.709,5.196 28.951,3.897 25,3.708 L25,2 L23,2 L23,3.708 C19.048,3.897 15.289,5.196 12.078,7.52 L13.25,9.14 Z M44.319,23 C44.125,19.059 42.826,15.311 40.509,12.108 L38.888,13.281 C40.958,16.14 42.127,19.483 42.319,23 L40,23 L40,25 L42.322,25 C42.139,28.538 40.969,31.902 38.888,34.777 L40.509,35.95 C42.838,32.731 44.137,28.962 44.322,25 L46,25 L46,23 L44.319,23 Z M37.026,12.416 L43.186,6.256 L41.771,4.842 L35.612,11.002 L37.026,12.416 Z M10.972,35.642 L4.812,41.802 L6.226,43.216 L12.386,37.056 L10.972,35.642 Z M11.706,10.293 L3.586,2.173 L2.172,3.587 L10.292,11.708 L11.706,10.293 Z M37.706,36.293 L45.826,44.413 L44.412,45.827 L36.292,37.708 L37.706,36.293 Z" id="Fill-1" fill="#FF5252"></path>
    </g>
</svg>