<?xml version="1.0" encoding="UTF-8"?>
<svg width="48px" height="48px" viewBox="0 0 48 48" version="1.1" xmlns="http://www.w3.org/2000/svg" xmlns:xlink="http://www.w3.org/1999/xlink">
    <title>Icon-Resource/End-User-Computing/Res_Amazon-WorkSpaces_WorkSpaces-Web_48_Dark</title>
    <g id="Icon-Resource/End-User-Computing/Res_Amazon-WorkSpaces_WorkSpaces-Web_48" stroke="none" stroke-width="1" fill="none" fill-rule="evenodd">
        <path d="M13.0350036,7 C13.0350036,7.552 12.5870036,8 12.0350036,8 C11.4830036,8 11.0350036,7.552 11.0350036,7 C11.0350036,6.448 11.4830036,6 12.0350036,6 C12.5870036,6 13.0350036,6.448 13.0350036,7 L13.0350036,7 Z M10.0350036,7 C10.0350036,7.552 9.58700358,8 9.03500358,8 C8.48300358,8 8.03500358,7.552 8.03500358,7 C8.03500358,6.448 8.48300358,6 9.03500358,6 C9.58700358,6 10.0350036,6.448 10.0350036,7 L10.0350036,7 Z M7.03500358,7 C7.03500358,7.552 6.58700358,8 6.03500358,8 C5.48300358,8 5.03500358,7.552 5.03500358,7 C5.03500358,6.448 5.48300358,6 6.03500358,6 C6.58700358,6 7.03500358,6.448 7.03500358,7 L7.03500358,7 Z M40.0350036,31 L42.0350036,31 L42.0350036,14 L40.0350036,14 L40.0350036,31 Z M25.0350036,41.98 L25.0350036,29.552 L35.0380036,23.74 L35.0350036,36.183 L25.0350036,41.98 Z M13.0350036,23.692 L23.0350036,29.602 L23.0350036,41.905 L13.0350036,35.862 L13.0350036,23.692 Z M23.5660036,15.98 L33.9040036,22.086 L23.9920036,27.845 L14.0170036,21.95 L23.5660036,15.98 Z M36.5510036,21.326 L24.0600036,13.95 C23.7390036,13.76 23.3390036,13.765 23.0210036,13.962 L11.5240036,21.15 C11.4240036,21.207 11.3350036,21.281 11.2580036,21.37 C11.0540036,21.607 10.9800036,21.917 11.0350036,22.208 L11.0350036,36.426 C11.0350036,36.776 11.2180036,37.101 11.5170036,37.282 L23.2980036,44.401 C23.3520036,44.458 23.4140036,44.51 23.4810036,44.555 C23.6470036,44.664 23.8390036,44.719 24.0300036,44.719 C24.2030036,44.719 24.3760036,44.674 24.5320036,44.584 L36.5370036,37.625 C36.8450036,37.445 37.0350036,37.116 37.0350036,36.759 L37.0350036,23.44 L37.0430195,22.193 C37.0450036,21.837 36.8580036,21.507 36.5510036,21.326 L36.5510036,21.326 Z M4.02000358,9 L4.02300358,5 L44.0230036,5 L44.0230036,9 L4.02000358,9 Z M44.1470036,3 L3.89900358,3 C2.86500358,3 2.02300358,3.826 2.02300358,4.839 L2,33.156 C1.99800358,34.167 2.83400358,34.994 3.87000358,35 L9.02300358,34.999 L9.02300358,32.999 L4,33 L4.01800358,11 L44.0230036,11 L44.0230036,33 L39.0230036,33 L39.0230036,35 L44.1480036,35 C45.1820036,35 46.0230036,34.171 46.0230036,33.152 L46.0230036,4.841 C46.0230036,3.826 45.1810036,3 44.1470036,3 L44.1470036,3 Z" id="Fill-1" fill="#56C0A7"></path>
    </g>
</svg>