<?xml version="1.0" encoding="UTF-8"?>
<svg width="48px" height="48px" viewBox="0 0 48 48" version="1.1" xmlns="http://www.w3.org/2000/svg" xmlns:xlink="http://www.w3.org/1999/xlink">
    <title>Icon-Resource/Analytics/Res_Amazon-EMR_EMR-Engine_48_Dark</title>
    <g id="Icon-Resource/Analytics/Res_Amazon-EMR_EMR-Engine_48" stroke="none" stroke-width="1" fill="none" fill-rule="evenodd">
        <path d="M44.065,34.99 C44.065,35.503 43.638,35.92 43.114,35.92 L40.881,35.92 C40.357,35.92 39.93,35.503 39.93,34.99 L39.93,33.415 C39.93,32.862 39.483,32.415 38.93,32.415 L34.548,32.415 C33.996,32.415 33.548,32.862 33.548,33.415 L33.548,35.795 C33.548,37.313 32.305,38.549 30.778,38.549 L23.74,38.549 C22.198,38.549 20.943,37.313 20.943,35.795 L20.943,35.167 C20.943,34.614 20.496,34.167 19.943,34.167 L8.905,34.167 C8.616,34.167 8.381,33.94 8.381,33.661 L8.381,17.747 C8.381,17.233 8.809,16.815 9.335,16.815 L15.232,16.815 C15.785,16.815 16.232,16.368 16.232,15.815 L16.232,13.877 C16.232,13.603 16.462,13.382 16.745,13.382 L26.026,13.382 C26.308,13.382 26.538,13.603 26.538,13.877 L26.538,15.815 C26.538,16.368 26.985,16.815 27.538,16.815 L32.622,16.815 C33.147,16.815 33.575,17.233 33.575,17.747 L33.575,19.468 C33.575,20.02 34.022,20.468 34.575,20.468 L38.898,20.468 C39.451,20.468 39.898,20.02 39.898,19.468 L39.898,17.868 C39.898,17.355 40.325,16.938 40.85,16.938 L43.114,16.938 C43.638,16.938 44.065,17.355 44.065,17.868 L44.065,34.99 Z M43.114,14.938 L40.85,14.938 C39.222,14.938 37.898,16.253 37.898,17.868 L37.898,18.468 L35.575,18.468 L35.575,17.747 C35.575,16.131 34.25,14.815 32.622,14.815 L28.538,14.815 L28.538,13.877 C28.538,12.501 27.411,11.382 26.026,11.382 L22.403,11.382 L22.403,9 L27.538,9 L27.538,7 L15.269,7 L15.269,9 L20.403,9 L20.403,11.382 L16.745,11.382 C15.359,11.382 14.232,12.501 14.232,13.877 L14.232,14.815 L9.335,14.815 C7.707,14.815 6.381,16.131 6.381,17.747 L6.381,24.527 L4,24.527 L4,15.887 L2,15.887 L2,35.167 L4,35.167 L4,26.527 L6.381,26.527 L6.381,33.661 C6.381,35.043 7.513,36.167 8.905,36.167 L18.958,36.167 C19.15,38.615 21.221,40.549 23.74,40.549 L30.778,40.549 C33.409,40.549 35.548,38.416 35.548,35.795 L35.548,34.415 L37.93,34.415 L37.93,34.99 C37.93,36.605 39.254,37.92 40.881,37.92 L43.114,37.92 C44.741,37.92 46.065,36.605 46.065,34.99 L46.065,17.868 C46.065,16.253 44.741,14.938 43.114,14.938 L43.114,14.938 Z" id="Icon-Resource/48/Amazon-EMR_EMR-Engine" fill="#A166FF"></path>
    </g>
</svg>