<?xml version="1.0" encoding="UTF-8"?>
<svg width="48px" height="48px" viewBox="0 0 48 48" version="1.1" xmlns="http://www.w3.org/2000/svg" xmlns:xlink="http://www.w3.org/1999/xlink">
    <title>Icon-Resource/Managment-Governance/Res_Amazon-Cloudwatch_Event-Based_48_Dark</title>
    <g id="Icon-Resource/Managment-Governance/Res_Amazon-Cloudwatch_Event-Based_48" stroke="none" stroke-width="1" fill="none" fill-rule="evenodd">
        <path d="M34.522,40.526 L41.278,40.526 L41.278,19.76 L34.522,19.76 L34.522,40.526 Z M33.522,17.76 C32.969,17.76 32.522,18.208 32.522,18.76 L32.522,41.526 C32.522,42.079 32.969,42.526 33.522,42.526 L42.278,42.526 C42.831,42.526 43.278,42.079 43.278,41.526 L43.278,18.76 C43.278,18.208 42.831,17.76 42.278,17.76 L33.522,17.76 Z M32.77,4.417 C32.77,4.187 32.958,4 33.188,4 L42.612,4 C42.842,4 43.029,4.187 43.029,4.417 L43.029,13.841 C43.029,14.071 42.842,14.258 42.612,14.258 L33.188,14.258 C32.958,14.258 32.77,14.071 32.77,13.841 L32.77,4.417 Z M33.188,16.258 L42.612,16.258 C43.945,16.258 45.029,15.174 45.029,13.841 L45.029,4.417 C45.029,3.084 43.945,2 42.612,2 L33.188,2 C31.855,2 30.77,3.084 30.77,4.417 L30.77,13.841 C30.77,15.174 31.855,16.258 33.188,16.258 L33.188,16.258 Z M2,46.029 L45.78,46.029 L45.78,44.029 L2,44.029 L2,46.029 Z M20.512,40.526 L27.268,40.526 L27.268,27.641 L20.512,27.641 L20.512,40.526 Z M19.512,42.526 L28.268,42.526 C28.821,42.526 29.268,42.079 29.268,41.526 L29.268,26.641 C29.268,26.089 28.821,25.641 28.268,25.641 L19.512,25.641 C18.96,25.641 18.512,26.089 18.512,26.641 L18.512,41.526 C18.512,42.079 18.96,42.526 19.512,42.526 L19.512,42.526 Z M6.503,40.526 L13.259,40.526 L13.259,23.263 L6.503,23.263 L6.503,40.526 Z M5.503,42.526 L14.259,42.526 C14.811,42.526 15.259,42.079 15.259,41.526 L15.259,22.263 C15.259,21.711 14.811,21.263 14.259,21.263 L5.503,21.263 C4.95,21.263 4.503,21.711 4.503,22.263 L4.503,41.526 C4.503,42.079 4.95,42.526 5.503,42.526 L5.503,42.526 Z" id="Amazon-Cloudwatch_Event-event-based_Resource-Icon_light-bg" fill="#FF4F8B"></path>
    </g>
</svg>