<?xml version="1.0" encoding="UTF-8"?>
<svg width="48px" height="48px" viewBox="0 0 48 48" version="1.1" xmlns="http://www.w3.org/2000/svg" xmlns:xlink="http://www.w3.org/1999/xlink">
    <title>Icon-Resource/Machine-Learning/Res_Amazon-Sagemaker_Train_48_Dark</title>
    <g id="Icon-Resource/Machine-Learning/Res_Amazon-Sagemaker_Train_48" stroke="none" stroke-width="1" fill="none" fill-rule="evenodd">
        <path d="M6.464,31.135 L26.571,31.135 L26.571,29.135 L6.464,29.135 L6.464,31.135 Z M6.464,36.724 L26.571,36.724 L26.571,34.724 L6.464,34.724 L6.464,36.724 Z M43.666,31.431 L36.481,24.245 C35.995,24.838 35.446,25.377 34.849,25.859 L42.044,33.053 C42.49,33.499 43.218,33.501 43.666,33.053 C44.113,32.606 44.113,31.878 43.666,31.431 L43.666,31.431 Z M29.252,28.241 C28.79,28.3 28.323,28.34 27.846,28.34 C25.059,28.34 22.515,27.308 20.556,25.614 L6.464,25.614 L6.464,23.614 L18.738,23.614 C18.023,22.608 17.473,21.48 17.121,20.265 L4,20.265 L4,39.968 L29.252,39.968 L29.252,28.241 Z M18.676,17.17 C18.676,22.227 22.789,26.34 27.846,26.34 C32.902,26.34 37.016,22.227 37.016,17.17 C37.016,12.114 32.902,8 27.846,8 C22.789,8 18.676,12.114 18.676,17.17 L18.676,17.17 Z M45.999,32.241 C45.999,33.084 45.673,33.874 45.08,34.467 C44.467,35.08 43.661,35.387 42.854,35.387 C42.049,35.387 41.243,35.08 40.63,34.467 L33.157,26.994 C32.554,27.322 31.916,27.592 31.252,27.805 L31.252,40.968 C31.252,41.521 30.805,41.968 30.252,41.968 L3,41.968 C2.447,41.968 2,41.521 2,40.968 L2,19.265 C2,18.712 2.447,18.265 3,18.265 L16.731,18.265 C16.696,17.905 16.676,17.539 16.676,17.17 C16.676,11.011 21.686,6 27.846,6 C34.005,6 39.016,11.011 39.016,17.17 C39.016,19.124 38.509,20.96 37.624,22.559 L45.08,30.017 C45.673,30.61 45.999,31.4 45.999,32.241 L45.999,32.241 Z M25.178,21.835 L21.769,18.973 L23.057,17.442 L25.746,19.7 L32.391,12.745 L33.837,14.126 L26.544,21.76 C26.349,21.965 26.085,22.07 25.821,22.07 C25.594,22.07 25.365,21.992 25.178,21.835 L25.178,21.835 Z" id="Amazon-Machine-Learning_Train-Icon_light-bg" fill="#56C0A7"></path>
    </g>
</svg>