<?xml version="1.0" encoding="UTF-8"?>
<svg width="48px" height="48px" viewBox="0 0 48 48" version="1.1" xmlns="http://www.w3.org/2000/svg" xmlns:xlink="http://www.w3.org/1999/xlink">
    <title>Icon-Resource/Networking-and-Content-Delivery/Res_Icon-Amazon-VPC_Access-Analyzer_48_Dark</title>
    <g id="Icon-Resource/Networking-and-Content-Delivery/Res_Icon-Amazon-VPC_Access-Analyzer_48" stroke="none" stroke-width="1" fill="none" fill-rule="evenodd">
        <path d="M37,39.121 L42,39.121 L42,37.121 L37,37.121 L37,39.121 Z M32,41.121 C32.023,41.121 32.047,41.12 32.071,41.118 C32.36,41.098 32.626,40.953 32.8,40.721 L35.8,36.721 L34.2,35.521 L31.892,38.598 L30.707,37.414 L29.293,38.828 L31.293,40.828 C31.481,41.016 31.735,41.121 32,41.121 L32,41.121 Z M37,32.121 L42,32.121 L42,30.121 L37,30.121 L37,32.121 Z M32,34.121 C32.023,34.121 32.047,34.12 32.071,34.118 C32.36,34.098 32.626,33.953 32.8,33.721 L35.8,29.721 L34.2,28.521 L31.892,31.598 L30.707,30.414 L29.293,31.828 L31.293,33.828 C31.481,34.016 31.735,34.121 32,34.121 L32,34.121 Z M28,43.993 L44,43.993 L44,24.993 L28,24.993 L28,43.993 Z M46,23.993 L46,44.993 C46,45.545 45.553,45.993 45,45.993 L27,45.993 C26.447,45.993 26,45.545 26,44.993 L26,23.993 C26,23.441 26.447,22.993 27,22.993 L45,22.993 C45.553,22.993 46,23.441 46,23.993 L46,23.993 Z M20,25.993 C20.256,25.993 20.512,25.895 20.707,25.7 L23.707,22.7 L22.293,21.286 L21,22.579 L21,13.407 L22.293,14.7 L23.707,13.286 L20.707,10.286 C20.316,9.895 19.684,9.895 19.293,10.286 L16.293,13.286 L17.707,14.7 L19,13.407 L19,22.579 L17.707,21.286 L16.293,22.7 L19.293,25.7 C19.488,25.895 19.744,25.993 20,25.993 L20,25.993 Z M14.707,21.7 L17.707,18.7 C18.098,18.309 18.098,17.677 17.707,17.286 L14.707,14.286 L13.293,15.7 L14.586,16.993 L11,16.993 L11,18.993 L14.586,18.993 L13.293,20.286 L14.707,21.7 Z M25.414,18.993 L29,18.993 L29,16.993 L25.414,16.993 L26.707,15.7 L25.293,14.286 L22.293,17.286 C21.902,17.677 21.902,18.309 22.293,18.7 L25.293,21.7 L26.707,20.286 L25.414,18.993 Z M12,28.993 L24,28.993 L24,30.993 L12,30.993 C11.49,30.993 11.039,30.997 10.635,31 C10.315,31.003 10.021,31.005 9.748,31.005 C8.272,31.005 7.389,30.935 6.396,30.447 C4.368,29.45 2,26.764 2,22.475 C2,17.122 5.532,15.07 7.71,14.313 L7.679,13.774 C7.677,9.274 10.644,4.664 14.578,2.993 C19.185,1.035 24.066,2.008 27.632,5.596 C28.677,6.646 29.543,7.907 30.218,9.357 C31.626,8.306 33.469,7.971 35.182,8.533 C37.443,9.276 38.864,11.335 39.069,14.11 C41.577,14.828 45.002,17.006 45.97,20.878 L44.03,21.364 C43.083,17.577 39.294,16.13 37.913,15.892 C37.377,15.8 37.014,15.296 37.094,14.759 C37.096,12.562 36.171,10.963 34.558,10.433 C33.14,9.967 31.572,10.483 30.662,11.717 C30.443,12.014 30.07,12.168 29.71,12.113 C29.344,12.058 29.037,11.805 28.914,11.456 C28.287,9.674 27.378,8.177 26.214,7.006 C24.788,5.572 20.878,2.49 15.359,4.833 C12.173,6.187 9.677,10.089 9.677,13.716 L9.753,14.983 C9.781,15.461 9.467,15.891 9.004,16.011 C7.135,16.49 4,17.968 4,22.475 C4,25.845 5.766,27.909 7.278,28.652 C7.997,29.006 8.604,29.016 10.618,29 C11.027,28.997 11.484,28.993 12,28.993 L12,28.993 Z" id="Fill-1" fill="#A166FF"></path>
    </g>
</svg>