<?xml version="1.0" encoding="UTF-8"?>
<svg width="48px" height="48px" viewBox="0 0 48 48" version="1.1" xmlns="http://www.w3.org/2000/svg" xmlns:xlink="http://www.w3.org/1999/xlink">
    <title>Icon-Resource/Security-Identity-and-Compliance/Res_AWS-WAF_Filtering-Rule_48_Dark</title>
    <g id="Icon-Resource/Security-Identity-and-Compliance/Res_AWS-WAF_Filtering-Rule_48" stroke="none" stroke-width="1" fill="none" fill-rule="evenodd">
        <path d="M25.7781,30.4726 C25.6791,30.6316 25.6271,30.8146 25.6271,31.0016 L25.6271,35.5946 C25.4371,35.6786 25.2471,35.7646 25.0561,35.8516 C24.1611,36.2566 23.2441,36.6726 22.3761,36.8746 L22.3761,31.0016 C22.3761,30.8146 22.3231,30.6306 22.2231,30.4716 L13.8211,17.0326 C15.8711,17.4796 19.0631,17.7946 24.0051,17.7946 C28.9221,17.7946 32.1081,17.4826 34.1591,17.0386 L25.7781,30.4726 Z M24.0051,13.9516 C29.3891,13.9516 32.9991,14.4336 34.7271,14.8726 C33.0001,15.3136 29.3901,15.7946 24.0051,15.7946 C18.6201,15.7946 15.0101,15.3136 13.2831,14.8726 C15.0101,14.4336 18.6201,13.9516 24.0051,13.9516 L24.0051,13.9516 Z M24.0051,11.9516 C12.0981,11.9516 10.3211,13.7826 10.3211,14.8726 C10.3211,15.0456 10.3671,15.2386 10.4901,15.4386 L10.4731,15.4496 L20.3761,31.2886 L20.3761,38.0016 C20.3761,38.5546 20.8231,39.0016 21.3761,39.0016 C22.9501,39.0016 24.4411,38.3266 25.8821,37.6726 C26.2611,37.5006 26.6371,37.3296 27.0091,37.1756 C27.3831,37.0206 27.6271,36.6566 27.6271,36.2516 L27.6271,31.2876 L37.4461,15.5476 C37.6271,15.3086 37.6891,15.0766 37.6891,14.8726 C37.6891,13.7826 35.9111,11.9516 24.0051,11.9516 L24.0051,11.9516 Z M24.0011,44.0026 C12.9721,44.0026 4.0001,35.0306 4.0001,24.0006 C4.0001,12.9726 12.9721,3.9996 24.0011,3.9996 C35.0301,3.9996 44.0031,12.9726 44.0031,24.0006 C44.0031,35.0306 35.0301,44.0026 24.0011,44.0026 L24.0011,44.0026 Z M24.0011,1.9996 C11.8691,1.9996 2.0001,11.8686 2.0001,24.0006 C2.0001,36.1326 11.8691,46.0026 24.0011,46.0026 C36.1321,46.0026 46.0031,36.1326 46.0031,24.0006 C46.0031,11.8686 36.1321,1.9996 24.0011,1.9996 L24.0011,1.9996 Z" id="AWS-WAF_Filtering-rule_Resource-Icon_light-bg" fill="#FF5252"></path>
    </g>
</svg>