<?xml version="1.0" encoding="UTF-8"?>
<svg width="48px" height="48px" viewBox="0 0 48 48" version="1.1" xmlns="http://www.w3.org/2000/svg" xmlns:xlink="http://www.w3.org/1999/xlink">
    <title>Icon-Resource/Networking-and-Content-Delivery/Res_AWS-Elastic-Load-Balancing_Network-Load-Balancer_48_Dark</title>
    <g id="Icon-Resource/Networking-and-Content-Delivery/Res_AWS-Elastic-Load-Balancing_Network-Load-Balancer_48" stroke="none" stroke-width="1" fill="none" fill-rule="evenodd">
        <path d="M24.0015,44.0029 C12.9725,44.0029 3.9995,35.0299 3.9995,24.0009 C3.9995,12.9729 12.9725,3.9999 24.0015,3.9999 C35.0295,3.9999 44.0025,12.9729 44.0025,24.0009 C44.0025,35.0299 35.0295,44.0029 24.0015,44.0029 L24.0015,44.0029 Z M24.0015,1.9999 C11.8695,1.9999 1.9995,11.8689 1.9995,24.0009 C1.9995,36.1329 11.8695,46.0029 24.0015,46.0029 C36.1335,46.0029 46.0025,36.1329 46.0025,24.0009 C46.0025,11.8689 36.1335,1.9999 24.0015,1.9999 L24.0015,1.9999 Z M29.0835,23.2939 C29.4745,23.6849 29.4745,24.3169 29.0835,24.7079 L26.1405,27.6539 L24.7265,26.2399 L25.9645,25.0009 L18.7505,25.0009 L18.7505,23.0009 L25.9645,23.0009 L24.7265,21.7619 L26.1405,20.3479 L29.0835,23.2939 Z M32.0015,35.2519 L35.2515,35.2519 L35.2515,32.0019 L32.0015,32.0019 L32.0015,35.2519 Z M36.2515,30.0019 L31.0015,30.0019 C30.4485,30.0019 30.0015,30.4489 30.0015,31.0019 L30.0015,36.2519 C30.0015,36.8049 30.4485,37.2519 31.0015,37.2519 L36.2515,37.2519 C36.8045,37.2519 37.2515,36.8049 37.2515,36.2519 L37.2515,31.0019 C37.2515,30.4489 36.8045,30.0019 36.2515,30.0019 L36.2515,30.0019 Z M17.6665,18.7409 L24.9615,14.8909 L23.3945,14.4659 L23.9175,12.5359 L27.9365,13.6249 C28.4695,13.7699 28.7835,14.3179 28.6395,14.8519 L27.5505,18.8729 L25.6205,18.3499 L26.1085,16.5469 L18.6005,20.5109 L17.6665,18.7409 Z M32.0015,16.0009 L35.2515,16.0009 L35.2515,12.7509 L32.0015,12.7509 L32.0015,16.0009 Z M36.2515,10.7509 L31.0015,10.7509 C30.4485,10.7509 30.0015,11.1979 30.0015,11.7509 L30.0015,17.0009 C30.0015,17.5539 30.4485,18.0009 31.0015,18.0009 L36.2515,18.0009 C36.8045,18.0009 37.2515,17.5539 37.2515,17.0009 L37.2515,11.7509 C37.2515,11.1979 36.8045,10.7509 36.2515,10.7509 L36.2515,10.7509 Z M8.3455,27.3469 L15.0355,27.3469 L15.0355,20.6569 L8.3455,20.6569 L8.3455,27.3469 Z M16.0355,18.6559 L7.3455,18.6559 C6.7925,18.6559 6.3455,19.1039 6.3455,19.6559 L6.3455,28.3469 C6.3455,28.8989 6.7925,29.3469 7.3455,29.3469 L16.0355,29.3469 C16.5885,29.3469 17.0355,28.8989 17.0355,28.3469 L17.0355,19.6559 C17.0355,19.1039 16.5885,18.6559 16.0355,18.6559 L16.0355,18.6559 Z M28.6395,33.1499 C28.7835,33.6839 28.4695,34.2319 27.9365,34.3769 L23.9175,35.4669 L23.3945,33.5369 L24.9625,33.1119 L17.6665,29.2619 L18.6005,27.4919 L26.1085,31.4549 L25.6205,29.6519 L27.5505,29.1289 L28.6395,33.1499 Z M32.0015,25.6259 L35.2515,25.6259 L35.2515,22.3759 L32.0015,22.3759 L32.0015,25.6259 Z M36.2515,20.3759 L31.0015,20.3759 C30.4485,20.3759 30.0015,20.8229 30.0015,21.3759 L30.0015,26.6259 C30.0015,27.1789 30.4485,27.6259 31.0015,27.6259 L36.2515,27.6259 C36.8045,27.6259 37.2515,27.1789 37.2515,26.6259 L37.2515,21.3759 C37.2515,20.8229 36.8045,20.3759 36.2515,20.3759 L36.2515,20.3759 Z" id="AWS-Elastic-Load-Balancing_Network-Load-Balancer_Resource-Icon_light-bg" fill="#A166FF"></path>
    </g>
</svg>