<?xml version="1.0" encoding="UTF-8"?>
<svg width="14px" height="14px" viewBox="0 0 14 14" version="1.1" xmlns="http://www.w3.org/2000/svg" xmlns:xlink="http://www.w3.org/1999/xlink">
    <title>747A9739-825A-488E-A4AF-868037D6BF7B</title>
    <defs>
        <filter id="filter-1">
            <feColorMatrix in="SourceGraphic" type="matrix" values="0 0 0 0 1.000000 0 0 0 0 1.000000 0 0 0 0 1.000000 0 0 0 1.000000 0"></feColorMatrix>
        </filter>
        <filter id="filter-2">
            <feColorMatrix in="SourceGraphic" type="matrix" values="0 0 0 0 1.000000 0 0 0 0 1.000000 0 0 0 0 1.000000 0 0 0 1.000000 0"></feColorMatrix>
        </filter>
    </defs>
    <g id="Visual-directions" stroke="none" stroke-width="1" fill="none" fill-rule="evenodd" fill-opacity="0.88">
        <g id="Dashboard" transform="translate(-695.000000, -19.000000)">
            <g id="Universal-header" transform="translate(119.000000, 0.000000)">
                <g id="Group-3" transform="translate(575.000000, 16.000000)">
                    <g id="Icons-/-dashboard-Copy-4" transform="translate(0.000000, 2.000000)" filter="url(#filter-1)">
                        <g filter="url(#filter-2)" id="Icon-/-Download">
                            <g transform="translate(1.000000, 1.000000)">
                                <path d="M13,9.00050259 C13.3681898,9.00050259 13.6666667,9.29899442 13.6666667,9.66720276 L13.6666667,12.0006534 C13.6666667,12.9211742 12.9204746,13.6674038 12,13.6674038 L2,13.6674038 C1.07952542,13.6674038 0.333333333,12.9211742 0.333333333,12.0006534 L0.333333333,9.66720276 C0.333333333,9.29899442 0.631810167,9.00050259 1,9.00050259 C1.36818983,9.00050259 1.66666667,9.29899442 1.66666667,9.66720276 L1.66666667,12.0006534 C1.66666667,12.1847575 1.81590508,12.3340035 2,12.3340035 L12,12.3340035 C12.1840949,12.3340035 12.3333333,12.1847575 12.3333333,12.0006534 L12.3333333,9.66720276 C12.3333333,9.29899442 12.6318102,9.00050259 13,9.00050259 Z M7,0.333400345 C7.36818983,0.333400345 7.66666667,0.63189218 7.66666667,1.00010052 L7.66633333,7.39040035 L9.86192881,5.19557351 C10.1222783,4.9352109 10.5443883,4.9352109 10.8047379,5.19557351 C11.0650874,5.45593613 11.0650874,5.87806733 10.8047379,6.13842994 L7.47140452,9.4719308 L7.45826711,9.48471469 C7.44122793,9.50084802 7.42333771,9.51609154 7.40467084,9.53037088 L7.47140452,9.4719308 C7.4424768,9.50085998 7.41155203,9.52657481 7.379074,9.54907528 C7.36349046,9.55981943 7.34692325,9.57027001 7.32988584,9.5799908 C7.31497998,9.58852732 7.30047691,9.59607074 7.28577133,9.60304547 C7.26874044,9.61112671 7.25081499,9.61872103 7.23250936,9.6255341 C7.22239433,9.62926824 7.21230295,9.63273827 7.20214969,9.63595925 C7.13158265,9.65733526 7.06694361,9.66720276 7,9.66720276 C6.93117596,9.66720276 6.86478776,9.65677312 6.80232956,9.63740807 C6.78948529,9.63339793 6.77629418,9.62886866 6.76322747,9.62391409 C6.74513643,9.61704605 6.72769124,9.60952648 6.71064936,9.6013031 C6.69921014,9.59581978 6.68810865,9.590077 6.6771421,9.58400148 C6.65788108,9.5732598 6.63925539,9.56168396 6.62127087,9.5492467 C6.61218162,9.54303853 6.60271549,9.53612867 6.59339598,9.52893836 C6.57503605,9.51470254 6.55799679,9.50011395 6.54173289,9.48471469 C6.53753262,9.48074534 6.53304047,9.47637602 6.52859548,9.4719308 L3.19526215,6.13842994 C2.93491262,5.87806733 2.93491262,5.45593613 3.19526215,5.19557351 C3.45561167,4.9352109 3.87772166,4.9352109 4.13807119,5.19557351 L6.33233333,7.39040035 L6.33333333,1.00010052 C6.33333333,0.63189218 6.63181017,0.333400345 7,0.333400345 Z" id="🎨-Icon-style" fill="#FFFFFF"></path>
                            </g>
                        </g>
                    </g>
                </g>
            </g>
        </g>
    </g>
</svg>