<?xml version="1.0" encoding="UTF-8"?>
<svg xmlns="http://www.w3.org/2000/svg" xmlns:xlink="http://www.w3.org/1999/xlink" width="38pt" height="40pt" viewBox="0 0 38 40" version="1.1">
<g id="surface1">
<path style=" stroke:none;fill-rule:nonzero;fill:rgb(25.882353%,52.156863%,95.686275%);fill-opacity:1;" d="M 37.980469 20.375 C 37.980469 18.734375 37.851562 17.539062 37.570312 16.300781 L 19.378906 16.300781 L 19.378906 23.695312 L 30.058594 23.695312 C 29.839844 25.535156 28.679688 28.300781 26.09375 30.164062 L 26.058594 30.410156 L 31.8125 34.992188 L 32.210938 35.035156 C 35.871094 31.558594 37.980469 26.441406 37.980469 20.375 "/>
<path style=" stroke:none;fill-rule:nonzero;fill:rgb(20.392157%,65.882353%,32.54902%);fill-opacity:1;" d="M 19.378906 39.863281 C 24.609375 39.863281 29.003906 38.089844 32.210938 35.035156 L 26.09375 30.164062 C 24.460938 31.335938 22.261719 32.15625 19.378906 32.15625 C 14.253906 32.15625 9.90625 28.679688 8.355469 23.875 L 8.128906 23.894531 L 2.148438 28.65625 L 2.070312 28.878906 C 5.253906 35.390625 11.800781 39.863281 19.378906 39.863281 "/>
<path style=" stroke:none;fill-rule:nonzero;fill:rgb(98.431373%,73.72549%,1.960784%);fill-opacity:1;" d="M 8.355469 23.875 C 7.945312 22.632812 7.710938 21.304688 7.710938 19.929688 C 7.710938 18.558594 7.945312 17.230469 8.332031 15.988281 L 8.324219 15.726562 L 2.265625 10.886719 L 2.070312 10.984375 C 0.753906 13.6875 0.00390625 16.71875 0.00390625 19.929688 C 0.00390625 23.140625 0.753906 26.175781 2.070312 28.878906 L 8.355469 23.875 "/>
<path style=" stroke:none;fill-rule:nonzero;fill:rgb(92.156863%,26.27451%,20.784314%);fill-opacity:1;" d="M 19.378906 7.707031 C 23.015625 7.707031 25.472656 9.324219 26.871094 10.675781 L 32.339844 5.183594 C 28.980469 1.972656 24.609375 0 19.378906 0 C 11.800781 0 5.253906 4.472656 2.070312 10.984375 L 8.332031 15.988281 C 9.90625 11.183594 14.253906 7.707031 19.378906 7.707031 "/>
</g>
</svg>
