<?xml version="1.0" encoding="UTF-8" standalone="no"?>
<svg
   xmlns:dc="http://purl.org/dc/elements/1.1/"
   xmlns:cc="http://creativecommons.org/ns#"
   xmlns:rdf="http://www.w3.org/1999/02/22-rdf-syntax-ns#"
   xmlns:svg="http://www.w3.org/2000/svg"
   xmlns="http://www.w3.org/2000/svg"
   xmlns:sodipodi="http://sodipodi.sourceforge.net/DTD/sodipodi-0.dtd"
   xmlns:inkscape="http://www.inkscape.org/namespaces/inkscape"
   width="248.0px"
   height="248.0px"
   viewBox="0 0 248.0 248.0"
   version="1.1"
   id="SVGRoot"
   sodipodi:docname="02390-icon-service-Azure-SQL White.svg"
   inkscape:version="1.0.2-2 (e86c870879, 2021-01-15)">
  <defs
     id="defs1402">
    <inkscape:path-effect
       effect="fillet_chamfer"
       id="path-effect2040"
       is_visible="true"
       lpeversion="1"
       satellites_param="F,0,0,1,0,0,0,1 @ F,0,0,1,0,6.0755415,0,1 @ F,0,0,1,0,6.1445293,0,1 @ F,0,0,1,0,0,0,1"
       unit="px"
       method="auto"
       mode="F"
       radius="0"
       chamfer_steps="1"
       flexible="false"
       use_knot_distance="true"
       apply_no_radius="true"
       apply_with_radius="true"
       only_selected="true"
       hide_knots="false" />
    <style
       id="style1979">.cls-1{fill:url(#GreenGradient);}.cls-2{fill:#fff;}</style>
    <linearGradient
       id="GreenGradient"
       x1="-522.53"
       y1="465.47"
       x2="-416.47"
       y2="571.53"
       gradientTransform="rotate(-90,-456.5,24.5)"
       gradientUnits="userSpaceOnUse">
      <stop
         offset="0"
         stop-color="#1b660f"
         id="stop1981" />
      <stop
         offset="1"
         stop-color="#6cae3e"
         id="stop1983" />
    </linearGradient>
    <linearGradient
       id="OrangeGradient"
       x1="1131.1"
       y1="-516.47998"
       x2="1131.1"
       y2="-366.48001"
       gradientTransform="rotate(-135,816.69218,-8.7994369)"
       gradientUnits="userSpaceOnUse">
      <stop
         offset="0"
         stop-color="#c8511b"
         id="stop138" />
      <stop
         offset="1"
         stop-color="#f90"
         id="stop140" />
    </linearGradient>
  </defs>
  <sodipodi:namedview
     id="base"
     pagecolor="#ffffff"
     bordercolor="#666666"
     borderopacity="1.0"
     inkscape:pageopacity="0"
     inkscape:pageshadow="2"
     inkscape:zoom="1.5733379"
     inkscape:cx="124"
     inkscape:cy="124"
     inkscape:document-units="px"
     inkscape:current-layer="layer2"
     inkscape:document-rotation="0"
     showgrid="true"
     inkscape:window-width="1366"
     inkscape:window-height="705"
     inkscape:window-x="-8"
     inkscape:window-y="-8"
     inkscape:window-maximized="1"
     inkscape:snap-global="false"
     showguides="true">
    <inkscape:grid
       type="xygrid"
       id="grid1972" />
  </sodipodi:namedview>
  <metadata
     id="metadata1405">
    <rdf:RDF>
      <cc:Work
         rdf:about="">
        <dc:format>image/svg+xml</dc:format>
        <dc:type
           rdf:resource="http://purl.org/dc/dcmitype/StillImage" />
        <dc:title />
      </cc:Work>
    </rdf:RDF>
  </metadata>
  <g
     inkscape:groupmode="layer"
     id="layer3"
     inkscape:label="BG" />
  <g
     inkscape:groupmode="layer"
     id="layer4"
     inkscape:label="Bounding Box" />
  <g
     inkscape:groupmode="layer"
     id="layer2"
     inkscape:label="Top">
    <g
       id="g858"
       transform="translate(-0.19315289,-0.04989999)">
      <path
         style="fill:none;fill-opacity:1;stroke:#000000;stroke-width:4.5;stroke-linecap:round;stroke-linejoin:round;stroke-miterlimit:4;stroke-dasharray:none;stroke-opacity:1;paint-order:normal"
         id="path883"
         sodipodi:type="arc"
         sodipodi:cx="154.57903"
         sodipodi:cy="83.172447"
         sodipodi:rx="111.24604"
         sodipodi:ry="111.24604"
         sodipodi:start="5.9893981"
         sodipodi:end="5.9807042"
         sodipodi:open="true"
         sodipodi:arc-type="arc"
         transform="rotate(16.68412)"
         d="M 261.05862,50.957904 A 111.24604,111.24604 0 0 1 187.02492,189.58178 111.24604,111.24604 0 0 1 48.240468,115.84955 111.24604,111.24604 0 0 1 121.67088,-23.094836 111.24604,111.24604 0 0 1 260.77453,50.03341" />
      <path
         style="fill:#3d3846;fill-opacity:0.326613;stroke:none;stroke-width:4.45107;stroke-linecap:round;stroke-linejoin:round;stroke-miterlimit:4;stroke-dasharray:none;stroke-opacity:1;paint-order:normal"
         id="path885"
         sodipodi:type="arc"
         sodipodi:cx="154.57903"
         sodipodi:cy="83.172447"
         sodipodi:rx="110.03654"
         sodipodi:ry="110.03654"
         sodipodi:start="5.9893981"
         sodipodi:end="5.9807042"
         sodipodi:open="true"
         sodipodi:arc-type="arc"
         transform="rotate(16.68412)"
         d="M 259.90094,51.308151 A 110.03654,110.03654 0 0 1 186.67216,188.42486 110.03654,110.03654 0 0 1 49.396616,115.49427 110.03654,110.03654 0 0 1 122.02867,-21.939463 110.03654,110.03654 0 0 1 259.61994,50.393709" />
    </g>
    <g
       id="g26"
       transform="matrix(9.0135628,0,0,9.0135628,42.877935,45.67905)">
      <path
         d="M 14.49,7.15 A 5.147,5.147 0 0 0 9.24,2.164 5.272,5.272 0 0 0 4.216,5.653 4.869,4.869 0 0 0 0,10.4 4.946,4.946 0 0 0 5.068,15.214 H 13.82 A 4.292,4.292 0 0 0 18,11.127 4.105,4.105 0 0 0 14.49,7.15 Z"
         fill="url(#f67d1585-6164-4ad0-b2dd-f9cc59b2969f)"
         id="path11"
         style="fill:#4997e9;fill-opacity:1" />
      <path
         d="M 12.9,11.4 V 8 H 12 v 4.13 h 2.46 V 11.4 Z M 5.76,9.73 A 1.825,1.825 0 0 1 5.25,9.42 0.441,0.441 0 0 1 5.13,9.1 0.342,0.342 0 0 1 5.28,8.8 0.683,0.683 0 0 1 5.7,8.68 1.62,1.62 0 0 1 6.7,8.97 V 8.11 A 2.58,2.58 0 0 0 5.7,7.95 1.641,1.641 0 0 0 4.61,8.29 1.08,1.08 0 0 0 4.19,9.18 c 0,0.51 0.32,0.91 1,1.21 A 2.907,2.907 0 0 1 5.81,10.75 0.419,0.419 0 0 1 5.96,11.07 0.381,0.381 0 0 1 5.8,11.38 0.806,0.806 0 0 1 5.35,11.49 1.66,1.66 0 0 1 4.26,11.07 V 12 A 2.173,2.173 0 0 0 5.33,12.24 1.877,1.877 0 0 0 6.51,11.91 1.08,1.08 0 0 0 6.84,11 1.048,1.048 0 0 0 6.59,10.3 2.425,2.425 0 0 0 5.76,9.73 Z M 11,11.32 A 2.191,2.191 0 0 0 11,9 1.808,1.808 0 0 0 10.3,8.25 2,2 0 0 0 9.3,7.99 2.112,2.112 0 0 0 8.22,8.26 1.856,1.856 0 0 0 7.49,9 a 2.465,2.465 0 0 0 -0.26,1.14 2.256,2.256 0 0 0 0.24,1 1.766,1.766 0 0 0 0.69,0.74 2.056,2.056 0 0 0 1,0.3 l 0.86,1 h 1.21 L 10,12.08 a 1.79,1.79 0 0 0 1,-0.76 z m -1,-0.25 a 0.941,0.941 0 0 1 -0.76,0.35 0.916,0.916 0 0 1 -0.76,-0.36 1.523,1.523 0 0 1 -0.29,-1 1.529,1.529 0 0 1 0.29,-1 1,1 0 0 1 0.78,-0.37 0.869,0.869 0 0 1 0.75,0.37 1.619,1.619 0 0 1 0.27,1 1.459,1.459 0 0 1 -0.28,1.01 z"
         fill="#f2f2f2"
         id="path13" />
    </g>
  </g>
</svg>
