<?xml version="1.0" encoding="UTF-8" standalone="no"?>
<svg
   xmlns:dc="http://purl.org/dc/elements/1.1/"
   xmlns:cc="http://creativecommons.org/ns#"
   xmlns:rdf="http://www.w3.org/1999/02/22-rdf-syntax-ns#"
   xmlns:svg="http://www.w3.org/2000/svg"
   xmlns="http://www.w3.org/2000/svg"
   xmlns:sodipodi="http://sodipodi.sourceforge.net/DTD/sodipodi-0.dtd"
   xmlns:inkscape="http://www.inkscape.org/namespaces/inkscape"
   width="248.0px"
   height="248.0px"
   viewBox="0 0 248.0 248.0"
   version="1.1"
   id="SVGRoot"
   sodipodi:docname="10309-icon-service-Azure-Media-Service White.svg"
   inkscape:version="1.0.2-2 (e86c870879, 2021-01-15)">
  <defs
     id="defs1402">
    <inkscape:path-effect
       effect="fillet_chamfer"
       id="path-effect2040"
       is_visible="true"
       lpeversion="1"
       satellites_param="F,0,0,1,0,0,0,1 @ F,0,0,1,0,6.0755415,0,1 @ F,0,0,1,0,6.1445293,0,1 @ F,0,0,1,0,0,0,1"
       unit="px"
       method="auto"
       mode="F"
       radius="0"
       chamfer_steps="1"
       flexible="false"
       use_knot_distance="true"
       apply_no_radius="true"
       apply_with_radius="true"
       only_selected="true"
       hide_knots="false" />
    <style
       id="style1979">.cls-1{fill:url(#GreenGradient);}.cls-2{fill:#fff;}</style>
    <linearGradient
       id="GreenGradient"
       x1="-522.53"
       y1="465.47"
       x2="-416.47"
       y2="571.53"
       gradientTransform="rotate(-90,-456.5,24.5)"
       gradientUnits="userSpaceOnUse">
      <stop
         offset="0"
         stop-color="#1b660f"
         id="stop1981" />
      <stop
         offset="1"
         stop-color="#6cae3e"
         id="stop1983" />
    </linearGradient>
    <linearGradient
       id="OrangeGradient"
       x1="1131.1"
       y1="-516.47998"
       x2="1131.1"
       y2="-366.48001"
       gradientTransform="rotate(-135,816.69218,-8.7994369)"
       gradientUnits="userSpaceOnUse">
      <stop
         offset="0"
         stop-color="#c8511b"
         id="stop138" />
      <stop
         offset="1"
         stop-color="#f90"
         id="stop140" />
    </linearGradient>
    <linearGradient
       id="fcd6c6c7-e2eb-4a32-b914-3a8485585a1b"
       x1="12.96"
       y1="8.5609999"
       x2="12.96"
       y2="6.1409998"
       gradientTransform="matrix(1,0,0,-1,0,20)"
       gradientUnits="userSpaceOnUse">
      <stop
         offset="0"
         stop-color="#333132"
         id="stop7" />
      <stop
         offset="1"
         stop-color="#5b5a5c"
         id="stop9" />
    </linearGradient>
    <linearGradient
       id="af3748e9-b70c-45be-94d6-553fb78dc833"
       x1="-481.38599"
       y1="-747.70099"
       x2="-463.78201"
       y2="-778.24701"
       gradientTransform="matrix(0.5,0.866,-0.866,0.5,-419.682,794.08)"
       gradientUnits="userSpaceOnUse">
      <stop
         offset="0"
         stop-color="#005ba1"
         id="stop2" />
      <stop
         offset="0.366"
         stop-color="#004e8f"
         id="stop4" />
      <stop
         offset="1"
         stop-color="#003067"
         id="stop6" />
    </linearGradient>
    <linearGradient
       id="bccb774a-3f0f-4cfb-8caf-da5943d5aaf7"
       x1="-1395.588"
       y1="671.23901"
       x2="-1374.204"
       y2="633.73798"
       gradientTransform="matrix(-0.5,-0.866,0.866,-0.5,-1249.226,-858.396)"
       gradientUnits="userSpaceOnUse">
      <stop
         offset="0"
         stop-color="#005ba1"
         id="stop9-1" />
      <stop
         offset="0.451"
         stop-color="#004685"
         id="stop11" />
      <stop
         offset="1"
         stop-color="#003067"
         id="stop13" />
    </linearGradient>
    <linearGradient
       id="ecd98112-5cbf-4c9b-800a-df61d86f7d77"
       x1="6.0029998"
       y1="14.447"
       x2="7.447"
       y2="6.204"
       gradientUnits="userSpaceOnUse">
      <stop
         offset="0.26"
         stop-color="#50e6ff"
         id="stop16" />
      <stop
         offset="0.42"
         stop-color="#79eaff"
         id="stop18" />
      <stop
         offset="0.58"
         stop-color="#99edff"
         id="stop20" />
      <stop
         offset="0.733"
         stop-color="#b0efff"
         id="stop22" />
      <stop
         offset="0.876"
         stop-color="#bef1ff"
         id="stop24" />
      <stop
         offset="1"
         stop-color="#c3f1ff"
         id="stop26" />
    </linearGradient>
  </defs>
  <sodipodi:namedview
     id="base"
     pagecolor="#ffffff"
     bordercolor="#666666"
     borderopacity="1.0"
     inkscape:pageopacity="0"
     inkscape:pageshadow="2"
     inkscape:zoom="1.1673772"
     inkscape:cx="124"
     inkscape:cy="124"
     inkscape:document-units="px"
     inkscape:current-layer="layer2"
     inkscape:document-rotation="0"
     showgrid="true"
     inkscape:window-width="1366"
     inkscape:window-height="705"
     inkscape:window-x="-8"
     inkscape:window-y="-8"
     inkscape:window-maximized="1"
     inkscape:snap-global="false"
     showguides="true">
    <inkscape:grid
       type="xygrid"
       id="grid1972" />
  </sodipodi:namedview>
  <metadata
     id="metadata1405">
    <rdf:RDF>
      <cc:Work
         rdf:about="">
        <dc:format>image/svg+xml</dc:format>
        <dc:type
           rdf:resource="http://purl.org/dc/dcmitype/StillImage" />
        <dc:title />
      </cc:Work>
    </rdf:RDF>
  </metadata>
  <g
     inkscape:groupmode="layer"
     id="layer3"
     inkscape:label="BG" />
  <g
     inkscape:groupmode="layer"
     id="layer4"
     inkscape:label="Bounding Box" />
  <g
     inkscape:groupmode="layer"
     id="layer2"
     inkscape:label="Top">
    <g
       id="g858"
       transform="translate(-0.19315289,-0.04989999)">
      <path
         style="fill:none;fill-opacity:1;stroke:#000000;stroke-width:4.5;stroke-linecap:round;stroke-linejoin:round;stroke-miterlimit:4;stroke-dasharray:none;stroke-opacity:1;paint-order:normal"
         id="path883"
         sodipodi:type="arc"
         sodipodi:cx="154.57903"
         sodipodi:cy="83.172447"
         sodipodi:rx="111.24604"
         sodipodi:ry="111.24604"
         sodipodi:start="5.9893981"
         sodipodi:end="5.9807042"
         sodipodi:open="true"
         sodipodi:arc-type="arc"
         transform="rotate(16.68412)"
         d="M 261.05862,50.957904 A 111.24604,111.24604 0 0 1 187.02492,189.58178 111.24604,111.24604 0 0 1 48.240468,115.84955 111.24604,111.24604 0 0 1 121.67088,-23.094836 111.24604,111.24604 0 0 1 260.77453,50.03341" />
      <path
         style="fill:#3d3846;fill-opacity:0.326613;stroke:none;stroke-width:4.45107;stroke-linecap:round;stroke-linejoin:round;stroke-miterlimit:4;stroke-dasharray:none;stroke-opacity:1;paint-order:normal"
         id="path885"
         sodipodi:type="arc"
         sodipodi:cx="154.57903"
         sodipodi:cy="83.172447"
         sodipodi:rx="110.03654"
         sodipodi:ry="110.03654"
         sodipodi:start="5.9893981"
         sodipodi:end="5.9807042"
         sodipodi:open="true"
         sodipodi:arc-type="arc"
         transform="rotate(16.68412)"
         d="M 259.90094,51.308151 A 110.03654,110.03654 0 0 1 186.67216,188.42486 110.03654,110.03654 0 0 1 49.396616,115.49427 110.03654,110.03654 0 0 1 122.02867,-21.939463 110.03654,110.03654 0 0 1 259.61994,50.393709" />
    </g>
    <g
       id="g66"
       transform="matrix(8.1263301,0,0,8.1263301,50.720874,50.860685)">
      <g
         id="g43">
        <path
           d="m 9.243,3.927 4.372,2.515 3.048,-1.76 A 8.792,8.792 0 0 0 2.735,2.824 10.019,10.019 0 0 1 9.243,3.927 Z"
           fill="url(#af3748e9-b70c-45be-94d6-553fb78dc833)"
           id="path31"
           style="fill:url(#af3748e9-b70c-45be-94d6-553fb78dc833)" />
        <path
           d="m 13.558,6.442 -0.069,6.034 3.168,0.851 A 8.792,8.792 0 0 0 11.415,0.536 10.442,10.442 0 0 1 13.558,6.442 Z"
           fill="#0078d4"
           id="path33" />
        <path
           d="M 13.552,11.646 9,14.276 l 0.071,3.5 a 8.8,8.8 0 0 0 8.764,-8.8 8.432,8.432 0 0 0 -0.288,-2.09 9.573,9.573 0 0 1 -3.995,4.76 z"
           fill="#5ea0ef"
           id="path35" />
        <path
           d="m 9,14.276 -4.555,-2.63 -3.02,1.812 A 8.78,8.78 0 0 0 15.097,15.339 9.908,9.908 0 0 1 9,14.276 Z"
           fill="url(#bccb774a-3f0f-4cfb-8caf-da5943d5aaf7)"
           id="path37"
           style="fill:url(#bccb774a-3f0f-4cfb-8caf-da5943d5aaf7)" />
        <path
           d="M 4.442,11.646 4.511,5.409 1.394,4.588 A 8.744,8.744 0 0 0 0.2,9 8.847,8.847 0 0 0 6.735,17.5 10.191,10.191 0 0 1 4.442,11.646 Z"
           fill="#0078d4"
           id="path39" />
        <path
           d="M 4.6,6.3 9,3.757 A 10.579,10.579 0 0 0 3.058,2.512 8.758,8.758 0 0 0 0.2,9 9.013,9.013 0 0 0 0.514,11.32 10.25,10.25 0 0 1 4.6,6.3 Z"
           fill="#5ea0ef"
           id="path41" />
      </g>
      <polygon
         points="8.997,14.276 13.552,11.646 13.552,6.386 8.997,3.757 4.442,6.386 4.442,11.646 "
         fill="#c3f1ff"
         id="polygon45" />
      <polygon
         points="9.003,14.276 4.442,11.646 4.442,6.404 9.003,9.071 "
         fill="url(#ecd98112-5cbf-4c9b-800a-df61d86f7d77)"
         id="polygon47"
         style="fill:url(#ecd98112-5cbf-4c9b-800a-df61d86f7d77)" />
      <polygon
         points="8.997,14.276 13.558,11.646 13.558,6.404 8.997,9.071 "
         fill="#50e6ff"
         id="polygon49" />
    </g>
  </g>
</svg>
