<?xml version="1.0" encoding="UTF-8" standalone="no"?>
<svg
   xmlns:dc="http://purl.org/dc/elements/1.1/"
   xmlns:cc="http://creativecommons.org/ns#"
   xmlns:rdf="http://www.w3.org/1999/02/22-rdf-syntax-ns#"
   xmlns:svg="http://www.w3.org/2000/svg"
   xmlns="http://www.w3.org/2000/svg"
   xmlns:sodipodi="http://sodipodi.sourceforge.net/DTD/sodipodi-0.dtd"
   xmlns:inkscape="http://www.inkscape.org/namespaces/inkscape"
   width="248.0px"
   height="248.0px"
   viewBox="0 0 248.0 248.0"
   version="1.1"
   id="SVGRoot"
   sodipodi:docname="174401 Dark.svg"
   inkscape:version="1.0.2-2 (e86c870879, 2021-01-15)">
  <defs
     id="defs1402">
    <inkscape:path-effect
       effect="fillet_chamfer"
       id="path-effect2040"
       is_visible="true"
       lpeversion="1"
       satellites_param="F,0,0,1,0,0,0,1 @ F,0,0,1,0,6.0755415,0,1 @ F,0,0,1,0,6.1445293,0,1 @ F,0,0,1,0,0,0,1"
       unit="px"
       method="auto"
       mode="F"
       radius="0"
       chamfer_steps="1"
       flexible="false"
       use_knot_distance="true"
       apply_no_radius="true"
       apply_with_radius="true"
       only_selected="true"
       hide_knots="false" />
    <style
       id="style1979">.cls-1{fill:url(#GreenGradient);}.cls-2{fill:#fff;}</style>
    <linearGradient
       id="GreenGradient"
       x1="-522.53"
       y1="465.47"
       x2="-416.47"
       y2="571.53"
       gradientTransform="rotate(-90,-456.5,24.5)"
       gradientUnits="userSpaceOnUse">
      <stop
         offset="0"
         stop-color="#1b660f"
         id="stop1981" />
      <stop
         offset="1"
         stop-color="#6cae3e"
         id="stop1983" />
    </linearGradient>
  </defs>
  <sodipodi:namedview
     id="base"
     pagecolor="#101010"
     bordercolor="#666666"
     borderopacity="1.0"
     inkscape:pageopacity="0"
     inkscape:pageshadow="2"
     inkscape:zoom="1.1107323"
     inkscape:cx="91.64585"
     inkscape:cy="124"
     inkscape:document-units="px"
     inkscape:current-layer="layer2"
     inkscape:document-rotation="0"
     showgrid="true"
     inkscape:window-width="1366"
     inkscape:window-height="705"
     inkscape:window-x="-8"
     inkscape:window-y="-8"
     inkscape:window-maximized="1"
     inkscape:snap-global="false"
     showguides="true">
    <inkscape:grid
       type="xygrid"
       id="grid1972" />
  </sodipodi:namedview>
  <metadata
     id="metadata1405">
    <rdf:RDF>
      <cc:Work
         rdf:about="">
        <dc:format>image/svg+xml</dc:format>
        <dc:type
           rdf:resource="http://purl.org/dc/dcmitype/StillImage" />
        <dc:title />
      </cc:Work>
    </rdf:RDF>
  </metadata>
  <g
     inkscape:groupmode="layer"
     id="layer3"
     inkscape:label="BG" />
  <g
     inkscape:groupmode="layer"
     id="layer4"
     inkscape:label="Bounding Box" />
  <g
     inkscape:groupmode="layer"
     id="layer2"
     inkscape:label="Top">
    <g
       id="g847"
       transform="translate(-0.19315289,-0.04989999)"
       style="fill:#5e5c64">
      <path
         style="fill:#5e5c64;fill-opacity:0.326613;stroke:none;stroke-width:3;stroke-linecap:round;stroke-linejoin:round;stroke-miterlimit:4;stroke-dasharray:none;stroke-opacity:1;paint-order:normal"
         id="path885"
         sodipodi:type="arc"
         sodipodi:cx="154.57903"
         sodipodi:cy="83.172447"
         sodipodi:rx="111.24603"
         sodipodi:ry="111.24603"
         sodipodi:start="5.9893981"
         sodipodi:end="5.9807042"
         sodipodi:open="true"
         sodipodi:arc-type="arc"
         transform="rotate(16.68412)"
         d="M 261.05862,50.957906 A 111.24603,111.24603 0 0 1 187.02492,189.58177 111.24603,111.24603 0 0 1 48.240476,115.84954 111.24603,111.24603 0 0 1 121.67088,-23.094829 111.24603,111.24603 0 0 1 260.77453,50.033412" />
      <path
         style="fill:#5e5c64;fill-opacity:1;stroke:#ffffff;stroke-width:4.5;stroke-linecap:round;stroke-linejoin:round;stroke-miterlimit:4;stroke-dasharray:none;stroke-opacity:1;paint-order:normal"
         id="path883-9"
         sodipodi:type="arc"
         sodipodi:cx="154.57903"
         sodipodi:cy="83.172447"
         sodipodi:rx="111.24604"
         sodipodi:ry="111.24604"
         sodipodi:start="5.9893981"
         sodipodi:end="5.9807042"
         sodipodi:open="true"
         sodipodi:arc-type="arc"
         transform="rotate(16.68412)"
         d="M 261.05862,50.957904 A 111.24604,111.24604 0 0 1 187.02492,189.58178 111.24604,111.24604 0 0 1 48.240468,115.84955 111.24604,111.24604 0 0 1 121.67088,-23.094836 111.24604,111.24604 0 0 1 260.77453,50.03341" />
    </g>
    <g
       id="surface1"
       transform="matrix(0.89192404,0,0,0.89192404,-148.92876,-229.20192)">
      <path
         style="fill:#000000;fill-opacity:1;fill-rule:evenodd;stroke:none"
         d="m 226.80859,399.94922 h 17.9375 V 383.86328 Z M 216,406.30859 h 28.74609 v 8.15625 h 7.32032 v -8.15625 h 6.77734 v -6.35937 h -6.71484 v -22.41406 h -9.16407 L 216,401.46484 v 4.84375"
         id="path2" />
      <path
         style="fill:#000000;fill-opacity:1;fill-rule:evenodd;stroke:none"
         d="m 285.61328,379.70312 h 4.48828 l 1.57813,4.48829 v 7.53125 c 1.67968,-0.71875 3.10937,-1.15625 4.40234,-1.3086 1.41016,-0.16797 3.93359,-0.18359 5.35938,-0.0625 3.19921,0.26563 5.72656,2.33985 5.72656,5.875 v 17.41016 h -6.06641 v -16.67188 c 0,-3.04687 -4.5625,-2.55078 -9.42187,-0.49218 v 17.16406 h -6.06641 v -33.9336"
         id="path4" />
      <path
         style="fill:#000000;fill-opacity:1;fill-rule:evenodd;stroke:none"
         d="m 396,384.42187 -1.72266,-4.71875 h -4.34375 v 11.45704 c -1.27343,-0.63282 -2.01953,-0.71094 -3.30859,-0.86329 -1.41016,-0.16796 -3.73828,-0.11718 -5.16406,0 -3.66407,0.30469 -7.28907,2.85157 -7.28907,6.53125 0,3.69141 0,7.38672 0,11.07813 0,2.79297 2.94922,6.08203 8.50391,6.08203 h 2.02344 c 2.14844,0 4.82812,-0.53516 6.32031,-1.14062 l 1.38672,0.78906 H 396 Z m -15.76172,13.13282 c -0.043,-2.73047 5.46875,-3.75391 9.69531,-1.58203 0,4.04687 0,8.08984 0,12.13281 -0.86718,0.71484 -2.46093,1.21875 -4.32422,1.21875 h -2.0664 c -2.10547,0 -3.30469,-1.33594 -3.30469,-3.41016 0,-2.78515 0,-5.57031 0,-8.35937"
         id="path6" />
      <path
         style="fill:#000000;fill-opacity:1;fill-rule:evenodd;stroke:none"
         d="m 361.12891,390.19141 c -1.10547,-0.0117 -2.27344,0.0351 -3.1211,0.10546 -3.66406,0.30469 -7.35547,2.85157 -7.35547,6.53125 0,3.69141 0,7.38672 0,11.07813 0,2.79297 3.11719,6.08203 9.27735,6.08203 h 2.38672 c 3.77734,0.0742 7.45703,-0.91797 8.88671,-1.64062 l -1.5625,-4.72266 c -1.36328,0.55469 -4.46484,1.62109 -6.47656,1.62109 h -2.43359 c -2.82422,0 -4.07813,-1.40625 -4.07813,-3.26562 v -2.6211 h 14.94922 c 0,-2.17578 0,-4.35156 0,-6.53125 0,-3.67968 -3.6914,-6.22656 -7.35547,-6.53125 -0.84765,-0.0703 -2.01562,-0.11718 -3.11718,-0.10546 z m -4.47657,8.5664 v -1.4375 c -0.0273,-1.71875 1.96875,-2.73828 4.47657,-2.83203 2.5039,0.0937 4.5,1.11328 4.47265,2.83203 v 1.4375 h -8.94922"
         id="path8" />
      <path
         style="fill:#000000;fill-opacity:1;fill-rule:evenodd;stroke:none"
         d="m 335.41406,413.63672 v -22.96094 h 3.22656 l 1.63282,1.61328 c 2.39453,-2.74219 6.34375,-2.51562 9.44531,-1.46875 l -1.22656,5.15235 c -2.00782,-0.73047 -4.85157,-1.30469 -7.01172,0.64453 v 17.01953 h -6.06641"
         id="path10" />
      <path
         style="fill:#000000;fill-opacity:1;fill-rule:evenodd;stroke:none"
         d="m 324.00781,390.29687 c 3.98828,0.33204 7.28906,2.59375 7.28906,5.79688 0,5.84766 0,11.69531 0,17.54297 h -3.5 l -1.39062,-0.78906 c -1.49219,0.60546 -4.17188,1.14062 -6.31641,1.14062 h -2.02343 c -5.55469,0 -7.71485,-3.15234 -7.71485,-5.94531 v -3.01953 c 0,-2.94141 3.375,-5.89453 7.46094,-6.21094 2.44531,-0.1875 5.07812,-0.23828 7.48828,-0.19531 l -0.004,-1.0586 c 0,-2.375 -2.76562,-2.77343 -4.72265,-2.77343 -2.03906,-0.004 -4.50391,0.36718 -6.67578,1.125 l -1.53516,-4.20313 c 1.8125,-0.78516 4.04297,-1.17578 6.03906,-1.41016 1.41016,-0.16796 4.1836,-0.11718 5.60547,0 z m 1.28906,13.01563 v 5.11328 c -0.82812,0.4375 -2.25781,1.09766 -4.16015,1.09766 h -2.0586 c -1.10546,0 -2.45312,-1.03907 -2.45312,-2.1875 v -1.1211 c 0,-1.96875 1.51953,-2.90234 3.57031,-2.90234 h 5.10156"
         id="path12" />
      <path
         style="fill:#000000;fill-opacity:1;fill-rule:evenodd;stroke:none"
         d="m 263.56641,395.44922 c 0.91796,-6.76953 13.88281,-5.88281 18.01171,-4.07031 l -1.72265,4.77734 c -2.23047,-0.73438 -4.07422,-1.10547 -6.10156,-1.11719 -1.41407,-0.008 -4.01954,0.26172 -4.01954,1.63672 0,0.84375 0.95313,1.30859 2.375,1.91016 l 6.75,2.78125 c 2.29297,0.99218 3.33594,2.57422 3.53907,3.73828 0.125,0.70312 0.14843,2.51562 0.0234,3.26172 -1.27343,7.47656 -15.16796,6.36328 -19.625,3.9375 l 1.9375,-4.40625 c 2.06641,0.71875 4.64844,1.44531 7.57422,1.44531 2.11719,0 4.02735,-0.73438 4.02735,-2.02344 0,-1.41797 -0.98047,-1.45703 -3.21485,-2.41797 l -5.89843,-2.53906 c -1.625,-0.69922 -3.37891,-2.16797 -3.65625,-4.05469 -0.0977,-0.69531 -0.10157,-2.12109 0,-2.85937"
         id="path14" />
    </g>
  </g>
</svg>
