<?xml version="1.0" encoding="UTF-8" standalone="no"?>
<svg
   xmlns:dc="http://purl.org/dc/elements/1.1/"
   xmlns:cc="http://creativecommons.org/ns#"
   xmlns:rdf="http://www.w3.org/1999/02/22-rdf-syntax-ns#"
   xmlns:svg="http://www.w3.org/2000/svg"
   xmlns="http://www.w3.org/2000/svg"
   xmlns:sodipodi="http://sodipodi.sourceforge.net/DTD/sodipodi-0.dtd"
   xmlns:inkscape="http://www.inkscape.org/namespaces/inkscape"
   width="248.0px"
   height="248.0px"
   viewBox="0 0 248.0 248.0"
   version="1.1"
   id="SVGRoot"
   sodipodi:docname="Amazon-Cognito White.svg"
   inkscape:version="1.0.2-2 (e86c870879, 2021-01-15)">
  <defs
     id="defs1402">
    <inkscape:path-effect
       effect="fillet_chamfer"
       id="path-effect2040"
       is_visible="true"
       lpeversion="1"
       satellites_param="F,0,0,1,0,0,0,1 @ F,0,0,1,0,6.0755415,0,1 @ F,0,0,1,0,6.1445293,0,1 @ F,0,0,1,0,0,0,1"
       unit="px"
       method="auto"
       mode="F"
       radius="0"
       chamfer_steps="1"
       flexible="false"
       use_knot_distance="true"
       apply_no_radius="true"
       apply_with_radius="true"
       only_selected="true"
       hide_knots="false" />
    <style
       id="style1979">.cls-1{fill:url(#GreenGradient);}.cls-2{fill:#fff;}</style>
    <linearGradient
       id="GreenGradient"
       x1="-522.53"
       y1="465.47"
       x2="-416.47"
       y2="571.53"
       gradientTransform="rotate(-90,-456.5,24.5)"
       gradientUnits="userSpaceOnUse">
      <stop
         offset="0"
         stop-color="#1b660f"
         id="stop1981" />
      <stop
         offset="1"
         stop-color="#6cae3e"
         id="stop1983" />
    </linearGradient>
    <linearGradient
       id="OrangeGradient"
       x1="1131.1"
       y1="-516.47998"
       x2="1131.1"
       y2="-366.48001"
       gradientTransform="rotate(-135,816.69218,-8.7994369)"
       gradientUnits="userSpaceOnUse">
      <stop
         offset="0"
         stop-color="#c8511b"
         id="stop138" />
      <stop
         offset="1"
         stop-color="#f90"
         id="stop140" />
    </linearGradient>
  </defs>
  <sodipodi:namedview
     id="base"
     pagecolor="#ffffff"
     bordercolor="#666666"
     borderopacity="1.0"
     inkscape:pageopacity="0"
     inkscape:pageshadow="2"
     inkscape:zoom="1.5733379"
     inkscape:cx="124"
     inkscape:cy="124"
     inkscape:document-units="px"
     inkscape:current-layer="layer2"
     inkscape:document-rotation="0"
     showgrid="true"
     inkscape:window-width="1366"
     inkscape:window-height="705"
     inkscape:window-x="-8"
     inkscape:window-y="-8"
     inkscape:window-maximized="1"
     inkscape:snap-global="false"
     showguides="true">
    <inkscape:grid
       type="xygrid"
       id="grid1972" />
  </sodipodi:namedview>
  <metadata
     id="metadata1405">
    <rdf:RDF>
      <cc:Work
         rdf:about="">
        <dc:format>image/svg+xml</dc:format>
        <dc:type
           rdf:resource="http://purl.org/dc/dcmitype/StillImage" />
        <dc:title />
      </cc:Work>
    </rdf:RDF>
  </metadata>
  <g
     inkscape:groupmode="layer"
     id="layer3"
     inkscape:label="BG" />
  <g
     inkscape:groupmode="layer"
     id="layer4"
     inkscape:label="Bounding Box" />
  <g
     inkscape:groupmode="layer"
     id="layer2"
     inkscape:label="Top">
    <g
       id="g858"
       transform="translate(-0.19315289,-0.04989999)">
      <path
         style="fill:none;fill-opacity:1;stroke:#000000;stroke-width:4.5;stroke-linecap:round;stroke-linejoin:round;stroke-miterlimit:4;stroke-dasharray:none;stroke-opacity:1;paint-order:normal"
         id="path883"
         sodipodi:type="arc"
         sodipodi:cx="154.57903"
         sodipodi:cy="83.172447"
         sodipodi:rx="111.24604"
         sodipodi:ry="111.24604"
         sodipodi:start="5.9893981"
         sodipodi:end="5.9807042"
         sodipodi:open="true"
         sodipodi:arc-type="arc"
         transform="rotate(16.68412)"
         d="M 261.05862,50.957904 A 111.24604,111.24604 0 0 1 187.02492,189.58178 111.24604,111.24604 0 0 1 48.240468,115.84955 111.24604,111.24604 0 0 1 121.67088,-23.094836 111.24604,111.24604 0 0 1 260.77453,50.03341" />
      <path
         style="fill:#3d3846;fill-opacity:0.326613;stroke:none;stroke-width:4.45107;stroke-linecap:round;stroke-linejoin:round;stroke-miterlimit:4;stroke-dasharray:none;stroke-opacity:1;paint-order:normal"
         id="path885"
         sodipodi:type="arc"
         sodipodi:cx="154.57903"
         sodipodi:cy="83.172447"
         sodipodi:rx="110.03654"
         sodipodi:ry="110.03654"
         sodipodi:start="5.9893981"
         sodipodi:end="5.9807042"
         sodipodi:open="true"
         sodipodi:arc-type="arc"
         transform="rotate(16.68412)"
         d="M 259.90094,51.308151 A 110.03654,110.03654 0 0 1 186.67216,188.42486 110.03654,110.03654 0 0 1 49.396616,115.49427 110.03654,110.03654 0 0 1 122.02867,-21.939463 110.03654,110.03654 0 0 1 259.61994,50.393709" />
    </g>
    <circle
       style="fill:#ffffff;stroke-width:3.22029;stroke-linecap:round;stroke-linejoin:round"
       id="path68"
       sodipodi:type="arc"
       sodipodi:cx="163.34698"
       sodipodi:cy="155.0843"
       sodipodi:rx="22.88129"
       sodipodi:ry="23.516882"
       sodipodi:start="5.989394"
       sodipodi:end="5.9807023"
       sodipodi:open="true"
       sodipodi:arc-type="arc"
       d="m 185.24788,148.27421 a 22.88129,23.516882 0 0 1 -15.22729,29.30449 22.88129,23.516882 0 0 1 -28.5455,-15.58655 22.88129,23.516882 0 0 1 15.10323,-29.37222 22.88129,23.516882 0 0 1 28.61114,15.4589" />
    <g
       id="Icon_Test"
       data-name="Icon Test"
       transform="matrix(2.6295477,0,0,2.6295477,25.411547,25.32607)"
       style="fill:#000000">
      <path
         class="cls-2"
         d="M 55,15 H 16.46 a 3.92,3.92 0 0 0 -3.71,4.1 V 43.9 A 3.92,3.92 0 0 0 16.46,48 H 37.75 V 46 H 16.46 A 2,2 0 0 1 14.75,43.9 V 27 h 18 v 15 a 1,1 0 0 0 1,1 h 8 V 41 H 35.2 v -0.3 a 7.74,7.74 0 0 1 5.53,-7.43 5.91,5.91 0 0 0 4.92,0 7.82,7.82 0 0 1 4.42,3.42 l 1.7,-1 v 0 a 9.8,9.8 0 0 0 -4.34,-3.82 5.4,5.4 0 0 0 1.27,-3.48 5.5,5.5 0 0 0 -11,0 5.42,5.42 0 0 0 1.3,3.41 9.67,9.67 0 0 0 -4.22,3.62 V 22 h 17 v 13.7 0 0.3 h 2 v -9 h 3 v 10 h 2 V 19.1 A 3.92,3.92 0 0 0 55,15 Z m -11.8,9.87 a 3.48,3.48 0 0 1 3.5,3.46 3.43,3.43 0 0 1 -1.81,3 3.57,3.57 0 0 1 -3.39,0 3.44,3.44 0 0 1 -1.8,-3 3.48,3.48 0 0 1 3.5,-3.46 z M 53.75,25 v -4 a 1,1 0 0 0 -1,-1 h -19 a 1,1 0 0 0 -1,1 v 4 h -18 V 19.1 A 2,2 0 0 1 16.46,17 H 55 a 2,2 0 0 1 1.73,2.1 V 25 Z"
         id="path14"
         style="fill:#000000" />
      <rect
         class="cls-2"
         x="16.77"
         y="31.950001"
         width="10.98"
         height="2"
         id="rect16"
         style="fill:#000000" />
      <rect
         class="cls-2"
         x="16.77"
         y="36.950001"
         width="6.98"
         height="2"
         id="rect18"
         style="fill:#000000" />
      <rect
         class="cls-2"
         x="25.77"
         y="36.950001"
         width="2.98"
         height="2"
         id="rect20"
         style="fill:#000000" />
      <path
         class="cls-2"
         d="M 51.78,35.65 Z"
         id="path22-7"
         style="fill:#000000" />
      <path
         class="cls-2"
         d="m 52.14,60.05 a 10.11,10.11 0 1 1 1.22,-20.14 v 0 a 10.12,10.12 0 0 1 6.46,16.61 10.47,10.47 0 0 1 -3.37,2.57 10.19,10.19 0 0 1 -4.31,0.96 z m 0,-18.22 a 8,8 0 0 0 -3.69,0.9 8.11,8.11 0 0 0 7.16,14.55 8.2,8.2 0 0 0 2.71,-2.07 8.11,8.11 0 0 0 -5.19,-13.32 v 0 a 8.22,8.22 0 0 0 -1.01,-0.06 z"
         id="path24-3"
         style="fill:#000000" />
      <path
         class="cls-2"
         d="m 50.55,54.2 v 0 a 1,1 0 0 1 -0.71,-0.29 l -3.23,-3.23 1.39,-1.41 2.52,2.52 5.7,-5.71 1.42,1.42 -6.42,6.41 a 1,1 0 0 1 -0.67,0.29 z"
         id="path26-7"
         style="fill:#000000" />
      <path
         class="cls-2"
         d="M 51.78,35.65 Z"
         id="path28-5"
         style="fill:#000000" />
    </g>
  </g>
</svg>
