<?xml version="1.0" encoding="UTF-8" standalone="no"?>
<svg
   xmlns:dc="http://purl.org/dc/elements/1.1/"
   xmlns:cc="http://creativecommons.org/ns#"
   xmlns:rdf="http://www.w3.org/1999/02/22-rdf-syntax-ns#"
   xmlns:svg="http://www.w3.org/2000/svg"
   xmlns="http://www.w3.org/2000/svg"
   xmlns:sodipodi="http://sodipodi.sourceforge.net/DTD/sodipodi-0.dtd"
   xmlns:inkscape="http://www.inkscape.org/namespaces/inkscape"
   width="248.0px"
   height="248.0px"
   viewBox="0 0 248.0 248.0"
   version="1.1"
   id="SVGRoot"
   sodipodi:docname="Amazon-ElastiCache Dark.svg"
   inkscape:version="1.0.2-2 (e86c870879, 2021-01-15)">
  <defs
     id="defs1402">
    <inkscape:path-effect
       effect="fillet_chamfer"
       id="path-effect2040"
       is_visible="true"
       lpeversion="1"
       satellites_param="F,0,0,1,0,0,0,1 @ F,0,0,1,0,6.0755415,0,1 @ F,0,0,1,0,6.1445293,0,1 @ F,0,0,1,0,0,0,1"
       unit="px"
       method="auto"
       mode="F"
       radius="0"
       chamfer_steps="1"
       flexible="false"
       use_knot_distance="true"
       apply_no_radius="true"
       apply_with_radius="true"
       only_selected="true"
       hide_knots="false" />
    <style
       id="style1979">.cls-1{fill:url(#GreenGradient);}.cls-2{fill:#fff;}</style>
    <linearGradient
       id="GreenGradient"
       x1="-522.53"
       y1="465.47"
       x2="-416.47"
       y2="571.53"
       gradientTransform="rotate(-90,-456.5,24.5)"
       gradientUnits="userSpaceOnUse">
      <stop
         offset="0"
         stop-color="#1b660f"
         id="stop1981" />
      <stop
         offset="1"
         stop-color="#6cae3e"
         id="stop1983" />
    </linearGradient>
  </defs>
  <sodipodi:namedview
     id="base"
     pagecolor="#101010"
     bordercolor="#666666"
     borderopacity="1.0"
     inkscape:pageopacity="0"
     inkscape:pageshadow="2"
     inkscape:zoom="1.0055549"
     inkscape:cx="91.64585"
     inkscape:cy="124"
     inkscape:document-units="px"
     inkscape:current-layer="layer2"
     inkscape:document-rotation="0"
     showgrid="true"
     inkscape:window-width="1366"
     inkscape:window-height="705"
     inkscape:window-x="-8"
     inkscape:window-y="-8"
     inkscape:window-maximized="1"
     inkscape:snap-global="false"
     showguides="true">
    <inkscape:grid
       type="xygrid"
       id="grid1972" />
  </sodipodi:namedview>
  <metadata
     id="metadata1405">
    <rdf:RDF>
      <cc:Work
         rdf:about="">
        <dc:format>image/svg+xml</dc:format>
        <dc:type
           rdf:resource="http://purl.org/dc/dcmitype/StillImage" />
        <dc:title />
      </cc:Work>
    </rdf:RDF>
  </metadata>
  <g
     inkscape:groupmode="layer"
     id="layer3"
     inkscape:label="BG" />
  <g
     inkscape:groupmode="layer"
     id="layer4"
     inkscape:label="Bounding Box" />
  <g
     inkscape:groupmode="layer"
     id="layer2"
     inkscape:label="Top">
    <g
       id="g847"
       transform="translate(-0.19315289,-0.04989999)"
       style="fill:#5e5c64">
      <path
         style="fill:#5e5c64;fill-opacity:0.326613;stroke:none;stroke-width:3;stroke-linecap:round;stroke-linejoin:round;stroke-miterlimit:4;stroke-dasharray:none;stroke-opacity:1;paint-order:normal"
         id="path885"
         sodipodi:type="arc"
         sodipodi:cx="154.57903"
         sodipodi:cy="83.172447"
         sodipodi:rx="111.24603"
         sodipodi:ry="111.24603"
         sodipodi:start="5.9893981"
         sodipodi:end="5.9807042"
         sodipodi:open="true"
         sodipodi:arc-type="arc"
         transform="rotate(16.68412)"
         d="M 261.05862,50.957906 A 111.24603,111.24603 0 0 1 187.02492,189.58177 111.24603,111.24603 0 0 1 48.240476,115.84954 111.24603,111.24603 0 0 1 121.67088,-23.094829 111.24603,111.24603 0 0 1 260.77453,50.033412" />
      <path
         style="fill:#5e5c64;fill-opacity:1;stroke:#ffffff;stroke-width:4.5;stroke-linecap:round;stroke-linejoin:round;stroke-miterlimit:4;stroke-dasharray:none;stroke-opacity:1;paint-order:normal"
         id="path883-9"
         sodipodi:type="arc"
         sodipodi:cx="154.57903"
         sodipodi:cy="83.172447"
         sodipodi:rx="111.24604"
         sodipodi:ry="111.24604"
         sodipodi:start="5.9893981"
         sodipodi:end="5.9807042"
         sodipodi:open="true"
         sodipodi:arc-type="arc"
         transform="rotate(16.68412)"
         d="M 261.05862,50.957904 A 111.24604,111.24604 0 0 1 187.02492,189.58178 111.24604,111.24604 0 0 1 48.240468,115.84955 111.24604,111.24604 0 0 1 121.67088,-23.094836 111.24604,111.24604 0 0 1 260.77453,50.03341" />
    </g>
    <g
       id="Icon_Test-4"
       data-name="Icon Test"
       transform="matrix(2.5887769,0,0,2.5887769,26.920866,26.920866)">
      <path
         class="cls-2"
         d="M 37.52,27 C 30.81,27 24,28.75 24,32.1 V 54.9 C 24,58.25 30.78,60 37.49,60 44.2,60 51,58.25 51,54.9 V 32.1 C 51,28.75 44.21,27 37.52,27 Z m 0,31 C 30.08,58 26,56 26,54.9 v -4.81 c 2.5,1.52 7,2.31 11.49,2.31 4.49,0 9,-0.79 11.48,-2.3 v 4.8 C 49,56 44.94,58 37.52,58 Z m 0,-7.6 c -7.44,0 -11.49,-2 -11.49,-3.1 v -4.8 c 2.5,1.51 7,2.3 11.49,2.3 4.49,0 9,-0.79 11.48,-2.3 v 4.8 c 0,1.05 -4.06,3.1 -11.48,3.1 z m 0,-7.6 c -7.44,0 -11.49,-2 -11.49,-3.1 v -4.81 c 2.5,1.52 7,2.31 11.49,2.31 4.49,0 9,-0.79 11.48,-2.31 v 4.81 c 0,1.05 -4.06,3.1 -11.48,3.1 z m 0,-7.6 C 30.08,35.2 26,33.15 26,32.1 26,31.05 30,29 37.49,29 44.98,29 49,31.05 49,32.1 c 0,1.05 -4.06,3.1 -11.48,3.1 z"
         id="path14-6" />
      <path
         class="cls-2"
         d="m 62,19.19 a 1,1 0 0 0 1,-1 V 16 A 1,1 0 0 0 62,15 H 13 a 1,1 0 0 0 -1,1 v 2.18 a 1,1 0 0 0 1,1 2.22,2.22 0 0 1 0,4.42 1,1 0 0 0 -1,1 V 42 a 1,1 0 0 0 1,1 h 9 v -2 h -4 v -1 h 4 v -2 h -5 a 1,1 0 0 0 -1,1 v 2 H 14 V 25.47 a 4.26,4.26 0 0 0 0,-8.15 V 17 h 47 v 0.33 a 4.27,4.27 0 0 0 0,8.13 V 41 h -1 v -2 a 1,1 0 0 0 -1,-1 h -6 v 2 h 5 v 1 h -5 v 2 h 9 a 1,1 0 0 0 1,-1 V 24.6 a 1,1 0 0 0 -1,-1 2.22,2.22 0 0 1 0,-4.41 z"
         id="path16" />
      <path
         class="cls-2"
         d="m 37,25 v -5 a 1,1 0 0 0 -1,-1 h -7 a 1,1 0 0 0 -1,1 v 6 h 2 v -5 h 5 v 4 z"
         id="path18" />
      <path
         class="cls-2"
         d="m 47,26 v -6 a 1,1 0 0 0 -1,-1 h -7 a 1,1 0 0 0 -1,1 v 5 h 2 v -4 h 5 v 5 z"
         id="path20" />
      <path
         class="cls-2"
         d="m 53,34 v 2 h 3 a 1,1 0 0 0 1,-1 V 20 a 1,1 0 0 0 -1,-1 h -7 a 1,1 0 0 0 -1,1 v 7 h 2 v -6 h 5 v 13 z"
         id="path22-9" />
      <path
         class="cls-2"
         d="m 20,21 h 5 v 6 h 2 v -7 a 1,1 0 0 0 -1,-1 h -7 a 1,1 0 0 0 -1,1 v 15 a 1,1 0 0 0 1,1 h 3 v -2 h -2 z"
         id="path24" />
    </g>
  </g>
</svg>
