<?xml version="1.0" encoding="UTF-8" standalone="no"?>
<svg
   xmlns:dc="http://purl.org/dc/elements/1.1/"
   xmlns:cc="http://creativecommons.org/ns#"
   xmlns:rdf="http://www.w3.org/1999/02/22-rdf-syntax-ns#"
   xmlns:svg="http://www.w3.org/2000/svg"
   xmlns="http://www.w3.org/2000/svg"
   xmlns:sodipodi="http://sodipodi.sourceforge.net/DTD/sodipodi-0.dtd"
   xmlns:inkscape="http://www.inkscape.org/namespaces/inkscape"
   width="248.0px"
   height="248.0px"
   viewBox="0 0 248.0 248.0"
   version="1.1"
   id="SVGRoot"
   sodipodi:docname="Amazon-Quantum-Ledger-Database_QLDB Dark.svg"
   inkscape:version="1.0.2-2 (e86c870879, 2021-01-15)">
  <defs
     id="defs1402">
    <inkscape:path-effect
       effect="fillet_chamfer"
       id="path-effect2040"
       is_visible="true"
       lpeversion="1"
       satellites_param="F,0,0,1,0,0,0,1 @ F,0,0,1,0,6.0755415,0,1 @ F,0,0,1,0,6.1445293,0,1 @ F,0,0,1,0,0,0,1"
       unit="px"
       method="auto"
       mode="F"
       radius="0"
       chamfer_steps="1"
       flexible="false"
       use_knot_distance="true"
       apply_no_radius="true"
       apply_with_radius="true"
       only_selected="true"
       hide_knots="false" />
    <style
       id="style1979">.cls-1{fill:url(#GreenGradient);}.cls-2{fill:#fff;}</style>
    <linearGradient
       id="GreenGradient"
       x1="-522.53"
       y1="465.47"
       x2="-416.47"
       y2="571.53"
       gradientTransform="rotate(-90,-456.5,24.5)"
       gradientUnits="userSpaceOnUse">
      <stop
         offset="0"
         stop-color="#1b660f"
         id="stop1981" />
      <stop
         offset="1"
         stop-color="#6cae3e"
         id="stop1983" />
    </linearGradient>
  </defs>
  <sodipodi:namedview
     id="base"
     pagecolor="#101010"
     bordercolor="#666666"
     borderopacity="1.0"
     inkscape:pageopacity="0"
     inkscape:pageshadow="2"
     inkscape:zoom="0.74609647"
     inkscape:cx="91.64585"
     inkscape:cy="124"
     inkscape:document-units="px"
     inkscape:current-layer="layer2"
     inkscape:document-rotation="0"
     showgrid="true"
     inkscape:window-width="1366"
     inkscape:window-height="705"
     inkscape:window-x="-8"
     inkscape:window-y="-8"
     inkscape:window-maximized="1"
     inkscape:snap-global="false"
     showguides="true">
    <inkscape:grid
       type="xygrid"
       id="grid1972" />
  </sodipodi:namedview>
  <metadata
     id="metadata1405">
    <rdf:RDF>
      <cc:Work
         rdf:about="">
        <dc:format>image/svg+xml</dc:format>
        <dc:type
           rdf:resource="http://purl.org/dc/dcmitype/StillImage" />
        <dc:title />
      </cc:Work>
    </rdf:RDF>
  </metadata>
  <g
     inkscape:groupmode="layer"
     id="layer3"
     inkscape:label="BG" />
  <g
     inkscape:groupmode="layer"
     id="layer4"
     inkscape:label="Bounding Box" />
  <g
     inkscape:groupmode="layer"
     id="layer2"
     inkscape:label="Top">
    <g
       id="g847"
       transform="translate(-0.19315289,-0.04989999)"
       style="fill:#5e5c64">
      <path
         style="fill:#5e5c64;fill-opacity:0.326613;stroke:none;stroke-width:3;stroke-linecap:round;stroke-linejoin:round;stroke-miterlimit:4;stroke-dasharray:none;stroke-opacity:1;paint-order:normal"
         id="path885"
         sodipodi:type="arc"
         sodipodi:cx="154.57903"
         sodipodi:cy="83.172447"
         sodipodi:rx="111.24603"
         sodipodi:ry="111.24603"
         sodipodi:start="5.9893981"
         sodipodi:end="5.9807042"
         sodipodi:open="true"
         sodipodi:arc-type="arc"
         transform="rotate(16.68412)"
         d="M 261.05862,50.957906 A 111.24603,111.24603 0 0 1 187.02492,189.58177 111.24603,111.24603 0 0 1 48.240476,115.84954 111.24603,111.24603 0 0 1 121.67088,-23.094829 111.24603,111.24603 0 0 1 260.77453,50.033412" />
      <path
         style="fill:#5e5c64;fill-opacity:1;stroke:#ffffff;stroke-width:4.5;stroke-linecap:round;stroke-linejoin:round;stroke-miterlimit:4;stroke-dasharray:none;stroke-opacity:1;paint-order:normal"
         id="path883-9"
         sodipodi:type="arc"
         sodipodi:cx="154.57903"
         sodipodi:cy="83.172447"
         sodipodi:rx="111.24604"
         sodipodi:ry="111.24604"
         sodipodi:start="5.9893981"
         sodipodi:end="5.9807042"
         sodipodi:open="true"
         sodipodi:arc-type="arc"
         transform="rotate(16.68412)"
         d="M 261.05862,50.957904 A 111.24604,111.24604 0 0 1 187.02492,189.58178 111.24604,111.24604 0 0 1 48.240468,115.84955 111.24604,111.24604 0 0 1 121.67088,-23.094836 111.24604,111.24604 0 0 1 260.77453,50.03341" />
    </g>
    <g
       id="Icon_Test-0"
       data-name="Icon Test"
       transform="matrix(2.6102751,0,0,2.6102751,26.114286,26.114684)">
      <path
         class="cls-2"
         d="m 28.56,27.56 c -8.85,0 -15.52,-2.8 -15.52,-6.51 0,-3.71 6.67,-6.51 15.52,-6.51 8.85,0 15.53,2.8 15.53,6.51 0,3.71 -6.68,6.51 -15.53,6.51 z m 0,-11.5 c -8.25,0 -14,2.63 -14,5 0,2.37 5.75,5 14,5 8.25,0 14,-2.63 14,-5 0,-2.37 -5.74,-5 -14,-5 z"
         id="path14-6" />
      <rect
         class="cls-2"
         x="42.57"
         y="21.049999"
         width="1.52"
         height="11.09"
         id="rect16" />
      <path
         class="cls-2"
         d="M 28.56,60.46 C 19.71,60.46 13,57.66 13,54 V 21.05 h 1.52 V 54 c 0,2.36 5.75,5 14,5 8.25,0 14,-2.63 14,-5 v -7 h 1.52 v 7 c 0.05,3.66 -6.63,6.46 -15.48,6.46 z"
         id="path18" />
      <path
         class="cls-2"
         d="m 22.13,38.5 c -5.65,-1.06 -9,-3.28 -9,-6 h 1.52 c 0,1.8 3.13,3.58 7.77,4.45 z"
         id="path20" />
      <path
         class="cls-2"
         d="m 28.6,50.37 c -8.83,0 -15.49,-2.8 -15.49,-6.51 h 1.52 c 0,2.36 5.74,5 14,5 6.62,0 10.11,-1.56 10.15,-1.57 l 0.63,1.38 c -0.18,0.06 -3.83,1.7 -10.81,1.7 z"
         id="path22" />
      <path
         class="cls-2"
         d="M 31.77,43 H 28.39 A 1.78,1.78 0 0 1 26.62,41.22 V 37.81 A 1.78,1.78 0 0 1 28.39,36 h 3.38 a 1.78,1.78 0 0 1 1.78,1.78 v 3.37 A 1.78,1.78 0 0 1 31.77,43 Z m -3.38,-5.41 a 0.26,0.26 0 0 0 -0.25,0.26 v 3.37 a 0.25,0.25 0 0 0 0.25,0.25 h 3.38 a 0.25,0.25 0 0 0 0.25,-0.25 v -3.41 a 0.26,0.26 0 0 0 -0.25,-0.26 z"
         id="path24" />
      <path
         class="cls-2"
         d="M 44.67,43 H 41.29 A 1.78,1.78 0 0 1 39.52,41.22 V 37.81 A 1.78,1.78 0 0 1 41.29,36 h 3.38 a 1.78,1.78 0 0 1 1.77,1.78 v 3.37 A 1.78,1.78 0 0 1 44.67,43 Z m -3.38,-5.41 a 0.26,0.26 0 0 0 -0.25,0.26 v 3.37 a 0.25,0.25 0 0 0 0.25,0.25 h 3.38 a 0.25,0.25 0 0 0 0.25,-0.25 v -3.41 a 0.26,0.26 0 0 0 -0.25,-0.26 z"
         id="path26" />
      <path
         class="cls-2"
         d="M 57.56,43 H 54.19 A 1.78,1.78 0 0 1 52.41,41.22 V 37.81 A 1.78,1.78 0 0 1 54.19,36 h 3.37 a 1.78,1.78 0 0 1 1.78,1.78 v 3.37 A 1.78,1.78 0 0 1 57.56,43 Z m -3.37,-5.41 a 0.26,0.26 0 0 0 -0.26,0.26 v 3.37 a 0.26,0.26 0 0 0 0.26,0.25 h 3.37 a 0.26,0.26 0 0 0 0.26,-0.25 v -3.41 a 0.26,0.26 0 0 0 -0.26,-0.26 z"
         id="path28" />
      <path
         class="cls-2"
         d="M 60.43,45.56 H 51.36 A 1.54,1.54 0 0 1 49.83,44 V 41.6 H 49.06 V 44 a 1.53,1.53 0 0 1 -1.53,1.53 H 38.46 A 1.54,1.54 0 0 1 36.93,44 V 41.62 H 36.12 V 44 a 1.54,1.54 0 0 1 -1.53,1.53 H 25.52 A 1.54,1.54 0 0 1 24,44 v -9 a 1.54,1.54 0 0 1 1.53,-1.53 H 34.6 A 1.54,1.54 0 0 1 36.12,35 v 3 h 0.81 v -3 a 1.54,1.54 0 0 1 1.53,-1.53 h 9.07 A 1.53,1.53 0 0 1 49.06,35 v 3 h 0.77 v -3 a 1.54,1.54 0 0 1 1.53,-1.53 h 9.07 A 1.53,1.53 0 0 1 62,35 v 9 a 1.53,1.53 0 0 1 -1.57,1.56 z M 51.36,40.11 V 44 h 9.08 v -9 h -9.08 v 4.52 H 47.54 V 35 h -9.08 v 4.52 H 34.6 V 35 h -9.08 v 9 h 9.08 v -3.89 h 3.86 v 4 h 9.07 v -3.99 z"
         id="path30" />
    </g>
  </g>
</svg>
