<?xml version="1.0" encoding="UTF-8" standalone="no"?>
<svg
   xmlns:dc="http://purl.org/dc/elements/1.1/"
   xmlns:cc="http://creativecommons.org/ns#"
   xmlns:rdf="http://www.w3.org/1999/02/22-rdf-syntax-ns#"
   xmlns:svg="http://www.w3.org/2000/svg"
   xmlns="http://www.w3.org/2000/svg"
   xmlns:sodipodi="http://sodipodi.sourceforge.net/DTD/sodipodi-0.dtd"
   xmlns:inkscape="http://www.inkscape.org/namespaces/inkscape"
   width="248.0px"
   height="248.0px"
   viewBox="0 0 248.0 248.0"
   version="1.1"
   id="SVGRoot"
   sodipodi:docname="apache_kafka-vertical White.svg"
   inkscape:version="1.0.2-2 (e86c870879, 2021-01-15)">
  <defs
     id="defs1402">
    <inkscape:path-effect
       effect="fillet_chamfer"
       id="path-effect2040"
       is_visible="true"
       lpeversion="1"
       satellites_param="F,0,0,1,0,0,0,1 @ F,0,0,1,0,6.0755415,0,1 @ F,0,0,1,0,6.1445293,0,1 @ F,0,0,1,0,0,0,1"
       unit="px"
       method="auto"
       mode="F"
       radius="0"
       chamfer_steps="1"
       flexible="false"
       use_knot_distance="true"
       apply_no_radius="true"
       apply_with_radius="true"
       only_selected="true"
       hide_knots="false" />
    <style
       id="style1979">.cls-1{fill:url(#GreenGradient);}.cls-2{fill:#fff;}</style>
    <linearGradient
       id="GreenGradient"
       x1="-522.53"
       y1="465.47"
       x2="-416.47"
       y2="571.53"
       gradientTransform="rotate(-90,-456.5,24.5)"
       gradientUnits="userSpaceOnUse">
      <stop
         offset="0"
         stop-color="#1b660f"
         id="stop1981" />
      <stop
         offset="1"
         stop-color="#6cae3e"
         id="stop1983" />
    </linearGradient>
    <linearGradient
       id="OrangeGradient"
       x1="1131.1"
       y1="-516.47998"
       x2="1131.1"
       y2="-366.48001"
       gradientTransform="rotate(-135,816.69218,-8.7994369)"
       gradientUnits="userSpaceOnUse">
      <stop
         offset="0"
         stop-color="#c8511b"
         id="stop138" />
      <stop
         offset="1"
         stop-color="#f90"
         id="stop140" />
    </linearGradient>
  </defs>
  <sodipodi:namedview
     id="base"
     pagecolor="#ffffff"
     bordercolor="#666666"
     borderopacity="1.0"
     inkscape:pageopacity="0"
     inkscape:pageshadow="2"
     inkscape:zoom="1.2894806"
     inkscape:cx="124"
     inkscape:cy="124"
     inkscape:document-units="px"
     inkscape:current-layer="layer2"
     inkscape:document-rotation="0"
     showgrid="true"
     inkscape:window-width="1366"
     inkscape:window-height="705"
     inkscape:window-x="-8"
     inkscape:window-y="-8"
     inkscape:window-maximized="1"
     inkscape:snap-global="false"
     showguides="true">
    <inkscape:grid
       type="xygrid"
       id="grid1972" />
  </sodipodi:namedview>
  <metadata
     id="metadata1405">
    <rdf:RDF>
      <cc:Work
         rdf:about="">
        <dc:format>image/svg+xml</dc:format>
        <dc:type
           rdf:resource="http://purl.org/dc/dcmitype/StillImage" />
        <dc:title />
      </cc:Work>
    </rdf:RDF>
  </metadata>
  <g
     inkscape:groupmode="layer"
     id="layer3"
     inkscape:label="BG" />
  <g
     inkscape:groupmode="layer"
     id="layer4"
     inkscape:label="Bounding Box" />
  <g
     inkscape:groupmode="layer"
     id="layer2"
     inkscape:label="Top">
    <g
       id="g858"
       transform="translate(-0.19315289,-0.04989999)">
      <path
         style="fill:none;fill-opacity:1;stroke:#000000;stroke-width:4.5;stroke-linecap:round;stroke-linejoin:round;stroke-miterlimit:4;stroke-dasharray:none;stroke-opacity:1;paint-order:normal"
         id="path883"
         sodipodi:type="arc"
         sodipodi:cx="154.57903"
         sodipodi:cy="83.172447"
         sodipodi:rx="111.24604"
         sodipodi:ry="111.24604"
         sodipodi:start="5.9893981"
         sodipodi:end="5.9807042"
         sodipodi:open="true"
         sodipodi:arc-type="arc"
         transform="rotate(16.68412)"
         d="M 261.05862,50.957904 A 111.24604,111.24604 0 0 1 187.02492,189.58178 111.24604,111.24604 0 0 1 48.240468,115.84955 111.24604,111.24604 0 0 1 121.67088,-23.094836 111.24604,111.24604 0 0 1 260.77453,50.03341" />
      <path
         style="fill:#3d3846;fill-opacity:0.326613;stroke:none;stroke-width:4.45107;stroke-linecap:round;stroke-linejoin:round;stroke-miterlimit:4;stroke-dasharray:none;stroke-opacity:1;paint-order:normal"
         id="path885"
         sodipodi:type="arc"
         sodipodi:cx="154.57903"
         sodipodi:cy="83.172447"
         sodipodi:rx="110.03654"
         sodipodi:ry="110.03654"
         sodipodi:start="5.9893981"
         sodipodi:end="5.9807042"
         sodipodi:open="true"
         sodipodi:arc-type="arc"
         transform="rotate(16.68412)"
         d="M 259.90094,51.308151 A 110.03654,110.03654 0 0 1 186.67216,188.42486 110.03654,110.03654 0 0 1 49.396616,115.49427 110.03654,110.03654 0 0 1 122.02867,-21.939463 110.03654,110.03654 0 0 1 259.61994,50.393709" />
    </g>
    <path
       d="m 112.51046,69.316483 c -0.86862,-0.8886 -2.07545,-1.434367 -3.41912,-1.434367 a 4.6889816,4.6889816 0 0 0 -3.39451,1.434367 h -0.0231 c -0.86554,0.880914 -1.40362,2.11081 -1.40362,3.469846 a 4.8888399,4.8888399 0 0 0 1.40362,3.46216 l 0.0231,0.0246 a 4.7043553,4.7043553 0 0 0 3.39451,1.418993 c 1.34367,0 2.54897,-0.538078 3.41912,-1.418993 l 0.009,-0.0246 c 0.87015,-0.873227 1.38364,-2.095437 1.38364,-3.46216 a 4.9195873,4.9195873 0 0 0 -1.40055,-3.469846 h -0.009 z m -3.41912,67.152367 c 1.34367,0 2.54897,-0.55653 3.41912,-1.42976 l 0.009,-0.0246 c 0.87015,-0.87015 1.38364,-2.10004 1.38364,-3.45139 0,-1.38364 -0.5304,-2.59201 -1.38364,-3.47754 h -0.009 c -0.86862,-0.89628 -2.07545,-1.43898 -3.41912,-1.43898 a 4.6582342,4.6582342 0 0 0 -3.39451,1.43898 h -0.0231 a 4.9503347,4.9503347 0 0 0 -1.40362,3.47754 4.8888399,4.8888399 0 0 0 1.40362,3.45139 l 0.0231,0.0246 a 4.7504765,4.7504765 0 0 0 3.39451,1.42822 z m 26.26445,-14.86331 a 4.7658502,4.7658502 0 0 0 2.93638,-2.27838 l 0.0892,-0.17218 a 4.9042136,4.9042136 0 0 0 0.38127,-3.55287 c -0.3167,-1.22375 -1.07616,-2.30913 -2.24764,-2.9825 l -0.0677,-0.0461 a 4.7351028,4.7351028 0 0 0 -3.58822,-0.43969 c -1.19915,0.3044 -2.27531,1.11767 -2.9333,2.28607 a 5.0118295,5.0118295 0 0 0 -0.48581,3.72813 4.9657084,4.9657084 0 0 0 2.2461,2.98557 h 0.008 c 1.15303,0.67645 2.45518,0.79482 3.66356,0.46121 z M 114.0386,97.161349 c -1.26525,-1.283705 -3.01324,-2.090825 -4.94418,-2.090825 a 6.9027959,6.9027959 0 0 0 -4.93496,2.089287 c -1.26065,1.282168 -2.03548,3.051679 -2.03548,5.019509 a 7.2102701,7.2102701 0 0 0 2.03548,5.04104 c 1.26064,1.27602 3.00402,2.07546 4.91959,2.07546 1.91556,0 3.67892,-0.79944 4.94418,-2.07546 a 7.2102701,7.2102701 0 0 0 2.03855,-5.04257 7.1180278,7.1180278 0 0 0 -2.03855,-5.019516 z m -2.76726,-8.360224 a 13.17527,13.17527 0 0 1 7.25024,3.811143 h 0.0154 a 13.252138,13.252138 0 0 1 0.88092,0.994679 l 4.81197,-2.864122 a 10.60786,10.60786 0 0 1 -0.15681,-6.021884 c 0.68566,-2.613531 2.35217,-4.950335 4.84579,-6.41545 l 0.0815,-0.05227 a 10.19277,10.19277 0 0 1 7.80523,-1.019277 10.377254,10.377254 0 0 1 6.30322,4.919587 v 0.0077 c 1.43283,2.521288 1.72186,5.414622 1.0408,8.018929 -0.68259,2.613531 -2.35217,4.965708 -4.84579,6.423136 l -0.65799,0.395104 h -0.0661 c -2.30606,1.117669 -4.84272,1.291392 -7.16876,0.667219 a 10.392628,10.392628 0 0 1 -5.03797,-3.142386 l -4.80736,2.830299 a 13.59036,13.59036 0 0 1 0.85786,4.784298 c 0,1.68495 -0.3044,3.31149 -0.85786,4.80582 l 4.80582,2.818 c 1.37288,-1.56505 3.12702,-2.61353 5.03797,-3.14393 2.56741,-0.71334 5.40847,-0.41047 7.89286,1.06387 l 0.15989,0.0769 v 0.008 a 10.546365,10.546365 0 0 1 4.68591,6.34781 10.715476,10.715476 0 0 1 -1.0408,8.01124 l -0.0861,0.17679 -0.009,-0.0154 a 10.48487,10.48487 0 0 1 -6.21405,4.7843 c -2.56741,0.68874 -5.41155,0.3951 -7.89441,-1.05771 v -0.02 a 10.515618,10.515618 0 0 1 -4.84579,-6.41852 10.561739,10.561739 0 0 1 0.15681,-6.01266 l -4.81197,-2.82569 a 13.421249,13.421249 0 0 1 -0.88091,0.97931 l -0.0154,0.0154 c -1.92478,1.96784 -4.45837,3.3361 -7.25024,3.78962 v 5.65753 a 10.285012,10.285012 0 0 1 5.1917,2.87027 l 0.008,0.0154 c 1.88021,1.90327 3.044,4.55677 3.044,7.47162 a 10.60786,10.60786 0 0 1 -3.044,7.45625 l -0.008,0.0308 c -1.89404,1.91249 -4.48912,3.0978 -7.35478,3.0978 -2.85028,0 -5.45459,-1.18377 -7.34248,-3.0978 h -0.008 v -0.0308 a 10.60786,10.60786 0 0 1 -3.04861,-7.45778 c 0,-2.9164 1.1684,-5.56836 3.04861,-7.47163 v -0.0154 h 0.008 a 10.115901,10.115901 0 0 1 5.18709,-2.87027 v -5.65753 c -2.8057,-0.45506 -5.31931,-1.82178 -7.22565,-3.78962 l -0.02,-0.0154 a 13.651855,13.651855 0 0 1 -3.90492,-9.57475 c 0,-3.735803 1.50355,-7.114944 3.90492,-9.567051 h 0.02 a 13.144522,13.144522 0 0 1 7.2423,-3.811466 v -5.634466 a 10.469497,10.469497 0 0 1 -5.18709,-2.87796 h -0.008 v -0.01537 a 10.638607,10.638607 0 0 1 -3.04861,-7.473161 10.653981,10.653981 0 0 1 3.04861,-7.471624 l 0.008,-0.0077 c 1.88789,-1.921713 4.4922,-3.105488 7.34248,-3.105488 2.86566,0 5.46228,1.183775 7.35479,3.105488 v 0.0077 h 0.008 c 1.88021,1.914028 3.044,4.570604 3.044,7.471624 a 10.669355,10.669355 0 0 1 -3.044,7.471622 l -0.008,0.01537 c -1.40209,1.420531 -3.19159,2.436733 -5.19171,2.877959 v 5.619092 z m 27.03467,-3.758874 -0.04,-0.06149 a 4.8427187,4.8427187 0 0 0 -2.89487,-2.224575 4.7504765,4.7504765 0 0 0 -3.67124,0.487346 h 0.008 c -1.1561,0.667219 -1.9294,1.76029 -2.25379,2.9825 a 4.9810821,4.9810821 0 0 0 0.48581,3.728126 l 0.0215,0.03075 c 0.66568,1.153028 1.72646,1.9294 2.91024,2.241487 1.18839,0.341296 2.51514,0.196783 3.65587,-0.47966 l 0.0615,-0.03075 c 1.12228,-0.682592 1.8756,-1.761827 2.18614,-2.945602 0.31824,-1.22221 0.19218,-2.558187 -0.46889,-3.728127 M 65.47459,151.69958 h 5.80511 v 18.0303 l 8.37098,-9.42409 h 6.95968 l -10.10514,10.91534 10.14665,13.83634 H 80.00582 L 71.2797,172.69701 v 12.36046 h -5.80511 v -33.36096 m 27.87715,21.09581 c 0,3.07013 2.17076,7.53312 7.39783,7.53312 3.23463,0 5.3808,-1.7157 6.46772,-3.96334 0.57805,-1.07616 0.84555,-2.25994 0.93318,-3.47139 0.04,-1.17455 -0.17833,-2.39829 -0.66875,-3.4806 -1.01774,-2.33682 -3.2746,-4.36615 -6.77673,-4.36615 -4.6936,0 -7.35633,3.87419 -7.35633,7.70685 v 0.0415 z m 20.55926,12.26822 h -5.80665 v -3.56055 c -1.54506,2.8795 -4.76585,4.32463 -8.19419,4.32463 -7.79908,0 -12.36046,-6.18023 -12.36046,-13.16297 0,-7.79756 5.53761,-13.11686 12.36046,-13.11686 4.43071,0 7.13341,2.38907 8.19419,4.37535 v -3.61282 h 5.80665 v 24.75169 m 6.57226,-20.19646 h -3.02247 v -4.55369 h 3.00864 v -1.3944 c 0,-7.35478 5.4961,-7.79754 9.66237,-7.84674 v 4.54601 c -1.46511,0 -3.85572,0 -3.85572,3.47907 v 1.2299 h 3.85572 v 4.55523 h -3.85572 v 20.18261 h -5.80665 v -20.19799 m 13.6211,-13.16297 h 5.80204 v 18.0303 l 8.37253,-9.42409 h 6.95967 l -10.10514,10.91534 10.14665,13.83634 h -6.64144 l -8.72612,-12.36046 v 12.36046 h -5.80357 v -33.36096 m 27.87561,21.09581 c 0,3.07013 2.15232,7.53312 7.39783,7.53312 3.22848,0 5.35927,-1.7157 6.46618,-3.96334 0.57959,-1.07616 0.84555,-2.25994 0.93472,-3.47139 0.04,-1.17455 -0.17833,-2.39829 -0.66875,-3.4806 -1.01467,-2.33682 -3.2746,-4.36615 -6.77366,-4.36615 -4.69513,0 -7.35632,3.87419 -7.35632,7.70685 z m 20.55465,12.26822 h -5.80511 v -3.56055 c -1.54967,2.8795 -4.76585,4.32463 -8.19419,4.32463 -7.79908,0 -12.35739,-6.18023 -12.35739,-13.16297 0,-7.79756 5.53454,-13.11686 12.35739,-13.11686 4.42763,0 7.1334,2.38907 8.19419,4.37535 v -3.61282 h 5.80511 v 24.75169"
       id="path2"
       style="stroke-width:1.53737" />
  </g>
</svg>
