<?xml version="1.0" encoding="UTF-8" standalone="no"?>
<svg
   xmlns:dc="http://purl.org/dc/elements/1.1/"
   xmlns:cc="http://creativecommons.org/ns#"
   xmlns:rdf="http://www.w3.org/1999/02/22-rdf-syntax-ns#"
   xmlns:svg="http://www.w3.org/2000/svg"
   xmlns="http://www.w3.org/2000/svg"
   xmlns:sodipodi="http://sodipodi.sourceforge.net/DTD/sodipodi-0.dtd"
   xmlns:inkscape="http://www.inkscape.org/namespaces/inkscape"
   width="248.0px"
   height="248.0px"
   viewBox="0 0 248.0 248.0"
   version="1.1"
   id="SVGRoot"
   sodipodi:docname="att-504_White.svg"
   inkscape:version="1.0.2-2 (e86c870879, 2021-01-15)">
  <defs
     id="defs1402">
    <inkscape:path-effect
       effect="fillet_chamfer"
       id="path-effect2040"
       is_visible="true"
       lpeversion="1"
       satellites_param="F,0,0,1,0,0,0,1 @ F,0,0,1,0,6.0755415,0,1 @ F,0,0,1,0,6.1445293,0,1 @ F,0,0,1,0,0,0,1"
       unit="px"
       method="auto"
       mode="F"
       radius="0"
       chamfer_steps="1"
       flexible="false"
       use_knot_distance="true"
       apply_no_radius="true"
       apply_with_radius="true"
       only_selected="true"
       hide_knots="false" />
    <style
       id="style1979">.cls-1{fill:url(#GreenGradient);}.cls-2{fill:#fff;}</style>
    <linearGradient
       id="GreenGradient"
       x1="-522.53"
       y1="465.47"
       x2="-416.47"
       y2="571.53"
       gradientTransform="rotate(-90,-456.5,24.5)"
       gradientUnits="userSpaceOnUse">
      <stop
         offset="0"
         stop-color="#1b660f"
         id="stop1981" />
      <stop
         offset="1"
         stop-color="#6cae3e"
         id="stop1983" />
    </linearGradient>
    <linearGradient
       id="OrangeGradient"
       x1="1131.1"
       y1="-516.47998"
       x2="1131.1"
       y2="-366.48001"
       gradientTransform="rotate(-135,816.69218,-8.7994369)"
       gradientUnits="userSpaceOnUse">
      <stop
         offset="0"
         stop-color="#c8511b"
         id="stop138" />
      <stop
         offset="1"
         stop-color="#f90"
         id="stop140" />
    </linearGradient>
    <clipPath
       id="clip1">
      <path
         d="m 93,27 h 58 V 88.851563 H 93 Z m 0,0"
         id="path2" />
    </clipPath>
    <clipPath
       id="clip2">
      <path
         d="m 161,10 h 41 v 78.851563 h -41 z m 0,0"
         id="path5" />
    </clipPath>
    <clipPath
       id="clip3">
      <path
         d="m 206,0 h 65 v 88.851563 h -65 z m 0,0"
         id="path8" />
    </clipPath>
    <clipPath
       id="clip4">
      <path
         d="m 322,26 h 57 v 62.851563 h -57 z m 0,0"
         id="path11" />
    </clipPath>
    <clipPath
       id="clip5">
      <path
         d="m 415,26 h 58.05859 V 87 H 415 Z m 0,0"
         id="path14" />
    </clipPath>
    <clipPath
       id="clip6">
      <path
         d="M 0,3 H 87 V 88.851563 H 0 Z m 0,0"
         id="path17" />
    </clipPath>
  </defs>
  <sodipodi:namedview
     id="base"
     pagecolor="#ffffff"
     bordercolor="#666666"
     borderopacity="1.0"
     inkscape:pageopacity="0"
     inkscape:pageshadow="2"
     inkscape:zoom="1.056836"
     inkscape:cx="124"
     inkscape:cy="124"
     inkscape:document-units="px"
     inkscape:current-layer="layer2"
     inkscape:document-rotation="0"
     showgrid="true"
     inkscape:window-width="1366"
     inkscape:window-height="705"
     inkscape:window-x="-8"
     inkscape:window-y="-8"
     inkscape:window-maximized="1"
     inkscape:snap-global="false"
     showguides="true">
    <inkscape:grid
       type="xygrid"
       id="grid1972" />
  </sodipodi:namedview>
  <metadata
     id="metadata1405">
    <rdf:RDF>
      <cc:Work
         rdf:about="">
        <dc:format>image/svg+xml</dc:format>
        <dc:type
           rdf:resource="http://purl.org/dc/dcmitype/StillImage" />
        <dc:title />
      </cc:Work>
    </rdf:RDF>
  </metadata>
  <g
     inkscape:groupmode="layer"
     id="layer3"
     inkscape:label="BG" />
  <g
     inkscape:groupmode="layer"
     id="layer4"
     inkscape:label="Bounding Box" />
  <g
     inkscape:groupmode="layer"
     id="layer2"
     inkscape:label="Top">
    <g
       id="g858"
       transform="translate(-0.19315289,-0.04989999)">
      <path
         style="fill:none;fill-opacity:1;stroke:#000000;stroke-width:4.5;stroke-linecap:round;stroke-linejoin:round;stroke-miterlimit:4;stroke-dasharray:none;stroke-opacity:1;paint-order:normal"
         id="path883"
         sodipodi:type="arc"
         sodipodi:cx="154.57903"
         sodipodi:cy="83.172447"
         sodipodi:rx="111.24604"
         sodipodi:ry="111.24604"
         sodipodi:start="5.9893981"
         sodipodi:end="5.9807042"
         sodipodi:open="true"
         sodipodi:arc-type="arc"
         transform="rotate(16.68412)"
         d="M 261.05862,50.957904 A 111.24604,111.24604 0 0 1 187.02492,189.58178 111.24604,111.24604 0 0 1 48.240468,115.84955 111.24604,111.24604 0 0 1 121.67088,-23.094836 111.24604,111.24604 0 0 1 260.77453,50.03341" />
      <path
         style="fill:#3d3846;fill-opacity:0.326613;stroke:none;stroke-width:4.45107;stroke-linecap:round;stroke-linejoin:round;stroke-miterlimit:4;stroke-dasharray:none;stroke-opacity:1;paint-order:normal"
         id="path885"
         sodipodi:type="arc"
         sodipodi:cx="154.57903"
         sodipodi:cy="83.172447"
         sodipodi:rx="110.03654"
         sodipodi:ry="110.03654"
         sodipodi:start="5.9893981"
         sodipodi:end="5.9807042"
         sodipodi:open="true"
         sodipodi:arc-type="arc"
         transform="rotate(16.68412)"
         d="M 259.90094,51.308151 A 110.03654,110.03654 0 0 1 186.67216,188.42486 110.03654,110.03654 0 0 1 49.396616,115.49427 110.03654,110.03654 0 0 1 122.02867,-21.939463 110.03654,110.03654 0 0 1 259.61994,50.393709" />
    </g>
    <path
       d="m 100.89646,56.312326 c 0,0 5.80983,-1.042206 10.86076,-1.042206 7.67371,0 11.51135,1.042206 12.82824,1.042206 h 22.67033 c -6.95248,-3.654785 -14.84829,-5.724286 -23.24873,-5.724286 -8.38002,0 -16.1691,2.085197 -23.1106,5.724286 z m 58.07395,8.584858 h -16.92094 c -6.56009,0 -20.5977,-1.144229 -26.35573,-1.144229 h -15.8544 c -3.635949,0 -10.861545,1.144229 -10.861545,1.144229 2.136993,-2.09226 3.892577,-3.568457 5.105083,-4.37601 0,0 4.443502,0.915855 8.383952,0.915855 2.52311,0 14.03604,-0.0071 14.03604,-0.0071 5.25184,0 16.96567,-2.228815 20.90376,-2.228815 l 14.68585,-0.0071 c 2.4925,1.689661 4.73466,3.604558 6.87793,5.703096 z m 7.12122,8.584859 h -21.315 c -4.43879,0 -18.27549,-1.447945 -23.42766,-1.447945 H 93.071279 c -3.633595,0 -11.12916,1.447945 -11.12916,1.447945 1.298049,-2.006718 1.991807,-2.884117 3.556686,-4.679725 0,0 4.24181,0.707099 8.182259,0.707099 h 27.668686 c 6.66761,0 17.67434,-1.728116 21.81413,-1.728116 h 18.61923 a 49.870502,49.870502 0 0 1 4.30852,5.700742 z m -88.596152,8.481266 c 0.787148,-1.965909 1.692015,-2.947685 2.712247,-4.781748 0,0 5.493556,1.013168 9.031406,1.013168 l 37.665389,0.0016 c 4.44507,0 16.36295,-1.932947 19.39461,-1.932947 l 21.53317,0.0016 a 49.66881,49.66881 0 0 1 2.70204,5.701527 l -23.02741,-7.85e-4 c -4.13822,0 -14.64268,-1.345921 -20.39679,-1.345921 l -38.278317,-0.0016 c -4.444286,7.85e-4 -11.336345,1.345137 -11.336345,1.345137 z m -2.581187,8.689236 c 0,0 8.665693,-1.651991 11.899043,-1.651991 H 127.0089 c 3.63438,0 18.68201,1.651991 23.32956,1.651991 h 22.75588 a 49.78339,49.78339 0 0 0 -1.51151,-5.697603 l -22.2544,-7.84e-4 c -5.05093,0 -18.07929,1.321592 -22.52593,1.321592 l -39.686236,-7.84e-4 c -4.040118,0 -10.677118,-1.323163 -10.677118,-1.323163 a 49.398057,49.398057 0 0 0 -1.524855,5.700742 z m -0.993548,8.584859 c 0,0 10.36634,-1.854468 13.596551,-1.854468 h 37.167046 c 5.65444,0 21.10703,1.854468 25.74987,1.854468 h 23.61758 a 50.133408,50.133408 0 0 0 -0.48108,-5.700742 h -24.14025 c -4.75036,0 -18.38458,1.221139 -24.7469,1.221139 l -36.25669,-7.85e-4 c -5.149817,0 -14.024264,-1.222708 -14.024264,-1.222708 a 50.370416,50.370416 0 0 0 -0.481863,5.703096 z m 0,2.884116 c 0,0 15.112772,1.32159 19.556275,1.32159 h 26.361222 c 6.25951,0 22.8218,-1.32159 27.17034,-1.32159 h 27.07068 a 50.590943,50.590943 0 0 1 -0.48893,5.70624 l -26.5896,-0.002 c -5.24948,0 -21.00421,-1.95963 -27.37125,-1.95963 l -25.645486,-7.9e-4 c -4.647548,0 -19.55392,1.95728 -19.55392,1.95728 -0.26683,-1.87017 -0.455181,-3.77015 -0.509331,-5.70153 z m 2.523896,14.28717 a 49.548737,49.548737 0 0 1 -1.52093,-5.7133 c 0,0 18.305314,1.46521 30.975811,1.46521 13.7747,0 26.19327,-1.45736 31.81004,-1.45736 l 35.38792,0.004 a 49.532256,49.532256 0 0 1 -1.52642,5.70153 h -34.03101 c -9.92921,0 -20.07267,-1.48718 -32.74631,-1.48718 -12.077972,0 -28.349101,1.48718 -28.349101,1.48718 z m 94.081071,2.88726 a 49.892477,49.892477 0 0 1 -2.7146,5.68897 l -87.585335,0.009 c -1.015523,-1.82622 -1.957275,-3.74347 -2.742854,-5.70153 z m -4.43565,8.58093 H 81.948398 a 50.288013,50.288013 0 0 0 4.307732,5.70153 h 75.51913 a 50.886025,50.886025 0 0 0 4.3148,-5.70153 z m -13.9607,14.28639 H 95.937346 a 50.400238,50.400238 0 0 1 -6.973677,-5.70153 l 70.096211,-0.002 c -2.14563,2.10089 -4.4388,4.01343 -6.93052,5.70388 z m -4.8359,2.87234 c -6.95562,3.65792 -14.88047,5.72821 -23.28483,5.72821 a 49.892477,49.892477 0 0 1 -23.23068,-5.71565 z"
       fill="#109bd6"
       id="path4"
       style="clip-rule:evenodd;fill-rule:evenodd;stroke-width:0.784794" />
    <path
       d="m 99.633724,158.84877 h 30.087426 v 8.11162 h -9.88213 v 30.02935 h -10.32317 v -30.02935 h -9.882126 z m -13.573007,23.56264 3.690885,-11.63535 3.249831,11.63535 z m -14.95189,14.57833 13.323443,-38.14097 h 10.696738 l 12.574752,38.14097 H 97.256584 l -2.127576,-6.75707 H 83.808359 l -2.501923,6.75707 z m 75.694143,-38.14097 h 30.0882 v 8.11162 h -9.8829 v 30.02935 h -10.3224 v -30.02935 h -9.8829 z"
       id="path6"
       style="clip-rule:evenodd;fill-rule:evenodd;stroke-width:0.784794" />
    <path
       d="m 134.01475,185.37715 c 0,0 5.57047,4.36188 6.31053,5.1349 -1.44559,0 -4.93714,0.37827 -5.79099,-0.73613 -1.37496,-1.59706 -1.04064,-3.82587 -0.51954,-4.39877 z m 2.82134,-13.20651 c 0.92919,0 1.8474,0.89231 1.8474,1.52956 v 4.63578 l 7.27504,-0.0188 v 6.29405 c 0,0.30058 -0.13342,0.30058 -0.43085,0.30058 -0.48265,0 -8.41064,-6.79318 -9.69378,-8.35727 -0.62862,-0.77538 -0.89388,-1.62296 -0.89388,-2.63926 0,-0.89702 0.89388,-1.7446 1.89607,-1.7446 z m 0.33432,-5.94089 c 2.7664,0 5.01405,0.43399 6.75943,1.85447 1.59705,1.3004 2.06479,3.34322 2.06479,5.73919 v 4.49295 l 7.3802,-0.0173 v 9.43401 c 0,0.80127 -0.53523,2.29787 -0.53523,2.29787 0,0 1.31061,0.0267 2.14013,0 v 6.67232 c -0.5211,0 -0.8154,0.0133 -1.3365,0.0133 -1.68417,0 -2.87549,0.12008 -4.22612,-0.85542 -0.41358,-0.2943 -0.73299,-0.58781 -1.17876,-0.58781 -0.40809,0 -0.66707,0.36022 -1.17405,0.58781 -1.76578,0.8154 -2.87548,1.21643 -4.81471,1.38987 -2.1519,0.2009 -3.39501,0.18678 -5.56261,0.10751 -5.44176,-0.21346 -10.24235,-2.80799 -11.33792,-8.12967 -0.3202,-1.59078 -0.34766,-2.58041 0,-4.17118 0.33432,-1.55154 0.5886,-2.54038 1.6049,-3.74425 0.57447,-0.68199 1.49739,-1.1199 1.49739,-1.765 0,-0.3202 -0.62862,-0.77538 -0.85543,-1.33729 -0.58859,-1.404 -0.74947,-2.32613 -0.74947,-3.85099 0,-2.15269 0.18678,-3.71678 1.71242,-5.24163 2.51448,-2.51448 5.06819,-2.88883 8.61154,-2.88883 z"
       id="path8-1"
       style="clip-rule:evenodd;fill-rule:evenodd;stroke-width:0.784794" />
  </g>
</svg>
