<?xml version="1.0" encoding="UTF-8" standalone="no"?>
<svg
   xmlns:dc="http://purl.org/dc/elements/1.1/"
   xmlns:cc="http://creativecommons.org/ns#"
   xmlns:rdf="http://www.w3.org/1999/02/22-rdf-syntax-ns#"
   xmlns:svg="http://www.w3.org/2000/svg"
   xmlns="http://www.w3.org/2000/svg"
   xmlns:sodipodi="http://sodipodi.sourceforge.net/DTD/sodipodi-0.dtd"
   xmlns:inkscape="http://www.inkscape.org/namespaces/inkscape"
   width="248.0px"
   height="248.0px"
   viewBox="0 0 248.0 248.0"
   version="1.1"
   id="SVGRoot"
   sodipodi:docname="AWS-Shield_Shield-Advanced Dark.svg"
   inkscape:version="1.0.2-2 (e86c870879, 2021-01-15)">
  <defs
     id="defs1402">
    <inkscape:path-effect
       effect="fillet_chamfer"
       id="path-effect2040"
       is_visible="true"
       lpeversion="1"
       satellites_param="F,0,0,1,0,0,0,1 @ F,0,0,1,0,6.0755415,0,1 @ F,0,0,1,0,6.1445293,0,1 @ F,0,0,1,0,0,0,1"
       unit="px"
       method="auto"
       mode="F"
       radius="0"
       chamfer_steps="1"
       flexible="false"
       use_knot_distance="true"
       apply_no_radius="true"
       apply_with_radius="true"
       only_selected="true"
       hide_knots="false" />
    <style
       id="style1979">.cls-1{fill:url(#GreenGradient);}.cls-2{fill:#fff;}</style>
    <linearGradient
       id="GreenGradient"
       x1="-522.53"
       y1="465.47"
       x2="-416.47"
       y2="571.53"
       gradientTransform="rotate(-90,-456.5,24.5)"
       gradientUnits="userSpaceOnUse">
      <stop
         offset="0"
         stop-color="#1b660f"
         id="stop1981" />
      <stop
         offset="1"
         stop-color="#6cae3e"
         id="stop1983" />
    </linearGradient>
    <linearGradient
       id="OrangeGradient"
       x1="-15.54"
       y1="90.540001"
       x2="90.529999"
       y2="-15.53"
       gradientUnits="userSpaceOnUse">
      <stop
         offset="0"
         stop-color="#c8511b"
         id="stop4" />
      <stop
         offset="1"
         stop-color="#f90"
         id="stop6" />
    </linearGradient>
  </defs>
  <sodipodi:namedview
     id="base"
     pagecolor="#101010"
     bordercolor="#666666"
     borderopacity="1.0"
     inkscape:pageopacity="0"
     inkscape:pageshadow="2"
     inkscape:zoom="1.056836"
     inkscape:cx="157.19502"
     inkscape:cy="126.30162"
     inkscape:document-units="px"
     inkscape:current-layer="layer2"
     inkscape:document-rotation="0"
     showgrid="true"
     inkscape:window-width="1366"
     inkscape:window-height="705"
     inkscape:window-x="-8"
     inkscape:window-y="-8"
     inkscape:window-maximized="1"
     inkscape:snap-global="false"
     showguides="true">
    <inkscape:grid
       type="xygrid"
       id="grid1972" />
  </sodipodi:namedview>
  <metadata
     id="metadata1405">
    <rdf:RDF>
      <cc:Work
         rdf:about="">
        <dc:format>image/svg+xml</dc:format>
        <dc:type
           rdf:resource="http://purl.org/dc/dcmitype/StillImage" />
        <dc:title />
      </cc:Work>
    </rdf:RDF>
  </metadata>
  <g
     inkscape:groupmode="layer"
     id="layer4"
     inkscape:label="Bounding Box" />
  <g
     inkscape:groupmode="layer"
     id="layer2"
     inkscape:label="Top">
    <g
       id="g847"
       transform="translate(-0.19315289,-0.04989999)"
       style="fill:#5e5c64">
      <path
         style="fill:#5e5c64;fill-opacity:0.326613;stroke:none;stroke-width:3;stroke-linecap:round;stroke-linejoin:round;stroke-miterlimit:4;stroke-dasharray:none;stroke-opacity:1;paint-order:normal"
         id="path885"
         sodipodi:type="arc"
         sodipodi:cx="154.57903"
         sodipodi:cy="83.172447"
         sodipodi:rx="111.24603"
         sodipodi:ry="111.24603"
         sodipodi:start="5.9893981"
         sodipodi:end="5.9807042"
         sodipodi:open="true"
         sodipodi:arc-type="arc"
         transform="rotate(16.68412)"
         d="M 261.05862,50.957906 A 111.24603,111.24603 0 0 1 187.02492,189.58177 111.24603,111.24603 0 0 1 48.240476,115.84954 111.24603,111.24603 0 0 1 121.67088,-23.094829 111.24603,111.24603 0 0 1 260.77453,50.033412" />
      <path
         style="fill:#5e5c64;fill-opacity:1;stroke:#ffffff;stroke-width:4.5;stroke-linecap:round;stroke-linejoin:round;stroke-miterlimit:4;stroke-dasharray:none;stroke-opacity:1;paint-order:normal"
         id="path883"
         sodipodi:type="arc"
         sodipodi:cx="154.57903"
         sodipodi:cy="83.172447"
         sodipodi:rx="111.24604"
         sodipodi:ry="111.24604"
         sodipodi:start="5.9893981"
         sodipodi:end="5.9807042"
         sodipodi:open="true"
         sodipodi:arc-type="arc"
         transform="rotate(16.68412)"
         d="M 261.05862,50.957904 A 111.24604,111.24604 0 0 1 187.02492,189.58178 111.24604,111.24604 0 0 1 48.240468,115.84955 111.24604,111.24604 0 0 1 121.67088,-23.094836 111.24604,111.24604 0 0 1 260.77453,50.03341" />
    </g>
    <g
       id="Working"
       transform="matrix(2.8972419,0,0,2.8972419,51.568959,51.684845)"
       style="fill:#ffffff">
      <path
         class="cls-1"
         d="M 20.67,45.92 C 3.67,45.92 3.52,27.86 3.52,27.68 V 8.09 L 20.67,1 37.82,8.09 v 19.64 a 19.06,19.06 0 0 1 -0.2,2.43 l -2,-0.28 A 17.1,17.1 0 0 0 35.8,27.73 V 9.43 L 20.67,3.17 5.52,9.43 v 18.25 c 0,0.66 0.21,16.24 15.15,16.24 a 16.3,16.3 0 0 0 6.56,-1.25 L 28,44.5 a 18.27,18.27 0 0 1 -7.33,1.42 z"
         id="path8"
         style="fill:#ffffff" />
      <rect
         class="cls-1"
         x="19.67"
         y="9.4200001"
         width="2"
         height="29.469999"
         id="rect10"
         style="fill:#ffffff" />
      <path
         class="cls-1"
         d="m 20.67,39.9 c -3.8,0 -7,-2 -9.24,-5.91 A 20.64,20.64 0 0 1 9.21,28.27 V 12.9 L 20.67,8.35 32.15,12.9 V 28.27 A 20.43,20.43 0 0 1 29.92,34 c -2.25,3.85 -5.45,5.9 -9.25,5.9 z M 11.2,28 c 0.21,1 2.4,9.93 9.47,9.93 7.07,0 9.26,-8.93 9.48,-9.93 V 14.25 L 20.67,10.5 11.2,14.25 Z"
         id="path12"
         style="fill:#ffffff" />
      <path
         class="cls-1"
         d="m 37.86,48.92 a 8.62,8.62 0 1 1 8.62,-8.62 8.63,8.63 0 0 1 -8.62,8.62 z m 0,-15.24 a 6.62,6.62 0 1 0 6.62,6.62 6.63,6.63 0 0 0 -6.62,-6.62 z"
         id="path14"
         style="fill:#ffffff" />
      <rect
         class="cls-1"
         x="36.860001"
         y="35.540001"
         width="2"
         height="9.5200005"
         id="rect16"
         style="fill:#ffffff" />
      <rect
         class="cls-1"
         x="33.099998"
         y="39.299999"
         width="9.5200005"
         height="2"
         id="rect18"
         style="fill:#ffffff" />
    </g>
  </g>
</svg>
