<?xml version="1.0" encoding="UTF-8" standalone="no"?>
<!-- Created with Vectornator for iOS (http://vectornator.io/) -->
<!DOCTYPE svg PUBLIC "-//W3C//DTD SVG 1.1//EN" "http://www.w3.org/Graphics/SVG/1.1/DTD/svg11.dtd">
<svg height="248px" style="fill-rule:evenodd;clip-rule:evenodd;stroke-linecap:round;stroke-linejoin:round;"
    xmlns:xlink="http://www.w3.org/1999/xlink" xmlns="http://www.w3.org/2000/svg" xml:space="preserve" width="248px"
    xmlns:vectornator="http://vectornator.io" version="1.1" viewBox="0 0 248 248">
    <metadata>
        <vectornator:setting key="DimensionsVisible" value="0" />
        <vectornator:setting key="PencilOnly" value="0" />
        <vectornator:setting key="SnapToPoints" value="0" />
        <vectornator:setting key="OutlineMode" value="0" />
        <vectornator:setting key="CMYKEnabledKey" value="0" />
        <vectornator:setting key="RulersVisible" value="1" />
        <vectornator:setting key="SnapToEdges" value="0" />
        <vectornator:setting key="GuidesVisible" value="0" />
        <vectornator:setting key="DisplayWhiteBackground" value="0" />
        <vectornator:setting key="doHistoryDisabled" value="0" />
        <vectornator:setting key="SnapToGuides" value="1" />
        <vectornator:setting key="TimeLapseWatermarkDisabled" value="0" />
        <vectornator:setting key="Units" value="Points" />
        <vectornator:setting key="DynamicGuides" value="1" />
        <vectornator:setting key="IsolateActiveLayer" value="0" />
        <vectornator:setting key="SnapToGrid" value="0" />
    </metadata>
    <defs />
    <g id="layer2" vectornator:layerName="layer2">
        <g opacity="1">
            <path
                d="M235.246+123.711C235.405+185.056+185.875+234.952+124.53+235.245C63.186+235.537+13.1825+186.116+12.7567+124.772C12.3309+63.4286+61.6435+13.3177+122.986+12.7586C184.329+12.1995+234.547+61.4031+235.239+122.744"
                fill-opacity="0.326613" fill="#5e5c64" opacity="1" />
            <path stroke="#ffffff" stroke-width="4.5"
                d="M235.246+123.711C235.405+185.056+185.875+234.952+124.53+235.245C63.186+235.537+13.1825+186.116+12.7567+124.772C12.3308+63.4286+61.6435+13.3178+122.986+12.7586C184.329+12.1995+234.547+61.4031+235.239+122.744"
                fill="#5e5c64" stroke-linecap="round" opacity="1" stroke-linejoin="round" />
        </g>
    </g>
    <g id="Untitled Copy" vectornator:layerName="Untitled Copy">
        <g opacity="1">
            <path
                d="M92.4208+112.158C92.4208+113.939+92.6134+115.384+92.9503+116.443C93.3354+117.502+93.8168+118.657+94.4907+119.908C94.7314+120.293+94.8277+120.679+94.8277+121.016C94.8277+121.497+94.5388+121.978+93.9131+122.46L90.8805+124.481C90.4472+124.77+90.014+124.915+89.6289+124.915C89.1476+124.915+88.6662+124.674+88.1848+124.241C87.5109+123.519+86.9333+122.748+86.4519+121.978C85.9705+121.16+85.4892+120.245+84.9597+119.138C81.205+123.567+76.4877+125.781+70.8076+125.781C66.7641+125.781+63.539+124.626+61.1803+122.315C58.8216+120.005+57.6182+116.924+57.6182+113.073C57.6182+108.981+59.0623+105.66+61.9986+103.157C64.9349+100.654+68.834+99.4023+73.792+99.4023C75.4287+99.4023+77.1134+99.5467+78.8945+99.7874C80.6755+100.028+82.5047+100.413+84.4302+100.846L84.4302+97.3324C84.4302+93.674+83.66+91.1228+82.1678+89.6306C80.6274+88.1384+78.028+87.4163+74.3215+87.4163C72.6368+87.4163+70.9038+87.6089+69.1228+88.0421C67.3417+88.4753+65.6088+89.0048+63.9241+89.6787C63.1539+90.0157+62.5762+90.2082+62.2393+90.3045C61.9023+90.4008+61.6616+90.4489+61.4691+90.4489C60.7952+90.4489+60.4582+89.9675+60.4582+88.9567L60.4582+86.598C60.4582+85.8278+60.5545+85.2502+60.7952+84.9132C61.0359+84.5763+61.4691+84.2393+62.143+83.9023C63.8278+83.0359+65.8495+82.3138+68.2082+81.7362C70.5669+81.1104+73.07+80.8216+75.7175+80.8216C81.4457+80.8216+85.6336+82.1213+88.3292+84.7207C90.9767+87.32+92.3246+91.2672+92.3246+96.5622L92.3246+112.158L92.4208+112.158ZM72.8774+119.475C74.4659+119.475+76.1026+119.186+77.8355+118.609C79.5684+118.031+81.1088+116.972+82.4084+115.528C83.1786+114.613+83.7563+113.603+84.0451+112.447C84.3339+111.292+84.5265+109.896+84.5265+108.259L84.5265+106.238C83.1305+105.901+81.6383+105.612+80.0979+105.419C78.5575+105.227+77.0653+105.131+75.5731+105.131C72.3479+105.131+69.9892+105.756+68.4007+107.056C66.8122+108.356+66.0421+110.185+66.0421+112.592C66.0421+114.854+66.6197+116.539+67.8231+117.694C68.9784+118.898+70.6632+119.475+72.8774+119.475ZM111.531+124.674C110.665+124.674+110.087+124.53+109.702+124.193C109.317+123.904+108.98+123.23+108.691+122.315L97.3789+85.1058C97.0901+84.143+96.9457+83.5173+96.9457+83.1803C96.9457+82.4101+97.3307+81.9769+98.1009+81.9769L102.818+81.9769C103.733+81.9769+104.359+82.1213+104.696+82.4583C105.081+82.7471+105.37+83.421+105.658+84.3356L113.745+116.202L121.255+84.3356C121.495+83.3728+121.784+82.7471+122.169+82.4583C122.554+82.1694+123.228+81.9769+124.095+81.9769L127.946+81.9769C128.86+81.9769+129.486+82.1213+129.871+82.4583C130.256+82.7471+130.593+83.421+130.786+84.3356L138.391+116.587L146.719+84.3356C147.008+83.3728+147.345+82.7471+147.681+82.4583C148.067+82.1694+148.692+81.9769+149.559+81.9769L154.035+81.9769C154.806+81.9769+155.239+82.362+155.239+83.1803C155.239+83.421+155.191+83.6617+155.143+83.9505C155.094+84.2393+154.998+84.6244+154.806+85.1539L143.205+122.363C142.916+123.326+142.579+123.952+142.194+124.241C141.809+124.53+141.183+124.722+140.365+124.722L136.225+124.722C135.31+124.722+134.685+124.578+134.3+124.241C133.914+123.904+133.577+123.278+133.385+122.315L125.924+91.2672L118.511+122.267C118.27+123.23+117.981+123.856+117.596+124.193C117.211+124.53+116.537+124.674+115.671+124.674L111.531+124.674ZM173.386+125.974C170.883+125.974+168.38+125.685+165.973+125.107C163.566+124.53+161.689+123.904+160.438+123.182C159.667+122.748+159.138+122.267+158.945+121.834C158.753+121.401+158.657+120.919+158.657+120.486L158.657+118.031C158.657+117.02+159.042+116.539+159.764+116.539C160.053+116.539+160.341+116.587+160.63+116.683C160.919+116.78+161.352+116.972+161.834+117.165C163.47+117.887+165.251+118.464+167.129+118.849C169.054+119.234+170.931+119.427+172.857+119.427C175.889+119.427+178.248+118.898+179.885+117.839C181.521+116.78+182.388+115.239+182.388+113.266C182.388+111.918+181.955+110.811+181.088+109.896C180.222+108.981+178.585+108.163+176.226+107.393L169.247+105.227C165.733+104.12+163.133+102.483+161.545+100.317C159.956+98.1989+159.138+95.8402+159.138+93.3371C159.138+91.3154+159.571+89.5343+160.438+87.9939C161.304+86.4536+162.459+85.1058+163.903+84.0468C165.348+82.9396+166.984+82.1213+168.91+81.5437C170.835+80.966+172.857+80.7253+174.975+80.7253C176.034+80.7253+177.141+80.7735+178.2+80.9179C179.307+81.0623+180.318+81.2548+181.329+81.4474C182.292+81.6881+183.206+81.9288+184.073+82.2176C184.939+82.5064+185.613+82.7952+186.094+83.084C186.768+83.4691+187.25+83.8542+187.538+84.2874C187.827+84.6725+187.972+85.202+187.972+85.8759L187.972+88.1384C187.972+89.1492+187.587+89.6787+186.865+89.6787C186.479+89.6787+185.854+89.4862+185.035+89.1011C182.292+87.8495+179.211+87.2238+175.793+87.2238C173.049+87.2238+170.883+87.657+169.391+88.5716C167.899+89.4862+167.129+90.8821+167.129+92.8557C167.129+94.2035+167.61+95.3588+168.573+96.2734C169.535+97.188+171.316+98.1026+173.868+98.9209L180.703+101.087C184.169+102.194+186.672+103.735+188.164+105.708C189.656+107.682+190.378+109.944+190.378+112.447C190.378+114.517+189.945+116.394+189.127+118.031C188.26+119.668+187.105+121.112+185.613+122.267C184.121+123.47+182.34+124.337+180.27+124.963C178.104+125.637+175.841+125.974+173.386+125.974Z"
                opacity="1" fill="#f7f9fb" />
            <g opacity="1">
                <path
                    d="M182.484+149.368C166.647+161.065+143.638+167.275+123.854+167.275C96.1273+167.275+71.1445+157.022+52.275+139.981C50.7828+138.633+52.1306+136.804+53.9117+137.863C74.3215+149.705+99.4969+156.877+125.539+156.877C143.108+156.877+162.411+153.219+180.174+145.71C182.821+144.506+185.083+147.442+182.484+149.368Z"
                    fill-rule="evenodd" fill="#ff9900" opacity="1" />
                <path
                    d="M189.079+141.859C187.057+139.259+175.697+140.607+170.546+141.233C169.006+141.425+168.765+140.078+170.161+139.067C179.211+132.713+194.085+134.542+195.818+136.66C197.551+138.826+195.337+153.7+186.865+160.824C185.565+161.932+184.313+161.354+184.891+159.91C186.816+155.144+191.101+144.41+189.079+141.859Z"
                    fill-rule="evenodd" fill="#ff9900" opacity="1" />
            </g>
        </g>
    </g>
</svg>