<?xml version="1.0" encoding="UTF-8" standalone="no"?>
<svg
   xmlns:dc="http://purl.org/dc/elements/1.1/"
   xmlns:cc="http://creativecommons.org/ns#"
   xmlns:rdf="http://www.w3.org/1999/02/22-rdf-syntax-ns#"
   xmlns:svg="http://www.w3.org/2000/svg"
   xmlns="http://www.w3.org/2000/svg"
   xmlns:sodipodi="http://sodipodi.sourceforge.net/DTD/sodipodi-0.dtd"
   xmlns:inkscape="http://www.inkscape.org/namespaces/inkscape"
   width="248.0px"
   height="248.0px"
   viewBox="0 0 248.0 248.0"
   version="1.1"
   id="SVGRoot"
   sodipodi:docname="AWS-Direct-Connect White.svg"
   inkscape:version="1.0.2-2 (e86c870879, 2021-01-15)">
  <defs
     id="defs1402">
    <inkscape:path-effect
       effect="fillet_chamfer"
       id="path-effect2040"
       is_visible="true"
       lpeversion="1"
       satellites_param="F,0,0,1,0,0,0,1 @ F,0,0,1,0,6.0755415,0,1 @ F,0,0,1,0,6.1445293,0,1 @ F,0,0,1,0,0,0,1"
       unit="px"
       method="auto"
       mode="F"
       radius="0"
       chamfer_steps="1"
       flexible="false"
       use_knot_distance="true"
       apply_no_radius="true"
       apply_with_radius="true"
       only_selected="true"
       hide_knots="false" />
    <style
       id="style1979">.cls-1{fill:url(#GreenGradient);}.cls-2{fill:#fff;}</style>
    <linearGradient
       id="GreenGradient"
       x1="-522.53"
       y1="465.47"
       x2="-416.47"
       y2="571.53"
       gradientTransform="rotate(-90,-456.5,24.5)"
       gradientUnits="userSpaceOnUse">
      <stop
         offset="0"
         stop-color="#1b660f"
         id="stop1981" />
      <stop
         offset="1"
         stop-color="#6cae3e"
         id="stop1983" />
    </linearGradient>
    <linearGradient
       id="OrangeGradient"
       x1="1131.1"
       y1="-516.47998"
       x2="1131.1"
       y2="-366.48001"
       gradientTransform="rotate(-135,816.69218,-8.7994369)"
       gradientUnits="userSpaceOnUse">
      <stop
         offset="0"
         stop-color="#c8511b"
         id="stop138" />
      <stop
         offset="1"
         stop-color="#f90"
         id="stop140" />
    </linearGradient>
    <linearGradient
       id="a"
       gradientTransform="matrix(10.948793,0,0,-10.948793,-716.33299,1823.6321)"
       gradientUnits="userSpaceOnUse"
       x1="62.57"
       x2="25.030001"
       y1="150.13"
       y2="85.110001">
      <stop
         offset="0"
         stop-color="#0052cc"
         id="stop2" />
      <stop
         offset=".92"
         stop-color="#2684ff"
         id="stop4-5" />
    </linearGradient>
  </defs>
  <sodipodi:namedview
     id="base"
     pagecolor="#ffffff"
     bordercolor="#666666"
     borderopacity="1.0"
     inkscape:pageopacity="0"
     inkscape:pageshadow="2"
     inkscape:zoom="1.7379032"
     inkscape:cx="124"
     inkscape:cy="124"
     inkscape:document-units="px"
     inkscape:current-layer="layer2"
     inkscape:document-rotation="0"
     showgrid="true"
     inkscape:window-width="1366"
     inkscape:window-height="705"
     inkscape:window-x="-8"
     inkscape:window-y="-8"
     inkscape:window-maximized="1"
     inkscape:snap-global="false"
     showguides="true">
    <inkscape:grid
       type="xygrid"
       id="grid1972" />
  </sodipodi:namedview>
  <metadata
     id="metadata1405">
    <rdf:RDF>
      <cc:Work
         rdf:about="">
        <dc:format>image/svg+xml</dc:format>
        <dc:type
           rdf:resource="http://purl.org/dc/dcmitype/StillImage" />
        <dc:title />
      </cc:Work>
    </rdf:RDF>
  </metadata>
  <g
     inkscape:groupmode="layer"
     id="layer3"
     inkscape:label="BG" />
  <g
     inkscape:groupmode="layer"
     id="layer4"
     inkscape:label="Bounding Box" />
  <g
     inkscape:groupmode="layer"
     id="layer2"
     inkscape:label="Top">
    <g
       id="g858"
       transform="translate(-0.19315289,-0.04989999)">
      <path
         style="fill:none;fill-opacity:1;stroke:#000000;stroke-width:4.5;stroke-linecap:round;stroke-linejoin:round;stroke-miterlimit:4;stroke-dasharray:none;stroke-opacity:1;paint-order:normal"
         id="path883"
         sodipodi:type="arc"
         sodipodi:cx="154.57903"
         sodipodi:cy="83.172447"
         sodipodi:rx="111.24604"
         sodipodi:ry="111.24604"
         sodipodi:start="5.9893981"
         sodipodi:end="5.9807042"
         sodipodi:open="true"
         sodipodi:arc-type="arc"
         transform="rotate(16.68412)"
         d="M 261.05862,50.957904 A 111.24604,111.24604 0 0 1 187.02492,189.58178 111.24604,111.24604 0 0 1 48.240468,115.84955 111.24604,111.24604 0 0 1 121.67088,-23.094836 111.24604,111.24604 0 0 1 260.77453,50.03341" />
      <path
         style="fill:#3d3846;fill-opacity:0.326613;stroke:none;stroke-width:4.45107;stroke-linecap:round;stroke-linejoin:round;stroke-miterlimit:4;stroke-dasharray:none;stroke-opacity:1;paint-order:normal"
         id="path885"
         sodipodi:type="arc"
         sodipodi:cx="154.57903"
         sodipodi:cy="83.172447"
         sodipodi:rx="110.03654"
         sodipodi:ry="110.03654"
         sodipodi:start="5.9893981"
         sodipodi:end="5.9807042"
         sodipodi:open="true"
         sodipodi:arc-type="arc"
         transform="rotate(16.68412)"
         d="M 259.90094,51.308151 A 110.03654,110.03654 0 0 1 186.67216,188.42486 110.03654,110.03654 0 0 1 49.396616,115.49427 110.03654,110.03654 0 0 1 122.02867,-21.939463 110.03654,110.03654 0 0 1 259.61994,50.393709" />
    </g>
    <circle
       style="fill:#ffffff;stroke-width:3;stroke-linecap:round;stroke-linejoin:round"
       id="circle76"
       sodipodi:type="arc"
       sodipodi:cx="138.23952"
       sodipodi:cy="115.55589"
       sodipodi:rx="6.6506987"
       sodipodi:ry="6.6506987"
       sodipodi:start="5.989394"
       sodipodi:end="5.9807023"
       sodipodi:open="true"
       sodipodi:arc-type="arc"
       d="m 144.60525,113.62996 a 6.6506987,6.6506987 0 0 1 -4.42597,8.28747 6.6506987,6.6506987 0 0 1 -8.29707,-4.40796 6.6506987,6.6506987 0 0 1 4.38992,-8.30662 6.6506987,6.6506987 0 0 1 8.31614,4.37186" />
    <circle
       style="fill:#ffffff;stroke-width:3;stroke-linecap:round;stroke-linejoin:round"
       id="circle74"
       sodipodi:type="arc"
       sodipodi:cx="120.78143"
       sodipodi:cy="96.316376"
       sodipodi:rx="6.6506987"
       sodipodi:ry="6.6506987"
       sodipodi:start="5.989394"
       sodipodi:end="5.9807023"
       sodipodi:open="true"
       sodipodi:arc-type="arc"
       d="m 127.14717,94.390445 a 6.6506987,6.6506987 0 0 1 -4.42598,8.287465 6.6506987,6.6506987 0 0 1 -8.29706,-4.407958 6.6506987,6.6506987 0 0 1 4.38992,-8.306622 6.6506987,6.6506987 0 0 1 8.31614,4.37186" />
    <circle
       style="fill:#ffffff;stroke-width:3;stroke-linecap:round;stroke-linejoin:round"
       id="path72"
       sodipodi:type="arc"
       sodipodi:cx="104.27345"
       sodipodi:cy="115.55589"
       sodipodi:rx="6.6506987"
       sodipodi:ry="6.6506987"
       sodipodi:start="5.989394"
       sodipodi:end="5.9807023"
       sodipodi:open="true"
       sodipodi:arc-type="arc"
       d="m 110.63919,113.62996 a 6.6506987,6.6506987 0 0 1 -4.42598,8.28747 6.6506987,6.6506987 0 0 1 -8.297063,-4.40796 6.6506987,6.6506987 0 0 1 4.389923,-8.30662 6.6506987,6.6506987 0 0 1 8.31614,4.37186" />
    <g
       id="Icon_Test"
       data-name="Icon Test"
       transform="matrix(2.7700753,0,0,2.7700753,20.132243,20.190863)"
       style="fill:#000000">
      <path
         class="cls-2"
         d="m 52.5,44.49 h -7 v -2 h 7 c 2.41,0 8,-0.72 8,-7.4 0,-4 -2.35,-6.51 -7,-7.45 a 1,1 0 0 1 -0.8,-0.92 c -0.23,-3.9 -2.5,-5.29 -4.37,-5.29 a 4.11,4.11 0 0 0 -3.26,1.66 1,1 0 0 1 -1.73,-0.26 13,13 0 0 0 -3.13,-5 11.17,11.17 0 0 0 -19.21,7.51 11.94,11.94 0 0 0 0.08,1.35 1,1 0 0 1 -0.75,1.1 C 18.16,28.32 14.5,30 14.5,35 c 0,0.19 0,0.37 0,0.55 a 7.62,7.62 0 0 0 7.83,6.92 h 5.17 v 2 h -5.15 a 9.62,9.62 0 0 1 -9.83,-8.81 c 0,-0.22 0,-0.44 0,-0.66 A 8.89,8.89 0 0 1 19,26.08 c 0,-0.24 0,-0.49 0,-0.74 a 13.17,13.17 0 0 1 22.6,-8.9 14.46,14.46 0 0 1 3,4.28 6,6 0 0 1 3.71,-1.29 c 2.8,0 5.75,2 6.3,6.42 5.08,1.25 7.87,4.51 7.87,9.24 0.02,6.91 -5.15,9.4 -9.98,9.4 z"
         id="path14-0"
         style="fill:#000000" />
      <path
         class="cls-2"
         d="M 46.81,56.49 H 46.5 v -5.23 a 2.91,2.91 0 0 0 -3,-2.77 H 29.53 a 2.91,2.91 0 0 0 -3,2.77 v 5.23 h -0.31 a 2.93,2.93 0 0 0 -2.69,3.12 v 2.88 h 2 v -2.88 c 0,-0.64 0.37,-1.12 0.69,-1.12 h 20.59 c 0.32,0 0.69,0.48 0.69,1.12 v 2.88 h 2 V 59.61 A 2.93,2.93 0 0 0 46.81,56.49 Z M 28.5,51.26 c 0,-0.42 0.47,-0.77 1,-0.77 h 13.97 c 0.56,0 1,0.35 1,0.77 v 5.23 h -16 z"
         id="path16-5"
         style="fill:#000000" />
      <path
         class="cls-2"
         d="m 30.5,30.49 a 4,4 0 0 0 -1,7.87 v 9.13 h 2 v -9.13 a 4,4 0 0 0 -1,-7.87 z m 0,6 a 2,2 0 1 1 2,-2 2,2 0 0 1 -2,2 z"
         id="path18-2"
         style="fill:#000000" />
      <path
         class="cls-2"
         d="m 36.44,23.49 a 4,4 0 0 0 -0.94,7.88 v 16.12 h 2 V 31.34 a 4,4 0 0 0 -1.06,-7.85 z m 0,6 a 2,2 0 1 1 2,-2 2,2 0 0 1 -2,2 z"
         id="path20-7"
         style="fill:#000000" />
      <path
         class="cls-2"
         d="m 42.5,30.49 a 4,4 0 0 0 -1,7.87 v 9.13 h 2 v -9.13 a 4,4 0 0 0 -1,-7.87 z m 0,6 a 2,2 0 1 1 2,-2 2,2 0 0 1 -2,2 z"
         id="path22-3"
         style="fill:#000000" />
    </g>
  </g>
</svg>
