<?xml version="1.0" encoding="UTF-8" standalone="no"?>
<svg
   xmlns:dc="http://purl.org/dc/elements/1.1/"
   xmlns:cc="http://creativecommons.org/ns#"
   xmlns:rdf="http://www.w3.org/1999/02/22-rdf-syntax-ns#"
   xmlns:svg="http://www.w3.org/2000/svg"
   xmlns="http://www.w3.org/2000/svg"
   xmlns:xlink="http://www.w3.org/1999/xlink"
   xmlns:sodipodi="http://sodipodi.sourceforge.net/DTD/sodipodi-0.dtd"
   xmlns:inkscape="http://www.inkscape.org/namespaces/inkscape"
   width="248.0px"
   height="248.0px"
   viewBox="0 0 248.0 248.0"
   version="1.1"
   id="SVGRoot"
   sodipodi:docname="branch-seeklogo.com White.svg"
   inkscape:version="1.0.2-2 (e86c870879, 2021-01-15)">
  <defs
     id="defs1402">
    <inkscape:path-effect
       effect="fillet_chamfer"
       id="path-effect2040"
       is_visible="true"
       lpeversion="1"
       satellites_param="F,0,0,1,0,0,0,1 @ F,0,0,1,0,6.0755415,0,1 @ F,0,0,1,0,6.1445293,0,1 @ F,0,0,1,0,0,0,1"
       unit="px"
       method="auto"
       mode="F"
       radius="0"
       chamfer_steps="1"
       flexible="false"
       use_knot_distance="true"
       apply_no_radius="true"
       apply_with_radius="true"
       only_selected="true"
       hide_knots="false" />
    <style
       id="style1979">.cls-1{fill:url(#GreenGradient);}.cls-2{fill:#fff;}</style>
    <linearGradient
       id="GreenGradient"
       x1="-522.53"
       y1="465.47"
       x2="-416.47"
       y2="571.53"
       gradientTransform="rotate(-90,-456.5,24.5)"
       gradientUnits="userSpaceOnUse">
      <stop
         offset="0"
         stop-color="#1b660f"
         id="stop1981" />
      <stop
         offset="1"
         stop-color="#6cae3e"
         id="stop1983" />
    </linearGradient>
    <linearGradient
       id="OrangeGradient"
       x1="1131.1"
       y1="-516.47998"
       x2="1131.1"
       y2="-366.48001"
       gradientTransform="rotate(-135,816.69218,-8.7994369)"
       gradientUnits="userSpaceOnUse">
      <stop
         offset="0"
         stop-color="#c8511b"
         id="stop138" />
      <stop
         offset="1"
         stop-color="#f90"
         id="stop140" />
    </linearGradient>
    <clipPath
       id="clip1">
      <path
         d="m 93,27 h 58 V 88.851563 H 93 Z m 0,0"
         id="path2" />
    </clipPath>
    <clipPath
       id="clip2">
      <path
         d="m 161,10 h 41 v 78.851563 h -41 z m 0,0"
         id="path5" />
    </clipPath>
    <clipPath
       id="clip3">
      <path
         d="m 206,0 h 65 v 88.851563 h -65 z m 0,0"
         id="path8" />
    </clipPath>
    <clipPath
       id="clip4">
      <path
         d="m 322,26 h 57 v 62.851563 h -57 z m 0,0"
         id="path11" />
    </clipPath>
    <clipPath
       id="clip5">
      <path
         d="m 415,26 h 58.05859 V 87 H 415 Z m 0,0"
         id="path14" />
    </clipPath>
    <clipPath
       id="clip6">
      <path
         d="M 0,3 H 87 V 88.851563 H 0 Z m 0,0"
         id="path17" />
    </clipPath>
    <clipPath
       id="b">
      <use
         xlink:href="#a"
         overflow="visible"
         id="use5"
         x="0"
         y="0"
         width="100%"
         height="100%" />
    </clipPath>
    <clipPath
       id="d">
      <use
         xlink:href="#c"
         overflow="visible"
         id="use21"
         x="0"
         y="0"
         width="100%"
         height="100%" />
    </clipPath>
    <linearGradient
       id="e"
       gradientUnits="userSpaceOnUse"
       x1="-17845.727"
       y1="-3022.7009"
       x2="-17300.025"
       y2="-3131.4309"
       gradientTransform="matrix(0.1741,0,0,-0.1741,5044.277,-686.514)">
      <stop
         offset="0"
         stop-color="#2b7a77"
         id="stop30" />
      <stop
         offset=".51"
         stop-color="#4ebaa9"
         id="stop32" />
      <stop
         offset="1"
         stop-color="#5cc2b1"
         id="stop34" />
    </linearGradient>
    <linearGradient
       id="f"
       gradientUnits="userSpaceOnUse"
       x1="-16495.199"
       y1="-6380.3711"
       x2="-16765.998"
       y2="-5744.4058"
       gradientTransform="matrix(0.1741,0,0,-0.1741,5044.277,-686.514)">
      <stop
         offset="0"
         stop-color="#236736"
         id="stop39" />
      <stop
         offset=".493"
         stop-color="#6ba443"
         id="stop41" />
      <stop
         offset="1"
         stop-color="#86c146"
         id="stop43" />
    </linearGradient>
    <linearGradient
       id="g"
       gradientUnits="userSpaceOnUse"
       x1="-16221.797"
       y1="-6660.6538"
       x2="-15823.801"
       y2="-5712.8491"
       gradientTransform="matrix(0.1741,0,0,-0.1741,5044.277,-686.514)">
      <stop
         offset="0"
         stop-color="#29a5e3"
         id="stop48" />
      <stop
         offset=".515"
         stop-color="#356eb9"
         id="stop50" />
      <stop
         offset="1"
         stop-color="#394da5"
         id="stop52" />
    </linearGradient>
    <path
       id="a"
       d="M 196.35,-37.141 H 1196.36 V 128.657 H 196.35 Z" />
    <path
       id="c"
       d="M 196.35,-37.141 H 1196.36 V 128.657 H 196.35 Z" />
  </defs>
  <sodipodi:namedview
     id="base"
     pagecolor="#ffffff"
     bordercolor="#666666"
     borderopacity="1.0"
     inkscape:pageopacity="0"
     inkscape:pageshadow="2"
     inkscape:zoom="1.4969945"
     inkscape:cx="124"
     inkscape:cy="124"
     inkscape:document-units="px"
     inkscape:current-layer="layer2"
     inkscape:document-rotation="0"
     showgrid="true"
     inkscape:window-width="1366"
     inkscape:window-height="705"
     inkscape:window-x="-8"
     inkscape:window-y="-8"
     inkscape:window-maximized="1"
     inkscape:snap-global="false"
     showguides="true">
    <inkscape:grid
       type="xygrid"
       id="grid1972" />
  </sodipodi:namedview>
  <metadata
     id="metadata1405">
    <rdf:RDF>
      <cc:Work
         rdf:about="">
        <dc:format>image/svg+xml</dc:format>
        <dc:type
           rdf:resource="http://purl.org/dc/dcmitype/StillImage" />
        <dc:title />
      </cc:Work>
    </rdf:RDF>
  </metadata>
  <g
     inkscape:groupmode="layer"
     id="layer3"
     inkscape:label="BG" />
  <g
     inkscape:groupmode="layer"
     id="layer4"
     inkscape:label="Bounding Box" />
  <g
     inkscape:groupmode="layer"
     id="layer2"
     inkscape:label="Top">
    <g
       id="g858"
       transform="translate(-0.19315289,-0.04989999)">
      <path
         style="fill:none;fill-opacity:1;stroke:#000000;stroke-width:4.5;stroke-linecap:round;stroke-linejoin:round;stroke-miterlimit:4;stroke-dasharray:none;stroke-opacity:1;paint-order:normal"
         id="path883"
         sodipodi:type="arc"
         sodipodi:cx="154.57903"
         sodipodi:cy="83.172447"
         sodipodi:rx="111.24604"
         sodipodi:ry="111.24604"
         sodipodi:start="5.9893981"
         sodipodi:end="5.9807042"
         sodipodi:open="true"
         sodipodi:arc-type="arc"
         transform="rotate(16.68412)"
         d="M 261.05862,50.957904 A 111.24604,111.24604 0 0 1 187.02492,189.58178 111.24604,111.24604 0 0 1 48.240468,115.84955 111.24604,111.24604 0 0 1 121.67088,-23.094836 111.24604,111.24604 0 0 1 260.77453,50.03341" />
      <path
         style="fill:#3d3846;fill-opacity:0.326613;stroke:none;stroke-width:4.45107;stroke-linecap:round;stroke-linejoin:round;stroke-miterlimit:4;stroke-dasharray:none;stroke-opacity:1;paint-order:normal"
         id="path885"
         sodipodi:type="arc"
         sodipodi:cx="154.57903"
         sodipodi:cy="83.172447"
         sodipodi:rx="110.03654"
         sodipodi:ry="110.03654"
         sodipodi:start="5.9893981"
         sodipodi:end="5.9807042"
         sodipodi:open="true"
         sodipodi:arc-type="arc"
         transform="rotate(16.68412)"
         d="M 259.90094,51.308151 A 110.03654,110.03654 0 0 1 186.67216,188.42486 110.03654,110.03654 0 0 1 49.396616,115.49427 110.03654,110.03654 0 0 1 122.02867,-21.939463 110.03654,110.03654 0 0 1 259.61994,50.393709" />
    </g>
    <g
       id="g6"
       transform="matrix(0.5653356,0,0,0.5653356,51.637043,51.655581)">
      <path
         d="M 256,127.99635 C 256,57.400313 198.5778,0 128.00365,0 57.429491,0 0,57.400313 0,127.99635 0,194.68984 51.272945,249.62462 116.47106,255.4675 h 0.31367 c 1.06986,0.0924 2.14214,0.17264 3.21687,0.24072 l 0.62003,0.0365 c 0.97259,0.0584 1.95978,0.10213 2.96156,0.1313 h 0.78051 c 1.21088,0 2.42177,0.0584 3.64724,0.0584 1.22547,0 2.31235,0 3.46488,-0.0511 h 0.48873 c 1.01637,-0.0292 2.02787,-0.0705 3.03451,-0.12401 h 0.20424 c 2.27102,-0.12644 4.52745,-0.31366 6.76929,-0.56167 C 205.9963,248.25325 256,193.85827 256,127.99635 Z m -114.46508,115.01946 -1.23277,-35.40014 30.91403,-18.96566 c 7.23422,4.9585 16.63965,5.43585 24.33872,1.23524 7.69906,-4.20061 12.388,-12.36785 12.13372,-21.1346 -0.4955,-12.27767 -10.33524,-22.11741 -22.61291,-22.61291 -6.95601,-0.24955 -13.65561,2.64165 -18.24592,7.87398 -4.59032,5.23234 -6.58485,12.25128 -5.43198,19.11562 l -21.81781,13.4948 -1.58291,-44.60578 30.42531,-18.60824 c 10.68847,7.98201 25.56994,7.11603 35.26044,-2.05185 9.6905,-9.16789 11.37931,-23.978562 4.00151,-35.092691 -7.3778,-11.114129 -21.68231,-15.308091 -33.89336,-9.937249 -12.21106,5.370842 -18.78688,18.74869 -15.58088,31.69772 l -20.94247,12.99877 -1.24006,-35.59709 c 9.96419,-3.852821 16.36784,-13.624032 15.92387,-24.297934 -0.51883,-12.446178 -10.1443,-22.599596 -22.54508,-23.781636 -12.40078,-1.182039 -23.77114,6.97006 -26.63199,19.094089 -2.860844,12.124028 3.66579,24.499195 15.28688,28.985481 l -2.26129,73.75455 -22.795269,-14.52332 c 1.520855,-6.21497 0.7948,-12.76755 -2.04975,-18.49882 -4.559054,-9.48283 -13.750107,-16.20835 -24.232284,-16.86485 -12.963539,-0.84612 -24.897853,7.06368 -29.169042,19.33259 -4.271189,12.26891 0.171071,25.87991 10.857471,33.26707 10.6864,7.38716 24.989058,6.73391 34.957589,-1.59661 l 31.774785,20.1036 -1.91116,62.47728 C 56.335318,235.6192 12.14532,186.87015 12.14532,127.99635 12.189087,64.140419 64.140419,12.174498 128.00365,12.174498 c 63.86323,0 115.81456,51.951332 115.81456,115.814562 0,59.28958 -44.78085,108.30124 -102.28329,115.02675 z"
         fill="#333e48"
         id="path2-6" />
      <path
         d="m 127.27273,47.163636 c 8.32312,0.008 15.06834,6.753242 15.07636,15.076364 0,8.326446 -6.74992,15.076364 -15.07636,15.076364 -8.32645,0 -15.07637,-6.749918 -15.07637,-15.076364 0,-8.326446 6.74992,-15.076364 15.07637,-15.076364 z m 56.83636,108.640004 c 7.55031,-0.004 13.68104,6.10065 13.70909,13.6509 0.0147,5.53729 -3.30839,10.53792 -8.41911,12.66918 -5.11072,2.13126 -11.00209,0.97322 -14.92587,-2.93391 -3.92379,-3.90713 -5.10687,-9.79352 -2.99737,-14.91326 2.10951,-5.11973 7.09596,-8.46407 12.63326,-8.47291 z m 8.43636,-39.7091 c -7.99768,3.88624 -17.63186,0.56422 -21.53454,-7.42545 -2.85457,-5.85733 -1.89945,-12.85748 2.41993,-17.735982 4.31938,-4.878503 11.1523,-6.674502 17.31227,-4.550447 6.15996,2.124056 10.43374,7.74982 10.82827,14.253759 0.39454,6.50393 -3.16787,12.60505 -9.02593,15.45812 z m -128.185452,4.48001 c 9.592373,0.008 17.366525,7.78217 17.374546,17.37454 -0.004,9.58979 -7.77991,17.36134 -17.369696,17.36 C 54.775062,155.30775 47.001339,147.53403 47,137.94424 c -0.0013,-9.58979 7.770213,-17.36568 17.359998,-17.36969 z"
         fill="#009bde"
         id="path4" />
    </g>
  </g>
</svg>
