<?xml version="1.0" encoding="UTF-8" standalone="no"?>
<svg
   xmlns:dc="http://purl.org/dc/elements/1.1/"
   xmlns:cc="http://creativecommons.org/ns#"
   xmlns:rdf="http://www.w3.org/1999/02/22-rdf-syntax-ns#"
   xmlns:svg="http://www.w3.org/2000/svg"
   xmlns="http://www.w3.org/2000/svg"
   xmlns:sodipodi="http://sodipodi.sourceforge.net/DTD/sodipodi-0.dtd"
   xmlns:inkscape="http://www.inkscape.org/namespaces/inkscape"
   width="248.0px"
   height="248.0px"
   viewBox="0 0 248.0 248.0"
   version="1.1"
   id="SVGRoot"
   sodipodi:docname="debian-ar21 Dark.svg"
   inkscape:version="1.0.2-2 (e86c870879, 2021-01-15)">
  <defs
     id="defs1402">
    <inkscape:path-effect
       effect="fillet_chamfer"
       id="path-effect2040"
       is_visible="true"
       lpeversion="1"
       satellites_param="F,0,0,1,0,0,0,1 @ F,0,0,1,0,6.0755415,0,1 @ F,0,0,1,0,6.1445293,0,1 @ F,0,0,1,0,0,0,1"
       unit="px"
       method="auto"
       mode="F"
       radius="0"
       chamfer_steps="1"
       flexible="false"
       use_knot_distance="true"
       apply_no_radius="true"
       apply_with_radius="true"
       only_selected="true"
       hide_knots="false" />
    <style
       id="style1979">.cls-1{fill:url(#GreenGradient);}.cls-2{fill:#fff;}</style>
    <linearGradient
       id="GreenGradient"
       x1="-522.53"
       y1="465.47"
       x2="-416.47"
       y2="571.53"
       gradientTransform="rotate(-90,-456.5,24.5)"
       gradientUnits="userSpaceOnUse">
      <stop
         offset="0"
         stop-color="#1b660f"
         id="stop1981" />
      <stop
         offset="1"
         stop-color="#6cae3e"
         id="stop1983" />
    </linearGradient>
  </defs>
  <sodipodi:namedview
     id="base"
     pagecolor="#101010"
     bordercolor="#666666"
     borderopacity="1.0"
     inkscape:pageopacity="0"
     inkscape:pageshadow="2"
     inkscape:zoom="1.4243555"
     inkscape:cx="124"
     inkscape:cy="124"
     inkscape:document-units="px"
     inkscape:current-layer="layer2"
     inkscape:document-rotation="0"
     showgrid="true"
     inkscape:window-width="1366"
     inkscape:window-height="705"
     inkscape:window-x="-8"
     inkscape:window-y="-8"
     inkscape:window-maximized="1"
     inkscape:snap-global="false"
     showguides="true">
    <inkscape:grid
       type="xygrid"
       id="grid1972" />
  </sodipodi:namedview>
  <metadata
     id="metadata1405">
    <rdf:RDF>
      <cc:Work
         rdf:about="">
        <dc:format>image/svg+xml</dc:format>
        <dc:type
           rdf:resource="http://purl.org/dc/dcmitype/StillImage" />
        <dc:title />
      </cc:Work>
    </rdf:RDF>
  </metadata>
  <g
     inkscape:groupmode="layer"
     id="layer3"
     inkscape:label="BG" />
  <g
     inkscape:groupmode="layer"
     id="layer4"
     inkscape:label="Bounding Box" />
  <g
     inkscape:groupmode="layer"
     id="layer2"
     inkscape:label="Top">
    <g
       id="g847"
       transform="translate(-0.19315289,-0.04989999)"
       style="fill:#5e5c64">
      <path
         style="fill:#5e5c64;fill-opacity:0.326613;stroke:none;stroke-width:3;stroke-linecap:round;stroke-linejoin:round;stroke-miterlimit:4;stroke-dasharray:none;stroke-opacity:1;paint-order:normal"
         id="path885"
         sodipodi:type="arc"
         sodipodi:cx="154.57903"
         sodipodi:cy="83.172447"
         sodipodi:rx="111.24603"
         sodipodi:ry="111.24603"
         sodipodi:start="5.9893981"
         sodipodi:end="5.9807042"
         sodipodi:open="true"
         sodipodi:arc-type="arc"
         transform="rotate(16.68412)"
         d="M 261.05862,50.957906 A 111.24603,111.24603 0 0 1 187.02492,189.58177 111.24603,111.24603 0 0 1 48.240476,115.84954 111.24603,111.24603 0 0 1 121.67088,-23.094829 111.24603,111.24603 0 0 1 260.77453,50.033412" />
      <path
         style="fill:#5e5c64;fill-opacity:1;stroke:#ffffff;stroke-width:4.5;stroke-linecap:round;stroke-linejoin:round;stroke-miterlimit:4;stroke-dasharray:none;stroke-opacity:1;paint-order:normal"
         id="path883-9"
         sodipodi:type="arc"
         sodipodi:cx="154.57903"
         sodipodi:cy="83.172447"
         sodipodi:rx="111.24604"
         sodipodi:ry="111.24604"
         sodipodi:start="5.9893981"
         sodipodi:end="5.9807042"
         sodipodi:open="true"
         sodipodi:arc-type="arc"
         transform="rotate(16.68412)"
         d="M 261.05862,50.957904 A 111.24604,111.24604 0 0 1 187.02492,189.58178 111.24604,111.24604 0 0 1 48.240468,115.84955 111.24604,111.24604 0 0 1 121.67088,-23.094836 111.24604,111.24604 0 0 1 260.77453,50.03341" />
    </g>
    <g
       id="g25"
       transform="matrix(0.04245499,0,0,0.04245499,29.407735,89.306079)">
      <g
         fill="#d70751"
         id="g6">
        <path
           d="m 1061.405,885.972 c -24.8,0.6 4.722,12.986 37.186,17.708 8.854,-7.083 17.118,-14.166 24.2,-20.66 -20.07,4.722 -40.728,4.722 -61.387,2.95 m 133.4,-33.053 c 14.757,-20.66 25.38,-42.5 29.513,-65.52 -3.542,16.527 -12.395,30.694 -20.66,45.45 -46.63,28.923 -4.132,-17.118 0,-34.825 -50.172,62.568 -7.083,37.186 -8.854,54.894 m 48.992,-128.086 c 2.95,-44.86 -8.854,-30.694 -12.986,-13.576 4.722,2.95 8.264,31.874 12.986,13.576 M 967.553,114.5 c 12.986,2.36 28.923,4.132 26.562,7.083 14.166,-2.95 17.708,-5.903 -26.562,-7.083 m 26.562,7.674 -9.444,1.77 8.854,-0.6 0.6,-1.18 m 324.043,586.73 c 1.77,40.138 -11.805,59.616 -23.6,93.85 l -21.25,10.625 c -17.708,34.235 1.77,21.84 -10.625,48.992 -27.152,24.2 -83.227,76.144 -100.935,80.866 -12.986,0 8.854,-15.347 11.805,-21.25 -36.596,25.38 -29.513,37.777 -85.588,53.123 l -1.77,-3.542 C 948.085,1036.488 755.66,907.8 758.6,731.912 c -1.18,11.215 -4.132,8.264 -7.083,12.986 -7.083,-90.3 41.9,-181.2 124.545,-218.397 80.866,-40.138 175.308,-23.6 233.153,30.103 -31.874,-41.318 -95.032,-85.588 -169.995,-81.456 -73.192,1.18 -142.253,47.8 -164.683,98.574 -37.777,23.6 -41.9,91.5 -58.436,103.886 -21.84,161.732 41.318,231.973 148.746,314.02 17.118,11.215 4.722,12.986 7.083,21.84 -35.416,-16.527 -68.47,-41.9 -95.032,-72.602 14.166,20.66 29.513,41.318 49.582,57.255 -33.645,-11.215 -78.505,-81.456 -91.5,-84.407 57.846,103.886 235.514,182.4 328.185,143.433 -43.1,1.77 -97.393,0.6 -145.794,-17.118 -20.07,-10.625 -47.8,-31.874 -43.1,-36.006 126.906,47.22 257.354,36.006 367.142,-51.943 27.742,-21.84 58.436,-58.436 67.3,-59.026 -12.986,20.07 2.36,9.444 -7.673,27.152 27.742,-44.86 -11.805,-18.298 28.923,-77.324 l 15.347,20.66 c -5.903,-37.186 46.04,-82.637 40.728,-141.072 11.805,-17.708 12.986,19.48 0.6,60.797 17.708,-46.04 4.722,-53.123 8.854,-91.5 4.722,12.986 11.215,26.562 14.757,39.547 -11.215,-44.27 11.805,-74.963 17.118,-100.344 -5.903,-2.36 -17.708,19.48 -20.07,-33.055 0.6,-23.02 6.493,-11.805 8.854,-17.708 -4.722,-2.36 -15.937,-20.07 -23.02,-53.714 5.312,-7.673 13.576,20.66 20.66,21.25 -4.722,-26.562 -12.395,-46.63 -12.395,-67.3 -20.66,-43.1 -7.083,5.903 -24.2,-18.298 -21.84,-68.47 18.298,-15.937 20.66,-46.63 33.055,47.8 51.943,122.774 60.797,153.468 -6.493,-37.777 -17.118,-74.373 -30.694,-109.198 10.034,4.132 -15.937,-77.324 12.986,-23.6 -31.284,-115.1 -134,-223.12 -228.43,-273.3 11.805,10.625 25.97,23.6 20.66,25.97 -47.22,-27.742 -38.957,-30.103 -45.45,-41.9 -38.367,-15.347 -40.728,1.18 -66.1,0 -72.012,-38.367 -86.178,-34.235 -152.287,-58.436 l 2.95,14.166 c -47.8,-15.937 -55.485,5.903 -107.428,0 -2.95,-2.36 16.527,-8.854 33.055,-11.215 -46.04,5.903 -44.27,-8.854 -89.13,1.77 11.215,-7.673 23.02,-12.986 34.825,-19.48 -37.777,2.36 -90.3,21.84 -73.783,4.132 -61.387,27.742 -170.585,66.1 -231.973,123.365 l -1.77,-12.986 C 507.76,221.916 413.9,289.206 406.237,332.885 l -7.673,1.77 c -14.757,24.8 -24.2,52.533 -35.416,78.505 -18.888,32.464 -27.742,12.395 -25.38,17.708 -37.777,76.144 -56.075,140.482 -72.602,193.015 11.215,17.118 0,103.296 4.722,172.356 -18.888,341.17 239.056,672.307 521.8,748.45 41.318,14.757 102.705,14.166 155.24,15.937 -61.977,-17.708 -69.65,-9.444 -129.857,-30.103 -43.1,-20.66 -53.123,-43.68 -83.817,-70.24 l 12.395,21.25 c -60.207,-21.25 -34.825,-26.562 -83.817,-41.9 l 12.986,-17.118 c -19.48,-1.77 -51.943,-33.055 -60.797,-50.172 l -21.25,0.6 c -25.38,-31.874 -39.547,-54.304 -38.367,-72.012 l -9.444,10.625 c -7.673,-13.576 -94.442,-118.642 -49.582,-94.442 -8.264,-7.673 -19.48,-12.395 -31.284,-34.235 l 8.854,-10.625 c -21.84,-27.742 -39.547,-63.748 -38.367,-75.553 11.805,15.347 19.48,18.298 27.742,21.25 -54.894,-135.76 -57.846,-7.673 -99.164,-138.12 l 8.854,-0.6 c -6.493,-10.034 -10.625,-21.25 -15.937,-31.874 l 3.542,-37.777 c -39.547,-45.45 -11.215,-193.015 -5.312,-274.47 4.132,-33.055 33.055,-67.88 54.894,-123.365 l -13.576,-2.36 c 25.38,-44.86 146.385,-179.44 201.87,-172.356 27.152,-34.235 -5.312,0 -10.625,-8.854 59.616,-61.387 77.914,-43.68 118.052,-54.304 43.1,-25.38 -37.186,10.034 -16.527,-10.034 74.963,-18.888 53.123,-43.68 150.517,-53.123 10.034,5.903 -23.6,8.854 -32.464,16.527 61.977,-30.694 197.147,-23.6 284.506,17.118 101.525,47.22 215.445,187.703 220.167,319.92 l 5.312,1.18 c -2.36,52.533 8.264,113.33 -10.625,168.815 l 12.395,-25.38"
           id="path2" />
        <path
           d="m 791.065,920.207 -3.542,17.118 c 16.527,22.43 29.513,46.04 50.172,63.158 -15.347,-28.923 -26.562,-40.728 -46.63,-80.275 m 38.367,-1.772 c -8.854,-9.444 -13.576,-21.25 -19.48,-32.464 5.312,20.07 16.527,37.186 27.152,54.894 l -7.673,-22.43 m 681.753,-148.156 -3.542,9.444 c -6.493,47.22 -21.25,94.442 -43.1,138.12 24.2,-46.04 40.138,-96.213 46.63,-147.565 M 972.275,102.696 c 16.527,-5.903 41.318,-3.542 59.026,-7.673 -23.02,1.77 -46.04,2.95 -69.06,5.903 z m -588.5,312.838 c 4.132,36.006 -27.152,49.582 7.083,25.97 17.708,-40.138 -7.673,-10.625 -7.083,-25.97 m -39.547,165.863 c 7.673,-23.6 9.444,-38.367 12.395,-51.943 -21.84,27.152 -10.034,33.055 -12.395,51.943"
           id="path4" />
      </g>
      <path
         d="m 1727.976,935.92 c 0,295.493 157.006,295.493 180.356,295.493 65.218,0 107.086,-35.427 124.8,-97.424 l 2.415,93.398 c 20.13,-0.805 40.258,-3.22 72.464,-3.22 11.272,0 20.934,0 28.986,0.805 8.052,0 16.908,0.805 26.57,2.415 -16.908,-33.817 -28.986,-108.696 -28.986,-272.95 0,-159.42 0,-429.15 13.688,-511.276 -37.842,17.714 -70.05,29.8 -141.708,35.427 28.18,30.596 28.18,45.894 28.18,184.38 -20.13,-6.44 -45.1,-13.688 -87.762,-13.688 -188.407,1.6 -219.003,165.058 -219.003,286.636 m 304.35,-123.2 c -0.805,0.805 -0.805,169.888 -3.22,214.172 -2.415,35.427 -5.636,111.917 -80.516,111.917 -77.295,0 -96.62,-89.373 -103.06,-128.02 -7.246,-42.674 -7.246,-78.906 -7.246,-94.204 0,-50.725 3.22,-190.823 121.58,-190.823 35.427,0 55.556,10.467 71.66,18.52 z m 547.508,80.52 c 0,-122.384 -24.155,-243.158 -179.55,-243.158 -214.172,0 -214.172,236.717 -214.172,287.442 0,212.562 95.814,297.104 256.04,297.104 71.66,0 106.28,-10.467 124.8,-16.103 -0.805,-37.842 4.026,-61.997 10.467,-94.204 -21.74,13.688 -50.725,31.4 -113.527,31.4 -163.447,0 -165.863,-148.954 -165.863,-200.485 h 279.4 l 2.416,-61.997 m -282.6,-10.467 c 0.805,-86.957 18.52,-165.058 93.398,-165.058 82.126,0 87.762,90.178 86.152,165.058 z m 322.847,169.9 c 0,77.295 0,121.58 -12.883,155.396 42.673,16.908 96.62,26.57 160.227,26.57 41.063,0 159.42,0 223.834,-131.24 30.596,-61.192 41.063,-142.513 41.063,-204.5 0,-37.842 -4.026,-120.774 -34.622,-173.1 -28.986,-49.115 -76.5,-74.075 -127.215,-74.075 -100.645,0 -130.436,83.736 -145.734,127.215 0,-53.14 0.805,-239.937 9.662,-335.75 -68.438,31.4 -110.307,37.037 -155.396,41.063 41.063,16.908 41.063,86.152 41.063,311.596 v 256.846 m 301.13,-114.332 c 0,97.424 -17.713,228.665 -139.293,228.665 -16.908,0 -37.842,-3.22 -51.53,-6.44 -2.416,-37.842 -2.416,-103.06 -2.416,-177.94 0,-90.177 9.662,-137.682 16.908,-160.227 21.74,-74.075 71.66,-75.685 80.516,-75.685 80.516,0 95.814,109.502 95.814,191.628 z m 313.206,289.846 c -20.934,-3.22 -35.427,-5.636 -66.023,-5.636 -33.817,0 -56.36,2.416 -80.515,5.636 10.467,-20.13 14.493,-29.8 17.713,-97.424 4.026,-93.398 5.636,-342.998 -2.415,-395.333 -5.636,-40.258 -14.493,-45.894 -28.986,-56.36 86.15,-8.052 110.306,-14.493 149.76,-33.817 -8.052,45.894 -9.662,69.244 -9.662,139.293 -2.416,361.516 -3.22,400.164 20.13,443.642 m 47.5,-168.3 c 0,66.023 20.13,132.046 78.905,160.227 26.57,11.272 52.335,11.272 61.192,11.272 96.62,0 128.825,-71.66 148.954,-115.138 -0.805,45.894 0,74.075 3.22,111.112 18.52,-0.805 37.842,-3.22 69.244,-3.22 17.713,0 34.622,2.416 52.335,3.22 -11.272,-17.713 -17.713,-28.18 -20.934,-69.244 -2.416,-39.453 -2.416,-79.7 -2.416,-135.267 l 0.805,-214.17 c 0,-79.712 -20.934,-158.617 -178.745,-158.617 -103.865,0 -165.058,31.4 -194.848,47.504 12.883,23.35 23.35,42.674 32.206,87.762 41.063,-35.427 94.204,-54.75 148.954,-54.75 86.957,0 86.957,57.97 86.957,139.293 -20.13,-0.805 -37.037,-3.22 -65.218,-3.22 -132.85,1.6 -220.613,53.14 -220.613,193.238 m 288.247,-128.825 c -2.415,66.023 -3.22,111.917 -20.934,148.954 -21.74,47.504 -58.777,61.192 -86.152,61.192 -62.802,0 -76.5,-52.335 -76.5,-103.865 0,-98.23 87.762,-106.28 128.02,-106.28 z m 604.677,193.235 c 0.805,35.427 0.805,73.27 16.103,103.866 -23.35,-2.416 -37.037,-5.636 -79.7,-5.636 -24.96,0 -38.648,2.416 -58.777,5.636 4.026,-13.688 6.44,-18.52 8.052,-37.037 3.22,-24.155 5.636,-104.67 5.636,-132.85 v -113.53 c 0,-49.115 0,-120.774 -3.22,-145.734 -2.416,-17.713 -7.246,-66.023 -68.44,-66.023 -59.582,0 -79.7,44.284 -86.957,79.7 -8.052,37.037 -8.052,76.5 -8.052,231.886 0.805,134.46 0.805,146.54 11.272,183.576 -17.713,-2.416 -39.453,-4.026 -71.66,-4.026 -24.96,0 -41.868,0.805 -62.802,4.026 7.246,-16.908 11.272,-24.96 13.688,-83.736 2.416,-57.97 6.44,-341.387 -3.22,-408.215 -4.83,-41.063 -16.103,-50.725 -27.375,-61.192 85.347,-4.026 111.917,-17.713 138.487,-31.4 V 754.76 C 3910.76,722.554 3936.525,650.1 4042,650.1 c 131.24,0 132.046,95.814 132.85,158.616 v 315.622"
         id="path8" />
      <path
         d="m 3243.285,496.303 -86.957,86.957 -86.957,-86.957 86.957,-86.957 z"
         fill="#d70751"
         id="path10" />
    </g>
  </g>
</svg>
