<?xml version="1.0" encoding="UTF-8" standalone="no"?>
<svg
   xmlns:dc="http://purl.org/dc/elements/1.1/"
   xmlns:cc="http://creativecommons.org/ns#"
   xmlns:rdf="http://www.w3.org/1999/02/22-rdf-syntax-ns#"
   xmlns:svg="http://www.w3.org/2000/svg"
   xmlns="http://www.w3.org/2000/svg"
   xmlns:sodipodi="http://sodipodi.sourceforge.net/DTD/sodipodi-0.dtd"
   xmlns:inkscape="http://www.inkscape.org/namespaces/inkscape"
   width="248.0px"
   height="248.0px"
   viewBox="0 0 248.0 248.0"
   version="1.1"
   id="SVGRoot"
   sodipodi:docname="docker White.svg"
   inkscape:version="1.0.2-2 (e86c870879, 2021-01-15)">
  <defs
     id="defs1402">
    <inkscape:path-effect
       effect="fillet_chamfer"
       id="path-effect2040"
       is_visible="true"
       lpeversion="1"
       satellites_param="F,0,0,1,0,0,0,1 @ F,0,0,1,0,6.0755415,0,1 @ F,0,0,1,0,6.1445293,0,1 @ F,0,0,1,0,0,0,1"
       unit="px"
       method="auto"
       mode="F"
       radius="0"
       chamfer_steps="1"
       flexible="false"
       use_knot_distance="true"
       apply_no_radius="true"
       apply_with_radius="true"
       only_selected="true"
       hide_knots="false" />
    <style
       id="style1979">.cls-1{fill:url(#GreenGradient);}.cls-2{fill:#fff;}</style>
    <linearGradient
       id="GreenGradient"
       x1="-522.53"
       y1="465.47"
       x2="-416.47"
       y2="571.53"
       gradientTransform="rotate(-90,-456.5,24.5)"
       gradientUnits="userSpaceOnUse">
      <stop
         offset="0"
         stop-color="#1b660f"
         id="stop1981" />
      <stop
         offset="1"
         stop-color="#6cae3e"
         id="stop1983" />
    </linearGradient>
    <linearGradient
       id="OrangeGradient"
       x1="1131.1"
       y1="-516.47998"
       x2="1131.1"
       y2="-366.48001"
       gradientTransform="rotate(-135,816.69218,-8.7994369)"
       gradientUnits="userSpaceOnUse">
      <stop
         offset="0"
         stop-color="#c8511b"
         id="stop138" />
      <stop
         offset="1"
         stop-color="#f90"
         id="stop140" />
    </linearGradient>
    <linearGradient
       id="a"
       gradientTransform="matrix(10.948793,0,0,-10.948793,-716.33299,1823.6321)"
       gradientUnits="userSpaceOnUse"
       x1="62.57"
       x2="25.030001"
       y1="150.13"
       y2="85.110001">
      <stop
         offset="0"
         stop-color="#0052cc"
         id="stop2" />
      <stop
         offset=".92"
         stop-color="#2684ff"
         id="stop4-5" />
    </linearGradient>
    <filter
       style="color-interpolation-filters:sRGB;"
       inkscape:label="Colorize"
       id="filter754">
      <feComposite
         in2="SourceGraphic"
         operator="arithmetic"
         k1="0"
         k2="1"
         result="composite1"
         id="feComposite740" />
      <feColorMatrix
         in="composite1"
         values="1"
         type="saturate"
         result="colormatrix1"
         id="feColorMatrix742" />
      <feFlood
         flood-opacity="1"
         flood-color="rgb(66,101,153)"
         result="flood1"
         id="feFlood744" />
      <feBlend
         in="flood1"
         in2="colormatrix1"
         mode="multiply"
         result="blend1"
         id="feBlend746" />
      <feBlend
         in2="blend1"
         mode="screen"
         result="blend2"
         id="feBlend748" />
      <feColorMatrix
         in="blend2"
         values="1"
         type="saturate"
         result="colormatrix2"
         id="feColorMatrix750" />
      <feComposite
         in="colormatrix2"
         in2="SourceGraphic"
         operator="in"
         k2="1"
         result="composite2"
         id="feComposite752" />
    </filter>
    <filter
       style="color-interpolation-filters:sRGB;"
       inkscape:label="Colorize"
       id="filter562">
      <feComposite
         in2="SourceGraphic"
         operator="arithmetic"
         k1="0"
         k2="1"
         result="composite1"
         id="feComposite548" />
      <feColorMatrix
         in="composite1"
         values="1"
         type="saturate"
         result="colormatrix1"
         id="feColorMatrix550" />
      <feFlood
         flood-opacity="1"
         flood-color="rgb(29,131,239)"
         result="flood1"
         id="feFlood552" />
      <feBlend
         in="flood1"
         in2="colormatrix1"
         mode="multiply"
         result="blend1"
         id="feBlend554" />
      <feBlend
         in2="blend1"
         mode="screen"
         result="blend2"
         id="feBlend556" />
      <feColorMatrix
         in="blend2"
         values="1"
         type="saturate"
         result="colormatrix2"
         id="feColorMatrix558" />
      <feComposite
         in="colormatrix2"
         in2="SourceGraphic"
         operator="in"
         k2="1"
         result="composite2"
         id="feComposite560" />
    </filter>
    <filter
       style="color-interpolation-filters:sRGB;"
       inkscape:label="Colorize"
       id="filter213">
      <feComposite
         in2="SourceGraphic"
         operator="arithmetic"
         k1="0"
         k2="1"
         result="composite1"
         id="feComposite199" />
      <feColorMatrix
         in="composite1"
         values="1"
         type="saturate"
         result="colormatrix1"
         id="feColorMatrix201" />
      <feFlood
         flood-opacity="1"
         flood-color="rgb(0,119,158)"
         result="flood1"
         id="feFlood203" />
      <feBlend
         in="flood1"
         in2="colormatrix1"
         mode="multiply"
         result="blend1"
         id="feBlend205" />
      <feBlend
         in2="blend1"
         mode="screen"
         result="blend2"
         id="feBlend207" />
      <feColorMatrix
         in="blend2"
         values="1"
         type="saturate"
         result="colormatrix2"
         id="feColorMatrix209" />
      <feComposite
         in="colormatrix2"
         in2="SourceGraphic"
         operator="in"
         k2="1"
         result="composite2"
         id="feComposite211" />
    </filter>
    <filter
       style="color-interpolation-filters:sRGB;"
       inkscape:label="Colorize"
       id="filter104">
      <feComposite
         in2="SourceGraphic"
         operator="arithmetic"
         k1="0"
         k2="1"
         result="composite1"
         id="feComposite90" />
      <feColorMatrix
         in="composite1"
         values="1"
         type="saturate"
         result="colormatrix1"
         id="feColorMatrix92" />
      <feFlood
         flood-opacity="1"
         flood-color="rgb(0,119,158)"
         result="flood1"
         id="feFlood94" />
      <feBlend
         in="flood1"
         in2="colormatrix1"
         mode="multiply"
         result="blend1"
         id="feBlend96" />
      <feBlend
         in2="blend1"
         mode="screen"
         result="blend2"
         id="feBlend98" />
      <feColorMatrix
         in="blend2"
         values="1"
         type="saturate"
         result="colormatrix2"
         id="feColorMatrix100" />
      <feComposite
         in="colormatrix2"
         in2="SourceGraphic"
         operator="in"
         k2="1"
         result="composite2"
         id="feComposite102" />
    </filter>
    <filter
       style="color-interpolation-filters:sRGB;"
       inkscape:label="Colorize"
       id="filter178">
      <feComposite
         in2="SourceGraphic"
         operator="arithmetic"
         k1="0"
         k2="1"
         result="composite1"
         id="feComposite164" />
      <feColorMatrix
         in="composite1"
         values="1"
         type="saturate"
         result="colormatrix1"
         id="feColorMatrix166" />
      <feFlood
         flood-opacity="1"
         flood-color="rgb(0,119,158)"
         result="flood1"
         id="feFlood168" />
      <feBlend
         in="flood1"
         in2="colormatrix1"
         mode="multiply"
         result="blend1"
         id="feBlend170" />
      <feBlend
         in2="blend1"
         mode="screen"
         result="blend2"
         id="feBlend172" />
      <feColorMatrix
         in="blend2"
         values="1"
         type="saturate"
         result="colormatrix2"
         id="feColorMatrix174" />
      <feComposite
         in="colormatrix2"
         in2="SourceGraphic"
         operator="in"
         k2="1"
         result="composite2"
         id="feComposite176" />
    </filter>
  </defs>
  <sodipodi:namedview
     id="base"
     pagecolor="#ffffff"
     bordercolor="#666666"
     borderopacity="1.0"
     inkscape:pageopacity="0"
     inkscape:pageshadow="2"
     inkscape:zoom="1.1673772"
     inkscape:cx="124"
     inkscape:cy="124"
     inkscape:document-units="px"
     inkscape:current-layer="layer2"
     inkscape:document-rotation="0"
     showgrid="true"
     inkscape:window-width="1366"
     inkscape:window-height="705"
     inkscape:window-x="-8"
     inkscape:window-y="-8"
     inkscape:window-maximized="1"
     inkscape:snap-global="false"
     showguides="true">
    <inkscape:grid
       type="xygrid"
       id="grid1972" />
  </sodipodi:namedview>
  <metadata
     id="metadata1405">
    <rdf:RDF>
      <cc:Work
         rdf:about="">
        <dc:format>image/svg+xml</dc:format>
        <dc:type
           rdf:resource="http://purl.org/dc/dcmitype/StillImage" />
        <dc:title />
      </cc:Work>
    </rdf:RDF>
  </metadata>
  <g
     inkscape:groupmode="layer"
     id="layer3"
     inkscape:label="BG" />
  <g
     inkscape:groupmode="layer"
     id="layer4"
     inkscape:label="Bounding Box" />
  <g
     inkscape:groupmode="layer"
     id="layer2"
     inkscape:label="Top">
    <g
       id="g858"
       transform="translate(-0.19315289,-0.04989999)">
      <path
         style="fill:none;fill-opacity:1;stroke:#000000;stroke-width:4.5;stroke-linecap:round;stroke-linejoin:round;stroke-miterlimit:4;stroke-dasharray:none;stroke-opacity:1;paint-order:normal"
         id="path883"
         sodipodi:type="arc"
         sodipodi:cx="154.57903"
         sodipodi:cy="83.172447"
         sodipodi:rx="111.24604"
         sodipodi:ry="111.24604"
         sodipodi:start="5.9893981"
         sodipodi:end="5.9807042"
         sodipodi:open="true"
         sodipodi:arc-type="arc"
         transform="rotate(16.68412)"
         d="M 261.05862,50.957904 A 111.24604,111.24604 0 0 1 187.02492,189.58178 111.24604,111.24604 0 0 1 48.240468,115.84955 111.24604,111.24604 0 0 1 121.67088,-23.094836 111.24604,111.24604 0 0 1 260.77453,50.03341" />
      <path
         style="fill:#3d3846;fill-opacity:0.326613;stroke:none;stroke-width:4.45107;stroke-linecap:round;stroke-linejoin:round;stroke-miterlimit:4;stroke-dasharray:none;stroke-opacity:1;paint-order:normal"
         id="path885"
         sodipodi:type="arc"
         sodipodi:cx="154.57903"
         sodipodi:cy="83.172447"
         sodipodi:rx="110.03654"
         sodipodi:ry="110.03654"
         sodipodi:start="5.9893981"
         sodipodi:end="5.9807042"
         sodipodi:open="true"
         sodipodi:arc-type="arc"
         transform="rotate(16.68412)"
         d="M 259.90094,51.308151 A 110.03654,110.03654 0 0 1 186.67216,188.42486 110.03654,110.03654 0 0 1 49.396616,115.49427 110.03654,110.03654 0 0 1 122.02867,-21.939463 110.03654,110.03654 0 0 1 259.61994,50.393709" />
    </g>
    <g
       fill="none"
       fill-rule="evenodd"
       id="g34"
       transform="matrix(0.55127498,0,0,0.55127498,53.525007,64.872824)"
       style="display:inline">
      <path
         d="m 38.617,173.984 v -16.362 c 0,-2.15 1.344,-3.877 3.57,-3.877 h 0.616 c 2.225,0 3.563,1.729 3.563,3.877 v 34.447 c 0,8.4 -4.15,15.084 -11.382,19.342 a 21.374,21.374 0 0 1 -10.945,2.985 h -1.537 c -8.402,0 -15.077,-4.153 -19.342,-11.38 A 21.314,21.314 0 0 1 0.176,192.069 v -1.535 c 0,-8.403 4.152,-15.083 11.378,-19.349 A 21.298,21.298 0 0 1 22.502,168.2 h 1.537 c 5.686,0 10.51,2.204 14.578,5.784 z M 7.924,191.3 c 0,6.068 2.941,10.63 8.258,13.54 2.15,1.176 4.484,1.808 6.937,1.808 5.956,0 10.374,-2.81 13.421,-7.857 1.417,-2.348 2.077,-4.917 2.077,-7.648 0,-5.26 -2.49,-9.365 -6.729,-12.414 -2.57,-1.848 -5.463,-2.775 -8.618,-2.775 -6.492,0 -11.164,3.28 -13.968,9.106 -0.946,1.97 -1.378,4.061 -1.378,6.24 z m 65.324,-23.1 h 1.074 c 8.978,0 15.806,4.355 20.133,12.192 1.73,3.135 2.656,6.557 2.656,10.142 v 1.535 c 0,8.4 -4.142,15.093 -11.385,19.343 -3.353,1.967 -7.057,2.984 -10.943,2.984 h -1.535 c -8.402,0 -15.079,-4.153 -19.342,-11.38 a 21.316,21.316 0 0 1 -2.987,-10.947 v -1.535 c 0,-8.404 4.169,-15.062 11.377,-19.347 3.351,-1.991 7.058,-2.987 10.952,-2.987 z m -14.58,23.1 c 0,5.89 2.89,10.223 7.865,13.27 2.336,1.43 4.909,2.078 7.638,2.078 5.82,0 10.122,-2.951 13.116,-7.863 1.428,-2.342 2.074,-4.915 2.074,-7.642 0,-5.477 -2.638,-9.661 -7.148,-12.693 -2.471,-1.663 -5.222,-2.496 -8.198,-2.496 -6.492,0 -11.164,3.28 -13.967,9.106 -0.948,1.97 -1.38,4.061 -1.38,6.24 z m 70.656,-14.727 c -1.17,-0.548 -3.36,-0.73 -4.624,-0.778 -6.474,-0.244 -11.158,3.402 -13.906,9.113 -0.949,1.97 -1.382,4.055 -1.382,6.235 0,6.637 3.485,11.284 9.409,14.117 2.164,1.034 4.958,1.23 7.323,1.23 2.08,0 5.02,-1.274 6.866,-2.151 l 0.32,-0.152 h 1.433 l 0.158,0.032 c 1.762,0.367 3.092,1.484 3.092,3.38 v 0.767 c 0,4.718 -8.622,5.798 -11.912,6.028 -11.61,0.803 -20.293,-5.573 -23.603,-16.647 -0.575,-1.923 -0.834,-3.833 -0.834,-5.837 v -1.533 c 0,-8.403 4.17,-15.059 11.377,-19.34 3.351,-1.99 7.057,-2.99 10.95,-2.99 h 1.536 c 4.13,0 7.934,1.173 11.344,3.502 l 0.28,0.194 0.177,0.292 c 0.368,0.61 0.685,1.316 0.685,2.042 v 0.767 c 0,1.978 -1.48,3.042 -3.266,3.386 l -0.148,0.026 h -0.458 c -1.156,0 -3.785,-1.197 -4.817,-1.683 z m 25.134,5.247 c 3.01,-3.014 6.03,-6.022 9.085,-8.986 0.851,-0.827 4.074,-4.327 5.343,-4.327 h 1.388 l 0.158,0.033 c 1.768,0.367 3.092,1.486 3.092,3.386 v 0.766 c 0,1.296 -1.518,2.802 -2.355,3.689 -1.78,1.887 -3.654,3.712 -5.476,5.56 l -9.362,9.504 c 4.031,4.04 8.058,8.083 12.056,12.154 a 313.304,313.304 0 0 1 3.301,3.396 c 0.385,0.405 0.953,0.909 1.276,1.47 0.347,0.526 0.56,1.119 0.56,1.752 v 0.8 l -0.045,0.185 c -0.435,1.768 -1.557,3.194 -3.516,3.194 h -0.617 c -1.282,0 -2.73,-1.45 -3.608,-2.279 -1.81,-1.706 -3.557,-3.5 -5.331,-5.243 l -5.949,-5.84 v 9.334 c 0,2.15 -1.346,3.878 -3.569,3.878 h -0.61 c -2.226,0 -3.57,-1.728 -3.57,-3.878 v -52.596 c 0,-2.15 1.345,-3.87 3.57,-3.87 h 0.61 c 2.223,0 3.569,1.72 3.569,3.87 z m 96.577,-13.313 h 0.77 c 2.324,0 3.875,1.566 3.875,3.877 0,3.208 -3.067,4.029 -5.72,4.029 -3.48,0 -6.803,2.107 -9.202,4.47 -2.991,2.949 -4.3,6.726 -4.3,10.878 v 18.759 c 0,2.15 -1.343,3.876 -3.57,3.876 h -0.612 c -2.227,0 -3.569,-1.725 -3.569,-3.876 v -19.836 c 0,-7.617 3.708,-13.835 9.89,-18.196 3.691,-2.605 7.919,-3.98 12.438,-3.98 z m -55.074,37.176 c 2.82,0.985 6.035,0.844 8.928,0.34 1.48,-0.629 5.264,-2.28 6.656,-2.038 l 0.217,0.037 0.2,0.098 c 0.85,0.412 1.661,0.995 2.095,1.86 1.014,2.027 0.527,4.065 -1.465,5.216 l -0.663,0.383 c -7.35,4.242 -15.168,3.654 -22.495,-0.308 -3.503,-1.894 -6.183,-4.705 -8.16,-8.132 l -0.462,-0.801 c -4.719,-8.172 -4.082,-16.768 1.24,-24.539 1.837,-2.686 4.238,-4.761 7.045,-6.384 l 1.062,-0.613 c 6.922,-3.996 14.341,-3.722 21.45,-0.215 3.823,1.886 6.92,4.697 9.054,8.394 l 0.384,0.666 c 1.55,2.686 -0.458,5.026 -2.531,6.626 -2.406,1.856 -4.835,4.09 -7.141,6.08 -5.142,4.439 -10.276,8.888 -15.414,13.33 z m -6.655,-4.674 c 5.75,-4.93 11.502,-9.865 17.237,-14.816 1.96,-1.69 4.109,-3.444 6.053,-5.221 -1.56,-1.966 -4.166,-3.383 -6.38,-4.228 -4.47,-1.703 -8.877,-1.131 -12.976,1.235 -5.365,3.098 -7.65,8.031 -7.45,14.17 0.08,2.418 0.73,4.748 2.013,6.805 0.452,0.725 0.957,1.406 1.503,2.055 z M 147.488,45.732 h 22.866 v 23.375 h 11.561 c 5.34,0 10.831,-0.951 15.887,-2.664 2.485,-0.843 5.273,-2.015 7.724,-3.49 -3.228,-4.214 -4.876,-9.535 -5.36,-14.78 -0.66,-7.135 0.78,-16.421 5.608,-22.005 l 2.404,-2.78 2.864,2.303 c 7.211,5.793 13.276,13.889 14.345,23.118 8.683,-2.554 18.878,-1.95 26.531,2.467 l 3.14,1.812 -1.652,3.226 C 246.933,68.946 233.4,72.86 220.17,72.167 c -19.797,49.309 -62.898,72.653 -115.157,72.653 -27,0 -51.77,-10.093 -65.876,-34.047 l -0.231,-0.39 -2.055,-4.182 C 32.083,95.657 30.499,84.106 31.573,72.564 l 0.323,-3.457 H 51.45 V 45.732 H 74.315 V 22.866 h 45.733 V 0 h 27.44 v 45.732"
         fill="#364548"
         id="path2" />
      <path
         d="m 221.57,54.38 c 1.533,-11.916 -7.384,-21.275 -12.914,-25.719 -6.373,7.368 -7.363,26.678 2.635,34.808 -5.58,4.956 -17.337,9.448 -29.376,9.448 H 35.37 c -1.17,12.567 1.036,24.14 6.075,34.045 l 1.667,3.05 a 56.536,56.536 0 0 0 3.455,5.184 c 6.025,0.387 11.58,0.52 16.662,0.408 h 0.002 c 9.987,-0.22 18.136,-1.4 24.312,-3.54 a 1.761,1.761 0 0 1 1.153,3.326 c -0.822,0.286 -1.678,0.552 -2.562,0.805 h -0.003 c -4.863,1.389 -10.078,2.323 -16.806,2.738 0.4,0.007 -0.416,0.06 -0.418,0.06 -0.229,0.015 -0.517,0.048 -0.747,0.06 -2.648,0.149 -5.506,0.18 -8.428,0.18 -3.196,0 -6.343,-0.06 -9.862,-0.24 l -0.09,0.06 c 12.21,13.724 31.302,21.955 55.234,21.955 50.648,0 93.608,-22.452 112.632,-72.857 13.496,1.385 26.467,-2.057 32.367,-13.575 -9.398,-5.423 -21.484,-3.694 -28.443,-0.196"
         fill="#22a0c8"
         id="path4" />
      <path
         d="m 221.57,54.38 c 1.533,-11.916 -7.384,-21.275 -12.914,-25.719 -6.373,7.368 -7.363,26.678 2.635,34.808 -5.58,4.956 -17.337,9.448 -29.376,9.448 H 44.048 c -0.598,19.246 6.544,33.855 19.18,42.687 h 0.003 c 9.987,-0.22 18.136,-1.4 24.312,-3.54 a 1.761,1.761 0 0 1 1.153,3.326 c -0.822,0.286 -1.678,0.552 -2.562,0.805 h -0.003 c -4.863,1.389 -10.526,2.443 -17.254,2.858 -0.002,0 -0.163,-0.155 -0.165,-0.155 17.237,8.842 42.23,8.81 70.885,-2.197 32.13,-12.344 62.029,-35.86 82.89,-62.757 -0.314,0.142 -0.62,0.287 -0.917,0.436"
         fill="#37b1d9"
         id="path6" />
      <path
         d="m 35.645,88.186 c 0.91,6.732 2.88,13.035 5.8,18.776 l 1.667,3.05 a 56.432,56.432 0 0 0 3.455,5.184 c 6.026,0.387 11.581,0.52 16.664,0.408 9.987,-0.22 18.136,-1.4 24.312,-3.54 a 1.761,1.761 0 0 1 1.153,3.326 c -0.822,0.286 -1.678,0.552 -2.562,0.805 h -0.003 c -4.863,1.389 -10.496,2.383 -17.224,2.799 -0.231,0.014 -0.634,0.017 -0.867,0.03 -2.646,0.148 -5.475,0.239 -8.398,0.239 -3.195,0 -6.463,-0.061 -9.98,-0.24 12.21,13.724 31.42,21.985 55.352,21.985 43.36,0 81.084,-16.458 102.979,-52.822 H 35.645"
         fill="#1b81a5"
         id="path8" />
      <path
         d="m 45.367,88.186 c 2.592,11.82 8.821,21.099 17.864,27.418 9.987,-0.22 18.136,-1.4 24.312,-3.54 a 1.761,1.761 0 0 1 1.153,3.326 c -0.822,0.286 -1.678,0.552 -2.562,0.805 h -0.003 c -4.863,1.389 -10.615,2.383 -17.344,2.799 17.236,8.84 42.157,8.713 70.81,-2.293 17.334,-6.66 34.017,-16.574 48.984,-28.515 H 45.367"
         fill="#1d91b4"
         id="path10" />
      <path
         d="M 55.26,49.543 H 75.078 V 69.361 H 55.26 Z m 1.651,1.652 h 1.564 V 67.71 h -1.564 z m 2.94,0 h 1.627 V 67.71 H 59.852 V 51.195 Z m 3.002,0 H 64.48 V 67.71 h -1.627 z m 3.004,0 h 1.626 V 67.71 h -1.626 z m 3.003,0 h 1.626 V 67.71 H 68.86 Z m 3.002,0 h 1.565 V 67.71 H 71.862 Z M 78.126,26.677 H 97.945 V 46.494 H 78.125 V 26.677 Z m 1.652,1.652 h 1.563 v 16.514 h -1.563 z m 2.94,0 h 1.626 V 44.843 H 82.719 V 28.329 Z m 3.002,0 h 1.626 V 44.843 H 85.72 Z m 3.003,0 h 1.626 v 16.514 h -1.626 z m 3.003,0 h 1.627 v 16.514 h -1.627 z m 3.002,0 h 1.566 v 16.514 h -1.566 z"
         fill="#23a3c2"
         id="path12" />
      <path
         d="M 78.126,49.543 H 97.945 V 69.361 H 78.125 V 49.543 Z m 1.652,1.652 h 1.563 V 67.71 h -1.563 z m 2.94,0 h 1.626 V 67.71 H 82.719 V 51.195 Z m 3.002,0 h 1.626 V 67.71 H 85.72 Z m 3.003,0 h 1.626 V 67.71 h -1.626 z m 3.003,0 h 1.627 V 67.71 h -1.627 z m 3.002,0 h 1.566 V 67.71 h -1.566 z"
         fill="#34bbde"
         id="path14" />
      <path
         d="m 100.993,49.543 h 19.818 v 19.818 h -19.818 z m 1.651,1.652 h 1.563 V 67.71 h -1.563 z m 2.94,0 h 1.626 V 67.71 h -1.626 z m 3.003,0 h 1.626 V 67.71 h -1.626 z m 3.003,0 h 1.626 V 67.71 h -1.626 z m 3.002,0 h 1.628 V 67.71 h -1.628 z m 3.003,0 h 1.564 V 67.71 h -1.564 z"
         fill="#23a3c2"
         id="path16" />
      <path
         d="m 100.993,26.677 h 19.818 v 19.817 h -19.818 z m 1.651,1.652 h 1.563 v 16.514 h -1.563 z m 2.94,0 h 1.626 v 16.514 h -1.626 z m 3.003,0 h 1.626 v 16.514 h -1.626 z m 3.003,0 h 1.626 v 16.514 h -1.626 z m 3.002,0 h 1.628 v 16.514 h -1.628 z m 3.003,0 h 1.564 v 16.514 h -1.564 z m 6.264,21.214 h 19.818 v 19.818 h -19.818 z m 1.652,1.652 h 1.563 V 67.71 h -1.563 z m 2.94,0 h 1.626 V 67.71 h -1.626 z m 3.002,0 h 1.626 V 67.71 h -1.626 z m 3.003,0 h 1.627 V 67.71 h -1.627 z m 3.003,0 h 1.627 V 67.71 h -1.627 z m 3.003,0 h 1.564 V 67.71 h -1.564 z"
         fill="#34bbde"
         id="path18" />
      <path
         d="m 123.859,26.677 h 19.818 v 19.817 h -19.818 z m 1.652,1.652 h 1.563 v 16.514 h -1.563 z m 2.94,0 h 1.626 v 16.514 h -1.626 z m 3.002,0 h 1.626 v 16.514 h -1.626 z m 3.003,0 h 1.627 v 16.514 h -1.627 z m 3.003,0 h 1.627 v 16.514 h -1.627 z m 3.003,0 h 1.564 v 16.514 h -1.564 z"
         fill="#23a3c2"
         id="path20" />
      <path
         d="m 123.859,3.81 h 19.818 v 19.82 h -19.818 z m 1.652,1.651 h 1.563 v 16.516 h -1.563 V 5.46 Z m 2.94,0 h 1.626 v 16.516 h -1.626 V 5.46 Z m 3.002,0 h 1.626 v 16.516 h -1.626 V 5.46 Z m 3.003,0 h 1.627 v 16.516 h -1.627 V 5.46 Z m 3.003,0 h 1.627 v 16.516 h -1.627 V 5.46 Z m 3.003,0 h 1.564 v 16.516 h -1.564 V 5.46 Z"
         fill="#34bbde"
         id="path22" />
      <path
         d="m 146.725,49.543 h 19.818 v 19.818 h -19.818 z m 1.65,1.652 h 1.565 V 67.71 h -1.564 V 51.195 Z m 2.94,0 h 1.627 V 67.71 h -1.626 V 51.195 Z m 3.004,0 h 1.627 V 67.71 h -1.627 z m 3.002,0 h 1.627 V 67.71 h -1.627 z m 3.004,0 h 1.626 V 67.71 h -1.626 z m 3.002,0 h 1.564 V 67.71 h -1.564 z"
         fill="#23a3c2"
         id="path24" />
      <path
         d="m 96.704,101.492 a 5.468,5.468 0 1 1 -0.002,10.935 5.468,5.468 0 0 1 0.002,-10.935"
         fill="#d3ecec"
         id="path26" />
      <path
         d="m 96.704,103.043 c 0.5,0 0.977,0.094 1.417,0.265 a 1.598,1.598 0 0 0 0.798,2.98 c 0.605,0 1.13,-0.335 1.402,-0.831 a 3.915,3.915 0 1 1 -3.617,-2.414 M 0,90.162 h 254.327 c -5.537,-1.404 -17.52,-3.302 -15.544,-10.56 -10.07,11.652 -34.353,8.175 -40.482,2.43 -6.824,9.898 -46.554,6.135 -49.325,-1.576 -8.556,10.041 -35.067,10.041 -43.623,0 -2.773,7.711 -42.502,11.474 -49.327,1.575 -6.128,5.746 -30.41,9.223 -40.48,-2.428 C 17.522,86.86 5.539,88.758 0,90.163"
         fill="#364548"
         id="path28" />
      <path
         d="m 111.237,140.89 c -13.54,-6.425 -20.971,-15.16 -25.106,-24.694 -5.03,1.435 -11.075,2.353 -18.1,2.747 -2.646,0.148 -5.43,0.224 -8.35,0.224 -3.368,0 -6.917,-0.1 -10.643,-0.297 12.417,12.41 27.692,21.964 55.976,22.138 2.088,0 4.16,-0.04 6.223,-0.118"
         fill="#bdd9d7"
         id="path30" />
      <path
         d="m 91.16,124.994 c -1.873,-2.543 -3.69,-5.739 -5.026,-8.8 -5.03,1.437 -11.077,2.355 -18.103,2.75 4.826,2.619 11.727,5.046 23.13,6.05"
         fill="#d3ecec"
         id="path32" />
    </g>
  </g>
</svg>
