<?xml version="1.0" encoding="UTF-8" standalone="no"?>
<svg
   xmlns:dc="http://purl.org/dc/elements/1.1/"
   xmlns:cc="http://creativecommons.org/ns#"
   xmlns:rdf="http://www.w3.org/1999/02/22-rdf-syntax-ns#"
   xmlns:svg="http://www.w3.org/2000/svg"
   xmlns="http://www.w3.org/2000/svg"
   xmlns:sodipodi="http://sodipodi.sourceforge.net/DTD/sodipodi-0.dtd"
   xmlns:inkscape="http://www.inkscape.org/namespaces/inkscape"
   width="248.0px"
   height="248.0px"
   viewBox="0 0 248.0 248.0"
   version="1.1"
   id="SVGRoot"
   sodipodi:docname="docker Dark.svg"
   inkscape:version="1.0.2-2 (e86c870879, 2021-01-15)">
  <defs
     id="defs1402">
    <inkscape:path-effect
       effect="fillet_chamfer"
       id="path-effect2040"
       is_visible="true"
       lpeversion="1"
       satellites_param="F,0,0,1,0,0,0,1 @ F,0,0,1,0,6.0755415,0,1 @ F,0,0,1,0,6.1445293,0,1 @ F,0,0,1,0,0,0,1"
       unit="px"
       method="auto"
       mode="F"
       radius="0"
       chamfer_steps="1"
       flexible="false"
       use_knot_distance="true"
       apply_no_radius="true"
       apply_with_radius="true"
       only_selected="true"
       hide_knots="false" />
    <style
       id="style1979">.cls-1{fill:url(#GreenGradient);}.cls-2{fill:#fff;}</style>
    <linearGradient
       id="GreenGradient"
       x1="-522.53"
       y1="465.47"
       x2="-416.47"
       y2="571.53"
       gradientTransform="rotate(-90,-456.5,24.5)"
       gradientUnits="userSpaceOnUse">
      <stop
         offset="0"
         stop-color="#1b660f"
         id="stop1981" />
      <stop
         offset="1"
         stop-color="#6cae3e"
         id="stop1983" />
    </linearGradient>
    <linearGradient
       id="a"
       gradientTransform="matrix(10.948793,0,0,-10.948793,-716.33299,1823.6321)"
       gradientUnits="userSpaceOnUse"
       x1="62.57"
       x2="25.030001"
       y1="150.13"
       y2="85.110001">
      <stop
         offset="0"
         stop-color="#0052cc"
         id="stop2" />
      <stop
         offset=".92"
         stop-color="#2684ff"
         id="stop4-5" />
    </linearGradient>
  </defs>
  <sodipodi:namedview
     id="base"
     pagecolor="#101010"
     bordercolor="#666666"
     borderopacity="1.0"
     inkscape:pageopacity="0"
     inkscape:pageshadow="2"
     inkscape:zoom="1.2244347"
     inkscape:cx="196.94769"
     inkscape:cy="121.10013"
     inkscape:document-units="px"
     inkscape:current-layer="layer2"
     inkscape:document-rotation="0"
     showgrid="true"
     inkscape:window-width="1366"
     inkscape:window-height="705"
     inkscape:window-x="-8"
     inkscape:window-y="-8"
     inkscape:window-maximized="1"
     inkscape:snap-global="false"
     showguides="true">
    <inkscape:grid
       type="xygrid"
       id="grid1972" />
  </sodipodi:namedview>
  <metadata
     id="metadata1405">
    <rdf:RDF>
      <cc:Work
         rdf:about="">
        <dc:format>image/svg+xml</dc:format>
        <dc:type
           rdf:resource="http://purl.org/dc/dcmitype/StillImage" />
        <dc:title />
      </cc:Work>
    </rdf:RDF>
  </metadata>
  <g
     inkscape:groupmode="layer"
     id="layer3"
     inkscape:label="BG" />
  <g
     inkscape:groupmode="layer"
     id="layer4"
     inkscape:label="Bounding Box" />
  <g
     inkscape:groupmode="layer"
     id="layer2"
     inkscape:label="Top">
    <g
       id="g847"
       transform="translate(-0.19315289,-0.04989999)"
       style="fill:#5e5c64">
      <path
         style="fill:#5e5c64;fill-opacity:0.326613;stroke:none;stroke-width:3;stroke-linecap:round;stroke-linejoin:round;stroke-miterlimit:4;stroke-dasharray:none;stroke-opacity:1;paint-order:normal"
         id="path885"
         sodipodi:type="arc"
         sodipodi:cx="154.57903"
         sodipodi:cy="83.172447"
         sodipodi:rx="111.24603"
         sodipodi:ry="111.24603"
         sodipodi:start="5.9893981"
         sodipodi:end="5.9807042"
         sodipodi:open="true"
         sodipodi:arc-type="arc"
         transform="rotate(16.68412)"
         d="M 261.05862,50.957906 A 111.24603,111.24603 0 0 1 187.02492,189.58177 111.24603,111.24603 0 0 1 48.240476,115.84954 111.24603,111.24603 0 0 1 121.67088,-23.094829 111.24603,111.24603 0 0 1 260.77453,50.033412" />
      <path
         style="fill:#5e5c64;fill-opacity:1;stroke:#ffffff;stroke-width:4.5;stroke-linecap:round;stroke-linejoin:round;stroke-miterlimit:4;stroke-dasharray:none;stroke-opacity:1;paint-order:normal"
         id="path883-9"
         sodipodi:type="arc"
         sodipodi:cx="154.57903"
         sodipodi:cy="83.172447"
         sodipodi:rx="111.24604"
         sodipodi:ry="111.24604"
         sodipodi:start="5.9893981"
         sodipodi:end="5.9807042"
         sodipodi:open="true"
         sodipodi:arc-type="arc"
         transform="rotate(16.68412)"
         d="M 261.05862,50.957904 A 111.24604,111.24604 0 0 1 187.02492,189.58178 111.24604,111.24604 0 0 1 48.240468,115.84955 111.24604,111.24604 0 0 1 121.67088,-23.094836 111.24604,111.24604 0 0 1 260.77453,50.03341" />
    </g>
    <path
       d="m 74.813593,160.78585 v -9.01996 c 0,-1.18524 0.740913,-2.13729 1.968052,-2.13729 h 0.339585 c 1.226587,0 1.964193,0.95315 1.964193,2.13729 v 18.98977 c 0,4.63071 -2.287791,8.31543 -6.274612,10.66276 a 11.782951,11.782951 0 0 1 -6.033705,1.64555 h -0.847309 c -4.631813,0 -8.311573,-2.28944 -10.662761,-6.2735 a 11.749875,11.749875 0 0 1 -1.645005,-6.03481 v -0.84621 c 0,-4.63236 2.288894,-8.31488 6.272407,-10.66662 a 11.741055,11.741055 0 0 1 6.035359,-1.64555 h 0.847309 c 3.13455,0 5.7939,1.21501 8.036487,3.18857 z m -16.920283,9.54588 c 0,3.34513 1.6213,5.86005 4.552429,7.46426 1.185241,0.6483 2.471917,0.99671 3.824194,0.99671 3.283394,0 5.718927,-1.54909 7.398662,-4.33137 0.781156,-1.2944 1.144998,-2.71062 1.144998,-4.21615 0,-2.89971 -1.372675,-5.16269 -3.709529,-6.84353 -1.416777,-1.01876 -3.011616,-1.52979 -4.750888,-1.52979 -3.578877,0 -6.154434,1.80818 -7.700209,5.01991 -0.521506,1.08601 -0.759657,2.23873 -0.759657,3.43996 z m 36.011487,-12.73445 h 0.592069 c 4.949347,0 8.713454,2.4008 11.098824,6.72114 0.9537,1.72825 1.46418,3.61471 1.46418,5.59103 v 0.84621 c 0,4.63071 -2.28338,8.32039 -6.27626,10.66331 -1.848429,1.08436 -3.890352,1.645 -6.032606,1.645 h -0.846207 c -4.631813,0 -8.312676,-2.28944 -10.662761,-6.2735 a 11.750977,11.750977 0 0 1 -1.646658,-6.03481 v -0.84621 c 0,-4.63291 2.298265,-8.3033 6.271855,-10.66552 1.847323,-1.09758 3.890899,-1.64665 6.037564,-1.64665 z m -8.037589,12.73445 c 0,3.24701 1.593184,5.63568 4.335777,7.31542 1.287779,0.78832 2.706209,1.14555 4.210639,1.14555 3.20842,0 5.580005,-1.62682 7.230526,-4.33468 0.78722,-1.29109 1.14334,-2.70952 1.14334,-4.21284 0,-3.01934 -1.45426,-5.32587 -3.940513,-6.99734 -1.362201,-0.91677 -2.878758,-1.37598 -4.519352,-1.37598 -3.578878,0 -6.154434,1.80818 -7.699658,5.01991 -0.522609,1.08601 -0.760759,2.23873 -0.760759,3.43996 z m 38.950882,-8.11863 c -0.64499,-0.3021 -1.85228,-0.40243 -2.54909,-0.42889 -3.56896,-0.13451 -6.15113,1.87544 -7.66603,5.02377 -0.52316,1.08601 -0.76186,2.23542 -0.76186,3.4372 0,3.65881 1.92119,6.22058 5.18694,7.78235 1.19296,0.57001 2.73322,0.67806 4.03699,0.67806 1.14665,0 2.7674,-0.70232 3.78505,-1.18579 l 0.17641,-0.0838 h 0.78998 l 0.0871,0.0176 c 0.97135,0.20232 1.70454,0.81809 1.70454,1.86331 v 0.42283 c 0,2.60091 -4.75309,3.19629 -6.56679,3.32308 -6.4003,0.44268 -11.18702,-3.07225 -13.01174,-9.17707 -0.31698,-1.0601 -0.45976,-2.11304 -0.45976,-3.21779 v -0.84511 c 0,-4.63236 2.29881,-8.30165 6.27185,-10.66166 1.84732,-1.09703 3.89035,-1.64831 6.03646,-1.64831 h 0.84676 c 2.27677,0 4.37382,0.64665 6.25366,1.93057 l 0.15436,0.10694 0.0976,0.16098 c 0.20287,0.33627 0.37762,0.72547 0.37762,1.1257 v 0.42283 c 0,1.09042 -0.81589,1.67698 -1.80046,1.86661 l -0.0816,0.0143 h -0.25249 c -0.63727,0 -2.08657,-0.65988 -2.65549,-0.9278 z m 13.85575,2.89254 c 1.65934,-1.66154 3.32419,-3.31978 5.00833,-4.95376 0.46914,-0.4559 2.2459,-2.38536 2.94546,-2.38536 h 0.76517 l 0.0871,0.0182 c 0.97466,0.20232 1.70455,0.81919 1.70455,1.86662 v 0.42227 c 0,0.71446 -0.83684,1.54468 -1.29826,2.03366 -0.98127,1.04025 -2.01435,2.04633 -3.01878,3.06509 l -5.16103,5.23931 c 2.22219,2.22715 4.44217,4.45596 6.64617,6.7002 a 172.71666,172.71666 0 0 1 1.81976,1.87213 c 0.21224,0.22326 0.52536,0.50111 0.70342,0.81037 0.1913,0.28997 0.30872,0.61688 0.30872,0.96584 v 0.44102 l -0.0248,0.10198 c -0.23981,0.97466 -0.85834,1.76077 -1.93828,1.76077 h -0.34014 c -0.70673,0 -1.50498,-0.79934 -1.989,-1.25635 -0.99781,-0.94048 -1.96089,-1.92946 -2.93885,-2.89034 l -3.27953,-3.21944 v 5.1456 c 0,1.18524 -0.74202,2.13784 -1.9675,2.13784 h -0.33628 c -1.22714,0 -1.96805,-0.9526 -1.96805,-2.13784 v -28.99486 c 0,-1.18524 0.74146,-2.13343 1.96805,-2.13343 h 0.33628 c 1.22548,0 1.9675,0.94819 1.9675,2.13343 z m 53.24048,-7.33912 h 0.42448 c 1.28117,0 2.13619,0.86329 2.13619,2.13729 0,1.76849 -1.69076,2.22109 -3.15329,2.22109 -1.91844,0 -3.75032,1.16153 -5.07283,2.4642 -1.64886,1.62571 -2.37048,3.70787 -2.37048,5.99677 v 10.34136 c 0,1.18524 -0.74037,2.13674 -1.96806,2.13674 h -0.33738 c -1.22769,0 -1.9675,-0.95094 -1.9675,-2.13674 v -10.93509 c 0,-4.19906 2.04413,-7.62689 5.45211,-10.031 2.03476,-1.43607 4.36555,-2.19407 6.85676,-2.19407 z m -30.36092,20.4942 c 1.5546,0.543 3.32695,0.46527 4.92179,0.18743 0.81588,-0.34675 2.90191,-1.25691 3.66928,-1.1235 l 0.11963,0.0204 0.11025,0.054 c 0.46859,0.22713 0.91567,0.54852 1.15493,1.02537 0.55899,1.11744 0.29052,2.24094 -0.80762,2.87545 l -0.3655,0.21114 c -4.05187,2.33851 -8.36174,2.01436 -12.40093,-0.16979 -1.93111,-1.04411 -3.40853,-2.59375 -4.4984,-4.48297 l -0.25469,-0.44157 c -2.60147,-4.50502 -2.25031,-9.24378 0.68358,-13.52774 1.01269,-1.48072 2.3363,-2.62462 3.88373,-3.51934 l 0.58546,-0.33793 c 3.81592,-2.20289 7.90583,-2.05184 11.82484,-0.11852 2.10753,1.0397 3.81483,2.58934 4.99125,4.6274 l 0.21169,0.36715 c 0.85447,1.48072 -0.25249,2.77071 -1.39528,3.65275 -1.32637,1.02316 -2.66541,2.25471 -3.93665,3.35175 -2.83466,2.44711 -5.66491,4.89973 -8.49736,7.3485 z m -3.66873,-2.57666 c 3.16983,-2.71779 6.34076,-5.43833 9.50233,-8.16769 1.08049,-0.93166 2.26518,-1.89859 3.33686,-2.87821 -0.85999,-1.08381 -2.29661,-1.86496 -3.51713,-2.33079 -2.4642,-0.93882 -4.89367,-0.62349 -7.15335,0.68082 -2.95759,1.70785 -4.21725,4.42729 -4.10699,7.81157 0.0441,1.33298 0.40243,2.61745 1.10971,3.75143 0.24918,0.39967 0.52757,0.77509 0.82857,1.13287 z M 134.83145,90.083731 h 12.60545 v 12.886049 h 6.37329 c 2.94381,0 5.97086,-0.52426 8.75811,-1.46859 1.36992,-0.46473 2.90687,-1.11082 4.25805,-1.923952 -1.77952,-2.323073 -2.68802,-5.256407 -2.95484,-8.147844 -0.36384,-3.933347 0.43,-9.052487 3.09155,-12.130806 l 1.32527,-1.532545 1.57885,1.269587 c 3.97525,3.193535 7.31873,7.656658 7.90804,12.744374 4.78672,-1.407956 10.40697,-1.074986 14.62588,1.359996 l 1.731,0.99891 -0.91071,1.778413 c -3.5684,6.963707 -11.0288,9.121397 -18.32217,8.739367 -10.91359,27.18281 -34.67409,40.05178 -63.48317,40.05178 -14.884428,0 -28.539509,-5.56402 -36.315794,-18.76926 l -0.127345,-0.215 -1.13287,-2.30543 c -2.628479,-5.81265 -3.501698,-12.18042 -2.909629,-18.54324 l 0.178062,-1.90576 H 81.888105 V 90.083731 H 94.493007 V 77.478278 H 119.70447 V 64.872824 h 15.12698 v 25.210907"
       fill="#364548"
       id="path2"
       style="fill-rule:evenodd;stroke-width:0.551275;fill:#ffffff" />
    <path
       d="m 175.671,94.851157 c 0.84511,-6.568992 -4.07061,-11.728375 -7.11916,-14.178241 -3.51328,4.061794 -4.05904,14.706914 1.45261,19.18878 -3.07612,2.732114 -9.55746,5.208444 -16.19426,5.208444 H 73.023603 c -0.644992,6.92787 0.571121,13.30778 3.348996,18.76816 l 0.918975,1.68139 a 31.166882,31.166882 0 0 0 1.904655,2.85781 c 3.321432,0.21334 6.383764,0.28666 9.185344,0.22492 h 0.0011 c 5.505583,-0.12128 9.997923,-0.77179 13.402597,-1.95152 a 0.97079524,0.97079524 0 0 1 0.63562,1.83354 c -0.45315,0.15767 -0.92504,0.30431 -1.41236,0.44378 h -0.002 c -2.68085,0.76572 -5.555749,1.28061 -9.264727,1.50939 0.22051,0.004 -0.22933,0.0331 -0.230433,0.0331 -0.126242,0.008 -0.285009,0.0265 -0.411802,0.0331 -1.459777,0.0821 -3.03532,0.0992 -4.646146,0.0992 -1.761875,0 -3.496737,-0.0331 -5.436674,-0.1323 l -0.04961,0.0331 c 6.731067,7.5657 17.256009,12.10325 30.449122,12.10325 27.92097,0 51.60375,-12.37723 62.0912,-40.16424 7.44001,0.76351 14.5906,-1.13398 17.84312,-7.483563 -5.18088,-2.989564 -11.84359,-2.036409 -15.67992,-0.10805"
       fill="#22a0c8"
       id="path4"
       style="fill-rule:evenodd;stroke-width:0.551275" />
    <path
       d="m 175.671,94.851157 c 0.84511,-6.568992 -4.07061,-11.728375 -7.11916,-14.178241 -3.51328,4.061794 -4.05904,14.706914 1.45261,19.18878 -3.07612,2.732114 -9.55746,5.208444 -16.19426,5.208444 H 77.807567 c -0.329662,10.60984 3.607544,18.66342 10.573454,23.53228 h 0.0017 c 5.505583,-0.12128 9.997923,-0.77179 13.402599,-1.95152 a 0.97079524,0.97079524 0 0 1 0.63562,1.83354 c -0.45315,0.15767 -0.92504,0.30431 -1.41236,0.44378 h -0.002 c -2.680852,0.76572 -5.802722,1.34677 -9.5117,1.57554 -0.0011,0 -0.08986,-0.0854 -0.09096,-0.0854 9.50233,4.87437 23.28035,4.85673 39.07713,-1.21115 17.71247,-6.80494 34.19504,-19.76873 45.69518,-34.596368 -0.1731,0.07828 -0.34179,0.158215 -0.50552,0.240355"
       fill="#37b1d9"
       id="path6"
       style="fill-rule:evenodd;stroke-width:0.551275" />
    <path
       d="m 73.175204,113.48756 c 0.50166,3.71118 1.587672,7.18587 3.197395,10.35074 l 0.918975,1.68139 a 31.10955,31.10955 0 0 0 1.904655,2.85781 c 3.321983,0.21334 6.384316,0.28666 9.186446,0.22492 5.505583,-0.12128 9.997923,-0.77179 13.402595,-1.95152 a 0.97079524,0.97079524 0 0 1 0.63562,1.83354 c -0.45315,0.15767 -0.92504,0.30431 -1.41236,0.44378 h -0.002 c -2.680848,0.76572 -5.78618,1.31369 -9.495158,1.54302 -0.127344,0.008 -0.349508,0.009 -0.477955,0.0165 -1.458674,0.0816 -3.018231,0.13175 -4.629608,0.13175 -1.761323,0 -3.56289,-0.0336 -5.501724,-0.1323 6.731068,7.56569 17.32106,12.11978 30.514175,12.11978 23.90328,0 44.69958,-9.07289 56.76974,-29.11945 H 73.175204"
       fill="#1b81a5"
       id="path8"
       style="fill-rule:evenodd;stroke-width:0.551275" />
    <path
       d="m 78.534699,113.48756 c 1.428905,6.51607 4.862797,11.63135 9.847976,15.11486 5.505583,-0.12128 9.997923,-0.77179 13.402595,-1.95152 a 0.97079524,0.97079524 0 0 1 0.63562,1.83354 c -0.45315,0.15767 -0.92504,0.30431 -1.41236,0.44378 h -0.002 c -2.680848,0.76572 -5.851782,1.31369 -9.561311,1.54302 9.501771,4.87327 23.240101,4.80326 39.035781,-1.26407 9.5558,-3.6715 18.75272,-9.13684 27.00365,-15.71961 H 78.534699"
       fill="#1d91b4"
       id="path10"
       style="fill-rule:evenodd;stroke-width:0.551275" />
    <path
       d="M 83.988462,92.18464 H 94.91363 v 10.92517 H 83.988462 Z m 0.910155,0.910707 h 0.862194 v 9.104303 h -0.862194 z m 1.620749,0 h 0.896924 v 9.104303 h -0.896373 v -9.104303 z m 1.654927,0 h 0.896925 v 9.104303 h -0.896925 z m 1.65603,0 h 0.896373 v 9.104303 h -0.896373 z m 1.655479,0 h 0.896373 v 9.104303 h -0.896373 z m 1.654928,0 h 0.862745 v 9.104303 H 93.14073 Z m 3.453186,-13.51616 H 107.51963 V 90.503803 H 96.593365 V 79.579187 Z m 0.910706,0.910706 h 0.861643 v 9.103755 h -0.861643 z m 1.620749,0 h 0.896369 v 9.103755 h -0.895818 v -9.103755 z m 1.654929,0 h 0.89637 v 9.103755 h -0.89637 z m 1.65548,0 h 0.89637 v 9.103755 h -0.89637 z m 1.65548,0 h 0.89692 v 9.103755 h -0.89692 z m 1.65492,0 h 0.8633 v 9.103755 h -0.8633 z"
       fill="#23a3c2"
       id="path12"
       style="fill-rule:evenodd;stroke-width:0.551275" />
    <path
       d="m 96.593916,92.18464 h 10.925714 v 10.92517 H 96.593365 V 92.18464 Z m 0.910706,0.910707 h 0.861643 v 9.104303 h -0.861643 z m 1.620749,0 h 0.896369 v 9.104303 h -0.895818 v -9.104303 z m 1.654929,0 h 0.89637 v 9.104303 h -0.89637 z m 1.65548,0 h 0.89637 v 9.104303 h -0.89637 z m 1.65548,0 h 0.89692 v 9.104303 h -0.89692 z m 1.65492,0 h 0.8633 v 9.104303 h -0.8633 z"
       fill="#34bbde"
       id="path14"
       style="fill-rule:evenodd;stroke-width:0.551275" />
    <path
       d="m 109.19992,92.18464 h 10.92517 v 10.92517 h -10.92517 z m 0.91016,0.910707 h 0.86164 v 9.104303 h -0.86164 z m 1.62074,0 h 0.89638 v 9.104303 h -0.89638 z m 1.65548,0 h 0.89638 v 9.104303 h -0.89638 z m 1.65548,0 h 0.89638 v 9.104303 h -0.89638 z m 1.65493,0 h 0.89748 v 9.104303 h -0.89748 z m 1.65548,0 h 0.86219 v 9.104303 h -0.86219 z"
       fill="#23a3c2"
       id="path16"
       style="fill-rule:evenodd;stroke-width:0.551275" />
    <path
       d="m 109.19992,79.579187 h 10.92517 v 10.924616 h -10.92517 z m 0.91016,0.910706 h 0.86164 v 9.103755 h -0.86164 z m 1.62074,0 h 0.89638 v 9.103755 h -0.89638 z m 1.65548,0 h 0.89638 v 9.103755 h -0.89638 z m 1.65548,0 h 0.89638 v 9.103755 h -0.89638 z m 1.65493,0 h 0.89748 v 9.103755 h -0.89748 z m 1.65548,0 h 0.86219 v 9.103755 h -0.86219 z m 3.45318,11.694747 h 10.92517 v 10.92517 h -10.92517 z m 0.91071,0.910707 h 0.86164 v 9.104303 h -0.86164 z m 1.62075,0 h 0.89637 v 9.104303 h -0.89637 z m 1.65493,0 h 0.89637 v 9.104303 h -0.89637 z m 1.65548,0 h 0.89692 v 9.104303 h -0.89692 z m 1.65547,0 h 0.89693 v 9.104303 h -0.89693 z m 1.65548,0 h 0.8622 v 9.104303 h -0.8622 z"
       fill="#34bbde"
       id="path18"
       style="fill-rule:evenodd;stroke-width:0.551275" />
    <path
       d="m 121.80537,79.579187 h 10.92517 v 10.924616 h -10.92517 z m 0.91071,0.910706 h 0.86164 v 9.103755 h -0.86164 z m 1.62075,0 h 0.89637 v 9.103755 h -0.89637 z m 1.65493,0 h 0.89637 v 9.103755 h -0.89637 z m 1.65548,0 h 0.89692 v 9.103755 h -0.89692 z m 1.65547,0 h 0.89693 v 9.103755 h -0.89693 z m 1.65548,0 h 0.8622 v 9.103755 h -0.8622 z"
       fill="#23a3c2"
       id="path20"
       style="fill-rule:evenodd;stroke-width:0.551275" />
    <path
       d="m 121.80537,66.973182 h 10.92517 v 10.92627 h -10.92517 z m 0.91071,0.910155 h 0.86164 v 9.104857 h -0.86164 v -9.105409 z m 1.62075,0 h 0.89637 v 9.104857 h -0.89637 v -9.105409 z m 1.65493,0 h 0.89637 v 9.104857 h -0.89637 v -9.105409 z m 1.65548,0 h 0.89692 v 9.104857 h -0.89692 v -9.105409 z m 1.65547,0 h 0.89693 v 9.104857 h -0.89693 v -9.105409 z m 1.65548,0 h 0.8622 v 9.104857 h -0.8622 v -9.105409 z"
       fill="#34bbde"
       id="path22"
       style="fill-rule:evenodd;stroke-width:0.551275" />
    <path
       d="M 134.41083,92.18464 H 145.336 v 10.92517 h -10.92517 z m 0.9096,0.910707 h 0.86275 v 9.104303 h -0.8622 v -9.104303 z m 1.62075,0 h 0.89692 v 9.104303 h -0.89637 v -9.104303 z m 1.65603,0 h 0.89693 v 9.104303 h -0.89693 z m 1.65493,0 h 0.89692 v 9.104303 h -0.89692 z m 1.65603,0 h 0.89637 v 9.104303 h -0.89637 z m 1.65493,0 h 0.86219 v 9.104303 h -0.86219 z"
       fill="#23a3c2"
       id="path24"
       style="fill-rule:evenodd;stroke-width:0.551275" />
    <path
       d="m 106.8355,120.82282 a 3.0143716,3.0143716 0 1 1 -10e-4,6.0282 3.0143716,3.0143716 0 0 1 10e-4,-6.0282"
       fill="#d3ecec"
       id="path26"
       style="fill-rule:evenodd;stroke-width:0.551275" />
    <path
       d="m 106.8355,121.67785 c 0.27564,0 0.5386,0.0518 0.78116,0.14609 a 0.88093742,0.88093742 0 0 0 0.43992,1.6428 c 0.33352,0 0.62294,-0.18468 0.77288,-0.45811 a 2.1582415,2.1582415 0 1 1 -1.99396,-1.33078 M 53.525007,114.57688 H 193.72912 c -3.05241,-0.77399 -9.65834,-1.82031 -8.56902,-5.82147 -5.55134,6.42346 -18.93795,4.50668 -22.31671,1.3396 -3.7619,5.45652 -25.66406,3.38208 -27.19164,-0.86881 -4.71671,5.53536 -19.33156,5.53536 -24.04827,0 -1.52869,4.25089 -23.430289,6.32533 -27.192741,0.86826 -3.378213,3.16763 -16.764272,5.08441 -22.315611,-1.33849 1.089319,4.0006 -5.516609,5.04692 -8.570121,5.82146"
       fill="#364548"
       id="path28"
       style="fill-rule:evenodd;stroke-width:0.551275;fill:#ffffff" />
    <path
       d="m 114.84718,142.54196 c -7.46426,-3.54195 -11.56079,-8.35733 -13.84031,-13.61319 -2.772911,0.79108 -6.105368,1.29715 -9.978075,1.51435 -1.458673,0.0816 -2.993423,0.12349 -4.603146,0.12349 -1.856694,0 -3.813169,-0.0551 -5.86722,-0.16373 6.845182,6.84132 15.265907,12.1082 30.858171,12.20413 1.15106,0 2.2933,-0.0221 3.43058,-0.0651"
       fill="#bdd9d7"
       id="path30"
       style="fill-rule:evenodd;stroke-width:0.551275" />
    <path
       d="m 103.77923,133.77889 c -1.03253,-1.40189 -2.0342,-3.16377 -2.7707,-4.85122 -2.772917,0.79218 -6.106477,1.29825 -9.979735,1.51601 2.660453,1.44378 6.464802,2.78173 12.750995,3.33521"
       fill="#d3ecec"
       id="path32"
       style="fill-rule:evenodd;stroke-width:0.551275" />
  </g>
</svg>
