<?xml version="1.0" encoding="UTF-8" standalone="no"?>
<svg
   xmlns:dc="http://purl.org/dc/elements/1.1/"
   xmlns:cc="http://creativecommons.org/ns#"
   xmlns:rdf="http://www.w3.org/1999/02/22-rdf-syntax-ns#"
   xmlns:svg="http://www.w3.org/2000/svg"
   xmlns="http://www.w3.org/2000/svg"
   xmlns:xlink="http://www.w3.org/1999/xlink"
   xmlns:sodipodi="http://sodipodi.sourceforge.net/DTD/sodipodi-0.dtd"
   xmlns:inkscape="http://www.inkscape.org/namespaces/inkscape"
   width="248.0px"
   height="248.0px"
   viewBox="0 0 248.0 248.0"
   version="1.1"
   id="SVGRoot"
   sodipodi:docname="freshworks-vector-logo_ Dark.svg"
   inkscape:version="1.0.2-2 (e86c870879, 2021-01-15)">
  <defs
     id="defs1402">
    <inkscape:path-effect
       effect="fillet_chamfer"
       id="path-effect2040"
       is_visible="true"
       lpeversion="1"
       satellites_param="F,0,0,1,0,0,0,1 @ F,0,0,1,0,6.0755415,0,1 @ F,0,0,1,0,6.1445293,0,1 @ F,0,0,1,0,0,0,1"
       unit="px"
       method="auto"
       mode="F"
       radius="0"
       chamfer_steps="1"
       flexible="false"
       use_knot_distance="true"
       apply_no_radius="true"
       apply_with_radius="true"
       only_selected="true"
       hide_knots="false" />
    <style
       id="style1979">.cls-1{fill:url(#GreenGradient);}.cls-2{fill:#fff;}</style>
    <linearGradient
       id="GreenGradient"
       x1="-522.53"
       y1="465.47"
       x2="-416.47"
       y2="571.53"
       gradientTransform="rotate(-90,-456.5,24.5)"
       gradientUnits="userSpaceOnUse">
      <stop
         offset="0"
         stop-color="#1b660f"
         id="stop1981" />
      <stop
         offset="1"
         stop-color="#6cae3e"
         id="stop1983" />
    </linearGradient>
    <clipPath
       id="clip1">
      <path
         d="m 93,27 h 58 V 88.851563 H 93 Z m 0,0"
         id="path2" />
    </clipPath>
    <clipPath
       id="clip2">
      <path
         d="m 161,10 h 41 v 78.851563 h -41 z m 0,0"
         id="path5" />
    </clipPath>
    <clipPath
       id="clip3">
      <path
         d="m 206,0 h 65 v 88.851563 h -65 z m 0,0"
         id="path8" />
    </clipPath>
    <clipPath
       id="clip4">
      <path
         d="m 322,26 h 57 v 62.851563 h -57 z m 0,0"
         id="path11" />
    </clipPath>
    <clipPath
       id="clip5">
      <path
         d="m 415,26 h 58.05859 V 87 H 415 Z m 0,0"
         id="path14" />
    </clipPath>
    <clipPath
       id="clip6">
      <path
         d="M 0,3 H 87 V 88.851563 H 0 Z m 0,0"
         id="path17" />
    </clipPath>
    <clipPath
       id="b">
      <use
         xlink:href="#a"
         overflow="visible"
         id="use5"
         x="0"
         y="0"
         width="100%"
         height="100%" />
    </clipPath>
    <clipPath
       id="d">
      <use
         xlink:href="#c"
         overflow="visible"
         id="use21"
         x="0"
         y="0"
         width="100%"
         height="100%" />
    </clipPath>
    <linearGradient
       id="e"
       gradientUnits="userSpaceOnUse"
       x1="-17845.727"
       y1="-3022.7009"
       x2="-17300.025"
       y2="-3131.4309"
       gradientTransform="matrix(0.1741,0,0,-0.1741,5044.277,-686.514)">
      <stop
         offset="0"
         stop-color="#2b7a77"
         id="stop30" />
      <stop
         offset=".51"
         stop-color="#4ebaa9"
         id="stop32" />
      <stop
         offset="1"
         stop-color="#5cc2b1"
         id="stop34" />
    </linearGradient>
    <linearGradient
       id="f"
       gradientUnits="userSpaceOnUse"
       x1="-16495.199"
       y1="-6380.3711"
       x2="-16765.998"
       y2="-5744.4058"
       gradientTransform="matrix(0.1741,0,0,-0.1741,5044.277,-686.514)">
      <stop
         offset="0"
         stop-color="#236736"
         id="stop39" />
      <stop
         offset=".493"
         stop-color="#6ba443"
         id="stop41" />
      <stop
         offset="1"
         stop-color="#86c146"
         id="stop43" />
    </linearGradient>
    <linearGradient
       id="g"
       gradientUnits="userSpaceOnUse"
       x1="-16221.797"
       y1="-6660.6538"
       x2="-15823.801"
       y2="-5712.8491"
       gradientTransform="matrix(0.1741,0,0,-0.1741,5044.277,-686.514)">
      <stop
         offset="0"
         stop-color="#29a5e3"
         id="stop48" />
      <stop
         offset=".515"
         stop-color="#356eb9"
         id="stop50" />
      <stop
         offset="1"
         stop-color="#394da5"
         id="stop52" />
    </linearGradient>
    <path
       id="path104"
       d="M 196.35,-37.141 H 1196.36 V 128.657 H 196.35 Z" />
    <path
       id="path114"
       d="M 196.35,-37.141 H 1196.36 V 128.657 H 196.35 Z" />
    <clipPath
       id="b-0">
      <use
         xlink:href="#a"
         overflow="visible"
         id="use5-4"
         x="0"
         y="0"
         width="100%"
         height="100%" />
    </clipPath>
    <clipPath
       id="d-7">
      <use
         xlink:href="#c"
         overflow="visible"
         id="use21-2"
         x="0"
         y="0"
         width="100%"
         height="100%" />
    </clipPath>
    <linearGradient
       id="e-6"
       gradientUnits="userSpaceOnUse"
       x1="-17845.727"
       y1="-3022.7009"
       x2="-17300.025"
       y2="-3131.4309"
       gradientTransform="matrix(0.00755454,0,0,0.00755454,162.32374,160.96514)">
      <stop
         offset="0"
         stop-color="#2b7a77"
         id="stop30-6" />
      <stop
         offset=".51"
         stop-color="#4ebaa9"
         id="stop32-2" />
      <stop
         offset="1"
         stop-color="#5cc2b1"
         id="stop34-6" />
    </linearGradient>
    <linearGradient
       id="f-1"
       gradientUnits="userSpaceOnUse"
       x1="-16495.199"
       y1="-6380.3711"
       x2="-16765.998"
       y2="-5744.4058"
       gradientTransform="matrix(0.00755454,0,0,0.00755454,162.32374,160.96514)">
      <stop
         offset="0"
         stop-color="#236736"
         id="stop39-6" />
      <stop
         offset=".493"
         stop-color="#6ba443"
         id="stop41-2" />
      <stop
         offset="1"
         stop-color="#86c146"
         id="stop43-2" />
    </linearGradient>
    <linearGradient
       id="g-0"
       gradientUnits="userSpaceOnUse"
       x1="-16221.797"
       y1="-6660.6538"
       x2="-15823.801"
       y2="-5712.8491"
       gradientTransform="matrix(0.00755454,0,0,0.00755454,162.32374,160.96514)">
      <stop
         offset="0"
         stop-color="#29a5e3"
         id="stop48-6" />
      <stop
         offset=".515"
         stop-color="#356eb9"
         id="stop50-7" />
      <stop
         offset="1"
         stop-color="#394da5"
         id="stop52-5" />
    </linearGradient>
    <path
       id="path104-1"
       d="M 196.35,-37.141 H 1196.36 V 128.657 H 196.35 Z" />
    <path
       id="path114-3"
       d="M 196.35,-37.141 H 1196.36 V 128.657 H 196.35 Z" />
    <clipPath
       id="b-2">
      <use
         xlink:href="#a"
         overflow="visible"
         id="use5-3"
         x="0"
         y="0"
         width="100%"
         height="100%" />
    </clipPath>
    <clipPath
       id="d-1">
      <use
         xlink:href="#c"
         overflow="visible"
         id="use21-6"
         x="0"
         y="0"
         width="100%"
         height="100%" />
    </clipPath>
    <linearGradient
       id="e-3"
       gradientUnits="userSpaceOnUse"
       x1="-17845.727"
       y1="-3022.7009"
       x2="-17300.025"
       y2="-3131.4309"
       gradientTransform="matrix(0.00755454,0,0,0.00755454,161.91371,158.37582)">
      <stop
         offset="0"
         stop-color="#2b7a77"
         id="stop30-5" />
      <stop
         offset=".51"
         stop-color="#4ebaa9"
         id="stop32-3" />
      <stop
         offset="1"
         stop-color="#5cc2b1"
         id="stop34-5" />
    </linearGradient>
    <linearGradient
       id="f-5"
       gradientUnits="userSpaceOnUse"
       x1="-16495.199"
       y1="-6380.3711"
       x2="-16765.998"
       y2="-5744.4058"
       gradientTransform="matrix(0.00755454,0,0,0.00755454,161.91371,158.37582)">
      <stop
         offset="0"
         stop-color="#236736"
         id="stop39-5" />
      <stop
         offset=".493"
         stop-color="#6ba443"
         id="stop41-8" />
      <stop
         offset="1"
         stop-color="#86c146"
         id="stop43-0" />
    </linearGradient>
    <linearGradient
       id="g-4"
       gradientUnits="userSpaceOnUse"
       x1="-16221.797"
       y1="-6660.6538"
       x2="-15823.801"
       y2="-5712.8491"
       gradientTransform="matrix(0.00755454,0,0,0.00755454,161.91371,158.37582)">
      <stop
         offset="0"
         stop-color="#29a5e3"
         id="stop48-0" />
      <stop
         offset=".515"
         stop-color="#356eb9"
         id="stop50-4" />
      <stop
         offset="1"
         stop-color="#394da5"
         id="stop52-2" />
    </linearGradient>
    <path
       id="path104-13"
       d="M 196.35,-37.141 H 1196.36 V 128.657 H 196.35 Z" />
    <path
       id="path114-2"
       d="M 196.35,-37.141 H 1196.36 V 128.657 H 196.35 Z" />
    <clipPath
       id="b-9">
      <use
         xlink:href="#a"
         overflow="visible"
         id="use5-8"
         x="0"
         y="0"
         width="100%"
         height="100%" />
    </clipPath>
    <clipPath
       id="d-2">
      <use
         xlink:href="#c"
         overflow="visible"
         id="use21-0"
         x="0"
         y="0"
         width="100%"
         height="100%" />
    </clipPath>
    <path
       id="a"
       d="M 196.35,-37.141 H 1196.36 V 128.657 H 196.35 Z" />
    <path
       id="c"
       d="M 196.35,-37.141 H 1196.36 V 128.657 H 196.35 Z" />
    <radialGradient
       cx="202.91011"
       cy="65.021362"
       fx="202.91011"
       fy="65.021362"
       r="48.504616"
       id="a-5"
       gradientTransform="scale(1.0005153,0.99948493)"
       gradientUnits="userSpaceOnUse">
      <stop
         stop-color="#FFF"
         offset="0%"
         id="stop2" />
      <stop
         stop-color="#FCE800"
         offset="19.02%"
         id="stop4" />
      <stop
         stop-color="#EC8F27"
         offset="85.93%"
         id="stop6" />
    </radialGradient>
    <linearGradient
       x1="134.77487"
       y1="49.381653"
       x2="134.77487"
       y2="0.55994713"
       id="b-0-7"
       gradientTransform="scale(1.0256763,0.97496651)"
       gradientUnits="userSpaceOnUse">
      <stop
         stop-color="#F68B1F"
         offset="0%"
         id="stop9" />
      <stop
         stop-color="#FFF"
         offset="100%"
         id="stop11" />
    </linearGradient>
    <linearGradient
       x1="53.483879"
       y1="44.051418"
       x2="64.062614"
       y2="62.661644"
       id="c-7"
       gradientUnits="userSpaceOnUse">
      <stop
         stop-color="#FFF"
         offset="0%"
         id="stop14" />
      <stop
         stop-color="#FEF6ED"
         offset="4.821%"
         id="stop16" />
      <stop
         stop-color="#FBD0A5"
         offset="25.69%"
         id="stop18" />
      <stop
         stop-color="#F9B26B"
         offset="44.42%"
         id="stop20" />
      <stop
         stop-color="#F79D42"
         offset="60.34%"
         id="stop22" />
      <stop
         stop-color="#F69028"
         offset="72.82%"
         id="stop24" />
      <stop
         stop-color="#F68B1F"
         offset="80.33%"
         id="stop26" />
    </linearGradient>
    <linearGradient
       x1="2.05039"
       y1="68.696198"
       x2="42.65826"
       y2="192.964"
       id="d-8"
       gradientTransform="scale(1.409801,0.70931995)"
       gradientUnits="userSpaceOnUse">
      <stop
         stop-color="#FFF"
         offset="0%"
         id="stop29" />
      <stop
         stop-color="#FEF6ED"
         offset="4.821%"
         id="stop31" />
      <stop
         stop-color="#FBD0A5"
         offset="25.69%"
         id="stop33" />
      <stop
         stop-color="#F9B26B"
         offset="44.42%"
         id="stop35" />
      <stop
         stop-color="#F79D42"
         offset="60.34%"
         id="stop37" />
      <stop
         stop-color="#F69028"
         offset="72.82%"
         id="stop39-9" />
      <stop
         stop-color="#F68B1F"
         offset="80.33%"
         id="stop41-3" />
    </linearGradient>
    <linearGradient
       x1="180.28741"
       y1="90.57383"
       x2="173.40768"
       y2="123.44773"
       id="e-2"
       gradientTransform="scale(1.2768133,0.78319989)"
       gradientUnits="userSpaceOnUse">
      <stop
         stop-color="#FFF"
         offset="0%"
         id="stop44" />
      <stop
         stop-color="#FEF6ED"
         offset="4.821%"
         id="stop46" />
      <stop
         stop-color="#FBD0A5"
         offset="25.69%"
         id="stop48-4" />
      <stop
         stop-color="#F9B26B"
         offset="44.42%"
         id="stop50-9" />
      <stop
         stop-color="#F79D42"
         offset="60.34%"
         id="stop52-4" />
      <stop
         stop-color="#F69028"
         offset="72.82%"
         id="stop54" />
      <stop
         stop-color="#F68B1F"
         offset="80.33%"
         id="stop56" />
    </linearGradient>
    <linearGradient
       x1="43.736912"
       y1="243.13164"
       x2="43.736912"
       y2="325.8479"
       id="f-6"
       gradientTransform="scale(2.9399166,0.3401457)"
       gradientUnits="userSpaceOnUse">
      <stop
         stop-color="#F68B1F"
         offset="0%"
         id="stop59" />
      <stop
         stop-color="#CB672F"
         offset="53.08%"
         id="stop61" />
      <stop
         stop-color="#A1453F"
         offset="100%"
         id="stop63" />
    </linearGradient>
    <radialGradient
       cx="97.375191"
       cy="132.38023"
       fx="97.375191"
       fy="132.38023"
       r="38.978508"
       id="g-9"
       gradientTransform="scale(1.6664459,0.60007949)"
       gradientUnits="userSpaceOnUse">
      <stop
         stop-color="#FFF"
         offset="0%"
         id="stop66" />
      <stop
         stop-color="#FCE800"
         offset="13.34%"
         id="stop68" />
      <stop
         stop-color="#EC8F27"
         offset="85.93%"
         id="stop70" />
    </radialGradient>
  </defs>
  <sodipodi:namedview
     id="base"
     pagecolor="#101010"
     bordercolor="#666666"
     borderopacity="1.0"
     inkscape:pageopacity="0"
     inkscape:pageshadow="2"
     inkscape:zoom="1.0055549"
     inkscape:cx="86.368322"
     inkscape:cy="120.29206"
     inkscape:document-units="px"
     inkscape:current-layer="layer2"
     inkscape:document-rotation="0"
     showgrid="true"
     inkscape:window-width="1366"
     inkscape:window-height="705"
     inkscape:window-x="-8"
     inkscape:window-y="-8"
     inkscape:window-maximized="1"
     inkscape:snap-global="false"
     showguides="true">
    <inkscape:grid
       type="xygrid"
       id="grid1972" />
  </sodipodi:namedview>
  <metadata
     id="metadata1405">
    <rdf:RDF>
      <cc:Work
         rdf:about="">
        <dc:format>image/svg+xml</dc:format>
        <dc:type
           rdf:resource="http://purl.org/dc/dcmitype/StillImage" />
        <dc:title />
      </cc:Work>
    </rdf:RDF>
  </metadata>
  <g
     inkscape:groupmode="layer"
     id="layer3"
     inkscape:label="BG" />
  <g
     inkscape:groupmode="layer"
     id="layer4"
     inkscape:label="Bounding Box" />
  <g
     inkscape:groupmode="layer"
     id="layer2"
     inkscape:label="Top">
    <g
       id="g847"
       transform="translate(-0.19315289,-0.04989999)"
       style="fill:#5e5c64">
      <path
         style="fill:#5e5c64;fill-opacity:0.326613;stroke:none;stroke-width:3;stroke-linecap:round;stroke-linejoin:round;stroke-miterlimit:4;stroke-dasharray:none;stroke-opacity:1;paint-order:normal"
         id="path885"
         sodipodi:type="arc"
         sodipodi:cx="154.57903"
         sodipodi:cy="83.172447"
         sodipodi:rx="111.24603"
         sodipodi:ry="111.24603"
         sodipodi:start="5.9893981"
         sodipodi:end="5.9807042"
         sodipodi:open="true"
         sodipodi:arc-type="arc"
         transform="rotate(16.68412)"
         d="M 261.05862,50.957906 A 111.24603,111.24603 0 0 1 187.02492,189.58177 111.24603,111.24603 0 0 1 48.240476,115.84954 111.24603,111.24603 0 0 1 121.67088,-23.094829 111.24603,111.24603 0 0 1 260.77453,50.033412" />
      <path
         style="fill:#5e5c64;fill-opacity:1;stroke:#ffffff;stroke-width:4.5;stroke-linecap:round;stroke-linejoin:round;stroke-miterlimit:4;stroke-dasharray:none;stroke-opacity:1;paint-order:normal"
         id="path883-9"
         sodipodi:type="arc"
         sodipodi:cx="154.57903"
         sodipodi:cy="83.172447"
         sodipodi:rx="111.24604"
         sodipodi:ry="111.24604"
         sodipodi:start="5.9893981"
         sodipodi:end="5.9807042"
         sodipodi:open="true"
         sodipodi:arc-type="arc"
         transform="rotate(16.68412)"
         d="M 261.05862,50.957904 A 111.24604,111.24604 0 0 1 187.02492,189.58178 111.24604,111.24604 0 0 1 48.240468,115.84955 111.24604,111.24604 0 0 1 121.67088,-23.094836 111.24604,111.24604 0 0 1 260.77453,50.03341" />
    </g>
    <g
       id="g129"
       transform="matrix(0.29093932,0,0,0.29093932,30.433915,30.390274)">
      <path
         class="st0"
         d="m 167.8,264.7 c -15.1,0 -20.4,10.5 -20.4,20.3 v 6 h -3.2 c -2.3,0 -4.1,1.8 -4.1,4.1 0,2.3 1.8,4.1 4.1,4.1 h 3.2 v 41.4 c 0,2.4 1.9,4.4 4.4,4.4 2.4,0 4.4,-1.9 4.4,-4.4 v -41.4 h 9.7 c 2.3,0 4.1,-1.8 4.1,-4.1 0,-2.3 -1.8,-4.1 -4.1,-4.1 h -9.7 v -6 c 0,-5.5 2,-12 11.7,-12 2.3,0 4.1,-1.8 4.1,-4.1 -0.1,-2.4 -1.9,-4.2 -4.2,-4.2"
         id="path4" />
      <path
         class="st0"
         d="m 201.8,289.6 c -6.5,0 -12,2.7 -15.1,7.1 v -2.3 c 0,-2.4 -1.9,-4.4 -4.4,-4.4 -2.4,0 -4.4,1.9 -4.4,4.4 v 46.2 c 0,2.4 1.9,4.4 4.4,4.4 2.4,0 4.4,-1.9 4.4,-4.4 v -25.5 c 0,-10.7 5.7,-17.1 15.1,-17.1 2.3,0 4.2,-1.9 4.2,-4.2 0.1,-2.3 -1.8,-4.2 -4.2,-4.2"
         id="path6" />
      <path
         class="st0"
         d="m 255.3,312.3 c 0,-2.5 -0.4,-9 -4.2,-14.4 -3.9,-5.6 -10,-8.5 -18.3,-8.5 -15.4,0 -24.2,10.2 -24.2,28 0,18.4 8.8,28.2 25.3,28.2 11.1,0 17.2,-5.5 18.3,-6.6 0.7,-0.7 1.5,-1.6 1.5,-3.1 0,-2.2 -1.8,-4 -4,-4 -1.1,0 -1.8,0.3 -2.5,0.8 -3.2,2.4 -6.9,4.8 -13.2,4.8 -9.9,0 -16.2,-6.5 -16.5,-17.1 H 250 c 5.3,-0.1 5.3,-4.9 5.3,-8.1 m -22.5,-14.9 c 9,0 13.7,5.1 13.9,15.1 h -29.1 c 0.8,-9.7 6.2,-15.1 15.2,-15.1"
         id="path8-4" />
      <path
         class="st0"
         d="m 284.7,313 c -6.5,-2.2 -12.1,-4.2 -12.1,-9 0,-5.3 5.9,-6.1 9.4,-6.1 6.3,0 9.4,2.2 11.9,4.6 0.8,0.8 1.8,1.2 2.9,1.2 2.2,0 4,-1.8 4,-4 0,-1.2 -0.5,-2 -0.9,-2.6 -3.7,-4.9 -10,-7.6 -17.9,-7.6 -11.2,0 -18.1,5.6 -18.1,14.5 0,10.9 9.6,14.2 18,17 6.4,2.2 11.9,4 11.9,8.7 0,6.4 -7.1,7.4 -11.4,7.4 -5.8,0 -10.3,-1.8 -14,-5.4 -1.1,-1.1 -2.3,-1.3 -3,-1.3 -2.2,0 -4,1.8 -4,4 0,0.9 0.3,1.6 1,2.6 3.3,4.2 10.8,8.5 20,8.5 12.6,0 20.1,-5.9 20.1,-15.7 0,-10.6 -9.4,-13.9 -17.8,-16.8"
         id="path10" />
      <path
         class="st0"
         d="m 336.6,289.4 c -6,0 -11.4,2.4 -14.4,6.2 V 266 c 0,-2.4 -1.9,-4.4 -4.4,-4.4 -2.4,0 -4.4,1.9 -4.4,4.4 v 74.7 c 0,2.4 1.9,4.4 4.4,4.4 2.4,0 4.4,-1.9 4.4,-4.4 v -28.1 c 0,-10.1 4.9,-15.2 14.4,-15.2 9.2,0 13,4.2 13,14.4 v 28.9 c 0,2.4 1.9,4.4 4.4,4.4 2.4,0 4.4,-1.9 4.4,-4.4 v -30.4 c -0.2,-13.9 -7.5,-20.9 -21.8,-20.9"
         id="path12" />
      <path
         class="st0"
         d="m 431.1,290.1 c -1.9,0 -3.4,1.1 -4.1,2.9 L 414.5,328.6 404.3,293 c -0.4,-1.4 -1.9,-2.9 -4.1,-2.9 -2.2,0 -3.7,1.5 -4.1,2.9 l -10.2,35.5 -12.5,-35.6 c -0.7,-1.8 -2.2,-2.8 -4.1,-2.8 -2.4,0 -4.4,1.9 -4.4,4.4 0,0.6 0.1,1.2 0.4,1.8 l 16.7,45.9 c 0.7,1.8 2.2,2.8 4.1,2.8 2,0 3.7,-1.3 4.2,-3.1 l 9.8,-33.7 9.8,33.7 c 0.5,1.8 2.3,3.1 4.2,3.1 1.9,0 3.4,-1.1 4.1,-2.9 l 16.7,-45.9 c 0.3,-0.6 0.4,-1.3 0.4,-1.9 0.1,-2.3 -1.8,-4.2 -4.2,-4.2"
         id="path14-6" />
      <path
         class="st0"
         d="m 462.9,289.4 c -15.9,0 -24.6,10 -24.6,28 0,18.2 8.7,28.2 24.6,28.2 15.9,0 24.6,-10 24.6,-28.2 0,-18.1 -8.8,-28 -24.6,-28 m 0,48.2 c -10.6,0 -15.8,-6.6 -15.8,-20.1 0,-13.3 5.3,-20 15.8,-20 10.5,0 15.8,6.7 15.8,20 0,13.5 -5.2,20.1 -15.8,20.1"
         id="path16" />
      <path
         class="st0"
         d="m 521.3,289.6 c -6.5,0 -12,2.7 -15.1,7.1 v -2.3 c 0,-2.4 -1.9,-4.4 -4.4,-4.4 -2.4,0 -4.4,1.9 -4.4,4.4 v 46.2 c 0,2.4 1.9,4.4 4.4,4.4 2.4,0 4.4,-1.9 4.4,-4.4 v -25.5 c 0,-10.7 5.7,-17.1 15.1,-17.1 2.3,0 4.2,-1.9 4.2,-4.2 0,-2.3 -1.9,-4.2 -4.2,-4.2"
         id="path18" />
      <path
         class="st0"
         d="m 554.5,312.4 18.1,-14.5 c 1.5,-1.2 1.7,-2.7 1.7,-3.5 0,-2.4 -1.9,-4.4 -4.4,-4.4 -0.7,0 -1.9,0.1 -3,1.1 l -25.7,21 V 266 c 0,-2.4 -1.9,-4.4 -4.4,-4.4 -2.4,0 -4.4,1.9 -4.4,4.4 v 74.7 c 0,2.4 1.9,4.4 4.4,4.4 2.4,0 4.4,-1.9 4.4,-4.4 v -18 l 6.1,-4.9 19.7,25.3 v 0 c 1.1,1.3 2.3,2 3.7,2 2.4,0 4.4,-1.9 4.4,-4.4 0,-0.7 -0.1,-1.7 -0.9,-2.7 z"
         id="path20" />
      <path
         class="st0"
         d="m 603.8,313 c -6.5,-2.2 -12.1,-4.2 -12.1,-9 0,-5.3 5.9,-6.1 9.4,-6.1 6.3,0 9.4,2.2 11.9,4.6 0.8,0.8 1.8,1.2 2.9,1.2 2.2,0 4,-1.8 4,-4 0,-1.3 -0.7,-2.2 -0.9,-2.6 -3.7,-4.9 -10,-7.6 -17.9,-7.6 -11.2,0 -18.1,5.6 -18.1,14.5 0,10.9 9.6,14.2 18,17 6.4,2.2 11.9,4 11.9,8.7 0,6.4 -7.1,7.4 -11.4,7.4 -5.8,0 -10.3,-1.8 -14,-5.4 -1.1,-1.1 -2.2,-1.3 -3,-1.3 -2.2,0 -4,1.8 -4,4 0,0.9 0.3,1.6 1,2.6 3.3,4.2 10.8,8.5 20,8.5 12.6,0 20.1,-5.9 20.1,-15.7 0,-10.6 -9.4,-13.9 -17.8,-16.8"
         id="path22" />
      <path
         class="st1"
         d="m 22.2,338.2 c 1.7,11.1 6.9,21.1 14.4,28.6 l 17.5,-17.5 c 0,-17.7 9.2,-34.9 25.6,-44.4 z"
         id="path24" />
      <path
         class="st1"
         d="m 54.1,349.3 c -8.7,0 -17.5,-2.2 -25.6,-6.9 -2.2,-1.3 -4.3,-2.7 -6.3,-4.3 1.7,11.1 6.9,21.1 14.4,28.6 z"
         id="path26"
         style="fill:#9b65c3;fill-opacity:1" />
      <path
         class="st2"
         d="m 54.1,349.3 v 0 l -17.5,17.5 c 7.6,7.6 17.5,12.8 28.6,14.4 L 98.4,323.7 C 89,340.1 71.8,349.3 54.1,349.3"
         id="path28" />
      <path
         class="st3"
         d="m 61,375 c -4.7,-8.1 -6.9,-16.9 -6.9,-25.6 l -17.5,17.5 c 7.6,7.6 17.5,12.8 28.6,14.4 -1.5,-2 -2.9,-4.1 -4.2,-6.3"
         id="path30"
         style="fill:#bf63c6;fill-opacity:1" />
      <path
         class="st4"
         d="M 119.3,282.1 79.8,305 c -16.4,9.5 -35.9,8.8 -51.2,0 -4.4,7.5 -6.9,16.3 -6.9,25.6 0,2.6 0.2,5.1 0.6,7.6 2,1.6 4.1,3 6.3,4.3 8.1,4.7 16.9,6.9 25.6,6.9 l 66.2,-66.2 c -0.4,-0.4 -0.7,-0.8 -1.1,-1.1"
         id="path32" />
      <path
         class="st5"
         d="m 28.5,342.5 c 8.1,4.7 16.9,6.9 25.6,6.9 0,-17.7 9.2,-34.9 25.6,-44.4 l -57.6,33.2 c 2.1,1.5 4.2,3 6.4,4.3"
         id="path34"
         style="fill:#3278b2;fill-opacity:1" />
      <path
         class="st6"
         d="m 28.5,305 c -4.4,7.5 -6.9,16.3 -6.9,25.6 0,2.6 0.2,5.1 0.6,7.6 L 79.8,305 c -16.5,9.4 -36,8.8 -51.3,0"
         id="path36"
         style="fill:#45a4ec;fill-opacity:1" />
      <path
         class="st7"
         d="m 120.4,283.1 c -0.3,-0.3 -0.7,-0.7 -1.1,-1 -0.5,-0.4 -1,-0.8 -1.6,-1.1 -1.9,-1.1 -4.1,-1.7 -6.4,-1.7 H 72.9 c -19,0 -35.5,10.3 -44.4,25.6 15.3,8.8 34.8,9.5 51.2,0 -16.4,9.5 -25.6,26.7 -25.6,44.4 17.7,0 34.9,-9.2 44.4,-25.6 l 22.8,-39.5 c -0.3,-0.4 -0.6,-0.8 -0.9,-1.1"
         id="path38" />
      <path
         class="st8"
         d="m 79.8,305 39.5,-22.8 c -0.5,-0.4 -1,-0.8 -1.6,-1.1 L 28.5,305 c 15.3,8.8 34.8,9.4 51.3,0"
         id="path40"
         style="fill:#08c7fb;fill-opacity:1" />
      <path
         class="st9"
         d="M 111.3,279.3 H 72.9 c -19,0 -35.5,10.3 -44.4,25.6 L 117.7,281 c -1.9,-1 -4,-1.7 -6.4,-1.7"
         id="path42"
         style="fill:#59f2f6;fill-opacity:1" />
      <path
         class="st10"
         d="M 54.1,349.3"
         id="path44" />
      <path
         class="st11"
         d="m 98.5,323.7 22.8,-39.5 c -0.3,-0.4 -0.6,-0.7 -1,-1.1 l -66.2,66.2 c 0,8.7 2.2,17.5 6.9,25.6 1.3,2.2 2.7,4.3 4.3,6.3 2.5,0.4 5,0.6 7.6,0.6 9.3,0 18.1,-2.5 25.6,-6.9 -8.8,-15.3 -9.5,-34.8 0,-51.2"
         id="path46" />
      <path
         class="st12"
         d="m 54.1,349.3 v 0 c 0,8.7 2.2,17.5 6.9,25.6 1.3,2.2 2.7,4.3 4.3,6.3 L 98.5,323.7 C 89,340.1 71.8,349.3 54.1,349.3"
         id="path48"
         style="fill:#d33c4e;fill-opacity:1" />
      <path
         class="st13"
         d="m 98.5,323.7 -33.2,57.6 c 2.5,0.4 5,0.6 7.6,0.6 9.3,0 18.1,-2.5 25.6,-6.9 -8.8,-15.4 -9.5,-34.9 0,-51.3"
         id="path50"
         style="fill:#ee5a24;fill-opacity:1" />
      <path
         class="st14"
         d="m 122.4,285.8 c -0.3,-0.6 -0.7,-1.1 -1.1,-1.6 -0.3,-0.4 -0.6,-0.7 -1,-1.1 -0.3,-0.3 -0.7,-0.7 -1.1,-1 L 79.8,305 c -16.4,9.5 -25.6,26.7 -25.6,44.4 17.7,0 34.9,-9.2 44.4,-25.6 -9.5,16.4 -8.8,35.9 0,51.2 15.3,-8.9 25.6,-25.4 25.6,-44.4 v -38.4 c -0.1,-2.4 -0.7,-4.6 -1.8,-6.4"
         id="path52" />
      <path
         class="st15"
         d="M 119.3,282.1 79.8,305 c -16.4,9.5 -25.6,26.7 -25.6,44.4 l 66.2,-66.2 c -0.4,-0.4 -0.7,-0.8 -1.1,-1.1"
         id="path54"
         style="fill:#25c16f;fill-opacity:1" />
      <path
         class="st14"
         d="m 54.1,349.3 c 17.7,0 34.9,-9.2 44.4,-25.6 l 22.8,-39.5 c -0.3,-0.4 -0.6,-0.7 -1,-1.1 z"
         id="path56"
         style="fill:#8bdf55;fill-opacity:1" />
      <path
         class="st16"
         d="m 121.3,284.2 -22.8,39.5 c -9.5,16.4 -8.8,35.9 0,51.2 l 23.9,-89.2 c -0.3,-0.5 -0.7,-1 -1.1,-1.5"
         id="path58"
         style="fill:#ffbb00;fill-opacity:1" />
      <path
         class="st17"
         d="m 98.5,375 c 15.3,-8.9 25.6,-25.4 25.6,-44.4 v -38.4 c 0,-2.3 -0.6,-4.5 -1.7,-6.4 z"
         id="path60"
         style="fill:#ffa800;fill-opacity:1" />
    </g>
  </g>
</svg>
