<?xml version="1.0" encoding="UTF-8" standalone="no"?>
<svg
   xmlns:dc="http://purl.org/dc/elements/1.1/"
   xmlns:cc="http://creativecommons.org/ns#"
   xmlns:rdf="http://www.w3.org/1999/02/22-rdf-syntax-ns#"
   xmlns:svg="http://www.w3.org/2000/svg"
   xmlns="http://www.w3.org/2000/svg"
   xmlns:sodipodi="http://sodipodi.sourceforge.net/DTD/sodipodi-0.dtd"
   xmlns:inkscape="http://www.inkscape.org/namespaces/inkscape"
   width="248.0px"
   height="248.0px"
   viewBox="0 0 248.0 248.0"
   version="1.1"
   id="SVGRoot"
   sodipodi:docname="hide.me-square White.svg"
   inkscape:version="1.0.2-2 (e86c870879, 2021-01-15)">
  <defs
     id="defs1402">
    <inkscape:path-effect
       effect="fillet_chamfer"
       id="path-effect2040"
       is_visible="true"
       lpeversion="1"
       satellites_param="F,0,0,1,0,0,0,1 @ F,0,0,1,0,6.0755415,0,1 @ F,0,0,1,0,6.1445293,0,1 @ F,0,0,1,0,0,0,1"
       unit="px"
       method="auto"
       mode="F"
       radius="0"
       chamfer_steps="1"
       flexible="false"
       use_knot_distance="true"
       apply_no_radius="true"
       apply_with_radius="true"
       only_selected="true"
       hide_knots="false" />
    <style
       id="style1979">.cls-1{fill:url(#GreenGradient);}.cls-2{fill:#fff;}</style>
    <linearGradient
       id="GreenGradient"
       x1="-522.53"
       y1="465.47"
       x2="-416.47"
       y2="571.53"
       gradientTransform="rotate(-90,-456.5,24.5)"
       gradientUnits="userSpaceOnUse">
      <stop
         offset="0"
         stop-color="#1b660f"
         id="stop1981" />
      <stop
         offset="1"
         stop-color="#6cae3e"
         id="stop1983" />
    </linearGradient>
    <linearGradient
       id="OrangeGradient"
       x1="1131.1"
       y1="-516.47998"
       x2="1131.1"
       y2="-366.48001"
       gradientTransform="rotate(-135,816.69218,-8.7994369)"
       gradientUnits="userSpaceOnUse">
      <stop
         offset="0"
         stop-color="#c8511b"
         id="stop138" />
      <stop
         offset="1"
         stop-color="#f90"
         id="stop140" />
    </linearGradient>
  </defs>
  <sodipodi:namedview
     id="base"
     pagecolor="#ffffff"
     bordercolor="#666666"
     borderopacity="1.0"
     inkscape:pageopacity="0"
     inkscape:pageshadow="2"
     inkscape:zoom="0.91033698"
     inkscape:cx="131.70959"
     inkscape:cy="131.70959"
     inkscape:document-units="px"
     inkscape:current-layer="layer2"
     inkscape:document-rotation="0"
     showgrid="true"
     inkscape:window-width="1366"
     inkscape:window-height="705"
     inkscape:window-x="-8"
     inkscape:window-y="-8"
     inkscape:window-maximized="1"
     inkscape:snap-global="false"
     showguides="true">
    <inkscape:grid
       type="xygrid"
       id="grid1972" />
  </sodipodi:namedview>
  <metadata
     id="metadata1405">
    <rdf:RDF>
      <cc:Work
         rdf:about="">
        <dc:format>image/svg+xml</dc:format>
        <dc:type
           rdf:resource="http://purl.org/dc/dcmitype/StillImage" />
        <dc:title />
      </cc:Work>
    </rdf:RDF>
  </metadata>
  <g
     inkscape:groupmode="layer"
     id="layer3"
     inkscape:label="BG" />
  <g
     inkscape:groupmode="layer"
     id="layer4"
     inkscape:label="Bounding Box" />
  <g
     inkscape:groupmode="layer"
     id="layer2"
     inkscape:label="Top">
    <g
       id="g858"
       transform="translate(-0.19315289,-0.04989999)">
      <path
         style="fill:none;fill-opacity:1;stroke:#000000;stroke-width:4.5;stroke-linecap:round;stroke-linejoin:round;stroke-miterlimit:4;stroke-dasharray:none;stroke-opacity:1;paint-order:normal"
         id="path883"
         sodipodi:type="arc"
         sodipodi:cx="154.57903"
         sodipodi:cy="83.172447"
         sodipodi:rx="111.24604"
         sodipodi:ry="111.24604"
         sodipodi:start="5.9893981"
         sodipodi:end="5.9807042"
         sodipodi:open="true"
         sodipodi:arc-type="arc"
         transform="rotate(16.68412)"
         d="M 261.05862,50.957904 A 111.24604,111.24604 0 0 1 187.02492,189.58178 111.24604,111.24604 0 0 1 48.240468,115.84955 111.24604,111.24604 0 0 1 121.67088,-23.094836 111.24604,111.24604 0 0 1 260.77453,50.03341" />
      <path
         style="fill:#3d3846;fill-opacity:0.326613;stroke:none;stroke-width:4.45107;stroke-linecap:round;stroke-linejoin:round;stroke-miterlimit:4;stroke-dasharray:none;stroke-opacity:1;paint-order:normal"
         id="path885"
         sodipodi:type="arc"
         sodipodi:cx="154.57903"
         sodipodi:cy="83.172447"
         sodipodi:rx="110.03654"
         sodipodi:ry="110.03654"
         sodipodi:start="5.9893981"
         sodipodi:end="5.9807042"
         sodipodi:open="true"
         sodipodi:arc-type="arc"
         transform="rotate(16.68412)"
         d="M 259.90094,51.308151 A 110.03654,110.03654 0 0 1 186.67216,188.42486 110.03654,110.03654 0 0 1 49.396616,115.49427 110.03654,110.03654 0 0 1 122.02867,-21.939463 110.03654,110.03654 0 0 1 259.61994,50.393709" />
    </g>
    <g
       id="g32"
       transform="matrix(1.6000972,0,0,1.6000972,43.938667,43.99417)">
      <g
         id="Layer_2"
         data-name="Layer 2">
        <g
           id="dl_4_gfx"
           data-name="dl 4 gfx">
          <path
             class="cls-1"
             d="M 53,63.05 43.54,53 42.54,53.49 42.28,53 43.16,52.59 21,29 c -2.63,-2.8 -1.73,-5.78 2,-6.65 L 68.49,11.73 c 3.73,-0.88 5.85,1.4 4.75,5 L 59.76,61.47 C 58.64,65.14 55.62,65.85 53,63.05 Z M 42,56.3 A 0.89827613,0.89827613 0 1 1 43.24,55 l 0.06,0.06 A 0.89827613,0.89827613 0 0 1 42,56.3 Z M 43,56 a 0.48,0.48 0 0 0 0,-0.68 v 0 a 0.49,0.49 0 0 0 -0.69,0 v 0 a 0.47,0.47 0 0 0 0,0.66 v 0 A 0.48,0.48 0 0 0 43,56 Z M 20.89,22.55 20.71,21.15 h 0.32 l 0.18,1.4 z m 4.82,-2.06 a 0.43,0.43 0 1 1 0.62,0 0.44,0.44 0 0 1 -0.61,0 z M 26.2,20 h -0.36 a 0.24,0.24 0 0 0 0,0.34 h 0.35 a 0.25,0.25 0 0 0 0,-0.35 v 0 z"
             id="path8"
             inkscape:connector-curvature="0"
             style="fill:#08ccf7" />
          <path
             class="cls-2"
             d="m 61,58.87 a 1.69,1.69 0 0 1 -0.27,-0.94 l 0.55,0.28 0.25,-0.5 -0.82,-0.41 v -0.43 a 1.18,1.18 0 0 1 -0.84,-0.36 1.19,1.19 0 0 1 0,-1.68 v 0 a 1.15,1.15 0 0 1 0.32,-0.23 c -0.15,-0.3 -0.31,-0.59 -0.47,-0.88 l 0.38,0.3 0.35,-0.44 -1.4,-1.13 c -0.11,-0.2 -0.2,-0.41 -0.29,-0.62 a 0.74,0.74 0 0 1 -0.92,-0.1 0.7,0.7 0 0 1 0.5,-1.25 3.33,3.33 0 0 0 -0.08,-0.45 5,5 0 0 1 0,-1.08 l -0.7,0.25 -0.11,-0.33 0.37,0.21 0.46,-0.81 v 0 -0.07 L 59,47 58.52,46.72 58.24,47.22 A 3.63,3.63 0 0 0 57.87,46.63 1.2,1.2 0 0 0 56.6,44.91 l -0.25,-0.36 h 0.13 V 42.11 H 55.89 V 43 a 2,2 0 0 0 -0.22,-0.61 c -0.5,0.5 -0.25,2.5 -1.69,3.67 -0.34,0.28 -0.32,1.25 -0.48,1.62 -0.16,0.37 -1.3,1.32 -1.61,1.83 A 8.56,8.56 0 0 1 50,52 c -0.74,0.55 -1.8,1.94 -2.7,2.8 a 1.2,1.2 0 1 0 0.08,2.31 q 0.4,0.75 0.87,1.46 c 0,0 0.83,0.13 1,0.18 v 0.36 c -0.6,0.08 -1.44,0.31 -2,-0.06 L 47.16,59 v 0 a 0.63,0.63 0 0 0 -0.89,-0.88 v 0 a 9.73,9.73 0 0 1 -1.12,-1.48 h -0.06 l -0.46,-0.74 1.05,-0.46 -0.16,-0.36 -1.11,0.48 -0.89,-1.4 0.57,-0.36 0.59,0.92 a 0.83,0.83 0 0 1 0.12,-0.25 l 0.13,-0.15 a 0.39,0.39 0 0 0 0.11,0.18 0.43488504,0.43488504 0 0 0 0.62,-0.61 v 0 a 1.21,1.21 0 0 1 1.23,-1.79 0.94,0.94 0 0 0 0.28,0.7 1,1 0 1 0 0.64,-1.62 l 0.06,-0.13 -1.4,-0.93 0.32,-0.46 1.29,0.87 c 0,0 0,-0.06 0,-0.08 a 0.58,0.58 0 0 0 0.79,-0.84 v 0 A 0.55,0.55 0 0 0 48.5,49.45 c 0.1,-0.22 0.21,-0.45 0.32,-0.7 l -0.7,0.43 -0.4,-0.62 2,-1.27 0.23,-0.31 a 0.7,0.7 0 0 1 0.2,-0.17 h -0.06 a 1.2,1.2 0 0 1 1.48,-1.88 v -0.39 l 0.22,0.49 0.39,-0.19 -0.79,-1.7 v 0 L 50.65,42 l 0.49,-0.26 0.43,0.8 c 0.13,-0.44 0.27,-0.9 0.41,-1.36 a 0.85,0.85 0 0 1 -0.37,-0.23 0.92,0.92 0 0 1 0.84,-1.53 2.68,2.68 0 0 1 0.05,-0.42 1.59,1.59 0 0 1 -0.15,-0.34 1.16,1.16 0 0 0 0.7,-0.34 1.2,1.2 0 0 0 0,-1.7 v 0 a 1.31,1.31 0 0 0 -0.39,-0.25 l 0.24,-0.52 a 1.25,1.25 0 0 1 -0.31,-0.7 l -0.06,0.23 a 3.11,3.11 0 0 1 -0.47,0.89 1.17,1.17 0 0 0 -0.7,0.34 1.23,1.23 0 0 0 -0.27,1.3 2,2 0 0 0 -0.1,0.48 c -0.09,0.88 0.13,3.23 -0.92,3.25 a 1.17,1.17 0 0 0 -0.36,-0.85 1.16,1.16 0 0 0 -1,-0.35 1.85,1.85 0 0 1 0.28,-0.7 l -0.74,0.29 -0.21,-0.51 1.11,-0.45 a 0.7,0.7 0 1 0 1.12,-0.81 l -0.08,-0.07 a 0.85,0.85 0 0 0 0.08,-0.17 9.47,9.47 0 0 1 -0.12,-1.2 c 0,-0.3 0.07,-0.66 0.11,-1 l -0.43,0.9 -0.5,-0.26 0.67,-1.19 1.36,0.23 0.07,-0.4 -1.23,-0.2 0.29,-0.56 v 0 c 0,-0.25 0,-0.48 0.06,-0.7 a 0.9,0.9 0 0 1 -0.37,-0.22 0.92,0.92 0 0 1 -0.18,-1 1.93,1.93 0 0 1 -1.51,-0.53 2,2 0 0 1 2.26,-3.13 1.22,1.22 0 0 1 0.35,-0.95 1.31,1.31 0 0 1 0.44,-0.28 l 0.08,0.1 a 0.7,0.7 0 1 0 0.09,-1.14 L 51,25.34 l 0.46,-0.32 0.63,0.9 c 0,-0.06 0,-0.11 0.08,-0.16 v 0 a 0.43488504,0.43488504 0 0 0 0.61,-0.62 0.44,0.44 0 0 0 -0.37,-0.13 1.2,1.2 0 0 1 0.07,-1.62 1.21,1.21 0 0 1 1.16,-0.32 3.56,3.56 0 0 0 0.11,-0.34 2.75,2.75 0 0 0 0.13,-1 l -0.9,1 -0.41,-0.37 1.15,-1.25 c 0,-0.13 -0.12,-0.28 -0.18,-0.43 a 0.73,0.73 0 0 0 0.6,-1.2 v 0 a 0.7,0.7 0 0 0 -1,0 v 0 a 0.7,0.7 0 0 0 -0.19,0.32 1.54,1.54 0 1 1 1.19,-2.8 4.71,4.71 0 0 1 0.53,-0.2 6.16,6.16 0 0 1 3.84,1.08 c 0,0.06 -0.29,1.31 -0.31,1.62 0,0.56 0.58,0.26 0.55,1.33 -0.85,0 -0.24,1 -0.6,1.26 -0.36,0.26 -1.47,0.08 -1.93,0.18 -0.15,0 -0.24,0.33 -0.24,0.53 0,1.33 1.65,2.73 2.06,4.72 0.19,1 0.34,1.65 0.6,2.64 a 8.34,8.34 0 0 1 -0.13,3.12 c 1.26,0.63 3.94,1.33 4.27,1.58 1,0.74 0.79,1.8 -0.55,2.18 H 62 l -0.18,-0.11 a 0.84,0.84 0 0 0 -1.29,-1.06 0.7,0.7 0 0 0 -0.16,0.22 2,2 0 0 1 -0.34,-0.33 L 59.9,35.64 58.59,35.72 V 35.4 h 0.62 c -0.33,-0.09 -0.7,-0.18 -1,-0.27 0,0.22 0,0.43 -0.06,0.61 -0.79,1.83 1.53,6.72 2.16,8.54 A 41.74,41.74 0 0 1 62,51.74 c 0.18,2.39 0.06,5.08 2.23,6.08 0.46,0.22 1.63,0.08 2.1,0.55 0.06,0.27 -0.11,0.47 -0.18,0.7 -0.34,0.33 -4.91,0.08 -5.15,-0.2 z M 46.43,58.29 v 0 a 0.34,0.34 0 0 1 0.48,0.48 v 0 L 46.43,58.3 Z m 11.79,-1.55 -1.4,-0.7 0.15,-0.32 1.4,0.7 z M 46.53,56.36 a 0.66,0.66 0 0 1 0,-0.93 v 0 a 0.7,0.7 0 0 1 0.32,-0.18 2.47,2.47 0 0 0 0.28,1.3 0.7,0.7 0 0 1 -0.57,-0.2 z m 14,-0.94 c 0,-0.13 -0.09,-0.25 -0.14,-0.36 a 0.67,0.67 0 1 0 0.32,1.3 2.8,2.8 0 0 0 -0.14,-0.91 z M 45.16,54.35 a 0.23,0.23 0 0 1 -0.07,-0.17 l 0.35,-0.21 h 0.06 a 0.24041631,0.24041631 0 1 1 -0.34,0.34 z m 1.55,-1.08 c 0.12,-0.18 0.23,-0.36 0.34,-0.54 a 0.66,0.66 0 0 0 -0.88,0.92 1.4,1.4 0 0 0 0.54,-0.38 z m 0.7,-0.78 C 47.3,52.39 47.26,52.26 47.3,52.24 l 0.23,-0.53 c 0.39,-0.11 0.52,-0.06 0.62,0 a 0.53,0.53 0 0 1 -0.67,0.81 z m 11.2,-1 c -0.08,-0.22 -0.15,-0.45 -0.22,-0.7 a 0.4,0.4 0 0 0 -0.34,0.12 0.41,0.41 0 0 0 0.57,0.57 z m 1.4,0.08 0.6,-0.95 -0.22,-0.14 -0.59,1 z M 48.24,50.24 v -0.08 l 0.19,-0.46 a 0.32,0.32 0 1 1 -0.14,0.54 v 0 z m 11.45,-0.19 a 0.83,0.83 0 1 0 -1.14,-0.26 0.83,0.83 0 0 0 1.14,0.26 z M 58.86,49.59 A 0.45,0.45 0 0 1 59,49 v 0 a 0.46,0.46 0 1 1 -0.14,0.63 z m -18.63,-1.1 a 1.54,1.54 0 1 1 2.18,0 1.54,1.54 0 0 1 -2.18,0 z m 17.18,0.21 -0.07,-0.13 h 0.14 z m -6.83,0 0.21,-0.2 -0.87,-0.93 -0.2,0.2 z m 6.42,-0.06 -1.55,-0.4 0.09,-0.36 1.55,0.4 z M 41.94,48 a 0.85,0.85 0 1 0 -1.24,0 0.85,0.85 0 0 0 1.24,0 z m 9.73,-1.29 a 0.57,0.57 0 0 0 0,-0.81 v 0 a 0.66,0.66 0 0 0 -0.18,-0.13 0.66,0.66 0 0 0 -1.09,-0.25 0.66,0.66 0 0 0 0,0.93 v 0 a 0.7,0.7 0 0 0 0.21,0.14 l 0.09,-0.06 a 0.7,0.7 0 0 0 0.13,0.21 0.59,0.59 0 0 0 0.83,0 z M 51,46.55 a 0.29,0.29 0 0 1 -0.09,-0.17 0.76,0.76 0 0 0 0.28,-0.24 0.7,0.7 0 0 1 0.09,-0.13 0.37,0.37 0 0 1 0.17,0.08 0.33,0.33 0 0 1 0,0.46 0.32,0.32 0 0 1 -0.45,0 z m 5.43,-0.09 a 0.61,0.61 0 0 1 0,-0.85 c 0.53,-0.15 0.7,-0.08 0.83,0 0.13,0.08 0.19,0.29 0,0.83 a 0.61,0.61 0 0 1 -0.86,0 v 0 z m 0.7,-0.2 a 0.34,0.34 0 1 0 -0.49,0 v 0 a 0.32,0.32 0 0 0 0.45,0 v 0 z m -13.79,-1.11 -1.18,-2 0.47,-0.27 1.17,2 z m 9.8,-0.13 0.6,-1 -0.22,-0.13 -0.6,1 z m -7.32,-0.36 a 1.09,1.09 0 1 1 1.54,0 v 0 a 1.09,1.09 0 0 1 -1.53,0 v 0 z M 47,44.33 a 0.6,0.6 0 1 0 -0.85,0 v 0 a 0.6,0.6 0 0 0 0.83,0 z m 6,-2 a 0.44,0.44 0 1 0 -0.62,0 v 0 A 0.44,0.44 0 0 0 53,42.35 Z m -0.48,-0.14 a 0.23,0.23 0 0 1 0,-0.33 v 0 a 0.25,0.25 0 0 1 0.34,0 0.23,0.23 0 0 1 0,0.33 v 0 a 0.25,0.25 0 0 1 -0.34,0 z m -3.37,-1 a 1.25,1.25 0 0 1 -0.24,-0.24 0.65,0.65 0 0 1 0.62,0.49 3.34,3.34 0 0 1 -0.39,-0.26 z m 3.23,-1.4 a 0.5,0.5 0 0 0 -0.46,0.13 0.51,0.51 0 0 0 0,0.7 0.53,0.53 0 0 0 0.2,0.13 c 0.09,-0.35 0.18,-0.67 0.25,-1 z m 1.84,0.4 a 0.63,0.63 0 0 0 -0.89,-0.88 v 0 a 0.64,0.64 0 0 0 0,0.88 0.62,0.62 0 0 0 0.88,0 z m -0.7,-0.2 a 0.34,0.34 0 1 1 0.49,0 v 0 a 0.34,0.34 0 0 1 -0.47,0 z m -3.93,-1 A 0.32,0.32 0 0 1 49.51,38.9 l 0.23,-0.09 0.37,-0.42 v 0 a 0.4,0.4 0 0 1 0,0.56 v 0 a 0.39,0.39 0 0 1 -0.55,0 z m -2.25,-0.5 a 1.2,1.2 0 1 1 1.7,0 v 0 a 1.2,1.2 0 0 1 -1.69,0 z m 1.32,-0.39 a 0.67,0.67 0 1 0 -0.94,0 v 0 a 0.7,0.7 0 0 0 1,0 z m 3.8,-1.32 a 0.66,0.66 0 0 1 0.2,1.22 0.65,0.65 0 0 1 -0.44,0.2 2.8,2.8 0 0 1 0.22,-1.32 z m -12.79,0.63 -1.22,-0.76 0.18,-0.27 1.23,0.76 z m 21,-1.18 a 0.48,0.48 0 0 1 0.11,-0.18 0.4642467,0.4642467 0 0 1 0.7,0.61 C 61.19,36.61 60.92,36.48 60.66,36.33 Z M 44.93,36.42 V 36.2 l 1.4,-0.09 v 0.32 z m -11,-0.25 a 0.45,0.45 0 0 1 0,-0.62 0.44,0.44 0 1 1 0.62,0.62 v 0 a 0.44,0.44 0 0 1 -0.62,0 z m 20.89,-0.13 a 0.44,0.44 0 0 0 -0.62,-0.62 0.43,0.43 0 0 0 0,0.61 v 0 a 0.43,0.43 0 0 0 0.6,0 v 0 z m -20.41,0 a 0.24,0.24 0 0 0 0,-0.34 v 0 a 0.24041631,0.24041631 0 1 0 -0.34,0.34 v 0 a 0.24,0.24 0 0 0 0.34,0 z M 54.3,36 a 0.24,0.24 0 0 1 0,-0.34 0.23,0.23 0 0 1 0.33,0 v 0 A 0.24041631,0.24041631 0 0 1 54.29,36 Z m -1,-1.4 a 0.53,0.53 0 0 0 -0.14,0.55 2.7,2.7 0 0 0 0.14,-0.5 z m 1.4,0 0.21,-0.37 -1.62,-0.92 a 4.2,4.2 0 0 0 -0.22,-0.78 c -0.15,0.59 -0.22,1.25 -0.33,1.87 a 1.4,1.4 0 0 1 0.2,-0.27 1.12,1.12 0 0 1 0.42,-0.27 v 0 z M 41.78,33.42 a 1.2,1.2 0 1 1 1.71,0 1.2,1.2 0 0 1 -1.71,0 z m 9.86,0 a 0.7,0.7 0 0 0 0,-1 v 0 C 51.5,32.28 51.31,32.2 50.78,32.35 v 0 a 0.53,0.53 0 0 0 -0.27,0.14 0.5,0.5 0 0 0 -0.13,0.46 0.76,0.76 0 0 0 1.2,0.65 l 0.06,-0.06 z m -0.8,-0.17 a 0.41,0.41 0 0 1 0,-0.57 0.4,0.4 0 0 1 0.56,0 v 0 a 0.41,0.41 0 0 1 0,0.57 0.39,0.39 0 0 1 -0.55,0 z M 43.1,33.07 a 0.66,0.66 0 0 0 0,-0.93 v 0 a 0.66,0.66 0 1 0 0,0.93 z m 10.5,-0.7 a 0.83,0.83 0 1 0 -1.17,0 v 0 a 0.82,0.82 0 0 0 1.13,0 z M 52.69,32.1 a 0.46,0.46 0 1 1 0.65,0 0.46,0.46 0 0 1 -0.65,0 z m -2,-0.87 a 1.06,1.06 0 0 0 0,-1.51 v 0 a 1.07,1.07 0 1 0 0,1.52 z m -16.43,0 -1.61,-1.4 0.32,-0.36 1.61,1.4 z M 54.71,30.1 55,30 54.68,28.92 54.4,29 Z m -8.23,-0.48 a 0.72,0.72 0 0 1 1,-1 0.7,0.7 0 0 1 0,1 v 0 a 0.7,0.7 0 0 1 -1,0 z m 0.78,-0.23 a 0.4,0.4 0 0 0 -0.56,-0.57 0.41,0.41 0 0 0 0,0.57 0.4,0.4 0 0 0 0.55,0 z M 51.82,28 a 0.64,0.64 0 0 0 -0.32,0.18 0.66,0.66 0 0 0 0,0.93 v 0 a 0.7,0.7 0 0 0 0.32,0.18 c 0,-0.4 0,-0.85 0,-1.3 z m 3,0 a 1.17,1.17 0 1 0 -1.44,0 1,1 0 0 0 1.44,0 z m -1.11,-0.32 a 0.56,0.56 0 1 1 0.79,0 v 0 a 0.56,0.56 0 0 1 -0.79,0 z m -1.86,-0.25 a 0.32,0.32 0 0 1 -0.07,-0.09 v -0.41 -0.06 a 0.4,0.4 0 0 1 0.56,0 v 0 a 0.39,0.39 0 0 1 0,0.55 v 0 a 0.4,0.4 0 0 1 -0.56,0 z M 26,27.09 a 0.44,0.44 0 1 1 0.7,-0.42 l 0.78,0.11 v 0.27 l -0.74,-0.11 a 0.42,0.42 0 0 1 -0.1,0.15 0.44,0.44 0 0 1 -0.62,0 z m 0.48,-0.14 v 0 h -0.23 v -0.27 h 0.18 a 0.24,0.24 0 0 0 -0.34,0 v 0 a 0.22299103,0.22299103 0 1 0 0.33,0.3 z m 20.81,-0.34 -0.12,-0.46 2,-0.54 0.13,0.45 z M 38,26.18 V 25 h 0.26 v 1.15 z m 14.35,-0.5 a 0.25,0.25 0 0 1 -0.07,-0.13 2.74,2.74 0 0 1 0.14,-0.26 0.23,0.23 0 0 1 0.26,0 0.22,0.22 0 0 1 0,0.32 v 0 a 0.24,0.24 0 0 1 -0.36,0.06 z M 31.76,25.2 A 1.18,1.18 0 0 1 31.42,24.5 H 30.15 V 24 h 1.3 a 1.11,1.11 0 0 1 0.3,-0.51 1.2,1.2 0 1 1 0,1.7 v 0 z m 1.32,-0.35 a 0.7,0.7 0 0 0 0,-0.94 0.65,0.65 0 0 0 -0.92,0 v 0 A 0.45,0.45 0 0 0 32,24 h 0.36 v 0.51 H 32 a 0.7,0.7 0 0 0 1.11,0.29 z m 22,-0.14 0.09,-0.51 -1.83,-0.32 0.12,-0.22 a 0.7,0.7 0 0 0 -0.5,0.15 v 0 a 0.65,0.65 0 0 0 -0.08,0.83 l 0.21,-0.33 z M 43.4,24.4 a 0.79,0.79 0 1 1 1.12,0 v 0 a 0.79,0.79 0 0 1 -1.12,0 z m 0.86,-0.25 a 0.43,0.43 0 0 0 0,-0.6 v 0 a 0.43,0.43 0 0 0 -0.61,0 v 0 a 0.44,0.44 0 0 0 0,0.61 0.43,0.43 0 0 0 0.6,0 z m 6,-1.82 a 1.2,1.2 0 1 1 1.71,0 1.22,1.22 0 0 1 -1.72,0 z m 1.32,-0.39 a 0.7,0.7 0 0 0 0,-0.93 0.66,0.66 0 1 0 0,0.93 z M 55.72,21 a 0.39,0.39 0 1 0 -0.55,0 v 0 a 0.4,0.4 0 0 0 0.55,0 z M 36,21 l -0.13,-0.14 0.57,-0.54 0.13,0.14 z m 19.3,-0.14 a 0.22,0.22 0 0 1 0,-0.31 v 0 a 0.22,0.22 0 0 1 0.3,0.31 v 0 a 0.22,0.22 0 0 1 -0.3,0 z m -1.93,-0.5 c -0.06,-0.14 -0.13,-0.28 -0.18,-0.42 a 0.36,0.36 0 0 1 0.11,-0.2 0.41,0.41 0 0 1 0.66,0.48 l -0.09,0.09 a 0.4,0.4 0 0 1 -0.5,0 z m -6.74,-1 -0.08,-0.4 1.75,-0.38 0.08,0.41 z m 6.74,-1.83 a 0.81,0.81 0 0 0 -0.57,0.24 0.85,0.85 0 0 0 0,1.2 l 0.13,0.1 a 1.6,1.6 0 0 1 0.45,-1.55 z m 2.18,1.17 a 0.7,0.7 0 0 0 0,-1 v 0 a 0.7,0.7 0 1 0 0,1 z m -0.8,-0.23 a 0.43,0.43 0 1 1 0.63,-0.06 l -0.07,0.06 a 0.41,0.41 0 0 1 -0.57,0 z"
             id="path10"
             inkscape:connector-curvature="0"
             style="fill:#004552" />
        </g>
      </g>
      <g
         id="g44">
        <g
           id="g22">
          <polygon
             class="cls-3"
             points="14.9,82.53 21.57,82.53 21.57,88.45 24.61,88.45 24.61,74.34 21.57,74.34 21.57,79.88 14.9,79.88 14.9,74.34 11.9,74.34 11.9,88.45 14.9,88.45 "
             id="polygon14"
             style="fill:#035263" />
          <rect
             class="cls-3"
             x="27.379999"
             y="74.339996"
             width="3"
             height="14.11"
             id="rect16"
             style="fill:#035263" />
          <path
             class="cls-3"
             d="m 38.74,88.46 a 8.81,8.81 0 0 0 3,-0.5 6.79,6.79 0 0 0 2.37,-1.42 6.31,6.31 0 0 0 1.54,-2.22 7.85,7.85 0 0 0 0,-5.79 6.35,6.35 0 0 0 -1.54,-2.23 6.85,6.85 0 0 0 -2.37,-1.43 8.89,8.89 0 0 0 -3,-0.51 h -5.57 v 14.1 z m 0,-2.64 H 36.18 V 77 h 2.56 a 4.88,4.88 0 0 1 2.44,0.59 3.78,3.78 0 0 1 1.49,1.58 5.17,5.17 0 0 1 0.21,4 4.25,4.25 0 0 1 -0.88,1.34 4.11,4.11 0 0 1 -1.39,0.95 5,5 0 0 1 -1.87,0.35 z"
             id="path18"
             inkscape:connector-curvature="0"
             style="fill:#035263" />
          <polygon
             class="cls-3"
             points="58.36,74.34 48.37,74.34 48.37,88.45 58.36,88.45 58.36,85.81 51.37,85.81 51.37,82.62 58.21,82.62 58.21,79.97 51.37,79.97 51.37,76.98 58.36,76.98 "
             id="polygon20"
             style="fill:#035263" />
        </g>
        <g
           id="g28">
          <path
             class="cls-3"
             d="m 62.26,76.43 c 0,0 0,0.21 0,0.49 0,0.28 0.08,0.65 0.14,1.09 0.06,0.44 0.14,0.93 0.22,1.45 0.08,0.52 0.19,1 0.3,1.55 0.11,0.55 0.24,1 0.38,1.41 a 4.87,4.87 0 0 0 0.45,1 c 0.16,0.26 0.33,0.39 0.51,0.4 h 0.23 a 1,1 0 0 0 0.22,-0.19 3,3 0 0 0 0.22,-0.25 c 0.08,-0.1 0.19,-0.27 0.34,-0.51 l 0.51,-0.81 0.57,-0.91 0.51,-0.82 0.33,-0.53 2.23,2.25 h 0.16 0.25 0.23 a 1.79,1.79 0 0 0 1,-0.29 3.7,3.7 0 0 0 0.78,-0.7 l 0.71,-0.84 a 3.6,3.6 0 0 1 0.79,-0.7 1.92,1.92 0 0 1 1,-0.29 1.14,1.14 0 0 1 0.87,0.34 2.4,2.4 0 0 1 0.46,0.82 c 0.11,0.33 0.23,0.66 0.36,1 a 2.1,2.1 0 0 0 0.58,0.82 1.72,1.72 0 0 0 1.13,0.34 c 0,-0.36 0,-0.78 -0.05,-1.25 a 10.88,10.88 0 0 0 -0.23,-1.46 6,6 0 0 0 -0.5,-1.39 2.89,2.89 0 0 0 -0.85,-1 2.17,2.17 0 0 0 -1.31,-0.41 2.62,2.62 0 0 0 -1.09,0.24 4.81,4.81 0 0 0 -0.93,0.57 l -0.86,0.68 a 5.17,5.17 0 0 1 -0.88,0.57 2.19,2.19 0 0 1 -1,0.24 0.75,0.75 0 0 1 -0.55,-0.24 2.33,2.33 0 0 1 -0.38,-0.57 C 69,78.3 68.89,78.08 68.77,77.85 a 1.94,1.94 0 0 0 -0.45,-0.57 1.08,1.08 0 0 0 -0.7,-0.24 2.22,2.22 0 0 0 -1.06,0.29 4.16,4.16 0 0 0 -0.9,0.69 c -0.27,0.28 -0.53,0.55 -0.76,0.83 a 2.56,2.56 0 0 1 -0.31,-0.72 c -0.08,-0.29 -0.16,-0.6 -0.24,-0.94 A 6.93,6.93 0 0 0 64.07,76.25 2,2 0 0 0 63.63,75.53 1,1 0 0 0 63,75.3 a 0.66,0.66 0 0 0 -0.49,0.18 0.84,0.84 0 0 0 -0.19,0.43 3.34,3.34 0 0 0 -0.06,0.52 z"
             id="path24"
             inkscape:connector-curvature="0"
             style="fill:#035263" />
          <path
             class="cls-3"
             d="m 78.63,79.47 a 4.63,4.63 0 0 0 0.43,1.93 5.69,5.69 0 0 0 2.8,2.79 4.68,4.68 0 0 0 1.93,0.43 A 4.36,4.36 0 0 0 86,84 2.72,2.72 0 0 0 86.84,83.22 1.9,1.9 0 0 0 87.17,82.14 V 81.93 L 87,81.7 86.76,81.47 a 2.78,2.78 0 0 1 -1.17,1 3.49,3.49 0 0 1 -1.52,0.34 3.4,3.4 0 0 1 -1.54,-0.29 1.52,1.52 0 0 1 -0.75,-0.84 3.93,3.93 0 0 1 -0.19,-1.38 h 1 l 1.35,0.06 a 12.74,12.74 0 0 0 1.48,0 5.75,5.75 0 0 0 1.36,-0.28 2.32,2.32 0 0 0 1,-0.64 1.65,1.65 0 0 0 0.39,-1.11 A 2.36,2.36 0 0 0 87.64,77 3.6,3.6 0 0 0 86.5,76 5.91,5.91 0 0 0 85,75.39 a 5.8,5.8 0 0 0 -1.44,-0.2 5.92,5.92 0 0 0 -1.82,0.29 5.25,5.25 0 0 0 -1.59,0.84 4.15,4.15 0 0 0 -1.13,1.34 3.88,3.88 0 0 0 -0.39,1.81 z m 2.28,-1.58 a 1.15,1.15 0 0 1 0.53,-0.74 1.54,1.54 0 0 1 0.8,-0.18 h 0.59 0.68 a 5.09,5.09 0 0 1 0.85,0.14 1.92,1.92 0 0 1 0.72,0.34 0.81,0.81 0 0 1 0.31,0.65 0.63,0.63 0 0 1 -0.21,0.51 1,1 0 0 1 -0.49,0.2 2.92,2.92 0 0 1 -0.59,0 h -0.5 a 10,10 0 0 1 -1,0 2.8,2.8 0 0 1 -0.94,-0.25 1.84,1.84 0 0 1 -0.75,-0.67 z"
             id="path26"
             inkscape:connector-curvature="0"
             style="fill:#035263" />
        </g>
      </g>
    </g>
  </g>
</svg>
