<?xml version="1.0" encoding="UTF-8" standalone="no"?>
<svg
   xmlns:dc="http://purl.org/dc/elements/1.1/"
   xmlns:cc="http://creativecommons.org/ns#"
   xmlns:rdf="http://www.w3.org/1999/02/22-rdf-syntax-ns#"
   xmlns:svg="http://www.w3.org/2000/svg"
   xmlns="http://www.w3.org/2000/svg"
   xmlns:sodipodi="http://sodipodi.sourceforge.net/DTD/sodipodi-0.dtd"
   xmlns:inkscape="http://www.inkscape.org/namespaces/inkscape"
   width="248.0px"
   height="248.0px"
   viewBox="0 0 248.0 248.0"
   version="1.1"
   id="SVGRoot"
   sodipodi:docname="hostgator Dark.svg"
   inkscape:version="1.0.2-2 (e86c870879, 2021-01-15)">
  <defs
     id="defs1402">
    <inkscape:path-effect
       effect="fillet_chamfer"
       id="path-effect2040"
       is_visible="true"
       lpeversion="1"
       satellites_param="F,0,0,1,0,0,0,1 @ F,0,0,1,0,6.0755415,0,1 @ F,0,0,1,0,6.1445293,0,1 @ F,0,0,1,0,0,0,1"
       unit="px"
       method="auto"
       mode="F"
       radius="0"
       chamfer_steps="1"
       flexible="false"
       use_knot_distance="true"
       apply_no_radius="true"
       apply_with_radius="true"
       only_selected="true"
       hide_knots="false" />
    <style
       id="style1979">.cls-1{fill:url(#GreenGradient);}.cls-2{fill:#fff;}</style>
    <linearGradient
       id="GreenGradient"
       x1="-522.53"
       y1="465.47"
       x2="-416.47"
       y2="571.53"
       gradientTransform="rotate(-90,-456.5,24.5)"
       gradientUnits="userSpaceOnUse">
      <stop
         offset="0"
         stop-color="#1b660f"
         id="stop1981" />
      <stop
         offset="1"
         stop-color="#6cae3e"
         id="stop1983" />
    </linearGradient>
    <linearGradient
       id="a"
       gradientTransform="matrix(10.948793,0,0,-10.948793,-716.33299,1823.6321)"
       gradientUnits="userSpaceOnUse"
       x1="62.57"
       x2="25.030001"
       y1="150.13"
       y2="85.110001">
      <stop
         offset="0"
         stop-color="#0052cc"
         id="stop2" />
      <stop
         offset=".92"
         stop-color="#2684ff"
         id="stop4-5" />
    </linearGradient>
  </defs>
  <sodipodi:namedview
     id="base"
     pagecolor="#101010"
     bordercolor="#666666"
     borderopacity="1.0"
     inkscape:pageopacity="0"
     inkscape:pageshadow="2"
     inkscape:zoom="0.86441643"
     inkscape:cx="196.94769"
     inkscape:cy="121.10013"
     inkscape:document-units="px"
     inkscape:current-layer="layer2"
     inkscape:document-rotation="0"
     showgrid="true"
     inkscape:window-width="1366"
     inkscape:window-height="705"
     inkscape:window-x="-8"
     inkscape:window-y="-8"
     inkscape:window-maximized="1"
     inkscape:snap-global="false"
     showguides="true">
    <inkscape:grid
       type="xygrid"
       id="grid1972" />
  </sodipodi:namedview>
  <metadata
     id="metadata1405">
    <rdf:RDF>
      <cc:Work
         rdf:about="">
        <dc:format>image/svg+xml</dc:format>
        <dc:type
           rdf:resource="http://purl.org/dc/dcmitype/StillImage" />
        <dc:title />
      </cc:Work>
    </rdf:RDF>
  </metadata>
  <g
     inkscape:groupmode="layer"
     id="layer3"
     inkscape:label="BG" />
  <g
     inkscape:groupmode="layer"
     id="layer4"
     inkscape:label="Bounding Box" />
  <g
     inkscape:groupmode="layer"
     id="layer2"
     inkscape:label="Top">
    <g
       id="g847"
       transform="translate(-0.19315289,-0.04989999)"
       style="fill:#5e5c64">
      <path
         style="fill:#5e5c64;fill-opacity:0.326613;stroke:none;stroke-width:3;stroke-linecap:round;stroke-linejoin:round;stroke-miterlimit:4;stroke-dasharray:none;stroke-opacity:1;paint-order:normal"
         id="path885"
         sodipodi:type="arc"
         sodipodi:cx="154.57903"
         sodipodi:cy="83.172447"
         sodipodi:rx="111.24603"
         sodipodi:ry="111.24603"
         sodipodi:start="5.9893981"
         sodipodi:end="5.9807042"
         sodipodi:open="true"
         sodipodi:arc-type="arc"
         transform="rotate(16.68412)"
         d="M 261.05862,50.957906 A 111.24603,111.24603 0 0 1 187.02492,189.58177 111.24603,111.24603 0 0 1 48.240476,115.84954 111.24603,111.24603 0 0 1 121.67088,-23.094829 111.24603,111.24603 0 0 1 260.77453,50.033412" />
      <path
         style="fill:#5e5c64;fill-opacity:1;stroke:#ffffff;stroke-width:4.5;stroke-linecap:round;stroke-linejoin:round;stroke-miterlimit:4;stroke-dasharray:none;stroke-opacity:1;paint-order:normal"
         id="path883-9"
         sodipodi:type="arc"
         sodipodi:cx="154.57903"
         sodipodi:cy="83.172447"
         sodipodi:rx="111.24604"
         sodipodi:ry="111.24604"
         sodipodi:start="5.9893981"
         sodipodi:end="5.9807042"
         sodipodi:open="true"
         sodipodi:arc-type="arc"
         transform="rotate(16.68412)"
         d="M 261.05862,50.957904 A 111.24604,111.24604 0 0 1 187.02492,189.58178 111.24604,111.24604 0 0 1 48.240468,115.84955 111.24604,111.24604 0 0 1 121.67088,-23.094836 111.24604,111.24604 0 0 1 260.77453,50.03341" />
    </g>
    <g
       id="g187"
       transform="matrix(0.45554688,0,0,0.45554688,65.752951,44.667823)"
       style="display:inline">
      <path
         d="m 201.85,308.293 c 2.78,1.778 5.546,3.556 7.87,5.94 4.464,4.562 5.991,10.118 5.843,16.39 l -0.056,2.31 -1.993,1.154 c -5.145,2.966 -11.383,3.9 -17.243,3.867 -5.135,-0.03 -10.436,-0.784 -15.407,-2.059 -2.933,-0.756 -7.636,-2.168 -10.022,-4.08 -2.542,-2.028 -4.488,-4.447 -5.61,-7.517 -1.722,-4.719 -1.124,-10.206 -0.82,-15.131 0.412,-6.952 0.302,-13.18 -1.014,-20.064 l -0.411,-2.182 1.589,-1.54 c 8.877,-8.584 17.754,-17.173 26.629,-25.761 l 6.87,-6.647 0.099,9.564 c 0.138,14.37 -2.125,32.145 3.676,45.756"
         fill="#17273e"
         id="path2" />
      <path
         d="m 194.058,262.573 c -8.87,8.591 -17.746,17.177 -26.621,25.76 4.258,22.39 -4.085,32.253 5.967,40.28 3.63,2.894 25.695,9.05 38.049,1.913 0.286,-11.621 -6.075,-15.073 -12.86,-19.438 -6.852,-14.733 -4.394,-33.995 -4.535,-48.515"
         fill="#2b4f91"
         id="path4" />
      <path
         d="m 194.058,262.573 c -8.87,8.591 -17.746,17.177 -26.621,25.76 a 74.452,74.452 0 0 1 1.298,12.194 c 8.933,-2.399 17.501,-6.808 25.109,-12.753 -0.34,-8.81 0.289,-17.647 0.214,-25.201"
         fill="#243d75"
         id="path6" />
      <path
         d="m 169.458,286.38 -2.021,1.954 c 4.258,22.388 -4.085,32.252 5.967,40.278 3.63,2.895 25.695,9.051 38.049,1.914 0.013,-0.235 0.013,-0.468 0.013,-0.695 -11.384,2.774 -35.972,0.978 -36.31,-10.56 -0.497,-11.019 0.512,-21.815 -0.216,-32.83 l -5.482,-0.062"
         fill="#2c8dbb"
         id="path8" />
      <path
         d="m 169.458,286.38 -0.356,0.344 -0.413,0.404 -0.414,0.404 -0.424,0.398 -0.414,0.404 c 0.064,0.334 0.133,0.674 0.191,1.001 l 0.006,0.036 v 0.028 c 0.053,0.322 0.107,0.644 0.163,0.955 l 0.005,0.044 0.003,0.036 c 0.05,0.314 0.102,0.628 0.145,0.937 l 0.005,0.03 0.006,0.052 c 0.05,0.309 0.089,0.605 0.127,0.912 l 0.013,0.02 0.01,0.07 c 0.031,0.3 0.07,0.602 0.11,0.899 v 0.002 c 0.072,0.616 0.136,1.216 0.194,1.811 l 0.01,0.08 v 0.017 c 0.054,0.598 0.105,1.183 0.141,1.753 l 0.008,0.05 0.005,0.026 c 0.01,0.281 0.03,0.555 0.046,0.828 v 0.033 c 0.038,0.583 0.069,1.153 0.087,1.72 v 0.005 c 0.005,0.28 0.012,0.56 0.023,0.84 v 0.008 c 2.179,-0.588 4.33,-1.29 6.463,-2.105 0.043,-3.978 0.007,-7.97 -0.258,-11.981 l -5.482,-0.062 z m -0.746,13.299 c 0.005,0.28 0.012,0.56 0.023,0.84 z"
         fill="#2b4f91"
         id="path10" />
      <path
         d="m 79.124,208.783 c 0.123,-3.474 0.542,-8.172 4.389,-9.56 5.068,-1.826 9.526,4.724 11.989,8.168 1.939,2.726 3.556,5.74 4.981,8.76 1.387,2.966 4.274,6.882 2.172,10.1 -1.99,3.04 -5.833,2.246 -8.816,1.756 -4.333,-0.706 -8.845,-1.873 -12.717,-3.993 -2.417,-1.316 -5.304,-2.71 -5.562,-5.838 -0.194,-2.355 1.15,-3.573 2.261,-5.346 0.784,-1.247 1.254,-2.565 1.303,-4.047"
         fill="#17273e"
         id="path12" />
      <path
         d="m 83.296,208.934 c -0.074,2.064 -0.68,4.108 -1.937,6.116 -1.916,3.05 -3.027,2.687 1.763,5.303 3.022,1.66 6.874,2.802 11.388,3.538 6.742,1.101 5.17,0.348 2.197,-5.96 -1.44,-3.05 -2.958,-5.809 -4.603,-8.116 -6.527,-9.14 -8.54,-8.517 -8.808,-0.881"
         fill="#276ca0"
         id="path14" />
      <path
         d="m 83.296,208.934 c -0.074,2.064 -0.68,4.108 -1.937,6.116 -1.916,3.05 -3.027,2.687 1.763,5.308 a 24.17,24.17 0 0 0 3.127,1.42 c -0.169,-6.476 0.61,-12.916 -1.995,-18.05 -0.585,0.886 -0.869,2.651 -0.958,5.206"
         fill="#2c8dbb"
         id="path16" />
      <path
         d="m 50.745,203.789 c 0.186,-0.355 0.342,-0.736 0.46,-1.117 1.165,-3.635 -0.005,-9.513 4.179,-11.253 2.572,-1.062 4.841,0.343 6.537,2.157 1.569,1.683 3.012,3.755 4.328,5.64 a 84.58,84.58 0 0 1 4.976,8.108 c 1.37,2.535 3.66,5.299 2.003,8.316 -1.617,2.94 -4.943,2.644 -7.74,2.345 a 28.577,28.577 0 0 1 -6.402,-1.436 c -3.247,-1.132 -7.27,-2.084 -8.929,-5.46 -1.198,-2.439 -0.641,-5.011 0.588,-7.3"
         fill="#17273e"
         id="path18" />
      <path
         d="m 54.418,205.761 c -2.404,4.486 1.28,5.186 6.047,6.857 a 25.064,25.064 0 0 0 5.464,1.218 c 5.35,0.575 3.97,-0.2 1.625,-4.527 a 80.154,80.154 0 0 0 -4.726,-7.71 c -9.36,-13.45 -4.895,-2.398 -8.41,4.162"
         fill="#276ca0"
         id="path20" />
      <path
         d="m 54.418,205.761 c -2.036,3.799 0.302,4.887 3.957,6.141 1.06,-5.65 0.514,-11.046 -1.32,-16.646 -1.387,0.34 -0.396,6.328 -2.637,10.505"
         fill="#2c8dbb"
         id="path22" />
      <path
         d="m 24.66,200.994 a 8.24,8.24 0 0 0 -0.051,-0.75 c -0.34,-3.393 -2.358,-7.78 0.784,-10.483 2.19,-1.885 4.861,-1.208 7.122,0.026 2.235,1.221 4.489,2.945 6.504,4.499 a 32.56,32.56 0 0 1 4.307,4 c 2.156,2.396 5.069,5.224 4.187,8.79 -0.843,3.444 -4.322,4.512 -7.4,4.97 -2.486,0.37 -5.135,0.324 -7.636,0.096 -2.491,-0.22 -5.28,0.006 -7.043,-2.179 -1.538,-1.916 -1.089,-3.962 -0.88,-6.156 0.09,-0.935 0.129,-1.873 0.106,-2.813"
         fill="#17273e"
         id="path24" />
      <path
         d="m 28.834,200.88 a 29.992,29.992 0 0 1 -0.123,3.33 c -0.383,4.016 -0.827,3.334 4.144,3.779 2.368,0.214 4.69,0.22 6.64,-0.07 6.34,-0.95 4.033,-3.162 0.727,-6.848 a 28.437,28.437 0 0 0 -3.747,-3.482 c -12.533,-9.652 -7.812,-2.861 -7.641,3.29"
         fill="#276ca0"
         id="path26" />
      <path
         d="m 28.834,200.88 a 29.992,29.992 0 0 1 -0.123,3.33 c -0.383,4.016 -0.827,3.334 4.144,3.779 0.409,0.038 0.81,0.069 1.21,0.089 -1.261,-6.32 -2.753,-10.768 -5.79,-15.251 -1.247,0.529 0.46,4.402 0.559,8.052"
         fill="#2c8dbb"
         id="path28" />
      <path
         d="m 216.263,172.5 c -12.689,-6.772 -36.551,-20.33 -36.237,-36.429 0.059,-3.012 0.932,-5.85 2.432,-8.458 l 0.401,-0.692 0.613,-0.514 c 2.105,-1.734 4.47,-3.04 7.094,-3.819 9.71,-2.88 19.98,2.294 27.792,7.697 11.447,7.92 22.161,19.234 31.322,29.667 2.062,2.353 5.3,5.145 5.92,8.287 0.656,3.354 -1.46,6.892 -2.893,9.802 -6.6,13.44 -16.766,25.837 -28.175,36.518 l 0.373,1.262 c 3.094,10.397 2.029,19.54 -5.512,27.779 l -0.833,0.9 -1.175,0.347 c -5.733,1.703 -11.785,0.61 -17.522,-0.442 l -1.37,-0.258 -0.978,-0.997 c -9.613,-9.804 -14.27,-20.248 -5.937,-32.77 3.127,-4.7 6.044,-9.54 8.982,-14.365 4.532,-7.444 9.176,-15.259 14.569,-22.11 0.365,-0.462 0.74,-0.932 1.134,-1.405"
         fill="#17273e"
         id="path30" />
      <path
         d="m 219.329,169.123 c -25.235,-13.379 -40.373,-26.56 -33.04,-39.308 13.454,-11.118 34.756,4.202 60.068,33.049 5.862,6.675 6.36,5.163 2.39,13.238 -9.02,18.36 -25.995,36.301 -46.07,50.62 2.558,-1.196 5.123,-2.394 7.682,-3.6 3.273,5.201 4.594,9.989 1.794,13.913 4.315,-3.344 5.227,-7.095 2.179,-14.38 l 6.343,-5.582 c 2.537,8.535 2.14,16.245 -4.542,23.548 -5.209,1.54 -11.93,0.09 -15.468,-0.56 -8.206,-8.37 -12.467,-16.64 -5.419,-27.234 12.464,-18.738 25.406,-45.669 37.114,-46.645 -4.68,-2.076 -9.958,-0.86 -13.031,2.94"
         fill="#2b4f91"
         id="path32" />
      <path
         d="m 219.324,169.123 c -15.581,-8.262 -27.314,-16.454 -32.278,-24.512 l -0.11,-15.307 c 7.314,-5.485 16.843,-3.5 28.009,3.993 2.509,9.746 4.874,25.068 4.897,35.228 z m -2.167,46.17 a 188.121,188.121 0 0 1 -14.48,11.429 c 2.558,-1.196 5.123,-2.394 7.682,-3.6 3.273,5.201 4.594,9.989 1.794,13.913 4.32,-3.344 5.227,-7.095 2.179,-14.38 l 2.856,-2.509 c 1.56,5.584 2.054,11.184 1.78,16.779 -0.774,1.244 -1.716,2.473 -2.835,3.696 -5.209,1.54 -11.93,0.09 -15.468,-0.56 -8.206,-8.37 -12.467,-16.64 -5.419,-27.236 9.171,-13.788 18.608,-32.015 27.61,-41.066 -0.194,15.037 -2.462,29.279 -5.699,43.533 z"
         fill="#243d75"
         id="path34" />
      <path
         d="m 96.444,83.594 a 22.291,22.291 0 0 0 -3.543,-3.809 c -1.765,-1.494 -3.71,-2.493 -5.745,-3.535 -2.4,-1.224 -4.926,-2.555 -5.705,-5.372 -0.764,-2.782 0.66,-5.207 2.514,-7.14 2.125,-2.23 5.002,-4.29 7.508,-6.075 6.565,-4.665 13.986,-8.755 21.111,-12.52 l 9.097,-4.816 -3.178,9.79 c -3.993,12.302 -7.99,24.605 -11.988,36.908 l -2.43,7.488 c -0.656,7.582 -1.333,15.17 -1.995,22.751 l 0.432,1.98 c 2.21,10.193 4.417,20.396 6.621,30.597 l 3.47,16.002 -10.7,-12.395 c -3.494,-4.04 -7.86,-6.188 -13.081,-7.102 -2.213,-0.383 -4.425,-0.542 -6.645,-0.825 -2.534,-0.325 -5.148,-0.933 -6.542,-3.331 -1.556,-2.675 -0.463,-5.506 1.03,-7.887 1.775,-2.853 4.253,-5.707 6.437,-8.254 2.513,-2.917 5.523,-5.282 8.803,-7.234 l -0.148,-0.128 c -1.01,-0.853 -2.435,-1.395 -3.679,-1.78 -4.123,-1.278 -10.14,-1.618 -12.464,-5.771 -2.61,-4.637 1.254,-9.818 4.16,-13.238 4.63,-5.467 10.746,-10.124 16.66,-14.304"
         fill="#17273e"
         id="path36" />
      <path
         d="m 115.359,60.176 c 14.3,13.66 32.57,22.261 49.092,32.817 11.278,7.206 21.553,15.279 29.625,26.087 9.905,13.267 14.98,28.627 17.239,44.9 0.766,5.536 1.144,11.136 1.367,16.72 0.413,10.163 0.158,20.373 -0.884,30.5 -2.491,24.26 -9.795,50.1 -26.895,68.251 -21.37,22.698 -54.917,31.785 -81.584,12.193 -10.326,-7.594 -18.887,-17.59 -27.197,-27.278 -5.444,-6.36 -10.862,-12.773 -16.753,-18.733 -6.803,-6.895 -14.53,-14.162 -23.727,-17.672 -10.318,-3.942 -16.012,-2.992 -25.27,2.787 -2.586,1.617 -6.21,4.414 -9.115,1.515 -1.229,-1.224 -1.538,-2.964 -1.007,-4.576 1.467,-4.409 3.671,-8.473 6.724,-11.97 15.742,-18.036 47.048,-13.997 66.037,-3.87 7.165,3.823 14.97,8.187 23.231,8.733 5.843,0.384 11.78,-0.715 16.317,-4.641 3.732,-3.22 5.77,-7.713 6.695,-12.477 1.339,-6.915 0.82,-13.376 -1.397,-20.046 -3.08,-9.263 -8.627,-17.673 -12.203,-26.806 -12.206,-31.15 -16.153,-66.652 3.453,-95.762 l 2.721,-4.039 3.53,3.367"
         fill="#17273e"
         id="path38" />
      <path
         d="m 112.52,63.147 c -18.722,27.78 -14.824,61.878 -3.045,91.966 3.61,9.21 9.169,17.663 12.275,27.01 2.455,7.347 3.015,14.49 1.54,22.118 -1.098,5.69 -3.612,10.977 -8.046,14.812 -5.378,4.652 -12.321,6.082 -19.27,5.625 -8.972,-0.588 -17.042,-5.012 -24.9,-9.21 -17.22,-9.186 -46.654,-13.483 -61.004,2.943 -2.44,2.798 -4.493,6.275 -5.916,10.569 -0.353,1.063 1.37,-0.054 4.041,-1.72 10.237,-6.386 17.251,-7.594 28.916,-3.139 9.276,3.546 17.014,10.351 25.188,18.623 5.953,6.029 11.44,12.52 16.948,18.95 8.013,9.348 16.55,19.326 26.504,26.64 24.984,18.352 56.206,9.493 76.168,-11.703 16.429,-17.445 23.395,-42.55 25.791,-65.86 1.015,-9.907 1.27,-19.954 0.871,-29.91 -0.22,-5.39 -0.59,-10.964 -1.336,-16.314 -2.174,-15.593 -6.971,-30.305 -16.464,-43.009 C 183,111.123 173.113,103.4 162.241,96.457 145.217,85.579 127.186,77.157 112.521,63.147"
         fill="#2b4f91"
         id="path40" />
      <path
         d="m 112.52,63.147 c -18.722,27.78 -14.824,61.878 -3.045,91.966 3.61,9.21 9.169,17.663 12.275,27.01 2.455,7.347 3.015,14.49 1.54,22.118 -1.098,5.69 -3.612,10.977 -8.046,14.812 -5.378,4.652 -12.321,6.082 -19.27,5.625 -8.972,-0.588 -17.042,-5.012 -24.9,-9.21 -17.22,-9.186 -46.654,-13.483 -61.004,2.943 -2.44,2.798 -4.493,6.275 -5.916,10.569 -0.115,0.352 -0.005,0.465 0.286,0.406 21.872,-30.786 62.946,-13.69 100.81,7.6 31.434,9.074 27.878,-26.489 24.1,-46.591 -5.722,-30.402 -19.32,-66.443 -20.243,-79.934 -0.855,-12.68 1.735,-25.947 11.1,-40.664 l -0.498,-0.39 -0.084,-0.072 -0.03,-0.029 -0.499,-0.398 -0.128,-0.097 -0.117,-0.1 -0.123,-0.097 -0.365,-0.301 -0.118,-0.105 -0.133,-0.1 -0.117,-0.097 -0.365,-0.306 -0.128,-0.1 -0.059,-0.054 -0.059,-0.05 -0.57,-0.483 -0.204,-0.17 -0.546,-0.477 -0.051,-0.04 -0.077,-0.065 -0.598,-0.526 -0.03,-0.025 -0.087,-0.085 -0.57,-0.503 -0.026,-0.025 -0.028,-0.02 -0.087,-0.083 -0.572,-0.526 -0.023,-0.013 -0.005,-0.015 -0.11,-0.092 -0.587,-0.544 -0.005,-0.01 c -0.23,-0.215 -0.46,-0.435 -0.688,-0.652 z m 0.688,0.652 c -0.23,-0.215 -0.46,-0.435 -0.688,-0.652 z"
         fill="#2c8dbb"
         id="path42" />
      <path
         d="m 112.444,161.82 c 3.242,6.733 6.966,13.263 9.306,20.303 l 0.092,0.258 c 4.547,-14.446 7.644,-28.898 9.11,-43.344 l -18.508,22.782"
         fill="#243d75"
         id="path44" />
      <path
         d="m 112.444,161.82 0.04,0.083 0.11,0.233 0.46,0.945 0.046,0.08 0.113,0.237 0.081,0.181 0.075,0.13 0.155,0.317 0.154,0.312 0.035,0.072 0.12,0.242 0.085,0.174 0.074,0.138 0.296,0.59 0.018,0.038 0.03,0.067 0.126,0.245 0.082,0.171 0.076,0.14 0.136,0.277 0.023,0.038 0.166,0.317 0.015,0.058 0.133,0.253 0.082,0.161 0.079,0.153 0.128,0.259 0.03,0.05 0.156,0.315 0.026,0.053 0.127,0.256 0.082,0.16 0.082,0.154 0.128,0.263 0.028,0.049 0.15,0.314 0.031,0.054 0.133,0.26 0.074,0.156 0.08,0.156 0.124,0.26 0.028,0.052 0.159,0.321 0.025,0.044 0.126,0.266 0.081,0.145 0.077,0.166 0.123,0.253 0.028,0.061 0.158,0.317 0.02,0.044 0.136,0.273 0.064,0.14 0.081,0.174 0.118,0.245 0.036,0.067 0.15,0.317 0.013,0.033 0.133,0.283 0.07,0.136 0.08,0.179 0.141,0.314 0.156,0.317 0.013,0.035 0.128,0.281 0.069,0.136 0.076,0.184 0.11,0.24 0.036,0.079 0.138,0.314 0.023,0.03 0.122,0.29 0.054,0.13 0.087,0.191 0.105,0.233 0.173,0.404 0.008,0.023 0.125,0.301 0.136,0.32 0.1,0.234 0.035,0.09 0.133,0.314 0.01,0.018 0.118,0.309 0.05,0.12 0.082,0.204 0.09,0.23 0.033,0.092 0.128,0.325 0.002,0.01 0.12,0.317 0.11,0.286 0.095,0.26 0.04,0.105 0.118,0.327 0.115,0.322 0.036,0.115 0.08,0.212 0.076,0.222 0.03,0.113 0.11,0.33 0.092,0.257 a 243.547,243.547 0 0 0 3.196,-11.066 c -1.617,-6.308 -3.377,-12.61 -5.132,-18.682 l -7.462,9.186"
         fill="#2b4f91"
         id="path46" />
      <path
         d="m 21.39,221.482 c 17.19,-0.396 28.558,8.762 40.91,21.262 5.952,6.029 11.439,12.52 16.947,18.95 8.013,9.348 16.55,19.326 26.504,26.64 24.984,18.352 56.206,9.493 76.168,-11.703 16.429,-17.445 23.395,-42.55 25.791,-65.86 1.015,-9.907 1.27,-19.954 0.871,-29.91 -0.22,-5.39 -0.59,-10.964 -1.336,-16.314 -2.174,-15.593 -6.971,-30.305 -16.464,-43.009 C 183,111.123 173.113,103.4 162.241,96.457 c -4.157,-2.66 -8.374,-5.163 -12.59,-7.644 -5.686,1.84 -10.703,4.665 -14.142,8.962 -9.551,11.897 -3.121,29.266 2.897,41.185 5.81,11.506 10.727,23.728 14.028,36.197 4.36,16.454 6.269,34.898 1.075,51.378 -2.769,8.796 -7.413,16.508 -13.943,23.03 -4.215,4.197 -9.143,7.495 -14.82,9.375 -19.716,6.5 -29.983,-5.666 -43.19,-18.02 C 63.49,224.021 44.535,216.184 21.39,221.482"
         fill="#17273e"
         id="path48" />
      <path
         d="m 36.894,224.04 c 9.375,3.522 17.174,10.366 25.405,18.704 5.953,6.029 11.44,12.52 16.948,18.95 8.013,9.348 16.55,19.326 26.504,26.64 24.984,18.352 56.206,9.493 76.168,-11.703 16.429,-17.445 23.395,-42.55 25.791,-65.86 1.015,-9.907 1.27,-19.954 0.871,-29.91 -0.22,-5.39 -0.59,-10.964 -1.336,-16.314 -2.174,-15.593 -6.971,-30.305 -16.464,-43.009 C 183,111.123 173.113,103.4 162.241,96.457 a 308.677,308.677 0 0 0 -7.618,-4.698 c -17.652,4.138 -27.414,15.767 -12.492,45.321 17.381,34.413 31.289,84.601 0.378,115.433 -4.642,4.631 -10.109,8.292 -16.452,10.387 -21.972,7.25 -33.606,-6.08 -47.352,-18.935 -13.031,-12.188 -26.4,-19.466 -41.811,-19.926"
         fill="#f9c624"
         id="path50" />
      <path
         d="m 148.878,93.499 c -13.813,5.31 -19.957,17.422 -6.747,43.581 17.381,34.413 31.289,84.601 0.378,115.433 -4.642,4.631 -10.109,8.292 -16.452,10.387 -21.972,7.25 -33.606,-6.08 -47.352,-18.935 a 111.94,111.94 0 0 0 -6.274,-5.456 c 9.825,13.092 25.492,28.856 48.108,27.224 7.526,-0.544 14.98,-2.846 21.3,-8.019 41.309,-33.846 18.667,-91.159 2.875,-125.659 -6.596,-14.397 -9.818,-29.362 4.164,-38.556"
         fill="#faec30"
         id="path52" />
      <path
         d="m 106.106,288.584 c 10.527,7.61 22.138,10.423 33.547,9.544 0.278,-3.375 21.004,-12.898 21.14,-16.278 -17.753,5.676 -23.094,-7.837 -25.565,-23.385 a 39.428,39.428 0 0 1 -9.17,4.435 c -7.636,2.519 -14.028,2.55 -19.692,0.981 a 68.144,68.144 0 0 0 -0.615,6.077 c -0.355,5.953 -0.164,12.255 0.355,18.626"
         fill="#ea8b2f"
         id="path54" />
      <path
         d="m 62.276,242.731 0.023,0.013 c 5.953,6.029 11.44,12.52 16.948,18.95 8.013,9.348 16.55,19.326 26.504,26.64 24.984,18.352 56.206,9.493 76.168,-11.703 16.429,-17.445 23.395,-42.55 25.791,-65.86 1.015,-9.907 1.27,-19.954 0.871,-29.91 -0.22,-5.39 -0.59,-10.964 -1.336,-16.314 -2.174,-15.593 -6.971,-30.305 -16.464,-43.009 -4.695,-6.292 -10.162,-11.6 -16.155,-16.347 6.348,12.219 10.3,25.237 13.355,37.249 5.39,10.533 8.05,21.086 6.752,32.867 2.631,14.237 3.441,29.53 -0.128,42.578 0.179,16.907 -6.703,30.387 -14.096,42.586 -5.83,12.369 -19.07,22.863 -30.119,26.09 -26.808,10.44 -57.165,-12.232 -66.23,-26.27 -4.607,-3.87 -9.146,-7.778 -13.614,-11.357 -2.787,-2.228 -5.536,-4.325 -8.27,-6.203"
         fill="#ea8b2f"
         id="path56" />
      <path
         d="m 97.44,88.011 c -5.563,4.006 -10.698,8.127 -14.474,12.584 -12.265,14.475 6.844,8.229 12.845,16.335 -0.833,-9.496 -0.496,-19.265 1.63,-28.919 z m -1.182,33.167 c -3.985,2.056 -7.35,4.534 -9.981,7.59 -12.462,14.49 -7.059,11.664 3.277,13.467 5.452,0.958 9.657,3.04 12.968,5.925 -2.785,-8.38 -5.081,-17.512 -6.264,-26.982 z m 15.68,-64.371 2.595,-7.98 c -8.59,4.546 -15.621,8.667 -20.643,12.238 -15.69,11.156 -6.262,8.79 1.698,15.535 a 25.96,25.96 0 0 1 3.843,4.02 c 2.63,-8.179 6.675,-16.203 12.507,-23.813 z"
         fill="#2b4f91"
         id="path58" />
      <path
         d="m 97.44,88.011 c -5.563,4.006 -10.698,8.127 -14.474,12.584 -10.908,12.878 3.01,9.35 10.44,14.125 a 38.084,38.084 0 0 0 -2.74,-2.746 c -5.656,-5.112 -7.595,-5.299 -4.949,-9.279 3.107,-4.677 7.393,-9.95 11.66,-14.392 l 0.064,-0.292 z m 10.15,-35.414 c -9.58,7.46 -19.719,14.196 -12.413,21.446 1.699,1.683 3.183,3.704 4.438,6.026 l -0.184,0.552 A 25.96,25.96 0 0 0 95.588,76.6 c -7.96,-6.744 -17.389,-4.379 -1.698,-15.535 3.591,-2.557 8.218,-5.393 13.7,-8.468 z m -11.07,70.568 c -6.8,5.112 -14.795,11.792 -8.107,18.887 -9.575,-1.431 -14.127,0.661 -2.136,-13.284 2.631,-3.056 5.996,-5.534 9.98,-7.59 0.088,0.661 0.174,1.328 0.264,1.987 z"
         fill="#2c8dbb"
         id="path60" />
      <path
         d="M 99.413,212.86 C 86.369,204.1 74.265,193.438 65.521,181.183 c -1.901,-2.66 -4.578,-5.82 -4.473,-9.253 0.102,-3.208 2.85,-6.48 4.508,-9.143 7.35,-11.771 16.1,-24.664 26.111,-34.318 6.852,-6.61 16.155,-13.36 26.226,-12.102 2.756,0.348 5.347,1.27 7.733,2.665 l 0.687,0.409 0.51,0.618 c 1.922,2.355 4.798,8.895 5.345,11.902 4.84,26.716 -22.92,34.423 -26.486,38.038 6.465,5.927 8.724,14.007 14.433,20.66 3.697,4.306 7.396,8.634 11.261,12.793 10.277,11.05 7.413,22.12 -0.513,33.394 l -0.818,1.15 -1.323,0.474 c -5.52,1.955 -11.332,3.998 -17.285,3.227 l -1.21,-0.156 -0.956,-0.759 c -8.8,-6.938 -11.376,-15.808 -10.017,-26.614 l 0.159,-1.308"
         fill="#17273e"
         id="path62" />
      <path
         d="m 100.25,166.867 c 16.979,-6.29 46.699,-31.294 26.655,-50.037 -8.054,-5.93 -21.601,6.376 -26.391,10.017 -9.708,7.39 -20.197,20.74 -31.197,38.283 -4.726,7.528 -5.45,6.123 -0.197,13.483 11.953,16.748 31.7,31.808 53.936,42.8 -2.905,0.049 -5.7,-0.148 -8.367,-1.257 -2.396,5.671 -2.746,9.526 0.67,12.97 -4.826,-2.624 -6.33,-6.187 -4.517,-13.89 l -7.194,-4.519 c -1.111,8.855 0.542,16.424 8.364,22.59 5.413,0.703 11.833,-1.805 15.226,-3.014 6.751,-9.587 10.58,-19.46 0.891,-27.824 -19.392,-16.748 -19.974,-39.546 -44.397,-40.274 4.29,-2.807 11.77,-2.051 16.519,0.672"
         fill="#2b4f91"
         id="path64" />
      <path
         d="m 110.4,119.492 c -4.154,2.631 -7.822,5.794 -9.886,7.355 -9.708,7.39 -20.197,20.74 -31.197,38.283 -4.726,7.528 -5.45,6.123 -0.197,13.483 11.284,15.81 29.519,30.119 50.231,40.915 -15.65,-13.218 -30.683,-26.405 -39.903,-38.567 -9.23,-12.196 -5.67,-12.265 2.586,-25.145 8.095,-12.63 17.28,-24.846 28.366,-36.324 z m 9.105,101.809 c -1.648,-0.161 -3.26,-0.498 -4.816,-1.145 -1.522,3.605 -2.222,6.481 -1.64,8.982 1.602,-2.72 3.219,-5.446 6.456,-7.837 z m -11.626,-3.924 -4.23,-2.66 c -1.089,8.668 0.472,16.11 7.885,22.21 -3.27,-6.384 -5.533,-12.829 -3.655,-19.55 z"
         fill="#2c8dbb"
         id="path66" />
      <path
         d="m 145.605,145.255 c 10.308,-5.635 25.138,-6.882 36.638,-5.687 8.16,0.849 16.582,3.035 23.728,7.133 l 2.071,1.185 -2.368,4.136 -2.071,-1.185 c -6.566,-3.758 -14.37,-5.745 -21.853,-6.525 -10.489,-1.088 -24.44,-0.017 -33.856,5.13 l -2.1,1.142 -2.284,-4.184 2.095,-1.145 m 11.169,34.973 c 10.068,-5.692 24.496,-7.286 35.859,-6.433 6.075,0.455 12.344,1.645 18.145,3.824 v 5.133 c -5.827,-2.45 -12.31,-3.735 -18.508,-4.203 -10.369,-0.776 -23.947,0.619 -33.15,5.827 l -2.078,1.173 -2.34,-4.149 2.072,-1.172 m -0.133,37.162 c 14.574,-6.951 37.558,-5.74 51.874,3.172 1.16,0.726 0.337,1.132 1.502,1.776 l -0.232,1.512 -1.393,1.278 c -0.413,0.378 -0.413,0.81 -0.883,0.487 -12.705,-8.956 -35.21,-10.412 -48.814,-3.923 l -2.154,1.027 -0.551,-3.75 0.651,-1.58 m -8.655,27.187 c 10.837,11.258 33.614,17.887 48.696,13.026 l 1.952,-1.602 -0.03,3.198 -1.718,1.76 c -0.774,0.248 -0.301,1.656 -1.1,1.85 -16.698,4.095 -39.692,-2.922 -51.238,-14.924 l -1.653,-1.717 3.428,-3.308 1.663,1.717 m -21.954,18.092 c 3.152,6.992 8.9,13.051 15.228,17.3 6.808,4.564 15.373,7.714 23.704,7.162 3.101,-0.204 5.173,-0.858 8.042,-1.808 l -0.202,3.822 -1.591,1.788 c -11.184,2.943 -23.245,-0.726 -32.613,-7.005 -7.07,-4.741 -13.388,-11.483 -16.919,-19.295 l -0.978,-2.176 4.343,-1.965 0.986,2.177 M 89.519,254.35 c -1.648,1.918 -2.596,4.2 -2.946,6.588 -0.71,4.838 0.442,8.195 2.718,12.206 l -4.171,0.74 -1.393,-1.494 c -3.461,-6.797 -2.85,-15.281 2.17,-21.144 l 1.555,-1.811 3.62,3.106 -1.553,1.809 M 75.951,238.892 c -2.508,2.925 -3.387,6.703 -3.014,10.433 0.327,3.165 1.374,5.477 2.713,8.205 l -3.942,0.746 -1.548,-1.338 c -3.457,-6.806 -2.846,-15.292 2.174,-21.153 l 1.476,-1.014 3.148,2.465 -1.007,1.656 m 129.108,-132.467 8.473,16.963 -25.375,4.506 -29.618,-10.875 -0.682,-0.547 c -11.506,-9.22 -20.86,-20.158 -27.85,-33.19 -1.763,-3.274 -4.387,-8.92 -4.783,-12.532 l -2.327,-21.523 12.112,17.941 c 8.742,12.95 22.98,24.338 36.763,31.519 7.84,4.082 18.498,9.672 27.572,8.711 a 25.595,25.595 0 0 0 1.752,-0.25 l 3.963,-0.723"
         fill="#17273e"
         id="path68" />
      <path
         d="m 244.888,105.048 c 0.023,3.658 -0.763,6.875 -2.657,10.85 -0.634,1.323 -1.41,2.695 -2.345,3.793 -1.234,1.44 -2.864,2.465 -4.744,2.105 -3.365,-0.63 -4.149,-4.647 -4.358,-7.72 -0.122,-1.735 -0.527,-3.584 -1.331,-5.143 -5.165,0.533 -10.506,0.803 -15.147,1.416 2.718,3.247 5.385,4.751 8.045,6.029 7.362,3.535 13.291,7.429 16.278,15.608 3.546,9.726 -0.782,20.22 -15.11,22.851 -12.327,2.264 -12.104,7.1 -25.945,1.812 -13.813,-5.28 -27.825,-13.55 -39.985,-21.927 -7.868,-5.418 -15.532,-11.306 -22.657,-17.683 -11.618,-10.397 -28.093,-26.414 -30.701,-42.419 -1.163,-7.107 0.677,-14.14 5.855,-19.27 a 21.506,21.506 0 0 1 4.943,-3.665 l 0.907,-2.798 c 2.723,-8.427 5.993,-21.512 10.96,-31.523 11.97,-24.126 31.084,-20.662 41.024,-1.865 7.985,1.857 14.252,3.494 22.715,7.572 l 0.432,-0.435 c 2.71,-2.74 6.33,-5.094 10.354,-4.115 13.923,2.86 15.276,36.727 14.16,46.036 l 0.388,0.243 c 4.67,1.477 8.704,3.592 11.338,6.596 l 0.426,0.493 0.164,0.1 c 6.959,-2.654 14.916,-2.984 20.434,2.66 7.585,7.749 5.744,24.261 -3.443,30.4 z"
         fill="#17273e"
         id="path70" />
      <path
         d="m 197.2,98.12 c -12.892,-2.723 -12.762,-23.587 2.831,-23.158 9.66,0.263 21.474,8.632 32.487,5.495 -3.145,-0.421 -6.3,-0.843 -9.465,-1.264 8.359,-5.674 17.425,-6.609 22.297,-1.627 6.228,6.363 3.993,22.2 -5.18,25.18 -5.47,1.773 -13.974,2.379 -19.671,2.552 3.2,-2.306 11.697,-5.985 17.862,-5.758 -5.301,-2.107 -10.237,-1.277 -14.838,0.537 -23.208,9.168 -25.203,13.79 -52.295,-0.335 -14.6,-7.602 -28.829,-19.374 -37.28,-31.907 1.83,-1.206 4.302,-2.733 6.934,-0.626 -3.87,-11.054 -26.098,-0.309 -17.821,14.822 0.557,-3.12 0.488,-6.87 4.422,-6.624 12.936,29.112 35.067,45.329 56.541,56.296 14.934,7.63 18.403,11.886 35.203,9.613 2.92,-0.394 5.351,-0.948 7.186,-1.6 9.148,-3.254 4.161,-10.892 -0.514,-16.832 12.083,7.879 14.922,24.53 -3.137,27.85 -13.031,2.392 -11.373,6.727 -23.696,2.014 -18.864,-7.207 -43.687,-23.005 -61.347,-38.815 -7.786,-6.964 -26.782,-24.105 -29.373,-39.982 -2.373,-14.536 10.576,-23.738 23.85,-20.097 8.54,2.342 16,9.986 20.833,20.135 -5.206,-16.738 -13.067,-28.834 -33.123,-23.814 3.67,-11.343 8.933,-35.892 19.119,-42.585 12.716,-8.364 27.02,10.489 35.136,29.332 -0.861,-5.268 -1.868,-11.557 -4.885,-16.404 12.257,2.32 16.368,3.316 24.537,10.566 -0.199,-3.19 -0.309,-3.908 -0.5,-4.884 11.158,-11.215 19.818,12.39 17.448,32.492 -24.93,-8.479 -42.06,-6.877 -52.682,3.152 18.836,-7.66 34.774,-6.115 48.574,2.208 -3.858,-0.71 -7.723,-0.997 -11.58,-0.77 8.611,1.367 10.918,1.901 18.39,4.323 4.854,1.574 8.52,3.806 10.702,6.54 -5.81,3.566 -23.048,-8.99 -34.582,-1.96 -12.635,7.7 -6.474,26.908 7.618,25.935"
         fill="#2b4f91"
         id="path72" />
      <path
         d="m 131.55,49.222 c -3.347,-0.43 -7.2,-0.158 -11.644,0.953 3.67,-11.343 8.933,-35.892 19.119,-42.585 2,-1.319 4.036,-1.957 6.08,-2.034 -6.699,10.37 -13.21,28.154 -13.474,43.605 l -0.081,0.061"
         fill="#2c8dbb"
         id="path74" />
      <path
         d="m 225.411,77.726 a 29.386,29.386 0 0 1 4.685,-2.143 c 0.338,0.409 0.647,0.828 0.95,1.26 -1.4,1.106 -3.33,1.267 -5.635,0.883 z M 201.475,64.368 c 4.074,0.782 6.785,1.548 11.988,3.237 4.854,1.574 8.52,3.806 10.702,6.54 -2.532,1.553 -7.217,0.054 -12.659,-1.558 -1.103,-2.739 -4.27,-5.48 -10.031,-8.219 z M 199.24,60.33 a 52.379,52.379 0 0 1 7.413,3.722 c -1.53,-0.281 -3.066,-0.501 -4.593,-0.639 -1.145,-1.07 -1.973,-2.074 -2.82,-3.083"
         fill="#243d75"
         id="path76" />
      <path
         d="m 187.858,93.808 c -0.424,-1.791 -0.843,-3.574 -1.262,-5.362 -10.203,0.863 -18.495,-3.526 -26.974,-7.414 4.154,3.31 8.31,6.627 12.46,9.935 4.833,2.317 9.673,4.629 14.514,6.94 0.42,-1.366 0.838,-2.733 1.262,-4.1"
         fill="#16253b"
         id="path78" />
      <path
         d="m 197.2,98.12 c -12.892,-2.723 -12.762,-23.587 2.831,-23.158 5.255,0.14 11.138,2.683 17.185,4.463 4.565,1.347 7.242,1.135 9.314,0.49 -1.239,-0.18 -2.422,-0.413 -3.477,-0.722 8.359,-5.674 17.425,-6.609 22.297,-1.627 6.228,6.363 3.993,22.2 -5.18,25.18 -5.47,1.773 -13.974,2.379 -19.671,2.552 5.326,-4.268 8.683,-5.663 11.633,-7.004 -2.991,-0.034 -5.855,0.7 -8.609,1.783 -23.208,9.168 -25.203,13.79 -52.295,-0.335 -14.6,-7.602 -28.829,-19.374 -37.28,-31.907 1.83,-1.206 4.302,-2.733 6.934,-0.626 -3.87,-11.054 -26.098,-0.309 -17.821,14.822 0.557,-3.12 0.488,-6.87 4.422,-6.624 12.936,29.112 35.067,45.329 56.541,56.296 14.934,7.63 18.403,11.886 35.203,9.613 2.92,-0.394 5.351,-0.948 7.186,-1.6 9.148,-3.254 4.161,-10.892 -0.514,-16.832 12.083,7.879 14.922,24.53 -3.137,27.85 -13.031,2.392 -11.373,6.727 -23.696,2.014 -18.864,-7.207 -43.687,-23.005 -61.347,-38.815 -7.786,-6.964 -26.782,-24.105 -29.373,-39.982 -2.373,-14.536 10.576,-23.738 23.85,-20.097 8.54,2.342 16,9.986 20.833,20.135 -0.169,-0.531 -0.332,-1.055 -0.498,-1.576 8.87,11.736 19.982,18.396 33.113,20.483 2.513,3.351 6.524,5.574 11.557,5.224"
         fill="#f9c624"
         id="path80" />
      <path
         d="m 234.273,132.428 c 3.385,7.631 0.764,16.048 -11.51,18.307 -8.684,1.591 -10.848,4.046 -14.963,4.118 -0.09,-8.597 16.72,-7.314 21.987,-11.335 3.107,-2.366 4.443,-6.52 4.486,-11.09 m 4.752,-57.946 c 2.473,0.36 4.644,1.37 6.325,3.084 6.228,6.363 3.993,22.2 -5.18,25.18 l -0.545,0.169 c 7.158,-7.866 6.126,-21.507 -0.6,-28.433"
         fill="#ea8b2f"
         id="path82" />
      <path
         d="m 216.115,103.112 c -16.62,6.958 -20.996,9.084 -44.887,-3.37 -9.281,-4.83 -18.406,-11.35 -26.006,-18.68 26.029,20.857 49.634,28.05 70.893,22.05"
         fill="#faec30"
         id="path84" />
      <path
         d="m 192.924,96.29 c -8.335,-5.847 -6.514,-21.703 7.107,-21.328 1.04,0.026 2.1,0.149 3.183,0.34 -9.316,2.662 -12.88,9.554 -10.29,20.989 m 3.771,55.519 c -18.526,-7.577 -42.039,-22.72 -58.976,-37.877 -7.786,-6.964 -26.782,-24.105 -29.373,-39.982 -2.235,-13.703 9.143,-22.662 21.571,-20.598 -10.065,2.417 -14.61,8.785 -15.082,16.355 -1.78,28.205 52.602,67.76 81.86,82.102"
         fill="#faec30"
         id="path86" />
      <path
         d="m 233.106,108.653 c 0.56,1.468 0.92,3.142 1.042,4.948 0.455,6.65 3.002,4.621 4.994,0.426 1.367,-2.863 2.052,-5.168 2.182,-7.737 a 11.78,11.78 0 0 1 -2.26,1.001 c -1.822,0.593 -3.84,1.024 -5.958,1.362"
         fill="#ffffff"
         id="path88" />
      <path
         d="m 236.13,117.865 c 0.923,-0.253 2.036,-1.789 3.012,-3.838 1.367,-2.863 2.052,-5.168 2.182,-7.737 -0.67,0.375 -1.37,0.694 -2.097,0.945 -0.039,3.459 -0.767,6.964 -3.097,10.63"
         fill="#2c8dbb"
         id="path90" />
      <path
         d="m 200.455,84.128 c 3.595,-1.154 6.354,3.679 1.628,5.792 -0.667,1.785 0.403,3.734 3.303,4.42 -9.182,1.897 -9.547,-8.544 -4.93,-10.212 m 40.549,-1.486 c -2.964,-0.956 -5.245,3.034 -1.339,4.782 0.552,1.469 -0.327,3.078 -2.73,3.643 7.581,1.563 7.885,-7.049 4.069,-8.425"
         fill="#17273e"
         id="path92" />
      <path
         d="m 145.17,96.457 c 9.708,1.658 18.233,4.432 25.813,7.866 2.077,1.072 4.248,2.17 6.494,3.21 7.454,4.009 13.927,8.602 19.688,13.249 a 58.57,58.57 0 0 0 -6.678,-8.655 c 3.158,0.661 6.323,0.935 9.427,0.608 7.59,-0.871 11.874,0.585 17.52,7.648 4.29,4.364 14.188,13.052 7.576,15.402 -1.985,0.708 -4.26,1.114 -6.34,1.392 -5.255,0.71 -10.502,1.035 -15.614,-0.636 -2.49,-0.812 -4.872,-2.018 -7.176,-3.239 -3.329,-1.76 -6.601,-3.597 -9.958,-5.311 -16.173,-8.26 -29.98,-18.283 -40.751,-31.534"
         fill="#df542b"
         id="path94" />
      <path
         d="m 160.884,103.919 c 10.331,2.023 20.128,7.163 29.583,14.474 3.203,2.48 2.117,5.378 -1.796,2.294 -9.123,-7.199 -18.388,-13.78 -27.787,-16.768"
         fill="#ea8b2f"
         id="path96" />
      <path
         d="m 198.65,109.963 c 0.267,-0.08 0.553,-0.146 0.827,-0.222 1.137,-0.317 2.166,-0.728 3.254,-1.165 2.095,-0.85 4.208,-0.376 6.344,-0.235 l 3.292,0.217 -0.413,3.53 c -0.302,2.532 -1.467,5.255 -2.675,7.434 -1.747,3.17 -5.781,9.26 -9.858,7.48 -2.964,-1.277 -2.94,-5.111 -2.57,-7.965 0.24,-1.842 0.053,-3.163 -0.414,-4.935 l -0.836,-3.273 3.048,-0.866"
         fill="#17273e"
         id="path98" />
      <path
         d="m 199.594,113.368 c 0.53,2.044 0.774,3.733 0.473,6.062 -1.405,10.799 7.901,-1.353 8.62,-7.525 -1.976,-0.133 -3.593,-0.49 -4.87,0.025 -1.239,0.503 -2.133,0.864 -3.433,1.231 -0.26,0.07 -0.524,0.13 -0.79,0.207"
         fill="#ffffff"
         id="path100" />
      <path
         d="m 203.258,122.373 c 2.312,-2.352 5.05,-7.234 5.428,-10.468 -1.165,-0.08 -2.207,-0.235 -3.127,-0.246 0.366,3.528 -0.155,7.059 -2.301,10.714"
         fill="#2c8dbb"
         id="path102" />
      <path
         d="m 133.047,54.145 c 5.937,-7.764 8.123,-18.572 10.004,-29.631 -1.007,-1.29 -4.655,-2.2 -3.306,-3.87 5.528,-0.113 9.197,2.771 12.699,6.48 5.858,6.203 10.645,17.569 13.874,26.219 1.714,4.598 1.004,3.413 -9.695,1.99 -7.582,-1.007 -15.573,-1.188 -23.576,-1.188"
         fill="#17273e"
         id="path104" />
      <path
         d="m 138.973,50.9 c 6.05,0.09 12.104,0.381 18.082,1.176 1.867,0.247 3.72,0.541 5.58,0.827 -2.916,-7.661 -7.269,-17.9 -12.582,-23.517 -1.252,-1.331 -2.514,-2.55 -3.904,-3.5 -1.42,8.297 -3.178,17.384 -7.176,25.014"
         fill="#ffffff"
         id="path106" />
      <path
         d="m 149.624,34.607 c 3.093,0 5.592,3.449 5.592,7.705 0,4.256 -2.499,7.707 -5.592,7.707 -3.091,0 -5.587,-3.451 -5.587,-7.707 0,-4.256 2.496,-7.705 5.587,-7.705 m 52.594,-1.06 c -6.333,5.658 -10.167,11.708 -12.385,20.332 -0.57,3.431 2.128,4.9 5.209,3.998 2.838,0.96 5.268,2.138 8.218,1.988 2.473,-0.034 4.992,-1.27 5.181,-3.81 -0.636,-5.476 -2.613,-14.234 -1.788,-20.004 1.43,-2.08 -1.076,-6.152 -4.435,-2.504"
         fill="#17273e"
         id="path108" />
      <path
         d="m 205.12,55.946 c -0.736,-5.932 -2.332,-12.737 -1.888,-18.761 -4.976,5.076 -8.645,10.06 -10.19,17.371 l -0.03,0.266 c 0.324,0.071 0.875,-0.03 1.11,-0.097 l 0.997,-0.3 0.983,0.34 c 2.192,0.741 4.696,1.888 7.064,1.812 0.378,-0.013 1.683,-0.19 1.954,-0.631"
         fill="#ffffff"
         id="path110" />
      <path
         d="m 207.455,60.828 c 1.088,-0.642 2.19,-1.28 3.277,-1.924 -8.902,-3.985 -18.7,-5.275 -28.808,-5.646 1.916,0.864 3.84,1.73 5.768,2.596 6.581,1.66 13.172,3.316 19.763,4.974 m -9.659,-18.662 c 2.432,0 4.407,2.614 4.407,5.835 0,3.221 -1.975,5.835 -4.407,5.835 -2.435,0 -4.407,-2.614 -4.407,-5.835 0,-3.221 1.972,-5.835 4.407,-5.835 M 98.033,311.343 c 1.931,-5.403 2.585,-11.317 2.77,-17.003 0.165,-4.97 -0.018,-9.933 -0.151,-14.896 -0.138,-4.665 -0.256,-9.45 0.181,-14.1 2.146,-22.76 25.94,-28.455 32.61,-19.654 8.404,9.408 7.34,21.44 2.881,35.928 a 100.608,100.608 0 0 0 -2.03,7.853 132.246,132.246 0 0 0 -2.088,12.315 c -0.363,2.984 -0.684,6.162 -0.677,9.176 0.01,3.804 0.458,7.258 1.099,10.983 0.5,2.915 1.07,5.9 0.345,8.831 -0.596,2.432 -1.942,4.381 -3.756,6.075 -5.295,4.981 -14.579,8.964 -21.627,10.372 -4.138,0.822 -8.463,1.042 -12.612,0.242 a 11.08,11.08 0 0 1 -3.783,-1.486 c -5.897,-3.68 -7.235,-11.713 -6.011,-18.056 1.435,-7.388 6.115,-13.45 12.85,-16.58"
         fill="#17273e"
         id="path112" />
      <path
         d="m 108.77,249.378 c 4.011,-6.629 10.937,-9.227 15.834,-8.509 17.563,2.567 12.009,25.84 7.796,39.543 -3.31,10.757 -4.999,24.343 -4.976,30.558 0.03,13.527 4.609,17.604 -1.012,22.887 -4.879,4.58 -18.827,11.158 -30.66,9.575 -9.754,-2.473 -10.052,-23.245 5.49,-28.98 4.322,-10.49 4.159,-22.905 3.83,-34.107 -0.23,-7.577 -0.823,-23.487 3.698,-30.967"
         fill="#2b4f91"
         id="path114" />
      <path
         d="m 108.77,249.378 c 3.569,-5.898 7.498,-6.018 13.126,-7.07 -18.478,9.201 -8.916,46.887 -13.913,70.872 3.983,-0.074 6.668,0.296 10.002,1.522 -14.733,-1.81 -21.25,10.518 -22.662,28.604 -9.327,-2.96 -9.391,-23.203 5.919,-28.854 4.322,-10.49 4.159,-22.905 3.83,-34.107 -0.23,-7.577 -0.818,-23.487 3.698,-30.967"
         fill="#2c8dbb"
         id="path116" />
      <path
         d="m 200.06,335.895 -5.22,-0.866 c 0.912,-5.625 -1.057,-10.898 -7.383,-15.654 8.254,3.482 11.31,9.562 12.602,16.52 m 10.326,-2.061 c -1.735,-0.291 -3.477,-0.58 -5.211,-0.871 0.92,-5.623 -1.066,-10.903 -7.39,-15.652 8.258,3.48 11.306,9.564 12.601,16.523 M 103.743,344.27 c 1.701,-0.37 3.405,-0.744 5.104,-1.114 -1.66,-7.217 -0.396,-13.984 5.306,-20.087 -7.797,4.468 -10.037,12.27 -10.41,21.2 M 87.98,343.186 c 1.702,-0.378 3.409,-0.746 5.1,-1.119 -1.663,-7.216 -0.388,-13.981 5.313,-20.079 -7.804,4.46 -10.04,12.267 -10.412,21.198"
         fill="#17273e"
         id="path118" />
    </g>
  </g>
</svg>
