<?xml version="1.0" encoding="UTF-8" standalone="no"?>
<svg
   xmlns:dc="http://purl.org/dc/elements/1.1/"
   xmlns:cc="http://creativecommons.org/ns#"
   xmlns:rdf="http://www.w3.org/1999/02/22-rdf-syntax-ns#"
   xmlns:svg="http://www.w3.org/2000/svg"
   xmlns="http://www.w3.org/2000/svg"
   xmlns:sodipodi="http://sodipodi.sourceforge.net/DTD/sodipodi-0.dtd"
   xmlns:inkscape="http://www.inkscape.org/namespaces/inkscape"
   width="248.0px"
   height="248.0px"
   viewBox="0 0 248.0 248.0"
   version="1.1"
   id="SVGRoot"
   sodipodi:docname="keycdn-logo Dark.svg"
   inkscape:version="1.0.2-2 (e86c870879, 2021-01-15)">
  <defs
     id="defs1402">
    <inkscape:path-effect
       effect="fillet_chamfer"
       id="path-effect2040"
       is_visible="true"
       lpeversion="1"
       satellites_param="F,0,0,1,0,0,0,1 @ F,0,0,1,0,6.0755415,0,1 @ F,0,0,1,0,6.1445293,0,1 @ F,0,0,1,0,0,0,1"
       unit="px"
       method="auto"
       mode="F"
       radius="0"
       chamfer_steps="1"
       flexible="false"
       use_knot_distance="true"
       apply_no_radius="true"
       apply_with_radius="true"
       only_selected="true"
       hide_knots="false" />
    <style
       id="style1979">.cls-1{fill:url(#GreenGradient);}.cls-2{fill:#fff;}</style>
    <linearGradient
       id="GreenGradient"
       x1="-522.53"
       y1="465.47"
       x2="-416.47"
       y2="571.53"
       gradientTransform="rotate(-90,-456.5,24.5)"
       gradientUnits="userSpaceOnUse">
      <stop
         offset="0"
         stop-color="#1b660f"
         id="stop1981" />
      <stop
         offset="1"
         stop-color="#6cae3e"
         id="stop1983" />
    </linearGradient>
  </defs>
  <sodipodi:namedview
     id="base"
     pagecolor="#101010"
     bordercolor="#666666"
     borderopacity="1.0"
     inkscape:pageopacity="0"
     inkscape:pageshadow="2"
     inkscape:zoom="1.1107323"
     inkscape:cx="124"
     inkscape:cy="124"
     inkscape:document-units="px"
     inkscape:current-layer="layer2"
     inkscape:document-rotation="0"
     showgrid="true"
     inkscape:window-width="1366"
     inkscape:window-height="705"
     inkscape:window-x="-8"
     inkscape:window-y="-8"
     inkscape:window-maximized="1"
     inkscape:snap-global="false"
     showguides="true">
    <inkscape:grid
       type="xygrid"
       id="grid1972" />
  </sodipodi:namedview>
  <metadata
     id="metadata1405">
    <rdf:RDF>
      <cc:Work
         rdf:about="">
        <dc:format>image/svg+xml</dc:format>
        <dc:type
           rdf:resource="http://purl.org/dc/dcmitype/StillImage" />
        <dc:title />
      </cc:Work>
    </rdf:RDF>
  </metadata>
  <g
     inkscape:groupmode="layer"
     id="layer3"
     inkscape:label="BG" />
  <g
     inkscape:groupmode="layer"
     id="layer4"
     inkscape:label="Bounding Box" />
  <g
     inkscape:groupmode="layer"
     id="layer2"
     inkscape:label="Top">
    <g
       id="g847"
       transform="translate(-0.19315289,-0.04989999)"
       style="fill:#5e5c64">
      <path
         style="fill:#5e5c64;fill-opacity:0.326613;stroke:none;stroke-width:3;stroke-linecap:round;stroke-linejoin:round;stroke-miterlimit:4;stroke-dasharray:none;stroke-opacity:1;paint-order:normal"
         id="path885"
         sodipodi:type="arc"
         sodipodi:cx="154.57903"
         sodipodi:cy="83.172447"
         sodipodi:rx="111.24603"
         sodipodi:ry="111.24603"
         sodipodi:start="5.9893981"
         sodipodi:end="5.9807042"
         sodipodi:open="true"
         sodipodi:arc-type="arc"
         transform="rotate(16.68412)"
         d="M 261.05862,50.957906 A 111.24603,111.24603 0 0 1 187.02492,189.58177 111.24603,111.24603 0 0 1 48.240476,115.84954 111.24603,111.24603 0 0 1 121.67088,-23.094829 111.24603,111.24603 0 0 1 260.77453,50.033412" />
      <path
         style="fill:#5e5c64;fill-opacity:1;stroke:#ffffff;stroke-width:4.5;stroke-linecap:round;stroke-linejoin:round;stroke-miterlimit:4;stroke-dasharray:none;stroke-opacity:1;paint-order:normal"
         id="path883-9"
         sodipodi:type="arc"
         sodipodi:cx="154.57903"
         sodipodi:cy="83.172447"
         sodipodi:rx="111.24604"
         sodipodi:ry="111.24604"
         sodipodi:start="5.9893981"
         sodipodi:end="5.9807042"
         sodipodi:open="true"
         sodipodi:arc-type="arc"
         transform="rotate(16.68412)"
         d="M 261.05862,50.957904 A 111.24604,111.24604 0 0 1 187.02492,189.58178 111.24604,111.24604 0 0 1 48.240468,115.84955 111.24604,111.24604 0 0 1 121.67088,-23.094836 111.24604,111.24604 0 0 1 260.77453,50.03341" />
    </g>
    <path
       fill="#2e3234"
       d="m 43.380392,139.20582 c 0.486906,0.02 0.978806,0.0874 1.436997,0.25594 v -0.005 l 0.06991,0.025 6.045124,-5.89655 0.222228,0.29589 c 0.313368,0.42448 0.646711,0.81276 0.998782,1.20103 l 0.128593,0.14857 c 0.09239,0.0924 0.166047,0.18477 0.258434,0.27716 l 0.149817,0.14732 0.146072,0.14857 0.129842,0.12859 0.14732,0.14857 0.129842,0.1286 0.166047,0.14856 0.149817,0.12985 a 16.065396,16.065396 0 0 0 10.019024,3.82658 16.20897,16.20897 0 0 0 8.633215,-2.23727 l 0.461936,0.48066 c 0.536845,0.57305 1.091169,1.1461 1.628014,1.71915 a 19.019291,19.019291 0 0 1 -10.796825,3.01382 19.006806,19.006806 0 0 1 -11.758152,-4.43708 l 0.01873,-0.0375 -3.879016,3.82409 a 4.8353495,4.8353495 0 1 1 -4.628103,-3.43581 h 0.124848 z M 80.346533,114.265 a 19.015546,19.015546 0 0 1 2.754139,10.39107 18.941885,18.941885 0 0 1 -4.750453,12.09025 l 0.01873,0.0187 2.38459,2.53316 c 0.961327,-0.12984 1.922654,0.20225 2.588092,0.90514 a 3.002586,3.002586 0 0 1 -0.111114,4.23359 3.002586,3.002586 0 0 1 -4.232336,-0.11112 2.9813619,2.9813619 0 0 1 -0.759073,-2.6243 923.76025,923.76025 0 0 0 -4.194882,-4.45581 l -0.242204,-0.25843 0.277162,-0.22223 a 14.981718,14.981718 0 0 0 1.997562,-1.90393 16.002972,16.002972 0 0 0 4.04881,-10.27871 16.030438,16.030438 0 0 0 -1.997563,-8.20873 z M 46.658891,102.96504 c 0.848964,-0.0125 1.647989,0.32336 2.239767,0.92887 a 2.9838588,2.9838588 0 0 1 0.757826,2.62555 l 4.585654,4.80663 -0.278411,0.22223 c -0.72037,0.57305 -1.385808,1.20103 -1.996313,1.90393 a 16.139056,16.139056 0 0 0 -2.069974,18.50491 l -2.201065,2.14489 a 18.866977,18.866977 0 0 1 -2.771617,-10.44476 c 0.09488,-4.45082 1.829018,-8.75057 4.741713,-12.09898 l -2.524419,-2.63429 a 3.0038345,3.0038345 0 0 1 -2.588092,-0.90764 3.002586,3.002586 0 0 1 0.112363,-4.23358 3.0337979,3.0337979 0 0 1 1.706667,-0.79903 c 0.09488,-0.01 0.191017,-0.0125 0.28715,-0.02 z m 38.579173,-3.84031 a 4.8353495,4.8353495 0 1 1 -1.50816,9.42974 v 0.006 l -0.07491,-0.0262 -6.563241,6.2299 -0.222229,-0.29589 c -0.349574,-0.46194 -0.739098,-0.92388 -1.146102,-1.34836 l -0.07491,-0.0936 -0.202253,-0.20351 -0.369549,-0.36954 -0.129842,-0.11112 -0.128593,-0.10987 -0.166047,-0.14856 -0.129842,-0.11112 -0.167296,-0.14732 a 16.057905,16.057905 0 0 0 -9.945364,-3.77165 c -3.051276,-0.0749 -6.027644,0.68417 -8.614488,2.23727 l -2.108676,-2.20106 a 19.018043,19.018043 0 0 1 10.796824,-3.01382 18.919413,18.919413 0 0 1 11.758152,4.45581 h 0.03745 l 4.344699,-4.12621 a 4.8353495,4.8353495 0 0 1 4.616866,-6.28109 z"
       id="path2"
       style="stroke-width:1.24848;fill:#ffffff" />
    <path
       fill="#047aed"
       d="m 64.162532,109.91906 c 0.546833,0.002 1.092417,0.0449 1.634256,0.10737 7.801729,0.98005 13.328735,8.09762 12.367408,15.89935 -0.980054,7.80297 -8.097619,13.32998 -15.899348,12.36865 -7.80173,-0.98005 -13.329984,-8.09887 -12.368657,-15.89935 0.931364,-7.23741 7.011444,-12.45105 14.266341,-12.47602 z m -0.213489,6.11004 c -3.158646,0.25344 -5.443358,2.64178 -5.524509,5.81665 0.04994,2.20481 1.001278,3.76166 2.804078,4.98018 l 0.43447,0.23596 -1.098659,5.16744 h 7.36726 l -1.097411,-5.16869 c 2.022532,-1.04123 3.179869,-2.95265 3.237299,-5.21489 -0.04245,-3.276 -2.576855,-5.74299 -5.822894,-5.82414 z m 0.109865,-0.0312 h -0.01873 z m 38.024852,1.24723 c -0.35832,0 -0.61051,0.0724 -1.04123,0.64671 l -5.957732,7.75304 2.584346,-14.53726 c 0.107369,-0.5381 -0.17978,-0.71788 -0.610505,-0.71788 H 91.67396 c -0.645462,0 -0.823994,0.32336 -0.896406,0.71788 l -4.630599,26.23798 c -0.107369,0.5743 0.250943,0.79029 0.645462,0.79029 h 5.384679 c 0.394519,0 0.789037,-0.39577 0.861449,-0.79029 l 1.435748,-8.18376 3.12244,8.18376 c 0.215986,0.5743 0.503136,0.79029 0.897654,0.79029 h 6.460863 c 0.46693,0 0.64547,-0.43073 0.46693,-0.79029 l -4.59439,-10.05024 8.18376,-9.29615 c 0.28715,-0.28715 0.25095,-0.75408 -0.25219,-0.75408 z m 24.98701,7.39472 c 0,-4.27228 -2.44078,-7.71808 -7.64567,-7.71808 -5.99394,0 -10.08645,2.65676 -11.27,9.76309 l -0.39577,2.36961 a 11.054011,11.054011 0 0 0 -0.14357,1.83026 c 0,5.09753 3.94893,7.57326 7.93282,7.57326 3.01507,0 5.45584,-0.35831 7.8604,-1.11114 0.61051,-0.18103 0.79029,-0.43197 0.89766,-1.00627 l 0.5743,-3.22981 v -0.14358 c 0,-0.3246 -0.21599,-0.46693 -0.5381,-0.46693 h -0.14357 c -1.36458,0.14358 -4.99016,0.28715 -6.89159,0.28715 -1.79531,0 -2.94391,-0.25094 -2.94391,-2.04625 0,-0.32336 0.0362,-0.68167 0.10737,-1.11239 h 11.16388 a 0.92012718,0.92012718 0 0 0 0.8964,-0.79029 l 0.35957,-2.15362 c 0.10736,-0.68167 0.17978,-1.36334 0.17978,-2.04501 z m -6.46087,-0.25219 c 0,0.43073 -0.0724,0.93386 -0.17978,1.43575 h -5.31227 c 0.43073,-2.045 1.29218,-3.55316 3.30222,-3.55316 1.61553,0 2.18983,0.86144 2.18983,2.11741 z m 30.62138,-6.60444 c 0,-0.28715 -0.32335,-0.53684 -0.64546,-0.53684 h -5.92277 c -0.39452,0 -0.75408,0.28715 -0.89766,0.68042 l -5.13248,12.99414 h -0.28715 c -0.21474,0 -0.25095,-0.17978 -0.28715,-0.61051 L 137.4119,117.963 c -0.035,-0.39452 -0.17854,-0.71787 -0.5743,-0.71787 h -5.7767 c -0.61051,0 -0.89766,0.28715 -0.89766,0.68167 v 0.10861 l 2.08121,17.0854 c 0.21599,1.83027 1.1486,2.47573 2.83654,2.47573 h 0.46693 l -0.50313,1.18606 c -0.43073,1.03998 -1.18481,1.36333 -2.18983,1.36333 -1.36334,0 -3.51696,-0.21598 -4.84534,-0.28715 h -0.0362 c -0.43072,0 -0.86144,0.35832 -0.93261,0.75283 l -0.6105,3.48325 v 0.10612 c 0,0.32461 0.32335,0.43073 0.68167,0.5743 0.93386,0.35956 3.30222,0.64671 4.73796,0.64671 5.63563,0 7.68188,-2.22603 9.44098,-6.06634 l 9.87046,-21.32024 a 0.66543797,0.66543797 0 0 0 0.0712,-0.25219 z"
       id="path4"
       style="stroke-width:1.24848" />
    <path
       fill="#2e3234"
       d="m 167.17807,118.07036 c 0,-0.35831 -0.21598,-0.46568 -0.6105,-0.5743 -0.96882,-0.24969 -2.69172,-0.5743 -4.81038,-0.5743 -5.52701,0 -9.08017,2.76413 -10.22877,9.44098 l -0.46693,2.69172 a 13.928004,13.928004 0 0 0 -0.17978,2.04625 c 0,4.19863 2.44077,7.35727 7.07137,7.35727 2.11742,0 3.76915,-0.28715 5.02512,-0.5743 0.50313,-0.10737 0.79028,-0.28715 0.86145,-0.75283 l 0.71787,-4.02009 v -0.14358 c 0,-0.3246 -0.25094,-0.53934 -0.5743,-0.53934 h -0.0712 c -1.25722,0.0724 -2.40582,0.21599 -4.16367,0.21599 -1.22101,0 -1.93888,-0.43073 -1.93888,-2.04626 0,-0.43072 0.0362,-0.93261 0.14357,-1.54311 l 0.46693,-2.69172 c 0.50189,-2.98011 1.54312,-3.62557 3.08623,-3.62557 1.75911,0 2.83654,0.17978 4.0563,0.25094 h 0.0724 c 0.39452,0 0.75283,-0.28715 0.82399,-0.68167 l 0.71912,-4.0563 z m 22.40142,-7.07012 c 0,-0.35956 -0.32211,-0.61176 -0.68167,-0.61176 h -5.34847 c -0.39452,0 -0.75284,0.32461 -0.824,0.71913 l -1.07743,6.06634 c -0.71788,-0.10861 -1.93889,-0.25219 -2.51319,-0.25219 -6.53203,0 -9.79929,2.72792 -10.98284,9.36857 l -0.50314,2.80033 a 11.265003,11.265003 0 0 0 -0.17978,1.83027 c 0,4.41461 3.05128,7.53705 7.96902,7.53705 3.22981,0 6.28109,-0.50189 8.21997,-0.8964 1.1486,-0.2522 1.32713,-0.46693 1.43575,-1.1486 l 4.48703,-25.30662 z m -8.9366,11.77313 -1.7229,9.83425 c -0.68291,0.10737 -1.43574,0.17978 -2.47697,0.17978 -1.54312,0 -2.08121,-0.89765 -2.08121,-2.29719 0,-0.43073 0.035,-0.89766 0.14232,-1.39955 l 0.50314,-2.80033 c 0.35831,-2.08121 1.21976,-3.66053 3.22981,-3.66053 0.86145,0 1.68794,0.0712 2.40581,0.14357 z m 28.93469,0.2497 c 0,-4.0201 -1.65173,-6.10131 -5.63562,-6.10131 -1.32713,0 -3.30222,0.32461 -5.81415,1.97509 l 0.17978,-0.93386 c 0.10737,-0.53809 -0.14358,-0.71787 -0.61176,-0.71787 h -4.9165 c -0.39452,0 -0.75408,0.32335 -0.82524,0.71787 l -3.4458,19.3826 c -0.0724,0.50314 0.32336,0.79029 0.82525,0.79029 h 5.13248 c 0.53935,0 0.89766,-0.35957 0.97007,-0.79029 l 2.44077,-13.89055 c 0.64546,-0.35956 1.97259,-0.79029 3.05003,-0.79029 1.22101,0 1.68794,0.28715 1.68794,1.4008 0,0.60925 -0.14357,1.21976 -0.25219,1.83026 l -2.01005,11.44978 c -0.0712,0.35956 0,0.79029 0.61051,0.79029 h 5.38468 c 0.43072,0 0.82399,-0.39577 0.8964,-0.79029 l 1.97509,-11.19883 c 0.17853,-1.00503 0.35831,-2.18983 0.35831,-3.12244 z"
       id="path6"
       style="stroke-width:1.24848;fill:#ffffff" />
  </g>
</svg>
