<?xml version="1.0" encoding="UTF-8" standalone="no"?>
<svg
   xmlns:dc="http://purl.org/dc/elements/1.1/"
   xmlns:cc="http://creativecommons.org/ns#"
   xmlns:rdf="http://www.w3.org/1999/02/22-rdf-syntax-ns#"
   xmlns:svg="http://www.w3.org/2000/svg"
   xmlns="http://www.w3.org/2000/svg"
   xmlns:xlink="http://www.w3.org/1999/xlink"
   xmlns:sodipodi="http://sodipodi.sourceforge.net/DTD/sodipodi-0.dtd"
   xmlns:inkscape="http://www.inkscape.org/namespaces/inkscape"
   width="248.0px"
   height="248.0px"
   viewBox="0 0 248.0 248.0"
   version="1.1"
   id="SVGRoot"
   sodipodi:docname="linode-1 White.svg"
   inkscape:version="1.0.2-2 (e86c870879, 2021-01-15)">
  <defs
     id="defs1402">
    <inkscape:path-effect
       effect="fillet_chamfer"
       id="path-effect2040"
       is_visible="true"
       lpeversion="1"
       satellites_param="F,0,0,1,0,0,0,1 @ F,0,0,1,0,6.0755415,0,1 @ F,0,0,1,0,6.1445293,0,1 @ F,0,0,1,0,0,0,1"
       unit="px"
       method="auto"
       mode="F"
       radius="0"
       chamfer_steps="1"
       flexible="false"
       use_knot_distance="true"
       apply_no_radius="true"
       apply_with_radius="true"
       only_selected="true"
       hide_knots="false" />
    <style
       id="style1979">.cls-1{fill:url(#GreenGradient);}.cls-2{fill:#fff;}</style>
    <linearGradient
       id="GreenGradient"
       x1="-522.53"
       y1="465.47"
       x2="-416.47"
       y2="571.53"
       gradientTransform="rotate(-90,-456.5,24.5)"
       gradientUnits="userSpaceOnUse">
      <stop
         offset="0"
         stop-color="#1b660f"
         id="stop1981" />
      <stop
         offset="1"
         stop-color="#6cae3e"
         id="stop1983" />
    </linearGradient>
    <linearGradient
       id="OrangeGradient"
       x1="1131.1"
       y1="-516.47998"
       x2="1131.1"
       y2="-366.48001"
       gradientTransform="rotate(-135,816.69218,-8.7994369)"
       gradientUnits="userSpaceOnUse">
      <stop
         offset="0"
         stop-color="#c8511b"
         id="stop138" />
      <stop
         offset="1"
         stop-color="#f90"
         id="stop140" />
    </linearGradient>
    <clipPath
       id="clip1">
      <path
         d="m 93,27 h 58 V 88.851563 H 93 Z m 0,0"
         id="path2" />
    </clipPath>
    <clipPath
       id="clip2">
      <path
         d="m 161,10 h 41 v 78.851563 h -41 z m 0,0"
         id="path5" />
    </clipPath>
    <clipPath
       id="clip3">
      <path
         d="m 206,0 h 65 v 88.851563 h -65 z m 0,0"
         id="path8" />
    </clipPath>
    <clipPath
       id="clip4">
      <path
         d="m 322,26 h 57 v 62.851563 h -57 z m 0,0"
         id="path11" />
    </clipPath>
    <clipPath
       id="clip5">
      <path
         d="m 415,26 h 58.05859 V 87 H 415 Z m 0,0"
         id="path14" />
    </clipPath>
    <clipPath
       id="clip6">
      <path
         d="M 0,3 H 87 V 88.851563 H 0 Z m 0,0"
         id="path17" />
    </clipPath>
    <clipPath
       id="b">
      <use
         xlink:href="#a"
         overflow="visible"
         id="use5"
         x="0"
         y="0"
         width="100%"
         height="100%" />
    </clipPath>
    <clipPath
       id="d">
      <use
         xlink:href="#c"
         overflow="visible"
         id="use21"
         x="0"
         y="0"
         width="100%"
         height="100%" />
    </clipPath>
    <linearGradient
       id="e"
       gradientUnits="userSpaceOnUse"
       x1="-17845.727"
       y1="-3022.7009"
       x2="-17300.025"
       y2="-3131.4309"
       gradientTransform="matrix(0.1741,0,0,-0.1741,5044.277,-686.514)">
      <stop
         offset="0"
         stop-color="#2b7a77"
         id="stop30" />
      <stop
         offset=".51"
         stop-color="#4ebaa9"
         id="stop32" />
      <stop
         offset="1"
         stop-color="#5cc2b1"
         id="stop34" />
    </linearGradient>
    <linearGradient
       id="f"
       gradientUnits="userSpaceOnUse"
       x1="-16495.199"
       y1="-6380.3711"
       x2="-16765.998"
       y2="-5744.4058"
       gradientTransform="matrix(0.1741,0,0,-0.1741,5044.277,-686.514)">
      <stop
         offset="0"
         stop-color="#236736"
         id="stop39" />
      <stop
         offset=".493"
         stop-color="#6ba443"
         id="stop41" />
      <stop
         offset="1"
         stop-color="#86c146"
         id="stop43" />
    </linearGradient>
    <linearGradient
       id="g"
       gradientUnits="userSpaceOnUse"
       x1="-16221.797"
       y1="-6660.6538"
       x2="-15823.801"
       y2="-5712.8491"
       gradientTransform="matrix(0.1741,0,0,-0.1741,5044.277,-686.514)">
      <stop
         offset="0"
         stop-color="#29a5e3"
         id="stop48" />
      <stop
         offset=".515"
         stop-color="#356eb9"
         id="stop50" />
      <stop
         offset="1"
         stop-color="#394da5"
         id="stop52" />
    </linearGradient>
    <path
       id="a"
       d="M 196.35,-37.141 H 1196.36 V 128.657 H 196.35 Z" />
    <path
       id="c"
       d="M 196.35,-37.141 H 1196.36 V 128.657 H 196.35 Z" />
    <radialGradient
       cx="202.91011"
       cy="65.021362"
       fx="202.91011"
       fy="65.021362"
       r="48.504616"
       id="a-5"
       gradientTransform="scale(1.0005153,0.99948493)"
       gradientUnits="userSpaceOnUse">
      <stop
         stop-color="#FFF"
         offset="0%"
         id="stop2" />
      <stop
         stop-color="#FCE800"
         offset="19.02%"
         id="stop4" />
      <stop
         stop-color="#EC8F27"
         offset="85.93%"
         id="stop6" />
    </radialGradient>
    <linearGradient
       x1="134.77487"
       y1="49.381653"
       x2="134.77487"
       y2="0.55994713"
       id="b-0"
       gradientTransform="scale(1.0256763,0.97496651)"
       gradientUnits="userSpaceOnUse">
      <stop
         stop-color="#F68B1F"
         offset="0%"
         id="stop9" />
      <stop
         stop-color="#FFF"
         offset="100%"
         id="stop11" />
    </linearGradient>
    <linearGradient
       x1="53.483879"
       y1="44.051418"
       x2="64.062614"
       y2="62.661644"
       id="c-7"
       gradientUnits="userSpaceOnUse">
      <stop
         stop-color="#FFF"
         offset="0%"
         id="stop14" />
      <stop
         stop-color="#FEF6ED"
         offset="4.821%"
         id="stop16" />
      <stop
         stop-color="#FBD0A5"
         offset="25.69%"
         id="stop18" />
      <stop
         stop-color="#F9B26B"
         offset="44.42%"
         id="stop20" />
      <stop
         stop-color="#F79D42"
         offset="60.34%"
         id="stop22" />
      <stop
         stop-color="#F69028"
         offset="72.82%"
         id="stop24" />
      <stop
         stop-color="#F68B1F"
         offset="80.33%"
         id="stop26" />
    </linearGradient>
    <linearGradient
       x1="2.05039"
       y1="68.696198"
       x2="42.65826"
       y2="192.964"
       id="d-8"
       gradientTransform="scale(1.409801,0.70931995)"
       gradientUnits="userSpaceOnUse">
      <stop
         stop-color="#FFF"
         offset="0%"
         id="stop29" />
      <stop
         stop-color="#FEF6ED"
         offset="4.821%"
         id="stop31" />
      <stop
         stop-color="#FBD0A5"
         offset="25.69%"
         id="stop33" />
      <stop
         stop-color="#F9B26B"
         offset="44.42%"
         id="stop35" />
      <stop
         stop-color="#F79D42"
         offset="60.34%"
         id="stop37" />
      <stop
         stop-color="#F69028"
         offset="72.82%"
         id="stop39-9" />
      <stop
         stop-color="#F68B1F"
         offset="80.33%"
         id="stop41-3" />
    </linearGradient>
    <linearGradient
       x1="180.28741"
       y1="90.57383"
       x2="173.40768"
       y2="123.44773"
       id="e-2"
       gradientTransform="scale(1.2768133,0.78319989)"
       gradientUnits="userSpaceOnUse">
      <stop
         stop-color="#FFF"
         offset="0%"
         id="stop44" />
      <stop
         stop-color="#FEF6ED"
         offset="4.821%"
         id="stop46" />
      <stop
         stop-color="#FBD0A5"
         offset="25.69%"
         id="stop48-4" />
      <stop
         stop-color="#F9B26B"
         offset="44.42%"
         id="stop50-9" />
      <stop
         stop-color="#F79D42"
         offset="60.34%"
         id="stop52-4" />
      <stop
         stop-color="#F69028"
         offset="72.82%"
         id="stop54" />
      <stop
         stop-color="#F68B1F"
         offset="80.33%"
         id="stop56" />
    </linearGradient>
    <linearGradient
       x1="43.736912"
       y1="243.13164"
       x2="43.736912"
       y2="325.8479"
       id="f-6"
       gradientTransform="scale(2.9399166,0.3401457)"
       gradientUnits="userSpaceOnUse">
      <stop
         stop-color="#F68B1F"
         offset="0%"
         id="stop59" />
      <stop
         stop-color="#CB672F"
         offset="53.08%"
         id="stop61" />
      <stop
         stop-color="#A1453F"
         offset="100%"
         id="stop63" />
    </linearGradient>
    <radialGradient
       cx="97.375191"
       cy="132.38023"
       fx="97.375191"
       fy="132.38023"
       r="38.978508"
       id="g-9"
       gradientTransform="scale(1.6664459,0.60007949)"
       gradientUnits="userSpaceOnUse">
      <stop
         stop-color="#FFF"
         offset="0%"
         id="stop66" />
      <stop
         stop-color="#FCE800"
         offset="13.34%"
         id="stop68" />
      <stop
         stop-color="#EC8F27"
         offset="85.93%"
         id="stop70" />
    </radialGradient>
    <clipPath
       id="SVGID_6_-5">
      <use
         xlink:href="#SVGID_5_"
         overflow="visible"
         id="use35-6"
         x="0"
         y="0"
         width="100%"
         height="100%" />
    </clipPath>
    <clipPath
       id="SVGID_9_-3">
      <use
         xlink:href="#SVGID_8_-7"
         overflow="visible"
         id="use48-3"
         x="0"
         y="0"
         width="100%"
         height="100%" />
    </clipPath>
    <clipPath
       id="SVGID_11_-0">
      <use
         xlink:href="#SVGID_10_-9"
         overflow="visible"
         id="use58-5"
         x="0"
         y="0"
         width="100%"
         height="100%" />
    </clipPath>
    <clipPath
       id="SVGID_13_-2">
      <use
         xlink:href="#SVGID_12_-4"
         overflow="visible"
         id="use68-7"
         x="0"
         y="0"
         width="100%"
         height="100%" />
    </clipPath>
    <clipPath
       id="SVGID_15_-4">
      <use
         xlink:href="#SVGID_14_-9"
         overflow="visible"
         id="use78-1"
         x="0"
         y="0"
         width="100%"
         height="100%" />
    </clipPath>
    <path
       id="path392"
       d="m 139.8,0 h -27.5 c -6.7,0 -12.2,5.5 -12.2,12.2 V 48 h -40 c -6.6,0 -12,5.4 -12,12 v 40 H 12 c -6.6,0 -12,5.4 -12,12 v 28 c 0,6.6 5.4,12 12,12 h 127.8 c 6.7,0 12.2,-5.5 12.2,-12.2 V 12.2 C 152,5.5 146.5,0 139.8,0 Z" />
    <path
       id="path399"
       d="m 139.8,0 h -27.5 c -6.7,0 -12.2,5.5 -12.2,12.2 V 48 h -40 c -6.6,0 -12,5.4 -12,12 v 40 H 12 c -6.6,0 -12,5.4 -12,12 v 28 c 0,6.6 5.4,12 12,12 h 127.8 c 6.7,0 12.2,-5.5 12.2,-12.2 V 12.2 C 152,5.5 146.5,0 139.8,0 Z" />
    <path
       id="path406"
       d="m 139.8,0 h -27.5 c -6.7,0 -12.2,5.5 -12.2,12.2 V 48 h -40 c -6.6,0 -12,5.4 -12,12 v 40 H 12 c -6.6,0 -12,5.4 -12,12 v 28 c 0,6.6 5.4,12 12,12 h 127.8 c 6.7,0 12.2,-5.5 12.2,-12.2 V 12.2 C 152,5.5 146.5,0 139.8,0 Z" />
    <path
       id="path413"
       d="m 139.8,0 h -27.5 c -6.7,0 -12.2,5.5 -12.2,12.2 V 48 h -40 c -6.6,0 -12,5.4 -12,12 v 40 H 12 c -6.6,0 -12,5.4 -12,12 v 28 c 0,6.6 5.4,12 12,12 h 127.8 c 6.7,0 12.2,-5.5 12.2,-12.2 V 12.2 C 152,5.5 146.5,0 139.8,0 Z" />
    <linearGradient
       id="a-4"
       gradientUnits="userSpaceOnUse"
       x1="175.5"
       x2="175.5"
       y1="45"
       y2="148.5"
       gradientTransform="matrix(0.36630442,0,0,0.36630442,59.707192,57.14917)">
      <stop
         offset="0"
         stop-color="#f05a28"
         id="stop2-0" />
      <stop
         offset="1"
         stop-color="#fbca0a"
         id="stop4-20" />
    </linearGradient>
  </defs>
  <sodipodi:namedview
     id="base"
     pagecolor="#ffffff"
     bordercolor="#666666"
     borderopacity="1.0"
     inkscape:pageopacity="0"
     inkscape:pageshadow="2"
     inkscape:zoom="1.6535746"
     inkscape:cx="124"
     inkscape:cy="124"
     inkscape:document-units="px"
     inkscape:current-layer="layer2"
     inkscape:document-rotation="0"
     showgrid="true"
     inkscape:window-width="1366"
     inkscape:window-height="705"
     inkscape:window-x="-8"
     inkscape:window-y="-8"
     inkscape:window-maximized="1"
     inkscape:snap-global="false"
     showguides="true">
    <inkscape:grid
       type="xygrid"
       id="grid1972" />
  </sodipodi:namedview>
  <metadata
     id="metadata1405">
    <rdf:RDF>
      <cc:Work
         rdf:about="">
        <dc:format>image/svg+xml</dc:format>
        <dc:type
           rdf:resource="http://purl.org/dc/dcmitype/StillImage" />
        <dc:title />
      </cc:Work>
    </rdf:RDF>
  </metadata>
  <g
     inkscape:groupmode="layer"
     id="layer3"
     inkscape:label="BG" />
  <g
     inkscape:groupmode="layer"
     id="layer4"
     inkscape:label="Bounding Box" />
  <g
     inkscape:groupmode="layer"
     id="layer2"
     inkscape:label="Top">
    <g
       id="g858"
       transform="translate(-0.19315289,-0.04989999)">
      <path
         style="fill:none;fill-opacity:1;stroke:#000000;stroke-width:4.5;stroke-linecap:round;stroke-linejoin:round;stroke-miterlimit:4;stroke-dasharray:none;stroke-opacity:1;paint-order:normal"
         id="path883"
         sodipodi:type="arc"
         sodipodi:cx="154.57903"
         sodipodi:cy="83.172447"
         sodipodi:rx="111.24604"
         sodipodi:ry="111.24604"
         sodipodi:start="5.9893981"
         sodipodi:end="5.9807042"
         sodipodi:open="true"
         sodipodi:arc-type="arc"
         transform="rotate(16.68412)"
         d="M 261.05862,50.957904 A 111.24604,111.24604 0 0 1 187.02492,189.58178 111.24604,111.24604 0 0 1 48.240468,115.84955 111.24604,111.24604 0 0 1 121.67088,-23.094836 111.24604,111.24604 0 0 1 260.77453,50.03341" />
      <path
         style="fill:#3d3846;fill-opacity:0.326613;stroke:none;stroke-width:4.45107;stroke-linecap:round;stroke-linejoin:round;stroke-miterlimit:4;stroke-dasharray:none;stroke-opacity:1;paint-order:normal"
         id="path885"
         sodipodi:type="arc"
         sodipodi:cx="154.57903"
         sodipodi:cy="83.172447"
         sodipodi:rx="110.03654"
         sodipodi:ry="110.03654"
         sodipodi:start="5.9893981"
         sodipodi:end="5.9807042"
         sodipodi:open="true"
         sodipodi:arc-type="arc"
         transform="rotate(16.68412)"
         d="M 259.90094,51.308151 A 110.03654,110.03654 0 0 1 186.67216,188.42486 110.03654,110.03654 0 0 1 49.396616,115.49427 110.03654,110.03654 0 0 1 122.02867,-21.939463 110.03654,110.03654 0 0 1 259.61994,50.393709" />
    </g>
    <g
       id="g19"
       transform="matrix(0.44210361,0,0,0.44210361,67.410651,56.128015)">
      <path
         d="M 66.766,141.595 54.126,57.699 2.919,26.102 18.173,104.986 66.767,141.595 Z M 78.75,231.81 70.687,172.32 25.144,134.622 36.911,193.458 Z m -36.173,-13.292 8.063,44.67 38.788,40.315 -5.448,-45.544 z m 115.71,-13.73 -19.938,-14.817 c 0,0 -0.284,5.306 -0.817,5.666 l -14.546,10.242 15.907,13.074 0.927,14.873 18.903,15.417 -0.435,-44.454 z m 60.253,-43.472 -3.596,41.893 -13.401,-8.825 c 0,0 1.477,-21.181 1.47,-21.192 -0.077,-0.142 -25.822,-17.433 -25.822,-17.433 l 0.817,-19.285 z"
         fill="#004711"
         id="path2-9"
         style="fill:#004711;fill-opacity:1" />
      <path
         d="m 133.665,106.947 -3.704,-78.012 -75.833,28.764 12.638,83.896 z m 3.487,88.472 -3.051,-59.49 -63.412,36.39 9.37,61.016 z m 1.089,24.188 -54.26,38.352 6.756,46.85 49.465,-39.441 z m 20.92,-15.036 0.87,45.326 39.225,-31.815 1.96,-43.147 z m 93.429,-65.646 -5.121,39.769 -30.671,24.624 3.65,-41.784 32.142,-22.61 z"
         fill="#00B159"
         id="path4-2"
         style="fill:#00b159;fill-opacity:1" />
      <path
         d="m 140.278,218.847 c -0.002,-0.038 -0.016,-0.073 -0.02,-0.11 a 1.799,1.799 0 0 0 -0.107,-0.46 1.724,1.724 0 0 0 -0.125,-0.26 c -0.028,-0.05 -0.055,-0.1 -0.088,-0.146 a 1.784,1.784 0 0 0 -0.202,-0.234 c -0.035,-0.035 -0.066,-0.074 -0.104,-0.107 l -0.028,-0.03 -14.511,-11.843 13.343,-8.99 c 0.533,-0.36 0.839,-0.966 0.81,-1.603 l -0.135,-3.165 17.692,13.504 0.344,41.008 -16.276,-13.702 z m -71.23,-45.953 8.205,56.072 -38.886,-36.633 -11.26,-54.382 41.94,34.943 z m 66.478,21.296 -54.29,36.575 -8.467,-57.86 60.384,-34.37 z M 128.544,30.739 131.773,106.233 67.885,139.478 56.037,58.6 Z M 52.304,58.519 63.953,138.035 20.026,103.8 4.5,28.795 52.305,58.52 Z m 0.678,204.375 -8.3,-40.105 36.998,36.387 5.926,40.468 z m 85.558,1.459 -46.91,37.37 -6.238,-42.582 51.354,-36.742 z m 58.888,-46.95 -36.6,29.192 -0.342,-41.166 39.383,-28.17 z m 5.109,-23.378 1.24,-20.395 c 0,-0.023 -0.006,-0.044 -0.006,-0.067 0,-0.027 0.009,-0.052 0.008,-0.08 -0.001,-0.08 -0.022,-0.158 -0.034,-0.237 -0.01,-0.057 -0.01,-0.114 -0.024,-0.17 a 1.875,1.875 0 0 0 -0.156,-0.41 c -0.006,-0.01 -0.008,-0.023 -0.014,-0.034 a 1.857,1.857 0 0 0 -0.291,-0.388 c -0.023,-0.024 -0.051,-0.042 -0.075,-0.064 -0.074,-0.07 -0.146,-0.141 -0.232,-0.2 l -24.655,-16.282 0.359,-17.868 38.8,24.178 -3.46,39.993 z m 15.22,7.196 3.39,-39.175 30.623,-21.916 -5.147,38.082 -28.865,23.009 z M 256,136.045 c -0.002,-0.035 -0.015,-0.067 -0.02,-0.102 a 1.842,1.842 0 0 0 -0.036,-0.194 1.88,1.88 0 0 0 -0.17,-0.463 1.808,1.808 0 0 0 -0.181,-0.27 c -0.036,-0.045 -0.07,-0.091 -0.11,-0.133 A 1.773,1.773 0 0 0 255.2,134.65 c -0.032,-0.022 -0.055,-0.053 -0.09,-0.073 -0.006,-0.005 -0.016,-0.006 -0.024,-0.011 -0.011,-0.006 -0.02,-0.016 -0.031,-0.022 l -41.91,-23.223 a 1.836,1.836 0 0 0 -1.85,0.043 l -35.374,21.625 c -0.057,0.034 -0.102,0.083 -0.154,0.123 -0.063,0.048 -0.128,0.092 -0.184,0.148 -0.06,0.059 -0.106,0.127 -0.156,0.194 -0.044,0.058 -0.094,0.112 -0.13,0.175 -0.046,0.077 -0.075,0.162 -0.11,0.245 -0.024,0.063 -0.057,0.12 -0.075,0.187 -0.025,0.09 -0.032,0.184 -0.043,0.278 -0.007,0.06 -0.026,0.118 -0.028,0.18 l -0.376,18.779 -14.39,-9.503 a 1.837,1.837 0 0 0 -1.976,-0.037 l -20.702,12.656 -0.897,-21.047 c -0.002,-0.044 -0.018,-0.084 -0.022,-0.128 a 2.078,2.078 0 0 0 -0.048,-0.273 c -0.018,-0.066 -0.045,-0.128 -0.07,-0.192 a 1.735,1.735 0 0 0 -0.104,-0.228 c -0.037,-0.065 -0.081,-0.123 -0.125,-0.183 a 1.74,1.74 0 0 0 -0.148,-0.183 c -0.055,-0.057 -0.116,-0.106 -0.18,-0.157 -0.04,-0.032 -0.072,-0.072 -0.115,-0.102 L 114.343,119.45 134.51,108.956 a 1.847,1.847 0 0 0 0.987,-1.712 L 132.11,28.022 c -0.004,-0.097 -0.027,-0.19 -0.046,-0.284 -0.008,-0.04 -0.01,-0.08 -0.02,-0.118 a 1.764,1.764 0 0 0 -0.188,-0.45 c -0.015,-0.026 -0.036,-0.047 -0.052,-0.071 a 1.802,1.802 0 0 0 -0.253,-0.311 c -0.035,-0.034 -0.073,-0.063 -0.111,-0.094 -0.053,-0.044 -0.1,-0.094 -0.157,-0.132 -0.045,-0.03 -0.096,-0.046 -0.143,-0.072 -0.024,-0.013 -0.042,-0.033 -0.067,-0.045 L 76.736,0.225 a 1.829,1.829 0 0 0 -1.347,-0.1 L 1.279,23.209 1.264,23.217 c -0.03,0.009 -0.056,0.03 -0.086,0.04 a 1.808,1.808 0 0 0 -0.391,0.196 l -0.011,0.005 c -0.041,0.029 -0.07,0.07 -0.107,0.102 -0.094,0.077 -0.188,0.154 -0.265,0.249 -0.055,0.068 -0.092,0.146 -0.137,0.22 -0.045,0.075 -0.095,0.144 -0.13,0.224 -0.04,0.096 -0.06,0.198 -0.082,0.3 -0.015,0.062 -0.042,0.118 -0.051,0.18 -0.001,0.01 0.002,0.019 0,0.028 -0.01,0.093 0,0.186 0.005,0.28 0.003,0.087 -10e-4,0.173 0.014,0.257 0.003,0.014 0,0.027 0.003,0.04 l 16.536,79.869 c 0.09,0.427 0.323,0.808 0.67,1.077 l 22.444,17.493 -16.226,7.726 c -0.03,0.014 -0.052,0.036 -0.08,0.05 -0.025,0.015 -0.052,0.018 -0.076,0.032 -0.036,0.022 -0.06,0.054 -0.093,0.078 a 1.846,1.846 0 0 0 -0.258,0.216 c -0.045,0.045 -0.09,0.089 -0.13,0.138 a 1.884,1.884 0 0 0 -0.2,0.315 c -0.02,0.04 -0.047,0.078 -0.065,0.12 a 1.825,1.825 0 0 0 -0.133,0.482 v 0.02 c -0.003,0.026 0.002,0.052 0,0.078 -0.011,0.15 -0.004,0.3 0.022,0.447 0.003,0.02 -0.001,0.039 0.003,0.058 l 12.44,60.109 c 0.077,0.372 0.265,0.708 0.54,0.967 l 15.622,14.714 -10.352,6.332 a 1.86,1.86 0 0 0 -0.36,0.293 c -0.03,0.029 -0.05,0.062 -0.076,0.093 -0.09,0.106 -0.166,0.219 -0.23,0.342 a 1.851,1.851 0 0 0 -0.204,0.628 c -0.02,0.177 -0.005,0.352 0.025,0.524 0.004,0.019 -10e-4,0.038 0.003,0.058 l 9.638,46.554 c 0.069,0.33 0.228,0.637 0.463,0.886 l 38.982,41.385 c 0.059,0.062 0.127,0.11 0.192,0.164 0.024,0.019 0.044,0.04 0.069,0.059 0.122,0.088 0.25,0.16 0.388,0.216 0.006,0.003 0.01,0.008 0.018,0.01 0.01,0.005 0.024,0.003 0.036,0.007 0.205,0.076 0.42,0.122 0.639,0.122 a 1.82,1.82 0 0 0 0.659,-0.134 c 0.046,-0.018 0.095,-0.027 0.14,-0.05 0.076,-0.036 0.132,-0.094 0.199,-0.14 0.048,-0.03 0.103,-0.045 0.148,-0.081 l 50.145,-39.95 c 0.46,-0.368 0.716,-0.931 0.692,-1.516 l -1.172,-27.43 16.753,14.1 c 0.029,0.025 0.067,0.034 0.098,0.057 0.095,0.07 0.186,0.144 0.294,0.196 0.036,0.016 0.073,0.023 0.109,0.038 0.046,0.018 0.09,0.032 0.136,0.046 0.18,0.057 0.362,0.096 0.547,0.096 0.18,0 0.358,-0.037 0.535,-0.091 0.04,-0.013 0.08,-0.026 0.122,-0.042 0.042,-0.016 0.085,-0.024 0.126,-0.043 0.093,-0.044 0.168,-0.108 0.25,-0.165 0.036,-0.025 0.078,-0.035 0.112,-0.062 l 40.197,-32.056 c 0.409,-0.33 0.657,-0.81 0.689,-1.332 l 1.223,-20.115 12.23,8.513 c 0.026,0.017 0.055,0.023 0.08,0.039 0.036,0.022 0.063,0.054 0.1,0.074 0.072,0.038 0.149,0.057 0.223,0.085 0.05,0.019 0.099,0.042 0.152,0.057 0.162,0.045 0.328,0.074 0.494,0.074 0.18,0 0.36,-0.036 0.537,-0.09 0.04,-0.012 0.08,-0.025 0.12,-0.04 0.04,-0.016 0.084,-0.024 0.125,-0.042 0.1,-0.048 0.186,-0.115 0.274,-0.178 0.029,-0.02 0.064,-0.028 0.092,-0.05 l 32.79,-26.134 a 1.85,1.85 0 0 0 0.678,-1.195 l 5.817,-43.041 c 0.006,-0.046 -0.005,-0.09 -0.002,-0.136 0.004,-0.073 0.019,-0.143 0.015,-0.217 z"
         id="path6-5" />
    </g>
  </g>
</svg>
