<?xml version="1.0" encoding="UTF-8" standalone="no"?>
<svg
   xmlns:dc="http://purl.org/dc/elements/1.1/"
   xmlns:cc="http://creativecommons.org/ns#"
   xmlns:rdf="http://www.w3.org/1999/02/22-rdf-syntax-ns#"
   xmlns:svg="http://www.w3.org/2000/svg"
   xmlns="http://www.w3.org/2000/svg"
   xmlns:xlink="http://www.w3.org/1999/xlink"
   xmlns:sodipodi="http://sodipodi.sourceforge.net/DTD/sodipodi-0.dtd"
   xmlns:inkscape="http://www.inkscape.org/namespaces/inkscape"
   width="248.0px"
   height="248.0px"
   viewBox="0 0 248.0 248.0"
   version="1.1"
   id="SVGRoot"
   sodipodi:docname="mongodb Dark.svg"
   inkscape:version="1.0.2-2 (e86c870879, 2021-01-15)">
  <defs
     id="defs1402">
    <inkscape:path-effect
       effect="fillet_chamfer"
       id="path-effect2040"
       is_visible="true"
       lpeversion="1"
       satellites_param="F,0,0,1,0,0,0,1 @ F,0,0,1,0,6.0755415,0,1 @ F,0,0,1,0,6.1445293,0,1 @ F,0,0,1,0,0,0,1"
       unit="px"
       method="auto"
       mode="F"
       radius="0"
       chamfer_steps="1"
       flexible="false"
       use_knot_distance="true"
       apply_no_radius="true"
       apply_with_radius="true"
       only_selected="true"
       hide_knots="false" />
    <style
       id="style1979">.cls-1{fill:url(#GreenGradient);}.cls-2{fill:#fff;}</style>
    <linearGradient
       id="GreenGradient"
       x1="-522.53"
       y1="465.47"
       x2="-416.47"
       y2="571.53"
       gradientTransform="rotate(-90,-456.5,24.5)"
       gradientUnits="userSpaceOnUse">
      <stop
         offset="0"
         stop-color="#1b660f"
         id="stop1981" />
      <stop
         offset="1"
         stop-color="#6cae3e"
         id="stop1983" />
    </linearGradient>
    <clipPath
       id="clip1">
      <path
         d="m 93,27 h 58 V 88.851563 H 93 Z m 0,0"
         id="path2" />
    </clipPath>
    <clipPath
       id="clip2">
      <path
         d="m 161,10 h 41 v 78.851563 h -41 z m 0,0"
         id="path5" />
    </clipPath>
    <clipPath
       id="clip3">
      <path
         d="m 206,0 h 65 v 88.851563 h -65 z m 0,0"
         id="path8" />
    </clipPath>
    <clipPath
       id="clip4">
      <path
         d="m 322,26 h 57 v 62.851563 h -57 z m 0,0"
         id="path11" />
    </clipPath>
    <clipPath
       id="clip5">
      <path
         d="m 415,26 h 58.05859 V 87 H 415 Z m 0,0"
         id="path14" />
    </clipPath>
    <clipPath
       id="clip6">
      <path
         d="M 0,3 H 87 V 88.851563 H 0 Z m 0,0"
         id="path17" />
    </clipPath>
    <clipPath
       id="b">
      <use
         xlink:href="#a"
         overflow="visible"
         id="use5"
         x="0"
         y="0"
         width="100%"
         height="100%" />
    </clipPath>
    <clipPath
       id="d">
      <use
         xlink:href="#c"
         overflow="visible"
         id="use21"
         x="0"
         y="0"
         width="100%"
         height="100%" />
    </clipPath>
    <linearGradient
       id="e"
       gradientUnits="userSpaceOnUse"
       x1="-17845.727"
       y1="-3022.7009"
       x2="-17300.025"
       y2="-3131.4309"
       gradientTransform="matrix(0.1741,0,0,-0.1741,5044.277,-686.514)">
      <stop
         offset="0"
         stop-color="#2b7a77"
         id="stop30" />
      <stop
         offset=".51"
         stop-color="#4ebaa9"
         id="stop32" />
      <stop
         offset="1"
         stop-color="#5cc2b1"
         id="stop34" />
    </linearGradient>
    <linearGradient
       id="f"
       gradientUnits="userSpaceOnUse"
       x1="-16495.199"
       y1="-6380.3711"
       x2="-16765.998"
       y2="-5744.4058"
       gradientTransform="matrix(0.1741,0,0,-0.1741,5044.277,-686.514)">
      <stop
         offset="0"
         stop-color="#236736"
         id="stop39" />
      <stop
         offset=".493"
         stop-color="#6ba443"
         id="stop41" />
      <stop
         offset="1"
         stop-color="#86c146"
         id="stop43" />
    </linearGradient>
    <linearGradient
       id="g"
       gradientUnits="userSpaceOnUse"
       x1="-16221.797"
       y1="-6660.6538"
       x2="-15823.801"
       y2="-5712.8491"
       gradientTransform="matrix(0.1741,0,0,-0.1741,5044.277,-686.514)">
      <stop
         offset="0"
         stop-color="#29a5e3"
         id="stop48" />
      <stop
         offset=".515"
         stop-color="#356eb9"
         id="stop50" />
      <stop
         offset="1"
         stop-color="#394da5"
         id="stop52" />
    </linearGradient>
    <path
       id="path104"
       d="M 196.35,-37.141 H 1196.36 V 128.657 H 196.35 Z" />
    <path
       id="path114"
       d="M 196.35,-37.141 H 1196.36 V 128.657 H 196.35 Z" />
    <clipPath
       id="b-0">
      <use
         xlink:href="#a"
         overflow="visible"
         id="use5-4"
         x="0"
         y="0"
         width="100%"
         height="100%" />
    </clipPath>
    <clipPath
       id="d-7">
      <use
         xlink:href="#c"
         overflow="visible"
         id="use21-2"
         x="0"
         y="0"
         width="100%"
         height="100%" />
    </clipPath>
    <linearGradient
       id="e-6"
       gradientUnits="userSpaceOnUse"
       x1="-17845.727"
       y1="-3022.7009"
       x2="-17300.025"
       y2="-3131.4309"
       gradientTransform="matrix(0.00755454,0,0,0.00755454,162.32374,160.96514)">
      <stop
         offset="0"
         stop-color="#2b7a77"
         id="stop30-6" />
      <stop
         offset=".51"
         stop-color="#4ebaa9"
         id="stop32-2" />
      <stop
         offset="1"
         stop-color="#5cc2b1"
         id="stop34-6" />
    </linearGradient>
    <linearGradient
       id="f-1"
       gradientUnits="userSpaceOnUse"
       x1="-16495.199"
       y1="-6380.3711"
       x2="-16765.998"
       y2="-5744.4058"
       gradientTransform="matrix(0.00755454,0,0,0.00755454,162.32374,160.96514)">
      <stop
         offset="0"
         stop-color="#236736"
         id="stop39-6" />
      <stop
         offset=".493"
         stop-color="#6ba443"
         id="stop41-2" />
      <stop
         offset="1"
         stop-color="#86c146"
         id="stop43-2" />
    </linearGradient>
    <linearGradient
       id="g-0"
       gradientUnits="userSpaceOnUse"
       x1="-16221.797"
       y1="-6660.6538"
       x2="-15823.801"
       y2="-5712.8491"
       gradientTransform="matrix(0.00755454,0,0,0.00755454,162.32374,160.96514)">
      <stop
         offset="0"
         stop-color="#29a5e3"
         id="stop48-6" />
      <stop
         offset=".515"
         stop-color="#356eb9"
         id="stop50-7" />
      <stop
         offset="1"
         stop-color="#394da5"
         id="stop52-5" />
    </linearGradient>
    <path
       id="path104-1"
       d="M 196.35,-37.141 H 1196.36 V 128.657 H 196.35 Z" />
    <path
       id="path114-3"
       d="M 196.35,-37.141 H 1196.36 V 128.657 H 196.35 Z" />
    <clipPath
       id="b-2">
      <use
         xlink:href="#a"
         overflow="visible"
         id="use5-3"
         x="0"
         y="0"
         width="100%"
         height="100%" />
    </clipPath>
    <clipPath
       id="d-1">
      <use
         xlink:href="#c"
         overflow="visible"
         id="use21-6"
         x="0"
         y="0"
         width="100%"
         height="100%" />
    </clipPath>
    <linearGradient
       id="e-3"
       gradientUnits="userSpaceOnUse"
       x1="-17845.727"
       y1="-3022.7009"
       x2="-17300.025"
       y2="-3131.4309"
       gradientTransform="matrix(0.00755454,0,0,0.00755454,161.91371,158.37582)">
      <stop
         offset="0"
         stop-color="#2b7a77"
         id="stop30-5" />
      <stop
         offset=".51"
         stop-color="#4ebaa9"
         id="stop32-3" />
      <stop
         offset="1"
         stop-color="#5cc2b1"
         id="stop34-5" />
    </linearGradient>
    <linearGradient
       id="f-5"
       gradientUnits="userSpaceOnUse"
       x1="-16495.199"
       y1="-6380.3711"
       x2="-16765.998"
       y2="-5744.4058"
       gradientTransform="matrix(0.00755454,0,0,0.00755454,161.91371,158.37582)">
      <stop
         offset="0"
         stop-color="#236736"
         id="stop39-5" />
      <stop
         offset=".493"
         stop-color="#6ba443"
         id="stop41-8" />
      <stop
         offset="1"
         stop-color="#86c146"
         id="stop43-0" />
    </linearGradient>
    <linearGradient
       id="g-4"
       gradientUnits="userSpaceOnUse"
       x1="-16221.797"
       y1="-6660.6538"
       x2="-15823.801"
       y2="-5712.8491"
       gradientTransform="matrix(0.00755454,0,0,0.00755454,161.91371,158.37582)">
      <stop
         offset="0"
         stop-color="#29a5e3"
         id="stop48-0" />
      <stop
         offset=".515"
         stop-color="#356eb9"
         id="stop50-4" />
      <stop
         offset="1"
         stop-color="#394da5"
         id="stop52-2" />
    </linearGradient>
    <path
       id="path104-13"
       d="M 196.35,-37.141 H 1196.36 V 128.657 H 196.35 Z" />
    <path
       id="path114-2"
       d="M 196.35,-37.141 H 1196.36 V 128.657 H 196.35 Z" />
    <clipPath
       id="b-9">
      <use
         xlink:href="#a"
         overflow="visible"
         id="use5-8"
         x="0"
         y="0"
         width="100%"
         height="100%" />
    </clipPath>
    <clipPath
       id="d-2">
      <use
         xlink:href="#c"
         overflow="visible"
         id="use21-0"
         x="0"
         y="0"
         width="100%"
         height="100%" />
    </clipPath>
    <path
       id="a"
       d="M 196.35,-37.141 H 1196.36 V 128.657 H 196.35 Z" />
    <path
       id="c"
       d="M 196.35,-37.141 H 1196.36 V 128.657 H 196.35 Z" />
    <radialGradient
       cx="202.91011"
       cy="65.021362"
       fx="202.91011"
       fy="65.021362"
       r="48.504616"
       id="a-5"
       gradientTransform="scale(1.0005153,0.99948493)"
       gradientUnits="userSpaceOnUse">
      <stop
         stop-color="#FFF"
         offset="0%"
         id="stop2" />
      <stop
         stop-color="#FCE800"
         offset="19.02%"
         id="stop4" />
      <stop
         stop-color="#EC8F27"
         offset="85.93%"
         id="stop6" />
    </radialGradient>
    <linearGradient
       x1="134.77487"
       y1="49.381653"
       x2="134.77487"
       y2="0.55994713"
       id="b-0-7"
       gradientTransform="scale(1.0256763,0.97496651)"
       gradientUnits="userSpaceOnUse">
      <stop
         stop-color="#F68B1F"
         offset="0%"
         id="stop9" />
      <stop
         stop-color="#FFF"
         offset="100%"
         id="stop11" />
    </linearGradient>
    <linearGradient
       x1="53.483879"
       y1="44.051418"
       x2="64.062614"
       y2="62.661644"
       id="c-7"
       gradientUnits="userSpaceOnUse">
      <stop
         stop-color="#FFF"
         offset="0%"
         id="stop14" />
      <stop
         stop-color="#FEF6ED"
         offset="4.821%"
         id="stop16" />
      <stop
         stop-color="#FBD0A5"
         offset="25.69%"
         id="stop18" />
      <stop
         stop-color="#F9B26B"
         offset="44.42%"
         id="stop20" />
      <stop
         stop-color="#F79D42"
         offset="60.34%"
         id="stop22" />
      <stop
         stop-color="#F69028"
         offset="72.82%"
         id="stop24" />
      <stop
         stop-color="#F68B1F"
         offset="80.33%"
         id="stop26" />
    </linearGradient>
    <linearGradient
       x1="2.05039"
       y1="68.696198"
       x2="42.65826"
       y2="192.964"
       id="d-8"
       gradientTransform="scale(1.409801,0.70931995)"
       gradientUnits="userSpaceOnUse">
      <stop
         stop-color="#FFF"
         offset="0%"
         id="stop29" />
      <stop
         stop-color="#FEF6ED"
         offset="4.821%"
         id="stop31" />
      <stop
         stop-color="#FBD0A5"
         offset="25.69%"
         id="stop33" />
      <stop
         stop-color="#F9B26B"
         offset="44.42%"
         id="stop35" />
      <stop
         stop-color="#F79D42"
         offset="60.34%"
         id="stop37" />
      <stop
         stop-color="#F69028"
         offset="72.82%"
         id="stop39-9" />
      <stop
         stop-color="#F68B1F"
         offset="80.33%"
         id="stop41-3" />
    </linearGradient>
    <linearGradient
       x1="180.28741"
       y1="90.57383"
       x2="173.40768"
       y2="123.44773"
       id="e-2"
       gradientTransform="scale(1.2768133,0.78319989)"
       gradientUnits="userSpaceOnUse">
      <stop
         stop-color="#FFF"
         offset="0%"
         id="stop44" />
      <stop
         stop-color="#FEF6ED"
         offset="4.821%"
         id="stop46" />
      <stop
         stop-color="#FBD0A5"
         offset="25.69%"
         id="stop48-4" />
      <stop
         stop-color="#F9B26B"
         offset="44.42%"
         id="stop50-9" />
      <stop
         stop-color="#F79D42"
         offset="60.34%"
         id="stop52-4" />
      <stop
         stop-color="#F69028"
         offset="72.82%"
         id="stop54" />
      <stop
         stop-color="#F68B1F"
         offset="80.33%"
         id="stop56" />
    </linearGradient>
    <linearGradient
       x1="43.736912"
       y1="243.13164"
       x2="43.736912"
       y2="325.8479"
       id="f-6"
       gradientTransform="scale(2.9399166,0.3401457)"
       gradientUnits="userSpaceOnUse">
      <stop
         stop-color="#F68B1F"
         offset="0%"
         id="stop59" />
      <stop
         stop-color="#CB672F"
         offset="53.08%"
         id="stop61" />
      <stop
         stop-color="#A1453F"
         offset="100%"
         id="stop63" />
    </linearGradient>
    <radialGradient
       cx="97.375191"
       cy="132.38023"
       fx="97.375191"
       fy="132.38023"
       r="38.978508"
       id="g-9"
       gradientTransform="scale(1.6664459,0.60007949)"
       gradientUnits="userSpaceOnUse">
      <stop
         stop-color="#FFF"
         offset="0%"
         id="stop66" />
      <stop
         stop-color="#FCE800"
         offset="13.34%"
         id="stop68" />
      <stop
         stop-color="#EC8F27"
         offset="85.93%"
         id="stop70" />
    </radialGradient>
    <clipPath
       id="SVGID_6_-5">
      <use
         xlink:href="#SVGID_5_"
         overflow="visible"
         id="use35-6"
         x="0"
         y="0"
         width="100%"
         height="100%" />
    </clipPath>
    <clipPath
       id="SVGID_9_-3">
      <use
         xlink:href="#SVGID_8_-7"
         overflow="visible"
         id="use48-3"
         x="0"
         y="0"
         width="100%"
         height="100%" />
    </clipPath>
    <clipPath
       id="SVGID_11_-0">
      <use
         xlink:href="#SVGID_10_-9"
         overflow="visible"
         id="use58-5"
         x="0"
         y="0"
         width="100%"
         height="100%" />
    </clipPath>
    <clipPath
       id="SVGID_13_-2">
      <use
         xlink:href="#SVGID_12_-4"
         overflow="visible"
         id="use68-7"
         x="0"
         y="0"
         width="100%"
         height="100%" />
    </clipPath>
    <clipPath
       id="SVGID_15_-4">
      <use
         xlink:href="#SVGID_14_-9"
         overflow="visible"
         id="use78-1"
         x="0"
         y="0"
         width="100%"
         height="100%" />
    </clipPath>
    <path
       id="path392"
       d="m 139.8,0 h -27.5 c -6.7,0 -12.2,5.5 -12.2,12.2 V 48 h -40 c -6.6,0 -12,5.4 -12,12 v 40 H 12 c -6.6,0 -12,5.4 -12,12 v 28 c 0,6.6 5.4,12 12,12 h 127.8 c 6.7,0 12.2,-5.5 12.2,-12.2 V 12.2 C 152,5.5 146.5,0 139.8,0 Z" />
    <path
       id="path399"
       d="m 139.8,0 h -27.5 c -6.7,0 -12.2,5.5 -12.2,12.2 V 48 h -40 c -6.6,0 -12,5.4 -12,12 v 40 H 12 c -6.6,0 -12,5.4 -12,12 v 28 c 0,6.6 5.4,12 12,12 h 127.8 c 6.7,0 12.2,-5.5 12.2,-12.2 V 12.2 C 152,5.5 146.5,0 139.8,0 Z" />
    <path
       id="path406"
       d="m 139.8,0 h -27.5 c -6.7,0 -12.2,5.5 -12.2,12.2 V 48 h -40 c -6.6,0 -12,5.4 -12,12 v 40 H 12 c -6.6,0 -12,5.4 -12,12 v 28 c 0,6.6 5.4,12 12,12 h 127.8 c 6.7,0 12.2,-5.5 12.2,-12.2 V 12.2 C 152,5.5 146.5,0 139.8,0 Z" />
    <path
       id="path413"
       d="m 139.8,0 h -27.5 c -6.7,0 -12.2,5.5 -12.2,12.2 V 48 h -40 c -6.6,0 -12,5.4 -12,12 v 40 H 12 c -6.6,0 -12,5.4 -12,12 v 28 c 0,6.6 5.4,12 12,12 h 127.8 c 6.7,0 12.2,-5.5 12.2,-12.2 V 12.2 C 152,5.5 146.5,0 139.8,0 Z" />
    <linearGradient
       id="a-4"
       gradientUnits="userSpaceOnUse"
       x1="175.5"
       x2="175.5"
       y1="45"
       y2="148.5"
       gradientTransform="matrix(0.36630442,0,0,0.36630442,59.707185,57.149168)">
      <stop
         offset="0"
         stop-color="#f05a28"
         id="stop2-0" />
      <stop
         offset="1"
         stop-color="#fbca0a"
         id="stop4-20" />
    </linearGradient>
  </defs>
  <sodipodi:namedview
     id="base"
     pagecolor="#101010"
     bordercolor="#666666"
     borderopacity="1.0"
     inkscape:pageopacity="0"
     inkscape:pageshadow="2"
     inkscape:zoom="1.1107323"
     inkscape:cx="124"
     inkscape:cy="124"
     inkscape:document-units="px"
     inkscape:current-layer="layer2"
     inkscape:document-rotation="0"
     showgrid="true"
     inkscape:window-width="1366"
     inkscape:window-height="705"
     inkscape:window-x="-8"
     inkscape:window-y="-8"
     inkscape:window-maximized="1"
     inkscape:snap-global="false"
     showguides="true">
    <inkscape:grid
       type="xygrid"
       id="grid1972" />
  </sodipodi:namedview>
  <metadata
     id="metadata1405">
    <rdf:RDF>
      <cc:Work
         rdf:about="">
        <dc:format>image/svg+xml</dc:format>
        <dc:type
           rdf:resource="http://purl.org/dc/dcmitype/StillImage" />
        <dc:title />
      </cc:Work>
    </rdf:RDF>
  </metadata>
  <g
     inkscape:groupmode="layer"
     id="layer3"
     inkscape:label="BG" />
  <g
     inkscape:groupmode="layer"
     id="layer4"
     inkscape:label="Bounding Box" />
  <g
     inkscape:groupmode="layer"
     id="layer2"
     inkscape:label="Top">
    <g
       id="g847"
       transform="translate(-0.19315289,-0.04989999)"
       style="fill:#5e5c64">
      <path
         style="fill:#5e5c64;fill-opacity:0.326613;stroke:none;stroke-width:3;stroke-linecap:round;stroke-linejoin:round;stroke-miterlimit:4;stroke-dasharray:none;stroke-opacity:1;paint-order:normal"
         id="path885"
         sodipodi:type="arc"
         sodipodi:cx="154.57903"
         sodipodi:cy="83.172447"
         sodipodi:rx="111.24603"
         sodipodi:ry="111.24603"
         sodipodi:start="5.9893981"
         sodipodi:end="5.9807042"
         sodipodi:open="true"
         sodipodi:arc-type="arc"
         transform="rotate(16.68412)"
         d="M 261.05862,50.957906 A 111.24603,111.24603 0 0 1 187.02492,189.58177 111.24603,111.24603 0 0 1 48.240476,115.84954 111.24603,111.24603 0 0 1 121.67088,-23.094829 111.24603,111.24603 0 0 1 260.77453,50.033412" />
      <path
         style="fill:#5e5c64;fill-opacity:1;stroke:#ffffff;stroke-width:4.5;stroke-linecap:round;stroke-linejoin:round;stroke-miterlimit:4;stroke-dasharray:none;stroke-opacity:1;paint-order:normal"
         id="path883-9"
         sodipodi:type="arc"
         sodipodi:cx="154.57903"
         sodipodi:cy="83.172447"
         sodipodi:rx="111.24604"
         sodipodi:ry="111.24604"
         sodipodi:start="5.9893981"
         sodipodi:end="5.9807042"
         sodipodi:open="true"
         sodipodi:arc-type="arc"
         transform="rotate(16.68412)"
         d="M 261.05862,50.957904 A 111.24604,111.24604 0 0 1 187.02492,189.58178 111.24604,111.24604 0 0 1 48.240468,115.84955 111.24604,111.24604 0 0 1 121.67088,-23.094836 111.24604,111.24604 0 0 1 260.77453,50.03341" />
    </g>
    <path
       d="m 198.67097,119.74406 c -0.15541,0.0311 -0.31151,0.37402 -0.31151,0.56086 -0.0311,1.2474 -0.0622,4.55242 -0.0622,6.79721 0,0.0625 0.0933,0.18717 0.18684,0.18717 0.46761,0.0311 1.59001,0.0622 2.55664,0.0622 1.34066,0 2.12012,-0.18684 2.55698,-0.37368 1.12206,-0.56153 1.65217,-1.77752 1.65217,-3.11851 0,-3.02391 -2.12011,-4.17773 -5.26937,-4.17773 -0.21827,-0.0311 -0.84129,-0.0311 -1.30958,0.0625 z m 8.04462,13.93701 c 0,-3.08675 -2.27621,-4.80176 -6.39177,-4.80176 -0.18718,0 -1.49675,-0.0311 -1.8086,0.0311 -0.0936,0.0314 -0.21793,0.0939 -0.21793,0.18752 0,2.21336 -0.0314,5.73698 0.0622,7.10872 0.0622,0.59228 0.49903,1.43424 1.02914,1.68359 0.56086,0.31185 1.83935,0.37402 2.7124,0.37402 2.46305,0 4.61459,-1.37174 4.61459,-4.58317 z m -14.40462,-15.65169 c 0.31151,0 1.24673,0.0932 3.64761,0.0932 2.27621,0 4.08447,-0.0622 6.29818,-0.0622 2.71239,0 6.45393,0.9663 6.45393,5.01969 0,1.99544 -1.40316,3.58578 -3.24251,4.36524 -0.0932,0.0311 -0.0932,0.0932 0,0.12433 2.61881,0.65513 4.92644,2.27621 4.92644,5.33154 0,2.99351 -1.87077,4.89536 -4.5835,6.08026 -1.65251,0.71695 -3.71012,0.9663 -5.79915,0.9663 -1.59034,0 -5.86166,-0.18684 -8.23112,-0.12434 -0.24934,-0.0939 0.21827,-1.21632 0.43619,-1.40316 0.56153,-0.0314 0.99772,-0.0625 1.59034,-0.24968 0.84196,-0.21793 0.93522,-0.46761 1.05989,-1.74576 0.0625,-1.09131 0.0625,-4.95786 0.0625,-7.70134 0,-3.77262 0.0314,-6.32926 0,-7.57633 -0.0311,-0.9663 -0.37402,-1.27849 -1.05989,-1.46567 -0.53045,-0.0932 -1.40316,-0.21826 -2.12045,-0.31151 -0.15609,-0.1561 0.37402,-1.21632 0.56154,-1.34066 z m -17.99074,19.39323 c 0.74871,0.59194 2.21404,0.84129 3.52361,0.84129 1.68359,0 3.36718,-0.31118 4.98861,-1.77718 1.6525,-1.49608 2.80598,-3.80337 2.80598,-7.4824 0,-3.52362 -1.34065,-6.39211 -4.08447,-8.07536 -1.55892,-0.96698 -3.55436,-1.37174 -5.86166,-1.37174 -0.68587,0 -1.34065,0.0311 -1.74576,0.21792 -0.0939,0.0625 -0.31185,0.34294 -0.31185,0.49869 -0.0625,0.62371 -0.0625,5.42513 -0.0625,8.23146 0,2.89957 0,6.95296 0.0625,7.42057 0,0.46795 0.21793,1.1849 0.68587,1.49675 z m -7.07764,-19.39356 c 0.59262,0 2.86849,0.0936 3.9598,0.0936 1.9647,0 3.36752,-0.0932 7.07764,-0.0932 3.11783,0 5.73698,0.84163 7.60775,2.43163 2.27587,1.96436 3.46111,4.67709 3.46111,7.98177 0,4.70818 -2.15154,7.42091 -4.30308,8.97983 -2.15086,1.59 -4.95718,2.52522 -8.94807,2.52522 -2.12011,0 -5.76806,-0.0622 -8.79265,-0.0936 h -0.0311 c -0.15576,-0.28043 0.24935,-1.37174 0.49869,-1.40282 0.81088,-0.0936 1.02914,-0.12502 1.43458,-0.28043 0.65445,-0.24969 0.77946,-0.59262 0.87305,-1.7461 0.0932,-2.15154 0.0622,-4.73926 0.0622,-7.67026 0,-2.08869 0.0311,-6.1735 -0.0314,-7.48308 -0.0932,-1.09097 -0.56086,-1.37174 -1.49641,-1.55891 -0.46761,-0.0932 -1.09131,-0.21827 -1.96402,-0.31152 -0.12502,-0.2186 0.43618,-1.1849 0.59194,-1.37174 z"
       fill="#8e714e"
       id="path2-3"
       style="fill-rule:evenodd;stroke-width:0.337867;fill:#cdab8f" />
    <path
       d="m 129.51636,138.63826 c -0.77946,-0.0936 -1.34066,-0.21793 -2.02652,-0.52978 -0.0936,-0.0625 -0.24969,-0.37402 -0.24969,-0.49903 -0.0622,-1.09131 -0.0622,-4.20915 -0.0622,-6.29784 0,-1.68393 -0.28043,-3.14926 -0.99772,-4.17806 -0.84196,-1.18524 -2.05761,-1.87077 -3.61686,-1.87077 -1.37174,0 -3.21143,0.93521 -4.73926,2.24479 -0.0311,0.0311 -0.28043,0.24968 -0.24935,-0.0936 0,-0.34294 0.0625,-1.02881 0.0936,-1.49675 0.0314,-0.43653 -0.21826,-0.65445 -0.21826,-0.65445 -0.99772,0.49869 -3.80371,1.15348 -4.83285,1.24673 -0.74804,0.15643 -0.93522,0.87338 -0.15542,1.12273 h 0.0311 c 0.84129,0.24934 1.40283,0.53011 1.83901,0.81088 0.31185,0.24935 0.28077,0.59228 0.28077,0.87305 0.0311,2.33804 0.0311,5.92382 -0.0622,7.88818 -0.0311,0.77946 -0.24934,1.05989 -0.81088,1.18456 l 0.0625,-0.0311 c -0.43653,0.0936 -0.77946,0.18684 -1.30957,0.24934 -0.18718,0.18718 -0.18718,1.1849 0,1.40316 0.34293,0 2.15119,-0.0936 3.64828,-0.0936 2.05761,0 3.11784,0.0936 3.64762,0.0936 0.21826,-0.24934 0.28076,-1.1849 0.15609,-1.40316 -0.59262,-0.0311 -1.02914,-0.0932 -1.43425,-0.21826 -0.56119,-0.12501 -0.71729,-0.4051 -0.74871,-1.05989 -0.0618,-1.65284 -0.0618,-5.1447 -0.0618,-7.51416 0,-0.65479 0.18684,-0.96664 0.37368,-1.15382 0.71729,-0.62336 1.87111,-1.05989 2.89991,-1.05989 0.99773,0 1.65217,0.31186 2.1512,0.7173 0.68587,0.56086 0.90414,1.37174 0.99772,1.96402 0.15576,1.34065 0.0936,3.99088 0.0936,6.29818 0,1.24706 -0.0936,1.55891 -0.56086,1.71467 -0.2186,0.0936 -0.77979,0.2186 -1.43458,0.28043 -0.21826,0.2186 -0.15576,1.18524 0,1.4035 0.90413,0 1.96436,-0.0936 3.52328,-0.0936 1.93294,0 3.18034,0.0936 3.67937,0.0936 0.15542,-0.18718 0.21792,-1.09131 0.0932,-1.34099 z m 8.63656,-11.90982 c -1.65217,0 -2.68132,1.27816 -2.68132,3.27326 0,2.02686 0.90414,4.36524 3.46078,4.36524 0.43652,0 1.2474,-0.18718 1.62108,-0.6237 0.59262,-0.56086 0.99806,-1.68359 0.99806,-2.86849 0,-2.58773 -1.27849,-4.14664 -3.3986,-4.14664 z m -0.21827,13.78058 c -0.62336,0 -1.06022,0.18718 -1.34065,0.34328 -1.30957,0.84129 -1.90185,1.65217 -1.90185,2.61914 0,0.9038 0.34293,1.62075 1.09131,2.24445 0.90413,0.77946 2.15119,1.15382 3.7412,1.15382 3.18034,0 4.5835,-1.71501 4.5835,-3.39827 0,-1.18523 -0.59262,-1.96469 -1.80826,-2.40088 -0.87305,-0.37436 -2.46305,-0.56154 -4.36525,-0.56154 z m 0.21827,8.10679 c -1.90186,0 -3.27393,-0.40545 -4.4585,-1.30958 -1.15381,-0.87305 -1.6525,-2.18262 -1.6525,-3.08675 0,-0.24935 0.0625,-0.93555 0.6237,-1.55892 0.3426,-0.37435 1.09131,-1.09131 2.86849,-2.30729 0.0622,-0.0311 0.0933,-0.0622 0.0933,-0.12501 0,-0.0622 -0.0625,-0.12468 -0.12467,-0.15542 -1.46533,-0.5612 -1.90185,-1.46567 -2.02687,-1.96436 v -0.0625 c -0.0307,-0.18717 -0.0933,-0.37401 0.18752,-0.56119 0.21826,-0.15576 0.53011,-0.34294 0.87271,-0.56086 0.53011,-0.31219 1.09131,-0.65513 1.43425,-0.93589 0.0625,-0.0622 0.0625,-0.12434 0.0625,-0.18684 0,-0.0625 -0.0625,-0.12501 -0.12501,-0.15576 -2.18194,-0.71729 -3.27325,-2.33872 -3.27325,-4.77068 0,-1.59 0.71695,-3.02425 1.9951,-3.92838 0.87305,-0.68587 3.05567,-1.52784 4.48991,-1.52784 h 0.0936 c 1.46533,0.0311 2.27588,0.34294 3.42935,0.74838 0.62371,0.21826 1.21632,0.31151 2.02721,0.31151 1.21564,0 1.74575,-0.37402 2.18194,-0.8102 0.0314,0.0622 0.0939,0.21826 0.12501,0.62336 0.0311,0.40544 -0.0936,0.99772 -0.40544,1.43425 -0.24935,0.34293 -0.81054,0.59262 -1.37174,0.59262 h -0.15609 c -0.5612,-0.0625 -0.81088,-0.12501 -0.81088,-0.12501 l -0.12434,0.0625 c -0.0311,0.0625 0,0.12467 0.0311,0.21826 l 0.0314,0.0625 c 0.0622,0.28043 0.18684,1.12205 0.18684,1.34065 0,2.55664 -1.02881,3.6787 -2.12012,4.52066 -1.06023,0.77946 -2.27587,1.27816 -3.64795,1.40317 -0.0311,0 -0.15542,0 -0.43652,0.0311 -0.15576,0 -0.37402,0.0314 -0.40544,0.0314 h -0.0311 c -0.24934,0.0622 -0.87271,0.37402 -0.87271,0.9038 0,0.4676 0.28043,1.02914 1.62109,1.12273 0.28043,0.0311 0.56086,0.0311 0.87305,0.0625 1.77718,0.12434 3.99088,0.28043 5.01969,0.62337 1.43424,0.52977 2.33837,1.80826 2.33837,3.3361 0,2.30763 -1.65217,4.45883 -4.39598,5.79915 -1.34066,0.59261 -2.68165,0.90447 -4.14698,0.90447 z m 17.7718,-21.73161 c -0.65445,0 -1.24707,0.15542 -1.68359,0.46727 -1.21565,0.74838 -1.83935,2.24513 -1.83935,4.42741 0,4.08481 2.05761,6.9533 4.98861,6.9533 0.87305,0 1.55892,-0.24968 2.1512,-0.74837 0.90413,-0.74872 1.37207,-2.24513 1.37207,-4.33416 0,-4.05305 -2.02686,-6.76579 -4.9886,-6.76579 z m 0.56153,13.3444 c -5.30045,0 -7.20231,-3.8973 -7.20231,-7.54525 0,-2.55664 1.02881,-4.521 3.08642,-5.92416 1.46567,-0.90413 3.21176,-1.40282 4.77068,-1.40282 4.05305,0 6.89046,2.89957 6.89046,7.07763 0,2.83707 -1.12239,5.08186 -3.27393,6.45394 -1.02881,0.68587 -2.80599,1.34066 -4.27165,1.34066 z m -55.56087,-13.34474 c -0.65478,0 -1.247065,0.15576 -1.683927,0.46761 -1.215646,0.74838 -1.839348,2.24513 -1.839348,4.42741 0,4.08481 2.05761,6.9533 4.988605,6.9533 0.87305,0 1.55892,-0.24968 2.15154,-0.74837 0.90379,-0.74872 1.37174,-2.24513 1.37174,-4.33416 0,-4.05305 -1.99544,-6.76579 -4.98861,-6.76579 z m 0.5612,13.34474 c -5.300459,0 -7.202312,-3.8973 -7.202312,-7.54525 0,-2.55664 1.028805,-4.521 3.086415,-5.92416 1.465667,-0.90413 3.211767,-1.40282 4.770677,-1.40282 4.0534,0 6.89046,2.89957 6.89046,7.07763 0,2.83707 -1.12239,5.08186 -3.27393,6.45394 -0.99772,0.68587 -2.7749,1.34066 -4.27131,1.34066 z m -35.637535,-0.31186 c -0.06251,-0.0933 -0.12501,-0.37401 -0.09359,-0.71695 0,-0.24968 0.06251,-0.40544 0.09359,-0.46761 0.654787,-0.0939 0.997722,-0.18751 1.37174,-0.28076 0.623703,-0.1561 0.873049,-0.4987 0.904132,-1.27816 0.09393,-1.87077 0.09393,-5.42546 0.06251,-7.88851 v -0.0625 c 0,-0.28043 0,-0.6237 -0.342935,-0.87305 -0.49903,-0.31151 -1.091311,-0.59194 -1.87077,-0.81088 -0.280429,-0.0929 -0.467608,-0.24901 -0.436524,-0.43585 0,-0.18718 0.187178,-0.40544 0.592619,-0.46794 1.028805,-0.0936 3.709779,-0.74804 4.770006,-1.21599 0.06251,0.0622 0.156094,0.24969 0.156094,0.49903 l -0.03108,0.3426 c -0.03142,0.34327 -0.06251,0.74871 -0.06251,1.15382 0,0.12467 0.125011,0.21826 0.249346,0.21826 0.06251,0 0.125011,-0.0311 0.187178,-0.0625 1.995443,-1.55892 3.803707,-2.12011 4.738923,-2.12011 1.528172,0 2.713071,0.71729 3.617203,2.2137 0.06217,0.0939 0.124673,0.12501 0.218263,0.12501 0.06217,0 0.155418,-0.0311 0.18684,-0.0936 1.839686,-1.40316 3.679371,-2.24512 4.895017,-2.24512 2.899574,0 4.614587,2.15153 4.614587,5.79948 0,1.02881 0,2.36947 -0.03108,3.58579 0,1.09097 -0.03108,2.08869 -0.03108,2.80598 0,0.15542 0.217925,0.65445 0.56086,0.74804 0.436524,0.21826 1.029143,0.31185 1.808602,0.43652 h 0.03108 c 0.06251,0.21827 -0.06217,1.02881 -0.18684,1.1849 -0.187178,0 -0.467946,0 -0.779459,-0.0311 a 46.020186,46.020186 0 0 0 -2.369799,-0.0625 c -1.932937,0 -2.930658,0.0311 -3.897634,0.0936 -0.06183,-0.24934 -0.09325,-0.99772 0,-1.1849 0.561535,-0.0933 0.841965,-0.18717 1.185238,-0.28043 0.623702,-0.18717 0.779459,-0.46794 0.81088,-1.27848 0,-0.59229 0.124336,-5.6434 -0.06284,-6.85938 -0.18684,-1.24707 -1.122394,-2.7124 -3.180342,-2.7124 -0.779459,0 -1.995104,0.31186 -3.180004,1.21565 -0.06217,0.0625 -0.12501,0.21826 -0.12501,0.31185 v 0.0314 c 0.12501,0.65445 0.12501,1.40316 0.12501,2.55664 v 2.02653 c 0,1.40316 -0.03142,2.71273 0,3.71012 0,0.6862 0.405441,0.84196 0.748376,0.96697 0.187178,0.0307 0.311513,0.0622 0.467608,0.0932 0.280429,0.0625 0.561197,0.12501 0.997721,0.21826 0.06251,0.12501 0.06251,0.53012 -0.03108,0.87305 -0.03142,0.18718 -0.09393,0.28043 -0.125011,0.31185 -1.059889,-0.0311 -2.151199,-0.0625 -3.741201,-0.0625 -0.467608,0 -1.278489,0.0314 -1.964358,0.0314 -0.561535,0 -1.091311,0.0311 -1.402824,0.0311 -0.03142,-0.0625 -0.09393,-0.28043 -0.09393,-0.6237 0,-0.28043 0.06251,-0.49869 0.125011,-0.5612 0.155756,-0.0311 0.280429,-0.0622 0.436524,-0.0622 0.373681,-0.0625 0.68587,-0.12501 0.997383,-0.18718 0.530451,-0.15576 0.717292,-0.43653 0.748375,-1.1224 0.09359,-1.55891 0.187179,-6.01741 -0.03108,-7.14014 -0.374019,-1.80826 -1.402824,-2.7124 -3.055669,-2.7124 -0.9663,0 -2.182621,0.46761 -3.180004,1.21633 -0.156095,0.12433 -0.280768,0.43584 -0.280768,0.71661 v 1.83969 c 0,2.24479 0,5.05111 0.03108,6.26709 0.03142,0.37368 0.155757,0.81055 0.873048,0.9663 0.156095,0.0311 0.405441,0.0936 0.717292,0.12501 l 0.560859,0.0933 c 0.06284,0.18718 0.03142,0.93556 -0.09325,1.1849 -0.311851,0 -0.68587,-0.0311 -1.122732,-0.0311 -0.654449,-0.0314 -1.496413,-0.0625 -2.431629,-0.0625 -1.09131,0 -1.870769,0.0311 -2.494472,0.0625 -0.436524,-0.0625 -0.779459,-0.0625 -1.153478,-0.0625 z"
       fill="#442d22"
       id="path4-2"
       style="fill-rule:evenodd;stroke-width:0.337867;fill:#cdab8f" />
    <path
       d="m 49.448644,147.39982 -1.278151,-0.43686 c 0,0 0.156095,-6.5161 -2.18262,-6.98371 -1.558581,-1.8086 0.250021,-76.700197 5.861992,-0.24968 0,0 -1.933275,0.9663 -2.27621,2.61914 -0.374357,1.62142 -0.125011,5.05111 -0.125011,5.05111 z"
       fill="#ffffff"
       id="path6-5"
       style="fill-rule:evenodd;stroke-width:0.337867" />
    <path
       d="m 49.448644,147.39982 -1.278151,-0.43686 c 0,0 0.156095,-6.5161 -2.18262,-6.98371 -1.558581,-1.8086 0.250021,-76.700197 5.861992,-0.24968 0,0 -1.933275,0.9663 -2.27621,2.61914 -0.374357,1.62142 -0.125011,5.05111 -0.125011,5.05111 z"
       fill="#a6a385"
       id="path8-5"
       style="fill-rule:evenodd;stroke-width:0.337867" />
    <path
       d="m 50.134852,141.10164 c 0,0 11.193533,-7.3584 8.57405,-22.66749 -2.525217,-11.13035 -8.480461,-14.7783 -9.135247,-16.18147 -0.716954,-0.99772 -1.403162,-2.743475 -1.403162,-2.743475 l 0.467946,30.960105 c 0,0.0314 -0.966637,9.47852 1.496751,10.63267"
       fill="#ffffff"
       id="path10-1"
       style="fill-rule:evenodd;stroke-width:0.337867" />
    <path
       d="m 50.134852,141.10164 c 0,0 11.193533,-7.3584 8.57405,-22.66749 -2.525217,-11.13035 -8.480461,-14.7783 -9.135247,-16.18147 -0.716954,-0.99772 -1.403162,-2.743475 -1.403162,-2.743475 l 0.467946,30.960105 c 0,0.0314 -0.966637,9.47852 1.496751,10.63267"
       fill="#499d4a"
       id="path12"
       style="fill-rule:evenodd;stroke-width:0.337867" />
    <path
       d="m 47.516045,141.50675 c 0,0 -10.507663,-7.17123 -9.883961,-19.79833 0.592281,-12.62744 8.012854,-18.83203 9.447099,-19.95443 0.935554,-0.99772 0.966638,-1.37207 1.029143,-2.369796 0.654786,1.403166 0.530113,20.983566 0.623365,23.290526 0.280429,8.8859 -0.498692,17.14877 -1.215646,18.83203 z"
       fill="#ffffff"
       id="path14-6"
       style="fill-rule:evenodd;stroke-width:0.337867" />
    <path
       d="m 47.516045,141.50675 c 0,0 -10.507663,-7.17123 -9.883961,-19.79833 0.592281,-12.62744 8.012854,-18.83203 9.447099,-19.95443 0.935554,-0.99772 0.966638,-1.37207 1.029143,-2.369796 0.654786,1.403166 0.530113,20.983566 0.623365,23.290526 0.280429,8.8859 -0.498692,17.14877 -1.215646,18.83203 z"
       fill="#58aa50"
       id="path16"
       style="fill-rule:evenodd;stroke-width:0.337867" />
  </g>
</svg>
