<?xml version="1.0" encoding="UTF-8" standalone="no"?>
<svg
   xmlns:dc="http://purl.org/dc/elements/1.1/"
   xmlns:cc="http://creativecommons.org/ns#"
   xmlns:rdf="http://www.w3.org/1999/02/22-rdf-syntax-ns#"
   xmlns:svg="http://www.w3.org/2000/svg"
   xmlns="http://www.w3.org/2000/svg"
   xmlns:xlink="http://www.w3.org/1999/xlink"
   xmlns:sodipodi="http://sodipodi.sourceforge.net/DTD/sodipodi-0.dtd"
   xmlns:inkscape="http://www.inkscape.org/namespaces/inkscape"
   width="248.0px"
   height="248.0px"
   viewBox="0 0 248.0 248.0"
   version="1.1"
   id="SVGRoot"
   sodipodi:docname="mongodb White.svg"
   inkscape:version="1.0.2-2 (e86c870879, 2021-01-15)">
  <defs
     id="defs1402">
    <inkscape:path-effect
       effect="fillet_chamfer"
       id="path-effect2040"
       is_visible="true"
       lpeversion="1"
       satellites_param="F,0,0,1,0,0,0,1 @ F,0,0,1,0,6.0755415,0,1 @ F,0,0,1,0,6.1445293,0,1 @ F,0,0,1,0,0,0,1"
       unit="px"
       method="auto"
       mode="F"
       radius="0"
       chamfer_steps="1"
       flexible="false"
       use_knot_distance="true"
       apply_no_radius="true"
       apply_with_radius="true"
       only_selected="true"
       hide_knots="false" />
    <style
       id="style1979">.cls-1{fill:url(#GreenGradient);}.cls-2{fill:#fff;}</style>
    <linearGradient
       id="GreenGradient"
       x1="-522.53"
       y1="465.47"
       x2="-416.47"
       y2="571.53"
       gradientTransform="rotate(-90,-456.5,24.5)"
       gradientUnits="userSpaceOnUse">
      <stop
         offset="0"
         stop-color="#1b660f"
         id="stop1981" />
      <stop
         offset="1"
         stop-color="#6cae3e"
         id="stop1983" />
    </linearGradient>
    <linearGradient
       id="OrangeGradient"
       x1="1131.1"
       y1="-516.47998"
       x2="1131.1"
       y2="-366.48001"
       gradientTransform="rotate(-135,816.69218,-8.7994369)"
       gradientUnits="userSpaceOnUse">
      <stop
         offset="0"
         stop-color="#c8511b"
         id="stop138" />
      <stop
         offset="1"
         stop-color="#f90"
         id="stop140" />
    </linearGradient>
    <clipPath
       id="clip1">
      <path
         d="m 93,27 h 58 V 88.851563 H 93 Z m 0,0"
         id="path2" />
    </clipPath>
    <clipPath
       id="clip2">
      <path
         d="m 161,10 h 41 v 78.851563 h -41 z m 0,0"
         id="path5" />
    </clipPath>
    <clipPath
       id="clip3">
      <path
         d="m 206,0 h 65 v 88.851563 h -65 z m 0,0"
         id="path8" />
    </clipPath>
    <clipPath
       id="clip4">
      <path
         d="m 322,26 h 57 v 62.851563 h -57 z m 0,0"
         id="path11" />
    </clipPath>
    <clipPath
       id="clip5">
      <path
         d="m 415,26 h 58.05859 V 87 H 415 Z m 0,0"
         id="path14" />
    </clipPath>
    <clipPath
       id="clip6">
      <path
         d="M 0,3 H 87 V 88.851563 H 0 Z m 0,0"
         id="path17" />
    </clipPath>
    <clipPath
       id="b">
      <use
         xlink:href="#a"
         overflow="visible"
         id="use5"
         x="0"
         y="0"
         width="100%"
         height="100%" />
    </clipPath>
    <clipPath
       id="d">
      <use
         xlink:href="#c"
         overflow="visible"
         id="use21"
         x="0"
         y="0"
         width="100%"
         height="100%" />
    </clipPath>
    <linearGradient
       id="e"
       gradientUnits="userSpaceOnUse"
       x1="-17845.727"
       y1="-3022.7009"
       x2="-17300.025"
       y2="-3131.4309"
       gradientTransform="matrix(0.1741,0,0,-0.1741,5044.277,-686.514)">
      <stop
         offset="0"
         stop-color="#2b7a77"
         id="stop30" />
      <stop
         offset=".51"
         stop-color="#4ebaa9"
         id="stop32" />
      <stop
         offset="1"
         stop-color="#5cc2b1"
         id="stop34" />
    </linearGradient>
    <linearGradient
       id="f"
       gradientUnits="userSpaceOnUse"
       x1="-16495.199"
       y1="-6380.3711"
       x2="-16765.998"
       y2="-5744.4058"
       gradientTransform="matrix(0.1741,0,0,-0.1741,5044.277,-686.514)">
      <stop
         offset="0"
         stop-color="#236736"
         id="stop39" />
      <stop
         offset=".493"
         stop-color="#6ba443"
         id="stop41" />
      <stop
         offset="1"
         stop-color="#86c146"
         id="stop43" />
    </linearGradient>
    <linearGradient
       id="g"
       gradientUnits="userSpaceOnUse"
       x1="-16221.797"
       y1="-6660.6538"
       x2="-15823.801"
       y2="-5712.8491"
       gradientTransform="matrix(0.1741,0,0,-0.1741,5044.277,-686.514)">
      <stop
         offset="0"
         stop-color="#29a5e3"
         id="stop48" />
      <stop
         offset=".515"
         stop-color="#356eb9"
         id="stop50" />
      <stop
         offset="1"
         stop-color="#394da5"
         id="stop52" />
    </linearGradient>
    <path
       id="a"
       d="M 196.35,-37.141 H 1196.36 V 128.657 H 196.35 Z" />
    <path
       id="c"
       d="M 196.35,-37.141 H 1196.36 V 128.657 H 196.35 Z" />
    <radialGradient
       cx="202.91011"
       cy="65.021362"
       fx="202.91011"
       fy="65.021362"
       r="48.504616"
       id="a-5"
       gradientTransform="scale(1.0005153,0.99948493)"
       gradientUnits="userSpaceOnUse">
      <stop
         stop-color="#FFF"
         offset="0%"
         id="stop2" />
      <stop
         stop-color="#FCE800"
         offset="19.02%"
         id="stop4" />
      <stop
         stop-color="#EC8F27"
         offset="85.93%"
         id="stop6" />
    </radialGradient>
    <linearGradient
       x1="134.77487"
       y1="49.381653"
       x2="134.77487"
       y2="0.55994713"
       id="b-0"
       gradientTransform="scale(1.0256763,0.97496651)"
       gradientUnits="userSpaceOnUse">
      <stop
         stop-color="#F68B1F"
         offset="0%"
         id="stop9" />
      <stop
         stop-color="#FFF"
         offset="100%"
         id="stop11" />
    </linearGradient>
    <linearGradient
       x1="53.483879"
       y1="44.051418"
       x2="64.062614"
       y2="62.661644"
       id="c-7"
       gradientUnits="userSpaceOnUse">
      <stop
         stop-color="#FFF"
         offset="0%"
         id="stop14" />
      <stop
         stop-color="#FEF6ED"
         offset="4.821%"
         id="stop16" />
      <stop
         stop-color="#FBD0A5"
         offset="25.69%"
         id="stop18" />
      <stop
         stop-color="#F9B26B"
         offset="44.42%"
         id="stop20" />
      <stop
         stop-color="#F79D42"
         offset="60.34%"
         id="stop22" />
      <stop
         stop-color="#F69028"
         offset="72.82%"
         id="stop24" />
      <stop
         stop-color="#F68B1F"
         offset="80.33%"
         id="stop26" />
    </linearGradient>
    <linearGradient
       x1="2.05039"
       y1="68.696198"
       x2="42.65826"
       y2="192.964"
       id="d-8"
       gradientTransform="scale(1.409801,0.70931995)"
       gradientUnits="userSpaceOnUse">
      <stop
         stop-color="#FFF"
         offset="0%"
         id="stop29" />
      <stop
         stop-color="#FEF6ED"
         offset="4.821%"
         id="stop31" />
      <stop
         stop-color="#FBD0A5"
         offset="25.69%"
         id="stop33" />
      <stop
         stop-color="#F9B26B"
         offset="44.42%"
         id="stop35" />
      <stop
         stop-color="#F79D42"
         offset="60.34%"
         id="stop37" />
      <stop
         stop-color="#F69028"
         offset="72.82%"
         id="stop39-9" />
      <stop
         stop-color="#F68B1F"
         offset="80.33%"
         id="stop41-3" />
    </linearGradient>
    <linearGradient
       x1="180.28741"
       y1="90.57383"
       x2="173.40768"
       y2="123.44773"
       id="e-2"
       gradientTransform="scale(1.2768133,0.78319989)"
       gradientUnits="userSpaceOnUse">
      <stop
         stop-color="#FFF"
         offset="0%"
         id="stop44" />
      <stop
         stop-color="#FEF6ED"
         offset="4.821%"
         id="stop46" />
      <stop
         stop-color="#FBD0A5"
         offset="25.69%"
         id="stop48-4" />
      <stop
         stop-color="#F9B26B"
         offset="44.42%"
         id="stop50-9" />
      <stop
         stop-color="#F79D42"
         offset="60.34%"
         id="stop52-4" />
      <stop
         stop-color="#F69028"
         offset="72.82%"
         id="stop54" />
      <stop
         stop-color="#F68B1F"
         offset="80.33%"
         id="stop56" />
    </linearGradient>
    <linearGradient
       x1="43.736912"
       y1="243.13164"
       x2="43.736912"
       y2="325.8479"
       id="f-6"
       gradientTransform="scale(2.9399166,0.3401457)"
       gradientUnits="userSpaceOnUse">
      <stop
         stop-color="#F68B1F"
         offset="0%"
         id="stop59" />
      <stop
         stop-color="#CB672F"
         offset="53.08%"
         id="stop61" />
      <stop
         stop-color="#A1453F"
         offset="100%"
         id="stop63" />
    </linearGradient>
    <radialGradient
       cx="97.375191"
       cy="132.38023"
       fx="97.375191"
       fy="132.38023"
       r="38.978508"
       id="g-9"
       gradientTransform="scale(1.6664459,0.60007949)"
       gradientUnits="userSpaceOnUse">
      <stop
         stop-color="#FFF"
         offset="0%"
         id="stop66" />
      <stop
         stop-color="#FCE800"
         offset="13.34%"
         id="stop68" />
      <stop
         stop-color="#EC8F27"
         offset="85.93%"
         id="stop70" />
    </radialGradient>
    <clipPath
       id="SVGID_6_-5">
      <use
         xlink:href="#SVGID_5_"
         overflow="visible"
         id="use35-6"
         x="0"
         y="0"
         width="100%"
         height="100%" />
    </clipPath>
    <clipPath
       id="SVGID_9_-3">
      <use
         xlink:href="#SVGID_8_-7"
         overflow="visible"
         id="use48-3"
         x="0"
         y="0"
         width="100%"
         height="100%" />
    </clipPath>
    <clipPath
       id="SVGID_11_-0">
      <use
         xlink:href="#SVGID_10_-9"
         overflow="visible"
         id="use58-5"
         x="0"
         y="0"
         width="100%"
         height="100%" />
    </clipPath>
    <clipPath
       id="SVGID_13_-2">
      <use
         xlink:href="#SVGID_12_-4"
         overflow="visible"
         id="use68-7"
         x="0"
         y="0"
         width="100%"
         height="100%" />
    </clipPath>
    <clipPath
       id="SVGID_15_-4">
      <use
         xlink:href="#SVGID_14_-9"
         overflow="visible"
         id="use78-1"
         x="0"
         y="0"
         width="100%"
         height="100%" />
    </clipPath>
    <path
       id="path392"
       d="m 139.8,0 h -27.5 c -6.7,0 -12.2,5.5 -12.2,12.2 V 48 h -40 c -6.6,0 -12,5.4 -12,12 v 40 H 12 c -6.6,0 -12,5.4 -12,12 v 28 c 0,6.6 5.4,12 12,12 h 127.8 c 6.7,0 12.2,-5.5 12.2,-12.2 V 12.2 C 152,5.5 146.5,0 139.8,0 Z" />
    <path
       id="path399"
       d="m 139.8,0 h -27.5 c -6.7,0 -12.2,5.5 -12.2,12.2 V 48 h -40 c -6.6,0 -12,5.4 -12,12 v 40 H 12 c -6.6,0 -12,5.4 -12,12 v 28 c 0,6.6 5.4,12 12,12 h 127.8 c 6.7,0 12.2,-5.5 12.2,-12.2 V 12.2 C 152,5.5 146.5,0 139.8,0 Z" />
    <path
       id="path406"
       d="m 139.8,0 h -27.5 c -6.7,0 -12.2,5.5 -12.2,12.2 V 48 h -40 c -6.6,0 -12,5.4 -12,12 v 40 H 12 c -6.6,0 -12,5.4 -12,12 v 28 c 0,6.6 5.4,12 12,12 h 127.8 c 6.7,0 12.2,-5.5 12.2,-12.2 V 12.2 C 152,5.5 146.5,0 139.8,0 Z" />
    <path
       id="path413"
       d="m 139.8,0 h -27.5 c -6.7,0 -12.2,5.5 -12.2,12.2 V 48 h -40 c -6.6,0 -12,5.4 -12,12 v 40 H 12 c -6.6,0 -12,5.4 -12,12 v 28 c 0,6.6 5.4,12 12,12 h 127.8 c 6.7,0 12.2,-5.5 12.2,-12.2 V 12.2 C 152,5.5 146.5,0 139.8,0 Z" />
    <linearGradient
       id="a-4"
       gradientUnits="userSpaceOnUse"
       x1="175.5"
       x2="175.5"
       y1="45"
       y2="148.5"
       gradientTransform="matrix(0.36630442,0,0,0.36630442,59.707192,57.14917)">
      <stop
         offset="0"
         stop-color="#f05a28"
         id="stop2-0" />
      <stop
         offset="1"
         stop-color="#fbca0a"
         id="stop4-20" />
    </linearGradient>
  </defs>
  <sodipodi:namedview
     id="base"
     pagecolor="#ffffff"
     bordercolor="#666666"
     borderopacity="1.0"
     inkscape:pageopacity="0"
     inkscape:pageshadow="2"
     inkscape:zoom="1.2269109"
     inkscape:cx="124"
     inkscape:cy="124"
     inkscape:document-units="px"
     inkscape:current-layer="layer2"
     inkscape:document-rotation="0"
     showgrid="true"
     inkscape:window-width="1366"
     inkscape:window-height="705"
     inkscape:window-x="-8"
     inkscape:window-y="-8"
     inkscape:window-maximized="1"
     inkscape:snap-global="false"
     showguides="true">
    <inkscape:grid
       type="xygrid"
       id="grid1972" />
  </sodipodi:namedview>
  <metadata
     id="metadata1405">
    <rdf:RDF>
      <cc:Work
         rdf:about="">
        <dc:format>image/svg+xml</dc:format>
        <dc:type
           rdf:resource="http://purl.org/dc/dcmitype/StillImage" />
        <dc:title />
      </cc:Work>
    </rdf:RDF>
  </metadata>
  <g
     inkscape:groupmode="layer"
     id="layer3"
     inkscape:label="BG" />
  <g
     inkscape:groupmode="layer"
     id="layer4"
     inkscape:label="Bounding Box" />
  <g
     inkscape:groupmode="layer"
     id="layer2"
     inkscape:label="Top">
    <g
       id="g858"
       transform="translate(-0.19315289,-0.04989999)">
      <path
         style="fill:none;fill-opacity:1;stroke:#000000;stroke-width:4.5;stroke-linecap:round;stroke-linejoin:round;stroke-miterlimit:4;stroke-dasharray:none;stroke-opacity:1;paint-order:normal"
         id="path883"
         sodipodi:type="arc"
         sodipodi:cx="154.57903"
         sodipodi:cy="83.172447"
         sodipodi:rx="111.24604"
         sodipodi:ry="111.24604"
         sodipodi:start="5.9893981"
         sodipodi:end="5.9807042"
         sodipodi:open="true"
         sodipodi:arc-type="arc"
         transform="rotate(16.68412)"
         d="M 261.05862,50.957904 A 111.24604,111.24604 0 0 1 187.02492,189.58178 111.24604,111.24604 0 0 1 48.240468,115.84955 111.24604,111.24604 0 0 1 121.67088,-23.094836 111.24604,111.24604 0 0 1 260.77453,50.03341" />
      <path
         style="fill:#3d3846;fill-opacity:0.326613;stroke:none;stroke-width:4.45107;stroke-linecap:round;stroke-linejoin:round;stroke-miterlimit:4;stroke-dasharray:none;stroke-opacity:1;paint-order:normal"
         id="path885"
         sodipodi:type="arc"
         sodipodi:cx="154.57903"
         sodipodi:cy="83.172447"
         sodipodi:rx="110.03654"
         sodipodi:ry="110.03654"
         sodipodi:start="5.9893981"
         sodipodi:end="5.9807042"
         sodipodi:open="true"
         sodipodi:arc-type="arc"
         transform="rotate(16.68412)"
         d="M 259.90094,51.308151 A 110.03654,110.03654 0 0 1 186.67216,188.42486 110.03654,110.03654 0 0 1 49.396616,115.49427 110.03654,110.03654 0 0 1 122.02867,-21.939463 110.03654,110.03654 0 0 1 259.61994,50.393709" />
    </g>
    <g
       fill="none"
       fill-rule="evenodd"
       id="g18"
       transform="matrix(0.33786698,0,0,0.33786698,37.605393,99.315607)">
      <path
         d="m 476.713,60.463 c -0.46,0.092 -0.922,1.107 -0.922,1.66 -0.092,3.692 -0.184,13.474 -0.184,20.118 0,0.185 0.276,0.554 0.553,0.554 1.384,0.092 4.706,0.184 7.567,0.184 3.968,0 6.275,-0.553 7.568,-1.106 3.321,-1.662 4.89,-5.261 4.89,-9.23 0,-8.95 -6.275,-12.365 -15.596,-12.365 -0.646,-0.092 -2.49,-0.092 -3.876,0.185 z m 23.81,41.25 c 0,-9.136 -6.737,-14.212 -18.918,-14.212 -0.554,0 -4.43,-0.092 -5.353,0.092 -0.277,0.093 -0.645,0.278 -0.645,0.555 0,6.551 -0.093,16.98 0.184,21.04 0.184,1.753 1.477,4.245 3.046,4.983 1.66,0.923 5.444,1.107 8.028,1.107 7.29,0 13.658,-4.06 13.658,-13.565 z M 457.889,55.388 c 0.922,0 3.69,0.276 10.796,0.276 6.737,0 12.089,-0.184 18.641,-0.184 8.028,0 19.102,2.86 19.102,14.857 0,5.906 -4.153,10.613 -9.597,12.92 -0.276,0.092 -0.276,0.276 0,0.368 7.751,1.939 14.581,6.737 14.581,15.78 0,8.86 -5.537,14.489 -13.566,17.996 -4.891,2.122 -10.981,2.86 -17.164,2.86 -4.707,0 -17.349,-0.553 -24.362,-0.368 -0.738,-0.278 0.646,-3.6 1.291,-4.153 1.662,-0.093 2.953,-0.185 4.707,-0.739 2.492,-0.645 2.768,-1.384 3.137,-5.167 0.185,-3.23 0.185,-14.674 0.185,-22.794 0,-11.166 0.093,-18.733 0,-22.424 -0.092,-2.86 -1.107,-3.784 -3.137,-4.338 -1.57,-0.276 -4.153,-0.646 -6.276,-0.922 -0.462,-0.462 1.107,-3.6 1.662,-3.968 z m -53.248,57.399 c 2.216,1.752 6.553,2.49 10.429,2.49 4.983,0 9.966,-0.921 14.765,-5.26 4.891,-4.428 8.305,-11.257 8.305,-22.146 0,-10.429 -3.968,-18.919 -12.089,-23.901 -4.614,-2.862 -10.52,-4.06 -17.349,-4.06 -2.03,0 -3.968,0.092 -5.167,0.645 -0.278,0.185 -0.923,1.015 -0.923,1.476 -0.185,1.846 -0.185,16.057 -0.185,24.363 0,8.582 0,20.579 0.185,21.963 0,1.385 0.645,3.507 2.03,4.43 z m -20.948,-57.4 c 1.754,0 8.49,0.277 11.72,0.277 5.815,0 9.967,-0.276 20.948,-0.276 9.228,0 16.98,2.491 22.517,7.197 6.736,5.814 10.244,13.843 10.244,23.624 0,13.935 -6.368,21.964 -12.736,26.578 -6.366,4.706 -14.672,7.474 -26.484,7.474 -6.275,0 -17.072,-0.184 -26.024,-0.277 h -0.092 c -0.461,-0.83 0.738,-4.06 1.476,-4.152 2.4,-0.277 3.046,-0.37 4.246,-0.83 1.937,-0.739 2.307,-1.754 2.584,-5.168 0.276,-6.368 0.184,-14.027 0.184,-22.702 0,-6.182 0.092,-18.272 -0.093,-22.148 -0.276,-3.229 -1.66,-4.06 -4.429,-4.614 -1.384,-0.276 -3.23,-0.646 -5.813,-0.922 -0.37,-0.647 1.291,-3.507 1.752,-4.06 z"
         fill="#8e714e"
         id="path2-3" />
      <path
         d="m 272.033,116.385 c -2.307,-0.277 -3.968,-0.645 -5.998,-1.568 -0.277,-0.185 -0.739,-1.107 -0.739,-1.477 -0.184,-3.23 -0.184,-12.458 -0.184,-18.64 0,-4.984 -0.83,-9.321 -2.953,-12.366 -2.492,-3.508 -6.09,-5.537 -10.705,-5.537 -4.06,0 -9.505,2.768 -14.027,6.644 -0.092,0.092 -0.83,0.739 -0.738,-0.277 0,-1.015 0.185,-3.045 0.277,-4.43 0.093,-1.292 -0.646,-1.937 -0.646,-1.937 -2.953,1.476 -11.258,3.414 -14.304,3.69 -2.214,0.463 -2.768,2.585 -0.46,3.323 h 0.092 c 2.49,0.738 4.152,1.569 5.443,2.4 0.923,0.738 0.831,1.753 0.831,2.584 0.092,6.92 0.092,17.533 -0.184,23.347 -0.092,2.307 -0.738,3.137 -2.4,3.506 l 0.185,-0.092 c -1.292,0.277 -2.307,0.553 -3.876,0.738 -0.554,0.554 -0.554,3.507 0,4.153 1.015,0 6.367,-0.277 10.798,-0.277 6.09,0 9.228,0.277 10.796,0.277 0.646,-0.738 0.831,-3.507 0.462,-4.153 -1.754,-0.092 -3.046,-0.276 -4.245,-0.646 -1.661,-0.37 -2.123,-1.199 -2.216,-3.137 -0.183,-4.892 -0.183,-15.227 -0.183,-22.24 0,-1.938 0.553,-2.861 1.106,-3.415 2.123,-1.845 5.538,-3.137 8.583,-3.137 2.953,0 4.89,0.923 6.367,2.123 2.03,1.66 2.676,4.06 2.953,5.813 0.461,3.968 0.277,11.812 0.277,18.641 0,3.691 -0.277,4.614 -1.66,5.075 -0.647,0.277 -2.308,0.647 -4.246,0.83 -0.646,0.647 -0.461,3.508 0,4.154 2.676,0 5.814,-0.277 10.428,-0.277 5.721,0 9.413,0.277 10.89,0.277 0.46,-0.554 0.645,-3.23 0.276,-3.969 z m 25.562,-35.25 c -4.89,0 -7.936,3.783 -7.936,9.688 0,5.999 2.676,12.92 10.243,12.92 1.292,0 3.692,-0.554 4.798,-1.846 1.754,-1.66 2.954,-4.983 2.954,-8.49 0,-7.659 -3.784,-12.273 -10.059,-12.273 z m -0.646,40.787 c -1.845,0 -3.138,0.554 -3.968,1.016 -3.876,2.49 -5.629,4.89 -5.629,7.752 0,2.675 1.015,4.797 3.23,6.643 2.676,2.307 6.367,3.415 11.073,3.415 9.413,0 13.566,-5.076 13.566,-10.058 0,-3.508 -1.754,-5.815 -5.352,-7.106 -2.584,-1.108 -7.29,-1.662 -12.92,-1.662 z m 0.646,23.994 c -5.629,0 -9.69,-1.2 -13.196,-3.876 -3.415,-2.584 -4.891,-6.46 -4.891,-9.136 0,-0.738 0.185,-2.769 1.846,-4.614 1.014,-1.108 3.23,-3.23 8.49,-6.829 0.184,-0.092 0.276,-0.184 0.276,-0.37 0,-0.184 -0.185,-0.369 -0.369,-0.46 -4.337,-1.661 -5.629,-4.338 -5.999,-5.814 v -0.185 c -0.091,-0.554 -0.276,-1.107 0.555,-1.661 0.646,-0.461 1.569,-1.015 2.583,-1.66 1.569,-0.924 3.23,-1.939 4.245,-2.77 0.185,-0.184 0.185,-0.368 0.185,-0.553 0,-0.185 -0.185,-0.37 -0.37,-0.461 -6.458,-2.123 -9.688,-6.922 -9.688,-14.12 0,-4.706 2.122,-8.951 5.905,-11.627 2.584,-2.03 9.044,-4.522 13.289,-4.522 h 0.277 c 4.337,0.092 6.736,1.015 10.15,2.215 1.846,0.646 3.6,0.922 6,0.922 3.598,0 5.167,-1.107 6.458,-2.398 0.093,0.184 0.278,0.646 0.37,1.845 0.092,1.2 -0.277,2.953 -1.2,4.245 -0.738,1.015 -2.399,1.754 -4.06,1.754 h -0.462 c -1.661,-0.185 -2.4,-0.37 -2.4,-0.37 l -0.368,0.185 c -0.092,0.185 0,0.369 0.092,0.646 l 0.093,0.185 c 0.184,0.83 0.553,3.321 0.553,3.968 0,7.567 -3.045,10.888 -6.275,13.38 -3.138,2.307 -6.736,3.783 -10.797,4.153 -0.092,0 -0.46,0 -1.292,0.092 -0.461,0 -1.107,0.093 -1.2,0.093 h -0.092 c -0.738,0.184 -2.583,1.107 -2.583,2.675 0,1.384 0.83,3.046 4.798,3.323 0.83,0.092 1.66,0.092 2.584,0.185 5.26,0.368 11.812,0.83 14.857,1.845 4.245,1.568 6.921,5.352 6.921,9.874 0,6.83 -4.89,13.197 -13.011,17.164 -3.968,1.754 -7.937,2.677 -12.274,2.677 z m 52.6,-64.32 c -1.937,0 -3.691,0.46 -4.983,1.383 -3.598,2.215 -5.444,6.645 -5.444,13.104 0,12.09 6.09,20.58 14.765,20.58 2.584,0 4.614,-0.739 6.367,-2.215 2.676,-2.216 4.061,-6.645 4.061,-12.828 0,-11.996 -5.999,-20.025 -14.765,-20.025 z m 1.662,39.496 c -15.688,0 -21.317,-11.535 -21.317,-22.332 0,-7.567 3.045,-13.381 9.135,-17.534 4.338,-2.676 9.506,-4.152 14.12,-4.152 11.996,0 20.394,8.582 20.394,20.948 0,8.397 -3.322,15.041 -9.69,19.102 -3.045,2.03 -8.305,3.968 -12.643,3.968 z M 187.411,81.595 c -1.938,0 -3.691,0.461 -4.984,1.384 -3.598,2.215 -5.444,6.645 -5.444,13.104 0,12.09 6.09,20.58 14.765,20.58 2.584,0 4.614,-0.739 6.368,-2.215 2.675,-2.216 4.06,-6.645 4.06,-12.828 0,-11.996 -5.906,-20.025 -14.765,-20.025 z m 1.661,39.497 c -15.688,0 -21.317,-11.535 -21.317,-22.332 0,-7.567 3.045,-13.381 9.135,-17.534 4.338,-2.676 9.506,-4.152 14.12,-4.152 11.997,0 20.394,8.582 20.394,20.948 0,8.397 -3.322,15.041 -9.69,19.102 -2.953,2.03 -8.213,3.968 -12.642,3.968 z M 83.594,120.169 c -0.185,-0.276 -0.37,-1.107 -0.277,-2.122 0,-0.739 0.185,-1.2 0.277,-1.384 1.938,-0.278 2.953,-0.555 4.06,-0.831 1.846,-0.462 2.584,-1.476 2.676,-3.783 0.278,-5.537 0.278,-16.058 0.185,-23.348 v -0.185 c 0,-0.83 0,-1.846 -1.015,-2.584 -1.477,-0.922 -3.23,-1.752 -5.537,-2.4 -0.83,-0.275 -1.384,-0.737 -1.292,-1.29 0,-0.554 0.554,-1.2 1.754,-1.385 3.045,-0.277 10.98,-2.214 14.118,-3.599 0.185,0.184 0.462,0.739 0.462,1.477 l -0.092,1.014 c -0.093,1.016 -0.185,2.216 -0.185,3.415 0,0.369 0.37,0.646 0.738,0.646 0.185,0 0.37,-0.092 0.554,-0.185 5.906,-4.614 11.258,-6.275 14.026,-6.275 4.523,0 8.03,2.123 10.706,6.552 0.184,0.278 0.369,0.37 0.646,0.37 0.184,0 0.46,-0.092 0.553,-0.277 5.445,-4.153 10.89,-6.645 14.488,-6.645 8.582,0 13.658,6.368 13.658,17.165 0,3.045 0,7.013 -0.092,10.613 0,3.229 -0.092,6.182 -0.092,8.305 0,0.46 0.645,1.937 1.66,2.214 1.292,0.646 3.046,0.923 5.353,1.292 h 0.092 c 0.185,0.646 -0.184,3.045 -0.553,3.507 -0.554,0 -1.385,0 -2.307,-0.092 a 136.208,136.208 0 0 0 -7.014,-0.185 c -5.721,0 -8.674,0.092 -11.536,0.277 -0.183,-0.738 -0.276,-2.953 0,-3.507 1.662,-0.276 2.492,-0.554 3.508,-0.83 1.846,-0.554 2.307,-1.385 2.4,-3.784 0,-1.753 0.368,-16.703 -0.186,-20.302 -0.553,-3.691 -3.322,-8.028 -9.413,-8.028 -2.307,0 -5.905,0.923 -9.412,3.598 -0.184,0.185 -0.37,0.646 -0.37,0.923 v 0.093 c 0.37,1.937 0.37,4.153 0.37,7.567 v 5.998 c 0,4.153 -0.093,8.029 0,10.981 0,2.031 1.2,2.492 2.215,2.862 0.554,0.091 0.922,0.184 1.384,0.276 0.83,0.185 1.661,0.37 2.953,0.646 0.185,0.37 0.185,1.569 -0.092,2.584 -0.093,0.554 -0.278,0.83 -0.37,0.923 -3.137,-0.092 -6.367,-0.185 -11.073,-0.185 -1.384,0 -3.784,0.093 -5.814,0.093 -1.662,0 -3.23,0.092 -4.152,0.092 -0.093,-0.185 -0.278,-0.83 -0.278,-1.846 0,-0.83 0.185,-1.476 0.37,-1.661 0.461,-0.092 0.83,-0.184 1.292,-0.184 1.106,-0.185 2.03,-0.37 2.952,-0.554 1.57,-0.461 2.123,-1.292 2.215,-3.322 0.277,-4.614 0.554,-17.81 -0.092,-21.133 -1.107,-5.352 -4.152,-8.028 -9.044,-8.028 -2.86,0 -6.46,1.384 -9.412,3.6 -0.462,0.368 -0.831,1.29 -0.831,2.121 v 5.445 c 0,6.644 0,14.95 0.092,18.549 0.093,1.106 0.461,2.399 2.584,2.86 0.462,0.092 1.2,0.277 2.123,0.37 l 1.66,0.276 c 0.186,0.554 0.093,2.769 -0.276,3.507 -0.923,0 -2.03,-0.092 -3.323,-0.092 -1.937,-0.093 -4.429,-0.185 -7.197,-0.185 -3.23,0 -5.537,0.092 -7.383,0.185 -1.292,-0.185 -2.307,-0.185 -3.414,-0.185 z"
         fill="#442d22"
         id="path4-2" />
      <path
         d="m 35.053,142.317 -3.783,-1.293 c 0,0 0.462,-19.286 -6.46,-20.67 -4.613,-5.353 0.74,-227.013 17.35,-0.739 0,0 -5.722,2.86 -6.737,7.752 -1.108,4.799 -0.37,14.95 -0.37,14.95 z"
         fill="#ffffff"
         id="path6-5" />
      <path
         d="m 35.053,142.317 -3.783,-1.293 c 0,0 0.462,-19.286 -6.46,-20.67 -4.613,-5.353 0.74,-227.013 17.35,-0.739 0,0 -5.722,2.86 -6.737,7.752 -1.108,4.799 -0.37,14.95 -0.37,14.95 z"
         fill="#a6a385"
         id="path8-5" />
      <path
         d="m 37.084,123.676 c 0,0 33.13,-21.779 25.377,-67.09 C 54.987,23.643 37.361,12.846 35.423,8.693 33.301,5.74 31.27,0.573 31.27,0.573 l 1.385,91.634 c 0,0.093 -2.861,28.054 4.43,31.47"
         fill="#ffffff"
         id="path10-1" />
      <path
         d="m 37.084,123.676 c 0,0 33.13,-21.779 25.377,-67.09 C 54.987,23.643 37.361,12.846 35.423,8.693 33.301,5.74 31.27,0.573 31.27,0.573 l 1.385,91.634 c 0,0.093 -2.861,28.054 4.43,31.47"
         fill="#499d4a"
         id="path12" />
      <path
         d="m 29.333,124.875 c 0,0 -31.1,-21.225 -29.254,-58.598 1.753,-37.374 23.716,-55.738 27.961,-59.06 2.769,-2.953 2.861,-4.061 3.046,-7.014 1.938,4.153 1.569,62.106 1.845,68.934 0.83,26.3 -1.476,50.756 -3.598,55.738 z"
         fill="#ffffff"
         id="path14-6" />
      <path
         d="m 29.333,124.875 c 0,0 -31.1,-21.225 -29.254,-58.598 1.753,-37.374 23.716,-55.738 27.961,-59.06 2.769,-2.953 2.861,-4.061 3.046,-7.014 1.938,4.153 1.569,62.106 1.845,68.934 0.83,26.3 -1.476,50.756 -3.598,55.738 z"
         fill="#58aa50"
         id="path16" />
    </g>
  </g>
</svg>
