<?xml version="1.0" encoding="UTF-8" standalone="no"?>
<svg
   xmlns:dc="http://purl.org/dc/elements/1.1/"
   xmlns:cc="http://creativecommons.org/ns#"
   xmlns:rdf="http://www.w3.org/1999/02/22-rdf-syntax-ns#"
   xmlns:svg="http://www.w3.org/2000/svg"
   xmlns="http://www.w3.org/2000/svg"
   xmlns:xlink="http://www.w3.org/1999/xlink"
   xmlns:sodipodi="http://sodipodi.sourceforge.net/DTD/sodipodi-0.dtd"
   xmlns:inkscape="http://www.inkscape.org/namespaces/inkscape"
   width="248.0px"
   height="248.0px"
   viewBox="0 0 248.0 248.0"
   version="1.1"
   id="SVGRoot"
   sodipodi:docname="new-relic White.svg"
   inkscape:version="1.0.2-2 (e86c870879, 2021-01-15)">
  <defs
     id="defs1402">
    <inkscape:path-effect
       effect="fillet_chamfer"
       id="path-effect2040"
       is_visible="true"
       lpeversion="1"
       satellites_param="F,0,0,1,0,0,0,1 @ F,0,0,1,0,6.0755415,0,1 @ F,0,0,1,0,6.1445293,0,1 @ F,0,0,1,0,0,0,1"
       unit="px"
       method="auto"
       mode="F"
       radius="0"
       chamfer_steps="1"
       flexible="false"
       use_knot_distance="true"
       apply_no_radius="true"
       apply_with_radius="true"
       only_selected="true"
       hide_knots="false" />
    <style
       id="style1979">.cls-1{fill:url(#GreenGradient);}.cls-2{fill:#fff;}</style>
    <linearGradient
       id="GreenGradient"
       x1="-522.53"
       y1="465.47"
       x2="-416.47"
       y2="571.53"
       gradientTransform="rotate(-90,-456.5,24.5)"
       gradientUnits="userSpaceOnUse">
      <stop
         offset="0"
         stop-color="#1b660f"
         id="stop1981" />
      <stop
         offset="1"
         stop-color="#6cae3e"
         id="stop1983" />
    </linearGradient>
    <linearGradient
       id="OrangeGradient"
       x1="1131.1"
       y1="-516.47998"
       x2="1131.1"
       y2="-366.48001"
       gradientTransform="rotate(-135,816.69218,-8.7994369)"
       gradientUnits="userSpaceOnUse">
      <stop
         offset="0"
         stop-color="#c8511b"
         id="stop138" />
      <stop
         offset="1"
         stop-color="#f90"
         id="stop140" />
    </linearGradient>
    <clipPath
       id="clip1">
      <path
         d="m 93,27 h 58 V 88.851563 H 93 Z m 0,0"
         id="path2" />
    </clipPath>
    <clipPath
       id="clip2">
      <path
         d="m 161,10 h 41 v 78.851563 h -41 z m 0,0"
         id="path5" />
    </clipPath>
    <clipPath
       id="clip3">
      <path
         d="m 206,0 h 65 v 88.851563 h -65 z m 0,0"
         id="path8" />
    </clipPath>
    <clipPath
       id="clip4">
      <path
         d="m 322,26 h 57 v 62.851563 h -57 z m 0,0"
         id="path11" />
    </clipPath>
    <clipPath
       id="clip5">
      <path
         d="m 415,26 h 58.05859 V 87 H 415 Z m 0,0"
         id="path14" />
    </clipPath>
    <clipPath
       id="clip6">
      <path
         d="M 0,3 H 87 V 88.851563 H 0 Z m 0,0"
         id="path17" />
    </clipPath>
    <clipPath
       id="b">
      <use
         xlink:href="#a"
         overflow="visible"
         id="use5"
         x="0"
         y="0"
         width="100%"
         height="100%" />
    </clipPath>
    <clipPath
       id="d">
      <use
         xlink:href="#c"
         overflow="visible"
         id="use21"
         x="0"
         y="0"
         width="100%"
         height="100%" />
    </clipPath>
    <linearGradient
       id="e"
       gradientUnits="userSpaceOnUse"
       x1="-17845.727"
       y1="-3022.7009"
       x2="-17300.025"
       y2="-3131.4309"
       gradientTransform="matrix(0.1741,0,0,-0.1741,5044.277,-686.514)">
      <stop
         offset="0"
         stop-color="#2b7a77"
         id="stop30" />
      <stop
         offset=".51"
         stop-color="#4ebaa9"
         id="stop32" />
      <stop
         offset="1"
         stop-color="#5cc2b1"
         id="stop34" />
    </linearGradient>
    <linearGradient
       id="f"
       gradientUnits="userSpaceOnUse"
       x1="-16495.199"
       y1="-6380.3711"
       x2="-16765.998"
       y2="-5744.4058"
       gradientTransform="matrix(0.1741,0,0,-0.1741,5044.277,-686.514)">
      <stop
         offset="0"
         stop-color="#236736"
         id="stop39" />
      <stop
         offset=".493"
         stop-color="#6ba443"
         id="stop41" />
      <stop
         offset="1"
         stop-color="#86c146"
         id="stop43" />
    </linearGradient>
    <linearGradient
       id="g"
       gradientUnits="userSpaceOnUse"
       x1="-16221.797"
       y1="-6660.6538"
       x2="-15823.801"
       y2="-5712.8491"
       gradientTransform="matrix(0.1741,0,0,-0.1741,5044.277,-686.514)">
      <stop
         offset="0"
         stop-color="#29a5e3"
         id="stop48" />
      <stop
         offset=".515"
         stop-color="#356eb9"
         id="stop50" />
      <stop
         offset="1"
         stop-color="#394da5"
         id="stop52" />
    </linearGradient>
    <path
       id="a"
       d="M 196.35,-37.141 H 1196.36 V 128.657 H 196.35 Z" />
    <path
       id="c"
       d="M 196.35,-37.141 H 1196.36 V 128.657 H 196.35 Z" />
    <radialGradient
       cx="202.91011"
       cy="65.021362"
       fx="202.91011"
       fy="65.021362"
       r="48.504616"
       id="a-5"
       gradientTransform="scale(1.0005153,0.99948493)"
       gradientUnits="userSpaceOnUse">
      <stop
         stop-color="#FFF"
         offset="0%"
         id="stop2" />
      <stop
         stop-color="#FCE800"
         offset="19.02%"
         id="stop4" />
      <stop
         stop-color="#EC8F27"
         offset="85.93%"
         id="stop6" />
    </radialGradient>
    <linearGradient
       x1="134.77487"
       y1="49.381653"
       x2="134.77487"
       y2="0.55994713"
       id="b-0"
       gradientTransform="scale(1.0256763,0.97496651)"
       gradientUnits="userSpaceOnUse">
      <stop
         stop-color="#F68B1F"
         offset="0%"
         id="stop9" />
      <stop
         stop-color="#FFF"
         offset="100%"
         id="stop11" />
    </linearGradient>
    <linearGradient
       x1="53.483879"
       y1="44.051418"
       x2="64.062614"
       y2="62.661644"
       id="c-7"
       gradientUnits="userSpaceOnUse">
      <stop
         stop-color="#FFF"
         offset="0%"
         id="stop14" />
      <stop
         stop-color="#FEF6ED"
         offset="4.821%"
         id="stop16" />
      <stop
         stop-color="#FBD0A5"
         offset="25.69%"
         id="stop18" />
      <stop
         stop-color="#F9B26B"
         offset="44.42%"
         id="stop20" />
      <stop
         stop-color="#F79D42"
         offset="60.34%"
         id="stop22" />
      <stop
         stop-color="#F69028"
         offset="72.82%"
         id="stop24" />
      <stop
         stop-color="#F68B1F"
         offset="80.33%"
         id="stop26" />
    </linearGradient>
    <linearGradient
       x1="2.05039"
       y1="68.696198"
       x2="42.65826"
       y2="192.964"
       id="d-8"
       gradientTransform="scale(1.409801,0.70931995)"
       gradientUnits="userSpaceOnUse">
      <stop
         stop-color="#FFF"
         offset="0%"
         id="stop29" />
      <stop
         stop-color="#FEF6ED"
         offset="4.821%"
         id="stop31" />
      <stop
         stop-color="#FBD0A5"
         offset="25.69%"
         id="stop33" />
      <stop
         stop-color="#F9B26B"
         offset="44.42%"
         id="stop35" />
      <stop
         stop-color="#F79D42"
         offset="60.34%"
         id="stop37" />
      <stop
         stop-color="#F69028"
         offset="72.82%"
         id="stop39-9" />
      <stop
         stop-color="#F68B1F"
         offset="80.33%"
         id="stop41-3" />
    </linearGradient>
    <linearGradient
       x1="180.28741"
       y1="90.57383"
       x2="173.40768"
       y2="123.44773"
       id="e-2"
       gradientTransform="scale(1.2768133,0.78319989)"
       gradientUnits="userSpaceOnUse">
      <stop
         stop-color="#FFF"
         offset="0%"
         id="stop44" />
      <stop
         stop-color="#FEF6ED"
         offset="4.821%"
         id="stop46" />
      <stop
         stop-color="#FBD0A5"
         offset="25.69%"
         id="stop48-4" />
      <stop
         stop-color="#F9B26B"
         offset="44.42%"
         id="stop50-9" />
      <stop
         stop-color="#F79D42"
         offset="60.34%"
         id="stop52-4" />
      <stop
         stop-color="#F69028"
         offset="72.82%"
         id="stop54" />
      <stop
         stop-color="#F68B1F"
         offset="80.33%"
         id="stop56" />
    </linearGradient>
    <linearGradient
       x1="43.736912"
       y1="243.13164"
       x2="43.736912"
       y2="325.8479"
       id="f-6"
       gradientTransform="scale(2.9399166,0.3401457)"
       gradientUnits="userSpaceOnUse">
      <stop
         stop-color="#F68B1F"
         offset="0%"
         id="stop59" />
      <stop
         stop-color="#CB672F"
         offset="53.08%"
         id="stop61" />
      <stop
         stop-color="#A1453F"
         offset="100%"
         id="stop63" />
    </linearGradient>
    <radialGradient
       cx="97.375191"
       cy="132.38023"
       fx="97.375191"
       fy="132.38023"
       r="38.978508"
       id="g-9"
       gradientTransform="scale(1.6664459,0.60007949)"
       gradientUnits="userSpaceOnUse">
      <stop
         stop-color="#FFF"
         offset="0%"
         id="stop66" />
      <stop
         stop-color="#FCE800"
         offset="13.34%"
         id="stop68" />
      <stop
         stop-color="#EC8F27"
         offset="85.93%"
         id="stop70" />
    </radialGradient>
    <clipPath
       id="SVGID_6_-5">
      <use
         xlink:href="#SVGID_5_"
         overflow="visible"
         id="use35-6"
         x="0"
         y="0"
         width="100%"
         height="100%" />
    </clipPath>
    <clipPath
       id="SVGID_9_-3">
      <use
         xlink:href="#SVGID_8_-7"
         overflow="visible"
         id="use48-3"
         x="0"
         y="0"
         width="100%"
         height="100%" />
    </clipPath>
    <clipPath
       id="SVGID_11_-0">
      <use
         xlink:href="#SVGID_10_-9"
         overflow="visible"
         id="use58-5"
         x="0"
         y="0"
         width="100%"
         height="100%" />
    </clipPath>
    <clipPath
       id="SVGID_13_-2">
      <use
         xlink:href="#SVGID_12_-4"
         overflow="visible"
         id="use68-7"
         x="0"
         y="0"
         width="100%"
         height="100%" />
    </clipPath>
    <clipPath
       id="SVGID_15_-4">
      <use
         xlink:href="#SVGID_14_-9"
         overflow="visible"
         id="use78-1"
         x="0"
         y="0"
         width="100%"
         height="100%" />
    </clipPath>
    <path
       id="path392"
       d="m 139.8,0 h -27.5 c -6.7,0 -12.2,5.5 -12.2,12.2 V 48 h -40 c -6.6,0 -12,5.4 -12,12 v 40 H 12 c -6.6,0 -12,5.4 -12,12 v 28 c 0,6.6 5.4,12 12,12 h 127.8 c 6.7,0 12.2,-5.5 12.2,-12.2 V 12.2 C 152,5.5 146.5,0 139.8,0 Z" />
    <path
       id="path399"
       d="m 139.8,0 h -27.5 c -6.7,0 -12.2,5.5 -12.2,12.2 V 48 h -40 c -6.6,0 -12,5.4 -12,12 v 40 H 12 c -6.6,0 -12,5.4 -12,12 v 28 c 0,6.6 5.4,12 12,12 h 127.8 c 6.7,0 12.2,-5.5 12.2,-12.2 V 12.2 C 152,5.5 146.5,0 139.8,0 Z" />
    <path
       id="path406"
       d="m 139.8,0 h -27.5 c -6.7,0 -12.2,5.5 -12.2,12.2 V 48 h -40 c -6.6,0 -12,5.4 -12,12 v 40 H 12 c -6.6,0 -12,5.4 -12,12 v 28 c 0,6.6 5.4,12 12,12 h 127.8 c 6.7,0 12.2,-5.5 12.2,-12.2 V 12.2 C 152,5.5 146.5,0 139.8,0 Z" />
    <path
       id="path413"
       d="m 139.8,0 h -27.5 c -6.7,0 -12.2,5.5 -12.2,12.2 V 48 h -40 c -6.6,0 -12,5.4 -12,12 v 40 H 12 c -6.6,0 -12,5.4 -12,12 v 28 c 0,6.6 5.4,12 12,12 h 127.8 c 6.7,0 12.2,-5.5 12.2,-12.2 V 12.2 C 152,5.5 146.5,0 139.8,0 Z" />
    <linearGradient
       id="a-4"
       gradientUnits="userSpaceOnUse"
       x1="175.5"
       x2="175.5"
       y1="45"
       y2="148.5"
       gradientTransform="matrix(0.36630442,0,0,0.36630442,59.707192,57.14917)">
      <stop
         offset="0"
         stop-color="#f05a28"
         id="stop2-0" />
      <stop
         offset="1"
         stop-color="#fbca0a"
         id="stop4-20" />
    </linearGradient>
  </defs>
  <sodipodi:namedview
     id="base"
     pagecolor="#ffffff"
     bordercolor="#666666"
     borderopacity="1.0"
     inkscape:pageopacity="0"
     inkscape:pageshadow="2"
     inkscape:zoom="1.1107323"
     inkscape:cx="124"
     inkscape:cy="124"
     inkscape:document-units="px"
     inkscape:current-layer="layer2"
     inkscape:document-rotation="0"
     showgrid="true"
     inkscape:window-width="1366"
     inkscape:window-height="705"
     inkscape:window-x="-8"
     inkscape:window-y="-8"
     inkscape:window-maximized="1"
     inkscape:snap-global="false"
     showguides="true">
    <inkscape:grid
       type="xygrid"
       id="grid1972" />
  </sodipodi:namedview>
  <metadata
     id="metadata1405">
    <rdf:RDF>
      <cc:Work
         rdf:about="">
        <dc:format>image/svg+xml</dc:format>
        <dc:type
           rdf:resource="http://purl.org/dc/dcmitype/StillImage" />
        <dc:title />
      </cc:Work>
    </rdf:RDF>
  </metadata>
  <g
     inkscape:groupmode="layer"
     id="layer3"
     inkscape:label="BG" />
  <g
     inkscape:groupmode="layer"
     id="layer4"
     inkscape:label="Bounding Box" />
  <g
     inkscape:groupmode="layer"
     id="layer2"
     inkscape:label="Top">
    <g
       id="g858"
       transform="translate(-0.19315289,-0.04989999)">
      <path
         style="fill:none;fill-opacity:1;stroke:#000000;stroke-width:4.5;stroke-linecap:round;stroke-linejoin:round;stroke-miterlimit:4;stroke-dasharray:none;stroke-opacity:1;paint-order:normal"
         id="path883"
         sodipodi:type="arc"
         sodipodi:cx="154.57903"
         sodipodi:cy="83.172447"
         sodipodi:rx="111.24604"
         sodipodi:ry="111.24604"
         sodipodi:start="5.9893981"
         sodipodi:end="5.9807042"
         sodipodi:open="true"
         sodipodi:arc-type="arc"
         transform="rotate(16.68412)"
         d="M 261.05862,50.957904 A 111.24604,111.24604 0 0 1 187.02492,189.58178 111.24604,111.24604 0 0 1 48.240468,115.84955 111.24604,111.24604 0 0 1 121.67088,-23.094836 111.24604,111.24604 0 0 1 260.77453,50.03341" />
      <path
         style="fill:#3d3846;fill-opacity:0.326613;stroke:none;stroke-width:4.45107;stroke-linecap:round;stroke-linejoin:round;stroke-miterlimit:4;stroke-dasharray:none;stroke-opacity:1;paint-order:normal"
         id="path885"
         sodipodi:type="arc"
         sodipodi:cx="154.57903"
         sodipodi:cy="83.172447"
         sodipodi:rx="110.03654"
         sodipodi:ry="110.03654"
         sodipodi:start="5.9893981"
         sodipodi:end="5.9807042"
         sodipodi:open="true"
         sodipodi:arc-type="arc"
         transform="rotate(16.68412)"
         d="M 259.90094,51.308151 A 110.03654,110.03654 0 0 1 186.67216,188.42486 110.03654,110.03654 0 0 1 49.396616,115.49427 110.03654,110.03654 0 0 1 122.02867,-21.939463 110.03654,110.03654 0 0 1 259.61994,50.393709" />
    </g>
    <g
       id="g1001"
       transform="matrix(0.06251676,0,0,0.06251676,111.36048,112.28308)">
      <path
         d="m 156.57614,860.24783 c -379.56265,0 -687.13221,-307.65744 -687.13221,-687.21033 0,-379.44548 307.57932,-687.0541 687.13221,-687.0541 379.45525,0 687.10293,307.60862 687.10293,687.0541 0,379.54312 -307.64768,687.21033 -687.10293,687.21033 z M 1433.6748,-80.329752 C 1316.4431,-619.32591 670.09692,-936.37673 -10.034208,-788.49454 -690.15557,-640.61235 -1146.5349,-83.766829 -1029.313,455.1805 -912.12044,994.16689 -265.75468,1311.2177 414.37644,1163.3355 1094.5076,1015.4436 1550.8479,458.59805 1433.6846,-80.329752 Z"
         fill="#37808c"
         id="path2-0"
         style="stroke-width:9.76442" />
      <path
         d="m 153.37341,847.1928 c -373.15719,0 -675.54185,-302.46277 -675.54185,-675.60044 0,-373.05955 302.38466,-675.47349 675.54185,-675.47349 373.04979,0 675.50279,302.41394 675.50279,675.46373 0,373.14743 -302.453,675.6102 -675.50279,675.6102 z M 324.53398,-679.32829 c -485.29182,0 -878.79807,393.45743 -878.79807,878.75902 0,485.33089 393.50625,878.79807 878.79807,878.79807 485.2723,0 878.79812,-393.46718 878.79812,-878.79807 0,-485.29182 -393.52582,-878.75902 -878.79812,-878.75902 z"
         fill="#9bd3cd"
         id="path4-4"
         style="stroke-width:9.76442" />
      <g
         fill="#1b1a19"
         id="g8"
         transform="matrix(9.7644231,0,0,9.7644231,-1047.6311,-826.44885)">
        <path
           d="M 98.016,94.949 90.468,79.123 c -1.801,-3.75 -3.652,-7.986 -4.285,-9.983 l -0.146,0.146 c 0.244,2.825 0.293,6.38 0.341,9.35 l 0.195,16.313 H 81.07 V 61.252 h 6.33 l 8.18,16.459 c 1.559,3.116 3.02,7.109 3.458,8.667 l 0.146,-0.146 C 99.038,84.528 98.697,79.707 98.697,76.639 L 98.6,61.252 h 5.308 v 33.697 h -5.892 m 20.646,-21.183 c -3.02,0 -4.675,2.386 -4.675,6.38 h 9.106 c 0,-3.994 -1.753,-6.38 -4.431,-6.38 z m -4.724,10.324 v 0.39 c 0,3.408 1.267,7.011 6.087,7.011 2.289,0 4.286,-0.827 6.136,-2.434 l 2.094,3.262 c -2.58,2.191 -5.552,3.263 -8.862,3.263 -6.964,0 -11.347,-5.016 -11.347,-12.905 0,-4.333 0.926,-7.207 3.068,-9.641 1.997,-2.289 4.431,-3.312 7.548,-3.312 2.434,0 4.675,0.634 6.768,2.533 2.143,1.948 3.214,4.967 3.214,10.713 v 1.12 z m 43.192,10.956 h -5.017 L 149.094,83.7 c -0.779,-2.922 -1.607,-6.72 -1.607,-6.72 h -0.097 c 0,0 -0.39,2.435 -1.607,6.964 l -2.97,11.102 h -5.016 l -6.72,-24.396 5.308,-0.73 2.678,11.93 a 157.494,157.494 0 0 1 1.266,6.476 h 0.147 c 0,0 0.486,-3.214 1.411,-6.623 l 3.166,-11.394 h 5.259 l 2.775,11.102 c 1.023,3.993 1.559,7.013 1.559,7.013 h 0.146 c 0,0 0.584,-3.75 1.217,-6.623 l 2.532,-11.492 h 5.552 l -6.964,24.737 m -71.134,14.107 h -3.068 v 10.665 H 85.8 c 2.922,0 4.48,-0.39 5.503,-1.412 0.925,-0.926 1.51,-2.338 1.51,-4.091 0,-3.409 -1.85,-5.162 -6.818,-5.162 z m 7.79,29.169 -2.92,-5.21 c -2.338,-4.14 -3.896,-6.477 -5.746,-8.328 -0.634,-0.633 -1.12,-0.973 -2.192,-1.022 v 14.56 h -5.502 v -33.697 h 10.274 c 7.548,0 10.957,4.382 10.957,9.641 0,4.821 -3.117,9.252 -8.376,9.252 1.218,0.633 3.457,3.896 5.21,6.72 l 4.968,8.084 h -6.672 z m 18.747,-21.182 c -3.018,0 -4.674,2.386 -4.674,6.378 h 9.106 c 0,-3.992 -1.753,-6.379 -4.432,-6.379 z m -4.723,10.323 v 0.39 c 0,3.408 1.266,7.012 6.087,7.012 2.289,0 4.285,-0.829 6.136,-2.435 l 2.093,3.262 c -2.58,2.191 -5.55,3.263 -8.862,3.263 -6.964,0 -11.346,-5.016 -11.346,-12.904 0,-4.335 0.925,-7.208 3.068,-9.642 1.996,-2.289 4.431,-3.311 7.547,-3.311 2.435,0 4.675,0.633 6.77,2.532 2.142,1.948 3.213,4.967 3.213,10.713 v 1.12 z m 24.736,11.394 c -5.405,0 -5.405,-4.87 -5.405,-6.963 v -20.988 c 0,-3.36 -0.146,-5.162 -0.487,-7.207 l 5.502,-1.217 c 0.39,1.51 0.438,3.555 0.438,6.768 v 20.891 c 0,3.311 0.146,3.847 0.536,4.432 0.292,0.438 1.12,0.68 1.753,0.389 l 0.876,3.31 c -0.973,0.39 -1.996,0.585 -3.213,0.585 m 6.622,-0.535 v -24.25 l 5.405,-0.974 v 25.224 z m 2.678,-28.292 c -1.948,0 -3.458,-1.607 -3.458,-3.555 0,-1.996 1.558,-3.603 3.555,-3.603 1.899,0 3.506,1.558 3.506,3.603 0,1.948 -1.607,3.555 -3.603,3.555 z m 18.065,28.925 c -6.72,0 -10.47,-4.723 -10.47,-12.661 0,-8.96 5.357,-13.245 10.86,-13.245 2.678,0 4.625,0.633 6.816,2.678 l -2.678,3.555 c -1.46,-1.315 -2.726,-1.9 -4.139,-1.9 -1.704,0 -3.116,0.877 -3.895,2.484 -0.73,1.51 -1.023,3.799 -1.023,6.866 0,3.36 0.536,5.503 1.656,6.72 0.779,0.877 1.947,1.413 3.262,1.413 1.705,0 3.36,-0.829 4.967,-2.435 l 2.532,3.262 c -2.24,2.24 -4.577,3.263 -7.888,3.263 m 12.74,-5.052 a 1.627,1.627 0 0 0 -0.458,-0.058 H 171.9 v 1.098 h 0.273 c 0.35,0 0.505,-0.039 0.612,-0.136 a 0.574,0.574 0 0 0 0.156,-0.408 c 0,-0.253 -0.097,-0.418 -0.292,-0.496 z m 0.427,3.344 c -0.156,-0.272 -0.224,-0.38 -0.38,-0.67 -0.398,-0.73 -0.524,-0.934 -0.67,-0.992 a 0.27,0.27 0 0 0 -0.127,-0.03 v 1.692 h -0.797 v -4.054 h 1.507 c 0.72,0 1.196,0.477 1.196,1.186 0,0.613 -0.408,1.108 -0.904,1.118 a 0.926,0.926 0 0 1 0.165,0.175 c 0.233,0.292 0.972,1.575 0.972,1.575 z m -0.71,-4.9 c -1.536,0 -2.77,1.283 -2.77,2.897 0,1.614 1.234,2.917 2.77,2.917 1.536,0 2.78,-1.303 2.78,-2.917 0,-1.614 -1.244,-2.897 -2.78,-2.897 z m 0,6.514 a 3.6,3.6 0 0 1 -3.597,-3.617 3.606,3.606 0 0 1 3.597,-3.616 3.606,3.606 0 0 1 3.597,3.616 3.6,3.6 0 0 1 -3.597,3.617 z"
           id="path6-8" />
      </g>
    </g>
  </g>
</svg>
