<?xml version="1.0" encoding="UTF-8" standalone="no"?>
<svg
   xmlns:dc="http://purl.org/dc/elements/1.1/"
   xmlns:cc="http://creativecommons.org/ns#"
   xmlns:rdf="http://www.w3.org/1999/02/22-rdf-syntax-ns#"
   xmlns:svg="http://www.w3.org/2000/svg"
   xmlns="http://www.w3.org/2000/svg"
   xmlns:sodipodi="http://sodipodi.sourceforge.net/DTD/sodipodi-0.dtd"
   xmlns:inkscape="http://www.inkscape.org/namespaces/inkscape"
   width="248.0px"
   height="248.0px"
   viewBox="0 0 248.0 248.0"
   version="1.1"
   id="SVGRoot"
   sodipodi:docname="NordVPN Dark.svg"
   inkscape:version="1.0.2-2 (e86c870879, 2021-01-15)">
  <defs
     id="defs1402">
    <inkscape:path-effect
       effect="fillet_chamfer"
       id="path-effect2040"
       is_visible="true"
       lpeversion="1"
       satellites_param="F,0,0,1,0,0,0,1 @ F,0,0,1,0,6.0755415,0,1 @ F,0,0,1,0,6.1445293,0,1 @ F,0,0,1,0,0,0,1"
       unit="px"
       method="auto"
       mode="F"
       radius="0"
       chamfer_steps="1"
       flexible="false"
       use_knot_distance="true"
       apply_no_radius="true"
       apply_with_radius="true"
       only_selected="true"
       hide_knots="false" />
    <style
       id="style1979">.cls-1{fill:url(#GreenGradient);}.cls-2{fill:#fff;}</style>
    <linearGradient
       id="GreenGradient"
       x1="-522.53"
       y1="465.47"
       x2="-416.47"
       y2="571.53"
       gradientTransform="rotate(-90,-456.5,24.5)"
       gradientUnits="userSpaceOnUse">
      <stop
         offset="0"
         stop-color="#1b660f"
         id="stop1981" />
      <stop
         offset="1"
         stop-color="#6cae3e"
         id="stop1983" />
    </linearGradient>
  </defs>
  <sodipodi:namedview
     id="base"
     pagecolor="#101010"
     bordercolor="#666666"
     borderopacity="1.0"
     inkscape:pageopacity="0"
     inkscape:pageshadow="2"
     inkscape:zoom="1.056836"
     inkscape:cx="124"
     inkscape:cy="124"
     inkscape:document-units="px"
     inkscape:current-layer="layer2"
     inkscape:document-rotation="0"
     showgrid="true"
     inkscape:window-width="1366"
     inkscape:window-height="705"
     inkscape:window-x="-8"
     inkscape:window-y="-8"
     inkscape:window-maximized="1"
     inkscape:snap-global="false"
     showguides="true">
    <inkscape:grid
       type="xygrid"
       id="grid1972" />
  </sodipodi:namedview>
  <metadata
     id="metadata1405">
    <rdf:RDF>
      <cc:Work
         rdf:about="">
        <dc:format>image/svg+xml</dc:format>
        <dc:type
           rdf:resource="http://purl.org/dc/dcmitype/StillImage" />
        <dc:title />
      </cc:Work>
    </rdf:RDF>
  </metadata>
  <g
     inkscape:groupmode="layer"
     id="layer3"
     inkscape:label="BG" />
  <g
     inkscape:groupmode="layer"
     id="layer4"
     inkscape:label="Bounding Box" />
  <g
     inkscape:groupmode="layer"
     id="layer2"
     inkscape:label="Top">
    <g
       id="g847"
       transform="translate(-0.19315289,-0.04989999)"
       style="fill:#5e5c64">
      <path
         style="fill:#5e5c64;fill-opacity:0.326613;stroke:none;stroke-width:3;stroke-linecap:round;stroke-linejoin:round;stroke-miterlimit:4;stroke-dasharray:none;stroke-opacity:1;paint-order:normal"
         id="path885"
         sodipodi:type="arc"
         sodipodi:cx="154.57903"
         sodipodi:cy="83.172447"
         sodipodi:rx="111.24603"
         sodipodi:ry="111.24603"
         sodipodi:start="5.9893981"
         sodipodi:end="5.9807042"
         sodipodi:open="true"
         sodipodi:arc-type="arc"
         transform="rotate(16.68412)"
         d="M 261.05862,50.957906 A 111.24603,111.24603 0 0 1 187.02492,189.58177 111.24603,111.24603 0 0 1 48.240476,115.84954 111.24603,111.24603 0 0 1 121.67088,-23.094829 111.24603,111.24603 0 0 1 260.77453,50.033412" />
      <path
         style="fill:#5e5c64;fill-opacity:1;stroke:#ffffff;stroke-width:4.5;stroke-linecap:round;stroke-linejoin:round;stroke-miterlimit:4;stroke-dasharray:none;stroke-opacity:1;paint-order:normal"
         id="path883-9"
         sodipodi:type="arc"
         sodipodi:cx="154.57903"
         sodipodi:cy="83.172447"
         sodipodi:rx="111.24604"
         sodipodi:ry="111.24604"
         sodipodi:start="5.9893981"
         sodipodi:end="5.9807042"
         sodipodi:open="true"
         sodipodi:arc-type="arc"
         transform="rotate(16.68412)"
         d="M 261.05862,50.957904 A 111.24604,111.24604 0 0 1 187.02492,189.58178 111.24604,111.24604 0 0 1 48.240468,115.84955 111.24604,111.24604 0 0 1 121.67088,-23.094836 111.24604,111.24604 0 0 1 260.77453,50.03341" />
    </g>
    <g
       id="Layer_2"
       data-name="Layer 2"
       transform="matrix(1.9071915,0,0,1.9071915,28.640425,28.594455)"
       style="fill:#ffffff">
      <g
         id="Layer_1-2"
         data-name="Layer 1-2"
         style="fill:#ffffff">
        <g
           id="Menus"
           style="fill:#ffffff">
          <g
             id="Elements"
             style="fill:#ffffff">
            <g
               id="Logo"
               style="fill:#ffffff">
              <g
                 id="Group"
                 style="fill:#ffffff">
                <path
                   id="Fill-1"
                   class="cls-1"
                   d="m 19.62,73.82 4.38,7.3 v -7.3 h 1.9 v 11.6 H 24.42 L 19.9,77.88 v 7.54 H 18 v -11.6 h 1.62"
                   style="fill:#ffffff" />
                <path
                   id="Fill-2"
                   class="cls-1"
                   d="m 30.19,82.24 c 0,1.19 0.53,1.85 1.62,1.85 1.09,0 1.63,-0.66 1.63,-1.85 v -2.65 c 0,-1.17 -0.5,-1.84 -1.63,-1.84 -1.13,0 -1.62,0.67 -1.62,1.84 z m 5.23,0.09 c 0,1.83 -1.24,3.25 -3.62,3.25 -2.38,0 -3.6,-1.42 -3.6,-3.25 v -2.8 c 0,-1.83 1.22,-3.28 3.6,-3.28 2.38,0 3.62,1.42 3.62,3.28 z"
                   style="fill:#ffffff" />
                <path
                   id="Fill-3"
                   class="cls-1"
                   d="m 42.44,78.3 a 1.59,1.59 0 0 0 -0.87,-0.23 c -1.19,0 -1.83,0.87 -2,2.32 v 5 h -2 v -9 h 1.72 l 0.11,1.49 a 2.33,2.33 0 0 1 2.22,-1.63 2.27,2.27 0 0 1 1,0.23 l -0.21,1.81"
                   style="fill:#ffffff" />
                <path
                   id="Fill-4"
                   class="cls-1"
                   d="m 49.05,78.69 a 2,2 0 0 0 -1.67,-0.82 c -1,0 -1.54,0.6 -1.54,1.86 v 2.45 c 0,1.19 0.5,1.81 1.52,1.81 a 2,2 0 0 0 1.7,-0.85 v -4.45 z m 0,-1.62 v -3.25 h 2 v 11.6 h -1.77 l -0.11,-0.83 a 3.26,3.26 0 0 1 -2.46,1 c -1.85,0 -2.85,-1.31 -2.85,-3.41 v -2.5 c 0,-2.09 1,-3.41 3,-3.41 a 3.28,3.28 0 0 1 2.22,0.8 z"
                   style="fill:#ffffff" />
                <path
                   id="Fill-5"
                   class="cls-1"
                   d="m 59,85.41 h -2.73 l -3.64,-11.6 h 2.87 l 2.13,8.53 2.11,-8.53 h 2.87 L 59,85.41"
                   style="fill:#ffffff" />
                <path
                   id="Fill-6"
                   class="cls-1"
                   d="m 66.71,79.49 h 1.52 c 0.82,0 1.17,-0.53 1.17,-1.79 0,-1.26 -0.36,-1.77 -1.17,-1.77 H 66.71 Z M 72,77.66 c 0,2.36 -1.26,3.81 -3.49,3.81 h -1.8 v 3.94 h -2.6 V 73.82 h 4.2 c 2.34,0 3.69,1.45 3.69,3.84 z"
                   style="fill:#ffffff" />
                <path
                   id="Fill-7"
                   class="cls-1"
                   d="m 75.77,73.82 3.92,6.38 V 73.82 H 82 v 11.6 h -1.82 l -4,-6.65 v 6.65 h -2.35 v -11.6 h 1.93"
                   style="fill:#ffffff" />
                <path
                   id="Fill-8"
                   class="cls-1"
                   d="m 40.92,35.29 2.59,4.07 5.55,-13.19 8.75,20.83 3.53,-6.3 11,24.22 a 30.19,30.19 0 1 0 -44.74,0 L 40.92,35.29"
                   style="fill:#ffffff" />
              </g>
            </g>
          </g>
        </g>
      </g>
    </g>
  </g>
</svg>
