<?xml version="1.0" encoding="UTF-8" standalone="no"?>
<svg
   xmlns:dc="http://purl.org/dc/elements/1.1/"
   xmlns:cc="http://creativecommons.org/ns#"
   xmlns:rdf="http://www.w3.org/1999/02/22-rdf-syntax-ns#"
   xmlns:svg="http://www.w3.org/2000/svg"
   xmlns="http://www.w3.org/2000/svg"
   xmlns:sodipodi="http://sodipodi.sourceforge.net/DTD/sodipodi-0.dtd"
   xmlns:inkscape="http://www.inkscape.org/namespaces/inkscape"
   width="248.0px"
   height="248.0px"
   viewBox="0 0 248.0 248.0"
   version="1.1"
   id="SVGRoot"
   sodipodi:docname="pubmatic Dark.svg"
   inkscape:version="1.0.2-2 (e86c870879, 2021-01-15)">
  <defs
     id="defs1402">
    <inkscape:path-effect
       effect="fillet_chamfer"
       id="path-effect2040"
       is_visible="true"
       lpeversion="1"
       satellites_param="F,0,0,1,0,0,0,1 @ F,0,0,1,0,6.0755415,0,1 @ F,0,0,1,0,6.1445293,0,1 @ F,0,0,1,0,0,0,1"
       unit="px"
       method="auto"
       mode="F"
       radius="0"
       chamfer_steps="1"
       flexible="false"
       use_knot_distance="true"
       apply_no_radius="true"
       apply_with_radius="true"
       only_selected="true"
       hide_knots="false" />
    <style
       id="style1979">.cls-1{fill:url(#GreenGradient);}.cls-2{fill:#fff;}</style>
    <linearGradient
       id="GreenGradient"
       x1="-522.53"
       y1="465.47"
       x2="-416.47"
       y2="571.53"
       gradientTransform="rotate(-90,-456.5,24.5)"
       gradientUnits="userSpaceOnUse">
      <stop
         offset="0"
         stop-color="#1b660f"
         id="stop1981" />
      <stop
         offset="1"
         stop-color="#6cae3e"
         id="stop1983" />
    </linearGradient>
  </defs>
  <sodipodi:namedview
     id="base"
     pagecolor="#101010"
     bordercolor="#666666"
     borderopacity="1.0"
     inkscape:pageopacity="0"
     inkscape:pageshadow="2"
     inkscape:zoom="0.95676215"
     inkscape:cx="124"
     inkscape:cy="124"
     inkscape:document-units="px"
     inkscape:current-layer="layer2"
     inkscape:document-rotation="0"
     showgrid="true"
     inkscape:window-width="1366"
     inkscape:window-height="705"
     inkscape:window-x="-8"
     inkscape:window-y="-8"
     inkscape:window-maximized="1"
     inkscape:snap-global="false"
     showguides="true">
    <inkscape:grid
       type="xygrid"
       id="grid1972" />
  </sodipodi:namedview>
  <metadata
     id="metadata1405">
    <rdf:RDF>
      <cc:Work
         rdf:about="">
        <dc:format>image/svg+xml</dc:format>
        <dc:type
           rdf:resource="http://purl.org/dc/dcmitype/StillImage" />
        <dc:title />
      </cc:Work>
    </rdf:RDF>
  </metadata>
  <g
     inkscape:groupmode="layer"
     id="layer3"
     inkscape:label="BG" />
  <g
     inkscape:groupmode="layer"
     id="layer4"
     inkscape:label="Bounding Box" />
  <g
     inkscape:groupmode="layer"
     id="layer2"
     inkscape:label="Top">
    <g
       id="g847"
       transform="translate(-0.19315289,-0.04989999)"
       style="fill:#5e5c64">
      <path
         style="fill:#5e5c64;fill-opacity:0.326613;stroke:none;stroke-width:3;stroke-linecap:round;stroke-linejoin:round;stroke-miterlimit:4;stroke-dasharray:none;stroke-opacity:1;paint-order:normal"
         id="path885"
         sodipodi:type="arc"
         sodipodi:cx="154.57903"
         sodipodi:cy="83.172447"
         sodipodi:rx="111.24603"
         sodipodi:ry="111.24603"
         sodipodi:start="5.9893981"
         sodipodi:end="5.9807042"
         sodipodi:open="true"
         sodipodi:arc-type="arc"
         transform="rotate(16.68412)"
         d="M 261.05862,50.957906 A 111.24603,111.24603 0 0 1 187.02492,189.58177 111.24603,111.24603 0 0 1 48.240476,115.84954 111.24603,111.24603 0 0 1 121.67088,-23.094829 111.24603,111.24603 0 0 1 260.77453,50.033412" />
      <path
         style="fill:#5e5c64;fill-opacity:1;stroke:#ffffff;stroke-width:4.5;stroke-linecap:round;stroke-linejoin:round;stroke-miterlimit:4;stroke-dasharray:none;stroke-opacity:1;paint-order:normal"
         id="path883-9"
         sodipodi:type="arc"
         sodipodi:cx="154.57903"
         sodipodi:cy="83.172447"
         sodipodi:rx="111.24604"
         sodipodi:ry="111.24604"
         sodipodi:start="5.9893981"
         sodipodi:end="5.9807042"
         sodipodi:open="true"
         sodipodi:arc-type="arc"
         transform="rotate(16.68412)"
         d="M 261.05862,50.957904 A 111.24604,111.24604 0 0 1 187.02492,189.58178 111.24604,111.24604 0 0 1 48.240468,115.84955 111.24604,111.24604 0 0 1 121.67088,-23.094836 111.24604,111.24604 0 0 1 260.77453,50.03341" />
    </g>
    <g
       id="g57"
       transform="matrix(0.31050313,0,0,0.31050313,24.182045,24.421646)">
      <path
         id="Fill-1"
         class="st0"
         d="m 311.7,350.7 c -11,0 -14.2,-9.6 -14.3,-18.3 0.1,-8.7 3.3,-18.3 14.3,-18.3 11,0 14.2,9.6 14.3,18.3 0,8.8 -3.3,18.3 -14.3,18.3 z m 3.4,-49.9 c -7.2,0 -12.8,2.5 -17.2,6.6 v -20.5 0 -5.8 c 0,-1.9 -1.5,-3.4 -3.4,-3.4 h -7.7 c -1.9,0 -3.4,1.5 -3.4,3.4 v 5.8 0 62.8 0 9.6 c 0,1.9 1.5,3.4 3.4,3.4 h 7.7 c 1.9,0 3.4,-1.5 3.4,-3.4 v -2.4 h 0.2 c 3.6,4.3 8.2,7.3 16.9,7.3 15.5,0 26.3,-14.2 26.3,-31.6 0.1,-17.6 -10.7,-31.8 -26.2,-31.8 z m -41.5,7.7 v 0 -2.8 c 0,-1.9 -1.5,-3.4 -3.4,-3.4 h -7.7 c -1.9,0 -3.4,1.5 -3.4,3.4 v 2.8 0 26.2 c 0,7.3 -3.3,15.3 -14.3,15.3 -7.4,0 -10.7,-3.5 -10.7,-11.8 v -32.5 c 0,-1.9 -1.5,-3.4 -3.4,-3.4 H 223 c -1.9,0 -3.4,1.5 -3.4,3.4 v 1.4 0 35.2 c 0,17.5 11.8,21.8 22.1,21.8 8.2,0 14.1,-3.2 17.3,-7.4 h 0.2 v 2.4 0 0.2 c 0,1.9 1.5,3.4 3.4,3.4 h 7.7 c 1.9,0 3.4,-1.5 3.4,-3.4 v -0.2 0 -50.6 z m -92.8,12.2 H 164.9 V 291 h 15.3 c 9.2,0 15.5,3.5 15.5,15.3 0,8.4 -4.8,14.4 -14.9,14.4 z m 1.9,-43 h -21.2 -8 -1.1 c -1.9,0 -3.4,1.5 -3.4,3.4 v 1.1 75.2 1.9 c 0,1.9 1.5,3.4 3.4,3.4 h 9.1 c 1.9,0 3.4,-1.5 3.4,-3.4 v -1.9 0 -23.4 h 18.9 c 16.8,0 28.6,-10.9 28.6,-27.7 0.1,-16.4 -9.7,-28.6 -29.7,-28.6 z"
         style="fill:#4fc8ed;fill-opacity:0.929412" />
      <path
         id="Fill-3"
         d="m 478.6,332.5 c -1.9,1 -4.3,1.7 -6.9,2.1 l -8,1.7 c -5.5,1.1 -10,2.6 -10,8.3 0,4.5 4.2,7.5 9.4,7.5 6.8,0 15.5,-3.3 15.5,-11.1 z m 14.6,19.4 v 0 7.4 c 0,1.9 -1.5,3.4 -3.4,3.4 h -3.5 v 0 0 h -4.2 c -1.9,0 -3.4,-1.5 -3.4,-3.4 v -2 c 0,0 0,0 0,0 -5.6,4.5 -12.2,6.9 -19.7,6.9 -11.5,0 -20.5,-7.3 -20.5,-19 0,-11.8 9.4,-17.1 18.4,-18.9 l 6.1,-1.2 c 5.3,-1.1 12.1,-2.3 15.8,-3.6 v -1.8 c 0,-6 -5.1,-7.6 -11.5,-7.6 -7.4,0 -10.6,1.8 -11.4,7.5 v 0 c -0.1,0.6 -0.4,1 -0.8,1.5 v 0.1 0 c -0.7,0.7 -1.6,1.1 -2.6,1.1 l -7.7,-0.4 c -2.7,-0.2 -3.2,-1.6 -3.1,-3.4 v 0 c 0,0 0,0 0,-0.1 v 0 0 c 1.3,-12.4 13.2,-17.3 25.7,-17.3 13,0 26,2.6 26,19.8 v 31 z m 124.5,-12.2 h -6.1 c -2.3,0 -3.6,1.5 -4.8,3.7 l -0.1,0.3 c -2.5,4.2 -6.7,7.1 -11.5,7.1 -10.4,0 -15.7,-8.8 -15.7,-18.3 0,-9.4 5.3,-18.3 15.7,-18.3 4.8,0 9,2.8 11.5,7.1 l 0.1,0.3 c 1.2,2.2 2.5,3.6 4.8,3.6 h 6.1 c 2.9,0 4.2,-1.9 3.6,-4.3 v -0.1 c -0.6,-2.4 -1.5,-4.6 -2.6,-6.6 l -0.2,-0.4 c -4.1,-7.2 -11.1,-13 -23.5,-13 -19.6,0 -31,13.6 -31,31.6 0,18 11.3,31.6 31,31.6 12.4,0 19.4,-5.7 23.5,-13 l 0.2,-0.4 c 1.1,-2 2,-4.2 2.6,-6.6 v -0.1 c 0.6,-2.3 -0.7,-4.2 -3.6,-4.2 z m -61,-54.6 c 0,-4.4 -3.3,-7.9 -7.5,-7.9 -4.1,0 -7.5,3.5 -7.5,7.9 0,4.4 3.4,7.9 7.5,7.9 4.1,0 7.5,-3.6 7.5,-7.9 z m -0.2,20.6 c 0,-1.9 -1.5,-3.4 -3.4,-3.4 h -7.7 c -1.9,0 -3.4,1.5 -3.4,3.4 v 53.6 c 0,1.9 1.5,3.4 3.4,3.4 h 7.7 c 1.9,0 3.4,-1.5 3.4,-3.4 z M 531,302.3 h -7.4 v -18 c 0,-1.9 -1.5,-3.4 -3.4,-3.4 h -7.7 c -1.9,0 -3.4,1.5 -3.4,3.4 v 18 h -7.5 c -1.5,0 -2.7,1.2 -2.7,2.7 v 6.1 c 0,1.5 1.2,2.7 2.7,2.7 h 7.5 v 45.4 c 0,1.9 1.5,3.4 3.4,3.4 h 7.7 c 1.9,0 3.4,-1.5 3.4,-3.4 v -45.4 h 7.4 c 1.5,0 2.8,-1.2 2.8,-2.7 V 305 c -0.1,-1.5 -1.3,-2.7 -2.8,-2.7 z m -100.7,56.1 v 0 0.9 c 0,1.9 -1.5,3.4 -3.4,3.4 h -8.5 c -1.9,0 -3.4,-1.5 -3.4,-3.4 v -66.7 0 -0.8 h -0.2 l -6.9,29.3 v 0 l -5.8,24.7 -3.1,13.1 v 0 l -0.1,0.4 c -0.4,1.8 -1.5,3.4 -3.4,3.4 v 0 h -9.9 v 0 c -1.8,-0.1 -3,-1.6 -3.4,-3.4 v -0.1 0 l -15.7,-66.6 h -0.4 v 65.9 0 0.8 c 0,1.9 -1.5,3.4 -3.4,3.4 h -8.6 c -1.9,0 -3.4,-1.5 -3.4,-3.4 v -78.2 c 0,0 0,0 0,0 v -0.1 0 c 0.1,-1.8 1.6,-3.3 3.4,-3.3 v 0 h 18.4 0.1 v 0 c 1.5,0 2.7,1.1 3.1,2.4 v 0 0.2 c 0,0 0,0.1 0,0.1 l 14.9,63.1 h 0.2 l 14.9,-63.1 c 0.3,-1.5 1.6,-2.7 3.2,-2.8 v 0 h 0.1 17.4 0.2 c 1.9,0 3.4,1.5 3.4,3.3 v 0 77.5 z" />
      <path
         id="Fill-6"
         style="fill:#4fc8ed;fill-opacity:1"
         d="M 106.4,277.7 H 21.5 v 85 h 84.9 z"
         class="st0" />
    </g>
  </g>
</svg>
