<?xml version="1.0" encoding="UTF-8" standalone="no"?>
<svg
   xmlns:dc="http://purl.org/dc/elements/1.1/"
   xmlns:cc="http://creativecommons.org/ns#"
   xmlns:rdf="http://www.w3.org/1999/02/22-rdf-syntax-ns#"
   xmlns:svg="http://www.w3.org/2000/svg"
   xmlns="http://www.w3.org/2000/svg"
   xmlns:sodipodi="http://sodipodi.sourceforge.net/DTD/sodipodi-0.dtd"
   xmlns:inkscape="http://www.inkscape.org/namespaces/inkscape"
   width="248.0px"
   height="248.0px"
   viewBox="0 0 248.0 248.0"
   version="1.1"
   id="SVGRoot"
   sodipodi:docname="redhat Dark.svg"
   inkscape:version="1.0.2-2 (e86c870879, 2021-01-15)">
  <defs
     id="defs1402">
    <inkscape:path-effect
       effect="fillet_chamfer"
       id="path-effect2040"
       is_visible="true"
       lpeversion="1"
       satellites_param="F,0,0,1,0,0,0,1 @ F,0,0,1,0,6.0755415,0,1 @ F,0,0,1,0,6.1445293,0,1 @ F,0,0,1,0,0,0,1"
       unit="px"
       method="auto"
       mode="F"
       radius="0"
       chamfer_steps="1"
       flexible="false"
       use_knot_distance="true"
       apply_no_radius="true"
       apply_with_radius="true"
       only_selected="true"
       hide_knots="false" />
    <style
       id="style1979">.cls-1{fill:url(#GreenGradient);}.cls-2{fill:#fff;}</style>
    <linearGradient
       id="GreenGradient"
       x1="-522.53"
       y1="465.47"
       x2="-416.47"
       y2="571.53"
       gradientTransform="rotate(-90,-456.5,24.5)"
       gradientUnits="userSpaceOnUse">
      <stop
         offset="0"
         stop-color="#1b660f"
         id="stop1981" />
      <stop
         offset="1"
         stop-color="#6cae3e"
         id="stop1983" />
    </linearGradient>
  </defs>
  <sodipodi:namedview
     id="base"
     pagecolor="#101010"
     bordercolor="#666666"
     borderopacity="1.0"
     inkscape:pageopacity="0"
     inkscape:pageshadow="2"
     inkscape:zoom="1.7379032"
     inkscape:cx="124"
     inkscape:cy="124"
     inkscape:document-units="px"
     inkscape:current-layer="layer2"
     inkscape:document-rotation="0"
     showgrid="true"
     inkscape:window-width="1366"
     inkscape:window-height="705"
     inkscape:window-x="-8"
     inkscape:window-y="-8"
     inkscape:window-maximized="1"
     inkscape:snap-global="false"
     showguides="true">
    <inkscape:grid
       type="xygrid"
       id="grid1972" />
  </sodipodi:namedview>
  <metadata
     id="metadata1405">
    <rdf:RDF>
      <cc:Work
         rdf:about="">
        <dc:format>image/svg+xml</dc:format>
        <dc:type
           rdf:resource="http://purl.org/dc/dcmitype/StillImage" />
        <dc:title />
      </cc:Work>
    </rdf:RDF>
  </metadata>
  <g
     inkscape:groupmode="layer"
     id="layer3"
     inkscape:label="BG" />
  <g
     inkscape:groupmode="layer"
     id="layer4"
     inkscape:label="Bounding Box" />
  <g
     inkscape:groupmode="layer"
     id="layer2"
     inkscape:label="Top">
    <g
       id="g847"
       transform="translate(-0.19315289,-0.04989999)"
       style="fill:#5e5c64">
      <path
         style="fill:#5e5c64;fill-opacity:0.326613;stroke:none;stroke-width:3;stroke-linecap:round;stroke-linejoin:round;stroke-miterlimit:4;stroke-dasharray:none;stroke-opacity:1;paint-order:normal"
         id="path885"
         sodipodi:type="arc"
         sodipodi:cx="154.57903"
         sodipodi:cy="83.172447"
         sodipodi:rx="111.24603"
         sodipodi:ry="111.24603"
         sodipodi:start="5.9893981"
         sodipodi:end="5.9807042"
         sodipodi:open="true"
         sodipodi:arc-type="arc"
         transform="rotate(16.68412)"
         d="M 261.05862,50.957906 A 111.24603,111.24603 0 0 1 187.02492,189.58177 111.24603,111.24603 0 0 1 48.240476,115.84954 111.24603,111.24603 0 0 1 121.67088,-23.094829 111.24603,111.24603 0 0 1 260.77453,50.033412" />
      <path
         style="fill:#5e5c64;fill-opacity:1;stroke:#ffffff;stroke-width:4.5;stroke-linecap:round;stroke-linejoin:round;stroke-miterlimit:4;stroke-dasharray:none;stroke-opacity:1;paint-order:normal"
         id="path883-9"
         sodipodi:type="arc"
         sodipodi:cx="154.57903"
         sodipodi:cy="83.172447"
         sodipodi:rx="111.24604"
         sodipodi:ry="111.24604"
         sodipodi:start="5.9893981"
         sodipodi:end="5.9807042"
         sodipodi:open="true"
         sodipodi:arc-type="arc"
         transform="rotate(16.68412)"
         d="M 261.05862,50.957904 A 111.24604,111.24604 0 0 1 187.02492,189.58178 111.24604,111.24604 0 0 1 48.240468,115.84955 111.24604,111.24604 0 0 1 121.67088,-23.094836 111.24604,111.24604 0 0 1 260.77453,50.03341" />
    </g>
    <g
       id="g22"
       transform="matrix(1.7493452,0,0,1.7493452,19.040172,71.523143)">
      <path
         d="m 41.698,40.1 a 10.08,10.08 0 0 0 -2.243,-0.268 c -1.313,0 -2.5,0.227 -3.4,0.595 a 0.3,0.3 0 0 0 -0.166,0.265 c 0,0.042 0.01,0.085 0.027,0.12 0.104,0.302 -0.067,0.63 -0.92,0.817 -1.265,0.278 -2.063,1.583 -2.52,2.016 -0.537,0.5 -2.052,0.822 -1.824,0.52 0.178,-0.237 0.86,-0.978 1.275,-1.778 0.37,-0.716 0.7,-0.92 1.156,-1.602 0.133,-0.2 0.65,-0.903 0.802,-1.46 0.17,-0.542 0.112,-1.225 0.177,-1.505 0.093,-0.405 0.475,-1.283 0.504,-1.78 0.017,-0.28 -1.17,0.4 -1.734,0.4 -0.564,0 -1.112,-0.338 -1.616,-0.362 -0.623,-0.028 -1.023,0.48 -1.587,0.392 -0.322,-0.052 -0.593,-0.335 -1.155,-0.356 -0.8,-0.03 -1.78,0.446 -3.618,0.386 -1.808,-0.06 -3.478,-2.285 -3.706,-2.64 -0.267,-0.415 -0.593,-0.415 -0.95,-0.1 -0.357,0.315 -0.794,0.07 -0.92,-0.15 -0.237,-0.414 -0.87,-1.627 -1.853,-1.882 -1.358,-0.352 -2.046,0.752 -1.957,1.63 0.1,0.9 0.667,1.142 0.934,1.616 0.267,0.474 0.403,0.78 0.905,1 0.356,0.15 0.488,0.368 0.383,0.66 -0.093,0.254 -0.463,0.312 -0.707,0.324 -0.517,0.025 -0.88,-0.115 -1.145,-0.285 -0.308,-0.197 -0.558,-0.47 -0.826,-0.93 -0.3,-0.5 -0.8,-0.733 -1.37,-0.733 -0.272,0 -0.526,0.072 -0.752,0.188 -0.893,0.466 -1.957,0.74 -3.102,0.74 l -1.3,10e-4 c 2.476,7.344 9.42,12.633 17.6,12.633 6.534,0 12.28,-3.374 15.6,-8.476 m 2.975,-1.986 a 0.94,0.94 0 0 0 -0.94,0.938 0.94,0.94 0 0 0 0.94,0.938 0.94,0.94 0 0 0 0.938,-0.938 0.94,0.94 0 0 0 -0.938,-0.938 z m 0,0.166 a 0.771,0.771 0 1 1 -0.774,0.773 c 0,-0.427 0.346,-0.773 0.774,-0.773 z m -0.317,0.292 v 0.958 h 0.145 V 39.1 h 0.168 l 0.253,0.415 h 0.163 l -0.273,-0.422 c 0.142,-0.017 0.25,-0.1 0.25,-0.262 0,-0.2 -0.112,-0.273 -0.338,-0.273 z m 0.145,0.123 h 0.198 c 0.1,0 0.2,0.022 0.2,0.14 0,0.147 -0.1,0.157 -0.233,0.157 h -0.174 z"
         fill="#ffffff"
         id="path2" />
      <path
         d="m 26.112,11.433 c -10.255,0 -18.57,8.313 -18.57,18.57 a 18.54,18.54 0 0 0 0.969,5.935 h 1.3 c 1.145,0 2.2,-0.276 3.102,-0.74 a 1.64,1.64 0 0 1 0.752,-0.188 c 0.57,0 1.06,0.222 1.37,0.732 0.268,0.463 0.518,0.735 0.826,0.93 0.265,0.17 0.628,0.3 1.145,0.286 0.243,-0.012 0.614,-0.07 0.707,-0.325 0.106,-0.292 -0.027,-0.512 -0.383,-0.66 -0.502,-0.2 -0.64,-0.517 -0.906,-1 -0.266,-0.483 -0.843,-0.724 -0.934,-1.615 -0.1,-0.878 0.6,-1.982 1.957,-1.63 0.982,0.254 1.616,1.467 1.853,1.882 0.125,0.218 0.563,0.474 0.92,0.15 0.357,-0.324 0.682,-0.327 0.95,0.1 0.228,0.354 1.898,2.58 3.706,2.64 1.84,0.06 2.816,-0.416 3.618,-0.386 0.563,0.02 0.834,0.304 1.156,0.356 0.564,0.1 0.964,-0.42 1.587,-0.4 0.503,0.025 1.052,0.36 1.615,0.36 0.563,0 1.75,-0.68 1.735,-0.4 -0.03,0.496 -0.4,1.374 -0.504,1.778 -0.065,0.28 -0.008,0.963 -0.177,1.506 -0.15,0.556 -0.668,1.26 -0.802,1.46 -0.455,0.682 -0.786,0.886 -1.157,1.6 -0.415,0.8 -1.096,1.54 -1.275,1.78 -0.228,0.303 1.287,-0.01 1.824,-0.52 0.456,-0.434 1.255,-1.74 2.52,-2.017 0.853,-0.187 1.024,-0.515 0.92,-0.817 a 0.3,0.3 0 0 1 0.14,-0.386 c 0.88,-0.367 2.076,-0.594 3.4,-0.594 a 10.01,10.01 0 0 1 2.243,0.267 18.48,18.48 0 0 0 2.98,-10.093 c 0,-10.256 -8.313,-18.57 -18.568,-18.57 z M 30.2,38.4 c 0.095,0.092 0.26,0.407 0.058,0.804 a 1.58,1.58 0 0 1 -0.451,0.532 c -0.26,0.2 -0.772,0.45 -1.472,0.007 -0.376,-0.24 -0.4,-0.32 -0.92,-0.252 -0.37,0.05 -0.52,-0.326 -0.386,-0.638 0.134,-0.312 0.682,-0.562 1.364,-0.162 0.307,0.18 0.785,0.56 1.204,0.224 a 3.41,3.41 0 0 0 0.518,-0.51 c 0.01,-0.01 0.026,-0.02 0.043,-0.02 0.017,0 0.03,0.006 0.04,0.014"
         fill="#100f0d"
         id="path4" />
      <path
         d="m 28.9,15.26 a 6.09,6.09 0 0 0 -1.273,0.185 c -0.616,0.158 -1.822,0.785 -4.058,0.282 -3.87,-0.872 -4.444,1.067 -4.665,1.9 l -0.756,3.245 c -0.178,0.978 -0.41,2.677 5.6,3.822 2.8,0.533 2.942,1.256 3.065,1.776 0.222,0.933 0.578,1.467 0.978,1.733 0.4,0.266 0,0.488 -0.444,0.533 -1.192,0.124 -5.6,-1.14 -8.206,-2.622 -2.133,-1.304 -2.168,-2.477 -1.68,-3.473 -3.222,-0.35 -5.64,0.302 -6.08,1.828 -0.752,2.618 5.755,7.088 13.165,9.332 7.777,2.354 15.775,0.71 16.664,-4.177 0.403,-2.22 -1.467,-3.863 -4.62,-4.575 -0.184,0.617 -0.445,1.405 -1.606,2 -0.17,0.087 -0.233,-0.055 -0.156,-0.188 0.44,-0.746 0.517,-0.933 0.644,-1.227 0.18,-0.43 0.272,-1.044 -0.083,-2.32 -0.698,-2.513 -2.155,-5.872 -3.214,-6.962 -0.766,-0.79 -2,-1.152 -3.274,-1.104 z m 0.35,0.86 0.106,10e-4 c 1.2,0.027 2.143,0.5 2.13,1.056 -0.013,0.556 -1,0.986 -2.18,0.96 a 4.22,4.22 0 0 1 -1.058,-0.155 c -0.037,-0.01 -0.063,-0.04 -0.063,-0.078 0,-0.038 0.026,-0.07 0.064,-0.078 0.742,-0.172 1.244,-0.453 1.21,-0.718 -0.047,-0.352 -1.018,-0.543 -2.17,-0.427 -0.126,0.013 -0.25,0.03 -0.37,0.048 -0.043,0.001 -0.07,-0.025 -0.07,-0.055 0,-0.023 0.014,-0.043 0.034,-0.052 0.416,-0.22 1.036,-0.394 1.746,-0.466 a 6.48,6.48 0 0 1 0.622,-0.035 z m -8.825,2.237 a 0.58,0.58 0 0 1 0.45,0.197 c 0.203,0.253 0.637,0.667 1.2,0.652 0.563,-0.015 1.212,-0.133 2.118,-0.133 0.918,0 1.536,0.343 1.57,0.637 0.03,0.25 -0.075,0.488 -1.097,0.562 -2.145,0.155 -2.368,0.387 -2.77,0.815 -0.567,0.603 -1.312,-0.783 -1.312,-0.783 -0.448,-0.094 -0.99,-0.817 -0.698,-1.49 0.144,-0.333 0.35,-0.45 0.54,-0.457 z"
         fill="#cd1e25"
         id="path6" />
      <path
         d="M 51.962,30.392 51.866,27 h 2.557 l 0.1,2.005 h 0.082 c 0.575,-1.486 1.937,-2.245 3.197,-2.245 0.288,0 0.456,0.01 0.692,0.057 v 2.514 c -0.293,-0.052 -0.59,-0.077 -0.9,-0.075 -1.407,0 -2.383,0.8 -2.646,2.02 a 3.98,3.98 0 0 0 -0.077,0.807 v 5.475 h -2.954 z m 10.106,2.605 c 0.08,1.91 1.716,2.75 3.608,2.75 1.357,0 2.328,-0.192 3.22,-0.5 l 0.44,1.84 c -1,0.382 -2.386,0.67 -4.082,0.67 -3.8,0 -6.01,-2.118 -6.01,-5.354 0,-2.915 1.955,-5.672 5.71,-5.672 3.797,0 5.033,2.823 5.033,5.136 0,0.496 -0.047,0.894 -0.106,1.14 z m 5.137,-1.86 c 0.013,-0.98 -0.458,-2.573 -2.435,-2.573 -1.818,0 -2.574,1.492 -2.705,2.573 z m 37.278,3.948 c 0,0.824 0.035,1.676 0.168,2.473 h -1.05 l -0.166,-1.492 h -0.055 c -0.56,0.803 -1.84,1.73 -3.67,1.73 -2.316,0 -3.394,-1.476 -3.394,-2.863 0,-2.402 2.345,-3.85 7.03,-3.808 v -0.277 c 0,-1.03 -0.222,-3.085 -2.945,-3.068 -1.007,0 -2.057,0.244 -2.9,0.776 l -0.363,-0.75 c 1.053,-0.644 2.336,-0.9 3.378,-0.9 3.323,0 3.96,2.255 3.96,4.115 v 4.062 z m -1.14,-3.092 c -2.507,-0.066 -5.82,0.28 -5.82,2.78 0,1.496 1.092,2.168 2.29,2.168 1.92,0 3.01,-1.074 3.406,-2.087 a 1.79,1.79 0 0 0 0.122,-0.624 z m 5.832,-7.14 v 2.294 h 3.282 v 0.836 h -3.282 v 6.767 c 0,1.324 0.456,2.153 1.692,2.153 0.593,0 1.012,-0.07 1.307,-0.162 l 0.138,0.798 c -0.373,0.14 -0.895,0.25 -1.59,0.25 -0.842,0 -1.537,-0.238 -1.987,-0.737 -0.52,-0.55 -0.7,-1.42 -0.7,-2.484 v -6.583 h -1.94 v -0.836 h 1.94 v -1.914 z m -18.752,2.056 c -0.82,-10e-4 -1.623,0.206 -2.32,0.597 -0.667,0.36 -1.21,0.88 -1.572,1.5 h -0.048 v -5.15 l -1.14,-0.28 V 37.56 h 1.14 v -6.37 c 0,-0.423 0.035,-0.716 0.156,-1.026 a 3.75,3.75 0 0 1 3.472,-2.358 c 2.356,0 3.172,1.71 3.172,3.585 v 6.166 h 1.14 v -6.28 c 0.001,-3.88 -2.91,-4.37 -4,-4.37 z m -7.72,-3.98 -2.95,-0.723 v 5.932 h -0.048 c -0.523,-0.78 -1.674,-1.376 -3.273,-1.376 -2.807,0 -5.253,2.1 -5.234,5.64 0,3.246 2.208,5.397 4.997,5.397 1.685,0 3.094,-0.727 3.79,-1.91 h 0.054 l 0.133,1.67 h 2.63 l -0.097,-2.962 z m -2.95,10.052 c 0,0.28 -0.022,0.542 -0.09,0.78 -0.298,1.156 -1.342,1.9 -2.55,1.9 -1.86,0 -2.923,-1.418 -2.923,-3.357 0,-1.96 1.055,-3.475 2.957,-3.475 1.327,0 2.276,0.847 2.54,1.874 0.05,0.217 0.066,0.484 0.066,0.697 z"
         fill="#020002"
         fill-rule="evenodd"
         id="path8" />
    </g>
  </g>
</svg>
