<?xml version="1.0" encoding="UTF-8" standalone="no"?>
<svg
   xmlns:dc="http://purl.org/dc/elements/1.1/"
   xmlns:cc="http://creativecommons.org/ns#"
   xmlns:rdf="http://www.w3.org/1999/02/22-rdf-syntax-ns#"
   xmlns:svg="http://www.w3.org/2000/svg"
   xmlns="http://www.w3.org/2000/svg"
   xmlns:xlink="http://www.w3.org/1999/xlink"
   xmlns:sodipodi="http://sodipodi.sourceforge.net/DTD/sodipodi-0.dtd"
   xmlns:inkscape="http://www.inkscape.org/namespaces/inkscape"
   width="248.0px"
   height="248.0px"
   viewBox="0 0 248.0 248.0"
   version="1.1"
   id="SVGRoot"
   sodipodi:docname="salesforce-2 White.svg"
   inkscape:version="1.0.2-2 (e86c870879, 2021-01-15)">
  <defs
     id="defs1402">
    <inkscape:path-effect
       effect="fillet_chamfer"
       id="path-effect2040"
       is_visible="true"
       lpeversion="1"
       satellites_param="F,0,0,1,0,0,0,1 @ F,0,0,1,0,6.0755415,0,1 @ F,0,0,1,0,6.1445293,0,1 @ F,0,0,1,0,0,0,1"
       unit="px"
       method="auto"
       mode="F"
       radius="0"
       chamfer_steps="1"
       flexible="false"
       use_knot_distance="true"
       apply_no_radius="true"
       apply_with_radius="true"
       only_selected="true"
       hide_knots="false" />
    <style
       id="style1979">.cls-1{fill:url(#GreenGradient);}.cls-2{fill:#fff;}</style>
    <linearGradient
       id="GreenGradient"
       x1="-522.53"
       y1="465.47"
       x2="-416.47"
       y2="571.53"
       gradientTransform="rotate(-90,-456.5,24.5)"
       gradientUnits="userSpaceOnUse">
      <stop
         offset="0"
         stop-color="#1b660f"
         id="stop1981" />
      <stop
         offset="1"
         stop-color="#6cae3e"
         id="stop1983" />
    </linearGradient>
    <linearGradient
       id="OrangeGradient"
       x1="1131.1"
       y1="-516.47998"
       x2="1131.1"
       y2="-366.48001"
       gradientTransform="rotate(-135,816.69218,-8.7994369)"
       gradientUnits="userSpaceOnUse">
      <stop
         offset="0"
         stop-color="#c8511b"
         id="stop138" />
      <stop
         offset="1"
         stop-color="#f90"
         id="stop140" />
    </linearGradient>
    <clipPath
       id="clip1">
      <path
         d="m 93,27 h 58 V 88.851563 H 93 Z m 0,0"
         id="path2" />
    </clipPath>
    <clipPath
       id="clip2">
      <path
         d="m 161,10 h 41 v 78.851563 h -41 z m 0,0"
         id="path5" />
    </clipPath>
    <clipPath
       id="clip3">
      <path
         d="m 206,0 h 65 v 88.851563 h -65 z m 0,0"
         id="path8" />
    </clipPath>
    <clipPath
       id="clip4">
      <path
         d="m 322,26 h 57 v 62.851563 h -57 z m 0,0"
         id="path11" />
    </clipPath>
    <clipPath
       id="clip5">
      <path
         d="m 415,26 h 58.05859 V 87 H 415 Z m 0,0"
         id="path14" />
    </clipPath>
    <clipPath
       id="clip6">
      <path
         d="M 0,3 H 87 V 88.851563 H 0 Z m 0,0"
         id="path17" />
    </clipPath>
    <clipPath
       id="b">
      <use
         xlink:href="#a"
         overflow="visible"
         id="use5"
         x="0"
         y="0"
         width="100%"
         height="100%" />
    </clipPath>
    <clipPath
       id="d">
      <use
         xlink:href="#c"
         overflow="visible"
         id="use21"
         x="0"
         y="0"
         width="100%"
         height="100%" />
    </clipPath>
    <linearGradient
       id="e"
       gradientUnits="userSpaceOnUse"
       x1="-17845.727"
       y1="-3022.7009"
       x2="-17300.025"
       y2="-3131.4309"
       gradientTransform="matrix(0.1741,0,0,-0.1741,5044.277,-686.514)">
      <stop
         offset="0"
         stop-color="#2b7a77"
         id="stop30" />
      <stop
         offset=".51"
         stop-color="#4ebaa9"
         id="stop32" />
      <stop
         offset="1"
         stop-color="#5cc2b1"
         id="stop34" />
    </linearGradient>
    <linearGradient
       id="f"
       gradientUnits="userSpaceOnUse"
       x1="-16495.199"
       y1="-6380.3711"
       x2="-16765.998"
       y2="-5744.4058"
       gradientTransform="matrix(0.1741,0,0,-0.1741,5044.277,-686.514)">
      <stop
         offset="0"
         stop-color="#236736"
         id="stop39" />
      <stop
         offset=".493"
         stop-color="#6ba443"
         id="stop41" />
      <stop
         offset="1"
         stop-color="#86c146"
         id="stop43" />
    </linearGradient>
    <linearGradient
       id="g"
       gradientUnits="userSpaceOnUse"
       x1="-16221.797"
       y1="-6660.6538"
       x2="-15823.801"
       y2="-5712.8491"
       gradientTransform="matrix(0.1741,0,0,-0.1741,5044.277,-686.514)">
      <stop
         offset="0"
         stop-color="#29a5e3"
         id="stop48" />
      <stop
         offset=".515"
         stop-color="#356eb9"
         id="stop50" />
      <stop
         offset="1"
         stop-color="#394da5"
         id="stop52" />
    </linearGradient>
    <path
       id="a"
       d="M 196.35,-37.141 H 1196.36 V 128.657 H 196.35 Z" />
    <path
       id="c"
       d="M 196.35,-37.141 H 1196.36 V 128.657 H 196.35 Z" />
    <radialGradient
       cx="202.91011"
       cy="65.021362"
       fx="202.91011"
       fy="65.021362"
       r="48.504616"
       id="a-5"
       gradientTransform="scale(1.0005153,0.99948493)"
       gradientUnits="userSpaceOnUse">
      <stop
         stop-color="#FFF"
         offset="0%"
         id="stop2" />
      <stop
         stop-color="#FCE800"
         offset="19.02%"
         id="stop4" />
      <stop
         stop-color="#EC8F27"
         offset="85.93%"
         id="stop6" />
    </radialGradient>
    <linearGradient
       x1="134.77487"
       y1="49.381653"
       x2="134.77487"
       y2="0.55994713"
       id="b-0"
       gradientTransform="scale(1.0256763,0.97496651)"
       gradientUnits="userSpaceOnUse">
      <stop
         stop-color="#F68B1F"
         offset="0%"
         id="stop9" />
      <stop
         stop-color="#FFF"
         offset="100%"
         id="stop11" />
    </linearGradient>
    <linearGradient
       x1="53.483879"
       y1="44.051418"
       x2="64.062614"
       y2="62.661644"
       id="c-7"
       gradientUnits="userSpaceOnUse">
      <stop
         stop-color="#FFF"
         offset="0%"
         id="stop14" />
      <stop
         stop-color="#FEF6ED"
         offset="4.821%"
         id="stop16" />
      <stop
         stop-color="#FBD0A5"
         offset="25.69%"
         id="stop18" />
      <stop
         stop-color="#F9B26B"
         offset="44.42%"
         id="stop20" />
      <stop
         stop-color="#F79D42"
         offset="60.34%"
         id="stop22" />
      <stop
         stop-color="#F69028"
         offset="72.82%"
         id="stop24" />
      <stop
         stop-color="#F68B1F"
         offset="80.33%"
         id="stop26" />
    </linearGradient>
    <linearGradient
       x1="2.05039"
       y1="68.696198"
       x2="42.65826"
       y2="192.964"
       id="d-8"
       gradientTransform="scale(1.409801,0.70931995)"
       gradientUnits="userSpaceOnUse">
      <stop
         stop-color="#FFF"
         offset="0%"
         id="stop29" />
      <stop
         stop-color="#FEF6ED"
         offset="4.821%"
         id="stop31" />
      <stop
         stop-color="#FBD0A5"
         offset="25.69%"
         id="stop33" />
      <stop
         stop-color="#F9B26B"
         offset="44.42%"
         id="stop35" />
      <stop
         stop-color="#F79D42"
         offset="60.34%"
         id="stop37" />
      <stop
         stop-color="#F69028"
         offset="72.82%"
         id="stop39-9" />
      <stop
         stop-color="#F68B1F"
         offset="80.33%"
         id="stop41-3" />
    </linearGradient>
    <linearGradient
       x1="180.28741"
       y1="90.57383"
       x2="173.40768"
       y2="123.44773"
       id="e-2"
       gradientTransform="scale(1.2768133,0.78319989)"
       gradientUnits="userSpaceOnUse">
      <stop
         stop-color="#FFF"
         offset="0%"
         id="stop44" />
      <stop
         stop-color="#FEF6ED"
         offset="4.821%"
         id="stop46" />
      <stop
         stop-color="#FBD0A5"
         offset="25.69%"
         id="stop48-4" />
      <stop
         stop-color="#F9B26B"
         offset="44.42%"
         id="stop50-9" />
      <stop
         stop-color="#F79D42"
         offset="60.34%"
         id="stop52-4" />
      <stop
         stop-color="#F69028"
         offset="72.82%"
         id="stop54" />
      <stop
         stop-color="#F68B1F"
         offset="80.33%"
         id="stop56" />
    </linearGradient>
    <linearGradient
       x1="43.736912"
       y1="243.13164"
       x2="43.736912"
       y2="325.8479"
       id="f-6"
       gradientTransform="scale(2.9399166,0.3401457)"
       gradientUnits="userSpaceOnUse">
      <stop
         stop-color="#F68B1F"
         offset="0%"
         id="stop59" />
      <stop
         stop-color="#CB672F"
         offset="53.08%"
         id="stop61" />
      <stop
         stop-color="#A1453F"
         offset="100%"
         id="stop63" />
    </linearGradient>
    <radialGradient
       cx="97.375191"
       cy="132.38023"
       fx="97.375191"
       fy="132.38023"
       r="38.978508"
       id="g-9"
       gradientTransform="scale(1.6664459,0.60007949)"
       gradientUnits="userSpaceOnUse">
      <stop
         stop-color="#FFF"
         offset="0%"
         id="stop66" />
      <stop
         stop-color="#FCE800"
         offset="13.34%"
         id="stop68" />
      <stop
         stop-color="#EC8F27"
         offset="85.93%"
         id="stop70" />
    </radialGradient>
    <clipPath
       id="SVGID_6_-5">
      <use
         xlink:href="#SVGID_5_"
         overflow="visible"
         id="use35-6"
         x="0"
         y="0"
         width="100%"
         height="100%" />
    </clipPath>
    <clipPath
       id="SVGID_9_-3">
      <use
         xlink:href="#SVGID_8_-7"
         overflow="visible"
         id="use48-3"
         x="0"
         y="0"
         width="100%"
         height="100%" />
    </clipPath>
    <clipPath
       id="SVGID_11_-0">
      <use
         xlink:href="#SVGID_10_-9"
         overflow="visible"
         id="use58-5"
         x="0"
         y="0"
         width="100%"
         height="100%" />
    </clipPath>
    <clipPath
       id="SVGID_13_-2">
      <use
         xlink:href="#SVGID_12_-4"
         overflow="visible"
         id="use68-7"
         x="0"
         y="0"
         width="100%"
         height="100%" />
    </clipPath>
    <clipPath
       id="SVGID_15_-4">
      <use
         xlink:href="#SVGID_14_-9"
         overflow="visible"
         id="use78-1"
         x="0"
         y="0"
         width="100%"
         height="100%" />
    </clipPath>
    <path
       id="path392"
       d="m 139.8,0 h -27.5 c -6.7,0 -12.2,5.5 -12.2,12.2 V 48 h -40 c -6.6,0 -12,5.4 -12,12 v 40 H 12 c -6.6,0 -12,5.4 -12,12 v 28 c 0,6.6 5.4,12 12,12 h 127.8 c 6.7,0 12.2,-5.5 12.2,-12.2 V 12.2 C 152,5.5 146.5,0 139.8,0 Z" />
    <path
       id="path399"
       d="m 139.8,0 h -27.5 c -6.7,0 -12.2,5.5 -12.2,12.2 V 48 h -40 c -6.6,0 -12,5.4 -12,12 v 40 H 12 c -6.6,0 -12,5.4 -12,12 v 28 c 0,6.6 5.4,12 12,12 h 127.8 c 6.7,0 12.2,-5.5 12.2,-12.2 V 12.2 C 152,5.5 146.5,0 139.8,0 Z" />
    <path
       id="path406"
       d="m 139.8,0 h -27.5 c -6.7,0 -12.2,5.5 -12.2,12.2 V 48 h -40 c -6.6,0 -12,5.4 -12,12 v 40 H 12 c -6.6,0 -12,5.4 -12,12 v 28 c 0,6.6 5.4,12 12,12 h 127.8 c 6.7,0 12.2,-5.5 12.2,-12.2 V 12.2 C 152,5.5 146.5,0 139.8,0 Z" />
    <path
       id="path413"
       d="m 139.8,0 h -27.5 c -6.7,0 -12.2,5.5 -12.2,12.2 V 48 h -40 c -6.6,0 -12,5.4 -12,12 v 40 H 12 c -6.6,0 -12,5.4 -12,12 v 28 c 0,6.6 5.4,12 12,12 h 127.8 c 6.7,0 12.2,-5.5 12.2,-12.2 V 12.2 C 152,5.5 146.5,0 139.8,0 Z" />
    <linearGradient
       id="a-4"
       gradientUnits="userSpaceOnUse"
       x1="175.5"
       x2="175.5"
       y1="45"
       y2="148.5"
       gradientTransform="matrix(0.36630442,0,0,0.36630442,59.707192,57.14917)">
      <stop
         offset="0"
         stop-color="#f05a28"
         id="stop2-0" />
      <stop
         offset="1"
         stop-color="#fbca0a"
         id="stop4-20" />
    </linearGradient>
  </defs>
  <sodipodi:namedview
     id="base"
     pagecolor="#ffffff"
     bordercolor="#666666"
     borderopacity="1.0"
     inkscape:pageopacity="0"
     inkscape:pageshadow="2"
     inkscape:zoom="0.86616451"
     inkscape:cx="124"
     inkscape:cy="124"
     inkscape:document-units="px"
     inkscape:current-layer="layer2"
     inkscape:document-rotation="0"
     showgrid="true"
     inkscape:window-width="1366"
     inkscape:window-height="705"
     inkscape:window-x="-8"
     inkscape:window-y="-8"
     inkscape:window-maximized="1"
     inkscape:snap-global="false"
     showguides="true">
    <inkscape:grid
       type="xygrid"
       id="grid1972" />
  </sodipodi:namedview>
  <metadata
     id="metadata1405">
    <rdf:RDF>
      <cc:Work
         rdf:about="">
        <dc:format>image/svg+xml</dc:format>
        <dc:type
           rdf:resource="http://purl.org/dc/dcmitype/StillImage" />
        <dc:title />
      </cc:Work>
    </rdf:RDF>
  </metadata>
  <g
     inkscape:groupmode="layer"
     id="layer3"
     inkscape:label="BG" />
  <g
     inkscape:groupmode="layer"
     id="layer4"
     inkscape:label="Bounding Box" />
  <g
     inkscape:groupmode="layer"
     id="layer2"
     inkscape:label="Top">
    <g
       id="g858"
       transform="translate(-0.19315289,-0.04989999)">
      <path
         style="fill:none;fill-opacity:1;stroke:#000000;stroke-width:4.5;stroke-linecap:round;stroke-linejoin:round;stroke-miterlimit:4;stroke-dasharray:none;stroke-opacity:1;paint-order:normal"
         id="path883"
         sodipodi:type="arc"
         sodipodi:cx="154.57903"
         sodipodi:cy="83.172447"
         sodipodi:rx="111.24604"
         sodipodi:ry="111.24604"
         sodipodi:start="5.9893981"
         sodipodi:end="5.9807042"
         sodipodi:open="true"
         sodipodi:arc-type="arc"
         transform="rotate(16.68412)"
         d="M 261.05862,50.957904 A 111.24604,111.24604 0 0 1 187.02492,189.58178 111.24604,111.24604 0 0 1 48.240468,115.84955 111.24604,111.24604 0 0 1 121.67088,-23.094836 111.24604,111.24604 0 0 1 260.77453,50.03341" />
      <path
         style="fill:#3d3846;fill-opacity:0.326613;stroke:none;stroke-width:4.45107;stroke-linecap:round;stroke-linejoin:round;stroke-miterlimit:4;stroke-dasharray:none;stroke-opacity:1;paint-order:normal"
         id="path885"
         sodipodi:type="arc"
         sodipodi:cx="154.57903"
         sodipodi:cy="83.172447"
         sodipodi:rx="110.03654"
         sodipodi:ry="110.03654"
         sodipodi:start="5.9893981"
         sodipodi:end="5.9807042"
         sodipodi:open="true"
         sodipodi:arc-type="arc"
         transform="rotate(16.68412)"
         d="M 259.90094,51.308151 A 110.03654,110.03654 0 0 1 186.67216,188.42486 110.03654,110.03654 0 0 1 49.396616,115.49427 110.03654,110.03654 0 0 1 122.02867,-21.939463 110.03654,110.03654 0 0 1 259.61994,50.393709" />
    </g>
    <g
       id="g842"
       transform="matrix(0.15565842,0,0,0.15565842,46.17079,69.500796)">
      <path
         fill="#00a1e0"
         d="m 416.224,76.763 c 32.219,-33.57 77.074,-54.391 126.682,-54.391 65.946,0 123.48,36.772 154.12,91.361 26.626,-11.896 56.098,-18.514 87.106,-18.514 118.94,0 215.368,97.268 215.368,217.247 0,119.993 -96.428,217.261 -215.368,217.261 A 213.735,213.735 0 0 1 741.71,525.5 c -26.981,48.128 -78.397,80.646 -137.412,80.646 -24.705,0 -48.072,-5.706 -68.877,-15.853 -27.352,64.337 -91.077,109.448 -165.348,109.448 -77.344,0 -143.261,-48.939 -168.563,-117.574 -11.057,2.348 -22.513,3.572 -34.268,3.572 C 75.155,585.74 0.5,510.317 0.5,417.262 0.5,354.903 34.042,300.455 83.878,271.325 73.618,247.717 67.911,221.66 67.911,194.265 67.911,87.25 154.79,0.5 261.948,0.5 c 62.914,0 118.827,29.913 154.276,76.263"
         id="path2-3" />
      <path
         fill="#ffffff"
         d="m 145.196,363.11 c -0.626,1.637 0.228,1.979 0.427,2.263 1.878,1.366 3.786,2.349 5.707,3.444 10.189,5.407 19.81,6.986 29.871,6.986 20.492,0 33.214,-10.9 33.214,-28.447 v -0.341 c 0,-16.224 -14.358,-22.115 -27.835,-26.37 l -1.75,-0.569 c -10.161,-3.302 -18.927,-6.147 -18.927,-12.836 v -0.355 c 0,-5.721 5.123,-9.934 13.064,-9.934 8.823,0 19.297,2.932 26.042,6.66 0,0 1.978,1.281 2.704,-0.64 0.398,-1.025 3.814,-10.218 4.17,-11.214 0.384,-1.082 -0.299,-1.879 -0.996,-2.306 -7.699,-4.682 -18.344,-7.884 -29.358,-7.884 l -2.049,0.014 c -18.756,0 -31.848,11.328 -31.848,27.565 v 0.342 c 0,17.119 14.444,22.669 27.978,26.54 l 2.177,0.669 c 9.862,3.031 18.358,5.635 18.358,12.58 v 0.342 c 0,6.347 -5.521,11.071 -14.43,11.071 -3.458,0 -14.487,-0.071 -26.398,-7.6 -1.438,-0.84 -2.277,-1.451 -3.387,-2.12 -0.583,-0.37 -2.049,-1.011 -2.689,0.925 z m 299.998,0 c -0.626,1.637 0.228,1.979 0.427,2.263 1.878,1.366 3.786,2.349 5.706,3.444 10.189,5.407 19.811,6.986 29.871,6.986 20.492,0 33.215,-10.9 33.215,-28.447 v -0.341 c 0,-16.224 -14.359,-22.115 -27.836,-26.37 l -1.75,-0.569 c -10.161,-3.302 -18.928,-6.147 -18.928,-12.836 v -0.355 c 0,-5.721 5.123,-9.934 13.064,-9.934 8.823,0 19.297,2.932 26.043,6.66 0,0 1.978,1.281 2.703,-0.64 0.398,-1.025 3.814,-10.218 4.17,-11.214 0.385,-1.082 -0.299,-1.879 -0.996,-2.306 -7.699,-4.682 -18.344,-7.884 -29.358,-7.884 l -2.05,0.014 c -18.756,0 -31.848,11.328 -31.848,27.565 v 0.342 c 0,17.119 14.444,22.669 27.978,26.54 l 2.177,0.669 c 9.862,3.031 18.373,5.635 18.373,12.58 v 0.342 c 0,6.347 -5.536,11.071 -14.445,11.071 -3.457,0 -14.486,-0.071 -26.397,-7.6 -1.438,-0.84 -2.291,-1.423 -3.372,-2.12 -0.371,-0.242 -2.107,-0.911 -2.705,0.925 z m 204.801,-34.37 c 0,9.919 -1.85,17.731 -5.493,23.253 -3.601,5.465 -9.051,8.126 -16.649,8.126 -7.613,0 -13.035,-2.647 -16.579,-8.126 -3.587,-5.507 -5.407,-13.334 -5.407,-23.253 0,-9.904 1.82,-17.703 5.407,-23.168 3.544,-5.407 8.966,-8.04 16.579,-8.04 7.599,0 13.049,2.633 16.664,8.04 3.629,5.464 5.478,13.263 5.478,23.168 m 17.106,-18.386 c -1.68,-5.679 -4.298,-10.688 -7.784,-14.857 -3.487,-4.184 -7.898,-7.542 -13.136,-9.99 -5.223,-2.433 -11.398,-3.671 -18.328,-3.671 -6.945,0 -13.121,1.238 -18.344,3.671 -5.237,2.448 -9.648,5.807 -13.149,9.99 -3.472,4.184 -6.091,9.193 -7.784,14.857 -1.665,5.649 -2.505,11.825 -2.505,18.386 0,6.561 0.84,12.751 2.505,18.386 1.693,5.664 4.298,10.674 7.799,14.857 3.486,4.184 7.912,7.528 13.135,9.904 5.236,2.377 11.398,3.586 18.344,3.586 6.93,0 13.092,-1.209 18.328,-3.586 5.223,-2.376 9.648,-5.721 13.136,-9.904 3.486,-4.17 6.104,-9.179 7.784,-14.857 1.68,-5.649 2.519,-11.84 2.519,-18.386 0,-6.546 -0.841,-12.737 -2.52,-18.386 m 140.467,47.116 c -0.569,-1.665 -2.177,-1.039 -2.177,-1.039 -2.49,0.954 -5.138,1.836 -7.955,2.277 -2.861,0.44 -6.006,0.669 -9.379,0.669 -8.281,0 -14.856,-2.462 -19.566,-7.329 -4.725,-4.867 -7.372,-12.736 -7.344,-23.381 0.029,-9.691 2.362,-16.978 6.561,-22.527 4.17,-5.521 10.517,-8.354 18.984,-8.354 7.059,0 12.438,0.811 18.072,2.59 0,0 1.352,0.583 1.992,-1.181 1.494,-4.156 2.604,-7.13 4.198,-11.698 0.456,-1.295 -0.654,-1.85 -1.053,-2.007 -2.22,-0.868 -7.457,-2.276 -11.413,-2.874 -3.7,-0.569 -8.026,-0.868 -12.836,-0.868 -7.188,0 -13.591,1.224 -19.069,3.672 -5.465,2.433 -10.104,5.791 -13.775,9.976 -3.672,4.184 -6.461,9.192 -8.325,14.856 -1.85,5.649 -2.789,11.854 -2.789,18.415 0,14.188 3.828,25.657 11.385,34.054 7.57,8.425 18.941,12.708 33.77,12.708 8.766,0 17.76,-1.778 24.221,-4.326 0,0 1.238,-0.598 0.697,-2.034 z m 29.929,-38.232 c 0.811,-5.507 2.334,-10.09 4.682,-13.661 3.544,-5.422 8.951,-8.396 16.551,-8.396 7.6,0 12.623,2.988 16.223,8.396 2.391,3.571 3.43,8.354 3.843,13.661 z m 57.592,-12.111 c -1.451,-5.479 -5.052,-11.015 -7.414,-13.548 -3.729,-4.013 -7.371,-6.816 -10.986,-8.382 -4.725,-2.021 -10.389,-3.358 -16.593,-3.358 -7.229,0 -13.79,1.21 -19.112,3.714 -5.336,2.505 -9.818,5.921 -13.334,10.176 -3.516,4.24 -6.162,9.292 -7.842,15.027 -1.693,5.707 -2.547,11.926 -2.547,18.485 0,6.675 0.883,12.894 2.633,18.486 1.765,5.636 4.582,10.602 8.396,14.714 3.799,4.142 8.695,7.387 14.558,9.648 5.821,2.249 12.894,3.416 21.019,3.401 16.722,-0.057 25.53,-3.785 29.159,-5.792 0.641,-0.355 1.253,-0.981 0.483,-2.774 l -3.785,-10.603 c -0.568,-1.579 -2.177,-0.996 -2.177,-0.996 -4.142,1.537 -10.032,4.298 -23.766,4.27 -8.979,-0.014 -15.64,-2.661 -19.81,-6.803 -4.283,-4.24 -6.375,-10.474 -6.745,-19.268 l 57.905,0.057 c 0,0 1.522,-0.028 1.68,-1.509 0.057,-0.624 1.993,-11.895 -1.722,-24.945 m -521.327,12.111 c 0.825,-5.507 2.334,-10.09 4.682,-13.661 3.543,-5.422 8.951,-8.396 16.55,-8.396 7.599,0 12.623,2.988 16.237,8.396 2.376,3.571 3.415,8.354 3.828,13.661 z m 57.577,-12.111 c -1.451,-5.479 -5.037,-11.015 -7.399,-13.548 -3.729,-4.013 -7.372,-6.816 -10.986,-8.382 -4.725,-2.021 -10.388,-3.358 -16.593,-3.358 -7.215,0 -13.79,1.21 -19.112,3.714 -5.336,2.505 -9.819,5.921 -13.334,10.176 -3.515,4.24 -6.162,9.292 -7.841,15.027 -1.679,5.707 -2.547,11.926 -2.547,18.485 0,6.675 0.882,12.894 2.633,18.486 1.765,5.636 4.583,10.602 8.396,14.714 3.8,4.142 8.695,7.387 14.558,9.648 5.821,2.249 12.893,3.416 21.019,3.401 16.721,-0.057 25.53,-3.785 29.159,-5.792 0.641,-0.355 1.252,-0.981 0.484,-2.774 l -3.771,-10.603 c -0.584,-1.579 -2.191,-0.996 -2.191,-0.996 -4.141,1.537 -10.019,4.298 -23.78,4.27 -8.965,-0.014 -15.625,-2.661 -19.795,-6.803 -4.284,-4.24 -6.375,-10.474 -6.746,-19.268 l 57.905,0.057 c 0,0 1.522,-0.028 1.679,-1.509 0.055,-0.624 1.99,-11.895 -1.738,-24.945 m -182.738,50.026 c -2.263,-1.808 -2.576,-2.263 -3.344,-3.43 -1.139,-1.779 -1.722,-4.312 -1.722,-7.528 0,-5.095 1.679,-8.752 5.166,-11.214 -0.042,0.015 4.981,-4.34 16.792,-4.184 8.296,0.114 15.71,1.338 15.71,1.338 v 26.327 h 0.014 c 0,0 -7.357,1.579 -15.639,2.077 -11.783,0.712 -17.02,-3.4 -16.977,-3.386 m 23.039,-40.686 c -2.348,-0.171 -5.394,-0.271 -9.037,-0.271 -4.966,0 -9.762,0.626 -14.259,1.836 -4.525,1.209 -8.595,3.103 -12.096,5.606 a 27.927,27.927 0 0 0 -8.396,9.549 c -2.049,3.814 -3.088,8.311 -3.088,13.349 0,5.123 0.882,9.577 2.647,13.221 1.765,3.657 4.312,6.702 7.556,9.051 3.216,2.348 7.187,4.069 11.797,5.108 4.54,1.039 9.691,1.565 15.327,1.565 5.934,0 11.854,-0.483 17.589,-1.466 5.678,-0.968 12.651,-2.377 14.586,-2.817 a 146.25,146.25 0 0 0 4.056,-1.039 c 1.438,-0.355 1.324,-1.893 1.324,-1.893 l -0.029,-52.952 c 0,-11.613 -3.102,-20.223 -9.207,-25.559 -6.077,-5.322 -15.028,-8.013 -26.597,-8.013 -4.341,0 -11.328,0.599 -15.512,1.438 0,0 -12.651,2.448 -17.86,6.518 0,0 -1.138,0.712 -0.512,2.306 l 4.099,11.015 c 0.512,1.423 1.893,0.939 1.893,0.939 0,0 0.441,-0.171 0.954,-0.47 11.143,-6.062 25.231,-5.877 25.231,-5.877 6.262,0 11.072,1.252 14.316,3.742 3.159,2.419 4.767,6.076 4.767,13.789 v 2.448 c -4.981,-0.711 -9.549,-1.123 -9.549,-1.123 m 467.029,-29.836 c 0.44,-1.31 -0.484,-1.936 -0.869,-2.078 -0.981,-0.384 -5.905,-1.423 -9.705,-1.665 -7.271,-0.441 -11.312,0.783 -14.928,2.405 -3.586,1.622 -7.57,4.24 -9.791,7.215 v -7.044 c 0,-0.982 -0.697,-1.765 -1.665,-1.765 h -14.843 c -0.967,0 -1.664,0.782 -1.664,1.765 v 86.366 c 0,0.968 0.797,1.765 1.764,1.765 h 15.213 a 1.76,1.76 0 0 0 1.75,-1.765 v -43.147 c 0,-5.792 0.641,-11.569 1.922,-15.198 1.252,-3.587 2.96,-6.461 5.066,-8.525 2.12,-2.049 4.525,-3.486 7.158,-4.297 2.689,-0.826 5.663,-1.096 7.77,-1.096 3.031,0 6.361,0.782 6.361,0.782 1.109,0.128 1.736,-0.555 2.105,-1.565 0.997,-2.647 3.815,-10.574 4.356,-12.153"
         id="path4-9" />
      <path
         fill="#ffffff"
         d="m 595.874,246.603 c -1.85,-0.569 -3.529,-0.954 -5.721,-1.366 -2.221,-0.398 -4.867,-0.598 -7.869,-0.598 -10.475,0 -18.729,2.96 -24.52,8.794 -5.764,5.807 -9.678,14.644 -11.642,26.271 l -0.712,3.913 h -13.148 c 0,0 -1.594,-0.057 -1.936,1.68 l -2.148,12.053 c -0.157,1.139 0.342,1.864 1.878,1.864 h 12.794 l -12.979,72.463 c -1.011,5.835 -2.178,10.631 -3.473,14.273 -1.267,3.587 -2.504,6.276 -4.041,8.24 -1.48,1.879 -2.875,3.273 -5.295,4.084 -1.992,0.669 -4.297,0.982 -6.816,0.982 -1.395,0 -3.258,-0.229 -4.639,-0.513 -1.366,-0.271 -2.092,-0.569 -3.131,-1.011 0,0 -1.494,-0.568 -2.092,0.926 -0.47,1.238 -3.885,10.615 -4.298,11.769 -0.398,1.152 0.171,2.049 0.896,2.319 1.708,0.598 2.974,0.996 5.294,1.551 3.217,0.755 5.934,0.797 8.481,0.797 5.322,0 10.189,-0.754 14.217,-2.205 4.042,-1.466 7.57,-4.014 10.701,-7.457 3.373,-3.729 5.493,-7.628 7.515,-12.964 2.006,-5.266 3.729,-11.812 5.094,-19.439 l 13.05,-73.815 h 19.069 c 0,0 1.607,0.057 1.936,-1.693 l 2.162,-12.039 c 0.143,-1.152 -0.341,-1.864 -1.893,-1.864 h -18.514 c 0.1,-0.412 0.939,-6.931 3.06,-13.063 0.911,-2.604 2.618,-4.725 4.056,-6.177 1.424,-1.423 3.06,-2.433 4.854,-3.017 1.835,-0.598 3.928,-0.882 6.219,-0.882 1.736,0 3.457,0.199 4.752,0.469 1.793,0.385 2.49,0.584 2.961,0.727 1.893,0.569 2.148,0.014 2.519,-0.896 l 4.426,-12.153 c 0.455,-1.312 -0.669,-1.867 -1.067,-2.023 m -258.68,125.231 c 0,0.968 -0.697,1.751 -1.665,1.751 h -15.355 c -0.968,0 -1.651,-0.783 -1.651,-1.751 v -123.58 c 0,-0.967 0.683,-1.75 1.651,-1.75 h 15.355 c 0.968,0 1.665,0.783 1.665,1.75 z"
         id="path6-4" />
    </g>
  </g>
</svg>
