<?xml version="1.0" encoding="UTF-8" standalone="no"?>
<svg
   xmlns:dc="http://purl.org/dc/elements/1.1/"
   xmlns:cc="http://creativecommons.org/ns#"
   xmlns:rdf="http://www.w3.org/1999/02/22-rdf-syntax-ns#"
   xmlns:svg="http://www.w3.org/2000/svg"
   xmlns="http://www.w3.org/2000/svg"
   xmlns:sodipodi="http://sodipodi.sourceforge.net/DTD/sodipodi-0.dtd"
   xmlns:inkscape="http://www.inkscape.org/namespaces/inkscape"
   width="248.0px"
   height="248.0px"
   viewBox="0 0 248.0 248.0"
   version="1.1"
   id="SVGRoot"
   sodipodi:docname="suse White.svg"
   inkscape:version="1.0.2-2 (e86c870879, 2021-01-15)">
  <defs
     id="defs1402">
    <inkscape:path-effect
       effect="fillet_chamfer"
       id="path-effect2040"
       is_visible="true"
       lpeversion="1"
       satellites_param="F,0,0,1,0,0,0,1 @ F,0,0,1,0,6.0755415,0,1 @ F,0,0,1,0,6.1445293,0,1 @ F,0,0,1,0,0,0,1"
       unit="px"
       method="auto"
       mode="F"
       radius="0"
       chamfer_steps="1"
       flexible="false"
       use_knot_distance="true"
       apply_no_radius="true"
       apply_with_radius="true"
       only_selected="true"
       hide_knots="false" />
    <style
       id="style1979">.cls-1{fill:url(#GreenGradient);}.cls-2{fill:#fff;}</style>
    <linearGradient
       id="GreenGradient"
       x1="-522.53"
       y1="465.47"
       x2="-416.47"
       y2="571.53"
       gradientTransform="rotate(-90,-456.5,24.5)"
       gradientUnits="userSpaceOnUse">
      <stop
         offset="0"
         stop-color="#1b660f"
         id="stop1981" />
      <stop
         offset="1"
         stop-color="#6cae3e"
         id="stop1983" />
    </linearGradient>
    <linearGradient
       id="OrangeGradient"
       x1="1131.1"
       y1="-516.47998"
       x2="1131.1"
       y2="-366.48001"
       gradientTransform="rotate(-135,816.69218,-8.7994369)"
       gradientUnits="userSpaceOnUse">
      <stop
         offset="0"
         stop-color="#c8511b"
         id="stop138" />
      <stop
         offset="1"
         stop-color="#f90"
         id="stop140" />
    </linearGradient>
  </defs>
  <sodipodi:namedview
     id="base"
     pagecolor="#ffffff"
     bordercolor="#666666"
     borderopacity="1.0"
     inkscape:pageopacity="0"
     inkscape:pageshadow="2"
     inkscape:zoom="1.5733379"
     inkscape:cx="124"
     inkscape:cy="124"
     inkscape:document-units="px"
     inkscape:current-layer="layer2"
     inkscape:document-rotation="0"
     showgrid="true"
     inkscape:window-width="1366"
     inkscape:window-height="705"
     inkscape:window-x="-8"
     inkscape:window-y="-8"
     inkscape:window-maximized="1"
     inkscape:snap-global="false"
     showguides="true">
    <inkscape:grid
       type="xygrid"
       id="grid1972" />
  </sodipodi:namedview>
  <metadata
     id="metadata1405">
    <rdf:RDF>
      <cc:Work
         rdf:about="">
        <dc:format>image/svg+xml</dc:format>
        <dc:type
           rdf:resource="http://purl.org/dc/dcmitype/StillImage" />
        <dc:title />
      </cc:Work>
    </rdf:RDF>
  </metadata>
  <g
     inkscape:groupmode="layer"
     id="layer3"
     inkscape:label="BG" />
  <g
     inkscape:groupmode="layer"
     id="layer4"
     inkscape:label="Bounding Box" />
  <g
     inkscape:groupmode="layer"
     id="layer2"
     inkscape:label="Top">
    <g
       id="g858"
       transform="translate(-0.19315289,-0.04989999)">
      <path
         style="fill:none;fill-opacity:1;stroke:#000000;stroke-width:4.5;stroke-linecap:round;stroke-linejoin:round;stroke-miterlimit:4;stroke-dasharray:none;stroke-opacity:1;paint-order:normal"
         id="path883"
         sodipodi:type="arc"
         sodipodi:cx="154.57903"
         sodipodi:cy="83.172447"
         sodipodi:rx="111.24604"
         sodipodi:ry="111.24604"
         sodipodi:start="5.9893981"
         sodipodi:end="5.9807042"
         sodipodi:open="true"
         sodipodi:arc-type="arc"
         transform="rotate(16.68412)"
         d="M 261.05862,50.957904 A 111.24604,111.24604 0 0 1 187.02492,189.58178 111.24604,111.24604 0 0 1 48.240468,115.84955 111.24604,111.24604 0 0 1 121.67088,-23.094836 111.24604,111.24604 0 0 1 260.77453,50.03341" />
      <path
         style="fill:#3d3846;fill-opacity:0.326613;stroke:none;stroke-width:4.45107;stroke-linecap:round;stroke-linejoin:round;stroke-miterlimit:4;stroke-dasharray:none;stroke-opacity:1;paint-order:normal"
         id="path885"
         sodipodi:type="arc"
         sodipodi:cx="154.57903"
         sodipodi:cy="83.172447"
         sodipodi:rx="110.03654"
         sodipodi:ry="110.03654"
         sodipodi:start="5.9893981"
         sodipodi:end="5.9807042"
         sodipodi:open="true"
         sodipodi:arc-type="arc"
         transform="rotate(16.68412)"
         d="M 259.90094,51.308151 A 110.03654,110.03654 0 0 1 186.67216,188.42486 110.03654,110.03654 0 0 1 49.396616,115.49427 110.03654,110.03654 0 0 1 122.02867,-21.939463 110.03654,110.03654 0 0 1 259.61994,50.393709" />
    </g>
    <g
       id="g16"
       transform="matrix(1.6666901,0,0,1.6666901,27.34144,77.341082)">
      <path
         d="m 40.592,38.604 -7.2,-1.063 c -1.24,-0.197 -1.866,-0.808 -1.866,-1.808 0,-0.423 0.168,-0.83 0.467,-1.128 a 1.6,1.6 0 0 1 1.128,-0.467 h 11.7 V 29.8 H 33.14 a 6.04,6.04 0 0 0 -6.242,5.939 c 0,2.733 1.643,5.567 5.402,6.146 l 7.2,1.063 c 1.244,0.197 1.866,0.808 1.866,1.813 0,0.423 -0.168,0.83 -0.467,1.128 a 1.6,1.6 0 0 1 -1.128,0.467 h -8.5 c -1.728,0.048 -3.546,1.372 -3.546,3.972 v 0.388 h 12.038 a 6.04,6.04 0 0 0 4.377,-1.668 c 1.175,-1.122 1.847,-2.672 1.865,-4.297 0,-2.738 -1.638,-5.572 -5.402,-6.157 z M 87.207,35.75 v 9.012 a 6.04,6.04 0 0 0 6.247,5.939 h 12.628 v -0.388 c 0,-2.595 -1.818,-3.92 -3.552,-3.972 h -9.103 c -0.423,0 -0.83,-0.168 -1.128,-0.467 a 1.6,1.6 0 0 1 -0.467,-1.128 1.74,1.74 0 0 1 1.872,-1.813 h 3.945 c 3.472,0 5.47,-2.127 6.1,-4.578 h -9.48 c -0.993,-0.01 -1.917,0.506 -2.43,1.356 v -3.96 c 0,-0.423 0.168,-0.83 0.467,-1.128 a 1.6,1.6 0 0 1 1.128,-0.467 h 9.103 c 1.728,-0.048 3.552,-1.377 3.552,-3.972 V 29.8 H 93.45 a 6.04,6.04 0 0 0 -6.242,5.95 z m -6.61,2.854 -7.2,-1.063 c -1.24,-0.197 -1.866,-0.808 -1.866,-1.808 0,-0.423 0.168,-0.83 0.467,-1.128 a 1.6,1.6 0 0 1 1.128,-0.467 H 84.823 V 29.8 h -11.67 a 6.04,6.04 0 0 0 -6.247,5.939 c 0,2.733 1.643,5.567 5.407,6.146 l 7.194,1.063 c 1.244,0.197 1.872,0.808 1.872,1.813 0,0.423 -0.168,0.83 -0.467,1.128 a 1.6,1.6 0 0 1 -1.128,0.467 h -11.66 v 4.36 H 79.77 a 6.04,6.04 0 0 0 6.247,-5.966 c 0,-2.738 -1.643,-5.572 -5.418,-6.157 z m -19.54,3.62 a 4.7,4.7 0 1 1 -9.395,0 V 29.8 h -4.525 v 12.144 c -0.08,3.348 1.66,6.476 4.546,8.173 a 9.23,9.23 0 0 0 9.353,0 c 2.887,-1.697 4.626,-4.826 4.546,-8.173 V 29.8 h -4.525 z"
         fill="#0d2c40"
         id="path2" />
      <path
         d="M 61.148,14.295 A 2.39,2.39 0 0 0 63.26,13.168 C 63.712,12.441 63.743,11.53 63.34,10.775 62.937,10.02 62.162,9.538 61.307,9.5 a 2.38,2.38 0 0 0 -2.462,2.297 2.39,2.39 0 0 0 2.302,2.488 z m 0.532,-3.573 c 0.585,0 1.063,0.314 1.063,0.707 0,0.393 -0.473,0.707 -1.063,0.707 -0.59,0 -1.063,-0.32 -1.063,-0.707 0,-0.387 0.505,-0.702 1.085,-0.702 z m 5.258,4.466 c 0.085,-0.058 0.4,-0.266 0.324,-0.532 C 66.954,13.593 65.902,9.998 65.018,9.089 64.768,8.791 64.472,8.534 64.141,8.329 60.775,6.367 52.784,5.181 52.406,5.129 52.383,5.121 52.359,5.126 52.34,5.141 52.321,5.156 52.312,5.181 52.315,5.203 L 52.283,7.048 C 51.47,6.772 45.536,4.848 39.969,4.661 35.253,4.496 28.803,4.273 19.716,9.866 l -0.266,0.165 c -4.3,2.66 -7.247,5.966 -8.8,9.794 -0.788,2.065 -0.96,4.315 -0.494,6.476 0.3,1.164 0.8,2.265 1.5,3.25 a 9.75,9.75 0 0 0 7.093,4.036 c 4.03,0.372 7.072,-1.452 8.178,-4.844 a 6.69,6.69 0 0 0 -2.866,-7.545 c -1.9,-1.24 -4.336,-1.295 -6.3,-0.144 -1.223,0.77 -1.964,2.117 -1.962,3.562 a 3.92,3.92 0 0 0 3.775,3.876 4.51,4.51 0 0 0 1.452,-0.23 2.23,2.23 0 0 0 0.532,-0.245 l 0.058,-0.037 h 0.037 c 0.512,-0.335 0.713,-0.986 0.48,-1.552 C 21.9,25.862 21.3,25.541 20.7,25.662 h -0.085 l -0.122,0.037 -0.175,0.058 a 2.96,2.96 0 0 1 -0.691,0.096 c -0.63,-0.093 -1.094,-0.635 -1.1,-1.27 a 1.52,1.52 0 0 1 0.234,-0.755 2.24,2.24 0 0 1 2.084,-0.776 3.5,3.5 0 0 1 2.993,2.127 3.67,3.67 0 0 1 -0.404,3.839 c -0.85,1.095 -2.355,1.563 -4.36,1.345 A 6.11,6.11 0 0 1 14.251,21.68 c 2.047,-3.865 5.913,-3.823 8.034,-3.456 3.015,0.532 7.582,3.222 9.3,9.475 h 4.17 c -0.532,-1.595 -0.814,-6.2 3.88,-6.2 5.147,0 5.796,3.626 7.252,6.2 H 51.3 c -1.16,-1.66 -1.978,-3.5 -1.717,-5.067 0.383,-2.297 2.207,-2.1 4.737,-1.808 0.83,0.096 1.77,0.202 2.738,0.223 2.4,0.054 4.768,-0.378 6.987,-1.27 a 9.27,9.27 0 0 0 2.377,-1.271 c 0.165,-0.17 0.284,-0.378 0.346,-0.606 l 0.064,-0.165 c 0.074,-0.197 0.17,-0.6 0.234,-0.84 0.122,-0.463 -0.292,-0.218 -0.292,-0.218 -1.412,0.822 -2.995,1.306 -4.626,1.414 -2.292,0.048 -6.912,-2.308 -7.407,-2.557 l -0.048,-0.053 -0.957,-2.265 c 3.318,2.185 6.093,3.398 8.22,3.584 2.334,0.213 4.17,-1.074 4.95,-1.622 z m -9.135,-3.366 c 0.046,-1.385 0.922,-2.605 2.22,-3.092 a 3.42,3.42 0 0 1 3.706,0.87 c 0.946,1.014 1.188,2.495 0.614,3.756 -0.574,1.261 -1.852,2.05 -3.237,2.003 -1.885,-0.072 -3.36,-1.65 -3.302,-3.536 z"
         fill="#73ba25"
         id="path4" />
    </g>
  </g>
</svg>
