<?xml version="1.0" encoding="UTF-8" standalone="no"?>
<svg
   xmlns:dc="http://purl.org/dc/elements/1.1/"
   xmlns:cc="http://creativecommons.org/ns#"
   xmlns:rdf="http://www.w3.org/1999/02/22-rdf-syntax-ns#"
   xmlns:svg="http://www.w3.org/2000/svg"
   xmlns="http://www.w3.org/2000/svg"
   xmlns:xlink="http://www.w3.org/1999/xlink"
   xmlns:sodipodi="http://sodipodi.sourceforge.net/DTD/sodipodi-0.dtd"
   xmlns:inkscape="http://www.inkscape.org/namespaces/inkscape"
   width="248.0px"
   height="248.0px"
   viewBox="0 0 248.0 248.0"
   version="1.1"
   id="SVGRoot"
   sodipodi:docname="yandex-2 Dark.svg"
   inkscape:version="1.0.2-2 (e86c870879, 2021-01-15)">
  <defs
     id="defs1402">
    <inkscape:path-effect
       effect="fillet_chamfer"
       id="path-effect2040"
       is_visible="true"
       lpeversion="1"
       satellites_param="F,0,0,1,0,0,0,1 @ F,0,0,1,0,6.0755415,0,1 @ F,0,0,1,0,6.1445293,0,1 @ F,0,0,1,0,0,0,1"
       unit="px"
       method="auto"
       mode="F"
       radius="0"
       chamfer_steps="1"
       flexible="false"
       use_knot_distance="true"
       apply_no_radius="true"
       apply_with_radius="true"
       only_selected="true"
       hide_knots="false" />
    <style
       id="style1979">.cls-1{fill:url(#GreenGradient);}.cls-2{fill:#fff;}</style>
    <linearGradient
       id="GreenGradient"
       x1="-522.53"
       y1="465.47"
       x2="-416.47"
       y2="571.53"
       gradientTransform="rotate(-90,-456.5,24.5)"
       gradientUnits="userSpaceOnUse">
      <stop
         offset="0"
         stop-color="#1b660f"
         id="stop1981" />
      <stop
         offset="1"
         stop-color="#6cae3e"
         id="stop1983" />
    </linearGradient>
    <clipPath
       id="clip1">
      <path
         d="m 93,27 h 58 V 88.851563 H 93 Z m 0,0"
         id="path2" />
    </clipPath>
    <clipPath
       id="clip2">
      <path
         d="m 161,10 h 41 v 78.851563 h -41 z m 0,0"
         id="path5" />
    </clipPath>
    <clipPath
       id="clip3">
      <path
         d="m 206,0 h 65 v 88.851563 h -65 z m 0,0"
         id="path8" />
    </clipPath>
    <clipPath
       id="clip4">
      <path
         d="m 322,26 h 57 v 62.851563 h -57 z m 0,0"
         id="path11" />
    </clipPath>
    <clipPath
       id="clip5">
      <path
         d="m 415,26 h 58.05859 V 87 H 415 Z m 0,0"
         id="path14" />
    </clipPath>
    <clipPath
       id="clip6">
      <path
         d="M 0,3 H 87 V 88.851563 H 0 Z m 0,0"
         id="path17" />
    </clipPath>
    <clipPath
       id="b">
      <use
         xlink:href="#a"
         overflow="visible"
         id="use5"
         x="0"
         y="0"
         width="100%"
         height="100%" />
    </clipPath>
    <clipPath
       id="d">
      <use
         xlink:href="#c"
         overflow="visible"
         id="use21"
         x="0"
         y="0"
         width="100%"
         height="100%" />
    </clipPath>
    <linearGradient
       id="e"
       gradientUnits="userSpaceOnUse"
       x1="-17845.727"
       y1="-3022.7009"
       x2="-17300.025"
       y2="-3131.4309"
       gradientTransform="matrix(0.1741,0,0,-0.1741,5044.277,-686.514)">
      <stop
         offset="0"
         stop-color="#2b7a77"
         id="stop30" />
      <stop
         offset=".51"
         stop-color="#4ebaa9"
         id="stop32" />
      <stop
         offset="1"
         stop-color="#5cc2b1"
         id="stop34" />
    </linearGradient>
    <linearGradient
       id="f"
       gradientUnits="userSpaceOnUse"
       x1="-16495.199"
       y1="-6380.3711"
       x2="-16765.998"
       y2="-5744.4058"
       gradientTransform="matrix(0.1741,0,0,-0.1741,5044.277,-686.514)">
      <stop
         offset="0"
         stop-color="#236736"
         id="stop39" />
      <stop
         offset=".493"
         stop-color="#6ba443"
         id="stop41" />
      <stop
         offset="1"
         stop-color="#86c146"
         id="stop43" />
    </linearGradient>
    <linearGradient
       id="g"
       gradientUnits="userSpaceOnUse"
       x1="-16221.797"
       y1="-6660.6538"
       x2="-15823.801"
       y2="-5712.8491"
       gradientTransform="matrix(0.1741,0,0,-0.1741,5044.277,-686.514)">
      <stop
         offset="0"
         stop-color="#29a5e3"
         id="stop48" />
      <stop
         offset=".515"
         stop-color="#356eb9"
         id="stop50" />
      <stop
         offset="1"
         stop-color="#394da5"
         id="stop52" />
    </linearGradient>
    <path
       id="path104"
       d="M 196.35,-37.141 H 1196.36 V 128.657 H 196.35 Z" />
    <path
       id="path114"
       d="M 196.35,-37.141 H 1196.36 V 128.657 H 196.35 Z" />
    <clipPath
       id="b-0">
      <use
         xlink:href="#a"
         overflow="visible"
         id="use5-4"
         x="0"
         y="0"
         width="100%"
         height="100%" />
    </clipPath>
    <clipPath
       id="d-7">
      <use
         xlink:href="#c"
         overflow="visible"
         id="use21-2"
         x="0"
         y="0"
         width="100%"
         height="100%" />
    </clipPath>
    <linearGradient
       id="e-6"
       gradientUnits="userSpaceOnUse"
       x1="-17845.727"
       y1="-3022.7009"
       x2="-17300.025"
       y2="-3131.4309"
       gradientTransform="matrix(0.00755454,0,0,0.00755454,162.32374,160.96514)">
      <stop
         offset="0"
         stop-color="#2b7a77"
         id="stop30-6" />
      <stop
         offset=".51"
         stop-color="#4ebaa9"
         id="stop32-2" />
      <stop
         offset="1"
         stop-color="#5cc2b1"
         id="stop34-6" />
    </linearGradient>
    <linearGradient
       id="f-1"
       gradientUnits="userSpaceOnUse"
       x1="-16495.199"
       y1="-6380.3711"
       x2="-16765.998"
       y2="-5744.4058"
       gradientTransform="matrix(0.00755454,0,0,0.00755454,162.32374,160.96514)">
      <stop
         offset="0"
         stop-color="#236736"
         id="stop39-6" />
      <stop
         offset=".493"
         stop-color="#6ba443"
         id="stop41-2" />
      <stop
         offset="1"
         stop-color="#86c146"
         id="stop43-2" />
    </linearGradient>
    <linearGradient
       id="g-0"
       gradientUnits="userSpaceOnUse"
       x1="-16221.797"
       y1="-6660.6538"
       x2="-15823.801"
       y2="-5712.8491"
       gradientTransform="matrix(0.00755454,0,0,0.00755454,162.32374,160.96514)">
      <stop
         offset="0"
         stop-color="#29a5e3"
         id="stop48-6" />
      <stop
         offset=".515"
         stop-color="#356eb9"
         id="stop50-7" />
      <stop
         offset="1"
         stop-color="#394da5"
         id="stop52-5" />
    </linearGradient>
    <path
       id="path104-1"
       d="M 196.35,-37.141 H 1196.36 V 128.657 H 196.35 Z" />
    <path
       id="path114-3"
       d="M 196.35,-37.141 H 1196.36 V 128.657 H 196.35 Z" />
    <clipPath
       id="b-2">
      <use
         xlink:href="#a"
         overflow="visible"
         id="use5-3"
         x="0"
         y="0"
         width="100%"
         height="100%" />
    </clipPath>
    <clipPath
       id="d-1">
      <use
         xlink:href="#c"
         overflow="visible"
         id="use21-6"
         x="0"
         y="0"
         width="100%"
         height="100%" />
    </clipPath>
    <linearGradient
       id="e-3"
       gradientUnits="userSpaceOnUse"
       x1="-17845.727"
       y1="-3022.7009"
       x2="-17300.025"
       y2="-3131.4309"
       gradientTransform="matrix(0.00755454,0,0,0.00755454,161.91371,158.37582)">
      <stop
         offset="0"
         stop-color="#2b7a77"
         id="stop30-5" />
      <stop
         offset=".51"
         stop-color="#4ebaa9"
         id="stop32-3" />
      <stop
         offset="1"
         stop-color="#5cc2b1"
         id="stop34-5" />
    </linearGradient>
    <linearGradient
       id="f-5"
       gradientUnits="userSpaceOnUse"
       x1="-16495.199"
       y1="-6380.3711"
       x2="-16765.998"
       y2="-5744.4058"
       gradientTransform="matrix(0.00755454,0,0,0.00755454,161.91371,158.37582)">
      <stop
         offset="0"
         stop-color="#236736"
         id="stop39-5" />
      <stop
         offset=".493"
         stop-color="#6ba443"
         id="stop41-8" />
      <stop
         offset="1"
         stop-color="#86c146"
         id="stop43-0" />
    </linearGradient>
    <linearGradient
       id="g-4"
       gradientUnits="userSpaceOnUse"
       x1="-16221.797"
       y1="-6660.6538"
       x2="-15823.801"
       y2="-5712.8491"
       gradientTransform="matrix(0.00755454,0,0,0.00755454,161.91371,158.37582)">
      <stop
         offset="0"
         stop-color="#29a5e3"
         id="stop48-0" />
      <stop
         offset=".515"
         stop-color="#356eb9"
         id="stop50-4" />
      <stop
         offset="1"
         stop-color="#394da5"
         id="stop52-2" />
    </linearGradient>
    <path
       id="path104-13"
       d="M 196.35,-37.141 H 1196.36 V 128.657 H 196.35 Z" />
    <path
       id="path114-2"
       d="M 196.35,-37.141 H 1196.36 V 128.657 H 196.35 Z" />
    <clipPath
       id="b-9">
      <use
         xlink:href="#a"
         overflow="visible"
         id="use5-8"
         x="0"
         y="0"
         width="100%"
         height="100%" />
    </clipPath>
    <clipPath
       id="d-2">
      <use
         xlink:href="#c"
         overflow="visible"
         id="use21-0"
         x="0"
         y="0"
         width="100%"
         height="100%" />
    </clipPath>
    <path
       id="a"
       d="M 196.35,-37.141 H 1196.36 V 128.657 H 196.35 Z" />
    <path
       id="c"
       d="M 196.35,-37.141 H 1196.36 V 128.657 H 196.35 Z" />
    <radialGradient
       cx="202.91011"
       cy="65.021362"
       fx="202.91011"
       fy="65.021362"
       r="48.504616"
       id="a-5"
       gradientTransform="scale(1.0005153,0.99948493)"
       gradientUnits="userSpaceOnUse">
      <stop
         stop-color="#FFF"
         offset="0%"
         id="stop2" />
      <stop
         stop-color="#FCE800"
         offset="19.02%"
         id="stop4" />
      <stop
         stop-color="#EC8F27"
         offset="85.93%"
         id="stop6" />
    </radialGradient>
    <linearGradient
       x1="134.77487"
       y1="49.381653"
       x2="134.77487"
       y2="0.55994713"
       id="b-0-7"
       gradientTransform="scale(1.0256763,0.97496651)"
       gradientUnits="userSpaceOnUse">
      <stop
         stop-color="#F68B1F"
         offset="0%"
         id="stop9" />
      <stop
         stop-color="#FFF"
         offset="100%"
         id="stop11" />
    </linearGradient>
    <linearGradient
       x1="53.483879"
       y1="44.051418"
       x2="64.062614"
       y2="62.661644"
       id="c-7"
       gradientUnits="userSpaceOnUse">
      <stop
         stop-color="#FFF"
         offset="0%"
         id="stop14" />
      <stop
         stop-color="#FEF6ED"
         offset="4.821%"
         id="stop16" />
      <stop
         stop-color="#FBD0A5"
         offset="25.69%"
         id="stop18" />
      <stop
         stop-color="#F9B26B"
         offset="44.42%"
         id="stop20" />
      <stop
         stop-color="#F79D42"
         offset="60.34%"
         id="stop22" />
      <stop
         stop-color="#F69028"
         offset="72.82%"
         id="stop24" />
      <stop
         stop-color="#F68B1F"
         offset="80.33%"
         id="stop26" />
    </linearGradient>
    <linearGradient
       x1="2.05039"
       y1="68.696198"
       x2="42.65826"
       y2="192.964"
       id="d-8"
       gradientTransform="scale(1.409801,0.70931995)"
       gradientUnits="userSpaceOnUse">
      <stop
         stop-color="#FFF"
         offset="0%"
         id="stop29" />
      <stop
         stop-color="#FEF6ED"
         offset="4.821%"
         id="stop31" />
      <stop
         stop-color="#FBD0A5"
         offset="25.69%"
         id="stop33" />
      <stop
         stop-color="#F9B26B"
         offset="44.42%"
         id="stop35" />
      <stop
         stop-color="#F79D42"
         offset="60.34%"
         id="stop37" />
      <stop
         stop-color="#F69028"
         offset="72.82%"
         id="stop39-9" />
      <stop
         stop-color="#F68B1F"
         offset="80.33%"
         id="stop41-3" />
    </linearGradient>
    <linearGradient
       x1="180.28741"
       y1="90.57383"
       x2="173.40768"
       y2="123.44773"
       id="e-2"
       gradientTransform="scale(1.2768133,0.78319989)"
       gradientUnits="userSpaceOnUse">
      <stop
         stop-color="#FFF"
         offset="0%"
         id="stop44" />
      <stop
         stop-color="#FEF6ED"
         offset="4.821%"
         id="stop46" />
      <stop
         stop-color="#FBD0A5"
         offset="25.69%"
         id="stop48-4" />
      <stop
         stop-color="#F9B26B"
         offset="44.42%"
         id="stop50-9" />
      <stop
         stop-color="#F79D42"
         offset="60.34%"
         id="stop52-4" />
      <stop
         stop-color="#F69028"
         offset="72.82%"
         id="stop54" />
      <stop
         stop-color="#F68B1F"
         offset="80.33%"
         id="stop56" />
    </linearGradient>
    <linearGradient
       x1="43.736912"
       y1="243.13164"
       x2="43.736912"
       y2="325.8479"
       id="f-6"
       gradientTransform="scale(2.9399166,0.3401457)"
       gradientUnits="userSpaceOnUse">
      <stop
         stop-color="#F68B1F"
         offset="0%"
         id="stop59" />
      <stop
         stop-color="#CB672F"
         offset="53.08%"
         id="stop61" />
      <stop
         stop-color="#A1453F"
         offset="100%"
         id="stop63" />
    </linearGradient>
    <radialGradient
       cx="97.375191"
       cy="132.38023"
       fx="97.375191"
       fy="132.38023"
       r="38.978508"
       id="g-9"
       gradientTransform="scale(1.6664459,0.60007949)"
       gradientUnits="userSpaceOnUse">
      <stop
         stop-color="#FFF"
         offset="0%"
         id="stop66" />
      <stop
         stop-color="#FCE800"
         offset="13.34%"
         id="stop68" />
      <stop
         stop-color="#EC8F27"
         offset="85.93%"
         id="stop70" />
    </radialGradient>
    <clipPath
       id="SVGID_6_-5">
      <use
         xlink:href="#SVGID_5_"
         overflow="visible"
         id="use35-6"
         x="0"
         y="0"
         width="100%"
         height="100%" />
    </clipPath>
    <clipPath
       id="SVGID_9_-3">
      <use
         xlink:href="#SVGID_8_-7"
         overflow="visible"
         id="use48-3"
         x="0"
         y="0"
         width="100%"
         height="100%" />
    </clipPath>
    <clipPath
       id="SVGID_11_-0">
      <use
         xlink:href="#SVGID_10_-9"
         overflow="visible"
         id="use58-5"
         x="0"
         y="0"
         width="100%"
         height="100%" />
    </clipPath>
    <clipPath
       id="SVGID_13_-2">
      <use
         xlink:href="#SVGID_12_-4"
         overflow="visible"
         id="use68-7"
         x="0"
         y="0"
         width="100%"
         height="100%" />
    </clipPath>
    <clipPath
       id="SVGID_15_-4">
      <use
         xlink:href="#SVGID_14_-9"
         overflow="visible"
         id="use78-1"
         x="0"
         y="0"
         width="100%"
         height="100%" />
    </clipPath>
    <path
       id="path392"
       d="m 139.8,0 h -27.5 c -6.7,0 -12.2,5.5 -12.2,12.2 V 48 h -40 c -6.6,0 -12,5.4 -12,12 v 40 H 12 c -6.6,0 -12,5.4 -12,12 v 28 c 0,6.6 5.4,12 12,12 h 127.8 c 6.7,0 12.2,-5.5 12.2,-12.2 V 12.2 C 152,5.5 146.5,0 139.8,0 Z" />
    <path
       id="path399"
       d="m 139.8,0 h -27.5 c -6.7,0 -12.2,5.5 -12.2,12.2 V 48 h -40 c -6.6,0 -12,5.4 -12,12 v 40 H 12 c -6.6,0 -12,5.4 -12,12 v 28 c 0,6.6 5.4,12 12,12 h 127.8 c 6.7,0 12.2,-5.5 12.2,-12.2 V 12.2 C 152,5.5 146.5,0 139.8,0 Z" />
    <path
       id="path406"
       d="m 139.8,0 h -27.5 c -6.7,0 -12.2,5.5 -12.2,12.2 V 48 h -40 c -6.6,0 -12,5.4 -12,12 v 40 H 12 c -6.6,0 -12,5.4 -12,12 v 28 c 0,6.6 5.4,12 12,12 h 127.8 c 6.7,0 12.2,-5.5 12.2,-12.2 V 12.2 C 152,5.5 146.5,0 139.8,0 Z" />
    <path
       id="path413"
       d="m 139.8,0 h -27.5 c -6.7,0 -12.2,5.5 -12.2,12.2 V 48 h -40 c -6.6,0 -12,5.4 -12,12 v 40 H 12 c -6.6,0 -12,5.4 -12,12 v 28 c 0,6.6 5.4,12 12,12 h 127.8 c 6.7,0 12.2,-5.5 12.2,-12.2 V 12.2 C 152,5.5 146.5,0 139.8,0 Z" />
    <linearGradient
       id="a-4"
       gradientUnits="userSpaceOnUse"
       x1="175.5"
       x2="175.5"
       y1="45"
       y2="148.5"
       gradientTransform="matrix(0.36630442,0,0,0.36630442,59.707185,57.149168)">
      <stop
         offset="0"
         stop-color="#f05a28"
         id="stop2-0" />
      <stop
         offset="1"
         stop-color="#fbca0a"
         id="stop4-20" />
    </linearGradient>
    <mask
       id="a-0"
       height="8"
       maskUnits="userSpaceOnUse"
       width="55.9"
       x="0"
       y=".5">
      <path
         clip-rule="evenodd"
         d="M 78.8,32.9 H 0 V 0.5 h 78.8 z"
         fill="#ffffff"
         fill-rule="evenodd"
         id="path2-1" />
    </mask>
    <mask
       id="b-5"
       height="32.5"
       maskUnits="userSpaceOnUse"
       width="51.4"
       x="27.4"
       y=".5">
      <path
         clip-rule="evenodd"
         d="M 78.8,32.9 H 0 V 0.5 h 78.8 z"
         fill="#ffffff"
         fill-rule="evenodd"
         id="path5-0" />
    </mask>
    <linearGradient
       id="SVGID_1_-56"
       gradientUnits="userSpaceOnUse"
       x1="-130.0183"
       y1="593.36761"
       x2="-131.1685"
       y2="594.03522"
       gradientTransform="matrix(14.298,0,0,-22.802,2075.3821,13864.579)">
      <stop
         offset="5.550000e-002"
         style="stop-color:#FFFFFF"
         id="stop24-6" />
      <stop
         offset="1"
         style="stop-color:#FFFFFF;stop-opacity:0.2"
         id="stop26-9" />
    </linearGradient>
    <linearGradient
       id="SVGID_2_-9"
       gradientUnits="userSpaceOnUse"
       x1="-119.477"
       y1="593.36761"
       x2="-120.6273"
       y2="594.03522"
       gradientTransform="matrix(14.299,0,0,-22.802,2153.1946,13864.579)">
      <stop
         offset="5.550000e-002"
         style="stop-color:#FFFFFF"
         id="stop31-9" />
      <stop
         offset="1"
         style="stop-color:#FFFFFF;stop-opacity:0.2"
         id="stop33-6" />
    </linearGradient>
    <linearGradient
       x1="128"
       y1="0"
       x2="128"
       y2="256"
       id="a-40"
       gradientUnits="userSpaceOnUse">
      <stop
         stop-color="#0091E6"
         offset="0%"
         id="stop2-9" />
      <stop
         stop-color="#0079BF"
         offset="100%"
         id="stop4-4" />
    </linearGradient>
    <clipPath
       id="h-9">
      <path
         id="use35-2"
         d="m 145.19,170.302 1.645,-9.255 22.936,-30.204 h -17.964 l 1.899,-10.493 h 34.314 l -1.681,9.254 -23.047,30.199 h 102.372 l -1.824,10.499 H 145.19" />
    </clipPath>
    <path
       id="path1689"
       d="m 145.19,170.302 1.645,-9.255 22.936,-30.204 h -17.964 l 1.899,-10.493 h 34.314 l -1.681,9.254 -23.047,30.199 h 102.372 l -1.824,10.499 H 145.19" />
    <clipPath
       id="h-9-1">
      <path
         id="use35-2-7"
         d="m 145.19,170.302 1.645,-9.255 22.936,-30.204 h -17.964 l 1.899,-10.493 h 34.314 l -1.681,9.254 -23.047,30.199 h 102.372 l -1.824,10.499 H 145.19" />
    </clipPath>
    <path
       id="path1689-4"
       d="m 145.19,170.302 1.645,-9.255 22.936,-30.204 h -17.964 l 1.899,-10.493 h 34.314 l -1.681,9.254 -23.047,30.199 h 102.372 l -1.824,10.499 H 145.19" />
    <clipPath
       id="h-9-0">
      <path
         id="use35-2-6"
         d="m 145.19,170.302 1.645,-9.255 22.936,-30.204 h -17.964 l 1.899,-10.493 h 34.314 l -1.681,9.254 -23.047,30.199 h 102.372 l -1.824,10.499 H 145.19" />
    </clipPath>
    <clipPath
       id="h-9-18">
      <path
         id="use35-2-1"
         d="m 145.19,170.302 1.645,-9.255 22.936,-30.204 h -17.964 l 1.899,-10.493 h 34.314 l -1.681,9.254 -23.047,30.199 h 102.372 l -1.824,10.499 H 145.19" />
    </clipPath>
  </defs>
  <sodipodi:namedview
     id="base"
     pagecolor="#101010"
     bordercolor="#666666"
     borderopacity="1.0"
     inkscape:pageopacity="0"
     inkscape:pageshadow="2"
     inkscape:zoom="1.4969945"
     inkscape:cx="127.45244"
     inkscape:cy="144.71462"
     inkscape:document-units="px"
     inkscape:current-layer="layer2"
     inkscape:document-rotation="0"
     showgrid="true"
     inkscape:window-width="1366"
     inkscape:window-height="705"
     inkscape:window-x="-8"
     inkscape:window-y="-8"
     inkscape:window-maximized="1"
     inkscape:snap-global="false"
     showguides="true">
    <inkscape:grid
       type="xygrid"
       id="grid1972" />
  </sodipodi:namedview>
  <metadata
     id="metadata1405">
    <rdf:RDF>
      <cc:Work
         rdf:about="">
        <dc:format>image/svg+xml</dc:format>
        <dc:type
           rdf:resource="http://purl.org/dc/dcmitype/StillImage" />
        <dc:title />
      </cc:Work>
    </rdf:RDF>
  </metadata>
  <g
     inkscape:groupmode="layer"
     id="layer3"
     inkscape:label="BG" />
  <g
     inkscape:groupmode="layer"
     id="layer4"
     inkscape:label="Bounding Box" />
  <g
     inkscape:groupmode="layer"
     id="layer2"
     inkscape:label="Top">
    <path
       clip-path="url(#h-9-0)"
       fill="url(#i)"
       d="m 148.823,99.746 125.382,22.109 -12.174,69.049 -125.383,-22.108 z"
       id="path43-1"
       style="display:inline;opacity:1;fill:#ed1b34;fill-opacity:1"
       transform="matrix(0.59926181,0,0,0.59926181,45.681802,67.640864)" />
    <g
       id="g847"
       transform="translate(-0.19315289,-0.04989999)"
       style="fill:#5e5c64">
      <path
         style="fill:#5e5c64;fill-opacity:0.326613;stroke:none;stroke-width:3;stroke-linecap:round;stroke-linejoin:round;stroke-miterlimit:4;stroke-dasharray:none;stroke-opacity:1;paint-order:normal"
         id="path885"
         sodipodi:type="arc"
         sodipodi:cx="154.57903"
         sodipodi:cy="83.172447"
         sodipodi:rx="111.24603"
         sodipodi:ry="111.24603"
         sodipodi:start="5.9893981"
         sodipodi:end="5.9807042"
         sodipodi:open="true"
         sodipodi:arc-type="arc"
         transform="rotate(16.68412)"
         d="M 261.05862,50.957906 A 111.24603,111.24603 0 0 1 187.02492,189.58177 111.24603,111.24603 0 0 1 48.240476,115.84954 111.24603,111.24603 0 0 1 121.67088,-23.094829 111.24603,111.24603 0 0 1 260.77453,50.033412" />
      <path
         style="fill:#5e5c64;fill-opacity:1;stroke:#ffffff;stroke-width:4.5;stroke-linecap:round;stroke-linejoin:round;stroke-miterlimit:4;stroke-dasharray:none;stroke-opacity:1;paint-order:normal"
         id="path883-9"
         sodipodi:type="arc"
         sodipodi:cx="154.57903"
         sodipodi:cy="83.172447"
         sodipodi:rx="111.24604"
         sodipodi:ry="111.24604"
         sodipodi:start="5.9893981"
         sodipodi:end="5.9807042"
         sodipodi:open="true"
         sodipodi:arc-type="arc"
         transform="rotate(16.68412)"
         d="M 261.05862,50.957904 A 111.24604,111.24604 0 0 1 187.02492,189.58178 111.24604,111.24604 0 0 1 48.240468,115.84955 111.24604,111.24604 0 0 1 121.67088,-23.094836 111.24604,111.24604 0 0 1 260.77453,50.03341" />
    </g>
    <g
       id="g16"
       transform="matrix(0.39960833,0,0,0.39960833,38.173343,90.186542)"
       style="display:inline">
      <path
         fill="#272525"
         d="m 189.039,64.124 c -9.83,0 -20.079,7.175 -20.079,7.175 v -4.611 c 0,-1.011 -0.404,-1.416 -1.415,-1.416 h -12.547 c -1.012,0 -1.619,0.607 -1.619,1.416 v 98.338 c 0,1.015 0.405,1.622 1.417,1.622 h 12.748 c 0.808,0 1.415,-0.607 1.415,-1.622 V 80.85 c 0,0 5.917,-3.749 13.104,-3.749 6.842,0 12.244,3.396 12.244,10.359 v 77.562 c 0,1.015 0.605,1.622 1.619,1.622 h 12.544 c 1.012,0 1.416,-0.812 1.416,-1.622 V 83.052 C 209.885,70.707 202.295,64.124 189.039,64.124 Z m 97.593,-49.327 h -12.547 c -1.013,0 -1.618,0.606 -1.618,1.417 V 65.823 C 267.65,63.976 263.265,63 259.721,63 c -20.376,0 -34.364,19.479 -34.364,56.935 0,32.089 13.607,49.298 31.365,49.298 7.484,0 13.664,-4.289 18.188,-8.312 l 2.739,4.644 c 0.462,0.803 0.84,1.078 1.769,1.078 l 7.216,0.007 c 0.809,0 1.417,-0.607 1.417,-1.622 V 16.214 c -0.002,-1.013 -0.409,-1.417 -1.419,-1.417 z m -44.684,101.824 c 0,-20.64 6.041,-41.076 18.376,-41.076 4.179,0 8.191,1.375 12.145,4.515 v 72.712 c -3.091,1.682 -6.979,3.23 -11.18,3.23 -13.414,0 -19.341,-15.908 -19.341,-39.381 z M 334.69,63.203 c -20.894,0 -31.206,27.332 -31.206,57.075 0,31.134 14.708,48.583 33.618,48.583 8.312,0 16.587,-3.271 22.013,-6.286 0.831,-0.463 0.981,-1.114 0.782,-1.919 l -1.587,-6.577 c -0.198,-0.805 -0.603,-1.205 -1.606,-1.205 -0.441,0 -7.297,2.005 -13.966,2.005 -15.476,0 -22.572,-13.757 -22.572,-32.027 v -4.44 c 0,0 7.691,1.063 12.312,1.063 h 29.196 v -8.438 C 361.675,79.885 350.766,63.203 334.69,63.203 Z m -1.005,43.611 c -4.621,0 -13.031,1.143 -13.031,1.143 0,0 0.112,-3.354 0.516,-6.567 1.81,-17.083 5.884,-25.725 12.917,-25.725 6.115,0 10.306,8.841 11.312,24.316 0.199,3.216 0.199,6.833 0.199,6.833 z M 129.552,75.977 c -4.64,-9.142 -12.903,-13.137 -22.369,-13.137 -6.081,0 -15.571,2.325 -21.91,5.175 -1.24,0.558 -2.023,1.048 -2.023,2.023 0,0.58 0.289,1.246 0.606,1.821 l 4.271,9.144 c 0.44,1.032 1.146,1.269 1.729,1.269 0.632,0 1.146,-0.299 1.712,-0.662 6.183,-3.95 10.711,-6.123 14.296,-6.123 4.743,0 7.964,3.146 9.95,7.878 1.851,4.409 2.566,10.501 2.566,17.54 0,0.897 0.005,2.068 0.005,2.068 -3.896,-2.438 -10.646,-3.781 -14.016,-3.781 -18.127,0 -27.901,17.223 -27.901,35.641 0,19.845 11.425,34.399 25.154,34.399 7.646,0 14.568,-4.487 19.204,-10.146 0,0 2.469,5.885 2.791,6.591 0.325,0.704 0.667,0.965 1.596,0.965 l 7.337,0.007 c 0.808,0 1.415,-0.607 1.415,-1.622 V 107.982 C 133.962,93.963 133.254,83.27 129.552,75.977 Z m -11.169,74.735 c -3.595,3.472 -7.899,5.29 -11.773,5.29 -3.873,0 -6.866,-1.789 -9.267,-5.104 -2.922,-4.031 -4.285,-10.239 -4.285,-17.119 0,-10.88 4.017,-22.044 12.53,-22.044 4.214,0 8.843,1.372 12.794,4.515 z M 427.932,65.258 h -11.184 c -1.249,0 -1.887,0.654 -2.208,1.503 a 7114.75,7114.75 0 0 0 -7.373,19.463 c -1.382,3.684 -5.104,14.232 -5.104,14.232 l -0.433,-0.003 c -0.016,-0.038 -2.739,-7.674 -4.215,-11.498 -1.193,-3.101 -7.425,-19.511 -8.212,-21.533 -0.422,-1.087 -0.893,-2.164 -2.493,-2.164 h -12.242 c -1.346,0 -2.107,1.477 -1.674,2.393 0.438,0.919 19.943,45.35 19.943,45.35 0,0 -20.947,49.752 -21.561,50.868 -0.612,1.117 0.156,2.771 1.646,2.771 h 10.729 c 1.825,0 2.546,-0.957 3.094,-2.498 1.542,-4.32 3.838,-10.327 7.09,-19.612 2.153,-6.152 5.561,-16.951 5.561,-16.951 h 0.375 c 0,0 3.73,11.006 5.119,14.604 3.505,9.1 7.988,20.985 8.465,22.24 0.495,1.312 1.188,2.218 2.442,2.218 h 12.167 c 1.204,0 1.762,-1.374 1.194,-2.57 -1.354,-2.854 -12.909,-30.929 -20.933,-49.387 0,0 20.822,-45.951 21.229,-47.088 0.414,-1.139 0.294,-2.338 -1.422,-2.338 z"
         id="path2-0" />
      <path
         fill="#ff0000"
         d="M 89.138,0 H 75.032 c -1.249,0 -2.028,0.612 -2.209,1.502 -0.179,0.894 -21.151,64.84 -22.676,70.167 -1.081,3.775 -4.604,17.089 -5.45,20.286 L 37.403,72.041 C 35.632,66.561 18.643,19.103 18.146,17.207 17.872,16.165 17.392,14.869 15.565,14.869 H 1.796 c -1.348,0 -2.107,1.478 -1.674,2.394 0.348,0.732 25.22,66.903 35.269,92.183 v 55.58 c 0,1.015 0.405,1.622 1.417,1.622 H 49.85 c 0.809,0 1.416,-0.607 1.416,-1.622 V 109.883 C 59.64,86.488 90.237,3.27 90.57,2.338 90.975,1.198 90.855,0 89.138,0 Z"
         id="path4" />
    </g>
  </g>
  <g
     inkscape:groupmode="layer"
     id="layer1"
     inkscape:label="Top 1" />
</svg>
