<?xml version="1.0" encoding="UTF-8" standalone="no"?>
<svg
   xmlns:dc="http://purl.org/dc/elements/1.1/"
   xmlns:cc="http://creativecommons.org/ns#"
   xmlns:rdf="http://www.w3.org/1999/02/22-rdf-syntax-ns#"
   xmlns:svg="http://www.w3.org/2000/svg"
   xmlns="http://www.w3.org/2000/svg"
   xmlns:sodipodi="http://sodipodi.sourceforge.net/DTD/sodipodi-0.dtd"
   xmlns:inkscape="http://www.inkscape.org/namespaces/inkscape"
   width="248.0px"
   height="248.0px"
   viewBox="0 0 248.0 248.0"
   version="1.1"
   id="SVGRoot"
   sodipodi:docname="10065-icon-service-Traffic-Manager-Profiles White.svg"
   inkscape:version="1.0.2-2 (e86c870879, 2021-01-15)">
  <defs
     id="defs1402">
    <inkscape:path-effect
       effect="fillet_chamfer"
       id="path-effect2040"
       is_visible="true"
       lpeversion="1"
       satellites_param="F,0,0,1,0,0,0,1 @ F,0,0,1,0,6.0755415,0,1 @ F,0,0,1,0,6.1445293,0,1 @ F,0,0,1,0,0,0,1"
       unit="px"
       method="auto"
       mode="F"
       radius="0"
       chamfer_steps="1"
       flexible="false"
       use_knot_distance="true"
       apply_no_radius="true"
       apply_with_radius="true"
       only_selected="true"
       hide_knots="false" />
    <style
       id="style1979">.cls-1{fill:url(#GreenGradient);}.cls-2{fill:#fff;}</style>
    <linearGradient
       id="GreenGradient"
       x1="-522.53"
       y1="465.47"
       x2="-416.47"
       y2="571.53"
       gradientTransform="rotate(-90,-456.5,24.5)"
       gradientUnits="userSpaceOnUse">
      <stop
         offset="0"
         stop-color="#1b660f"
         id="stop1981" />
      <stop
         offset="1"
         stop-color="#6cae3e"
         id="stop1983" />
    </linearGradient>
    <linearGradient
       id="OrangeGradient"
       x1="1131.1"
       y1="-516.47998"
       x2="1131.1"
       y2="-366.48001"
       gradientTransform="rotate(-135,816.69218,-8.7994369)"
       gradientUnits="userSpaceOnUse">
      <stop
         offset="0"
         stop-color="#c8511b"
         id="stop138" />
      <stop
         offset="1"
         stop-color="#f90"
         id="stop140" />
    </linearGradient>
  </defs>
  <sodipodi:namedview
     id="base"
     pagecolor="#ffffff"
     bordercolor="#666666"
     borderopacity="1.0"
     inkscape:pageopacity="0"
     inkscape:pageshadow="2"
     inkscape:zoom="1.4243555"
     inkscape:cx="124"
     inkscape:cy="124"
     inkscape:document-units="px"
     inkscape:current-layer="layer2"
     inkscape:document-rotation="0"
     showgrid="true"
     inkscape:window-width="1366"
     inkscape:window-height="705"
     inkscape:window-x="-8"
     inkscape:window-y="-8"
     inkscape:window-maximized="1"
     inkscape:snap-global="false"
     showguides="true">
    <inkscape:grid
       type="xygrid"
       id="grid1972" />
  </sodipodi:namedview>
  <metadata
     id="metadata1405">
    <rdf:RDF>
      <cc:Work
         rdf:about="">
        <dc:format>image/svg+xml</dc:format>
        <dc:type
           rdf:resource="http://purl.org/dc/dcmitype/StillImage" />
        <dc:title />
      </cc:Work>
    </rdf:RDF>
  </metadata>
  <g
     inkscape:groupmode="layer"
     id="layer3"
     inkscape:label="BG" />
  <g
     inkscape:groupmode="layer"
     id="layer4"
     inkscape:label="Bounding Box" />
  <g
     inkscape:groupmode="layer"
     id="layer2"
     inkscape:label="Top">
    <g
       id="g858"
       transform="translate(-0.19315289,-0.04989999)">
      <path
         style="fill:none;fill-opacity:1;stroke:#000000;stroke-width:4.5;stroke-linecap:round;stroke-linejoin:round;stroke-miterlimit:4;stroke-dasharray:none;stroke-opacity:1;paint-order:normal"
         id="path883"
         sodipodi:type="arc"
         sodipodi:cx="154.57903"
         sodipodi:cy="83.172447"
         sodipodi:rx="111.24604"
         sodipodi:ry="111.24604"
         sodipodi:start="5.9893981"
         sodipodi:end="5.9807042"
         sodipodi:open="true"
         sodipodi:arc-type="arc"
         transform="rotate(16.68412)"
         d="M 261.05862,50.957904 A 111.24604,111.24604 0 0 1 187.02492,189.58178 111.24604,111.24604 0 0 1 48.240468,115.84955 111.24604,111.24604 0 0 1 121.67088,-23.094836 111.24604,111.24604 0 0 1 260.77453,50.03341" />
      <path
         style="fill:#3d3846;fill-opacity:0.326613;stroke:none;stroke-width:4.45107;stroke-linecap:round;stroke-linejoin:round;stroke-miterlimit:4;stroke-dasharray:none;stroke-opacity:1;paint-order:normal"
         id="path885"
         sodipodi:type="arc"
         sodipodi:cx="154.57903"
         sodipodi:cy="83.172447"
         sodipodi:rx="110.03654"
         sodipodi:ry="110.03654"
         sodipodi:start="5.9893981"
         sodipodi:end="5.9807042"
         sodipodi:open="true"
         sodipodi:arc-type="arc"
         transform="rotate(16.68412)"
         d="M 259.90094,51.308151 A 110.03654,110.03654 0 0 1 186.67216,188.42486 110.03654,110.03654 0 0 1 49.396616,115.49427 110.03654,110.03654 0 0 1 122.02867,-21.939463 110.03654,110.03654 0 0 1 259.61994,50.393709" />
    </g>
    <g
       id="g33"
       transform="matrix(8.0545268,0,0,8.0545268,51.509259,51.509259)">
      <path
         d="M 12.29,0.5 H 5.71 A 0.56,0.56 0 0 0 5.31,0.67 L 0.67,5.31 A 0.56,0.56 0 0 0 0.5,5.71 v 6.58 a 0.56,0.56 0 0 0 0.17,0.4 l 4.64,4.64 a 0.56,0.56 0 0 0 0.4,0.17 h 6.58 a 0.56,0.56 0 0 0 0.4,-0.17 l 4.64,-4.64 a 0.56,0.56 0 0 0 0.17,-0.4 V 5.71 A 0.56,0.56 0 0 0 17.33,5.31 L 12.69,0.67 A 0.56,0.56 0 0 0 12.29,0.5 Z"
         fill="url(#b02c7a20-01da-4daf-91b9-e11528418dfc)"
         id="path19"
         style="fill:#a57cd5;fill-opacity:1" />
      <path
         d="m 6,7.64 -0.07,0.07 -1,1 a 0.14,0.14 0 0 0 0.1,0.23 h 3.8 A 0.14,0.14 0 0 0 8.97,8.8 V 5.05 A 0.16688319,0.16688319 0 0 0 8.64,5 l -1,1 -0.07,0.07 a 0.15,0.15 0 0 1 -0.2,0 L 4.8,3.54 3.43,4.92 6,7.44 a 0.15,0.15 0 0 1 0,0.2 z"
         fill="#f2f2f2"
         id="path21" />
      <path
         d="M 16.18,5.91 12.09,1.82 A 0.28,0.28 0 0 0 11.89,1.74 H 6.11 A 0.28,0.28 0 0 0 5.91,1.82 L 1.82,5.91 a 0.28,0.28 0 0 0 -0.08,0.2 v 5.78 a 0.3,0.3 0 0 0 0.08,0.2 l 4.09,4.09 a 0.28,0.28 0 0 0 0.2,0.08 h 5.78 a 0.28,0.28 0 0 0 0.2,-0.08 l 4.09,-4.09 a 0.3,0.3 0 0 0 0.08,-0.2 V 6.11 a 0.28,0.28 0 0 0 -0.08,-0.2 z m -0.36,5.45 -3.15,-3.15 0.76,-0.77 a 0.16,0.16 0 0 0 0,-0.24 0.16,0.16 0 0 0 -0.11,0 L 10.61,7.13 a 0.17,0.17 0 0 0 -0.17,0.16 v 0 L 10.51,10 a 0.16,0.16 0 0 0 0.17,0.16 v 0 a 0.13,0.13 0 0 0 0.12,0 L 11.65,9.32 15,12.62 12.46,15.16 9,11.71 9.8,11 a 0.16,0.16 0 0 0 0,-0.24 0.16,0.16 0 0 0 -0.11,-0.05 L 7,10.59 a 0.17,0.17 0 0 0 -0.17,0.16 v 0 l 0.07,2.71 a 0.16,0.16 0 0 0 0.17,0.16 v 0 A 0.17,0.17 0 0 0 7.19,13.57 L 8,12.74 11.08,15.82 H 6.17 l -4,-4 V 6.17 L 3.43,4.92 4.8,3.54 6.17,2.17 h 5.66 l 4,4 z"
         fill="#f2f2f2"
         id="path23" />
    </g>
  </g>
</svg>
