<?xml version="1.0" encoding="UTF-8" standalone="no"?>
<svg
   xmlns:dc="http://purl.org/dc/elements/1.1/"
   xmlns:cc="http://creativecommons.org/ns#"
   xmlns:rdf="http://www.w3.org/1999/02/22-rdf-syntax-ns#"
   xmlns:svg="http://www.w3.org/2000/svg"
   xmlns="http://www.w3.org/2000/svg"
   xmlns:sodipodi="http://sodipodi.sourceforge.net/DTD/sodipodi-0.dtd"
   xmlns:inkscape="http://www.inkscape.org/namespaces/inkscape"
   width="248.0px"
   height="248.0px"
   viewBox="0 0 248.0 248.0"
   version="1.1"
   id="SVGRoot"
   sodipodi:docname="10801-icon-service-Files Dark.svg"
   inkscape:version="1.0.2-2 (e86c870879, 2021-01-15)">
  <defs
     id="defs1402">
    <inkscape:path-effect
       effect="fillet_chamfer"
       id="path-effect2040"
       is_visible="true"
       lpeversion="1"
       satellites_param="F,0,0,1,0,0,0,1 @ F,0,0,1,0,6.0755415,0,1 @ F,0,0,1,0,6.1445293,0,1 @ F,0,0,1,0,0,0,1"
       unit="px"
       method="auto"
       mode="F"
       radius="0"
       chamfer_steps="1"
       flexible="false"
       use_knot_distance="true"
       apply_no_radius="true"
       apply_with_radius="true"
       only_selected="true"
       hide_knots="false" />
    <style
       id="style1979">.cls-1{fill:url(#GreenGradient);}.cls-2{fill:#fff;}</style>
    <linearGradient
       id="GreenGradient"
       x1="-522.53"
       y1="465.47"
       x2="-416.47"
       y2="571.53"
       gradientTransform="rotate(-90,-456.5,24.5)"
       gradientUnits="userSpaceOnUse">
      <stop
         offset="0"
         stop-color="#1b660f"
         id="stop1981" />
      <stop
         offset="1"
         stop-color="#6cae3e"
         id="stop1983" />
    </linearGradient>
    <linearGradient
       id="fcd6c6c7-e2eb-4a32-b914-3a8485585a1b"
       x1="12.96"
       y1="8.5609999"
       x2="12.96"
       y2="6.1409998"
       gradientTransform="matrix(1,0,0,-1,0,20)"
       gradientUnits="userSpaceOnUse">
      <stop
         offset="0"
         stop-color="#333132"
         id="stop7" />
      <stop
         offset="1"
         stop-color="#5b5a5c"
         id="stop9" />
    </linearGradient>
    <linearGradient
       id="af3748e9-b70c-45be-94d6-553fb78dc833"
       x1="-481.38599"
       y1="-747.70099"
       x2="-463.78201"
       y2="-778.24701"
       gradientTransform="matrix(0.5,0.866,-0.866,0.5,-419.682,794.08)"
       gradientUnits="userSpaceOnUse">
      <stop
         offset="0"
         stop-color="#005ba1"
         id="stop2" />
      <stop
         offset="0.366"
         stop-color="#004e8f"
         id="stop4" />
      <stop
         offset="1"
         stop-color="#003067"
         id="stop6" />
    </linearGradient>
    <linearGradient
       id="bccb774a-3f0f-4cfb-8caf-da5943d5aaf7"
       x1="-1395.588"
       y1="671.23901"
       x2="-1374.204"
       y2="633.73798"
       gradientTransform="matrix(-0.5,-0.866,0.866,-0.5,-1249.226,-858.396)"
       gradientUnits="userSpaceOnUse">
      <stop
         offset="0"
         stop-color="#005ba1"
         id="stop9-1" />
      <stop
         offset="0.451"
         stop-color="#004685"
         id="stop11" />
      <stop
         offset="1"
         stop-color="#003067"
         id="stop13" />
    </linearGradient>
    <linearGradient
       id="ecd98112-5cbf-4c9b-800a-df61d86f7d77"
       x1="6.0029998"
       y1="14.447"
       x2="7.447"
       y2="6.204"
       gradientUnits="userSpaceOnUse">
      <stop
         offset="0.26"
         stop-color="#50e6ff"
         id="stop16" />
      <stop
         offset="0.42"
         stop-color="#79eaff"
         id="stop18" />
      <stop
         offset="0.58"
         stop-color="#99edff"
         id="stop20" />
      <stop
         offset="0.733"
         stop-color="#b0efff"
         id="stop22" />
      <stop
         offset="0.876"
         stop-color="#bef1ff"
         id="stop24" />
      <stop
         offset="1"
         stop-color="#c3f1ff"
         id="stop26" />
    </linearGradient>
    <linearGradient
       id="a9c62307-1cd0-400c-911b-17ec6a9110ce"
       x1="9"
       y1="15.834"
       x2="9"
       y2="5.7880001"
       gradientUnits="userSpaceOnUse">
      <stop
         offset="0"
         stop-color="#32bedd"
         id="stop2-3" />
      <stop
         offset="0.775"
         stop-color="#32d4f5"
         id="stop4-1" />
    </linearGradient>
    <linearGradient
       id="ee9e6206-3cd1-473c-8654-89b04e62a5fd"
       x1="11.246"
       y1="18"
       x2="11.246"
       y2="3.2809999"
       gradientUnits="userSpaceOnUse">
      <stop
         offset="0"
         stop-color="#0078d4"
         id="stop2-36" />
      <stop
         offset="0.817"
         stop-color="#5ea0ef"
         id="stop4-8" />
    </linearGradient>
  </defs>
  <sodipodi:namedview
     id="base"
     pagecolor="#101010"
     bordercolor="#666666"
     borderopacity="1.0"
     inkscape:pageopacity="0"
     inkscape:pageshadow="2"
     inkscape:zoom="0.74609647"
     inkscape:cx="91.64585"
     inkscape:cy="124"
     inkscape:document-units="px"
     inkscape:current-layer="layer2"
     inkscape:document-rotation="0"
     showgrid="true"
     inkscape:window-width="1366"
     inkscape:window-height="705"
     inkscape:window-x="-8"
     inkscape:window-y="-8"
     inkscape:window-maximized="1"
     inkscape:snap-global="false"
     showguides="true">
    <inkscape:grid
       type="xygrid"
       id="grid1972" />
  </sodipodi:namedview>
  <metadata
     id="metadata1405">
    <rdf:RDF>
      <cc:Work
         rdf:about="">
        <dc:format>image/svg+xml</dc:format>
        <dc:type
           rdf:resource="http://purl.org/dc/dcmitype/StillImage" />
        <dc:title />
      </cc:Work>
    </rdf:RDF>
  </metadata>
  <g
     inkscape:groupmode="layer"
     id="layer3"
     inkscape:label="BG" />
  <g
     inkscape:groupmode="layer"
     id="layer4"
     inkscape:label="Bounding Box" />
  <g
     inkscape:groupmode="layer"
     id="layer2"
     inkscape:label="Top">
    <g
       id="g847"
       transform="translate(-0.19315289,-0.04989999)"
       style="fill:#5e5c64">
      <path
         style="fill:#5e5c64;fill-opacity:0.326613;stroke:none;stroke-width:3;stroke-linecap:round;stroke-linejoin:round;stroke-miterlimit:4;stroke-dasharray:none;stroke-opacity:1;paint-order:normal"
         id="path885"
         sodipodi:type="arc"
         sodipodi:cx="154.57903"
         sodipodi:cy="83.172447"
         sodipodi:rx="111.24603"
         sodipodi:ry="111.24603"
         sodipodi:start="5.9893981"
         sodipodi:end="5.9807042"
         sodipodi:open="true"
         sodipodi:arc-type="arc"
         transform="rotate(16.68412)"
         d="M 261.05862,50.957906 A 111.24603,111.24603 0 0 1 187.02492,189.58177 111.24603,111.24603 0 0 1 48.240476,115.84954 111.24603,111.24603 0 0 1 121.67088,-23.094829 111.24603,111.24603 0 0 1 260.77453,50.033412" />
      <path
         style="fill:#5e5c64;fill-opacity:1;stroke:#ffffff;stroke-width:4.5;stroke-linecap:round;stroke-linejoin:round;stroke-miterlimit:4;stroke-dasharray:none;stroke-opacity:1;paint-order:normal"
         id="path883-9"
         sodipodi:type="arc"
         sodipodi:cx="154.57903"
         sodipodi:cy="83.172447"
         sodipodi:rx="111.24604"
         sodipodi:ry="111.24604"
         sodipodi:start="5.9893981"
         sodipodi:end="5.9807042"
         sodipodi:open="true"
         sodipodi:arc-type="arc"
         transform="rotate(16.68412)"
         d="M 261.05862,50.957904 A 111.24604,111.24604 0 0 1 187.02492,189.58178 111.24604,111.24604 0 0 1 48.240468,115.84955 111.24604,111.24604 0 0 1 121.67088,-23.094836 111.24604,111.24604 0 0 1 260.77453,50.03341" />
    </g>
    <g
       id="g82"
       transform="matrix(8.5756176,0,0,8.5756176,46.819442,46.829328)">
      <path
         d="M 18,10.075 A 4.044,4.044 0 0 0 14.49,6.188 5.1,5.1 0 0 0 9.24,1.313 5.229,5.229 0 0 0 4.24,4.721 4.825,4.825 0 0 0 0,9.364 4.9,4.9 0 0 0 5.068,14.071 c 0.151,0 0.3,-0.007 0.447,-0.019 h 8.207 A 0.819,0.819 0 0 0 13.939,14.019 4.093,4.093 0 0 0 18,10.075 Z"
         fill="url(#bfaf9eca-0566-4d05-9aa2-c2ccb9db061f)"
         id="path17"
         style="fill:#2d8be1;fill-opacity:1" />
      <path
         d="m 12.067,11.806 h -6.36 a 0.276,0.276 0 0 0 -0.282,0.27 v 1.732 a 0.276,0.276 0 0 0 0.281,0.27 h 6.361 a 0.276,0.276 0 0 0 0.281,-0.27 v -1.732 a 0.277,0.277 0 0 0 -0.281,-0.27 z"
         fill="#32bedd"
         id="path19" />
      <path
         d="m 12.067,14.415 h -6.36 a 0.276,0.276 0 0 0 -0.282,0.27 v 1.731 a 0.276,0.276 0 0 0 0.281,0.271 h 6.361 a 0.276,0.276 0 0 0 0.281,-0.271 v -1.731 a 0.277,0.277 0 0 0 -0.281,-0.27 z"
         fill="#198ab3"
         id="path21" />
      <path
         d="m 11.27,12.231 h 0.373 a 0.072,0.072 0 0 1 0.072,0.072 v 0.356 a 0.069,0.069 0 0 1 -0.069,0.069 H 11.267 A 0.069,0.069 0 0 1 11.198,12.659 V 12.3 a 0.072,0.072 0 0 1 0.072,-0.069 z"
         fill="#b4ec36"
         id="path23" />
      <path
         d="m 11.268,13.087 h 0.376 a 0.072,0.072 0 0 1 0.072,0.072 v 0.353 a 0.072,0.072 0 0 1 -0.072,0.072 H 11.27 a 0.072,0.072 0 0 1 -0.072,-0.072 v -0.356 a 0.069,0.069 0 0 1 0.07,-0.069 z"
         fill="#b4ec36"
         id="path25" />
      <path
         d="m 11.289,14.827 h 0.376 a 0.072,0.072 0 0 1 0.072,0.072 v 0.356 a 0.069,0.069 0 0 1 -0.069,0.069 H 11.292 A 0.072,0.072 0 0 1 11.22,15.252 V 14.9 a 0.069,0.069 0 0 1 0.069,-0.073 z"
         fill="#b4ec36"
         id="path27" />
      <path
         d="m 11.289,15.683 h 0.376 a 0.072,0.072 0 0 1 0.072,0.072 v 0.356 A 0.069,0.069 0 0 1 11.668,16.18 H 11.289 A 0.069,0.069 0 0 1 11.22,16.111 v -0.359 a 0.069,0.069 0 0 1 0.069,-0.069 z"
         fill="#b4ec36"
         id="path29" />
      <path
         d="M 12.007,8.993 H 5.647 A 0.276,0.276 0 0 0 5.365,9.264 V 11 a 0.277,0.277 0 0 0 0.281,0.271 h 6.361 A 0.277,0.277 0 0 0 12.288,11 V 9.264 A 0.277,0.277 0 0 0 12.007,8.993 Z"
         fill="#50e6ff"
         id="path31" />
      <path
         d="m 11.208,9.419 h 0.376 a 0.072,0.072 0 0 1 0.072,0.072 V 9.847 A 0.069,0.069 0 0 1 11.587,9.916 H 11.21 A 0.072,0.072 0 0 1 11.138,9.844 V 9.488 a 0.069,0.069 0 0 1 0.07,-0.069 z"
         fill="#ffffff"
         id="path33" />
      <path
         d="m 11.208,10.275 h 0.376 a 0.072,0.072 0 0 1 0.072,0.072 V 10.7 a 0.069,0.069 0 0 1 -0.069,0.069 H 11.208 A 0.069,0.069 0 0 1 11.139,10.7 v -0.359 a 0.069,0.069 0 0 1 0.069,-0.066 z"
         fill="#ffffff"
         id="path35" />
      <path
         d="m 11.635,7.4 -2.43,2.43 a 0.29,0.29 0 0 1 -0.41,0 L 6.365,7.4 A 0.13,0.13 0 0 1 6.457,7.179 H 7.951 A 0.129,0.129 0 0 0 8.08,7.05 V 4.014 a 0.1,0.1 0 0 1 0.1,-0.1 h 1.636 a 0.1,0.1 0 0 1 0.1,0.1 v 3.037 a 0.129,0.129 0 0 0 0.129,0.129 h 1.494 a 0.13,0.13 0 0 1 0.096,0.22 z"
         fill="#ffffff"
         id="path37" />
    </g>
  </g>
</svg>
