<?xml version="1.0" encoding="UTF-8" standalone="no"?>
<svg
   xmlns:dc="http://purl.org/dc/elements/1.1/"
   xmlns:cc="http://creativecommons.org/ns#"
   xmlns:rdf="http://www.w3.org/1999/02/22-rdf-syntax-ns#"
   xmlns:svg="http://www.w3.org/2000/svg"
   xmlns="http://www.w3.org/2000/svg"
   xmlns:sodipodi="http://sodipodi.sourceforge.net/DTD/sodipodi-0.dtd"
   xmlns:inkscape="http://www.inkscape.org/namespaces/inkscape"
   width="248.0px"
   height="248.0px"
   viewBox="0 0 248.0 248.0"
   version="1.1"
   id="SVGRoot"
   sodipodi:docname="285364 Dark.svg"
   inkscape:version="1.0.2-2 (e86c870879, 2021-01-15)">
  <defs
     id="defs1402">
    <inkscape:path-effect
       effect="fillet_chamfer"
       id="path-effect2040"
       is_visible="true"
       lpeversion="1"
       satellites_param="F,0,0,1,0,0,0,1 @ F,0,0,1,0,6.0755415,0,1 @ F,0,0,1,0,6.1445293,0,1 @ F,0,0,1,0,0,0,1"
       unit="px"
       method="auto"
       mode="F"
       radius="0"
       chamfer_steps="1"
       flexible="false"
       use_knot_distance="true"
       apply_no_radius="true"
       apply_with_radius="true"
       only_selected="true"
       hide_knots="false" />
    <style
       id="style1979">.cls-1{fill:url(#GreenGradient);}.cls-2{fill:#fff;}</style>
    <linearGradient
       id="GreenGradient"
       x1="-522.53"
       y1="465.47"
       x2="-416.47"
       y2="571.53"
       gradientTransform="rotate(-90,-456.5,24.5)"
       gradientUnits="userSpaceOnUse">
      <stop
         offset="0"
         stop-color="#1b660f"
         id="stop1981" />
      <stop
         offset="1"
         stop-color="#6cae3e"
         id="stop1983" />
    </linearGradient>
    <clipPath
       id="clip1">
      <path
         d="m 93,27 h 58 V 88.851563 H 93 Z m 0,0"
         id="path2" />
    </clipPath>
    <clipPath
       id="clip2">
      <path
         d="m 161,10 h 41 v 78.851563 h -41 z m 0,0"
         id="path5" />
    </clipPath>
    <clipPath
       id="clip3">
      <path
         d="m 206,0 h 65 v 88.851563 h -65 z m 0,0"
         id="path8" />
    </clipPath>
    <clipPath
       id="clip4">
      <path
         d="m 322,26 h 57 v 62.851563 h -57 z m 0,0"
         id="path11" />
    </clipPath>
    <clipPath
       id="clip5">
      <path
         d="m 415,26 h 58.05859 V 87 H 415 Z m 0,0"
         id="path14" />
    </clipPath>
    <clipPath
       id="clip6">
      <path
         d="M 0,3 H 87 V 88.851563 H 0 Z m 0,0"
         id="path17" />
    </clipPath>
  </defs>
  <sodipodi:namedview
     id="base"
     pagecolor="#101010"
     bordercolor="#666666"
     borderopacity="1.0"
     inkscape:pageopacity="0"
     inkscape:pageshadow="2"
     inkscape:zoom="1.056836"
     inkscape:cx="91.64585"
     inkscape:cy="124"
     inkscape:document-units="px"
     inkscape:current-layer="layer2"
     inkscape:document-rotation="0"
     showgrid="true"
     inkscape:window-width="1366"
     inkscape:window-height="705"
     inkscape:window-x="-8"
     inkscape:window-y="-8"
     inkscape:window-maximized="1"
     inkscape:snap-global="false"
     showguides="true">
    <inkscape:grid
       type="xygrid"
       id="grid1972" />
  </sodipodi:namedview>
  <metadata
     id="metadata1405">
    <rdf:RDF>
      <cc:Work
         rdf:about="">
        <dc:format>image/svg+xml</dc:format>
        <dc:type
           rdf:resource="http://purl.org/dc/dcmitype/StillImage" />
        <dc:title />
      </cc:Work>
    </rdf:RDF>
  </metadata>
  <g
     inkscape:groupmode="layer"
     id="layer3"
     inkscape:label="BG" />
  <g
     inkscape:groupmode="layer"
     id="layer4"
     inkscape:label="Bounding Box" />
  <g
     inkscape:groupmode="layer"
     id="layer2"
     inkscape:label="Top">
    <g
       id="g847"
       transform="translate(-0.19315289,-0.04989999)"
       style="fill:#5e5c64">
      <path
         style="fill:#5e5c64;fill-opacity:0.326613;stroke:none;stroke-width:3;stroke-linecap:round;stroke-linejoin:round;stroke-miterlimit:4;stroke-dasharray:none;stroke-opacity:1;paint-order:normal"
         id="path885"
         sodipodi:type="arc"
         sodipodi:cx="154.57903"
         sodipodi:cy="83.172447"
         sodipodi:rx="111.24603"
         sodipodi:ry="111.24603"
         sodipodi:start="5.9893981"
         sodipodi:end="5.9807042"
         sodipodi:open="true"
         sodipodi:arc-type="arc"
         transform="rotate(16.68412)"
         d="M 261.05862,50.957906 A 111.24603,111.24603 0 0 1 187.02492,189.58177 111.24603,111.24603 0 0 1 48.240476,115.84954 111.24603,111.24603 0 0 1 121.67088,-23.094829 111.24603,111.24603 0 0 1 260.77453,50.033412" />
      <path
         style="fill:#5e5c64;fill-opacity:1;stroke:#ffffff;stroke-width:4.5;stroke-linecap:round;stroke-linejoin:round;stroke-miterlimit:4;stroke-dasharray:none;stroke-opacity:1;paint-order:normal"
         id="path883-9"
         sodipodi:type="arc"
         sodipodi:cx="154.57903"
         sodipodi:cy="83.172447"
         sodipodi:rx="111.24604"
         sodipodi:ry="111.24604"
         sodipodi:start="5.9893981"
         sodipodi:end="5.9807042"
         sodipodi:open="true"
         sodipodi:arc-type="arc"
         transform="rotate(16.68412)"
         d="M 261.05862,50.957904 A 111.24604,111.24604 0 0 1 187.02492,189.58178 111.24604,111.24604 0 0 1 48.240468,115.84955 111.24604,111.24604 0 0 1 121.67088,-23.094836 111.24604,111.24604 0 0 1 260.77453,50.03341" />
    </g>
    <g
       id="g72"
       transform="matrix(0.3692297,0,0,0.3692297,36.666359,107.59668)">
      <g
         id="surface1">
        <g
           clip-path="url(#clip1)"
           clip-rule="nonzero"
           id="g24">
          <path
             style="fill:#f0821e;fill-opacity:1;fill-rule:nonzero;stroke:none"
             d="m 93.433594,33.894531 c 0,-2.195312 0.625,-3.785156 1.882812,-4.765625 1.25,-0.980468 3.023438,-1.46875 5.296874,-1.46875 1.41016,0 2.70313,0.175782 3.88281,0.527344 1.17579,0.355469 1.96094,0.609375 2.35157,0.765625 v 30.945313 c 0,5.339843 1.2539,9.402343 3.76562,12.183593 2.51172,2.78125 6.35938,4.179688 11.53516,4.179688 5.17578,0 9.02343,-1.398438 11.53125,-4.179688 2.51172,-2.78125 3.76953,-6.84375 3.76953,-12.183593 V 33.894531 c 0,-2.195312 0.625,-3.785156 1.8789,-4.765625 1.25391,-0.980468 2.98047,-1.46875 5.17969,-1.46875 1.49219,0 2.82422,0.175782 4,0.527344 1.17578,0.355469 1.96485,0.609375 2.35156,0.765625 V 62.84375 c 0,4 -0.68359,7.589844 -2.05468,10.769531 -1.37891,3.175782 -3.33594,5.863282 -5.88282,8.054688 -2.55078,2.203125 -5.59375,3.871094 -9.12109,5.007812 -3.53125,1.132813 -7.41406,1.703125 -11.65234,1.703125 -4.23828,0 -8.1211,-0.570312 -11.65235,-1.703125 -3.53125,-1.136718 -6.55078,-2.804687 -9.05859,-5.007812 C 98.925781,79.476563 96.964844,76.789063 95.550781,73.613281 94.140625,70.433594 93.433594,66.84375 93.433594,62.84375 V 33.894531"
             id="path22" />
        </g>
        <g
           clip-path="url(#clip2)"
           clip-rule="nonzero"
           id="g28">
          <path
             style="fill:#f0821e;fill-opacity:1;fill-rule:nonzero;stroke:none"
             d="m 161.45312,17.183594 c 0,-2.195313 0.625,-3.78125 1.88282,-4.769531 1.2539,-0.976563 2.98047,-1.464844 5.17578,-1.464844 1.41406,0 2.72265,0.171875 3.9414,0.527344 1.21875,0.355468 2.01954,0.609375 2.41407,0.765625 V 27.65625 h 17.0664 c 2.58985,0 4.41016,0.527344 5.46875,1.585938 1.0625,1.066406 1.58594,2.609375 1.58594,4.652343 0,1.335938 -0.19141,2.566407 -0.58594,3.703125 -0.39062,1.140625 -0.70703,1.945313 -0.9375,2.417969 h -22.59765 v 26.242188 c 0,2.039062 0.27343,3.707031 0.82422,5 0.55078,1.292968 1.3125,2.332031 2.29296,3.113281 0.98438,0.789062 2.11719,1.339844 3.41407,1.65625 1.29297,0.308594 2.64843,0.464844 4.05859,0.464844 2.27734,0 4.39453,-0.351563 6.35547,-1.058594 1.96094,-0.703125 3.375,-1.371094 4.23828,-1.996094 l 5.41406,8.941406 c -0.6289,0.472657 -1.51172,1.058594 -2.64843,1.765625 -1.13672,0.707032 -2.53125,1.375 -4.17969,2 -1.64453,0.628907 -3.49219,1.15625 -5.52735,1.589844 -2.04296,0.429688 -4.27734,0.644531 -6.70703,0.644531 -6.90625,0 -12.12109,-1.785156 -15.65234,-5.355468 -3.53516,-3.5625 -5.29688,-8.253907 -5.29688,-14.058594 v -51.78125"
             id="path26" />
        </g>
        <g
           clip-path="url(#clip3)"
           clip-rule="nonzero"
           id="g32">
          <path
             style="fill:#f0821e;fill-opacity:1;fill-rule:nonzero;stroke:none"
             d="m 238.53125,76.261719 c 2.66406,0 5.11719,-0.492188 7.35547,-1.472656 2.23437,-0.980469 4.15234,-2.3125 5.76562,-4 1.60938,-1.691407 2.84375,-3.6875 3.70703,-6.007813 0.86329,-2.308594 1.29297,-4.835937 1.29297,-7.585937 0,-2.746094 -0.42968,-5.300782 -1.29297,-7.652344 -0.86328,-2.351563 -2.09765,-4.371094 -3.70703,-6.058594 -1.61328,-1.683594 -3.53125,-3.015625 -5.76562,-4 -2.23828,-0.980469 -4.69141,-1.472656 -7.35547,-1.472656 -2.74609,0 -5.23438,0.492187 -7.47266,1.472656 -2.23437,0.984375 -4.14062,2.335938 -5.70703,4.058594 -1.57031,1.730469 -2.80469,3.769531 -3.70703,6.117187 -0.90234,2.359375 -1.35547,4.871094 -1.35547,7.535157 0,2.820312 0.45313,5.410156 1.35547,7.765625 0.90234,2.355468 2.15625,4.355468 3.76563,6 1.60937,1.648437 3.52734,2.941406 5.76953,3.882812 2.23047,0.945313 4.68359,1.417969 7.35156,1.417969 M 206.99219,6.242188 c 0,-2.121094 0.6289,-3.691407 1.88281,-4.710938 C 210.12891,0.511719 211.89453,0 214.17187,0 c 1.41407,0 2.70704,0.179688 3.88282,0.53125 1.17578,0.355469 1.95703,0.613281 2.35547,0.765625 v 33.773438 c 1.95703,-2.511719 4.66796,-4.648438 8.11718,-6.410157 3.45313,-1.769531 7.41407,-2.652343 11.88282,-2.652343 4.3164,0 8.30078,0.765625 11.94921,2.296875 3.64844,1.527343 6.82422,3.6875 9.53125,6.472656 2.70704,2.785156 4.82813,6.078125 6.35157,9.882812 1.53515,3.804688 2.29687,7.984375 2.29687,12.535157 0,4.46875 -0.78515,8.632812 -2.35156,12.472656 -1.57031,3.847656 -3.77344,7.140625 -6.58594,9.886719 -2.82812,2.746093 -6.18359,4.902343 -10.0664,6.472656 -3.88282,1.566406 -8.14063,2.351562 -12.76954,2.351562 -4.6289,0 -8.88281,-0.703125 -12.76562,-2.117187 -3.88672,-1.410156 -7.23438,-3.53125 -10.0625,-6.355469 -2.82813,-2.824219 -5.01953,-6.355469 -6.58594,-10.589844 -1.57812,-4.238281 -2.35937,-9.21875 -2.35937,-14.945312 V 6.242188"
             id="path30" />
        </g>
        <path
           style="fill:#f0821e;fill-opacity:1;fill-rule:nonzero;stroke:none"
           d="m 278.42578,48.722656 c 0,-7.214843 2.21484,-12.808593 6.64844,-16.765625 4.42969,-3.964843 10.57031,-5.949218 18.41406,-5.949218 4.94531,0 8.96484,0.691406 12.06641,2.0625 3.09765,1.371093 4.64453,3.46875 4.64453,6.296875 0,1.332031 -0.3711,2.625 -1.11328,3.878906 -0.75,1.257812 -1.35547,2.039062 -1.82422,2.355469 -1.33594,-0.625 -2.98047,-1.214844 -4.94531,-1.761719 -1.96094,-0.550781 -4.19922,-0.828125 -6.71094,-0.828125 -9.17188,0 -13.76172,4.867187 -13.76172,14.59375 v 34.125 H 278.42578 V 48.722656"
           id="path34" />
        <g
           clip-path="url(#clip4)"
           clip-rule="nonzero"
           id="g38">
          <path
             style="fill:#f0821e;fill-opacity:1;fill-rule:nonzero;stroke:none"
             d="m 364.91406,60.371094 c -0.78125,-0.15625 -2.25,-0.394531 -4.41015,-0.703125 -2.16016,-0.3125 -5.39454,-0.476563 -9.70704,-0.476563 -5.33984,0 -9.21875,0.808594 -11.65234,2.417969 -2.42969,1.605469 -3.64844,4.136719 -3.64844,7.585938 0,1.414062 0.25,2.707031 0.76563,3.886718 0.50781,1.179688 1.39062,2.175782 2.64453,3 1.25781,0.824219 2.96094,1.457032 5.12109,1.882813 2.15625,0.429687 4.84766,0.648437 8.06641,0.648437 3.60547,0 6.46875,-0.136718 8.58594,-0.414062 2.11718,-0.273438 3.53125,-0.488281 4.23437,-0.644531 z m 13.29688,26.125 c -0.78516,0.15625 -2.01563,0.332031 -3.70313,0.53125 -1.6875,0.191406 -3.67187,0.390625 -5.9414,0.585937 -2.28125,0.195313 -4.82813,0.375 -7.65235,0.53125 -2.82422,0.152344 -5.76562,0.234375 -8.82031,0.234375 -6.125,0 -11.12109,-0.527343 -15.00781,-1.589843 -3.88282,-1.058594 -6.94532,-2.46875 -9.17969,-4.234375 -2.23047,-1.765625 -3.76172,-3.804688 -4.58984,-6.125 -0.82032,-2.308594 -1.23047,-4.683594 -1.23047,-7.117188 0,-3.214844 0.48828,-6.039062 1.46875,-8.472656 0.97656,-2.429688 2.58984,-4.472656 4.82422,-6.117188 2.23437,-1.648437 5.15625,-2.878906 8.76562,-3.707031 3.60938,-0.824219 8.00391,-1.238281 13.17969,-1.238281 2.97656,0 5.80859,0.101562 8.47265,0.296875 2.66797,0.195312 4.66797,0.375 6,0.53125 0,-2.746094 -0.45312,-5.019531 -1.34765,-6.824219 -0.91016,-1.804687 -2.14063,-3.21875 -3.71094,-4.238281 -1.57031,-1.019531 -3.45312,-1.722656 -5.64844,-2.117188 -2.19531,-0.394531 -4.6289,-0.589843 -7.29297,-0.589843 -4.47265,0 -8.0625,0.511718 -10.77343,1.53125 -2.70313,1.023437 -4.48438,1.882812 -5.35157,2.589843 -0.47265,-0.394531 -1.11718,-1.136718 -1.9414,-2.238281 -0.82422,-1.097656 -1.23438,-2.429687 -1.23438,-4 0,-1.097656 0.29297,-2.179687 0.88282,-3.238281 0.58984,-1.058594 1.625,-2 3.11718,-2.824219 1.49219,-0.820312 3.49219,-1.464844 6,-1.941406 2.51172,-0.46875 5.69141,-0.707031 9.52735,-0.707031 4.63281,0 8.84765,0.457031 12.65625,1.355468 3.80859,0.90625 7.07812,2.335938 9.82422,4.292969 2.75,1.964844 4.88281,4.554688 6.41015,7.769531 1.53516,3.21875 2.29688,7.101563 2.29688,11.648438 v 35.421875"
             id="path36" />
        </g>
        <path
           style="fill:#f0821e;fill-opacity:1;fill-rule:nonzero;stroke:none"
           d="m 390.21484,33.894531 c 0,-2.195312 0.62891,-3.785156 1.88282,-4.765625 1.2539,-0.980468 3.01953,-1.46875 5.29687,-1.46875 1.41016,0 2.70703,0.175782 3.88281,0.527344 1.17188,0.355469 1.96094,0.609375 2.35157,0.765625 v 57.777344 h -13.41407 z m 6.70703,-32.71875 c 2.27735,0 4.19922,0.785157 5.76563,2.359375 1.56641,1.570313 2.35156,3.488282 2.35156,5.761719 0,2.277344 -0.78515,4.199219 -2.35156,5.765625 -1.56641,1.574219 -3.48828,2.355469 -5.76563,2.355469 -2.27343,0 -4.19531,-0.78125 -5.76562,-2.355469 -1.56641,-1.566406 -2.35547,-3.488281 -2.35547,-5.765625 0,-2.273437 0.78906,-4.191406 2.35547,-5.761719 1.57031,-1.574218 3.49219,-2.359375 5.76562,-2.359375"
           id="path40" />
        <g
           clip-path="url(#clip5)"
           clip-rule="nonzero"
           id="g44">
          <path
             style="fill:#f0821e;fill-opacity:1;fill-rule:nonzero;stroke:none"
             d="m 415.63672,51.074219 c 0,-3.917969 0.72265,-7.433594 2.17187,-10.53125 1.44922,-3.097656 3.45313,-5.726563 6.00391,-7.886719 2.55078,-2.15625 5.57031,-3.800781 9.0625,-4.9375 3.48828,-1.136719 7.3125,-1.707031 11.46875,-1.707031 4.16016,0 8.00391,0.570312 11.53516,1.707031 3.53125,1.136719 6.57031,2.78125 9.12109,4.9375 2.54687,2.160156 4.53125,4.789063 5.94141,7.886719 1.41406,3.097656 2.12109,6.613281 2.12109,10.53125 v 35.660156 h -13.41797 v -32.25 c 0,-5.328125 -1.29687,-9.390625 -3.88281,-12.175781 -2.58985,-2.785156 -6.39844,-4.179688 -11.41797,-4.179688 -5.09766,0 -8.92188,1.394532 -11.46875,4.179688 -2.55078,2.785156 -3.82422,6.847656 -3.82422,12.175781 v 32.25 H 415.63672 V 51.074219"
             id="path42" />
        </g>
        <g
           clip-path="url(#clip6)"
           clip-rule="nonzero"
           id="g48">
          <path
             style="fill:#f0821e;fill-opacity:1;fill-rule:nonzero;stroke:none"
             d="m 63.152344,74.875 c -2.542969,2.492188 -5.523438,4.445313 -8.941406,5.863281 -3.421875,1.414063 -7.132813,2.121094 -11.140625,2.121094 -4.007813,0 -7.726563,-0.707031 -11.140625,-2.121094 -3.421875,-1.417968 -6.402344,-3.371093 -8.949219,-5.863281 -2.539063,-2.488281 -4.535156,-5.429687 -5.972656,-8.828125 -1.390625,-3.277344 -2.101563,-6.820312 -2.152344,-10.625 h 6.757812 c 0.07031,1.167969 0.324219,2.265625 0.761719,3.292969 0.523438,1.238281 1.242188,2.304687 2.167969,3.207031 0.921875,0.90625 2.007812,1.617188 3.246094,2.125 1.238281,0.519531 2.589843,0.777344 4.046875,0.777344 1.457031,0 2.800781,-0.257813 4.042968,-0.777344 1.242188,-0.507812 2.328125,-1.21875 3.25,-2.125 0.925782,-0.902344 1.648438,-1.96875 2.164063,-3.207031 0.351562,-0.8125 0.578125,-1.675781 0.695312,-2.578125 h 2.164063 c 0.117187,0.902344 0.34375,1.765625 0.691406,2.578125 0.523438,1.238281 1.246094,2.304687 2.167969,3.207031 0.921875,0.90625 2.007812,1.617188 3.25,2.125 1.242187,0.519531 2.589844,0.777344 4.039062,0.777344 1.460938,0 2.804688,-0.257813 4.046875,-0.777344 1.242188,-0.507812 2.328125,-1.21875 3.25,-2.125 0.921875,-0.902344 1.648438,-1.96875 2.171875,-3.207031 0.433594,-1.027344 0.683594,-2.125 0.757813,-3.292969 h 6.75 c -0.04297,3.804688 -0.757813,7.347656 -2.148438,10.625 -1.4375,3.398438 -3.429687,6.339844 -5.976562,8.828125 M 37.917969,54.714844 c 0,0.855469 -0.152344,1.648437 -0.460938,2.378906 -0.3125,0.726563 -0.742187,1.363281 -1.289062,1.902344 -0.554688,0.535156 -1.195313,0.960937 -1.929688,1.261719 -0.738281,0.304687 -1.539062,0.457031 -2.402343,0.457031 -0.867188,0 -1.667969,-0.152344 -2.40625,-0.457031 C 28.695313,59.957031 28.050781,59.53125 27.5,58.996094 26.953125,58.457031 26.523438,57.820313 26.214844,57.09375 25.90625,56.363281 25.75,55.570313 25.75,54.714844 c 0,-0.851563 0.15625,-1.648438 0.464844,-2.378906 0.308594,-0.730469 0.738281,-1.363282 1.285156,-1.90625 0.550781,-0.53125 1.195313,-0.957032 1.929688,-1.257813 0.738281,-0.308594 1.539062,-0.460937 2.40625,-0.460937 0.863281,0 1.664062,0.152343 2.402343,0.460937 0.734375,0.300781 1.375,0.726563 1.929688,1.257813 0.546875,0.542968 0.976562,1.175781 1.289062,1.90625 0.308594,0.730468 0.460938,1.527343 0.460938,2.378906 m 22.472656,0 c 0,0.855469 -0.15625,1.648437 -0.46875,2.378906 -0.304687,0.726563 -0.734375,1.363281 -1.285156,1.902344 -0.546875,0.535156 -1.195313,0.960937 -1.929688,1.261719 -0.738281,0.304687 -1.539062,0.457031 -2.40625,0.457031 -0.859375,0 -1.660156,-0.152344 -2.398437,-0.457031 C 51.164063,59.957031 50.519531,59.53125 49.972656,58.996094 49.421875,58.457031 48.992188,57.820313 48.683594,57.09375 48.375,56.363281 48.21875,55.570313 48.21875,54.714844 c 0,-0.851563 0.15625,-1.648438 0.464844,-2.378906 0.308594,-0.730469 0.738281,-1.363282 1.289062,-1.90625 0.546875,-0.53125 1.191407,-0.957032 1.929688,-1.257813 0.738281,-0.308594 1.539062,-0.460937 2.398437,-0.460937 0.867188,0 1.667969,0.152343 2.40625,0.460937 0.734375,0.300781 1.382813,0.726563 1.929688,1.257813 0.550781,0.542968 0.980469,1.175781 1.285156,1.90625 0.3125,0.730468 0.46875,1.527343 0.46875,2.378906 M 17.363281,43.257813 C 22.164063,41.671875 28.53125,39.65625 28.53125,39.65625 c 14.003906,-4.457031 15.878906,-9.722656 15.878906,-9.722656 0,0 2.945313,5.265625 13.117188,8.746094 0,0 5.617187,1.84375 10.839844,3.730468 0.257812,0.519532 0.53125,1.035157 0.761718,1.585938 0.917969,2.164062 1.542969,4.449219 1.871094,6.84375 h -7.183594 c -0.01563,-0.04297 -0.03125,-0.08594 -0.04687,-0.128906 -0.523437,-1.234375 -1.25,-2.300782 -2.171875,-3.203125 -0.921875,-0.910157 -2.007812,-1.617188 -3.25,-2.132813 -1.242187,-0.511719 -2.585937,-0.765625 -4.046875,-0.765625 -1.449218,0 -2.796875,0.253906 -4.039062,0.765625 -1.242188,0.515625 -2.328125,1.222656 -3.25,2.132813 -0.921875,0.902343 -1.644531,1.96875 -2.167969,3.203125 -0.167969,0.390625 -0.304687,0.785156 -0.414062,1.195312 h -2.71875 c -0.113282,-0.410156 -0.25,-0.804687 -0.417969,-1.195312 -0.515625,-1.234375 -1.238281,-2.300782 -2.164063,-3.203125 -0.921875,-0.910157 -2.007812,-1.617188 -3.25,-2.132813 -1.242187,-0.511719 -2.585937,-0.765625 -4.042968,-0.765625 -1.457032,0 -2.808594,0.253906 -4.046875,0.765625 -1.238282,0.515625 -2.324219,1.222656 -3.246094,2.132813 -0.925781,0.902343 -1.644531,1.96875 -2.167969,3.203125 -0.01953,0.04297 -0.03516,0.08594 -0.05078,0.128906 h -7.1875 c 0.332031,-2.394531 0.953125,-4.679688 1.871094,-6.84375 0.109375,-0.253906 0.242187,-0.488281 0.355468,-0.738281 M 82.84375,29.539063 C 80.644531,24.363281 77.609375,19.871094 73.722656,16.066406 69.839844,12.257813 65.292969,9.28125 60.074219,7.125 54.855469,4.964844 49.191406,3.886719 43.070313,3.886719 36.953125,3.886719 31.285156,4.964844 26.0625,7.125 20.847656,9.28125 16.292969,12.257813 12.414063,16.066406 8.53125,19.871094 5.488281,24.363281 3.292969,29.539063 1.097656,34.71875 0,40.332031 0,46.371094 c 0,6.039062 1.097656,11.648437 3.292969,16.828125 2.195312,5.175781 5.238281,9.667969 9.121094,13.472656 3.878906,3.804688 8.433593,6.785156 13.648437,8.945313 5.222656,2.15625 10.890625,3.234375 17.007813,3.234375 6.121093,0 11.785156,-1.078125 17.003906,-3.234375 5.21875,-2.160157 9.765625,-5.140625 13.648437,-8.945313 3.886719,-3.804687 6.921875,-8.296875 9.121094,-13.472656 2.195313,-5.179688 3.296875,-10.789063 3.296875,-16.828125 0,-6.039063 -1.101562,-11.652344 -3.296875,-16.832031"
             id="path46" />
        </g>
      </g>
    </g>
  </g>
</svg>
