<?xml version="1.0" encoding="UTF-8" standalone="no"?>
<svg
   xmlns:dc="http://purl.org/dc/elements/1.1/"
   xmlns:cc="http://creativecommons.org/ns#"
   xmlns:rdf="http://www.w3.org/1999/02/22-rdf-syntax-ns#"
   xmlns:svg="http://www.w3.org/2000/svg"
   xmlns="http://www.w3.org/2000/svg"
   xmlns:sodipodi="http://sodipodi.sourceforge.net/DTD/sodipodi-0.dtd"
   xmlns:inkscape="http://www.inkscape.org/namespaces/inkscape"
   width="248.0px"
   height="248.0px"
   viewBox="0 0 248.0 248.0"
   version="1.1"
   id="SVGRoot"
   sodipodi:docname="522px-ExpressVPN-logo White.svg"
   inkscape:version="1.0.2-2 (e86c870879, 2021-01-15)">
  <defs
     id="defs1402">
    <inkscape:path-effect
       effect="fillet_chamfer"
       id="path-effect2040"
       is_visible="true"
       lpeversion="1"
       satellites_param="F,0,0,1,0,0,0,1 @ F,0,0,1,0,6.0755415,0,1 @ F,0,0,1,0,6.1445293,0,1 @ F,0,0,1,0,0,0,1"
       unit="px"
       method="auto"
       mode="F"
       radius="0"
       chamfer_steps="1"
       flexible="false"
       use_knot_distance="true"
       apply_no_radius="true"
       apply_with_radius="true"
       only_selected="true"
       hide_knots="false" />
    <style
       id="style1979">.cls-1{fill:url(#GreenGradient);}.cls-2{fill:#fff;}</style>
    <linearGradient
       id="GreenGradient"
       x1="-522.53"
       y1="465.47"
       x2="-416.47"
       y2="571.53"
       gradientTransform="rotate(-90,-456.5,24.5)"
       gradientUnits="userSpaceOnUse">
      <stop
         offset="0"
         stop-color="#1b660f"
         id="stop1981" />
      <stop
         offset="1"
         stop-color="#6cae3e"
         id="stop1983" />
    </linearGradient>
    <linearGradient
       id="OrangeGradient"
       x1="1131.1"
       y1="-516.47998"
       x2="1131.1"
       y2="-366.48001"
       gradientTransform="rotate(-135,816.69218,-8.7994369)"
       gradientUnits="userSpaceOnUse">
      <stop
         offset="0"
         stop-color="#c8511b"
         id="stop138" />
      <stop
         offset="1"
         stop-color="#f90"
         id="stop140" />
    </linearGradient>
  </defs>
  <sodipodi:namedview
     id="base"
     pagecolor="#ffffff"
     bordercolor="#666666"
     borderopacity="1.0"
     inkscape:pageopacity="0"
     inkscape:pageshadow="2"
     inkscape:zoom="1.4969945"
     inkscape:cx="124"
     inkscape:cy="124"
     inkscape:document-units="px"
     inkscape:current-layer="layer2"
     inkscape:document-rotation="0"
     showgrid="true"
     inkscape:window-width="1366"
     inkscape:window-height="705"
     inkscape:window-x="-8"
     inkscape:window-y="-8"
     inkscape:window-maximized="1"
     inkscape:snap-global="false"
     showguides="true">
    <inkscape:grid
       type="xygrid"
       id="grid1972" />
  </sodipodi:namedview>
  <metadata
     id="metadata1405">
    <rdf:RDF>
      <cc:Work
         rdf:about="">
        <dc:format>image/svg+xml</dc:format>
        <dc:type
           rdf:resource="http://purl.org/dc/dcmitype/StillImage" />
        <dc:title />
      </cc:Work>
    </rdf:RDF>
  </metadata>
  <g
     inkscape:groupmode="layer"
     id="layer3"
     inkscape:label="BG" />
  <g
     inkscape:groupmode="layer"
     id="layer4"
     inkscape:label="Bounding Box" />
  <g
     inkscape:groupmode="layer"
     id="layer2"
     inkscape:label="Top">
    <g
       id="g858"
       transform="translate(-0.19315289,-0.04989999)">
      <path
         style="fill:none;fill-opacity:1;stroke:#000000;stroke-width:4.5;stroke-linecap:round;stroke-linejoin:round;stroke-miterlimit:4;stroke-dasharray:none;stroke-opacity:1;paint-order:normal"
         id="path883"
         sodipodi:type="arc"
         sodipodi:cx="154.57903"
         sodipodi:cy="83.172447"
         sodipodi:rx="111.24604"
         sodipodi:ry="111.24604"
         sodipodi:start="5.9893981"
         sodipodi:end="5.9807042"
         sodipodi:open="true"
         sodipodi:arc-type="arc"
         transform="rotate(16.68412)"
         d="M 261.05862,50.957904 A 111.24604,111.24604 0 0 1 187.02492,189.58178 111.24604,111.24604 0 0 1 48.240468,115.84955 111.24604,111.24604 0 0 1 121.67088,-23.094836 111.24604,111.24604 0 0 1 260.77453,50.03341" />
      <path
         style="fill:#3d3846;fill-opacity:0.326613;stroke:none;stroke-width:4.45107;stroke-linecap:round;stroke-linejoin:round;stroke-miterlimit:4;stroke-dasharray:none;stroke-opacity:1;paint-order:normal"
         id="path885"
         sodipodi:type="arc"
         sodipodi:cx="154.57903"
         sodipodi:cy="83.172447"
         sodipodi:rx="110.03654"
         sodipodi:ry="110.03654"
         sodipodi:start="5.9893981"
         sodipodi:end="5.9807042"
         sodipodi:open="true"
         sodipodi:arc-type="arc"
         transform="rotate(16.68412)"
         d="M 259.90094,51.308151 A 110.03654,110.03654 0 0 1 186.67216,188.42486 110.03654,110.03654 0 0 1 49.396616,115.49427 110.03654,110.03654 0 0 1 122.02867,-21.939463 110.03654,110.03654 0 0 1 259.61994,50.393709" />
    </g>
    <path
       style="fill:#da3d43;stroke:none;stroke-width:0.347956"
       d="m 44.318105,116.61367 h 10.786633 12.87437 c 0.69243,0.001 4.32718,0.0859 3.14169,1.68985 -1.3445,1.81946 -8.03395,0.74584 -10.10081,0.74584 H 44.318105 c -1.666256,0 -4.973159,-0.63112 -6.389409,0.35763 -1.963345,1.3707 -3.98857,7.09263 -4.397223,9.38514 h 4.523426 c -0.448863,1.89409 -1.344919,3.58634 -1.386465,5.56729 -0.173741,8.28901 9.665971,6.95912 15.304701,6.95912 4.019343,0 10.395253,1.22515 12.634873,-3.13672 1.30842,-2.54829 0.20042,-5.54603 -2.54415,-6.48631 -4.26918,-1.46257 -10.143056,-0.46769 -14.61415,-0.46769 -0.829422,0 -7.180487,0.37381 -5.577489,-1.87938 1.089833,-1.53195 7.635579,-0.55631 9.405004,-0.55631 8.862855,0 22.390615,1.89169 24.872585,-9.74277 2.00109,-9.37951 -6.55306,-12.52641 -14.08595,-12.52641 -8.161586,0 -15.978937,0.179 -17.745753,10.09072 m 44.190393,0 c 2.36993,3.29163 2.36993,11.32252 0,14.61415 4.65113,0 10.68816,1.76935 12.178462,-3.47956 l -7.655032,2.43569 v -5.91525 c 1.95029,0.0837 4.78231,1.22679 5.21934,-1.39182 l -5.21934,0.34795 v -5.56729 c 2.69248,3.1e-4 4.6553,0.0423 6.26321,2.43569 L 100.339,116.61367 H 88.508498 m 80.725772,0 c 2.27111,4.06284 3.82995,8.19443 5.63967,12.52481 0.55081,1.31862 1.64131,2.65654 3.26174,1.8791 1.28639,-0.61713 1.70289,-3.08647 2.11731,-4.31319 1.21506,-3.59602 2.31738,-7.08448 4.63929,-10.09072 h -4.87138 c 2.17716,3.06473 -0.64824,8.93092 -2.08773,12.17846 -1.42836,-3.68308 -4.67375,-8.44785 -2.78365,-12.17846 h -5.91525 m 16.70188,0 c 2.36993,3.29163 2.36993,11.32252 0,14.61415 h 6.26321 v -0.34796 c -1.61974,-1.33458 -1.73839,-2.50925 -1.73978,-4.52342 3.70677,-0.15916 12.73588,-4.54184 6.57462,-8.69702 -2.87759,-1.94059 -7.80291,-1.04575 -11.09805,-1.04575 m 13.22232,0 c 2.84246,3.6954 2.47815,10.61634 0.34796,14.61415 h 4.52343 c -2.53834,-3.30015 -1.73978,-7.44588 -1.73978,-11.48255 h 0.34795 c 1.54702,3.67811 6.17518,11.43216 10.43868,11.48255 0,-4.83784 -0.89981,-10.31307 1.39182,-14.61415 h -4.52342 c 2.44056,3.17311 1.73978,6.90616 1.73978,10.78663 l -8.06701,-10.429 -4.45941,-0.35763 m -8.69889,8.35094 v -3.82751 c 0.004,-8.14248 9.61541,0.65426 2.7819,3.47632 -0.88728,0.36643 -1.84138,0.34277 -2.7819,0.35119 m -75.15847,-4.87138 c 2.19803,4.6663 2.19803,11.33967 0,16.00597 h 5.91525 l -1.73978,-5.21934 c 1.02334,0.38321 2.02058,0.69146 3.1316,0.5775 9.04511,-0.92754 5.3533,-16.29052 -3.1316,-10.32026 l -0.34796,-1.73978 -3.82751,0.69591 m 13.91823,0 c 1.78154,3.7819 2.01049,7.36122 0,11.13459 h 5.91525 c -2.40716,-3.12973 -3.34525,-10.10349 2.43569,-9.04685 l 0.69592,-2.4357 c -2.07904,0.006 -3.29097,0.33554 -4.87139,1.73978 l -0.34795,-2.08773 -3.82752,0.69591 m 19.48553,8.35094 c -3.73113,1.01809 -6.17865,1.0929 -7.65503,-3.1316 h 3.82752 c 0.9781,0 2.79826,0.33 3.60378,-0.35763 1.29091,-1.10156 -0.58318,-3.92654 -1.55258,-4.60478 -2.21996,-1.55345 -5.74615,-0.86001 -7.39267,1.19933 -0.61484,0.76906 -0.98646,1.75645 -1.15522,2.71921 -0.19624,1.11753 -0.17572,2.3922 0.16528,3.47956 1.42592,4.54604 8.35616,5.23987 10.15892,0.69591 m -46.97404,-8.6989 3.8985,5.91525 -3.8985,5.5673 h 4.52342 l -1.39182,-1.04387 2.43569,-3.47956 2.08774,3.47956 -1.04387,1.04387 h 5.56729 l -3.9399,-5.91525 3.9399,-5.5673 h -4.52342 l 1.39182,1.39183 v 0.34795 l -2.08773,2.78365 h -0.34796 c -1.00281,-1.76368 -1.77388,-2.5239 -1.04387,-4.52343 h -5.56729 m 50.10564,8.35095 h -1.04386 l -0.69591,2.43569 c 2.78364,0.88426 10.97452,1.80112 8.78832,-3.82216 -0.94992,-2.44342 -4.16051,-1.92353 -5.34704,-3.94965 -1.14756,-1.95962 1.84347,-1.80495 2.81322,-1.21596 0.59918,0.36375 1.11033,0.69469 1.74848,0.98478 1.5404,-3.89328 -5.46882,-3.47236 -7.04889,-1.31746 -3.19667,4.35995 4.38564,4.66205 5.13618,7.26357 0.88763,3.07691 -3.62292,0.59786 -4.3505,-0.37881 m 9.39481,0 -0.69591,2.43569 c 2.66987,0.84814 11.53787,1.40661 8.53849,-4.13897 -1.05918,-1.95865 -4.6807,-1.81157 -5.28649,-3.8938 -0.83231,-2.86048 3.38248,-0.5679 4.05508,0.0298 h 0.34795 l 1.04387,-2.08773 c -2.58288,-0.81878 -10.42754,-1.22745 -8.13799,3.81356 0.96523,2.12549 3.49034,2.00617 4.88912,3.58881 0.87859,0.99415 0.37197,2.47293 -1.07588,2.28886 -1.32953,-0.16911 -2.47883,-1.48765 -3.67824,-2.0362 m -15.31006,-4.17548 -4.87138,0.34796 c 0.34831,-3.83872 4.41069,-4.48278 4.87138,-0.34796 m -24.35552,-2.28453 c 4.24994,-0.35127 5.34356,7.93064 1.04109,8.45296 -4.08953,0.4965 -4.59128,-8.15953 -1.04109,-8.45296 z"
       id="path32" />
  </g>
</svg>
