<?xml version="1.0" encoding="UTF-8" standalone="no"?>
<svg
   xmlns:dc="http://purl.org/dc/elements/1.1/"
   xmlns:cc="http://creativecommons.org/ns#"
   xmlns:rdf="http://www.w3.org/1999/02/22-rdf-syntax-ns#"
   xmlns:svg="http://www.w3.org/2000/svg"
   xmlns="http://www.w3.org/2000/svg"
   xmlns:sodipodi="http://sodipodi.sourceforge.net/DTD/sodipodi-0.dtd"
   xmlns:inkscape="http://www.inkscape.org/namespaces/inkscape"
   width="248.0px"
   height="248.0px"
   viewBox="0 0 248.0 248.0"
   version="1.1"
   id="SVGRoot"
   sodipodi:docname="Amazon-Cloud-Directory White.svg"
   inkscape:version="1.0.2-2 (e86c870879, 2021-01-15)">
  <defs
     id="defs1402">
    <inkscape:path-effect
       effect="fillet_chamfer"
       id="path-effect2040"
       is_visible="true"
       lpeversion="1"
       satellites_param="F,0,0,1,0,0,0,1 @ F,0,0,1,0,6.0755415,0,1 @ F,0,0,1,0,6.1445293,0,1 @ F,0,0,1,0,0,0,1"
       unit="px"
       method="auto"
       mode="F"
       radius="0"
       chamfer_steps="1"
       flexible="false"
       use_knot_distance="true"
       apply_no_radius="true"
       apply_with_radius="true"
       only_selected="true"
       hide_knots="false" />
    <style
       id="style1979">.cls-1{fill:url(#GreenGradient);}.cls-2{fill:#fff;}</style>
    <linearGradient
       id="GreenGradient"
       x1="-522.53"
       y1="465.47"
       x2="-416.47"
       y2="571.53"
       gradientTransform="rotate(-90,-456.5,24.5)"
       gradientUnits="userSpaceOnUse">
      <stop
         offset="0"
         stop-color="#1b660f"
         id="stop1981" />
      <stop
         offset="1"
         stop-color="#6cae3e"
         id="stop1983" />
    </linearGradient>
    <linearGradient
       id="OrangeGradient"
       x1="1131.1"
       y1="-516.47998"
       x2="1131.1"
       y2="-366.48001"
       gradientTransform="rotate(-135,816.69218,-8.7994369)"
       gradientUnits="userSpaceOnUse">
      <stop
         offset="0"
         stop-color="#c8511b"
         id="stop138" />
      <stop
         offset="1"
         stop-color="#f90"
         id="stop140" />
    </linearGradient>
  </defs>
  <sodipodi:namedview
     id="base"
     pagecolor="#ffffff"
     bordercolor="#666666"
     borderopacity="1.0"
     inkscape:pageopacity="0"
     inkscape:pageshadow="2"
     inkscape:zoom="1.7379032"
     inkscape:cx="124"
     inkscape:cy="124"
     inkscape:document-units="px"
     inkscape:current-layer="layer2"
     inkscape:document-rotation="0"
     showgrid="true"
     inkscape:window-width="1366"
     inkscape:window-height="705"
     inkscape:window-x="-8"
     inkscape:window-y="-8"
     inkscape:window-maximized="1"
     inkscape:snap-global="false"
     showguides="true">
    <inkscape:grid
       type="xygrid"
       id="grid1972" />
  </sodipodi:namedview>
  <metadata
     id="metadata1405">
    <rdf:RDF>
      <cc:Work
         rdf:about="">
        <dc:format>image/svg+xml</dc:format>
        <dc:type
           rdf:resource="http://purl.org/dc/dcmitype/StillImage" />
        <dc:title />
      </cc:Work>
    </rdf:RDF>
  </metadata>
  <g
     inkscape:groupmode="layer"
     id="layer3"
     inkscape:label="BG" />
  <g
     inkscape:groupmode="layer"
     id="layer4"
     inkscape:label="Bounding Box" />
  <g
     inkscape:groupmode="layer"
     id="layer2"
     inkscape:label="Top">
    <g
       id="g858"
       transform="translate(-0.19315289,-0.04989999)">
      <path
         style="fill:none;fill-opacity:1;stroke:#000000;stroke-width:4.5;stroke-linecap:round;stroke-linejoin:round;stroke-miterlimit:4;stroke-dasharray:none;stroke-opacity:1;paint-order:normal"
         id="path883"
         sodipodi:type="arc"
         sodipodi:cx="154.57903"
         sodipodi:cy="83.172447"
         sodipodi:rx="111.24604"
         sodipodi:ry="111.24604"
         sodipodi:start="5.9893981"
         sodipodi:end="5.9807042"
         sodipodi:open="true"
         sodipodi:arc-type="arc"
         transform="rotate(16.68412)"
         d="M 261.05862,50.957904 A 111.24604,111.24604 0 0 1 187.02492,189.58178 111.24604,111.24604 0 0 1 48.240468,115.84955 111.24604,111.24604 0 0 1 121.67088,-23.094836 111.24604,111.24604 0 0 1 260.77453,50.03341" />
      <path
         style="fill:#3d3846;fill-opacity:0.326613;stroke:none;stroke-width:4.45107;stroke-linecap:round;stroke-linejoin:round;stroke-miterlimit:4;stroke-dasharray:none;stroke-opacity:1;paint-order:normal"
         id="path885"
         sodipodi:type="arc"
         sodipodi:cx="154.57903"
         sodipodi:cy="83.172447"
         sodipodi:rx="110.03654"
         sodipodi:ry="110.03654"
         sodipodi:start="5.9893981"
         sodipodi:end="5.9807042"
         sodipodi:open="true"
         sodipodi:arc-type="arc"
         transform="rotate(16.68412)"
         d="M 259.90094,51.308151 A 110.03654,110.03654 0 0 1 186.67216,188.42486 110.03654,110.03654 0 0 1 49.396616,115.49427 110.03654,110.03654 0 0 1 122.02867,-21.939463 110.03654,110.03654 0 0 1 259.61994,50.393709" />
    </g>
    <path
       style="fill:#ffffff;stroke:#000000;stroke-width:1px;stroke-linecap:butt;stroke-linejoin:miter;stroke-opacity:1"
       d="m 84.662745,69.120792 c 0,0 -4.907985,4.089988 -3.27199,10.633968 1.635995,6.54398 -0.817997,8.997973 -0.817997,8.997973 l 0.817997,85.480747 5.316984,8.17997 34.355901,7.36198 26.58492,-2.45399 18.40494,-8.99798 1.636,-11.04296 V 74.846775 c 0,0 -6.95298,-17.177949 -41.71788,-15.541953 -34.764894,1.635995 -41.308875,9.81597 -41.308875,9.81597 z"
       id="path44" />
    <g
       id="Icon_Test"
       data-name="Icon Test"
       transform="matrix(2.7130555,0,0,2.7130555,22.223407,22.260419)"
       style="stroke:none;fill:#000000">
      <path
         class="cls-2"
         d="M 47.49,48.72 V 45.5 a 1,1 0 0 0 -1,-1 h -8 v -3.27 a 6,6 0 1 0 -2,0 v 3.27 h -8 a 1,1 0 0 0 -1,1 v 3.22 a 3.52,3.52 0 1 0 2,0 V 46.5 h 7 v 2.22 a 3.51,3.51 0 1 0 2,0 V 46.5 h 7 v 2.22 a 3.52,3.52 0 1 0 2,0 z M 30,52.07 a 1.5,1.5 0 1 1 -1.5,-1.5 1.5,1.5 0 0 1 1.5,1.5 z m 9,0 a 1.5,1.5 0 1 1 -1.5,-1.5 1.5,1.5 0 0 1 1.5,1.5 z M 37.5,39.32 a 4,4 0 1 1 4,-4 4,4 0 0 1 -3.99,4 z m 9,14.25 a 1.5,1.5 0 1 1 1.5,-1.5 1.5,1.5 0 0 1 -1.49,1.5 z"
         id="path14"
         style="stroke:none;fill:#000000" />
      <path
         class="cls-2"
         d="m 52.51,19.32 a 0.18,0.18 0 0 1 0,0.1 z"
         id="path16"
         style="stroke:none;fill:#000000" />
      <path
         class="cls-2"
         d="m 37.51,12.5 c -8.24,0 -17,2.39 -17,6.82 v 0 36.36 c 0,4.43 8.77,6.82 17,6.82 8.23,0 17,-2.39 17,-6.82 V 19.46 a 0.34,0.34 0 0 0 0,-0.14 c 0,-4.43 -8.77,-6.82 -17,-6.82 z m 15,43.18 c 0,2 -5.71,4.82 -15,4.82 -9.29,0 -15,-2.8 -15,-4.82 v -33 c 3.05,2.28 9.16,3.48 15,3.48 5.84,0 11.92,-1.2 15,-3.47 z m 0,-36.26 c -0.17,2 -5.84,4.71 -15,4.71 -9.3,0 -15,-2.8 -15,-4.81 0,-2.01 5.7,-4.82 15,-4.82 9.3,0 15,2.8 15,4.82 a 0.18,0.18 0 0 1 -0.02,0.1 z"
         id="path18"
         style="stroke:none;fill:#000000" />
    </g>
  </g>
</svg>
