<?xml version="1.0" encoding="UTF-8" standalone="no"?>
<svg
   xmlns:dc="http://purl.org/dc/elements/1.1/"
   xmlns:cc="http://creativecommons.org/ns#"
   xmlns:rdf="http://www.w3.org/1999/02/22-rdf-syntax-ns#"
   xmlns:svg="http://www.w3.org/2000/svg"
   xmlns="http://www.w3.org/2000/svg"
   xmlns:sodipodi="http://sodipodi.sourceforge.net/DTD/sodipodi-0.dtd"
   xmlns:inkscape="http://www.inkscape.org/namespaces/inkscape"
   width="248.0px"
   height="248.0px"
   viewBox="0 0 248.0 248.0"
   version="1.1"
   id="SVGRoot"
   sodipodi:docname="Amazon_Alexa-Vertical-Logo.wine Dark.svg"
   inkscape:version="1.0.2-2 (e86c870879, 2021-01-15)">
  <defs
     id="defs1402">
    <inkscape:path-effect
       effect="fillet_chamfer"
       id="path-effect2040"
       is_visible="true"
       lpeversion="1"
       satellites_param="F,0,0,1,0,0,0,1 @ F,0,0,1,0,6.0755415,0,1 @ F,0,0,1,0,6.1445293,0,1 @ F,0,0,1,0,0,0,1"
       unit="px"
       method="auto"
       mode="F"
       radius="0"
       chamfer_steps="1"
       flexible="false"
       use_knot_distance="true"
       apply_no_radius="true"
       apply_with_radius="true"
       only_selected="true"
       hide_knots="false" />
    <style
       id="style1979">.cls-1{fill:url(#GreenGradient);}.cls-2{fill:#fff;}</style>
    <linearGradient
       id="GreenGradient"
       x1="-522.53"
       y1="465.47"
       x2="-416.47"
       y2="571.53"
       gradientTransform="rotate(-90,-456.5,24.5)"
       gradientUnits="userSpaceOnUse">
      <stop
         offset="0"
         stop-color="#1b660f"
         id="stop1981" />
      <stop
         offset="1"
         stop-color="#6cae3e"
         id="stop1983" />
    </linearGradient>
    <clipPath
       id="clip1">
      <path
         d="m 93,27 h 58 V 88.851563 H 93 Z m 0,0"
         id="path2" />
    </clipPath>
    <clipPath
       id="clip2">
      <path
         d="m 161,10 h 41 v 78.851563 h -41 z m 0,0"
         id="path5" />
    </clipPath>
    <clipPath
       id="clip3">
      <path
         d="m 206,0 h 65 v 88.851563 h -65 z m 0,0"
         id="path8" />
    </clipPath>
    <clipPath
       id="clip4">
      <path
         d="m 322,26 h 57 v 62.851563 h -57 z m 0,0"
         id="path11" />
    </clipPath>
    <clipPath
       id="clip5">
      <path
         d="m 415,26 h 58.05859 V 87 H 415 Z m 0,0"
         id="path14" />
    </clipPath>
    <clipPath
       id="clip6">
      <path
         d="M 0,3 H 87 V 88.851563 H 0 Z m 0,0"
         id="path17" />
    </clipPath>
  </defs>
  <sodipodi:namedview
     id="base"
     pagecolor="#101010"
     bordercolor="#666666"
     borderopacity="1.0"
     inkscape:pageopacity="0"
     inkscape:pageshadow="2"
     inkscape:zoom="0.91033698"
     inkscape:cx="91.64585"
     inkscape:cy="124"
     inkscape:document-units="px"
     inkscape:current-layer="layer2"
     inkscape:document-rotation="0"
     showgrid="true"
     inkscape:window-width="1366"
     inkscape:window-height="705"
     inkscape:window-x="-8"
     inkscape:window-y="-8"
     inkscape:window-maximized="1"
     inkscape:snap-global="false"
     showguides="true">
    <inkscape:grid
       type="xygrid"
       id="grid1972" />
  </sodipodi:namedview>
  <metadata
     id="metadata1405">
    <rdf:RDF>
      <cc:Work
         rdf:about="">
        <dc:format>image/svg+xml</dc:format>
        <dc:type
           rdf:resource="http://purl.org/dc/dcmitype/StillImage" />
        <dc:title />
      </cc:Work>
    </rdf:RDF>
  </metadata>
  <g
     inkscape:groupmode="layer"
     id="layer3"
     inkscape:label="BG" />
  <g
     inkscape:groupmode="layer"
     id="layer4"
     inkscape:label="Bounding Box" />
  <g
     inkscape:groupmode="layer"
     id="layer2"
     inkscape:label="Top">
    <g
       id="g847"
       transform="translate(-0.19315289,-0.04989999)"
       style="fill:#5e5c64">
      <path
         style="fill:#5e5c64;fill-opacity:0.326613;stroke:none;stroke-width:3;stroke-linecap:round;stroke-linejoin:round;stroke-miterlimit:4;stroke-dasharray:none;stroke-opacity:1;paint-order:normal"
         id="path885"
         sodipodi:type="arc"
         sodipodi:cx="154.57903"
         sodipodi:cy="83.172447"
         sodipodi:rx="111.24603"
         sodipodi:ry="111.24603"
         sodipodi:start="5.9893981"
         sodipodi:end="5.9807042"
         sodipodi:open="true"
         sodipodi:arc-type="arc"
         transform="rotate(16.68412)"
         d="M 261.05862,50.957906 A 111.24603,111.24603 0 0 1 187.02492,189.58177 111.24603,111.24603 0 0 1 48.240476,115.84954 111.24603,111.24603 0 0 1 121.67088,-23.094829 111.24603,111.24603 0 0 1 260.77453,50.033412" />
      <path
         style="fill:#5e5c64;fill-opacity:1;stroke:#ffffff;stroke-width:4.5;stroke-linecap:round;stroke-linejoin:round;stroke-miterlimit:4;stroke-dasharray:none;stroke-opacity:1;paint-order:normal"
         id="path883-9"
         sodipodi:type="arc"
         sodipodi:cx="154.57903"
         sodipodi:cy="83.172447"
         sodipodi:rx="111.24604"
         sodipodi:ry="111.24604"
         sodipodi:start="5.9893981"
         sodipodi:end="5.9807042"
         sodipodi:open="true"
         sodipodi:arc-type="arc"
         transform="rotate(16.68412)"
         d="M 261.05862,50.957904 A 111.24604,111.24604 0 0 1 187.02492,189.58178 111.24604,111.24604 0 0 1 48.240468,115.84955 111.24604,111.24604 0 0 1 121.67088,-23.094836 111.24604,111.24604 0 0 1 260.77453,50.03341" />
    </g>
    <path
       fill="#3f3b3c"
       d="m 48.179238,154.65497 c -2.695755,0 -4.043498,1.05464 -4.043498,3.16284 0,1.83553 0.953262,2.75303 2.859248,2.75303 0.731417,0 1.520648,-0.14601 2.368231,-0.43939 0.847045,-0.29256 1.70404,-0.722 2.570715,-1.28831 v -3.66112 c -1.309559,-0.35146 -2.561034,-0.52705 -3.754696,-0.52705 m 0.427287,-8.0671 c 3.294065,0 4.940828,1.43944 4.940828,4.31751 v 10.25624 c 0,0.29015 -0.142518,0.43482 -0.427825,0.43482 h -0.599654 c -0.286382,0 -0.43885,-0.14467 -0.457135,-0.43482 l -0.114553,-1.24583 c -1.63789,1.33269 -3.351341,1.99957 -5.14143,1.99957 -1.31413,0 -2.356668,-0.38158 -3.127344,-1.14473 -0.772022,-0.7626 -1.157091,-1.78175 -1.157091,-3.05689 0,-1.40932 0.471387,-2.52043 1.413893,-3.33171 0.942506,-0.81155 2.242653,-1.21652 3.899097,-1.21652 0.609335,0 1.275408,0.0578 1.999027,0.17345 0.723349,0.11562 1.418464,0.27992 2.085344,0.49263 v -2.43358 c 0,-1.17833 -0.276701,-2.02376 -0.828222,-2.53549 -0.552865,-0.51145 -1.466598,-0.76771 -2.742275,-0.76771 -1.180485,0 -2.427927,0.19307 -3.741788,0.57948 -0.209476,0.0581 -0.375927,0.11079 -0.499623,0.15946 -0.124502,0.0484 -0.223996,0.0721 -0.299827,0.0721 -0.228836,0 -0.342851,-0.12531 -0.342851,-0.37647 v -0.46359 c 0,-0.28987 0.123426,-0.48241 0.371355,-0.57921 0.72335,-0.29042 1.499673,-0.512 2.327358,-0.66661 a 13.294038,13.294038 0 0 1 2.442716,-0.23207 m 25.619487,0 c 1.324617,0 2.332735,0.36679 3.023817,1.09982 0.690812,0.73249 1.036622,1.8124 1.036622,3.24028 v 10.02122 c 0,0.28584 -0.144401,0.42836 -0.432128,0.42836 h -0.777668 c -0.287726,0 -0.431859,-0.14252 -0.431859,-0.42836 v -9.33632 c 0,-1.25578 -0.216198,-2.15983 -0.648056,-2.71243 -0.432397,-0.55179 -1.137461,-0.82768 -2.116538,-0.82768 -1.843062,0 -3.580715,0.59965 -5.21242,1.79896 0.05754,0.45686 0.08632,0.90432 0.08632,1.34183 v 9.73564 c 0,0.28584 -0.143863,0.42836 -0.432128,0.42836 h -0.77713 c -0.287726,0 -0.432127,-0.14252 -0.432127,-0.42836 v -9.33632 c 0,-1.25578 -0.216199,-2.15983 -0.648057,-2.71243 -0.431859,-0.55179 -1.137461,-0.82768 -2.116269,-0.82768 -1.785786,0 -3.494397,0.58083 -5.126102,1.74195 v 11.13448 c 0,0.28584 -0.14467,0.42836 -0.431858,0.42836 H 58.01276 c -0.287995,0 -0.431858,-0.14252 -0.431858,-0.42836 V 147.4449 c 0,-0.28585 0.143863,-0.42864 0.431858,-0.42864 h 0.575991 c 0.287727,0 0.450951,0.14279 0.488866,0.42864 l 0.115898,1.14203 c 0.863717,-0.62816 1.765887,-1.11837 2.706511,-1.47036 0.940892,-0.35227 1.872373,-0.52867 2.793635,-0.52867 1.804072,0 3.013599,0.73357 3.628311,2.19855 0.921801,-0.72281 1.886626,-1.27056 2.894475,-1.64165 1.008387,-0.37109 2.010858,-0.5569 3.009834,-0.5569 m 12.675022,8.0671 c -2.695486,0 -4.043498,1.05464 -4.043498,3.16284 0,1.83553 0.953262,2.75303 2.859517,2.75303 0.731148,0 1.520648,-0.14601 2.367962,-0.43939 0.847045,-0.29256 1.70404,-0.722 2.570715,-1.28831 v -3.66112 c -1.309559,-0.35173 -2.561303,-0.52732 -3.754696,-0.52732 m 0.427019,-8.0671 c 3.294064,0 4.941097,1.43944 4.941097,4.31751 v 10.25624 c 0,0.29015 -0.142788,0.43482 -0.428094,0.43482 H 91.24167 c -0.286113,0 -0.438312,-0.14467 -0.457135,-0.43482 l -0.114015,-1.24583 c -1.638427,1.33269 -3.351879,1.99957 -5.14143,1.99957 -1.314399,0 -2.356668,-0.38158 -3.127344,-1.14472 -0.771753,-0.76261 -1.15736,-1.78176 -1.15736,-3.0569 0,-1.40932 0.471387,-2.52043 1.413893,-3.33171 0.942775,-0.81155 2.242653,-1.21652 3.899097,-1.21652 0.609335,0 1.275408,0.0578 1.999027,0.17345 0.723349,0.11563 1.418464,0.27993 2.085344,0.49263 v -2.43358 c 0,-1.17833 -0.27697,-2.02376 -0.828759,-2.53548 -0.552328,-0.51146 -1.46633,-0.76772 -2.742007,-0.76772 -1.180216,0 -2.427658,0.19307 -3.741519,0.57948 -0.209745,0.0581 -0.375658,0.11079 -0.499354,0.15946 -0.124771,0.0484 -0.223996,0.0721 -0.300096,0.0721 -0.228567,0 -0.342851,-0.12531 -0.342851,-0.37647 v -0.46359 c 0,-0.28987 0.123695,-0.48241 0.371355,-0.57921 0.72335,-0.29042 1.499674,-0.51199 2.327627,-0.66661 a 13.290811,13.290811 0 0 1 2.442179,-0.23207 m 18.655158,13.77941 v 0.57734 c 0,0.28907 -0.14413,0.4332 -0.43293,0.4332 H 95.391385 c -0.288802,0 -0.432934,-0.14413 -0.432934,-0.43293 v -0.60638 c 0,-0.19173 0.0242,-0.34608 0.0726,-0.46198 0.04733,-0.11563 0.138754,-0.24981 0.274281,-0.40389 l 8.773508,-11.17185 h -8.398926 c -0.288264,0 -0.433203,-0.14467 -0.433203,-0.43294 v -0.57733 c 0,-0.28907 0.144939,-0.43348 0.433203,-0.43348 h 9.812816 c 0.28881,0 0.43294,0.14441 0.43294,0.43348 v 0.6061 a 1.2934245,1.2934245 0 0 1 -0.0721,0.43294 c -0.0484,0.13499 -0.14897,0.28853 -0.30332,0.46171 l -8.802282,11.14335 h 8.802282 c 0.28907,0 0.4332,0.14413 0.4332,0.43293 m 8.47046,0.20356 c 3.31611,0 4.9747,-2.06652 4.9747,-6.19903 0,-4.11341 -1.65859,-6.17052 -4.9747,-6.17052 -3.31693,0 -4.97471,2.05711 -4.97471,6.17052 0,4.13251 1.65778,6.19903 4.97471,6.19903 m 0,1.34452 c -2.06357,0 -3.67779,-0.66581 -4.84188,-1.99849 -1.16435,-1.33215 -1.74625,-3.22496 -1.74625,-5.67924 0,-2.45428 0.58217,-4.34252 1.74625,-5.66525 1.16409,-1.32301 2.77831,-1.98451 4.84188,-1.98451 2.06302,0 3.67725,0.6615 4.8416,1.98451 1.16435,1.323 1.74652,3.21097 1.74652,5.66525 0,2.45428 -0.58217,4.34709 -1.74652,5.67924 -1.16435,1.33268 -2.77858,1.99849 -4.8416,1.99849 m 17.53141,-15.32749 c 1.44132,0 2.53253,0.36679 3.2739,1.09982 0.74029,0.73249 1.1103,1.8124 1.1103,3.24028 v 10.02122 c 0,0.28584 -0.14602,0.42836 -0.43778,0.42836 h -0.78976 c -0.2923,0 -0.43805,-0.14252 -0.43805,-0.42836 v -9.33632 c 0,-1.25578 -0.24443,-2.15983 -0.73142,-2.71243 -0.48671,-0.55179 -1.26653,-0.82768 -2.33811,-0.82768 -1.03259,0 -2.01677,0.1573 -2.95229,0.47111 -0.93497,0.31408 -1.8514,0.76638 -2.74738,1.35635 v 11.04897 c 0,0.28584 -0.14655,0.42836 -0.43831,0.42836 h -0.78897 c -0.29229,0 -0.43858,-0.14252 -0.43858,-0.42836 v -13.50432 c 0,-0.28585 0.14629,-0.42864 0.43858,-0.42864 h 0.5846 c 0.29203,0 0.45767,0.14279 0.49613,0.42864 l 0.11751,1.22754 c 0.93524,-0.66607 1.92911,-1.17995 2.9816,-1.54189 1.05141,-0.36168 2.08453,-0.54265 3.09803,-0.54265 m 68.12394,7.7982 c -2.69548,0 -4.04322,1.05463 -4.04322,3.16284 0,1.83553 0.95353,2.75303 2.85951,2.75303 0.73088,0 1.52038,-0.14602 2.36796,-0.43939 0.84705,-0.29257 1.70404,-0.72201 2.57072,-1.28832 v -3.66111 c -1.30956,-0.35173 -2.5613,-0.52732 -3.75497,-0.52732 z m 0.42756,-7.7982 c 3.29406,0 4.94083,1.43944 4.94083,4.31751 v 10.25624 c 0,0.29015 -0.14279,0.43482 -0.4281,0.43482 h -0.59965 c -0.28611,0 -0.43831,-0.14467 -0.45714,-0.43482 l -0.11401,-1.24583 c -1.63816,1.33269 -3.35188,1.99957 -5.14116,1.99957 -1.3144,0 -2.35667,-0.38158 -3.12788,-1.14473 -0.77176,-0.7626 -1.15709,-1.78175 -1.15709,-3.05689 0,-1.40932 0.47192,-2.52043 1.41389,-3.33171 0.94277,-0.81155 2.24238,-1.21652 3.8991,-1.21652 0.60906,0 1.2754,0.0578 1.99929,0.17345 0.72335,0.11562 1.41847,0.27992 2.08535,0.49263 v -2.43358 c 0,-1.17833 -0.27671,-2.02376 -0.82876,-2.53549 -0.5526,-0.51145 -1.46633,-0.76771 -2.74201,-0.76771 -1.18049,0 -2.42766,0.19307 -3.74152,0.57948 -0.20974,0.0581 -0.37646,0.11079 -0.49962,0.15946 -0.12477,0.0484 -0.224,0.0721 -0.29983,0.0721 -0.2291,0 -0.34312,-0.12531 -0.34312,-0.37647 v -0.46359 c 0,-0.28987 0.1237,-0.48241 0.37162,-0.57921 0.72335,-0.29042 1.49941,-0.512 2.32763,-0.66661 a 13.287046,13.287046 0 0 1 2.44218,-0.23207 z m -14.10317,8.38118 -4.17768,6.09066 c -0.15408,0.21243 -0.35549,0.31784 -0.60503,0.31784 h -0.80671 c -0.25008,0 -0.37458,-0.10541 -0.37458,-0.31784 0,-0.0764 0.0669,-0.20195 0.20168,-0.37486 l 4.92684,-6.87047 -4.49472,-6.29368 c -0.11509,-0.17291 -0.1729,-0.28827 -0.1729,-0.34608 0,-0.2119 0.12477,-0.31785 0.37431,-0.31785 h 0.8933 c 0.24954,0 0.45149,0.10595 0.60503,0.31785 l 3.77459,5.36973 3.77406,-5.36973 c 0.15328,-0.2119 0.34608,-0.31785 0.57626,-0.31785 h 0.77767 c 0.24981,0 0.37458,0.10595 0.37458,0.31785 0,0.0774 -0.0573,0.20168 -0.17263,0.37512 l -4.43718,6.14901 4.92712,6.9861 c 0.11536,0.17291 0.17263,0.29849 0.17263,0.37486 0,0.21243 -0.12531,0.31784 -0.37485,0.31784 h -0.89276 c -0.23072,0 -0.42271,-0.10541 -0.57626,-0.31784 z m -13.42902,-7.03666 c -1.4338,0 -2.56722,0.4289 -3.39894,1.28724 -0.83199,0.85861 -1.33376,2.1168 -1.50559,3.77459 a 18.060885,18.060885 0 0 0 2.22275,0.43912 16.852165,16.852165 0 0 0 2.22249,0.14602 c 1.4346,0 2.48601,-0.21405 3.15585,-0.64349 0.66903,-0.42917 1.00381,-1.11218 1.00381,-2.04824 0,-1.97052 -1.23346,-2.95524 -3.70011,-2.95524 z m 3.84585,11.99846 c 0.25062,-0.0761 0.43428,-0.13849 0.55018,-0.18689 0.11562,-0.0476 0.22157,-0.0715 0.31838,-0.0715 0.23179,0 0.34715,0.12478 0.34715,0.37378 v 0.40228 c 0,0.30736 -0.10595,0.50823 -0.31811,0.60396 -1.39023,0.57491 -2.86624,0.86291 -4.42964,0.86291 -2.21926,0 -3.91335,-0.6373 -5.08066,-1.91244 -1.16785,-1.27461 -1.7511,-3.13891 -1.7511,-5.59292 0,-1.20792 0.15408,-2.29617 0.46251,-3.26395 0.3087,-0.96805 0.75724,-1.79251 1.34613,-2.47337 0.58863,-0.68033 1.30768,-1.19797 2.15661,-1.55238 0.84973,-0.35495 1.80488,-0.53243 2.86651,-0.53243 1.67903,0 2.97675,0.384 3.89371,1.1501 0.9167,0.76772 1.37518,1.84037 1.37518,3.22119 0,1.36146 -0.48753,2.36286 -1.46176,3.00527 -0.97478,0.6416 -2.48521,0.96321 -4.53102,0.96321 a 19.231959,19.231959 0 0 1 -2.21415,-0.12961 13.704653,13.704653 0 0 1 -2.21523,-0.44558 c 0,2.07002 0.43885,3.599 1.31736,4.58642 0.87824,0.98795 2.19533,1.48085 3.95153,1.48085 1.13908,0 2.27761,-0.16242 3.41642,-0.48887 z m -16.01077,-19.36238 c 0,-0.28934 0.1479,-0.43428 0.44504,-0.43428 h 0.80052 c 0.29606,0 0.44477,0.14521 0.44477,0.43428 v 18.47231 c 0,0.4246 0.0839,0.72362 0.2525,0.89733 0.16752,0.17425 0.46923,0.26084 0.90459,0.26084 0.11832,0 0.25196,-0.01 0.40013,-0.0288 0.14789,-0.0196 0.27159,-0.029 0.37055,-0.029 0.27643,0 0.41545,0.13499 0.41545,0.40524 v 0.54991 c 0,0.23179 -0.1288,0.37646 -0.38561,0.43428 -0.11858,0.0384 -0.29203,0.0672 -0.51898,0.0868 -0.22803,0.0188 -0.43024,0.029 -0.60826,0.029 -0.79084,0 -1.40905,-0.22668 -1.85382,-0.68086 -0.44449,-0.45283 -0.66688,-1.08529 -0.66688,-1.89577 z m -9.13276,13.8176 c -2.69548,0 -4.0435,1.05463 -4.0435,3.16284 0,1.83553 0.95353,2.75303 2.85952,2.75303 0.73115,0 1.52092,-0.14602 2.36796,-0.43939 0.84732,-0.29257 1.70404,-0.72201 2.57072,-1.28832 v -3.66111 c -1.30956,-0.35173 -2.56131,-0.52732 -3.7547,-0.52732 z m 0.42702,-7.7982 c 3.2946,0 4.9411,1.43944 4.9411,4.31751 v 10.25624 c 0,0.29015 -0.14252,0.43482 -0.42756,0.43482 h -0.60019 c -0.28585,0 -0.43831,-0.14467 -0.45714,-0.43482 l -0.11401,-1.24583 c -1.63816,1.33269 -3.35188,1.99957 -5.14143,1.99957 -1.31413,0 -2.35667,-0.38158 -3.12788,-1.14473 -0.77122,-0.7626 -1.15683,-1.78175 -1.15683,-3.05689 0,-1.40932 0.47139,-2.52043 1.4139,-3.33171 0.94277,-0.81155 2.24265,-1.21652 3.89909,-1.21652 0.60907,0 1.27541,0.0578 1.9993,0.17345 a 14.294896,14.294896 0 0 1 2.08534,0.49263 v -2.43358 c 0,-1.17833 -0.2767,-2.02376 -0.82902,-2.53549 -0.55233,-0.51145 -1.46606,-0.76771 -2.74201,-0.76771 -1.18049,0 -2.42766,0.19307 -3.74125,0.57948 -0.20975,0.0581 -0.37647,0.11079 -0.49962,0.15946 -0.12504,0.0484 -0.22454,0.0721 -0.3001,0.0721 -0.22884,0 -0.34312,-0.12531 -0.34312,-0.37647 v -0.46359 c 0,-0.28987 0.1237,-0.48241 0.37162,-0.57921 0.72335,-0.29042 1.49968,-0.512 2.3279,-0.66661 a 13.285702,13.285702 0 0 1 2.44191,-0.23207 z"
       id="path2-8"
       style="fill-rule:evenodd;stroke-width:0.268903;fill:#000000" />
    <path
       fill="#5fcaf4"
       d="m 123.89862,86.084645 c -12.86433,0 -23.2932,10.434252 -23.2932,23.305035 0,11.81749 8.79152,21.57895 20.18764,23.09825 v -4.69586 c 0,-1.32434 -0.83468,-2.51424 -2.08938,-2.93561 -6.57522,-2.20985 -11.27914,-8.49761 -11.1057,-15.85992 0.21082,-8.96308 7.50831,-16.009956 16.46871,-15.919604 8.92758,0.09035 16.13742,7.359074 16.13742,16.312744 0,0.2041 -0.005,0.40712 -0.0126,0.60907 l -0.005,0.13633 a 17.075086,17.075086 0 0 1 -0.035,0.56093 c -0.004,0.0592 -0.0102,0.11832 -0.0156,0.17748 a 15.303821,15.303821 0 0 1 -0.0955,0.82473 c -0.009,0.0661 -0.018,0.13256 -0.028,0.19845 -1.99634,13.15662 -19.12386,20.55119 -19.21771,20.5918 1.01565,0.13499 2.05146,0.20598 3.10368,0.20598 12.86433,0 23.29348,-10.43372 23.29348,-23.30477 0,-12.870783 -10.42888,-23.305035 -23.29348,-23.305035"
       id="path4"
       style="fill-rule:evenodd;stroke-width:0.268903" />
  </g>
</svg>
