<?xml version="1.0" encoding="UTF-8" standalone="no"?>
<svg
   xmlns:dc="http://purl.org/dc/elements/1.1/"
   xmlns:cc="http://creativecommons.org/ns#"
   xmlns:rdf="http://www.w3.org/1999/02/22-rdf-syntax-ns#"
   xmlns:svg="http://www.w3.org/2000/svg"
   xmlns="http://www.w3.org/2000/svg"
   xmlns:sodipodi="http://sodipodi.sourceforge.net/DTD/sodipodi-0.dtd"
   xmlns:inkscape="http://www.inkscape.org/namespaces/inkscape"
   width="248.0px"
   height="248.0px"
   viewBox="0 0 248.0 248.0"
   version="1.1"
   id="SVGRoot"
   sodipodi:docname="Amazon-Macie Dark.svg"
   inkscape:version="1.0.2-2 (e86c870879, 2021-01-15)">
  <defs
     id="defs1402">
    <inkscape:path-effect
       effect="fillet_chamfer"
       id="path-effect2040"
       is_visible="true"
       lpeversion="1"
       satellites_param="F,0,0,1,0,0,0,1 @ F,0,0,1,0,6.0755415,0,1 @ F,0,0,1,0,6.1445293,0,1 @ F,0,0,1,0,0,0,1"
       unit="px"
       method="auto"
       mode="F"
       radius="0"
       chamfer_steps="1"
       flexible="false"
       use_knot_distance="true"
       apply_no_radius="true"
       apply_with_radius="true"
       only_selected="true"
       hide_knots="false" />
    <style
       id="style1979">.cls-1{fill:url(#GreenGradient);}.cls-2{fill:#fff;}</style>
    <linearGradient
       id="GreenGradient"
       x1="-522.53"
       y1="465.47"
       x2="-416.47"
       y2="571.53"
       gradientTransform="rotate(-90,-456.5,24.5)"
       gradientUnits="userSpaceOnUse">
      <stop
         offset="0"
         stop-color="#1b660f"
         id="stop1981" />
      <stop
         offset="1"
         stop-color="#6cae3e"
         id="stop1983" />
    </linearGradient>
  </defs>
  <sodipodi:namedview
     id="base"
     pagecolor="#101010"
     bordercolor="#666666"
     borderopacity="1.0"
     inkscape:pageopacity="0"
     inkscape:pageshadow="2"
     inkscape:zoom="0.78414574"
     inkscape:cx="91.64585"
     inkscape:cy="124"
     inkscape:document-units="px"
     inkscape:current-layer="layer2"
     inkscape:document-rotation="0"
     showgrid="true"
     inkscape:window-width="1366"
     inkscape:window-height="705"
     inkscape:window-x="-8"
     inkscape:window-y="-8"
     inkscape:window-maximized="1"
     inkscape:snap-global="false"
     showguides="true">
    <inkscape:grid
       type="xygrid"
       id="grid1972" />
  </sodipodi:namedview>
  <metadata
     id="metadata1405">
    <rdf:RDF>
      <cc:Work
         rdf:about="">
        <dc:format>image/svg+xml</dc:format>
        <dc:type
           rdf:resource="http://purl.org/dc/dcmitype/StillImage" />
        <dc:title />
      </cc:Work>
    </rdf:RDF>
  </metadata>
  <g
     inkscape:groupmode="layer"
     id="layer3"
     inkscape:label="BG" />
  <g
     inkscape:groupmode="layer"
     id="layer4"
     inkscape:label="Bounding Box" />
  <g
     inkscape:groupmode="layer"
     id="layer2"
     inkscape:label="Top">
    <g
       id="g847"
       transform="translate(-0.19315289,-0.04989999)"
       style="fill:#5e5c64">
      <path
         style="fill:#5e5c64;fill-opacity:0.326613;stroke:none;stroke-width:3;stroke-linecap:round;stroke-linejoin:round;stroke-miterlimit:4;stroke-dasharray:none;stroke-opacity:1;paint-order:normal"
         id="path885"
         sodipodi:type="arc"
         sodipodi:cx="154.57903"
         sodipodi:cy="83.172447"
         sodipodi:rx="111.24603"
         sodipodi:ry="111.24603"
         sodipodi:start="5.9893981"
         sodipodi:end="5.9807042"
         sodipodi:open="true"
         sodipodi:arc-type="arc"
         transform="rotate(16.68412)"
         d="M 261.05862,50.957906 A 111.24603,111.24603 0 0 1 187.02492,189.58177 111.24603,111.24603 0 0 1 48.240476,115.84954 111.24603,111.24603 0 0 1 121.67088,-23.094829 111.24603,111.24603 0 0 1 260.77453,50.033412" />
      <path
         style="fill:#5e5c64;fill-opacity:1;stroke:#ffffff;stroke-width:4.5;stroke-linecap:round;stroke-linejoin:round;stroke-miterlimit:4;stroke-dasharray:none;stroke-opacity:1;paint-order:normal"
         id="path883-9"
         sodipodi:type="arc"
         sodipodi:cx="154.57903"
         sodipodi:cy="83.172447"
         sodipodi:rx="111.24604"
         sodipodi:ry="111.24604"
         sodipodi:start="5.9893981"
         sodipodi:end="5.9807042"
         sodipodi:open="true"
         sodipodi:arc-type="arc"
         transform="rotate(16.68412)"
         d="M 261.05862,50.957904 A 111.24604,111.24604 0 0 1 187.02492,189.58178 111.24604,111.24604 0 0 1 48.240468,115.84955 111.24604,111.24604 0 0 1 121.67088,-23.094836 111.24604,111.24604 0 0 1 260.77453,50.03341" />
    </g>
    <g
       id="Icon_Test"
       data-name="Icon Test"
       transform="matrix(2.827202,0,0,2.827202,17.901011,17.965789)">
      <path
         class="cls-2"
         d="m 37.22,49.57 c -1,0 -2.2,-1.19 -4.28,-4.42 -2,3.15 -2.84,4 -3.68,4 -1.22,0 -2.19,-1.6 -4.45,-5.71 a 39.05,39.05 0 0 0 -2.17,-3.66 c -0.82,0.58 -2.6,2.22 -3.95,3.46 -5.34,4.92 -7.32,6.55 -8.58,5.45 -0.68,-0.58 -0.31,-1.5 0,-2.25 a 131.83,131.83 0 0 1 6.2,-12 c 5.16,-9 5.8,-9 6.48,-9 1,0 1.6,0.95 6.1,8.88 C 30,36.35 31.52,39 33,41.37 l 0.39,-0.63 c 4.53,-7.33 6.18,-9.63 7.7,-9.55 0.84,0 2.38,0.94 5.06,2.91 3.37,-6 4.79,-8.16 6.2,-8.16 2.75,0 9.64,12.39 11.53,16.68 1.89,4.29 1.59,5.53 1,6.21 -1.1,1.2 -2.69,0.24 -13.1,-7.91 -1.55,-1.21 -3.31,-2.59 -5,-3.84 -4.78,8.47 -7.27,12.46 -9.54,12.49 z m 0.17,-2 z m -3.27,-4.33 c 1.37,2.19 2.56,3.9 3.18,4.28 1.53,-0.42 5.54,-7.59 7.82,-11.69 A 22.87,22.87 0 0 0 41,33.21 c -1.1,0.66 -4.15,5.6 -6,8.59 -0.29,0.52 -0.59,1.02 -0.88,1.47 z m 13.6,-8 c 1.45,1.11 3.18,2.45 5.21,4 3.61,2.82 8.39,6.56 10.32,7.6 -0.6,-3.61 -8.46,-17.4 -10.92,-18.94 -0.89,0.84 -2.9,4.34 -4.61,7.41 z m -25,2.26 v 0 c 1,0 1.78,1.28 3.75,4.86 a 37,37 0 0 0 2.71,4.47 38.08,38.08 0 0 0 2.5,-3.63 c -1.25,-2 -2.76,-4.66 -4.64,-8 -1.58,-2.78 -3.48,-6.13 -4.42,-7.46 -2.08,2.69 -8.3,13.75 -10.34,18.26 1.45,-1.12 3.54,-3 5,-4.36 3.72,-3.25 4.65,-4.07 5.48,-4.07 z m 18.37,-4.4 11,-5.26 z m -29,-0.61"
         id="path14" />
    </g>
  </g>
</svg>
