<?xml version="1.0" encoding="UTF-8" standalone="no"?>
<svg
   xmlns:dc="http://purl.org/dc/elements/1.1/"
   xmlns:cc="http://creativecommons.org/ns#"
   xmlns:rdf="http://www.w3.org/1999/02/22-rdf-syntax-ns#"
   xmlns:svg="http://www.w3.org/2000/svg"
   xmlns="http://www.w3.org/2000/svg"
   xmlns:sodipodi="http://sodipodi.sourceforge.net/DTD/sodipodi-0.dtd"
   xmlns:inkscape="http://www.inkscape.org/namespaces/inkscape"
   width="248.0px"
   height="248.0px"
   viewBox="0 0 248.0 248.0"
   version="1.1"
   id="SVGRoot"
   sodipodi:docname="Amazon-DynamoDB White.svg"
   inkscape:version="1.0.2-2 (e86c870879, 2021-01-15)">
  <defs
     id="defs1402">
    <inkscape:path-effect
       effect="fillet_chamfer"
       id="path-effect2040"
       is_visible="true"
       lpeversion="1"
       satellites_param="F,0,0,1,0,0,0,1 @ F,0,0,1,0,6.0755415,0,1 @ F,0,0,1,0,6.1445293,0,1 @ F,0,0,1,0,0,0,1"
       unit="px"
       method="auto"
       mode="F"
       radius="0"
       chamfer_steps="1"
       flexible="false"
       use_knot_distance="true"
       apply_no_radius="true"
       apply_with_radius="true"
       only_selected="true"
       hide_knots="false" />
    <style
       id="style1979">.cls-1{fill:url(#GreenGradient);}.cls-2{fill:#fff;}</style>
    <linearGradient
       id="GreenGradient"
       x1="-522.53"
       y1="465.47"
       x2="-416.47"
       y2="571.53"
       gradientTransform="rotate(-90,-456.5,24.5)"
       gradientUnits="userSpaceOnUse">
      <stop
         offset="0"
         stop-color="#1b660f"
         id="stop1981" />
      <stop
         offset="1"
         stop-color="#6cae3e"
         id="stop1983" />
    </linearGradient>
    <linearGradient
       id="OrangeGradient"
       x1="1131.1"
       y1="-516.47998"
       x2="1131.1"
       y2="-366.48001"
       gradientTransform="rotate(-135,816.69218,-8.7994369)"
       gradientUnits="userSpaceOnUse">
      <stop
         offset="0"
         stop-color="#c8511b"
         id="stop138" />
      <stop
         offset="1"
         stop-color="#f90"
         id="stop140" />
    </linearGradient>
  </defs>
  <sodipodi:namedview
     id="base"
     pagecolor="#ffffff"
     bordercolor="#666666"
     borderopacity="1.0"
     inkscape:pageopacity="0"
     inkscape:pageshadow="2"
     inkscape:zoom="1.7379032"
     inkscape:cx="124"
     inkscape:cy="124"
     inkscape:document-units="px"
     inkscape:current-layer="layer2"
     inkscape:document-rotation="0"
     showgrid="true"
     inkscape:window-width="1366"
     inkscape:window-height="705"
     inkscape:window-x="-8"
     inkscape:window-y="-8"
     inkscape:window-maximized="1"
     inkscape:snap-global="false"
     showguides="true">
    <inkscape:grid
       type="xygrid"
       id="grid1972" />
  </sodipodi:namedview>
  <metadata
     id="metadata1405">
    <rdf:RDF>
      <cc:Work
         rdf:about="">
        <dc:format>image/svg+xml</dc:format>
        <dc:type
           rdf:resource="http://purl.org/dc/dcmitype/StillImage" />
        <dc:title />
      </cc:Work>
    </rdf:RDF>
  </metadata>
  <g
     inkscape:groupmode="layer"
     id="layer3"
     inkscape:label="BG" />
  <g
     inkscape:groupmode="layer"
     id="layer4"
     inkscape:label="Bounding Box" />
  <g
     inkscape:groupmode="layer"
     id="layer2"
     inkscape:label="Top">
    <g
       id="g858"
       transform="translate(-0.19315289,-0.04989999)">
      <path
         style="fill:none;fill-opacity:1;stroke:#000000;stroke-width:4.5;stroke-linecap:round;stroke-linejoin:round;stroke-miterlimit:4;stroke-dasharray:none;stroke-opacity:1;paint-order:normal"
         id="path883"
         sodipodi:type="arc"
         sodipodi:cx="154.57903"
         sodipodi:cy="83.172447"
         sodipodi:rx="111.24604"
         sodipodi:ry="111.24604"
         sodipodi:start="5.9893981"
         sodipodi:end="5.9807042"
         sodipodi:open="true"
         sodipodi:arc-type="arc"
         transform="rotate(16.68412)"
         d="M 261.05862,50.957904 A 111.24604,111.24604 0 0 1 187.02492,189.58178 111.24604,111.24604 0 0 1 48.240468,115.84955 111.24604,111.24604 0 0 1 121.67088,-23.094836 111.24604,111.24604 0 0 1 260.77453,50.03341" />
      <path
         style="fill:#3d3846;fill-opacity:0.326613;stroke:none;stroke-width:4.45107;stroke-linecap:round;stroke-linejoin:round;stroke-miterlimit:4;stroke-dasharray:none;stroke-opacity:1;paint-order:normal"
         id="path885"
         sodipodi:type="arc"
         sodipodi:cx="154.57903"
         sodipodi:cy="83.172447"
         sodipodi:rx="110.03654"
         sodipodi:ry="110.03654"
         sodipodi:start="5.9893981"
         sodipodi:end="5.9807042"
         sodipodi:open="true"
         sodipodi:arc-type="arc"
         transform="rotate(16.68412)"
         d="M 259.90094,51.308151 A 110.03654,110.03654 0 0 1 186.67216,188.42486 110.03654,110.03654 0 0 1 49.396616,115.49427 110.03654,110.03654 0 0 1 122.02867,-21.939463 110.03654,110.03654 0 0 1 259.61994,50.393709" />
    </g>
    <path
       style="fill:#ffffff;stroke:#000000;stroke-width:1px;stroke-linecap:butt;stroke-linejoin:miter;stroke-opacity:1"
       d="m 132.82975,76.377106 -15.83739,30.142134 17.62548,0.25544 -14.81562,47.0013 53.1319,-54.153668 -14.81563,-0.510884 6.1306,-22.223439 z"
       id="path48" />
    <g
       id="Icon_Test"
       data-name="Icon Test"
       transform="matrix(2.5300179,0,0,2.5300179,29.071477,29.27613)"
       style="fill:#000000">
      <path
         class="cls-2"
         d="m 50.25,40.48 -6.61,6.6 a 16.23,16.23 0 0 0 3.42,-1.39 2.58,2.58 0 0 1 1.19,1.8 c 0,1.83 -3.88,3.82 -9.64,4.63 a 42.23,42.23 0 0 1 -5.36,0.38 h -1 c -8.08,-0.19 -14,-2.74 -14,-5 a 2.58,2.58 0 0 1 1.19,-1.8 c 3.14,1.75 8.23,2.79 13.81,2.79 h 0.11 l 0.56,-2 c -0.22,0 -0.44,0 -0.67,0 -5.5,0 -10.6,-1.09 -13.31,-2.81 -1.08,-0.71 -1.68,-1.48 -1.69,-2.15 V 36.9 c 3.06,2.34 9.16,3.56 15,3.56 0.79,0 1.58,0 2.35,-0.07 l 0.57,-2 c -1,0.07 -1.93,0.1 -2.92,0.1 -8.58,0 -15,-2.63 -15,-5 a 2.58,2.58 0 0 1 1.19,-1.8 c 2.76,1.55 7,2.52 11.81,2.74 l 0.05,-2 C 26.57,32.2 22.3,31.18 19.94,29.67 18.87,28.98 18.27,28.2 18.25,27.52 V 22.9 c 3.06,2.34 9.16,3.56 15,3.56 h 0.22 l 1.06,-2 h -1.28 c -8.58,0 -15,-2.63 -15,-5 0,-2.37 6.42,-5 15,-5 a 36,36 0 0 1 8.58,1 h 5.49 c -3,-1.83 -8.18,-3 -14.07,-3 -8.24,0 -17,2.44 -17,7 v 8.05 a 4.06,4.06 0 0 0 1.51,2.95 4.07,4.07 0 0 0 -1.51,3 v 8 a 4.06,4.06 0 0 0 1.51,3 4.07,4.07 0 0 0 -1.51,3 v 8 a 1.25,1.25 0 0 0 0,0.21 c 0.27,4.39 8.87,6.75 17,6.75 8.13,0 16.73,-2.36 17,-6.77 a 0.75,0.75 0 0 0 0,-0.21 v -8 a 4,4 0 0 0 -1.51,-3 4.06,4.06 0 0 0 1.51,-3 z m -2,15 c 0,2.36 -6.42,5 -15,5 -8.58,0 -15,-2.61 -15,-5 v -4.6 c 3.06,2.32 9.16,3.54 15,3.54 5.84,0 11.94,-1.22 15,-3.54 z"
         id="path14"
         style="fill:#000000" />
      <circle
         class="cls-2"
         cx="21.25"
         cy="27.52"
         r="1.25"
         id="circle16"
         style="fill:#000000" />
      <circle
         class="cls-2"
         cx="21.25"
         cy="41.52"
         r="1.25"
         id="circle18"
         style="fill:#000000" />
      <circle
         class="cls-2"
         cx="21.25"
         cy="55.52"
         r="1.25"
         id="circle20"
         style="fill:#000000" />
      <path
         class="cls-2"
         d="m 35.75,51.48 a 1,1 0 0 1 -0.5,-0.14 1,1 0 0 1 -0.46,-1.15 L 40.41,31.48 H 34.75 A 1,1 0 0 1 33.86,30 l 6,-12 a 1,1 0 0 1 0.89,-0.55 h 13 a 1,1 0 0 1 1,1.31 l -2.56,7.69 h 5.61 a 1,1 0 0 1 0.72,1.69 l -22,23 a 1,1 0 0 1 -0.77,0.34 z m 0.62,-22 h 5.38 a 1,1 0 0 1 0.8,0.4 1,1 0 0 1 0.16,0.88 l -4.81,16 17.51,-18.3 h -4.66 a 1,1 0 0 1 -1,-1.32 l 2.56,-7.68 h -11 z"
         id="path22"
         style="fill:#000000" />
    </g>
  </g>
</svg>
