<?xml version="1.0" encoding="UTF-8" standalone="no"?>
<svg
   xmlns:dc="http://purl.org/dc/elements/1.1/"
   xmlns:cc="http://creativecommons.org/ns#"
   xmlns:rdf="http://www.w3.org/1999/02/22-rdf-syntax-ns#"
   xmlns:svg="http://www.w3.org/2000/svg"
   xmlns="http://www.w3.org/2000/svg"
   xmlns:xlink="http://www.w3.org/1999/xlink"
   xmlns:sodipodi="http://sodipodi.sourceforge.net/DTD/sodipodi-0.dtd"
   xmlns:inkscape="http://www.inkscape.org/namespaces/inkscape"
   width="248.0px"
   height="248.0px"
   viewBox="0 0 248.0 248.0"
   version="1.1"
   id="SVGRoot"
   sodipodi:docname="autodesk-4_ Dark.svg"
   inkscape:version="1.0.2-2 (e86c870879, 2021-01-15)">
  <defs
     id="defs1402">
    <inkscape:path-effect
       effect="fillet_chamfer"
       id="path-effect2040"
       is_visible="true"
       lpeversion="1"
       satellites_param="F,0,0,1,0,0,0,1 @ F,0,0,1,0,6.0755415,0,1 @ F,0,0,1,0,6.1445293,0,1 @ F,0,0,1,0,0,0,1"
       unit="px"
       method="auto"
       mode="F"
       radius="0"
       chamfer_steps="1"
       flexible="false"
       use_knot_distance="true"
       apply_no_radius="true"
       apply_with_radius="true"
       only_selected="true"
       hide_knots="false" />
    <style
       id="style1979">.cls-1{fill:url(#GreenGradient);}.cls-2{fill:#fff;}</style>
    <linearGradient
       id="GreenGradient"
       x1="-522.53"
       y1="465.47"
       x2="-416.47"
       y2="571.53"
       gradientTransform="rotate(-90,-456.5,24.5)"
       gradientUnits="userSpaceOnUse">
      <stop
         offset="0"
         stop-color="#1b660f"
         id="stop1981" />
      <stop
         offset="1"
         stop-color="#6cae3e"
         id="stop1983" />
    </linearGradient>
    <clipPath
       id="clip1">
      <path
         d="m 93,27 h 58 V 88.851563 H 93 Z m 0,0"
         id="path2" />
    </clipPath>
    <clipPath
       id="clip2">
      <path
         d="m 161,10 h 41 v 78.851563 h -41 z m 0,0"
         id="path5" />
    </clipPath>
    <clipPath
       id="clip3">
      <path
         d="m 206,0 h 65 v 88.851563 h -65 z m 0,0"
         id="path8" />
    </clipPath>
    <clipPath
       id="clip4">
      <path
         d="m 322,26 h 57 v 62.851563 h -57 z m 0,0"
         id="path11" />
    </clipPath>
    <clipPath
       id="clip5">
      <path
         d="m 415,26 h 58.05859 V 87 H 415 Z m 0,0"
         id="path14" />
    </clipPath>
    <clipPath
       id="clip6">
      <path
         d="M 0,3 H 87 V 88.851563 H 0 Z m 0,0"
         id="path17" />
    </clipPath>
    <clipPath
       id="b">
      <use
         xlink:href="#a"
         overflow="visible"
         id="use5"
         x="0"
         y="0"
         width="100%"
         height="100%" />
    </clipPath>
    <clipPath
       id="d">
      <use
         xlink:href="#c"
         overflow="visible"
         id="use21"
         x="0"
         y="0"
         width="100%"
         height="100%" />
    </clipPath>
    <linearGradient
       id="e"
       gradientUnits="userSpaceOnUse"
       x1="-17845.727"
       y1="-3022.7009"
       x2="-17300.025"
       y2="-3131.4309"
       gradientTransform="matrix(0.1741,0,0,-0.1741,5044.277,-686.514)">
      <stop
         offset="0"
         stop-color="#2b7a77"
         id="stop30" />
      <stop
         offset=".51"
         stop-color="#4ebaa9"
         id="stop32" />
      <stop
         offset="1"
         stop-color="#5cc2b1"
         id="stop34" />
    </linearGradient>
    <linearGradient
       id="f"
       gradientUnits="userSpaceOnUse"
       x1="-16495.199"
       y1="-6380.3711"
       x2="-16765.998"
       y2="-5744.4058"
       gradientTransform="matrix(0.1741,0,0,-0.1741,5044.277,-686.514)">
      <stop
         offset="0"
         stop-color="#236736"
         id="stop39" />
      <stop
         offset=".493"
         stop-color="#6ba443"
         id="stop41" />
      <stop
         offset="1"
         stop-color="#86c146"
         id="stop43" />
    </linearGradient>
    <linearGradient
       id="g"
       gradientUnits="userSpaceOnUse"
       x1="-16221.797"
       y1="-6660.6538"
       x2="-15823.801"
       y2="-5712.8491"
       gradientTransform="matrix(0.1741,0,0,-0.1741,5044.277,-686.514)">
      <stop
         offset="0"
         stop-color="#29a5e3"
         id="stop48" />
      <stop
         offset=".515"
         stop-color="#356eb9"
         id="stop50" />
      <stop
         offset="1"
         stop-color="#394da5"
         id="stop52" />
    </linearGradient>
    <path
       id="path104"
       d="M 196.35,-37.141 H 1196.36 V 128.657 H 196.35 Z" />
    <path
       id="path114"
       d="M 196.35,-37.141 H 1196.36 V 128.657 H 196.35 Z" />
    <clipPath
       id="b-0">
      <use
         xlink:href="#a"
         overflow="visible"
         id="use5-4"
         x="0"
         y="0"
         width="100%"
         height="100%" />
    </clipPath>
    <clipPath
       id="d-7">
      <use
         xlink:href="#c"
         overflow="visible"
         id="use21-2"
         x="0"
         y="0"
         width="100%"
         height="100%" />
    </clipPath>
    <linearGradient
       id="e-6"
       gradientUnits="userSpaceOnUse"
       x1="-17845.727"
       y1="-3022.7009"
       x2="-17300.025"
       y2="-3131.4309"
       gradientTransform="matrix(0.00755454,0,0,0.00755454,162.32374,160.96514)">
      <stop
         offset="0"
         stop-color="#2b7a77"
         id="stop30-6" />
      <stop
         offset=".51"
         stop-color="#4ebaa9"
         id="stop32-2" />
      <stop
         offset="1"
         stop-color="#5cc2b1"
         id="stop34-6" />
    </linearGradient>
    <linearGradient
       id="f-1"
       gradientUnits="userSpaceOnUse"
       x1="-16495.199"
       y1="-6380.3711"
       x2="-16765.998"
       y2="-5744.4058"
       gradientTransform="matrix(0.00755454,0,0,0.00755454,162.32374,160.96514)">
      <stop
         offset="0"
         stop-color="#236736"
         id="stop39-6" />
      <stop
         offset=".493"
         stop-color="#6ba443"
         id="stop41-2" />
      <stop
         offset="1"
         stop-color="#86c146"
         id="stop43-2" />
    </linearGradient>
    <linearGradient
       id="g-0"
       gradientUnits="userSpaceOnUse"
       x1="-16221.797"
       y1="-6660.6538"
       x2="-15823.801"
       y2="-5712.8491"
       gradientTransform="matrix(0.00755454,0,0,0.00755454,162.32374,160.96514)">
      <stop
         offset="0"
         stop-color="#29a5e3"
         id="stop48-6" />
      <stop
         offset=".515"
         stop-color="#356eb9"
         id="stop50-7" />
      <stop
         offset="1"
         stop-color="#394da5"
         id="stop52-5" />
    </linearGradient>
    <path
       id="path104-1"
       d="M 196.35,-37.141 H 1196.36 V 128.657 H 196.35 Z" />
    <path
       id="path114-3"
       d="M 196.35,-37.141 H 1196.36 V 128.657 H 196.35 Z" />
    <clipPath
       id="b-2">
      <use
         xlink:href="#a"
         overflow="visible"
         id="use5-3"
         x="0"
         y="0"
         width="100%"
         height="100%" />
    </clipPath>
    <clipPath
       id="d-1">
      <use
         xlink:href="#c"
         overflow="visible"
         id="use21-6"
         x="0"
         y="0"
         width="100%"
         height="100%" />
    </clipPath>
    <linearGradient
       id="e-3"
       gradientUnits="userSpaceOnUse"
       x1="-17845.727"
       y1="-3022.7009"
       x2="-17300.025"
       y2="-3131.4309"
       gradientTransform="matrix(0.00755454,0,0,0.00755454,161.91371,158.37582)">
      <stop
         offset="0"
         stop-color="#2b7a77"
         id="stop30-5" />
      <stop
         offset=".51"
         stop-color="#4ebaa9"
         id="stop32-3" />
      <stop
         offset="1"
         stop-color="#5cc2b1"
         id="stop34-5" />
    </linearGradient>
    <linearGradient
       id="f-5"
       gradientUnits="userSpaceOnUse"
       x1="-16495.199"
       y1="-6380.3711"
       x2="-16765.998"
       y2="-5744.4058"
       gradientTransform="matrix(0.00755454,0,0,0.00755454,161.91371,158.37582)">
      <stop
         offset="0"
         stop-color="#236736"
         id="stop39-5" />
      <stop
         offset=".493"
         stop-color="#6ba443"
         id="stop41-8" />
      <stop
         offset="1"
         stop-color="#86c146"
         id="stop43-0" />
    </linearGradient>
    <linearGradient
       id="g-4"
       gradientUnits="userSpaceOnUse"
       x1="-16221.797"
       y1="-6660.6538"
       x2="-15823.801"
       y2="-5712.8491"
       gradientTransform="matrix(0.00755454,0,0,0.00755454,161.91371,158.37582)">
      <stop
         offset="0"
         stop-color="#29a5e3"
         id="stop48-0" />
      <stop
         offset=".515"
         stop-color="#356eb9"
         id="stop50-4" />
      <stop
         offset="1"
         stop-color="#394da5"
         id="stop52-2" />
    </linearGradient>
    <path
       id="path104-13"
       d="M 196.35,-37.141 H 1196.36 V 128.657 H 196.35 Z" />
    <path
       id="path114-2"
       d="M 196.35,-37.141 H 1196.36 V 128.657 H 196.35 Z" />
    <clipPath
       id="b-9">
      <use
         xlink:href="#a"
         overflow="visible"
         id="use5-8"
         x="0"
         y="0"
         width="100%"
         height="100%" />
    </clipPath>
    <clipPath
       id="d-2">
      <use
         xlink:href="#c"
         overflow="visible"
         id="use21-0"
         x="0"
         y="0"
         width="100%"
         height="100%" />
    </clipPath>
    <path
       id="a"
       d="M 196.35,-37.141 H 1196.36 V 128.657 H 196.35 Z" />
    <path
       id="c"
       d="M 196.35,-37.141 H 1196.36 V 128.657 H 196.35 Z" />
  </defs>
  <sodipodi:namedview
     id="base"
     pagecolor="#101010"
     bordercolor="#666666"
     borderopacity="1.0"
     inkscape:pageopacity="0"
     inkscape:pageshadow="2"
     inkscape:zoom="1.7379032"
     inkscape:cx="124"
     inkscape:cy="120.29206"
     inkscape:document-units="px"
     inkscape:current-layer="layer2"
     inkscape:document-rotation="0"
     showgrid="true"
     inkscape:window-width="1366"
     inkscape:window-height="705"
     inkscape:window-x="-8"
     inkscape:window-y="-8"
     inkscape:window-maximized="1"
     inkscape:snap-global="false"
     showguides="true">
    <inkscape:grid
       type="xygrid"
       id="grid1972" />
  </sodipodi:namedview>
  <metadata
     id="metadata1405">
    <rdf:RDF>
      <cc:Work
         rdf:about="">
        <dc:format>image/svg+xml</dc:format>
        <dc:type
           rdf:resource="http://purl.org/dc/dcmitype/StillImage" />
        <dc:title />
      </cc:Work>
    </rdf:RDF>
  </metadata>
  <g
     inkscape:groupmode="layer"
     id="layer3"
     inkscape:label="BG" />
  <g
     inkscape:groupmode="layer"
     id="layer4"
     inkscape:label="Bounding Box" />
  <g
     inkscape:groupmode="layer"
     id="layer2"
     inkscape:label="Top">
    <g
       id="g847"
       transform="translate(-0.19315289,-0.04989999)"
       style="fill:#5e5c64">
      <path
         style="fill:#5e5c64;fill-opacity:0.326613;stroke:none;stroke-width:3;stroke-linecap:round;stroke-linejoin:round;stroke-miterlimit:4;stroke-dasharray:none;stroke-opacity:1;paint-order:normal"
         id="path885"
         sodipodi:type="arc"
         sodipodi:cx="154.57903"
         sodipodi:cy="83.172447"
         sodipodi:rx="111.24603"
         sodipodi:ry="111.24603"
         sodipodi:start="5.9893981"
         sodipodi:end="5.9807042"
         sodipodi:open="true"
         sodipodi:arc-type="arc"
         transform="rotate(16.68412)"
         d="M 261.05862,50.957906 A 111.24603,111.24603 0 0 1 187.02492,189.58177 111.24603,111.24603 0 0 1 48.240476,115.84954 111.24603,111.24603 0 0 1 121.67088,-23.094829 111.24603,111.24603 0 0 1 260.77453,50.033412" />
      <path
         style="fill:#5e5c64;fill-opacity:1;stroke:#ffffff;stroke-width:4.5;stroke-linecap:round;stroke-linejoin:round;stroke-miterlimit:4;stroke-dasharray:none;stroke-opacity:1;paint-order:normal"
         id="path883-9"
         sodipodi:type="arc"
         sodipodi:cx="154.57903"
         sodipodi:cy="83.172447"
         sodipodi:rx="111.24604"
         sodipodi:ry="111.24604"
         sodipodi:start="5.9893981"
         sodipodi:end="5.9807042"
         sodipodi:open="true"
         sodipodi:arc-type="arc"
         transform="rotate(16.68412)"
         d="M 261.05862,50.957904 A 111.24604,111.24604 0 0 1 187.02492,189.58178 111.24604,111.24604 0 0 1 48.240468,115.84955 111.24604,111.24604 0 0 1 121.67088,-23.094836 111.24604,111.24604 0 0 1 260.77453,50.03341" />
    </g>
    <g
       transform="matrix(0.03977439,0,0,-0.03977439,-41.880174,128.20425)"
       id="g57">
      <g
         transform="matrix(39.04,0,0,39.04,-23017.474,-1680.523)"
         id="g14">
        <defs
           id="defs3">
          <path
             id="path1017"
             d="M 196.35,-37.141 H 1196.36 V 128.657 H 196.35 Z" />
        </defs>
        <clipPath
           id="clipPath97">
          <use
             xlink:href="#a"
             overflow="visible"
             id="use95"
             x="0"
             y="0"
             width="100%"
             height="100%" />
        </clipPath>
        <g
           clip-path="url(#b-9)"
           id="g12">
          <path
             fill="#231f20"
             d="m 755.057,42.025 c 0,-0.511 -0.369,-0.88 -0.869,-0.88 -0.498,0 -0.869,0.369 -0.869,0.88 0,0.51 0.371,0.88 0.87,0.88 0.5,0 0.868,-0.37 0.868,-0.88 m 0.153,0 a 1.0220001,1.0220001 0 1 1 -2.044,0.001 1.0220001,1.0220001 0 0 1 2.044,-0.001"
             id="path8-6" />
          <path
             fill="#231f20"
             d="m 754.377,42.263 c 0,-0.15 -0.125,-0.167 -0.246,-0.167 h -0.107 v 0.335 h 0.158 c 0.143,0 0.195,-0.069 0.195,-0.168 m 0.254,-0.76 -0.247,0.347 a 0.575,0.575 0 0 1 -0.123,0.14 c 0.178,0.023 0.28,0.12 0.28,0.273 0,0.157 -0.11,0.3 -0.323,0.3 h -0.346 v -1.06 h 0.152 v 0.474 c 0.083,0 0.115,-0.026 0.166,-0.103 l 0.256,-0.37 h 0.185 z"
             id="path10" />
        </g>
      </g>
      <path
         fill="#0e0d0f"
         d="M 3052.305,271.707 2976.724,95.246 h 151.827 l -76.246,176.46 z M 3283.5,-79.848 h -81.867 l -44.74,106.423 h -208.551 l -45.365,-106.423 h -79.368 l 194.068,444.158 h 71.755 z m 715.03,-0.012 h -78.159 v 369.2 h -139.88 v 71.834 h 364.165 L 4114.634,289.34 H 3998.53 Z M 5482.17,289.349 H 5245.978 V 177.187 h 151.28 v -69.374 h -151.28 V -9.385 h 236.31 V -79.852 H 5167.976 V 361.182 H 5482.17 V 289.35 Z m 553.775,-369.216 h -73.903 v 441.035 h 73.903 z"
         id="path16" />
      <g
         transform="matrix(39.04,0,0,39.04,-23017.474,-1680.523)"
         id="g28">
        <defs
           id="defs19">
          <path
             id="path1027"
             d="M 196.35,-37.141 H 1196.36 V 128.657 H 196.35 Z" />
        </defs>
        <clipPath
           id="clipPath108">
          <use
             xlink:href="#c"
             overflow="visible"
             id="use106"
             x="0"
             y="0"
             width="100%"
             height="100%" />
        </clipPath>
        <g
           clip-path="url(#d-2)"
           id="g26">
          <path
             fill="#0e0d0f"
             d="m 736.147,50.667 c -1.154,0 -2.135,-0.349 -2.14,-1.115 -0.006,-0.897 0.557,-1.208 2.682,-1.899 2.348,-0.772 3.595,-1.557 3.582,-3.467 -0.012,-2.153 -1.676,-3.38 -4.106,-3.38 -1.72,0 -3.262,0.557 -4.438,1.591 l 0.732,1.772 c 1.067,-0.894 2.36,-1.528 3.757,-1.534 1.223,-0.006 2.093,0.59 2.093,1.47 0,0.737 -0.426,1.227 -2.487,1.88 -2.364,0.775 -3.792,1.583 -3.78,3.508 0.014,1.915 1.81,3.004 4.068,2.993 2.26,-0.01 3.531,-0.837 3.724,-0.949 l -0.71,-1.61 c -0.46,0.248 -1.472,0.74 -2.977,0.74 m 10.489,-3.838 5.057,5.469 h -2.423 l -5.074,-5.47 5.576,-5.83 h 2.456 l -5.592,5.83 z m -44.766,-4.2 c -2.22,0 -3.84,1.799 -3.84,4.019 0,2.22 1.62,4.02 3.84,4.02 2.22,0 3.842,-1.8 3.842,-4.02 0,-2.22 -1.622,-4.02 -3.842,-4.02 m 0,9.864 a 5.8430001,5.8430001 0 1 1 0.002,-11.686 5.8430001,5.8430001 0 0 1 -0.002,11.686 m 12.22,-9.684 -2.282,-0.002 v 7.65 h 2.29 c 2.22,0 3.833,-1.573 3.833,-3.792 0,-2.22 -1.623,-3.856 -3.841,-3.856 m 0,9.489 h -4.286 V 41 h 4.286 c 3.225,0 5.84,2.438 5.84,5.664 0,3.227 -2.615,5.633 -5.84,5.633 m -29.849,-6.291 c 0,-3.368 -1.976,-5.184 -4.842,-5.184 -2.865,0 -4.84,1.816 -4.84,5.184 v 6.29 h 2 v -6.528 c 0,-1.976 1.16,-3.136 2.84,-3.136 1.682,0 2.842,1.16 2.842,3.136 v 6.529 h 2 z"
             id="path24" />
        </g>
      </g>
      <linearGradient
         id="linearGradient119"
         gradientUnits="userSpaceOnUse"
         x1="-17845.727"
         y1="-3022.7009"
         x2="-17300.025"
         y2="-3131.4309"
         gradientTransform="matrix(0.1741,0,0,-0.1741,5044.277,-686.514)">
        <stop
           offset="0"
           stop-color="#2b7a77"
           id="stop113" />
        <stop
           offset=".51"
           stop-color="#4ebaa9"
           id="stop115" />
        <stop
           offset="1"
           stop-color="#5cc2b1"
           id="stop117" />
      </linearGradient>
      <path
         fill="url(#e)"
         d="m 2024.871,-275.914 c -21.721,0 -33.006,8.194 -43.842,27.223 l -98.971,183.466 c -6.818,13.148 -6.928,17.528 -6.928,26.998 l 155.543,-6.857 35.602,-35.597 h 312 L 2119.218,-241.16 c -12.626,-7.469 -60.652,-34.754 -94.347,-34.754 z"
         id="path37"
         style="fill:url(#e)" />
      <linearGradient
         id="linearGradient128"
         gradientUnits="userSpaceOnUse"
         x1="-16495.199"
         y1="-6380.3711"
         x2="-16765.998"
         y2="-5744.4058"
         gradientTransform="matrix(0.1741,0,0,-0.1741,5044.277,-686.514)">
        <stop
           offset="0"
           stop-color="#236736"
           id="stop122" />
        <stop
           offset=".493"
           stop-color="#6ba443"
           id="stop124" />
        <stop
           offset="1"
           stop-color="#86c146"
           id="stop126" />
      </linearGradient>
      <path
         fill="url(#f)"
         d="m 2066.418,-80.682 h -134.543 c -40.637,0 -56.744,21.254 -56.744,42.454 0,13.418 4.316,20.732 10.287,35.641 l 196.072,468.075 2.107,4.109 2.713,4.214 5.643,5.499 8.287,4.428 12,2.643 20.643,-0.534 136.25,-50.644 -46.072,-145.286 z"
         id="path46"
         style="fill:url(#f)" />
      <linearGradient
         id="linearGradient137"
         gradientUnits="userSpaceOnUse"
         x1="-16221.797"
         y1="-6660.6538"
         x2="-15823.801"
         y2="-5712.8491"
         gradientTransform="matrix(0.1741,0,0,-0.1741,5044.277,-686.514)">
        <stop
           offset="0"
           stop-color="#29a5e3"
           id="stop131" />
        <stop
           offset=".515"
           stop-color="#356eb9"
           id="stop133" />
        <stop
           offset="1"
           stop-color="#394da5"
           id="stop135" />
      </linearGradient>
      <path
         fill="url(#g)"
         d="M 2461.477,-275.887 2151.99,456.775 c -5.332,12.474 -13.879,28.569 -36,28.569 -19.768,0 -29.184,-9.568 -34.5,-19.856 2.748,7.419 11.068,21.831 35.186,21.831 h 213.6 c 19.684,0 29.127,-11.592 33.43,-22.205 l 312.971,-741.001 z"
         id="path55"
         style="fill:url(#g)" />
    </g>
  </g>
</svg>
