<?xml version="1.0" encoding="UTF-8" standalone="no"?>
<svg
   xmlns:dc="http://purl.org/dc/elements/1.1/"
   xmlns:cc="http://creativecommons.org/ns#"
   xmlns:rdf="http://www.w3.org/1999/02/22-rdf-syntax-ns#"
   xmlns:svg="http://www.w3.org/2000/svg"
   xmlns="http://www.w3.org/2000/svg"
   xmlns:sodipodi="http://sodipodi.sourceforge.net/DTD/sodipodi-0.dtd"
   xmlns:inkscape="http://www.inkscape.org/namespaces/inkscape"
   width="248.0px"
   height="248.0px"
   viewBox="0 0 248.0 248.0"
   version="1.1"
   id="SVGRoot"
   sodipodi:docname="AWS-App-Mesh Dark.svg"
   inkscape:version="1.0.2-2 (e86c870879, 2021-01-15)">
  <defs
     id="defs1402">
    <inkscape:path-effect
       effect="fillet_chamfer"
       id="path-effect2040"
       is_visible="true"
       lpeversion="1"
       satellites_param="F,0,0,1,0,0,0,1 @ F,0,0,1,0,6.0755415,0,1 @ F,0,0,1,0,6.1445293,0,1 @ F,0,0,1,0,0,0,1"
       unit="px"
       method="auto"
       mode="F"
       radius="0"
       chamfer_steps="1"
       flexible="false"
       use_knot_distance="true"
       apply_no_radius="true"
       apply_with_radius="true"
       only_selected="true"
       hide_knots="false" />
    <style
       id="style1979">.cls-1{fill:url(#GreenGradient);}.cls-2{fill:#fff;}</style>
    <linearGradient
       id="GreenGradient"
       x1="-522.53"
       y1="465.47"
       x2="-416.47"
       y2="571.53"
       gradientTransform="rotate(-90,-456.5,24.5)"
       gradientUnits="userSpaceOnUse">
      <stop
         offset="0"
         stop-color="#1b660f"
         id="stop1981" />
      <stop
         offset="1"
         stop-color="#6cae3e"
         id="stop1983" />
    </linearGradient>
    <linearGradient
       id="a"
       gradientTransform="matrix(10.948793,0,0,-10.948793,-716.33299,1823.6321)"
       gradientUnits="userSpaceOnUse"
       x1="62.57"
       x2="25.030001"
       y1="150.13"
       y2="85.110001">
      <stop
         offset="0"
         stop-color="#0052cc"
         id="stop2" />
      <stop
         offset=".92"
         stop-color="#2684ff"
         id="stop4-5" />
    </linearGradient>
  </defs>
  <sodipodi:namedview
     id="base"
     pagecolor="#101010"
     bordercolor="#666666"
     borderopacity="1.0"
     inkscape:pageopacity="0"
     inkscape:pageshadow="2"
     inkscape:zoom="1.7379032"
     inkscape:cx="124"
     inkscape:cy="124"
     inkscape:document-units="px"
     inkscape:current-layer="layer2"
     inkscape:document-rotation="0"
     showgrid="true"
     inkscape:window-width="1366"
     inkscape:window-height="705"
     inkscape:window-x="-8"
     inkscape:window-y="-8"
     inkscape:window-maximized="1"
     inkscape:snap-global="false"
     showguides="true">
    <inkscape:grid
       type="xygrid"
       id="grid1972" />
  </sodipodi:namedview>
  <metadata
     id="metadata1405">
    <rdf:RDF>
      <cc:Work
         rdf:about="">
        <dc:format>image/svg+xml</dc:format>
        <dc:type
           rdf:resource="http://purl.org/dc/dcmitype/StillImage" />
        <dc:title />
      </cc:Work>
    </rdf:RDF>
  </metadata>
  <g
     inkscape:groupmode="layer"
     id="layer3"
     inkscape:label="BG" />
  <g
     inkscape:groupmode="layer"
     id="layer4"
     inkscape:label="Bounding Box" />
  <g
     inkscape:groupmode="layer"
     id="layer2"
     inkscape:label="Top">
    <g
       id="g847"
       transform="translate(-0.19315289,-0.04989999)"
       style="fill:#5e5c64">
      <path
         style="fill:#5e5c64;fill-opacity:0.326613;stroke:none;stroke-width:3;stroke-linecap:round;stroke-linejoin:round;stroke-miterlimit:4;stroke-dasharray:none;stroke-opacity:1;paint-order:normal"
         id="path885"
         sodipodi:type="arc"
         sodipodi:cx="154.57903"
         sodipodi:cy="83.172447"
         sodipodi:rx="111.24603"
         sodipodi:ry="111.24603"
         sodipodi:start="5.9893981"
         sodipodi:end="5.9807042"
         sodipodi:open="true"
         sodipodi:arc-type="arc"
         transform="rotate(16.68412)"
         d="M 261.05862,50.957906 A 111.24603,111.24603 0 0 1 187.02492,189.58177 111.24603,111.24603 0 0 1 48.240476,115.84954 111.24603,111.24603 0 0 1 121.67088,-23.094829 111.24603,111.24603 0 0 1 260.77453,50.033412" />
      <path
         style="fill:#5e5c64;fill-opacity:1;stroke:#ffffff;stroke-width:4.5;stroke-linecap:round;stroke-linejoin:round;stroke-miterlimit:4;stroke-dasharray:none;stroke-opacity:1;paint-order:normal"
         id="path883-9"
         sodipodi:type="arc"
         sodipodi:cx="154.57903"
         sodipodi:cy="83.172447"
         sodipodi:rx="111.24604"
         sodipodi:ry="111.24604"
         sodipodi:start="5.9893981"
         sodipodi:end="5.9807042"
         sodipodi:open="true"
         sodipodi:arc-type="arc"
         transform="rotate(16.68412)"
         d="M 261.05862,50.957904 A 111.24604,111.24604 0 0 1 187.02492,189.58178 111.24604,111.24604 0 0 1 48.240468,115.84955 111.24604,111.24604 0 0 1 121.67088,-23.094836 111.24604,111.24604 0 0 1 260.77453,50.03341" />
    </g>
    <g
       id="Icon_Test"
       data-name="Icon Test"
       transform="matrix(2.9047259,0,0,2.9047259,15.076366,15.058254)">
      <path
         class="cls-2"
         d="m 21.23,26.23 -1,-1.76 5.87,-3.19 1,1.76 z m 9.38,-5.11 -1,-1.76 5.26,-2.88 1,1.76 z"
         id="path14" />
      <path
         class="cls-2"
         d="m 36,35.59 -5.3,-2.77 0.92,-1.77 5.32,2.77 z M 27.15,31 l -5.32,-2.8 0.92,-1.77 5.32,2.77 z"
         id="path16" />
      <path
         class="cls-2"
         d="M 39.92,35.47 39,33.67 44.43,31 l 0.88,1.79 z m 9,-4.41 -0.92,-1.79 5.38,-2.65 0.88,1.8 z"
         id="path18" />
      <path
         class="cls-2"
         d="m 35.41,59.16 -6,-3.17 0.93,-1.77 6,3.17 z m -9,-4.66 -5.28,-2.84 0.95,-1.76 5.28,2.84 z"
         id="path20" />
      <rect
         class="cls-2"
         x="19.040001"
         y="28.84"
         width="2"
         height="7.6999998"
         id="rect22" />
      <rect
         class="cls-2"
         x="36.599998"
         y="48.790001"
         width="2"
         height="7.8800001"
         id="rect24" />
      <path
         class="cls-2"
         d="M 20,29.64 A 2.71,2.71 0 0 1 17.3,26.93 2.69,2.69 0 0 1 18.13,25 2.77,2.77 0 0 1 22,25 v 0 a 2.68,2.68 0 0 1 0,3.82 2.65,2.65 0 0 1 -2,0.82 z m 0,-3.41 a 0.68,0.68 0 0 0 -0.7,0.7 0.7,0.7 0 0 0 0.2,0.5 0.71,0.71 0 0 0 1.21,-0.5 0.75,0.75 0 0 0 -0.21,-0.5 0.74,0.74 0 0 0 -0.5,-0.2 z"
         id="path26" />
      <path
         class="cls-2"
         d="m 20,52 a 2.71,2.71 0 0 1 -1.91,-4.62 2.77,2.77 0 0 1 3.82,0 v 0 a 2.69,2.69 0 0 1 0,3.83 A 2.67,2.67 0 0 1 20,52 Z m 0,-3.41 a 0.7,0.7 0 0 0 -0.7,0.71 0.7,0.7 0 0 0 1.2,0.49 0.69,0.69 0 0 0 0,-1 v 0 A 0.7,0.7 0 0 0 20,48.63 Z"
         id="path28" />
      <path
         class="cls-2"
         d="M 37.6,61 A 2.7,2.7 0 1 1 39.51,56.39 2.7,2.7 0 0 1 37.6,61 Z m 0,-3.4 a 0.74,0.74 0 0 0 -0.5,0.2 0.71,0.71 0 1 0 1,0 0.74,0.74 0 0 0 -0.5,-0.21 z"
         id="path30" />
      <path
         class="cls-2"
         d="m 37.6,38.57 a 2.71,2.71 0 1 1 1.91,-0.79 2.71,2.71 0 0 1 -1.91,0.79 z m 0,-3.41 a 0.71,0.71 0 0 0 -0.5,1.2 0.72,0.72 0 0 0 1,0 0.71,0.71 0 0 0 -0.5,-1.2 z"
         id="path32" />
      <path
         class="cls-2"
         d="m 55,52 a 2.65,2.65 0 0 1 -1.91,-0.79 2.7,2.7 0 0 1 0,-3.83 2.77,2.77 0 0 1 3.82,0 A 2.71,2.71 0 0 1 55,52 Z m 0,-3.41 A 0.71,0.71 0 1 0 55.5,48.8 0.7,0.7 0 0 0 55,48.63 Z"
         id="path34" />
      <path
         class="cls-2"
         d="m 55,29.64 a 2.65,2.65 0 0 1 -1.91,-0.8 2.69,2.69 0 0 1 0,-3.82 2.77,2.77 0 0 1 3.82,0 v 0 a 2.71,2.71 0 0 1 0,3.82 2.65,2.65 0 0 1 -1.91,0.8 z m 0,-3.41 a 0.74,0.74 0 0 0 -0.5,0.2 0.72,0.72 0 0 0 0,1 0.71,0.71 0 0 0 1,0 0.72,0.72 0 0 0 0,-1 0.74,0.74 0 0 0 -0.5,-0.2 z"
         id="path36" />
      <path
         class="cls-2"
         d="m 37.6,19.41 a 2.7,2.7 0 1 1 1.91,-4.61 2.7,2.7 0 0 1 -1.91,4.61 z m 0,-3.4 a 0.74,0.74 0 0 0 -0.5,0.2 0.71,0.71 0 1 0 1,0 A 0.74,0.74 0 0 0 37.6,16 Z"
         id="path38" />
      <rect
         class="cls-2"
         x="19.040001"
         y="38.540001"
         width="2"
         height="8.6499996"
         id="rect40" />
      <rect
         class="cls-2"
         x="53.849998"
         y="28.84"
         width="2"
         height="7.6999998"
         id="rect42" />
      <rect
         class="cls-2"
         x="53.849998"
         y="38.540001"
         width="2"
         height="8.6499996"
         id="rect44" />
      <path
         class="cls-2"
         d="m 48.15,23 1,-1.75 5.74,3.06 -1,1.76 z m -9.59,-5.19 1,-1.75 6.08,3.27 -1,1.75 z"
         id="path46" />
      <rect
         class="cls-2"
         x="36.599998"
         y="37.75"
         width="2"
         height="7.9099998"
         id="rect48" />
      <path
         class="cls-2"
         d="m 38.91,57.4 5.78,-3 0.93,1.78 -5.78,3 z m 8.74,-4.49 5.72,-3 1,1.76 -5.72,3 z"
         id="path50" />
    </g>
  </g>
</svg>
