<?xml version="1.0" encoding="UTF-8" standalone="no"?>
<svg
   xmlns:dc="http://purl.org/dc/elements/1.1/"
   xmlns:cc="http://creativecommons.org/ns#"
   xmlns:rdf="http://www.w3.org/1999/02/22-rdf-syntax-ns#"
   xmlns:svg="http://www.w3.org/2000/svg"
   xmlns="http://www.w3.org/2000/svg"
   xmlns:sodipodi="http://sodipodi.sourceforge.net/DTD/sodipodi-0.dtd"
   xmlns:inkscape="http://www.inkscape.org/namespaces/inkscape"
   width="248.0px"
   height="248.0px"
   viewBox="0 0 248.0 248.0"
   version="1.1"
   id="SVGRoot"
   sodipodi:docname="box-seeklogo.com White.svg"
   inkscape:version="1.0.2-2 (e86c870879, 2021-01-15)">
  <defs
     id="defs1402">
    <inkscape:path-effect
       effect="fillet_chamfer"
       id="path-effect2040"
       is_visible="true"
       lpeversion="1"
       satellites_param="F,0,0,1,0,0,0,1 @ F,0,0,1,0,6.0755415,0,1 @ F,0,0,1,0,6.1445293,0,1 @ F,0,0,1,0,0,0,1"
       unit="px"
       method="auto"
       mode="F"
       radius="0"
       chamfer_steps="1"
       flexible="false"
       use_knot_distance="true"
       apply_no_radius="true"
       apply_with_radius="true"
       only_selected="true"
       hide_knots="false" />
    <style
       id="style1979">.cls-1{fill:url(#GreenGradient);}.cls-2{fill:#fff;}</style>
    <linearGradient
       id="GreenGradient"
       x1="-522.53"
       y1="465.47"
       x2="-416.47"
       y2="571.53"
       gradientTransform="rotate(-90,-456.5,24.5)"
       gradientUnits="userSpaceOnUse">
      <stop
         offset="0"
         stop-color="#1b660f"
         id="stop1981" />
      <stop
         offset="1"
         stop-color="#6cae3e"
         id="stop1983" />
    </linearGradient>
    <linearGradient
       id="OrangeGradient"
       x1="1131.1"
       y1="-516.47998"
       x2="1131.1"
       y2="-366.48001"
       gradientTransform="rotate(-135,816.69218,-8.7994369)"
       gradientUnits="userSpaceOnUse">
      <stop
         offset="0"
         stop-color="#c8511b"
         id="stop138" />
      <stop
         offset="1"
         stop-color="#f90"
         id="stop140" />
    </linearGradient>
  </defs>
  <sodipodi:namedview
     id="base"
     pagecolor="#ffffff"
     bordercolor="#666666"
     borderopacity="1.0"
     inkscape:pageopacity="0"
     inkscape:pageshadow="2"
     inkscape:zoom="1.2269109"
     inkscape:cx="124"
     inkscape:cy="124"
     inkscape:document-units="px"
     inkscape:current-layer="layer2"
     inkscape:document-rotation="0"
     showgrid="true"
     inkscape:window-width="1366"
     inkscape:window-height="705"
     inkscape:window-x="-8"
     inkscape:window-y="-8"
     inkscape:window-maximized="1"
     inkscape:snap-global="false"
     showguides="true">
    <inkscape:grid
       type="xygrid"
       id="grid1972" />
  </sodipodi:namedview>
  <metadata
     id="metadata1405">
    <rdf:RDF>
      <cc:Work
         rdf:about="">
        <dc:format>image/svg+xml</dc:format>
        <dc:type
           rdf:resource="http://purl.org/dc/dcmitype/StillImage" />
        <dc:title />
      </cc:Work>
    </rdf:RDF>
  </metadata>
  <g
     inkscape:groupmode="layer"
     id="layer3"
     inkscape:label="BG" />
  <g
     inkscape:groupmode="layer"
     id="layer4"
     inkscape:label="Bounding Box" />
  <g
     inkscape:groupmode="layer"
     id="layer2"
     inkscape:label="Top">
    <g
       id="g858"
       transform="translate(-0.19315289,-0.04989999)">
      <path
         style="fill:none;fill-opacity:1;stroke:#000000;stroke-width:4.5;stroke-linecap:round;stroke-linejoin:round;stroke-miterlimit:4;stroke-dasharray:none;stroke-opacity:1;paint-order:normal"
         id="path883"
         sodipodi:type="arc"
         sodipodi:cx="154.57903"
         sodipodi:cy="83.172447"
         sodipodi:rx="111.24604"
         sodipodi:ry="111.24604"
         sodipodi:start="5.9893981"
         sodipodi:end="5.9807042"
         sodipodi:open="true"
         sodipodi:arc-type="arc"
         transform="rotate(16.68412)"
         d="M 261.05862,50.957904 A 111.24604,111.24604 0 0 1 187.02492,189.58178 111.24604,111.24604 0 0 1 48.240468,115.84955 111.24604,111.24604 0 0 1 121.67088,-23.094836 111.24604,111.24604 0 0 1 260.77453,50.03341" />
      <path
         style="fill:#3d3846;fill-opacity:0.326613;stroke:none;stroke-width:4.45107;stroke-linecap:round;stroke-linejoin:round;stroke-miterlimit:4;stroke-dasharray:none;stroke-opacity:1;paint-order:normal"
         id="path885"
         sodipodi:type="arc"
         sodipodi:cx="154.57903"
         sodipodi:cy="83.172447"
         sodipodi:rx="110.03654"
         sodipodi:ry="110.03654"
         sodipodi:start="5.9893981"
         sodipodi:end="5.9807042"
         sodipodi:open="true"
         sodipodi:arc-type="arc"
         transform="rotate(16.68412)"
         d="M 259.90094,51.308151 A 110.03654,110.03654 0 0 1 186.67216,188.42486 110.03654,110.03654 0 0 1 49.396616,115.49427 110.03654,110.03654 0 0 1 122.02867,-21.939463 110.03654,110.03654 0 0 1 259.61994,50.393709" />
    </g>
    <g
       id="g8"
       transform="matrix(0.47812099,0,0,0.47812099,62.800513,62.800513)">
      <path
         d="M 213.564,256 H 42.436 C 18.999,256 0,237.001 0,213.564 V 42.436 C 0,18.999 18.999,0 42.436,0 H 213.564 C 237.001,0 256,18.999 256,42.436 V 213.564 C 256,237.001 237.001,256 213.564,256"
         fill="#00aeef"
         id="path2" />
      <path
         d="m 131.02,107.786 c -13.319,0 -24.909,7.492 -30.746,18.491 -5.839,-10.999 -17.423,-18.491 -30.751,-18.491 -7.826,0 -15.056,2.589 -20.89,6.961 V 85.424 c -0.069,-3.789 -3.159,-6.822 -6.961,-6.822 -3.802,0 -6.862,3.033 -6.949,6.822 v 57.742 h 0.007 c 0.307,18.959 15.757,34.232 34.793,34.232 13.328,0 24.912,-7.499 30.751,-18.487 5.837,10.988 17.427,18.487 30.746,18.487 19.216,0 34.804,-15.582 34.804,-34.813 0,-19.221 -15.588,-34.799 -34.804,-34.799 m -61.497,55.677 c -11.531,0 -20.89,-9.341 -20.89,-20.873 0,-11.528 9.359,-20.87 20.89,-20.87 11.53,0 20.869,9.342 20.869,20.865 0,11.534 -9.339,20.878 -20.869,20.878 m 61.497,0 c -11.534,0 -20.886,-9.344 -20.886,-20.878 0,-11.523 9.352,-20.865 20.886,-20.865 11.529,0 20.876,9.342 20.876,20.865 0,11.534 -9.347,20.878 -20.876,20.878"
         fill="#ffffff"
         id="path4" />
      <path
         d="m 219.83,165.745 -18.918,-23.205 18.941,-23.25 c 2.395,-3.067 1.708,-7.35 -1.598,-9.625 -3.31,-2.295 -7.954,-1.707 -10.515,1.269 v -0.004 l -16.296,19.972 -16.281,-19.972 v 0.004 c -2.535,-2.976 -7.208,-3.564 -10.508,-1.269 -3.3,2.277 -3.99,6.558 -1.583,9.625 h -0.007 l 18.908,23.25 -18.908,23.205 h 0.007 c -2.407,3.077 -1.717,7.346 1.583,9.631 3.3,2.285 7.973,1.703 10.508,-1.277 l 16.281,-19.944 16.273,19.944 c 2.564,2.98 7.206,3.562 10.516,1.277 3.307,-2.285 3.997,-6.554 1.597,-9.631"
         fill="#ffffff"
         id="path6" />
    </g>
  </g>
</svg>
