<?xml version="1.0" encoding="UTF-8" standalone="no"?>
<svg
   xmlns:dc="http://purl.org/dc/elements/1.1/"
   xmlns:cc="http://creativecommons.org/ns#"
   xmlns:rdf="http://www.w3.org/1999/02/22-rdf-syntax-ns#"
   xmlns:svg="http://www.w3.org/2000/svg"
   xmlns="http://www.w3.org/2000/svg"
   xmlns:sodipodi="http://sodipodi.sourceforge.net/DTD/sodipodi-0.dtd"
   xmlns:inkscape="http://www.inkscape.org/namespaces/inkscape"
   width="248.0px"
   height="248.0px"
   viewBox="0 0 248.0 248.0"
   version="1.1"
   id="SVGRoot"
   sodipodi:docname="cloud-bigtable-512 White.svg"
   inkscape:version="1.0.2-2 (e86c870879, 2021-01-15)">
  <defs
     id="defs1402">
    <inkscape:path-effect
       effect="fillet_chamfer"
       id="path-effect2040"
       is_visible="true"
       lpeversion="1"
       satellites_param="F,0,0,1,0,0,0,1 @ F,0,0,1,0,6.0755415,0,1 @ F,0,0,1,0,6.1445293,0,1 @ F,0,0,1,0,0,0,1"
       unit="px"
       method="auto"
       mode="F"
       radius="0"
       chamfer_steps="1"
       flexible="false"
       use_knot_distance="true"
       apply_no_radius="true"
       apply_with_radius="true"
       only_selected="true"
       hide_knots="false" />
    <style
       id="style1979">.cls-1{fill:url(#GreenGradient);}.cls-2{fill:#fff;}</style>
    <linearGradient
       id="GreenGradient"
       x1="-522.53"
       y1="465.47"
       x2="-416.47"
       y2="571.53"
       gradientTransform="rotate(-90,-456.5,24.5)"
       gradientUnits="userSpaceOnUse">
      <stop
         offset="0"
         stop-color="#1b660f"
         id="stop1981" />
      <stop
         offset="1"
         stop-color="#6cae3e"
         id="stop1983" />
    </linearGradient>
    <linearGradient
       id="OrangeGradient"
       x1="1131.1"
       y1="-516.47998"
       x2="1131.1"
       y2="-366.48001"
       gradientTransform="rotate(-135,816.69218,-8.7994369)"
       gradientUnits="userSpaceOnUse">
      <stop
         offset="0"
         stop-color="#c8511b"
         id="stop138" />
      <stop
         offset="1"
         stop-color="#f90"
         id="stop140" />
    </linearGradient>
    <linearGradient
       id="a"
       gradientTransform="matrix(10.948793,0,0,-10.948793,-716.33299,1823.6321)"
       gradientUnits="userSpaceOnUse"
       x1="62.57"
       x2="25.030001"
       y1="150.13"
       y2="85.110001">
      <stop
         offset="0"
         stop-color="#0052cc"
         id="stop2" />
      <stop
         offset=".92"
         stop-color="#2684ff"
         id="stop4-5" />
    </linearGradient>
    <filter
       style="color-interpolation-filters:sRGB;"
       inkscape:label="Colorize"
       id="filter754">
      <feComposite
         in2="SourceGraphic"
         operator="arithmetic"
         k1="0"
         k2="1"
         result="composite1"
         id="feComposite740" />
      <feColorMatrix
         in="composite1"
         values="1"
         type="saturate"
         result="colormatrix1"
         id="feColorMatrix742" />
      <feFlood
         flood-opacity="1"
         flood-color="rgb(66,101,153)"
         result="flood1"
         id="feFlood744" />
      <feBlend
         in="flood1"
         in2="colormatrix1"
         mode="multiply"
         result="blend1"
         id="feBlend746" />
      <feBlend
         in2="blend1"
         mode="screen"
         result="blend2"
         id="feBlend748" />
      <feColorMatrix
         in="blend2"
         values="1"
         type="saturate"
         result="colormatrix2"
         id="feColorMatrix750" />
      <feComposite
         in="colormatrix2"
         in2="SourceGraphic"
         operator="in"
         k2="1"
         result="composite2"
         id="feComposite752" />
    </filter>
  </defs>
  <sodipodi:namedview
     id="base"
     pagecolor="#ffffff"
     bordercolor="#666666"
     borderopacity="1.0"
     inkscape:pageopacity="0"
     inkscape:pageshadow="2"
     inkscape:zoom="1.4969945"
     inkscape:cx="124"
     inkscape:cy="124"
     inkscape:document-units="px"
     inkscape:current-layer="layer2"
     inkscape:document-rotation="0"
     showgrid="true"
     inkscape:window-width="1366"
     inkscape:window-height="705"
     inkscape:window-x="-8"
     inkscape:window-y="-8"
     inkscape:window-maximized="1"
     inkscape:snap-global="false"
     showguides="true">
    <inkscape:grid
       type="xygrid"
       id="grid1972" />
  </sodipodi:namedview>
  <metadata
     id="metadata1405">
    <rdf:RDF>
      <cc:Work
         rdf:about="">
        <dc:format>image/svg+xml</dc:format>
        <dc:type
           rdf:resource="http://purl.org/dc/dcmitype/StillImage" />
        <dc:title />
      </cc:Work>
    </rdf:RDF>
  </metadata>
  <g
     inkscape:groupmode="layer"
     id="layer3"
     inkscape:label="BG" />
  <g
     inkscape:groupmode="layer"
     id="layer4"
     inkscape:label="Bounding Box" />
  <g
     inkscape:groupmode="layer"
     id="layer2"
     inkscape:label="Top">
    <g
       id="g858"
       transform="translate(-0.19315289,-0.04989999)">
      <path
         style="fill:none;fill-opacity:1;stroke:#000000;stroke-width:4.5;stroke-linecap:round;stroke-linejoin:round;stroke-miterlimit:4;stroke-dasharray:none;stroke-opacity:1;paint-order:normal"
         id="path883"
         sodipodi:type="arc"
         sodipodi:cx="154.57903"
         sodipodi:cy="83.172447"
         sodipodi:rx="111.24604"
         sodipodi:ry="111.24604"
         sodipodi:start="5.9893981"
         sodipodi:end="5.9807042"
         sodipodi:open="true"
         sodipodi:arc-type="arc"
         transform="rotate(16.68412)"
         d="M 261.05862,50.957904 A 111.24604,111.24604 0 0 1 187.02492,189.58178 111.24604,111.24604 0 0 1 48.240468,115.84955 111.24604,111.24604 0 0 1 121.67088,-23.094836 111.24604,111.24604 0 0 1 260.77453,50.03341" />
      <path
         style="fill:#3d3846;fill-opacity:0.326613;stroke:none;stroke-width:4.45107;stroke-linecap:round;stroke-linejoin:round;stroke-miterlimit:4;stroke-dasharray:none;stroke-opacity:1;paint-order:normal"
         id="path885"
         sodipodi:type="arc"
         sodipodi:cx="154.57903"
         sodipodi:cy="83.172447"
         sodipodi:rx="110.03654"
         sodipodi:ry="110.03654"
         sodipodi:start="5.9893981"
         sodipodi:end="5.9807042"
         sodipodi:open="true"
         sodipodi:arc-type="arc"
         transform="rotate(16.68412)"
         d="M 259.90094,51.308151 A 110.03654,110.03654 0 0 1 186.67216,188.42486 110.03654,110.03654 0 0 1 49.396616,115.49427 110.03654,110.03654 0 0 1 122.02867,-21.939463 110.03654,110.03654 0 0 1 259.61994,50.393709" />
    </g>
    <g
       id="g120"
       transform="matrix(6.1984479,0,0,6.1984479,49.605809,49.570877)"
       style="filter:url(#filter754)">
      <path
         class="cls-1"
         d="M 16.22,6.45 12,3.94 A 2.86,2.86 0 0 1 10.75,2.23 c 0,0 0.16,-0.32 0.38,-0.2 0.22,0.12 3.5,2.06 5.25,3.1 0.63,0.37 0.24,2 0.24,2 a 0.77,0.77 0 0 0 -0.4,-0.68 z"
         id="path8-2"
         style="fill:#669df6;fill-opacity:1" />
      <path
         class="cls-2"
         d="m 17.49,12.69 a 0.35,0.35 0 0 1 -0.16,0.33 l -1,0.68 V 5.75 c 0,-0.27 0.17,-0.56 -0.06,-0.7 l 0.92,0.68 a 0.73,0.73 0 0 1 0.35,0.65 z"
         id="path10-8"
         style="fill:#aecbfa;fill-opacity:1" />
      <path
         class="cls-1"
         d="M 12,13.6 A 0.36,0.36 0 0 1 11.8,13.54 L 8.34,11.48 v 0.9 l 3.66,2.18 0.29,-0.57 c 0,0 -0.22,-0.39 -0.29,-0.39 z"
         id="path12-8"
         style="fill:#669df6;fill-opacity:1" />
      <path
         class="cls-1"
         d="m 12.2,15.4 a 0.36,0.36 0 0 1 -0.4,0 L 8.34,13.34 V 14 a 0.42,0.42 0 0 0 0.19,0.35 l 3.28,2 a 0.37,0.37 0 0 0 0.38,0 2,2 0 0 0 0.2,-0.52 L 12.2,15.44 Z"
         id="path14-9"
         style="fill:#669df6;fill-opacity:1" />
      <path
         class="cls-2"
         d="m 12,12.73 3.66,-2.18 V 10.12 A 0.39,0.39 0 0 0 15.47,9.78 l -3.28,-2 a 0.37,0.37 0 0 0 -0.38,0 l -3.28,2 a 0.41,0.41 0 0 0 -0.19,0.34 v 0.43 z"
         id="path16-7"
         style="fill:#aecbfa;fill-opacity:1" />
      <path
         class="cls-1"
         d="M 12,11.83 8.53,9.78 a 0.41,0.41 0 0 0 -0.19,0.34 v 0.43 l 3.66,2.18 0.28,-0.56 z"
         id="path18-8"
         style="fill:#669df6;fill-opacity:1" />
      <path
         class="cls-3"
         d="m 12,13.6 v 1 l 3.66,-2.18 v -0.9 L 12.2,13.54 A 0.65,0.65 0 0 1 12,13.6 Z"
         id="path20-9"
         style="fill:#4285f4;fill-opacity:1" />
      <path
         class="cls-3"
         d="M 12.2,15.4 A 0.36,0.36 0 0 1 12,15.46 c 0,0.28 0,0.9 0,0.9 a 0.5,0.5 0 0 0 0.21,-0.05 l 3.28,-2 a 0.39,0.39 0 0 0 0.19,-0.35 V 13.3 Z"
         id="path22-3"
         style="fill:#4285f4;fill-opacity:1" />
      <path
         class="cls-3"
         d="M 15.47,9.78 12,11.83 v 0.9 l 3.66,-2.18 V 10.12 A 0.39,0.39 0 0 0 15.47,9.78 Z"
         id="path24-4"
         style="fill:#4285f4;fill-opacity:1" />
      <path
         class="cls-1"
         d="M 7.78,17.53 11.93,20 a 2.72,2.72 0 0 1 1.28,1.8 0.18,0.18 0 0 1 -0.28,0.18 L 7.48,18.75 C 6.95,18.43 7.41,16.87 7.41,16.87 a 0.77,0.77 0 0 0 0.37,0.66 z"
         id="path26-7"
         style="fill:#669df6;fill-opacity:1" />
      <path
         class="cls-2"
         d="M 6.51,17.73 V 11.17 A 0.41,0.41 0 0 1 6.7,10.84 l 1,-0.59 v 7.91 c 0,0.27 0,0.69 0.21,0.83 L 6.85,18.33 a 0.75,0.75 0 0 1 -0.34,-0.6 z"
         id="path28-9"
         style="fill:#aecbfa;fill-opacity:1" />
      <path
         class="cls-1"
         d="m 10.16,5.46 a 0.75,0.75 0 0 0 -0.74,0 L 5.22,8 a 2.63,2.63 0 0 1 -2.08,0.26 0.23,0.23 0 0 1 0,-0.4 C 3.32,7.77 9.46,4.12 9.46,4.12 9.69,3.98 10.2,5.51 10.2,5.51 Z"
         id="path30-0"
         style="fill:#669df6;fill-opacity:1" />
      <path
         class="cls-2"
         d="m 10.15,4.08 5.32,3.15 a 0.37,0.37 0 0 1 0.2,0.31 V 8.72 L 9,4.76 a 0.75,0.75 0 0 0 -0.74,0 L 9.44,4.07 a 0.71,0.71 0 0 1 0.73,0 z"
         id="path32-3"
         style="fill:#aecbfa;fill-opacity:1" />
      <path
         class="cls-1"
         d="m 13.82,18.49 a 0.73,0.73 0 0 0 0.74,0 L 18.76,16 a 2.63,2.63 0 0 1 2.1,-0.25 0.21,0.21 0 0 1 0,0.38 l -6.33,3.75 c -0.22,0.14 -0.74,-1.4 -0.74,-1.4 z"
         id="path34-8"
         style="fill:#669df6;fill-opacity:1" />
      <path
         class="cls-2"
         d="M 8.51,16.75 A 0.56,0.56 0 0 1 8.34,16.42 V 15.26 L 15,19.19 a 0.69,0.69 0 0 0 0.73,0 l -1.18,0.7 a 0.7,0.7 0 0 1 -0.74,0 z"
         id="path36-6"
         style="fill:#aecbfa;fill-opacity:1" />
      <path
         class="cls-1"
         d="m 6.26,9.81 a 0.76,0.76 0 0 0 -0.37,0.65 v 5 a 2.75,2.75 0 0 1 -0.87,2 0.18,0.18 0 0 1 -0.3,-0.13 V 9.77 c 0,-0.28 1.54,0 1.54,0 z"
         id="path38-3"
         style="fill:#669df6;fill-opacity:1" />
      <path
         class="cls-2"
         d="m 9.77,6.52 a 0.34,0.34 0 0 1 0.36,0 l 1,0.59 -6.08,3.56 A 0.77,0.77 0 0 0 4.68,11.33 V 9.94 A 0.72,0.72 0 0 1 5.06,9.3 Z"
         id="path40-2"
         style="fill:#aecbfa;fill-opacity:1" />
      <path
         class="cls-1"
         d="m 18.17,13.44 v -5 a 2.81,2.81 0 0 1 0.84,-2 c 0,0 0.33,-0.11 0.31,0.21 -0.02,0.32 0,7.37 0,7.37 -0.31,0.37 -1.61,0 -1.61,0 a 0.81,0.81 0 0 0 0.46,-0.58 z"
         id="path42-5"
         style="fill:#669df6;fill-opacity:1" />
      <path
         class="cls-2"
         d="m 19,14.61 -4.74,2.85 a 0.35,0.35 0 0 1 -0.37,0 l -1,-0.57 6.11,-3.67 a 0.77,0.77 0 0 0 0.37,-0.66 V 14 C 19.35,14.23 19,14.61 19,14.61 Z"
         id="path44-7"
         style="fill:#aecbfa;fill-opacity:1" />
    </g>
  </g>
</svg>
