<?xml version="1.0" encoding="UTF-8" standalone="no"?>
<svg
   xmlns:dc="http://purl.org/dc/elements/1.1/"
   xmlns:cc="http://creativecommons.org/ns#"
   xmlns:rdf="http://www.w3.org/1999/02/22-rdf-syntax-ns#"
   xmlns:svg="http://www.w3.org/2000/svg"
   xmlns="http://www.w3.org/2000/svg"
   xmlns:sodipodi="http://sodipodi.sourceforge.net/DTD/sodipodi-0.dtd"
   xmlns:inkscape="http://www.inkscape.org/namespaces/inkscape"
   width="248.0px"
   height="248.0px"
   viewBox="0 0 248.0 248.0"
   version="1.1"
   id="SVGRoot"
   sodipodi:docname="datastore Dark.svg"
   inkscape:version="1.0.2-2 (e86c870879, 2021-01-15)">
  <defs
     id="defs1402">
    <inkscape:path-effect
       effect="fillet_chamfer"
       id="path-effect2040"
       is_visible="true"
       lpeversion="1"
       satellites_param="F,0,0,1,0,0,0,1 @ F,0,0,1,0,6.0755415,0,1 @ F,0,0,1,0,6.1445293,0,1 @ F,0,0,1,0,0,0,1"
       unit="px"
       method="auto"
       mode="F"
       radius="0"
       chamfer_steps="1"
       flexible="false"
       use_knot_distance="true"
       apply_no_radius="true"
       apply_with_radius="true"
       only_selected="true"
       hide_knots="false" />
    <style
       id="style1979">.cls-1{fill:url(#GreenGradient);}.cls-2{fill:#fff;}</style>
    <linearGradient
       id="GreenGradient"
       x1="-522.53"
       y1="465.47"
       x2="-416.47"
       y2="571.53"
       gradientTransform="rotate(-90,-456.5,24.5)"
       gradientUnits="userSpaceOnUse">
      <stop
         offset="0"
         stop-color="#1b660f"
         id="stop1981" />
      <stop
         offset="1"
         stop-color="#6cae3e"
         id="stop1983" />
    </linearGradient>
    <linearGradient
       id="a"
       gradientTransform="matrix(10.948793,0,0,-10.948793,-716.33299,1823.6321)"
       gradientUnits="userSpaceOnUse"
       x1="62.57"
       x2="25.030001"
       y1="150.13"
       y2="85.110001">
      <stop
         offset="0"
         stop-color="#0052cc"
         id="stop2" />
      <stop
         offset=".92"
         stop-color="#2684ff"
         id="stop4-5" />
    </linearGradient>
  </defs>
  <sodipodi:namedview
     id="base"
     pagecolor="#101010"
     bordercolor="#666666"
     borderopacity="1.0"
     inkscape:pageopacity="0"
     inkscape:pageshadow="2"
     inkscape:zoom="0.9582142"
     inkscape:cx="123.28639"
     inkscape:cy="126.09039"
     inkscape:document-units="px"
     inkscape:current-layer="layer2"
     inkscape:document-rotation="0"
     showgrid="true"
     inkscape:window-width="1366"
     inkscape:window-height="705"
     inkscape:window-x="-8"
     inkscape:window-y="-8"
     inkscape:window-maximized="1"
     inkscape:snap-global="false"
     showguides="true">
    <inkscape:grid
       type="xygrid"
       id="grid1972" />
  </sodipodi:namedview>
  <metadata
     id="metadata1405">
    <rdf:RDF>
      <cc:Work
         rdf:about="">
        <dc:format>image/svg+xml</dc:format>
        <dc:type
           rdf:resource="http://purl.org/dc/dcmitype/StillImage" />
        <dc:title />
      </cc:Work>
    </rdf:RDF>
  </metadata>
  <g
     inkscape:groupmode="layer"
     id="layer3"
     inkscape:label="BG" />
  <g
     inkscape:groupmode="layer"
     id="layer4"
     inkscape:label="Bounding Box" />
  <g
     inkscape:groupmode="layer"
     id="layer2"
     inkscape:label="Top">
    <g
       id="g847"
       transform="translate(-0.19315289,-0.04989999)"
       style="fill:#5e5c64">
      <path
         style="fill:#5e5c64;fill-opacity:0.326613;stroke:none;stroke-width:3;stroke-linecap:round;stroke-linejoin:round;stroke-miterlimit:4;stroke-dasharray:none;stroke-opacity:1;paint-order:normal"
         id="path885"
         sodipodi:type="arc"
         sodipodi:cx="154.57903"
         sodipodi:cy="83.172447"
         sodipodi:rx="111.24603"
         sodipodi:ry="111.24603"
         sodipodi:start="5.9893981"
         sodipodi:end="5.9807042"
         sodipodi:open="true"
         sodipodi:arc-type="arc"
         transform="rotate(16.68412)"
         d="M 261.05862,50.957906 A 111.24603,111.24603 0 0 1 187.02492,189.58177 111.24603,111.24603 0 0 1 48.240476,115.84954 111.24603,111.24603 0 0 1 121.67088,-23.094829 111.24603,111.24603 0 0 1 260.77453,50.033412" />
      <path
         style="fill:#5e5c64;fill-opacity:1;stroke:#ffffff;stroke-width:4.5;stroke-linecap:round;stroke-linejoin:round;stroke-miterlimit:4;stroke-dasharray:none;stroke-opacity:1;paint-order:normal"
         id="path883-9"
         sodipodi:type="arc"
         sodipodi:cx="154.57903"
         sodipodi:cy="83.172447"
         sodipodi:rx="111.24604"
         sodipodi:ry="111.24604"
         sodipodi:start="5.9893981"
         sodipodi:end="5.9807042"
         sodipodi:open="true"
         sodipodi:arc-type="arc"
         transform="rotate(16.68412)"
         d="M 261.05862,50.957904 A 111.24604,111.24604 0 0 1 187.02492,189.58178 111.24604,111.24604 0 0 1 48.240468,115.84955 111.24604,111.24604 0 0 1 121.67088,-23.094836 111.24604,111.24604 0 0 1 260.77453,50.03341" />
    </g>
    <g
       id="g310"
       transform="translate(-2.9209738,-2.9209748)"
       style="display:inline">
      <polygon
         class="cls-1"
         points="3,7.5 4.5,9 10.5,9 12,7.5 "
         id="polygon8"
         style="fill:#aecbfa;fill-opacity:1"
         transform="matrix(4.8298961,0,0,4.8298961,39.982844,39.982845)" />
      <polygon
         class="cls-2"
         points="12,16.5 12,7.5 10.5,9 10.5,15 "
         id="polygon10"
         style="fill:#669df6;fill-opacity:1"
         transform="matrix(4.8298961,0,0,4.8298961,39.982844,39.982845)" />
      <polygon
         class="cls-1"
         points="3,16.5 4.5,15 4.5,9 3,7.5 "
         id="polygon12"
         style="fill:#aecbfa;fill-opacity:1"
         transform="matrix(4.8298961,0,0,4.8298961,39.982844,39.982845)" />
      <polygon
         class="cls-3"
         points="12,16.5 10.5,15 4.5,15 3,16.5 "
         id="polygon14"
         style="fill:#4285f4;fill-opacity:1"
         transform="matrix(4.8298961,0,0,4.8298961,39.982844,39.982845)" />
      <rect
         class="cls-1"
         x="61.717377"
         y="83.451912"
         width="28.979376"
         height="28.979376"
         id="rect16"
         style="fill:#aecbfa;fill-opacity:1;stroke-width:4.82989" />
      <polygon
         class="cls-3"
         points="13.5,7.5 15,9 21,9 22.5,7.5 "
         id="polygon18"
         style="fill:#4285f4;fill-opacity:1"
         transform="matrix(4.8298961,0,0,4.8298961,39.982844,39.982845)" />
      <polygon
         class="cls-2"
         points="22.5,16.5 22.5,7.5 21,9 21,15 "
         id="polygon20"
         style="fill:#669df6;fill-opacity:1"
         transform="matrix(4.8298961,0,0,4.8298961,39.982844,39.982845)" />
      <polygon
         class="cls-3"
         points="13.5,16.5 15,15 15,9 13.5,7.5 "
         id="polygon22"
         style="fill:#4285f4;fill-opacity:1"
         transform="matrix(4.8298961,0,0,4.8298961,39.982844,39.982845)" />
      <polygon
         class="cls-2"
         points="22.5,16.5 21,15 15,15 13.5,16.5 "
         id="polygon24"
         style="fill:#669df6;fill-opacity:1"
         transform="matrix(4.8298961,0,0,4.8298961,39.982844,39.982845)" />
      <rect
         class="cls-4"
         x="112.43128"
         y="83.451912"
         width="28.979376"
         height="28.979376"
         id="rect26"
         style="fill:#ffffff;stroke-width:4.8299" />
      <polygon
         class="cls-3"
         points="24,7.5 25.5,9 31.5,9 33,7.5 "
         id="polygon28"
         style="fill:#4285f4;fill-opacity:1"
         transform="matrix(4.8298961,0,0,4.8298961,39.982844,39.982845)" />
      <polygon
         class="cls-2"
         points="33,16.5 33,7.5 31.5,9 31.5,15 "
         id="polygon30"
         style="fill:#669df6;fill-opacity:1"
         transform="matrix(4.8298961,0,0,4.8298961,39.982844,39.982845)" />
      <polygon
         class="cls-3"
         points="24,16.5 25.5,15 25.5,9 24,7.5 "
         id="polygon32"
         style="fill:#4285f4;fill-opacity:1"
         transform="matrix(4.8298961,0,0,4.8298961,39.982844,39.982845)" />
      <polygon
         class="cls-2"
         points="33,16.5 31.5,15 25.5,15 24,16.5 "
         id="polygon34"
         style="fill:#669df6;fill-opacity:1"
         transform="matrix(4.8298961,0,0,4.8298961,39.982844,39.982845)" />
      <rect
         class="cls-4"
         x="163.14519"
         y="83.451912"
         width="28.979376"
         height="28.979376"
         id="rect36"
         style="fill:#ffffff;stroke-width:4.8299" />
      <polygon
         class="cls-3"
         points="3,19.5 4.5,21 10.5,21 12,19.5 "
         id="polygon38"
         style="fill:#4285f4;fill-opacity:1"
         transform="matrix(4.8298961,0,0,4.8298961,39.982844,39.982845)" />
      <polygon
         class="cls-2"
         points="12,28.5 12,19.5 10.5,21 10.5,27 "
         id="polygon40"
         style="fill:#669df6;fill-opacity:1"
         transform="matrix(4.8298961,0,0,4.8298961,39.982844,39.982845)" />
      <polygon
         class="cls-3"
         points="3,28.5 4.5,27 4.5,21 3,19.5 "
         id="polygon42"
         style="fill:#4285f4;fill-opacity:1"
         transform="matrix(4.8298961,0,0,4.8298961,39.982844,39.982845)" />
      <polygon
         class="cls-2"
         points="12,28.5 10.5,27 4.5,27 3,28.5 "
         id="polygon44"
         style="fill:#669df6;fill-opacity:1"
         transform="matrix(4.8298961,0,0,4.8298961,39.982844,39.982845)" />
      <rect
         class="cls-4"
         x="61.717377"
         y="141.41066"
         width="28.979376"
         height="28.979376"
         id="rect46"
         style="fill:#ffffff;stroke-width:4.8299" />
      <polygon
         class="cls-1"
         points="13.5,19.5 15,21 21,21 22.5,19.5 "
         id="polygon48"
         style="fill:#aecbfa;fill-opacity:1"
         transform="matrix(4.8298961,0,0,4.8298961,39.982844,39.982845)" />
      <polygon
         class="cls-2"
         points="22.5,28.5 22.5,19.5 21,21 21,27 "
         id="polygon50"
         style="fill:#669df6;fill-opacity:1"
         transform="matrix(4.8298961,0,0,4.8298961,39.982844,39.982845)" />
      <polygon
         class="cls-1"
         points="13.5,28.5 15,27 15,21 13.5,19.5 "
         id="polygon52"
         style="fill:#aecbfa;fill-opacity:1"
         transform="matrix(4.8298961,0,0,4.8298961,39.982844,39.982845)" />
      <polygon
         class="cls-3"
         points="22.5,28.5 21,27 15,27 13.5,28.5 "
         id="polygon54"
         style="fill:#4285f4;fill-opacity:1"
         transform="matrix(4.8298961,0,0,4.8298961,39.982844,39.982845)" />
      <rect
         class="cls-1"
         x="112.43128"
         y="141.41066"
         width="28.979376"
         height="28.979376"
         id="rect56"
         style="fill:#aecbfa;fill-opacity:1;stroke-width:4.8299" />
      <polygon
         class="cls-1"
         points="24,19.5 25.5,21 31.5,21 33,19.5 "
         id="polygon58"
         style="fill:#aecbfa;fill-opacity:1"
         transform="matrix(4.8298961,0,0,4.8298961,39.982844,39.982845)" />
      <polygon
         class="cls-2"
         points="33,28.5 33,19.5 31.5,21 31.5,27 "
         id="polygon60"
         style="fill:#669df6;fill-opacity:1"
         transform="matrix(4.8298961,0,0,4.8298961,39.982844,39.982845)" />
      <polygon
         class="cls-1"
         points="24,28.5 25.5,27 25.5,21 24,19.5 "
         id="polygon62"
         style="fill:#aecbfa;fill-opacity:1"
         transform="matrix(4.8298961,0,0,4.8298961,39.982844,39.982845)" />
      <polygon
         class="cls-3"
         points="33,28.5 31.5,27 25.5,27 24,28.5 "
         id="polygon64"
         style="fill:#4285f4;fill-opacity:1"
         transform="matrix(4.8298961,0,0,4.8298961,39.982844,39.982845)" />
      <rect
         class="cls-1"
         x="163.14519"
         y="141.41066"
         width="28.979376"
         height="28.979376"
         id="rect66"
         style="fill:#aecbfa;fill-opacity:1;stroke-width:4.8299" />
    </g>
  </g>
</svg>
