<?xml version="1.0" encoding="UTF-8" standalone="no"?>
<svg
   xmlns:dc="http://purl.org/dc/elements/1.1/"
   xmlns:cc="http://creativecommons.org/ns#"
   xmlns:rdf="http://www.w3.org/1999/02/22-rdf-syntax-ns#"
   xmlns:svg="http://www.w3.org/2000/svg"
   xmlns="http://www.w3.org/2000/svg"
   xmlns:sodipodi="http://sodipodi.sourceforge.net/DTD/sodipodi-0.dtd"
   xmlns:inkscape="http://www.inkscape.org/namespaces/inkscape"
   width="248.0px"
   height="248.0px"
   viewBox="0 0 248.0 248.0"
   version="1.1"
   id="SVGRoot"
   sodipodi:docname="disqus-ar21 Dark.svg"
   inkscape:version="1.0.2-2 (e86c870879, 2021-01-15)">
  <defs
     id="defs1402">
    <inkscape:path-effect
       effect="fillet_chamfer"
       id="path-effect2040"
       is_visible="true"
       lpeversion="1"
       satellites_param="F,0,0,1,0,0,0,1 @ F,0,0,1,0,6.0755415,0,1 @ F,0,0,1,0,6.1445293,0,1 @ F,0,0,1,0,0,0,1"
       unit="px"
       method="auto"
       mode="F"
       radius="0"
       chamfer_steps="1"
       flexible="false"
       use_knot_distance="true"
       apply_no_radius="true"
       apply_with_radius="true"
       only_selected="true"
       hide_knots="false" />
    <style
       id="style1979">.cls-1{fill:url(#GreenGradient);}.cls-2{fill:#fff;}</style>
    <linearGradient
       id="GreenGradient"
       x1="-522.53"
       y1="465.47"
       x2="-416.47"
       y2="571.53"
       gradientTransform="rotate(-90,-456.5,24.5)"
       gradientUnits="userSpaceOnUse">
      <stop
         offset="0"
         stop-color="#1b660f"
         id="stop1981" />
      <stop
         offset="1"
         stop-color="#6cae3e"
         id="stop1983" />
    </linearGradient>
  </defs>
  <sodipodi:namedview
     id="base"
     pagecolor="#101010"
     bordercolor="#666666"
     borderopacity="1.0"
     inkscape:pageopacity="0"
     inkscape:pageshadow="2"
     inkscape:zoom="1.3552412"
     inkscape:cx="124"
     inkscape:cy="124"
     inkscape:document-units="px"
     inkscape:current-layer="layer2"
     inkscape:document-rotation="0"
     showgrid="true"
     inkscape:window-width="1366"
     inkscape:window-height="705"
     inkscape:window-x="-8"
     inkscape:window-y="-8"
     inkscape:window-maximized="1"
     inkscape:snap-global="false"
     showguides="true">
    <inkscape:grid
       type="xygrid"
       id="grid1972" />
  </sodipodi:namedview>
  <metadata
     id="metadata1405">
    <rdf:RDF>
      <cc:Work
         rdf:about="">
        <dc:format>image/svg+xml</dc:format>
        <dc:type
           rdf:resource="http://purl.org/dc/dcmitype/StillImage" />
        <dc:title />
      </cc:Work>
    </rdf:RDF>
  </metadata>
  <g
     inkscape:groupmode="layer"
     id="layer3"
     inkscape:label="BG" />
  <g
     inkscape:groupmode="layer"
     id="layer4"
     inkscape:label="Bounding Box" />
  <g
     inkscape:groupmode="layer"
     id="layer2"
     inkscape:label="Top">
    <g
       id="g847"
       transform="translate(-0.19315289,-0.04989999)"
       style="fill:#5e5c64">
      <path
         style="fill:#5e5c64;fill-opacity:0.326613;stroke:none;stroke-width:3;stroke-linecap:round;stroke-linejoin:round;stroke-miterlimit:4;stroke-dasharray:none;stroke-opacity:1;paint-order:normal"
         id="path885"
         sodipodi:type="arc"
         sodipodi:cx="154.57903"
         sodipodi:cy="83.172447"
         sodipodi:rx="111.24603"
         sodipodi:ry="111.24603"
         sodipodi:start="5.9893981"
         sodipodi:end="5.9807042"
         sodipodi:open="true"
         sodipodi:arc-type="arc"
         transform="rotate(16.68412)"
         d="M 261.05862,50.957906 A 111.24603,111.24603 0 0 1 187.02492,189.58177 111.24603,111.24603 0 0 1 48.240476,115.84954 111.24603,111.24603 0 0 1 121.67088,-23.094829 111.24603,111.24603 0 0 1 260.77453,50.033412" />
      <path
         style="fill:#5e5c64;fill-opacity:1;stroke:#ffffff;stroke-width:4.5;stroke-linecap:round;stroke-linejoin:round;stroke-miterlimit:4;stroke-dasharray:none;stroke-opacity:1;paint-order:normal"
         id="path883-9"
         sodipodi:type="arc"
         sodipodi:cx="154.57903"
         sodipodi:cy="83.172447"
         sodipodi:rx="111.24604"
         sodipodi:ry="111.24604"
         sodipodi:start="5.9893981"
         sodipodi:end="5.9807042"
         sodipodi:open="true"
         sodipodi:arc-type="arc"
         transform="rotate(16.68412)"
         d="M 261.05862,50.957904 A 111.24604,111.24604 0 0 1 187.02492,189.58178 111.24604,111.24604 0 0 1 48.240468,115.84955 111.24604,111.24604 0 0 1 121.67088,-23.094836 111.24604,111.24604 0 0 1 260.77453,50.03341" />
    </g>
    <g
       id="g16"
       transform="matrix(1.9511168,0,0,1.9511168,6.9446987,70.475988)">
      <path
         d="m 28.943,38.67 h -4.825 v 12.5 h 4.753 c 4.503,0 7.13,-2.68 7.13,-6.3 v -0.036 c 0,-3.6 -2.6,-6.183 -7.058,-6.183 z m 3.502,6.272 c 0,2.02 -1.376,3.163 -3.45,3.163 h -1.412 v -6.36 h 1.412 c 2.073,0 3.45,1.16 3.45,3.163 v 0.036 z m 5.86,6.236 H 41.8 V 38.67 h -3.485 z m 11.526,-7.8 c -1.734,-0.393 -2.162,-0.644 -2.162,-1.215 v -0.036 c 0,-0.447 0.4,-0.804 1.25,-0.804 1.108,0 2.36,0.43 3.503,1.233 l 1.733,-2.45 c -1.358,-1.1 -3.02,-1.662 -5.146,-1.662 -3.002,0 -4.843,1.68 -4.843,4.003 v 0.036 c 0,2.574 2.055,3.324 4.717,3.93 1.698,0.393 2.1,0.68 2.1,1.198 v 0.036 c 0,0.536 -0.5,0.858 -1.43,0.858 -1.447,0 -2.823,-0.518 -4.056,-1.5 l -1.93,2.306 c 1.537,1.376 3.645,2.073 5.86,2.073 3.038,0 5.057,-1.52 5.057,-4.074 v -0.036 c 0,-2.34 -1.787,-3.27 -4.664,-3.895 z m 19.835,1.537 v -0.036 c 0,-3.592 -2.86,-6.47 -6.72,-6.47 -3.86,0 -6.755,2.913 -6.755,6.505 v 0.036 c 0,3.592 2.86,6.47 6.72,6.47 a 6.95,6.95 0 0 0 3.806,-1.108 l 1.376,1.233 1.75,-1.948 -1.286,-1.1 a 6.25,6.25 0 0 0 1.108,-3.592 z m -3.52,0.07 A 3.4,3.4 0 0 1 65.931,46.2 l -1.698,-1.537 -1.75,1.966 1.733,1.483 a 3.56,3.56 0 0 1 -1.268,0.232 c -1.912,0 -3.2,-1.6 -3.2,-3.395 v -0.035 c 0,-1.805 1.27,-3.378 3.163,-3.378 1.93,0 3.235,1.6 3.235,3.413 z M 79.888,45.7 c 0,1.75 -0.912,2.573 -2.306,2.573 -1.394,0 -2.305,-0.857 -2.305,-2.663 v -6.95 h -3.52 v 7.023 c 0,3.914 2.234,5.72 5.8,5.72 3.566,0 5.86,-1.77 5.86,-5.808 V 38.67 h -3.52 v 7.04 z m 11.33,-2.323 c -1.733,-0.393 -2.162,-0.644 -2.162,-1.215 v -0.036 c 0,-0.447 0.4,-0.804 1.25,-0.804 1.107,0 2.36,0.43 3.502,1.233 l 1.733,-2.448 c -1.358,-1.1 -3.02,-1.662 -5.146,-1.662 -3.002,0 -4.843,1.68 -4.843,4.003 v 0.036 c 0,2.574 2.055,3.324 4.718,3.93 1.698,0.393 2.1,0.68 2.1,1.198 v 0.036 c 0,0.536 -0.5,0.858 -1.43,0.858 -1.448,0 -2.824,-0.52 -4.057,-1.5 l -1.93,2.305 c 1.537,1.377 3.645,2.073 5.86,2.073 3.038,0 5.057,-1.52 5.057,-4.074 v -0.036 c 0,-2.34 -1.788,-3.27 -4.664,-3.895 z"
         fill="#229cff"
         id="path2" />
      <path
         d="m 60.538,31.994 c -3.508,0 -6.716,-1.282 -9.196,-3.403 l -6.104,0.834 2.358,-5.82 a 14.37,14.37 0 0 1 -1.282,-5.948 c 0,-7.917 6.368,-14.337 14.224,-14.337 7.856,0 14.222,6.42 14.222,14.337 0,7.917 -6.368,14.337 -14.223,14.337 z m 7.767,-14.378 v -0.04 c 0,-4.137 -2.917,-7.087 -7.948,-7.087 h -5.433 v 14.337 h 5.353 c 5.07,0 8.028,-3.073 8.028,-7.2 z m -7.888,3.687 h -1.6 v -7.3 h 1.6 c 2.334,0 3.883,1.33 3.883,3.626 v 0.04 c 0,2.314 -1.55,3.625 -3.883,3.625 z"
         fill="#2e9fff"
         id="path4" />
    </g>
  </g>
</svg>
