<?xml version="1.0" encoding="UTF-8" standalone="no"?>
<svg
   xmlns:dc="http://purl.org/dc/elements/1.1/"
   xmlns:cc="http://creativecommons.org/ns#"
   xmlns:rdf="http://www.w3.org/1999/02/22-rdf-syntax-ns#"
   xmlns:svg="http://www.w3.org/2000/svg"
   xmlns="http://www.w3.org/2000/svg"
   xmlns:xlink="http://www.w3.org/1999/xlink"
   xmlns:sodipodi="http://sodipodi.sourceforge.net/DTD/sodipodi-0.dtd"
   xmlns:inkscape="http://www.inkscape.org/namespaces/inkscape"
   width="248.0px"
   height="248.0px"
   viewBox="0 0 248.0 248.0"
   version="1.1"
   id="SVGRoot"
   sodipodi:docname="elastic_ Dark.svg"
   inkscape:version="1.0.2-2 (e86c870879, 2021-01-15)">
  <defs
     id="defs1402">
    <inkscape:path-effect
       effect="fillet_chamfer"
       id="path-effect2040"
       is_visible="true"
       lpeversion="1"
       satellites_param="F,0,0,1,0,0,0,1 @ F,0,0,1,0,6.0755415,0,1 @ F,0,0,1,0,6.1445293,0,1 @ F,0,0,1,0,0,0,1"
       unit="px"
       method="auto"
       mode="F"
       radius="0"
       chamfer_steps="1"
       flexible="false"
       use_knot_distance="true"
       apply_no_radius="true"
       apply_with_radius="true"
       only_selected="true"
       hide_knots="false" />
    <style
       id="style1979">.cls-1{fill:url(#GreenGradient);}.cls-2{fill:#fff;}</style>
    <linearGradient
       id="GreenGradient"
       x1="-522.53"
       y1="465.47"
       x2="-416.47"
       y2="571.53"
       gradientTransform="rotate(-90,-456.5,24.5)"
       gradientUnits="userSpaceOnUse">
      <stop
         offset="0"
         stop-color="#1b660f"
         id="stop1981" />
      <stop
         offset="1"
         stop-color="#6cae3e"
         id="stop1983" />
    </linearGradient>
    <clipPath
       id="clip1">
      <path
         d="m 93,27 h 58 V 88.851563 H 93 Z m 0,0"
         id="path2" />
    </clipPath>
    <clipPath
       id="clip2">
      <path
         d="m 161,10 h 41 v 78.851563 h -41 z m 0,0"
         id="path5" />
    </clipPath>
    <clipPath
       id="clip3">
      <path
         d="m 206,0 h 65 v 88.851563 h -65 z m 0,0"
         id="path8" />
    </clipPath>
    <clipPath
       id="clip4">
      <path
         d="m 322,26 h 57 v 62.851563 h -57 z m 0,0"
         id="path11" />
    </clipPath>
    <clipPath
       id="clip5">
      <path
         d="m 415,26 h 58.05859 V 87 H 415 Z m 0,0"
         id="path14" />
    </clipPath>
    <clipPath
       id="clip6">
      <path
         d="M 0,3 H 87 V 88.851563 H 0 Z m 0,0"
         id="path17" />
    </clipPath>
    <clipPath
       id="b">
      <use
         xlink:href="#a"
         overflow="visible"
         id="use5"
         x="0"
         y="0"
         width="100%"
         height="100%" />
    </clipPath>
    <clipPath
       id="d">
      <use
         xlink:href="#c"
         overflow="visible"
         id="use21"
         x="0"
         y="0"
         width="100%"
         height="100%" />
    </clipPath>
    <linearGradient
       id="e"
       gradientUnits="userSpaceOnUse"
       x1="-17845.727"
       y1="-3022.7009"
       x2="-17300.025"
       y2="-3131.4309"
       gradientTransform="matrix(0.1741,0,0,-0.1741,5044.277,-686.514)">
      <stop
         offset="0"
         stop-color="#2b7a77"
         id="stop30" />
      <stop
         offset=".51"
         stop-color="#4ebaa9"
         id="stop32" />
      <stop
         offset="1"
         stop-color="#5cc2b1"
         id="stop34" />
    </linearGradient>
    <linearGradient
       id="f"
       gradientUnits="userSpaceOnUse"
       x1="-16495.199"
       y1="-6380.3711"
       x2="-16765.998"
       y2="-5744.4058"
       gradientTransform="matrix(0.1741,0,0,-0.1741,5044.277,-686.514)">
      <stop
         offset="0"
         stop-color="#236736"
         id="stop39" />
      <stop
         offset=".493"
         stop-color="#6ba443"
         id="stop41" />
      <stop
         offset="1"
         stop-color="#86c146"
         id="stop43" />
    </linearGradient>
    <linearGradient
       id="g"
       gradientUnits="userSpaceOnUse"
       x1="-16221.797"
       y1="-6660.6538"
       x2="-15823.801"
       y2="-5712.8491"
       gradientTransform="matrix(0.1741,0,0,-0.1741,5044.277,-686.514)">
      <stop
         offset="0"
         stop-color="#29a5e3"
         id="stop48" />
      <stop
         offset=".515"
         stop-color="#356eb9"
         id="stop50" />
      <stop
         offset="1"
         stop-color="#394da5"
         id="stop52" />
    </linearGradient>
    <path
       id="path104"
       d="M 196.35,-37.141 H 1196.36 V 128.657 H 196.35 Z" />
    <path
       id="path114"
       d="M 196.35,-37.141 H 1196.36 V 128.657 H 196.35 Z" />
    <clipPath
       id="b-0">
      <use
         xlink:href="#a"
         overflow="visible"
         id="use5-4"
         x="0"
         y="0"
         width="100%"
         height="100%" />
    </clipPath>
    <clipPath
       id="d-7">
      <use
         xlink:href="#c"
         overflow="visible"
         id="use21-2"
         x="0"
         y="0"
         width="100%"
         height="100%" />
    </clipPath>
    <linearGradient
       id="e-6"
       gradientUnits="userSpaceOnUse"
       x1="-17845.727"
       y1="-3022.7009"
       x2="-17300.025"
       y2="-3131.4309"
       gradientTransform="matrix(0.00755454,0,0,0.00755454,162.32374,160.96514)">
      <stop
         offset="0"
         stop-color="#2b7a77"
         id="stop30-6" />
      <stop
         offset=".51"
         stop-color="#4ebaa9"
         id="stop32-2" />
      <stop
         offset="1"
         stop-color="#5cc2b1"
         id="stop34-6" />
    </linearGradient>
    <linearGradient
       id="f-1"
       gradientUnits="userSpaceOnUse"
       x1="-16495.199"
       y1="-6380.3711"
       x2="-16765.998"
       y2="-5744.4058"
       gradientTransform="matrix(0.00755454,0,0,0.00755454,162.32374,160.96514)">
      <stop
         offset="0"
         stop-color="#236736"
         id="stop39-6" />
      <stop
         offset=".493"
         stop-color="#6ba443"
         id="stop41-2" />
      <stop
         offset="1"
         stop-color="#86c146"
         id="stop43-2" />
    </linearGradient>
    <linearGradient
       id="g-0"
       gradientUnits="userSpaceOnUse"
       x1="-16221.797"
       y1="-6660.6538"
       x2="-15823.801"
       y2="-5712.8491"
       gradientTransform="matrix(0.00755454,0,0,0.00755454,162.32374,160.96514)">
      <stop
         offset="0"
         stop-color="#29a5e3"
         id="stop48-6" />
      <stop
         offset=".515"
         stop-color="#356eb9"
         id="stop50-7" />
      <stop
         offset="1"
         stop-color="#394da5"
         id="stop52-5" />
    </linearGradient>
    <path
       id="path104-1"
       d="M 196.35,-37.141 H 1196.36 V 128.657 H 196.35 Z" />
    <path
       id="path114-3"
       d="M 196.35,-37.141 H 1196.36 V 128.657 H 196.35 Z" />
    <clipPath
       id="b-2">
      <use
         xlink:href="#a"
         overflow="visible"
         id="use5-3"
         x="0"
         y="0"
         width="100%"
         height="100%" />
    </clipPath>
    <clipPath
       id="d-1">
      <use
         xlink:href="#c"
         overflow="visible"
         id="use21-6"
         x="0"
         y="0"
         width="100%"
         height="100%" />
    </clipPath>
    <linearGradient
       id="e-3"
       gradientUnits="userSpaceOnUse"
       x1="-17845.727"
       y1="-3022.7009"
       x2="-17300.025"
       y2="-3131.4309"
       gradientTransform="matrix(0.00755454,0,0,0.00755454,161.91371,158.37582)">
      <stop
         offset="0"
         stop-color="#2b7a77"
         id="stop30-5" />
      <stop
         offset=".51"
         stop-color="#4ebaa9"
         id="stop32-3" />
      <stop
         offset="1"
         stop-color="#5cc2b1"
         id="stop34-5" />
    </linearGradient>
    <linearGradient
       id="f-5"
       gradientUnits="userSpaceOnUse"
       x1="-16495.199"
       y1="-6380.3711"
       x2="-16765.998"
       y2="-5744.4058"
       gradientTransform="matrix(0.00755454,0,0,0.00755454,161.91371,158.37582)">
      <stop
         offset="0"
         stop-color="#236736"
         id="stop39-5" />
      <stop
         offset=".493"
         stop-color="#6ba443"
         id="stop41-8" />
      <stop
         offset="1"
         stop-color="#86c146"
         id="stop43-0" />
    </linearGradient>
    <linearGradient
       id="g-4"
       gradientUnits="userSpaceOnUse"
       x1="-16221.797"
       y1="-6660.6538"
       x2="-15823.801"
       y2="-5712.8491"
       gradientTransform="matrix(0.00755454,0,0,0.00755454,161.91371,158.37582)">
      <stop
         offset="0"
         stop-color="#29a5e3"
         id="stop48-0" />
      <stop
         offset=".515"
         stop-color="#356eb9"
         id="stop50-4" />
      <stop
         offset="1"
         stop-color="#394da5"
         id="stop52-2" />
    </linearGradient>
    <path
       id="path104-13"
       d="M 196.35,-37.141 H 1196.36 V 128.657 H 196.35 Z" />
    <path
       id="path114-2"
       d="M 196.35,-37.141 H 1196.36 V 128.657 H 196.35 Z" />
    <clipPath
       id="b-9">
      <use
         xlink:href="#a"
         overflow="visible"
         id="use5-8"
         x="0"
         y="0"
         width="100%"
         height="100%" />
    </clipPath>
    <clipPath
       id="d-2">
      <use
         xlink:href="#c"
         overflow="visible"
         id="use21-0"
         x="0"
         y="0"
         width="100%"
         height="100%" />
    </clipPath>
    <path
       id="a"
       d="M 196.35,-37.141 H 1196.36 V 128.657 H 196.35 Z" />
    <path
       id="c"
       d="M 196.35,-37.141 H 1196.36 V 128.657 H 196.35 Z" />
    <radialGradient
       cx="202.91011"
       cy="65.021362"
       fx="202.91011"
       fy="65.021362"
       r="48.504616"
       id="a-5"
       gradientTransform="scale(1.0005153,0.99948493)"
       gradientUnits="userSpaceOnUse">
      <stop
         stop-color="#FFF"
         offset="0%"
         id="stop2" />
      <stop
         stop-color="#FCE800"
         offset="19.02%"
         id="stop4" />
      <stop
         stop-color="#EC8F27"
         offset="85.93%"
         id="stop6" />
    </radialGradient>
    <linearGradient
       x1="134.77487"
       y1="49.381653"
       x2="134.77487"
       y2="0.55994713"
       id="b-0-7"
       gradientTransform="scale(1.0256763,0.97496651)"
       gradientUnits="userSpaceOnUse">
      <stop
         stop-color="#F68B1F"
         offset="0%"
         id="stop9" />
      <stop
         stop-color="#FFF"
         offset="100%"
         id="stop11" />
    </linearGradient>
    <linearGradient
       x1="53.483879"
       y1="44.051418"
       x2="64.062614"
       y2="62.661644"
       id="c-7"
       gradientUnits="userSpaceOnUse">
      <stop
         stop-color="#FFF"
         offset="0%"
         id="stop14" />
      <stop
         stop-color="#FEF6ED"
         offset="4.821%"
         id="stop16" />
      <stop
         stop-color="#FBD0A5"
         offset="25.69%"
         id="stop18" />
      <stop
         stop-color="#F9B26B"
         offset="44.42%"
         id="stop20" />
      <stop
         stop-color="#F79D42"
         offset="60.34%"
         id="stop22" />
      <stop
         stop-color="#F69028"
         offset="72.82%"
         id="stop24" />
      <stop
         stop-color="#F68B1F"
         offset="80.33%"
         id="stop26" />
    </linearGradient>
    <linearGradient
       x1="2.05039"
       y1="68.696198"
       x2="42.65826"
       y2="192.964"
       id="d-8"
       gradientTransform="scale(1.409801,0.70931995)"
       gradientUnits="userSpaceOnUse">
      <stop
         stop-color="#FFF"
         offset="0%"
         id="stop29" />
      <stop
         stop-color="#FEF6ED"
         offset="4.821%"
         id="stop31" />
      <stop
         stop-color="#FBD0A5"
         offset="25.69%"
         id="stop33" />
      <stop
         stop-color="#F9B26B"
         offset="44.42%"
         id="stop35" />
      <stop
         stop-color="#F79D42"
         offset="60.34%"
         id="stop37" />
      <stop
         stop-color="#F69028"
         offset="72.82%"
         id="stop39-9" />
      <stop
         stop-color="#F68B1F"
         offset="80.33%"
         id="stop41-3" />
    </linearGradient>
    <linearGradient
       x1="180.28741"
       y1="90.57383"
       x2="173.40768"
       y2="123.44773"
       id="e-2"
       gradientTransform="scale(1.2768133,0.78319989)"
       gradientUnits="userSpaceOnUse">
      <stop
         stop-color="#FFF"
         offset="0%"
         id="stop44" />
      <stop
         stop-color="#FEF6ED"
         offset="4.821%"
         id="stop46" />
      <stop
         stop-color="#FBD0A5"
         offset="25.69%"
         id="stop48-4" />
      <stop
         stop-color="#F9B26B"
         offset="44.42%"
         id="stop50-9" />
      <stop
         stop-color="#F79D42"
         offset="60.34%"
         id="stop52-4" />
      <stop
         stop-color="#F69028"
         offset="72.82%"
         id="stop54" />
      <stop
         stop-color="#F68B1F"
         offset="80.33%"
         id="stop56" />
    </linearGradient>
    <linearGradient
       x1="43.736912"
       y1="243.13164"
       x2="43.736912"
       y2="325.8479"
       id="f-6"
       gradientTransform="scale(2.9399166,0.3401457)"
       gradientUnits="userSpaceOnUse">
      <stop
         stop-color="#F68B1F"
         offset="0%"
         id="stop59" />
      <stop
         stop-color="#CB672F"
         offset="53.08%"
         id="stop61" />
      <stop
         stop-color="#A1453F"
         offset="100%"
         id="stop63" />
    </linearGradient>
    <radialGradient
       cx="97.375191"
       cy="132.38023"
       fx="97.375191"
       fy="132.38023"
       r="38.978508"
       id="g-9"
       gradientTransform="scale(1.6664459,0.60007949)"
       gradientUnits="userSpaceOnUse">
      <stop
         stop-color="#FFF"
         offset="0%"
         id="stop66" />
      <stop
         stop-color="#FCE800"
         offset="13.34%"
         id="stop68" />
      <stop
         stop-color="#EC8F27"
         offset="85.93%"
         id="stop70" />
    </radialGradient>
  </defs>
  <sodipodi:namedview
     id="base"
     pagecolor="#101010"
     bordercolor="#666666"
     borderopacity="1.0"
     inkscape:pageopacity="0"
     inkscape:pageshadow="2"
     inkscape:zoom="1.1673772"
     inkscape:cx="86.368322"
     inkscape:cy="120.29206"
     inkscape:document-units="px"
     inkscape:current-layer="layer2"
     inkscape:document-rotation="0"
     showgrid="true"
     inkscape:window-width="1366"
     inkscape:window-height="705"
     inkscape:window-x="-8"
     inkscape:window-y="-8"
     inkscape:window-maximized="1"
     inkscape:snap-global="false"
     showguides="true">
    <inkscape:grid
       type="xygrid"
       id="grid1972" />
  </sodipodi:namedview>
  <metadata
     id="metadata1405">
    <rdf:RDF>
      <cc:Work
         rdf:about="">
        <dc:format>image/svg+xml</dc:format>
        <dc:type
           rdf:resource="http://purl.org/dc/dcmitype/StillImage" />
        <dc:title />
      </cc:Work>
    </rdf:RDF>
  </metadata>
  <g
     inkscape:groupmode="layer"
     id="layer3"
     inkscape:label="BG" />
  <g
     inkscape:groupmode="layer"
     id="layer4"
     inkscape:label="Bounding Box" />
  <g
     inkscape:groupmode="layer"
     id="layer2"
     inkscape:label="Top">
    <g
       id="g847"
       transform="translate(-0.19315289,-0.04989999)"
       style="fill:#5e5c64">
      <path
         style="fill:#5e5c64;fill-opacity:0.326613;stroke:none;stroke-width:3;stroke-linecap:round;stroke-linejoin:round;stroke-miterlimit:4;stroke-dasharray:none;stroke-opacity:1;paint-order:normal"
         id="path885"
         sodipodi:type="arc"
         sodipodi:cx="154.57903"
         sodipodi:cy="83.172447"
         sodipodi:rx="111.24603"
         sodipodi:ry="111.24603"
         sodipodi:start="5.9893981"
         sodipodi:end="5.9807042"
         sodipodi:open="true"
         sodipodi:arc-type="arc"
         transform="rotate(16.68412)"
         d="M 261.05862,50.957906 A 111.24603,111.24603 0 0 1 187.02492,189.58177 111.24603,111.24603 0 0 1 48.240476,115.84954 111.24603,111.24603 0 0 1 121.67088,-23.094829 111.24603,111.24603 0 0 1 260.77453,50.033412" />
      <path
         style="fill:#5e5c64;fill-opacity:1;stroke:#ffffff;stroke-width:4.5;stroke-linecap:round;stroke-linejoin:round;stroke-miterlimit:4;stroke-dasharray:none;stroke-opacity:1;paint-order:normal"
         id="path883-9"
         sodipodi:type="arc"
         sodipodi:cx="154.57903"
         sodipodi:cy="83.172447"
         sodipodi:rx="111.24604"
         sodipodi:ry="111.24604"
         sodipodi:start="5.9893981"
         sodipodi:end="5.9807042"
         sodipodi:open="true"
         sodipodi:arc-type="arc"
         transform="rotate(16.68412)"
         d="M 261.05862,50.957904 A 111.24604,111.24604 0 0 1 187.02492,189.58178 111.24604,111.24604 0 0 1 48.240468,115.84955 111.24604,111.24604 0 0 1 121.67088,-23.094836 111.24604,111.24604 0 0 1 260.77453,50.03341" />
    </g>
    <g
       id="g36"
       transform="matrix(0.25091526,0,0,0.25091526,37.748198,94.44042)">
      <path
         d="M 236.6,123.5 A 46.54,46.54 0 0 0 205.8,79.6 67,67 0 0 0 140.2,0 66.72,66.72 0 0 0 86,27.7 35.5,35.5 0 0 0 28.8,55.8 36.77,36.77 0 0 0 31,68.2 a 46.75,46.75 0 0 0 -0.1,88 66.66,66.66 0 0 0 119.6,51.6 35,35 0 0 0 21.7,7.6 35.51,35.51 0 0 0 35.5,-35.5 36.77,36.77 0 0 0 -2.2,-12.4 47.08,47.08 0 0 0 31.1,-44"
         fill="#ffffff"
         id="path4" />
      <path
         d="M 93,101.5 144.8,125.1 197,79.3 A 54.71,54.71 0 0 0 198.1,67.8 58.35,58.35 0 0 0 91.6,34.8 L 82.9,79.9 Z"
         fill="#fed10a"
         id="path6" />
      <path
         d="m 39.4,156.3 a 56.62,56.62 0 0 0 -1.1,11.7 58.58,58.58 0 0 0 107,32.9 l 8.6,-44.9 -11.5,-22 -52,-23.7 z"
         fill="#24bbb1"
         id="path8-1" />
      <path
         d="m 39.1,66.7 35.5,8.4 7.8,-40.3 A 28,28 0 0 0 39.1,66.7"
         fill="#ef5098"
         id="path10" />
      <path
         d="m 36,75.2 a 39.1,39.1 0 0 0 -1.7,73.7 L 84.1,103.9 75,84.4 Z"
         fill="#17a8e0"
         id="path12" />
      <path
         d="M 154.3,200.9 A 28,28 0 0 0 197.5,169 l -35.4,-8.3 z"
         fill="#93c83e"
         id="path14-9" />
      <path
         d="m 161.5,151.4 39,9.1 a 39.1,39.1 0 0 0 1.7,-73.7 l -51,44.7 z"
         fill="#0779a1"
         id="path16" />
      <path
         d="m 330.8,165.5 4.7,-0.5 0.3,9.6 a 240.62,240.62 0 0 1 -31.8,2.6 q -17.55,0 -24.9,-10.2 c -4.9,-6.8 -7.3,-17.4 -7.3,-31.7 q 0,-42.9 34.1,-42.9 c 11,0 19.2,3.1 24.6,9.2 5.4,6.1 8.1,15.8 8.1,28.9 l -0.7,9.3 h -53.8 c 0,9 1.6,15.7 4.9,20 3.3,4.3 8.9,6.5 17,6.5 a 230,230 0 0 0 24.8,-0.8 z m -4.4,-35.3 c 0,-10 -1.6,-17.1 -4.8,-21.2 -3.2,-4.1 -8.4,-6.2 -15.6,-6.2 -7.2,0 -12.7,2.2 -16.3,6.5 -3.6,4.3 -5.5,11.3 -5.6,20.9 z m 29.2,45.5 v -117 h 12.2 v 117 z m 89.3,-56.9 v 40.1 c 0,4.1 10.1,4.9 10.1,4.9 l -0.6,10.8 c -8.6,0 -15.7,0.7 -20,-3.4 a 71.68,71.68 0 0 1 -29.3,6.1 c -7.5,0 -13.2,-2.1 -17.1,-6.4 -3.9,-4.3 -5.9,-10.3 -5.9,-18.3 0,-8 2,-13.8 6,-17.5 4,-3.7 10.3,-6.1 18.9,-6.9 l 25.6,-2.4 v -7 c 0,-5.5 -1.2,-9.5 -3.6,-11.9 -2.4,-2.4 -5.7,-3.6 -9.8,-3.6 H 387.1 V 92.5 h 31.3 c 9.2,0 15.9,2.1 20.1,6.4 4.2,4.3 6.4,10.9 6.4,19.9 z M 394.7,152 c 0,10 4.1,15 12.4,15 a 65.27,65.27 0 0 0 21.8,-3.7 l 3.7,-1.3 v -26.9 l -24.1,2.3 c -4.9,0.4 -8.4,1.8 -10.6,4.2 -2.2,2.4 -3.2,5.9 -3.2,10.4 z m 97.9,-48.6 c -11.8,0 -17.8,4.1 -17.8,12.4 0,3.8 1.4,6.5 4.1,8.1 2.7,1.6 8.9,3.2 18.6,4.9 9.7,1.7 16.5,4 20.5,7.1 4,3.1 6,8.7 6,17.1 0,8.4 -2.7,14.5 -8.1,18.4 -5.4,3.9 -13.2,5.9 -23.6,5.9 -6.7,0 -29.2,-2.5 -29.2,-2.5 l 0.7,-10.6 c 12.9,1.2 22.3,2.2 28.6,2.2 6.3,0 11.1,-1 14.4,-3 3.3,-2 5,-5.4 5,-10.1 0,-4.7 -1.4,-7.9 -4.2,-9.6 -2.8,-1.7 -9,-3.3 -18.6,-4.8 -9.6,-1.5 -16.4,-3.7 -20.4,-6.7 -4,-3 -6,-8.4 -6,-16.3 0,-7.9 2.8,-13.8 8.4,-17.6 5.6,-3.8 12.6,-5.7 20.9,-5.7 6.6,0 29.6,1.7 29.6,1.7 V 105 c -12.1,-0.7 -22,-1.6 -28.9,-1.6 z m 90.4,1.4 h -25.9 v 39 c 0,9.3 0.7,15.5 2,18.4 1.3,2.9 4.6,4.4 9.7,4.4 l 14.5,-1 0.8,10.1 a 111.1,111.1 0 0 1 -16.6,1.8 c -8.5,0 -14.3,-2.1 -17.6,-6.2 -3.3,-4.1 -4.9,-12 -4.9,-23.6 V 104.8 H 533.4 V 94.2 H 545 v -25 h 12.1 V 94.1 H 583 Z M 600,75.7 V 61.6 h 12.2 v 14.2 z m 0,100 V 94.2 h 12.2 v 81.5 z m 65.2,-83.2 c 3.6,0 9.7,0.7 18.3,2 l 3.9,0.5 -0.5,9.9 a 187.31,187.31 0 0 0 -19.2,-1.5 c -9.2,0 -15.5,2.2 -18.8,6.6 -3.3,4.4 -5,12.6 -5,24.5 0,11.9 1.5,20.2 4.6,24.9 3.1,4.7 9.5,7 19.3,7 l 19.2,-1.5 0.5,10.1 c -10.1,1.5 -17.7,2.3 -22.7,2.3 -12.7,0 -21.5,-3.3 -26.3,-9.8 -4.8,-6.5 -7.3,-17.5 -7.3,-33 0,-15.5 2.6,-26.4 7.8,-32.6 5.2,-6.2 14,-9.4 26.2,-9.4 z"
         id="path18" />
    </g>
  </g>
</svg>
