<?xml version="1.0" encoding="UTF-8" standalone="no"?>
<svg
   xmlns:dc="http://purl.org/dc/elements/1.1/"
   xmlns:cc="http://creativecommons.org/ns#"
   xmlns:rdf="http://www.w3.org/1999/02/22-rdf-syntax-ns#"
   xmlns:svg="http://www.w3.org/2000/svg"
   xmlns="http://www.w3.org/2000/svg"
   xmlns:sodipodi="http://sodipodi.sourceforge.net/DTD/sodipodi-0.dtd"
   xmlns:inkscape="http://www.inkscape.org/namespaces/inkscape"
   width="248.0px"
   height="248.0px"
   viewBox="0 0 248.0 248.0"
   version="1.1"
   id="SVGRoot"
   sodipodi:docname="fastly Dark.svg"
   inkscape:version="1.0.2-2 (e86c870879, 2021-01-15)">
  <defs
     id="defs1402">
    <inkscape:path-effect
       effect="fillet_chamfer"
       id="path-effect2040"
       is_visible="true"
       lpeversion="1"
       satellites_param="F,0,0,1,0,0,0,1 @ F,0,0,1,0,6.0755415,0,1 @ F,0,0,1,0,6.1445293,0,1 @ F,0,0,1,0,0,0,1"
       unit="px"
       method="auto"
       mode="F"
       radius="0"
       chamfer_steps="1"
       flexible="false"
       use_knot_distance="true"
       apply_no_radius="true"
       apply_with_radius="true"
       only_selected="true"
       hide_knots="false" />
    <style
       id="style1979">.cls-1{fill:url(#GreenGradient);}.cls-2{fill:#fff;}</style>
    <linearGradient
       id="GreenGradient"
       x1="-522.53"
       y1="465.47"
       x2="-416.47"
       y2="571.53"
       gradientTransform="rotate(-90,-456.5,24.5)"
       gradientUnits="userSpaceOnUse">
      <stop
         offset="0"
         stop-color="#1b660f"
         id="stop1981" />
      <stop
         offset="1"
         stop-color="#6cae3e"
         id="stop1983" />
    </linearGradient>
  </defs>
  <sodipodi:namedview
     id="base"
     pagecolor="#101010"
     bordercolor="#666666"
     borderopacity="1.0"
     inkscape:pageopacity="0"
     inkscape:pageshadow="2"
     inkscape:zoom="1.2894806"
     inkscape:cx="124"
     inkscape:cy="124"
     inkscape:document-units="px"
     inkscape:current-layer="layer2"
     inkscape:document-rotation="0"
     showgrid="true"
     inkscape:window-width="1366"
     inkscape:window-height="705"
     inkscape:window-x="-8"
     inkscape:window-y="-8"
     inkscape:window-maximized="1"
     inkscape:snap-global="false"
     showguides="true">
    <inkscape:grid
       type="xygrid"
       id="grid1972" />
  </sodipodi:namedview>
  <metadata
     id="metadata1405">
    <rdf:RDF>
      <cc:Work
         rdf:about="">
        <dc:format>image/svg+xml</dc:format>
        <dc:type
           rdf:resource="http://purl.org/dc/dcmitype/StillImage" />
        <dc:title />
      </cc:Work>
    </rdf:RDF>
  </metadata>
  <g
     inkscape:groupmode="layer"
     id="layer3"
     inkscape:label="BG" />
  <g
     inkscape:groupmode="layer"
     id="layer4"
     inkscape:label="Bounding Box" />
  <g
     inkscape:groupmode="layer"
     id="layer2"
     inkscape:label="Top">
    <g
       id="g847"
       transform="translate(-0.19315289,-0.04989999)"
       style="fill:#5e5c64">
      <path
         style="fill:#5e5c64;fill-opacity:0.326613;stroke:none;stroke-width:3;stroke-linecap:round;stroke-linejoin:round;stroke-miterlimit:4;stroke-dasharray:none;stroke-opacity:1;paint-order:normal"
         id="path885"
         sodipodi:type="arc"
         sodipodi:cx="154.57903"
         sodipodi:cy="83.172447"
         sodipodi:rx="111.24603"
         sodipodi:ry="111.24603"
         sodipodi:start="5.9893981"
         sodipodi:end="5.9807042"
         sodipodi:open="true"
         sodipodi:arc-type="arc"
         transform="rotate(16.68412)"
         d="M 261.05862,50.957906 A 111.24603,111.24603 0 0 1 187.02492,189.58177 111.24603,111.24603 0 0 1 48.240476,115.84954 111.24603,111.24603 0 0 1 121.67088,-23.094829 111.24603,111.24603 0 0 1 260.77453,50.033412" />
      <path
         style="fill:#5e5c64;fill-opacity:1;stroke:#ffffff;stroke-width:4.5;stroke-linecap:round;stroke-linejoin:round;stroke-miterlimit:4;stroke-dasharray:none;stroke-opacity:1;paint-order:normal"
         id="path883-9"
         sodipodi:type="arc"
         sodipodi:cx="154.57903"
         sodipodi:cy="83.172447"
         sodipodi:rx="111.24604"
         sodipodi:ry="111.24604"
         sodipodi:start="5.9893981"
         sodipodi:end="5.9807042"
         sodipodi:open="true"
         sodipodi:arc-type="arc"
         transform="rotate(16.68412)"
         d="M 261.05862,50.957904 A 111.24604,111.24604 0 0 1 187.02492,189.58178 111.24604,111.24604 0 0 1 48.240468,115.84955 111.24604,111.24604 0 0 1 121.67088,-23.094836 111.24604,111.24604 0 0 1 260.77453,50.03341" />
    </g>
    <path
       d="m 152.72097,99.54462 v 41.47242 h 12.44913 v -6.34852 h -4.11595 V 93.22936 h -8.34376 z M 44.55289,134.68213 h 4.23537 V 114.6692 h -4.23537 v -5.50507 l 4.23537,-0.69985 v -5.5746 c 0,-6.74605 1.4662,-9.6709 10.07448,-9.6709 1.85921,0 4.057,0.27511 5.98574,0.60462 l -1.14273,6.80198 c -1.31051,-0.20708 -1.96501,-0.24638 -2.77672,-0.24638 -3.03368,0 -3.80155,0.30533 -3.80155,3.26041 v 4.83697 h 6.2805 v 6.19433 h -6.29259 v 20.00235 h 4.187 v 6.34851 H 44.52418 Z m 103.92516,-2.01036 c -1.29993,0.2751 -2.44266,0.24638 -3.26948,0.26603 -3.42669,0.0907 -3.13194,-1.05809 -3.13194,-4.28374 V 114.6692 h 6.5299 v -6.19131 h -6.53745 V 93.22936 h -8.34376 v 37.15845 c 0,7.29777 1.80177,10.6262 9.65125,10.6262 1.85921,0 4.41373,-0.48369 6.34246,-0.88577 z m -25.16732,-18.01164 v -1.1125 c -2.52126,-0.46254 -5.03346,-0.46254 -6.39386,-0.46254 -3.88015,0 -4.35326,2.05874 -4.35326,3.17124 0,1.57503 0.54113,2.41848 4.74627,3.34808 6.14596,1.37854 12.31914,2.81602 12.31914,10.44028 0,7.22824 -3.72295,10.96177 -11.55279,10.96177 -5.23903,0 -10.32086,-1.12309 -14.20101,-2.10711 v -6.22456 h 6.31223 v 1.10343 c 2.71777,0.52149 5.56251,0.47312 7.05138,0.47312 4.13712,0 4.80674,-2.22652 4.80674,-3.40704 0,-1.64457 -1.19111,-2.41848 -5.07277,-3.2196 -7.30835,-1.25005 -13.12026,-3.7426 -13.12026,-11.17792 0,-7.03173 4.6979,-9.79031 12.5368,-9.79031 5.30857,0 9.33685,0.82682 13.217,1.81386 v 6.18526 h -6.30316 z m -38.39338,5.47635 -0.63032,-0.63032 -3.2196,2.80695 a 1.5266661,1.5266661 0 0 0 -0.52149,-0.0892 1.6022436,1.6022436 0 0 0 -1.57503,1.61585 c 0,0.89635 0.71042,1.61735 1.57503,1.61735 a 1.6022436,1.6022436 0 0 0 1.57504,-1.61584 1.9045537,1.9045537 0 0 0 -0.0695,-0.48219 z m 12.7726,12.5368 -0.0106,-25.96088 h -8.34376 v 2.41848 a 17.095637,17.095637 0 0 0 -5.67285,-2.14641 h 0.0499 v -2.85985 h 1.01274 v -2.11617 h -8.40121 v 2.11617 h 1.01275 v 2.87648 h 0.0605 c -7.97797,1.46621 -14.02417,8.46469 -14.02417,16.86135 a 17.140984,17.140984 0 0 0 17.14703,17.14703 c 3.23019,0 6.25329,-0.89635 8.8335,-2.45174 l 1.50702,2.45174 h 8.81235 v -8.34376 h -1.95293 z m -16.65427,-0.0106 v -0.98553 h -0.9946 v 0.97495 a 8.8274555,8.8274555 0 0 1 -8.29237,-8.34225 h 0.9946 v -0.9946 h -0.98553 c 0.26603,-4.45152 3.83178,-8.01727 8.2833,-8.27272 v 0.98553 h 0.9946 v -0.98553 c 4.39257,0.2358 7.92809,3.68365 8.31353,8.01122 v 0.30231 h -1.00518 v 0.9946 h 1.00518 v 0.2751 a 8.8274555,8.8274555 0 0 1 -8.31202,8.03692 z m 105.23416,-24.18782 h 17.20598 v 6.19434 h -4.11746 l -10.53249,25.95937 c -3.0231,7.2887 -7.98703,14.15265 -15.55083,14.15265 -1.85921,0 -4.33362,-0.20709 -6.05678,-0.60462 l 0.75879,-7.55776 a 21.479134,21.479134 0 0 0 3.29972,0.34464 c 3.5068,0 7.46706,-2.17664 8.70653,-5.95854 l -10.69573,-26.30551 h -4.11747 v -6.19131 h 17.23168 v 6.19433 h -4.10688 l 6.05678,14.90087 6.05678,-14.90087 h -4.10688 z"
       id="path2"
       style="fill:#ffffff;stroke-width:1.51155" />
  </g>
</svg>
