<?xml version="1.0" encoding="UTF-8" standalone="no"?>
<svg
   xmlns:dc="http://purl.org/dc/elements/1.1/"
   xmlns:cc="http://creativecommons.org/ns#"
   xmlns:rdf="http://www.w3.org/1999/02/22-rdf-syntax-ns#"
   xmlns:svg="http://www.w3.org/2000/svg"
   xmlns="http://www.w3.org/2000/svg"
   xmlns:sodipodi="http://sodipodi.sourceforge.net/DTD/sodipodi-0.dtd"
   xmlns:inkscape="http://www.inkscape.org/namespaces/inkscape"
   width="248.0px"
   height="248.0px"
   viewBox="0 0 248.0 248.0"
   version="1.1"
   id="SVGRoot"
   sodipodi:docname="getfedora Dark.svg"
   inkscape:version="1.0.2-2 (e86c870879, 2021-01-15)">
  <defs
     id="defs1402">
    <inkscape:path-effect
       effect="fillet_chamfer"
       id="path-effect2040"
       is_visible="true"
       lpeversion="1"
       satellites_param="F,0,0,1,0,0,0,1 @ F,0,0,1,0,6.0755415,0,1 @ F,0,0,1,0,6.1445293,0,1 @ F,0,0,1,0,0,0,1"
       unit="px"
       method="auto"
       mode="F"
       radius="0"
       chamfer_steps="1"
       flexible="false"
       use_knot_distance="true"
       apply_no_radius="true"
       apply_with_radius="true"
       only_selected="true"
       hide_knots="false" />
    <style
       id="style1979">.cls-1{fill:url(#GreenGradient);}.cls-2{fill:#fff;}</style>
    <linearGradient
       id="GreenGradient"
       x1="-522.53"
       y1="465.47"
       x2="-416.47"
       y2="571.53"
       gradientTransform="rotate(-90,-456.5,24.5)"
       gradientUnits="userSpaceOnUse">
      <stop
         offset="0"
         stop-color="#1b660f"
         id="stop1981" />
      <stop
         offset="1"
         stop-color="#6cae3e"
         id="stop1983" />
    </linearGradient>
  </defs>
  <sodipodi:namedview
     id="base"
     pagecolor="#101010"
     bordercolor="#666666"
     borderopacity="1.0"
     inkscape:pageopacity="0"
     inkscape:pageshadow="2"
     inkscape:zoom="1.2269109"
     inkscape:cx="124"
     inkscape:cy="124"
     inkscape:document-units="px"
     inkscape:current-layer="layer2"
     inkscape:document-rotation="0"
     showgrid="true"
     inkscape:window-width="1366"
     inkscape:window-height="705"
     inkscape:window-x="-8"
     inkscape:window-y="-8"
     inkscape:window-maximized="1"
     inkscape:snap-global="false"
     showguides="true">
    <inkscape:grid
       type="xygrid"
       id="grid1972" />
  </sodipodi:namedview>
  <metadata
     id="metadata1405">
    <rdf:RDF>
      <cc:Work
         rdf:about="">
        <dc:format>image/svg+xml</dc:format>
        <dc:type
           rdf:resource="http://purl.org/dc/dcmitype/StillImage" />
        <dc:title />
      </cc:Work>
    </rdf:RDF>
  </metadata>
  <g
     inkscape:groupmode="layer"
     id="layer3"
     inkscape:label="BG" />
  <g
     inkscape:groupmode="layer"
     id="layer4"
     inkscape:label="Bounding Box" />
  <g
     inkscape:groupmode="layer"
     id="layer2"
     inkscape:label="Top">
    <g
       id="g847"
       transform="translate(-0.19315289,-0.04989999)"
       style="fill:#5e5c64">
      <path
         style="fill:#5e5c64;fill-opacity:0.326613;stroke:none;stroke-width:3;stroke-linecap:round;stroke-linejoin:round;stroke-miterlimit:4;stroke-dasharray:none;stroke-opacity:1;paint-order:normal"
         id="path885"
         sodipodi:type="arc"
         sodipodi:cx="154.57903"
         sodipodi:cy="83.172447"
         sodipodi:rx="111.24603"
         sodipodi:ry="111.24603"
         sodipodi:start="5.9893981"
         sodipodi:end="5.9807042"
         sodipodi:open="true"
         sodipodi:arc-type="arc"
         transform="rotate(16.68412)"
         d="M 261.05862,50.957906 A 111.24603,111.24603 0 0 1 187.02492,189.58177 111.24603,111.24603 0 0 1 48.240476,115.84954 111.24603,111.24603 0 0 1 121.67088,-23.094829 111.24603,111.24603 0 0 1 260.77453,50.033412" />
      <path
         style="fill:#5e5c64;fill-opacity:1;stroke:#ffffff;stroke-width:4.5;stroke-linecap:round;stroke-linejoin:round;stroke-miterlimit:4;stroke-dasharray:none;stroke-opacity:1;paint-order:normal"
         id="path883-9"
         sodipodi:type="arc"
         sodipodi:cx="154.57903"
         sodipodi:cy="83.172447"
         sodipodi:rx="111.24604"
         sodipodi:ry="111.24604"
         sodipodi:start="5.9893981"
         sodipodi:end="5.9807042"
         sodipodi:open="true"
         sodipodi:arc-type="arc"
         transform="rotate(16.68412)"
         d="M 261.05862,50.957904 A 111.24604,111.24604 0 0 1 187.02492,189.58178 111.24604,111.24604 0 0 1 48.240468,115.84955 111.24604,111.24604 0 0 1 121.67088,-23.094836 111.24604,111.24604 0 0 1 260.77453,50.03341" />
    </g>
    <g
       stroke-width="3.983"
       transform="matrix(0.97426877,0,0,0.97426877,37.434271,113.28304)"
       id="g10">
      <path
         d="m 41.415,27.091 h -16.94 c 0.275,3.672 3.235,6.414 7.182,6.414 2.796,0 5.208,-1.152 7.126,-3.015 0.384,-0.385 0.823,-0.494 1.316,-0.494 0.658,0 1.316,0.33 1.754,0.877 0.275,0.384 0.44,0.823 0.44,1.26 0,0.604 -0.275,1.261 -0.769,1.755 C 39.222,36.355 35.33,38 31.492,38 24.549892,38.021109 18.916891,32.388108 18.938,25.446 c 0,-6.962 5.428,-12.553 12.39,-12.553 6.907,0 12.06,5.372 12.06,12.443 0,1.042 -0.931,1.755 -1.973,1.755 z M 31.328,17.388 c -3.673,0 -6.195,2.412 -6.743,5.919 H 38.07 c -0.493,-3.343 -3.124,-5.92 -6.743,-5.92 z M 89.819,38 C 82.877283,38.02055 77.244894,32.387715 77.266,25.446 77.24545,18.504675 82.877675,12.872449 89.819,12.893 96.760715,12.87189 102.39355,18.504283 102.373,25.446 102.373,32.41 96.782,38 89.819,38 Z m 0,-20.338 c -4.385,0 -7.236,3.509 -7.236,7.784 0,4.276 2.85,7.784 7.236,7.784 4.386,0 7.237,-3.508 7.237,-7.784 0,-4.275 -2.851,-7.784 -7.237,-7.784 z M 120.5,12.893 c -3.678,0 -6.111,1.088 -8.26,3.819 l -0.197,-1.27 c -0.41131,-3.356132 -5.37422,-3.041203 -5.358,0.34 v 19.313 c 0.002,1.482523 1.20348,2.683797 2.686,2.686 1.48252,-0.0022 2.6838,-1.203477 2.686,-2.686 v -10.36 c 0,-4.715 4.112,-7.073 8.443,-7.073 1.315,0 2.356,-1.096 2.356,-2.412 0.0101,-1.305497 -1.0505,-2.366528 -2.356,-2.357 z m 28.34,12.554 c 0.056,-6.743 -4.77,-12.554 -12.554,-12.554 -6.962,0 -12.608,5.592 -12.608,12.554 0,6.962 5.482,12.553 12.115,12.553 3.311,0 6.29,-1.704 7.62,-3.484 l 0.654,1.661 c 0.96728,2.561654 4.76509,1.874182 4.773,-0.864 v -6.44 z m -12.554,7.784 c -4.385,0 -7.236,-3.509 -7.236,-7.784 0,-4.276 2.85,-7.785 7.236,-7.785 4.386,0 7.237,3.51 7.237,7.785 0,4.275 -2.851,7.784 -7.237,7.784 z M 72.955,2.97 c 0,-1.479 -1.206,-2.63 -2.686,-2.63 -1.48,0 -2.687,1.151 -2.687,2.63 v 14.145 c -1.37,-2.522 -4.33,-4.221 -7.839,-4.221 -7.126,0 -11.895,5.372 -11.895,12.553 0,7.182 4.933,12.554 11.895,12.554 3.106,0 5.798,-1.282 7.41,-3.51 l 0.597,1.513 c 1.008412,2.834808 5.203646,2.111825 5.205,-0.897 z M 60.4,33.233 c -4.385,0 -7.181,-3.508 -7.181,-7.784 0,-4.275 2.795,-7.784 7.18,-7.784 4.387,0 7.182,3.344 7.182,7.784 0,4.44 -2.795,7.784 -7.181,7.784 z M 17.036,0.5 C 16.546,0.428 16.046,0.391 15.551,0.391 9.999,0.391 5.483,4.908 5.483,10.46 v 3.145 H 2.193 C 0.98382341,13.608839 0.00439093,14.587825 0,15.797 0,17.004 0.987,18.22 2.193,18.22 h 3.29 v 16.874 c 0.0022,1.482134 1.2028671,2.683247 2.685,2.686 1.4829139,-0.0017 2.684796,-1.203087 2.687,-2.686 V 18.22 h 3.637 c 1.206,0 2.192,-1.216 2.192,-2.423 -0.0044,-1.208786 -0.983214,-2.187612 -2.192,-2.192 H 10.857 V 10.46 c 0,-2.589 2.105,-5.043 4.694,-5.043 0.233,0 0.468,0.017 0.698,0.051 1.469,0.217 2.834,-0.447 3.052,-1.916 0.216409,-1.4678123 -0.797366,-2.8333866 -2.265,-3.051 z"
         fill="#3c6eb4"
         id="path2" />
      <path
         d="m 177.704,-0.96 c 0,-8.307 -6.734,-15.041 -15.04,-15.041 -8.303,0 -15.034,6.728 -15.04,15.03 v -0.001 11.639 c 0.005,1.885136 1.53486,3.410558 3.42,3.41 h 11.626 c 8.303,-0.002 15.034,-6.734 15.034,-15.038 z"
         fill="#294172"
         id="path4" />
      <path
         d="m 167.078,-12.435 c -3.89858,0 -7.059,3.160422 -7.059,7.059 v 3.741 h -3.725 c -3.9,0 -7.06,3.145 -7.06,7.043 0,3.898857 3.16065,7.059497 7.0595,7.059497 3.89885,0 7.0595,-3.16064 7.0595,-7.059497 V 1.651 h 3.725 c 3.899,0 7.06,-3.128 7.06,-7.027 0,-3.8989686 -3.16103,-7.059552 -7.06,-7.059 z m -7.058,17.85 c -0.003,2.0554694 -1.67053,3.7200027 -3.726,3.72 -2.058,0 -3.74,-1.67 -3.74,-3.727 0,-2.058 1.682,-3.757 3.74,-3.757 h 3.2 c 0.29,0 0.526,0.235 0.526,0.526 v 3.237 z m 7.058,-7.05 h -3.2 c -0.2905,0 -0.526,-0.2354982 -0.526,-0.526 v -3.221 c 0.003,-2.0554694 1.67053,-3.7200027 3.726,-3.72 2.058,0 3.741,1.668 3.741,3.726 -0.007,2.0631992 -1.6778,3.7339617 -3.741,3.74 z"
         fill="#3c6eb4"
         id="path6" />
      <path
         d="m 160.02,-1.636 v -3.742 c 5.5e-4,-3.8985781 3.16142,-7.058552 7.06,-7.058 0.52729,-0.0038 1.05248,0.0669 1.56,0.21 0.797,0.209 1.45,0.863 1.45,1.624 0,0.92 -0.668,1.59 -1.667,1.59 -0.475,0 -0.647,-0.092 -1.344,-0.092 -2.05508,5.489e-4 -3.72169,1.6649209 -3.725,3.72 v 3.221 c 0,0.29 0.235,0.527 0.526,0.527 h 2.448 c 0.912,0 1.648,0.729 1.648,1.643 0.002,0.91005294 -0.73796,1.6474408 -1.648,1.643 h -2.974 v 3.757 c -5.5e-4,3.8981875 -3.16081,7.058 -7.059,7.058 -0.52728,0.0036 -1.05244,-0.0671 -1.56,-0.21 -0.797,-0.208 -1.45,-0.863 -1.45,-1.624 0,-0.92 0.668,-1.59 1.666,-1.59 0.476,0 0.648,0.092 1.344,0.092 2.05547,2.7e-6 3.72269,-1.6645306 3.726,-3.72 V 2.176 c 0,-0.2905018 -0.2355,-0.526 -0.526,-0.526 h -2.448 c -0.91004,0.00499 -1.65012,-0.73194478 -1.649,-1.642 0,-0.92 0.745,-1.644 1.666,-1.644 h 2.957 z"
         fill="#ffffff"
         id="path8" />
    </g>
  </g>
</svg>
