<?xml version="1.0" encoding="UTF-8" standalone="no"?>
<svg
   xmlns:dc="http://purl.org/dc/elements/1.1/"
   xmlns:cc="http://creativecommons.org/ns#"
   xmlns:rdf="http://www.w3.org/1999/02/22-rdf-syntax-ns#"
   xmlns:svg="http://www.w3.org/2000/svg"
   xmlns="http://www.w3.org/2000/svg"
   xmlns:xlink="http://www.w3.org/1999/xlink"
   xmlns:sodipodi="http://sodipodi.sourceforge.net/DTD/sodipodi-0.dtd"
   xmlns:inkscape="http://www.inkscape.org/namespaces/inkscape"
   width="248.0px"
   height="248.0px"
   viewBox="0 0 248.0 248.0"
   version="1.1"
   id="SVGRoot"
   sodipodi:docname="godaddy_ Dark.svg"
   inkscape:version="1.0.2-2 (e86c870879, 2021-01-15)">
  <defs
     id="defs1402">
    <inkscape:path-effect
       effect="fillet_chamfer"
       id="path-effect2040"
       is_visible="true"
       lpeversion="1"
       satellites_param="F,0,0,1,0,0,0,1 @ F,0,0,1,0,6.0755415,0,1 @ F,0,0,1,0,6.1445293,0,1 @ F,0,0,1,0,0,0,1"
       unit="px"
       method="auto"
       mode="F"
       radius="0"
       chamfer_steps="1"
       flexible="false"
       use_knot_distance="true"
       apply_no_radius="true"
       apply_with_radius="true"
       only_selected="true"
       hide_knots="false" />
    <style
       id="style1979">.cls-1{fill:url(#GreenGradient);}.cls-2{fill:#fff;}</style>
    <linearGradient
       id="GreenGradient"
       x1="-522.53"
       y1="465.47"
       x2="-416.47"
       y2="571.53"
       gradientTransform="rotate(-90,-456.5,24.5)"
       gradientUnits="userSpaceOnUse">
      <stop
         offset="0"
         stop-color="#1b660f"
         id="stop1981" />
      <stop
         offset="1"
         stop-color="#6cae3e"
         id="stop1983" />
    </linearGradient>
    <clipPath
       id="clip1">
      <path
         d="m 93,27 h 58 V 88.851563 H 93 Z m 0,0"
         id="path2" />
    </clipPath>
    <clipPath
       id="clip2">
      <path
         d="m 161,10 h 41 v 78.851563 h -41 z m 0,0"
         id="path5" />
    </clipPath>
    <clipPath
       id="clip3">
      <path
         d="m 206,0 h 65 v 88.851563 h -65 z m 0,0"
         id="path8" />
    </clipPath>
    <clipPath
       id="clip4">
      <path
         d="m 322,26 h 57 v 62.851563 h -57 z m 0,0"
         id="path11" />
    </clipPath>
    <clipPath
       id="clip5">
      <path
         d="m 415,26 h 58.05859 V 87 H 415 Z m 0,0"
         id="path14" />
    </clipPath>
    <clipPath
       id="clip6">
      <path
         d="M 0,3 H 87 V 88.851563 H 0 Z m 0,0"
         id="path17" />
    </clipPath>
    <clipPath
       id="b">
      <use
         xlink:href="#a"
         overflow="visible"
         id="use5"
         x="0"
         y="0"
         width="100%"
         height="100%" />
    </clipPath>
    <clipPath
       id="d">
      <use
         xlink:href="#c"
         overflow="visible"
         id="use21"
         x="0"
         y="0"
         width="100%"
         height="100%" />
    </clipPath>
    <linearGradient
       id="e"
       gradientUnits="userSpaceOnUse"
       x1="-17845.727"
       y1="-3022.7009"
       x2="-17300.025"
       y2="-3131.4309"
       gradientTransform="matrix(0.1741,0,0,-0.1741,5044.277,-686.514)">
      <stop
         offset="0"
         stop-color="#2b7a77"
         id="stop30" />
      <stop
         offset=".51"
         stop-color="#4ebaa9"
         id="stop32" />
      <stop
         offset="1"
         stop-color="#5cc2b1"
         id="stop34" />
    </linearGradient>
    <linearGradient
       id="f"
       gradientUnits="userSpaceOnUse"
       x1="-16495.199"
       y1="-6380.3711"
       x2="-16765.998"
       y2="-5744.4058"
       gradientTransform="matrix(0.1741,0,0,-0.1741,5044.277,-686.514)">
      <stop
         offset="0"
         stop-color="#236736"
         id="stop39" />
      <stop
         offset=".493"
         stop-color="#6ba443"
         id="stop41" />
      <stop
         offset="1"
         stop-color="#86c146"
         id="stop43" />
    </linearGradient>
    <linearGradient
       id="g"
       gradientUnits="userSpaceOnUse"
       x1="-16221.797"
       y1="-6660.6538"
       x2="-15823.801"
       y2="-5712.8491"
       gradientTransform="matrix(0.1741,0,0,-0.1741,5044.277,-686.514)">
      <stop
         offset="0"
         stop-color="#29a5e3"
         id="stop48" />
      <stop
         offset=".515"
         stop-color="#356eb9"
         id="stop50" />
      <stop
         offset="1"
         stop-color="#394da5"
         id="stop52" />
    </linearGradient>
    <path
       id="path104"
       d="M 196.35,-37.141 H 1196.36 V 128.657 H 196.35 Z" />
    <path
       id="path114"
       d="M 196.35,-37.141 H 1196.36 V 128.657 H 196.35 Z" />
    <clipPath
       id="b-0">
      <use
         xlink:href="#a"
         overflow="visible"
         id="use5-4"
         x="0"
         y="0"
         width="100%"
         height="100%" />
    </clipPath>
    <clipPath
       id="d-7">
      <use
         xlink:href="#c"
         overflow="visible"
         id="use21-2"
         x="0"
         y="0"
         width="100%"
         height="100%" />
    </clipPath>
    <linearGradient
       id="e-6"
       gradientUnits="userSpaceOnUse"
       x1="-17845.727"
       y1="-3022.7009"
       x2="-17300.025"
       y2="-3131.4309"
       gradientTransform="matrix(0.00755454,0,0,0.00755454,162.32374,160.96514)">
      <stop
         offset="0"
         stop-color="#2b7a77"
         id="stop30-6" />
      <stop
         offset=".51"
         stop-color="#4ebaa9"
         id="stop32-2" />
      <stop
         offset="1"
         stop-color="#5cc2b1"
         id="stop34-6" />
    </linearGradient>
    <linearGradient
       id="f-1"
       gradientUnits="userSpaceOnUse"
       x1="-16495.199"
       y1="-6380.3711"
       x2="-16765.998"
       y2="-5744.4058"
       gradientTransform="matrix(0.00755454,0,0,0.00755454,162.32374,160.96514)">
      <stop
         offset="0"
         stop-color="#236736"
         id="stop39-6" />
      <stop
         offset=".493"
         stop-color="#6ba443"
         id="stop41-2" />
      <stop
         offset="1"
         stop-color="#86c146"
         id="stop43-2" />
    </linearGradient>
    <linearGradient
       id="g-0"
       gradientUnits="userSpaceOnUse"
       x1="-16221.797"
       y1="-6660.6538"
       x2="-15823.801"
       y2="-5712.8491"
       gradientTransform="matrix(0.00755454,0,0,0.00755454,162.32374,160.96514)">
      <stop
         offset="0"
         stop-color="#29a5e3"
         id="stop48-6" />
      <stop
         offset=".515"
         stop-color="#356eb9"
         id="stop50-7" />
      <stop
         offset="1"
         stop-color="#394da5"
         id="stop52-5" />
    </linearGradient>
    <path
       id="path104-1"
       d="M 196.35,-37.141 H 1196.36 V 128.657 H 196.35 Z" />
    <path
       id="path114-3"
       d="M 196.35,-37.141 H 1196.36 V 128.657 H 196.35 Z" />
    <clipPath
       id="b-2">
      <use
         xlink:href="#a"
         overflow="visible"
         id="use5-3"
         x="0"
         y="0"
         width="100%"
         height="100%" />
    </clipPath>
    <clipPath
       id="d-1">
      <use
         xlink:href="#c"
         overflow="visible"
         id="use21-6"
         x="0"
         y="0"
         width="100%"
         height="100%" />
    </clipPath>
    <linearGradient
       id="e-3"
       gradientUnits="userSpaceOnUse"
       x1="-17845.727"
       y1="-3022.7009"
       x2="-17300.025"
       y2="-3131.4309"
       gradientTransform="matrix(0.00755454,0,0,0.00755454,161.91371,158.37582)">
      <stop
         offset="0"
         stop-color="#2b7a77"
         id="stop30-5" />
      <stop
         offset=".51"
         stop-color="#4ebaa9"
         id="stop32-3" />
      <stop
         offset="1"
         stop-color="#5cc2b1"
         id="stop34-5" />
    </linearGradient>
    <linearGradient
       id="f-5"
       gradientUnits="userSpaceOnUse"
       x1="-16495.199"
       y1="-6380.3711"
       x2="-16765.998"
       y2="-5744.4058"
       gradientTransform="matrix(0.00755454,0,0,0.00755454,161.91371,158.37582)">
      <stop
         offset="0"
         stop-color="#236736"
         id="stop39-5" />
      <stop
         offset=".493"
         stop-color="#6ba443"
         id="stop41-8" />
      <stop
         offset="1"
         stop-color="#86c146"
         id="stop43-0" />
    </linearGradient>
    <linearGradient
       id="g-4"
       gradientUnits="userSpaceOnUse"
       x1="-16221.797"
       y1="-6660.6538"
       x2="-15823.801"
       y2="-5712.8491"
       gradientTransform="matrix(0.00755454,0,0,0.00755454,161.91371,158.37582)">
      <stop
         offset="0"
         stop-color="#29a5e3"
         id="stop48-0" />
      <stop
         offset=".515"
         stop-color="#356eb9"
         id="stop50-4" />
      <stop
         offset="1"
         stop-color="#394da5"
         id="stop52-2" />
    </linearGradient>
    <path
       id="path104-13"
       d="M 196.35,-37.141 H 1196.36 V 128.657 H 196.35 Z" />
    <path
       id="path114-2"
       d="M 196.35,-37.141 H 1196.36 V 128.657 H 196.35 Z" />
    <clipPath
       id="b-9">
      <use
         xlink:href="#a"
         overflow="visible"
         id="use5-8"
         x="0"
         y="0"
         width="100%"
         height="100%" />
    </clipPath>
    <clipPath
       id="d-2">
      <use
         xlink:href="#c"
         overflow="visible"
         id="use21-0"
         x="0"
         y="0"
         width="100%"
         height="100%" />
    </clipPath>
    <path
       id="a"
       d="M 196.35,-37.141 H 1196.36 V 128.657 H 196.35 Z" />
    <path
       id="c"
       d="M 196.35,-37.141 H 1196.36 V 128.657 H 196.35 Z" />
    <radialGradient
       cx="202.91011"
       cy="65.021362"
       fx="202.91011"
       fy="65.021362"
       r="48.504616"
       id="a-5"
       gradientTransform="scale(1.0005153,0.99948493)"
       gradientUnits="userSpaceOnUse">
      <stop
         stop-color="#FFF"
         offset="0%"
         id="stop2" />
      <stop
         stop-color="#FCE800"
         offset="19.02%"
         id="stop4" />
      <stop
         stop-color="#EC8F27"
         offset="85.93%"
         id="stop6" />
    </radialGradient>
    <linearGradient
       x1="134.77487"
       y1="49.381653"
       x2="134.77487"
       y2="0.55994713"
       id="b-0-7"
       gradientTransform="scale(1.0256763,0.97496651)"
       gradientUnits="userSpaceOnUse">
      <stop
         stop-color="#F68B1F"
         offset="0%"
         id="stop9" />
      <stop
         stop-color="#FFF"
         offset="100%"
         id="stop11" />
    </linearGradient>
    <linearGradient
       x1="53.483879"
       y1="44.051418"
       x2="64.062614"
       y2="62.661644"
       id="c-7"
       gradientUnits="userSpaceOnUse">
      <stop
         stop-color="#FFF"
         offset="0%"
         id="stop14" />
      <stop
         stop-color="#FEF6ED"
         offset="4.821%"
         id="stop16" />
      <stop
         stop-color="#FBD0A5"
         offset="25.69%"
         id="stop18" />
      <stop
         stop-color="#F9B26B"
         offset="44.42%"
         id="stop20" />
      <stop
         stop-color="#F79D42"
         offset="60.34%"
         id="stop22" />
      <stop
         stop-color="#F69028"
         offset="72.82%"
         id="stop24" />
      <stop
         stop-color="#F68B1F"
         offset="80.33%"
         id="stop26" />
    </linearGradient>
    <linearGradient
       x1="2.05039"
       y1="68.696198"
       x2="42.65826"
       y2="192.964"
       id="d-8"
       gradientTransform="scale(1.409801,0.70931995)"
       gradientUnits="userSpaceOnUse">
      <stop
         stop-color="#FFF"
         offset="0%"
         id="stop29" />
      <stop
         stop-color="#FEF6ED"
         offset="4.821%"
         id="stop31" />
      <stop
         stop-color="#FBD0A5"
         offset="25.69%"
         id="stop33" />
      <stop
         stop-color="#F9B26B"
         offset="44.42%"
         id="stop35" />
      <stop
         stop-color="#F79D42"
         offset="60.34%"
         id="stop37" />
      <stop
         stop-color="#F69028"
         offset="72.82%"
         id="stop39-9" />
      <stop
         stop-color="#F68B1F"
         offset="80.33%"
         id="stop41-3" />
    </linearGradient>
    <linearGradient
       x1="180.28741"
       y1="90.57383"
       x2="173.40768"
       y2="123.44773"
       id="e-2"
       gradientTransform="scale(1.2768133,0.78319989)"
       gradientUnits="userSpaceOnUse">
      <stop
         stop-color="#FFF"
         offset="0%"
         id="stop44" />
      <stop
         stop-color="#FEF6ED"
         offset="4.821%"
         id="stop46" />
      <stop
         stop-color="#FBD0A5"
         offset="25.69%"
         id="stop48-4" />
      <stop
         stop-color="#F9B26B"
         offset="44.42%"
         id="stop50-9" />
      <stop
         stop-color="#F79D42"
         offset="60.34%"
         id="stop52-4" />
      <stop
         stop-color="#F69028"
         offset="72.82%"
         id="stop54" />
      <stop
         stop-color="#F68B1F"
         offset="80.33%"
         id="stop56" />
    </linearGradient>
    <linearGradient
       x1="43.736912"
       y1="243.13164"
       x2="43.736912"
       y2="325.8479"
       id="f-6"
       gradientTransform="scale(2.9399166,0.3401457)"
       gradientUnits="userSpaceOnUse">
      <stop
         stop-color="#F68B1F"
         offset="0%"
         id="stop59" />
      <stop
         stop-color="#CB672F"
         offset="53.08%"
         id="stop61" />
      <stop
         stop-color="#A1453F"
         offset="100%"
         id="stop63" />
    </linearGradient>
    <radialGradient
       cx="97.375191"
       cy="132.38023"
       fx="97.375191"
       fy="132.38023"
       r="38.978508"
       id="g-9"
       gradientTransform="scale(1.6664459,0.60007949)"
       gradientUnits="userSpaceOnUse">
      <stop
         stop-color="#FFF"
         offset="0%"
         id="stop66" />
      <stop
         stop-color="#FCE800"
         offset="13.34%"
         id="stop68" />
      <stop
         stop-color="#EC8F27"
         offset="85.93%"
         id="stop70" />
    </radialGradient>
  </defs>
  <sodipodi:namedview
     id="base"
     pagecolor="#101010"
     bordercolor="#666666"
     borderopacity="1.0"
     inkscape:pageopacity="0"
     inkscape:pageshadow="2"
     inkscape:zoom="0.95676215"
     inkscape:cx="86.368322"
     inkscape:cy="120.29206"
     inkscape:document-units="px"
     inkscape:current-layer="layer2"
     inkscape:document-rotation="0"
     showgrid="true"
     inkscape:window-width="1366"
     inkscape:window-height="705"
     inkscape:window-x="-8"
     inkscape:window-y="-8"
     inkscape:window-maximized="1"
     inkscape:snap-global="false"
     showguides="true">
    <inkscape:grid
       type="xygrid"
       id="grid1972" />
  </sodipodi:namedview>
  <metadata
     id="metadata1405">
    <rdf:RDF>
      <cc:Work
         rdf:about="">
        <dc:format>image/svg+xml</dc:format>
        <dc:type
           rdf:resource="http://purl.org/dc/dcmitype/StillImage" />
        <dc:title />
      </cc:Work>
    </rdf:RDF>
  </metadata>
  <g
     inkscape:groupmode="layer"
     id="layer3"
     inkscape:label="BG" />
  <g
     inkscape:groupmode="layer"
     id="layer4"
     inkscape:label="Bounding Box" />
  <g
     inkscape:groupmode="layer"
     id="layer2"
     inkscape:label="Top">
    <g
       id="g847"
       transform="translate(-0.19315289,-0.04989999)"
       style="fill:#5e5c64">
      <path
         style="fill:#5e5c64;fill-opacity:0.326613;stroke:none;stroke-width:3;stroke-linecap:round;stroke-linejoin:round;stroke-miterlimit:4;stroke-dasharray:none;stroke-opacity:1;paint-order:normal"
         id="path885"
         sodipodi:type="arc"
         sodipodi:cx="154.57903"
         sodipodi:cy="83.172447"
         sodipodi:rx="111.24603"
         sodipodi:ry="111.24603"
         sodipodi:start="5.9893981"
         sodipodi:end="5.9807042"
         sodipodi:open="true"
         sodipodi:arc-type="arc"
         transform="rotate(16.68412)"
         d="M 261.05862,50.957906 A 111.24603,111.24603 0 0 1 187.02492,189.58177 111.24603,111.24603 0 0 1 48.240476,115.84954 111.24603,111.24603 0 0 1 121.67088,-23.094829 111.24603,111.24603 0 0 1 260.77453,50.033412" />
      <path
         style="fill:#5e5c64;fill-opacity:1;stroke:#ffffff;stroke-width:4.5;stroke-linecap:round;stroke-linejoin:round;stroke-miterlimit:4;stroke-dasharray:none;stroke-opacity:1;paint-order:normal"
         id="path883-9"
         sodipodi:type="arc"
         sodipodi:cx="154.57903"
         sodipodi:cy="83.172447"
         sodipodi:rx="111.24604"
         sodipodi:ry="111.24604"
         sodipodi:start="5.9893981"
         sodipodi:end="5.9807042"
         sodipodi:open="true"
         sodipodi:arc-type="arc"
         transform="rotate(16.68412)"
         d="M 261.05862,50.957904 A 111.24604,111.24604 0 0 1 187.02492,189.58178 111.24604,111.24604 0 0 1 48.240468,115.84955 111.24604,111.24604 0 0 1 121.67088,-23.094836 111.24604,111.24604 0 0 1 260.77453,50.03341" />
    </g>
    <g
       id="g57"
       transform="matrix(0.70126227,0,0,0.70126227,73.264025,48.719495)">
      <path
         d="M 125.9,108.4 C 121.199,94.5 114,79.5 102.1,70.1 90.4,61 76.301,57.3 62.1,57.3 c -14.1,0 -28.3,3.6 -41,9.3 -2.6,1.2 -4,4.1 -3.3,6.9 L 50,209.7 c 0.4,1.8 1.7,3.399 3.4,4.1 0.8,0.3 1.6,0.5 2.4,0.5 1,0 2,-0.2 2.899,-0.7 6.7,-3.6 12.4,-7.6 14.4,-9 2.201,-1.5 3.701,-1.8 5.701,-1.899 4.299,-0.3 11.1,3.399 20.699,3.6 2.1,0 4.301,-0.2 6.6,-0.7 6.4,-1.399 10.801,-5.399 13,-9.5 2.201,-4.1 2.5,-8 2.5,-10.5 0,-1 -0.1,-1.8 -0.1,-2.3 -0.1,-3.399 -1.1,-6.3 -2.301,-9.3 -1.898,-4.5 -4.398,-9.1 -6.299,-13.1 -1.6,-3.2 -2.701,-6.301 -3,-7.7 0.6,-0.3 1.5,-0.7 2.5,-1 2.9,-1 6.799,-1.9 10.1,-2.8 1.699,-0.4 3.199,-0.9 4.699,-1.5 0.801,-0.301 1.5,-0.7 2.5,-1.4 0.5,-0.4 1.102,-0.9 1.602,-1.7 0.6,-0.899 1.1,-2.2 1.1,-3.7 0,-6.101 -1.9,-18.701 -6.5,-32.701 z"
         id="path4" />
      <path
         d="M 97,77 C 87.199,69.4 75.1,66.1 62.4,66.1 c -11.8,0 -24,2.8 -35.1,7.6 l 30.9,130.2 c 4.8,-2.801 8.7,-5.5 10.3,-6.601 3.6,-2.5 7.301,-3.5 10.801,-3.5 7.5,0.101 13.799,3.601 20.699,3.5 1.5,0 3,-0.2 4.6,-0.5 4.1,-1 5.9,-2.899 7.1,-5 1.201,-2.2 1.4,-4.7 1.4,-6.3 0,-0.5 0,-0.9 -0.1,-1.2 v -1 c 0.1,-2.7 -2.6,-8.6 -5.5,-14.3 -2.9,-5.8 -6.1,-11.4 -6.199,-16.6 0,-1.9 0.6,-4.101 2.299,-5.601 2.9,-2.399 7.101,-3.5 11.4,-4.7 3.6,-0.899 7.301,-1.8 8.9,-2.5 -0.301,-5.199 -2.1,-16.699 -6.1,-28.5 C 113.5,98.1 106.6,84.4 97,77 Z"
         fill="#ffffff"
         id="path6" />
      <path
         d="m 112.301,185.3 c -11,-1.5 -18.602,-4.7 -24.5,-9.6 -6,-4.9 -10.301,-11.2 -15.401,-18.7 -0.9,-1.3 -0.6,-3.1 0.7,-4 1.3,-0.9 3.099,-0.6 4,0.7 5.201,7.5 9.301,13.3 14.4,17.5 5.099,4.2 11.4,7 21.699,8.399 1.602,0.2 2.701,1.7 2.5,3.2 -0.199,1.5 -1.398,2.5 -2.898,2.5 z M 23.8,77.4 c -2.9,1.8 -4.7,4.1 -6.5,5.4 -1.9,1.6 -2.2,3.3 -2.3,5 0,0.7 0.1,1.4 0.5,2.2 0.3,0.8 1.2,1.9 2.7,2.3 2.5,0.6 4.8,0.9 7,0.9 h 1.1 z"
         id="path8-4" />
      <path
         d="m 51,83.8 c 2.4,-1.4 5.5,-2.5 8.3,-3.7 0.6,-0.2 1.1,-1.4 0.899,-2.4 -0.1,-0.6 -0.5,-1.4 -0.8,-1.5 -2.3,-0.5 -3.9,-0.7 -6.8,-1 -3.2,-0.4 -5,-0.2 -7.6,-1.4 -1.1,-0.5 -1.2,-2.3 -1.5,-3.5 -1.2,-4.5 -2.6,-8.9 -4.5,-12.7 -0.3,-0.7 -1.4,-1.1 -2.1,-0.4 -0.7,0.6 -1.2,1.8 -0.9,3.1 0.9,4.5 -1.3,9 -2.3,13.1 L 32.3,75.7 c -2.1,1.8 -4.3,3.1 -6.6,4.5 -2.2,1.3 -4,3.5 -6.2,5.2 -1.1,0.8 -1.3,3.2 -0.3,3.5 3.7,1 7.3,0.9 10.8,0.4 0.1,4.4 -1.5,8.6 -3,12.3 -0.3,0.8 -0.6,1.1 -0.8,1.7 -0.6,1.4 1.101,3.1 2.2,2.9 3.3,-0.6 5.5,-4.6 8.6,-8.3 1.6,-1.9 3.6,-5.1 4.9,-5 1.6,0 6.7,3.6 10.7,6.2 2.3,1.5 4.2,3.1 6.8,2.7 0.7,0 1.1,-1 1.6,-2 0.5,-1.2 -3.4,-6.3 -3.4,-6.3 C 55.8,91.1 52.3,86.7 51.1,85 50.6,84.4 50.4,84.2 51,83.8 Z"
         id="path10" />
      <path
         d="m 23.5,85.7 c 0.3,1 6.7,-0.3 6.8,-0.4 2.3,-0.3 3,-0.7 2.7,0.7 -0.2,1 -0.3,2.4 -0.5,3.3 -0.7,3 -1.3,5.1 -2.1,7.7 -0.1,0.3 0.3,0.4 0.6,-0.1 1.8,-2 2.9,-3.5 4.5,-5.5 1.7,-2.2 3.7,-5.1 5.8,-3.5 3.399,2.6 4.6,3.3 7.5,5.7 0.6,0.6 4,2.6 4.399,2.3 0.9,-0.7 -5.3,-7.6 -7.7,-10.3 -1.7,-1.9 -1.4,-3.3 0.2,-4 1.7,-0.7 7.601,-2.4 7.5,-2.9 -0.1,-0.7 -4.7,-0.4 -6.7,-0.5 -1.1,-0.1 -4.3,0.1 -5,-0.4 -0.6,-0.4 -1,-0.6 -1.6,-2.7 l -2.4,-9.8 c -0.3,-0.9 -0.7,-1.4 -1.1,0.4 -0.3,1.7 -0.8,6.7 -1,7.8 -0.2,1 -1.8,4.2 -1.8,4.2 0,0 -4,3 -5,3.8 C 27.4,82.5 23.3,85 23.5,85.7 Z"
         fill="#ffd200"
         id="path12" />
      <path
         d="m 12.5,67 c 0.2,1.2 0.6,3.2 2.6,5.3 1.9,2 4.6,2.6 6,2.6 h 0.3 c 1.6,0 2.3,-0.3 2.7,-0.4 h 0.3 c 4.3,0 8.2,-1.9 10.7,-4.3 2.1,-2 3.5,-4.4 4.4,-6.9 0.8,0.1 1.5,0.2 2.2,0.2 1.8,0 3.5,-0.3 5.2,-0.9 1.4,-0.5 2.9,-1.3 4.3,-2.6 0.5,0.8 1,1.5 1.5,2.1 1.601,1.7 3.3,2.6 4.8,3.2 h 0.2 c 1.7,0.6 3.5,0.9 5.2,0.9 3.3,0 6.2,-1.1 8.5,-2.5 1.9,-1.2 3.5,-2.8 4.799,-4.5 0.701,2.1 2,3.9 3.5,5 2.301,1.8 4.9,2.5 7.4,2.5 2.801,0 5.9,-1 8.4,-3.5 5,-5.1 7.9,-10.6 7.9,-16.4 0,-3.5 -1.1,-6.6 -2.301,-8.9 -1.199,-2.3 -2.5,-4 -3.5,-5.4 -1.9,-2.7 -2.9,-4.2 -3.6,-5.3 -0.699,-1.1 -1.199,-2 -2.199,-4 -0.1,-0.2 -0.199,-0.3 -0.199,-0.4 2.801,-3.1 3.201,-6.1 3.301,-8.8 -0.1,-3.4 -0.9,-7.2 -4.7,-10.5 L 89.901,3.2 89.5,3 C 87.4,1.6 84.801,0.4 81.699,0.4 c -3.199,0 -6.199,1.5 -8,3.1 -0.3,0.3 -0.5,0.6 -0.8,0.9 -1.2,-0.9 -2.3,-1.3 -3.2,-1.6 C 68.3,2.4 67.1,2.2 65.8,2.2 c -2,0 -4,0.3 -6.101,1.3 -2,0.8 -4.3,2.3 -6,4.8 -0.8,-1.9 -2.1,-3.5 -3.3,-4.2 l -0.3,-0.2 -0.3,-0.2 c -3,-1.8 -6.4,-2.5 -9.5,-2.5 -4.7,0 -9.1,1.5 -12.8,4 -2.8,1.9 -5.3,4.5 -6.9,7.8 -0.4,-0.2 -0.7,-0.5 -1.1,-0.6 -1.8,-0.8 -3.2,-0.9 -4.4,-1 -3.2,0.1 -5.4,1 -7.9,2.5 -2.3,1.5 -4.9,3.9 -5.9,8 l -0.1,0.5 -0.1,0.5 c -0.3,2.9 -1.3,7 -1.4,11.9 0,2.2 0.2,4.7 1.2,7.2 0.8,2.4 2.4,4.9 4.6,6.8 3.5,3.7 6.8,6.3 9.6,9.1 -0.2,0.3 -0.4,0.7 -0.6,1.2 -0.7,1.4 -1.5,2.4 -2,5.4 C 12.4,65.3 12.4,66.8 12.5,67 Z"
         id="path14-0" />
      <path
         d="m 92.1,36.7 c -3.799,-5.4 -4.299,-6.2 -6.299,-10.3 -0.5,-1 -1.4,-2.4 -1.4,-4.1 0,-1.3 0.5,-2.7 2.299,-4.4 1,-1 1.4,-2.4 1.4,-3.9 C 88.1,12.2 87.5,10.3 86,9.1 84.6,8 83.4,7.7 82.199,7.7 c -2.5,0 -4.1,2 -5.199,4.2 -1.199,2.3 -2.1,5.3 -3,8 -0.4,1.1 -0.5,2.2 -0.5,3.3 0.1,8.3 9.1,14.8 11,22.5 0.199,0.8 0.301,1.6 0.301,2.3 0,1.8 -0.602,3.7 -1.4,5.8 A 5.49,5.49 0 0 0 83.1,55.5 c 0,2.5 2.301,3.9 4.301,3.9 1.1,0 2.4,-0.4 3.199,-1.3 4.201,-4.3 5.801,-8 5.801,-11.3 C 96.6,42.8 94.1,39.6 92.1,36.7 Z M 70,12.2 c -0.1,5.4 -4.7,10.5 -4.6,15.3 0,0.3 0,0.7 0.1,1 0.8,6.5 7.3,12.9 7.4,20.2 0,1.9 -0.5,3.8 -1.6,5.7 -1.5,2.4 -4.5,4.6 -7.9,4.6 -0.9,0 -1.8,-0.1 -2.8,-0.5 -1.7,-0.7 -3.1,-1.8 -3.2,-3.8 0,-0.4 0,-0.6 0.2,-1 1.2,-1.9 3.4,-1.8 3.7,-2.3 1.1,-1.3 1.8,-2.6 1.8,-4 0,-0.7 -0.2,-1.5 -0.5,-2.3 -2.1,-4.7 -4.8,-8.6 -6.7,-13 -1,-1.6 -1.4,-3.2 -1.4,-4.8 0,-5.1 3,-9.7 5.9,-14.8 C 62.2,9.6 64.2,9 66.3,8.9 68,8.8 69.9,9.7 70,12.2 Z m -33.1,6.7 c 0.5,5.6 5.5,9.6 8.9,15.3 2.1,3.4 4,7.6 4,11.9 0,2.7 -0.8,5.5 -2.8,8.1 -1.2,1.3 -3.2,1.9 -5,1.9 -1,0 -1.9,-0.2 -2.7,-0.7 -0.8,-0.5 -1.4,-1.4 -1.3,-2.5 0,-0.4 0.1,-0.8 0.2,-1.2 0.601,-2 1.101,-3.7 1.101,-5.4 0,-0.9 -0.101,-1.8 -0.5,-2.8 C 36.3,35.7 26.6,29.6 26.5,21 c 0,-0.9 0.1,-1.8 0.3,-2.7 1.5,-5.9 8,-9.9 14.1,-9.9 2,0 4,0.5 5.9,1.6 0.6,0.4 1,1.1 1,1.7 -0.101,1.5 -1.2,2.2 -2.3,2.9 -1.1,0.7 -2.4,1.2 -3.4,1.5 -1.6,0.6 -3.8,1 -4.6,1.5 -0.4,0.2 -0.8,0.3 -0.6,1.3 z M 8.8,23.7 c -0.6,3.1 -1.1,7.1 -1.4,11.2 -0.2,3.3 0.8,6.5 3.6,8.8 3.3,3.6 7.2,6.4 10.7,10.3 1.101,1.3 1.5,2.4 1.5,3.7 0,0.8 -0.2,1.7 -0.6,2.6 -0.7,1.1 -2.6,3.6 -2.7,5.4 -0.2,1.2 0.8,2 1.5,2.1 0.8,0.2 2.2,0.1 3.4,-0.1 4.1,-0.8 7.399,-4.1 8.2,-7.6 0.2,-0.8 0.2,-1.6 0.2,-2.3 -0.2,-9.3 -11,-13.6 -14.3,-20.5 -0.7,-1.5 -1,-3.2 -1,-5.1 0,-2.5 0.2,-5.2 0.4,-7.8 0.3,-3.1 -0.2,-7.3 -4,-7.2 -4.5,0.2 -5.3,5.2 -5.5,6.5 z"
         fill="#f58426"
         id="path16" />
      <path
         d="m 93.1,111.5 c 0.1,0 3.301,-1.1 6.301,-1.1 1,0 2,0.1 3,0.6 1.1,0.5 2.199,2 2.1,3.4 h -0.4 l -3.6,0.1 -0.4,0.7 c 0,0 -0.1,0 -0.199,-0.101 h -0.6 c -0.9,0 -2.201,0.2 -3.201,0.4 -1,0.2 -1.699,0.4 -1.699,0.4 z"
         id="path18" />
      <path
         d="m 122.4,125 c 11.1,0 20.199,-4.7 20.199,-10.5 0,-5.8 -9,-10.5 -20.199,-10.5 -11.1,0 -20.201,4.1 -20.201,10.5 0,6.4 9,10.5 20.201,10.5 z"
         fill="#82bc00"
         id="path20" />
      <path
         d="m 137.801,104.9 c -4.102,-2.1 -9.5,-3.3 -15.4,-3.3 -5.9,0 -11.201,1 -15.301,3.1 -4.1,2 -7.199,5.399 -7.199,9.8 0,4.5 3.199,7.8 7.199,9.8 4.1,2 9.5,3.101 15.301,3.101 5.9,0 11.299,-1.2 15.4,-3.301 4,-2.1 7.1,-5.3 7.199,-9.6 -0.1,-4.3 -3.199,-7.5 -7.199,-9.6 z m -2.301,14.9 c -3.199,1.7 -7.9,2.8 -13.199,2.8 -5.301,0 -10,-1 -13.201,-2.6 -3.199,-1.7 -4.6,-3.6 -4.6,-5.5 0,-2 1.301,-3.9 4.6,-5.5 3.201,-1.6 7.9,-2.6 13.201,-2.6 5.199,0 10,1.1 13.199,2.8 3.301,1.7 4.699,3.8 4.6,5.3 0.099,1.5 -1.299,3.6 -4.6,5.3 z"
         id="path22" />
      <path
         d="m 75.801,128.4 c 10,0 18.1,-6.601 18.1,-14.7 0,-8.1 -8.1,-14.7 -18.1,-14.7 -10,0 -18,6.6 -18,14.7 -0.001,8.1 7.999,14.7 18,14.7 z"
         fill="#82bc00"
         id="path24" />
      <path
         d="m 75.801,96.7 c -10.901,0 -20.401,7.2 -20.5,17 0.1,9.8 9.5,17 20.5,17.1 10.898,0 20.398,-7.2 20.5,-17.1 -0.102,-9.8 -9.602,-17 -20.5,-17 z M 87.1,122.2 c -2.799,2.3 -6.799,3.7 -11.299,3.7 -4.5,0 -8.5,-1.5 -11.301,-3.7 -2.8,-2.3 -4.4,-5.3 -4.4,-8.5 0,-3.2 1.6,-6.2 4.4,-8.5 2.8,-2.3 6.8,-3.8 11.301,-3.8 4.5,0 8.5,1.5 11.299,3.8 2.801,2.3 4.4,5.3 4.4,8.5 0,3.2 -1.6,6.2 -4.4,8.5 z"
         id="path26" />
      <path
         d="m 22.8,138.3 c -0.7,-1.5 -1,-3.3 -1,-5 0,-3.1 0.8,-6.399 2.8,-8.899 3.5,-4.7 10.7,-11.4 31.1,-12.2 l 0.2,4.8 c -19.6,1 -24.4,6.5 -27.5,10.3 -1.1,1.3 -1.8,3.9 -1.8,6 0,1.2 0.2,2.3 0.5,3 0.3,0.7 0.5,0.7 0.6,0.7 l -1,4.7 C 24.8,141.3 23.5,139.8 22.8,138.3 Z"
         id="path28" />
      <path
         d="M 38.1,159.4 31.6,132 c 0,0 -10.5,3.2 -7.6,15.9 2.9,12.6 12.9,8.5 14.1,11.5 z"
         fill="#ffffff"
         id="path30" />
      <path
         d="m 28.9,157.3 c -3.6,-2 -6.5,-5.5 -6.8,-10.2 -0.1,-0.9 -0.1,-1.7 -0.1,-2.5 0,-3.8 0.9,-7.5 3.7,-10.5 2.7,-3.1 7,-5.5 13.3,-7.699 l 1.6,4.6 c -5.9,2.1 -9.4,4.2 -11.2,6.3 -1.8,2.101 -2.4,4.2 -2.5,7.3 0,0.601 0,1.301 0.1,2.101 0.3,2.8 1.7,4.8 4.4,6.3 2.6,1.5 6.4,2.3 10.4,2.3 H 44 l 0.3,4.9 c -0.8,0.1 -1.7,0.1 -2.5,0.1 C 37,160.3 32.5,159.3 28.9,157.3 Z"
         id="path32" />
    </g>
  </g>
</svg>
