<?xml version="1.0" encoding="UTF-8" standalone="no"?>
<!-- Created with Vectornator for iOS (http://vectornator.io/) -->
<!DOCTYPE svg PUBLIC "-//W3C//DTD SVG 1.1//EN" "http://www.w3.org/Graphics/SVG/1.1/DTD/svg11.dtd">
<svg height="248px" style="fill-rule:evenodd;clip-rule:evenodd;stroke-linecap:round;stroke-linejoin:round;"
    xmlns:xlink="http://www.w3.org/1999/xlink" xmlns="http://www.w3.org/2000/svg" xml:space="preserve" width="248px"
    xmlns:vectornator="http://vectornator.io" version="1.1" viewBox="0 0 248 248">
    <metadata>
        <vectornator:setting key="DimensionsVisible" value="0" />
        <vectornator:setting key="PencilOnly" value="0" />
        <vectornator:setting key="SnapToPoints" value="0" />
        <vectornator:setting key="OutlineMode" value="0" />
        <vectornator:setting key="CMYKEnabledKey" value="0" />
        <vectornator:setting key="RulersVisible" value="1" />
        <vectornator:setting key="SnapToEdges" value="0" />
        <vectornator:setting key="GuidesVisible" value="0" />
        <vectornator:setting key="DisplayWhiteBackground" value="0" />
        <vectornator:setting key="doHistoryDisabled" value="0" />
        <vectornator:setting key="SnapToGuides" value="1" />
        <vectornator:setting key="TimeLapseWatermarkDisabled" value="0" />
        <vectornator:setting key="Units" value="Points" />
        <vectornator:setting key="DynamicGuides" value="1" />
        <vectornator:setting key="IsolateActiveLayer" value="0" />
        <vectornator:setting key="SnapToGrid" value="0" />
    </metadata>
    <defs />
    <g id="layer2" vectornator:layerName="layer2">
        <g opacity="1">
            <path
                d="M235.246+123.711C235.405+185.056+185.875+234.952+124.53+235.245C63.186+235.537+13.1825+186.116+12.7567+124.772C12.3309+63.4286+61.6435+13.3177+122.986+12.7586C184.329+12.1995+234.547+61.4031+235.239+122.744"
                fill-opacity="0.326613" fill="#5e5c64" opacity="1" />
            <path stroke="#ffffff" stroke-width="4.5"
                d="M235.246+123.711C235.405+185.056+185.875+234.952+124.53+235.245C63.186+235.537+13.1825+186.116+12.7567+124.772C12.3308+63.4286+61.6435+13.3178+122.986+12.7586C184.329+12.1995+234.547+61.4031+235.239+122.744"
                fill="#5e5c64" stroke-linecap="round" opacity="1" stroke-linejoin="round" />
        </g>
    </g>
    <g id="Layer 2" vectornator:layerName="Layer 2">
        <g opacity="1">
            <path
                d="M123.401+36.5233C121.872+36.6003+120.375+36.9793+118.996+37.638L58.8888+66.3577C55.7374+67.8627+53.4484+70.7091+52.6697+74.0911L37.8409+138.603C37.1491+141.606+37.712+144.759+39.4015+147.343C39.6042+147.656+39.8223+147.959+40.0549+148.251L81.6586+199.978C83.84+202.69+87.1475+204.269+90.645+204.268L157.363+204.253C160.859+204.255+164.167+202.679+166.35+199.971L207.938+148.235C210.121+145.522+210.938+141.971+210.16+138.588L195.308+74.0758C194.529+70.6937+192.24+67.8474+189.089+66.3423L128.974+37.638C127.24+36.8094+125.323+36.4261+123.401+36.5233Z"
                opacity="1" fill="#326ce5" />
            <path stroke="#ffffff" stroke-width="0.25"
                d="M123.996+58.4775C122.009+58.4777+120.398+60.2674+120.399+62.4749C120.399+62.5088+120.405+62.5412+120.406+62.5749C120.403+62.8748+120.389+63.2362+120.399+63.4973C120.446+64.7706+120.723+65.7451+120.891+66.9182C121.193+69.429+121.447+71.5102+121.29+73.4447C121.138+74.1742+120.601+74.8413+120.122+75.305L120.037+76.8271C117.878+77.006+115.705+77.3336+113.534+77.8265C104.192+79.9475+96.1494+84.7593+90.026+91.2562C89.6287+90.9851+88.9336+90.4864+88.7269+90.3337C88.0845+90.4205+87.4353+90.6186+86.5898+90.1262C84.9798+89.0424+83.5134+87.5464+81.7391+85.7444C80.9261+84.8824+80.3373+84.0616+79.3714+83.2306C79.1521+83.042+78.8173+82.7867+78.5719+82.5926C77.8168+81.9905+76.9261+81.6765+76.0659+81.6471C74.9599+81.6092+73.8952+82.0416+73.1985+82.9155C71.9599+84.469+72.3564+86.8435+74.0825+88.2197C74.1001+88.2337+74.1187+88.2445+74.1364+88.2581C74.3735+88.4504+74.664+88.6968+74.882+88.8578C75.907+89.6146+76.8434+90.002+77.8647+90.6028C80.0164+91.9316+81.8002+93.0334+83.2151+94.3619C83.7676+94.9508+83.8641+95.9886+83.9377+96.4374L85.0908+97.4675C78.9179+106.757+76.0611+118.232+77.7494+129.923L76.2427+130.362C75.8456+130.874+75.2844+131.681+74.6975+131.922C72.8464+132.505+70.763+132.719+68.2479+132.983C67.067+133.081+66.0482+133.022+64.7963+133.26C64.5207+133.312+64.1368+133.412+63.8354+133.483C63.8249+133.485+63.8151+133.488+63.8046+133.49C63.7882+133.494+63.7666+133.502+63.7508+133.506C61.6303+134.018+60.2681+135.967+60.7066+137.887C61.1453+139.808+63.2165+140.976+65.3498+140.516C65.3652+140.513+65.3875+140.512+65.4036+140.509C65.4277+140.503+65.4489+140.492+65.4728+140.486C65.7701+140.42+66.1428+140.348+66.4029+140.278C67.6337+139.949+68.5251+139.464+69.6316+139.04C72.0121+138.187+73.9836+137.473+75.9044+137.196C76.7067+137.133+77.5519+137.691+77.9723+137.926L79.5405+137.657C83.1493+148.845+90.7121+157.889+100.289+163.563L99.6351+165.131C99.8707+165.74+100.13+166.564+99.955+167.165C99.2567+168.976+98.0606+170.888+96.6986+173.018C96.0391+174.003+95.3642+174.767+94.7691+175.893C94.6267+176.163+94.4453+176.577+94.3078+176.862C93.3832+178.84+94.0614+181.119+95.8376+181.974C97.6249+182.835+99.8435+181.927+100.804+179.945C100.805+179.942+100.81+179.94+100.811+179.937C100.812+179.935+100.81+179.931+100.811+179.929C100.948+179.648+101.142+179.279+101.257+179.014C101.767+177.847+101.936+176.846+102.295+175.717C103.247+173.326+103.77+170.817+105.08+169.253C105.439+168.825+106.024+168.661+106.631+168.498L107.445+167.022C115.794+170.227+125.139+171.087+134.474+168.967C136.604+168.484+138.659+167.858+140.647+167.107C140.876+167.513+141.302+168.294+141.416+168.491C142.032+168.691+142.705+168.795+143.253+169.605C144.233+171.28+144.904+173.262+145.721+175.655C146.079+176.785+146.256+177.785+146.766+178.953C146.882+179.219+147.075+179.594+147.212+179.875C148.17+181.864+150.396+182.775+152.186+181.913C153.961+181.057+154.64+178.779+153.715+176.801C153.578+176.516+153.389+176.102+153.246+175.832C152.651+174.705+151.976+173.949+151.317+172.965C149.955+170.834+148.825+169.064+148.127+167.253C147.835+166.319+148.176+165.738+148.403+165.131C148.267+164.975+147.976+164.093+147.804+163.678C157.756+157.802+165.097+148.421+168.544+137.588C169.01+137.661+169.819+137.804+170.082+137.857C170.623+137.5+171.12+137.034+172.096+137.111C174.016+137.389+175.988+138.102+178.368+138.956C179.475+139.38+180.366+139.872+181.597+140.201C181.857+140.271+182.23+140.336+182.527+140.401C182.551+140.407+182.572+140.419+182.597+140.424C182.613+140.428+182.635+140.428+182.65+140.432C184.784+140.891+186.855+139.724+187.293+137.803C187.731+135.882+186.37+133.933+184.249+133.421C183.941+133.351+183.503+133.232+183.204+133.175C181.952+132.938+180.933+132.996+179.752+132.898C177.237+132.635+175.154+132.42+173.303+131.837C172.548+131.545+172.011+130.647+171.75+130.277L170.297+129.854C171.05+124.404+170.847+118.732+169.543+113.057C168.228+107.33+165.903+102.091+162.802+97.4752C163.174+97.1364+163.878+96.5132+164.078+96.3298C164.136+95.6843+164.086+95.0075+164.754+94.2927C166.169+92.9642+167.953+91.8625+170.105+90.5336C171.126+89.9328+172.07+89.5454+173.095+88.7886C173.327+88.6174+173.643+88.3464+173.887+88.1505C175.613+86.7739+176.01+84.3995+174.771+82.8463C173.532+81.2931+171.131+81.1468+169.405+82.5234C169.159+82.718+168.826+82.9718+168.606+83.1615C167.64+83.9924+167.043+84.8132+166.23+85.6752C164.456+87.4774+162.989+88.9808+161.38+90.0647C160.682+90.4708+159.66+90.3303+159.196+90.303L157.828+91.2793C150.025+83.0974+139.402+77.8663+127.963+76.8502C127.931+76.3708+127.889+75.5043+127.878+75.2435C127.41+74.7954+126.844+74.4129+126.702+73.4447C126.546+71.5102+126.807+69.429+127.11+66.9182C127.277+65.7451+127.554+64.7706+127.602+63.4973C127.612+63.2079+127.595+62.7879+127.594+62.4749C127.594+60.2674+125.983+58.4773+123.996+58.4775ZM119.491+86.3824L118.423+105.255L118.346+105.293C118.274+106.982+116.885+108.33+115.179+108.33C114.48+108.33+113.835+108.105+113.311+107.722L113.28+107.738L97.8056+96.768C102.562+92.0914+108.645+88.6353+115.655+87.0436C116.936+86.7528+118.216+86.537+119.491+86.3824ZM128.509+86.3824C136.694+87.3891+144.263+91.0954+150.064+96.7757L134.689+107.676L134.635+107.653C133.271+108.65+131.348+108.403+130.284+107.069C129.849+106.523+129.62+105.88+129.593+105.232L129.577+105.224L128.509+86.3824ZM92.1938+103.817L106.323+116.455L106.308+116.532C107.583+117.641+107.771+119.565+106.707+120.898C106.272+121.445+105.689+121.811+105.062+121.982L105.047+122.044L86.9357+127.271C86.0139+118.842+88.0005+110.649+92.1938+103.817ZM155.699+103.825C157.798+107.228+159.388+111.028+160.334+115.148C161.269+119.219+161.504+123.283+161.118+127.21L142.915+121.967L142.899+121.89C141.269+121.445+140.267+119.786+140.647+118.123C140.802+117.442+141.164+116.866+141.654+116.44L141.646+116.401C141.646+116.401+155.699+103.825+155.699+103.825ZM121.098+117.431L126.887+117.431L130.484+121.929L129.193+127.54L123.996+130.039L118.784+127.533L117.493+121.921L121.098+117.431ZM139.655+132.821C139.901+132.809+140.146+132.831+140.386+132.875L140.416+132.837L159.15+136.004C156.409+143.707+151.162+150.38+144.152+154.846L136.88+137.28L136.903+137.249C136.235+135.697+136.904+133.877+138.441+133.137C138.834+132.947+139.245+132.842+139.655+132.821ZM108.191+132.898C109.621+132.918+110.903+133.911+111.235+135.366C111.391+136.047+111.315+136.722+111.058+137.319L111.112+137.388L103.917+154.776C97.1898+150.46+91.8315+143.996+88.9652+136.065L107.538+132.914L107.568+132.952C107.776+132.914+107.987+132.895+108.191+132.898ZM123.881+140.516C124.379+140.498+124.884+140.6+125.365+140.832C125.994+141.135+126.481+141.612+126.787+142.185L126.856+142.185L136.011+158.728C134.823+159.126+133.602+159.466+132.352+159.75C125.35+161.34+118.37+160.858+112.05+158.705L121.183+142.192L121.198+142.192C121.746+141.168+122.785+140.557+123.881+140.516Z"
                fill="#ffffff" stroke-linecap="butt" opacity="1" stroke-linejoin="miter" />
        </g>
    </g>
</svg>