<?xml version="1.0" encoding="UTF-8" standalone="no"?>
<svg
   xmlns:dc="http://purl.org/dc/elements/1.1/"
   xmlns:cc="http://creativecommons.org/ns#"
   xmlns:rdf="http://www.w3.org/1999/02/22-rdf-syntax-ns#"
   xmlns:svg="http://www.w3.org/2000/svg"
   xmlns="http://www.w3.org/2000/svg"
   xmlns:sodipodi="http://sodipodi.sourceforge.net/DTD/sodipodi-0.dtd"
   xmlns:inkscape="http://www.inkscape.org/namespaces/inkscape"
   width="248.0px"
   height="248.0px"
   viewBox="0 0 248.0 248.0"
   version="1.1"
   id="SVGRoot"
   sodipodi:docname="keycdn-logo White.svg"
   inkscape:version="1.0.2-2 (e86c870879, 2021-01-15)">
  <defs
     id="defs1402">
    <inkscape:path-effect
       effect="fillet_chamfer"
       id="path-effect2040"
       is_visible="true"
       lpeversion="1"
       satellites_param="F,0,0,1,0,0,0,1 @ F,0,0,1,0,6.0755415,0,1 @ F,0,0,1,0,6.1445293,0,1 @ F,0,0,1,0,0,0,1"
       unit="px"
       method="auto"
       mode="F"
       radius="0"
       chamfer_steps="1"
       flexible="false"
       use_knot_distance="true"
       apply_no_radius="true"
       apply_with_radius="true"
       only_selected="true"
       hide_knots="false" />
    <style
       id="style1979">.cls-1{fill:url(#GreenGradient);}.cls-2{fill:#fff;}</style>
    <linearGradient
       id="GreenGradient"
       x1="-522.53"
       y1="465.47"
       x2="-416.47"
       y2="571.53"
       gradientTransform="rotate(-90,-456.5,24.5)"
       gradientUnits="userSpaceOnUse">
      <stop
         offset="0"
         stop-color="#1b660f"
         id="stop1981" />
      <stop
         offset="1"
         stop-color="#6cae3e"
         id="stop1983" />
    </linearGradient>
    <linearGradient
       id="OrangeGradient"
       x1="1131.1"
       y1="-516.47998"
       x2="1131.1"
       y2="-366.48001"
       gradientTransform="rotate(-135,816.69218,-8.7994369)"
       gradientUnits="userSpaceOnUse">
      <stop
         offset="0"
         stop-color="#c8511b"
         id="stop138" />
      <stop
         offset="1"
         stop-color="#f90"
         id="stop140" />
    </linearGradient>
  </defs>
  <sodipodi:namedview
     id="base"
     pagecolor="#ffffff"
     bordercolor="#666666"
     borderopacity="1.0"
     inkscape:pageopacity="0"
     inkscape:pageshadow="2"
     inkscape:zoom="0.86616451"
     inkscape:cx="131.70959"
     inkscape:cy="131.70959"
     inkscape:document-units="px"
     inkscape:current-layer="layer2"
     inkscape:document-rotation="0"
     showgrid="true"
     inkscape:window-width="1366"
     inkscape:window-height="705"
     inkscape:window-x="-8"
     inkscape:window-y="-8"
     inkscape:window-maximized="1"
     inkscape:snap-global="false"
     showguides="true">
    <inkscape:grid
       type="xygrid"
       id="grid1972" />
  </sodipodi:namedview>
  <metadata
     id="metadata1405">
    <rdf:RDF>
      <cc:Work
         rdf:about="">
        <dc:format>image/svg+xml</dc:format>
        <dc:type
           rdf:resource="http://purl.org/dc/dcmitype/StillImage" />
        <dc:title />
      </cc:Work>
    </rdf:RDF>
  </metadata>
  <g
     inkscape:groupmode="layer"
     id="layer3"
     inkscape:label="BG" />
  <g
     inkscape:groupmode="layer"
     id="layer4"
     inkscape:label="Bounding Box" />
  <g
     inkscape:groupmode="layer"
     id="layer2"
     inkscape:label="Top">
    <g
       id="g858"
       transform="translate(-0.19315289,-0.04989999)">
      <path
         style="fill:none;fill-opacity:1;stroke:#000000;stroke-width:4.5;stroke-linecap:round;stroke-linejoin:round;stroke-miterlimit:4;stroke-dasharray:none;stroke-opacity:1;paint-order:normal"
         id="path883"
         sodipodi:type="arc"
         sodipodi:cx="154.57903"
         sodipodi:cy="83.172447"
         sodipodi:rx="111.24604"
         sodipodi:ry="111.24604"
         sodipodi:start="5.9893981"
         sodipodi:end="5.9807042"
         sodipodi:open="true"
         sodipodi:arc-type="arc"
         transform="rotate(16.68412)"
         d="M 261.05862,50.957904 A 111.24604,111.24604 0 0 1 187.02492,189.58178 111.24604,111.24604 0 0 1 48.240468,115.84955 111.24604,111.24604 0 0 1 121.67088,-23.094836 111.24604,111.24604 0 0 1 260.77453,50.03341" />
      <path
         style="fill:#3d3846;fill-opacity:0.326613;stroke:none;stroke-width:4.45107;stroke-linecap:round;stroke-linejoin:round;stroke-miterlimit:4;stroke-dasharray:none;stroke-opacity:1;paint-order:normal"
         id="path885"
         sodipodi:type="arc"
         sodipodi:cx="154.57903"
         sodipodi:cy="83.172447"
         sodipodi:rx="110.03654"
         sodipodi:ry="110.03654"
         sodipodi:start="5.9893981"
         sodipodi:end="5.9807042"
         sodipodi:open="true"
         sodipodi:arc-type="arc"
         transform="rotate(16.68412)"
         d="M 259.90094,51.308151 A 110.03654,110.03654 0 0 1 186.67216,188.42486 110.03654,110.03654 0 0 1 49.396616,115.49427 110.03654,110.03654 0 0 1 122.02867,-21.939463 110.03654,110.03654 0 0 1 259.61994,50.393709" />
    </g>
    <g
       id="g19"
       transform="matrix(1.2484765,0,0,1.2484765,38.422692,99.12473)">
      <path
         fill="#2e3234"
         d="m 3.971,32.104 c 0.39,0.016 0.784,0.07 1.151,0.205 v -0.004 l 0.056,0.02 4.842,-4.723 0.178,0.237 c 0.251,0.34 0.518,0.651 0.8,0.962 l 0.103,0.119 c 0.074,0.074 0.133,0.148 0.207,0.222 l 0.12,0.118 0.117,0.119 0.104,0.103 0.118,0.119 0.104,0.103 0.133,0.119 0.12,0.104 a 12.868,12.868 0 0 0 8.025,3.065 12.983,12.983 0 0 0 6.915,-1.792 l 0.37,0.385 c 0.43,0.459 0.874,0.918 1.304,1.377 a 15.234,15.234 0 0 1 -8.648,2.414 15.224,15.224 0 0 1 -9.418,-3.554 l 0.015,-0.03 -3.107,3.063 A 3.873,3.873 0 1 1 3.873,32.103 h 0.1 z M 33.58,12.127 a 15.231,15.231 0 0 1 2.206,8.323 15.172,15.172 0 0 1 -3.805,9.684 l 0.015,0.015 1.91,2.029 c 0.77,-0.104 1.54,0.162 2.073,0.725 a 2.405,2.405 0 0 1 -0.089,3.391 2.405,2.405 0 0 1 -3.39,-0.089 2.388,2.388 0 0 1 -0.608,-2.102 739.91,739.91 0 0 0 -3.36,-3.569 l -0.194,-0.207 0.222,-0.178 a 12,12 0 0 0 1.6,-1.525 12.818,12.818 0 0 0 3.243,-8.233 12.84,12.84 0 0 0 -1.6,-6.575 z M 6.597,3.076 c 0.68,-0.01 1.32,0.259 1.794,0.744 a 2.39,2.39 0 0 1 0.607,2.103 l 3.673,3.85 -0.223,0.178 c -0.577,0.459 -1.11,0.962 -1.599,1.525 A 12.927,12.927 0 0 0 9.191,26.298 L 7.428,28.016 A 15.112,15.112 0 0 1 5.208,19.65 C 5.284,16.085 6.673,12.641 9.006,9.959 L 6.984,7.849 A 2.406,2.406 0 0 1 4.911,7.122 2.405,2.405 0 0 1 5.001,3.731 2.43,2.43 0 0 1 6.368,3.091 C 6.444,3.083 6.521,3.081 6.598,3.075 Z M 37.498,0 A 3.873,3.873 0 1 1 36.29,7.553 v 0.005 l -0.06,-0.021 -5.257,4.99 -0.178,-0.237 c -0.28,-0.37 -0.592,-0.74 -0.918,-1.08 L 29.817,11.135 29.655,10.972 29.359,10.676 29.255,10.587 29.152,10.499 29.019,10.38 28.915,10.291 28.781,10.173 A 12.862,12.862 0 0 0 20.815,7.152 C 18.371,7.092 15.987,7.7 13.915,8.944 L 12.226,7.181 a 15.233,15.233 0 0 1 8.648,-2.414 15.154,15.154 0 0 1 9.418,3.569 h 0.03 l 3.48,-3.305 A 3.873,3.873 0 0 1 37.5,0 Z"
         id="path2" />
      <path
         fill="#047aed"
         d="m 20.617,8.646 c 0.438,0.002 0.875,0.036 1.309,0.086 6.249,0.785 10.676,6.486 9.906,12.735 -0.785,6.25 -6.486,10.677 -12.735,9.907 C 12.848,30.589 8.42,24.887 9.19,18.639 9.936,12.842 14.806,8.666 20.617,8.646 Z m -0.171,4.894 c -2.53,0.203 -4.36,2.116 -4.425,4.659 0.04,1.766 0.802,3.013 2.246,3.989 l 0.348,0.189 -0.88,4.139 h 5.901 l -0.879,-4.14 c 1.62,-0.834 2.547,-2.365 2.593,-4.177 -0.034,-2.624 -2.064,-4.6 -4.664,-4.665 z m 0.088,-0.025 h -0.015 z m 30.457,0.999 c -0.287,0 -0.489,0.058 -0.834,0.518 l -4.772,6.21 2.07,-11.644 C 47.541,9.167 47.311,9.023 46.966,9.023 h -4.313 c -0.517,0 -0.66,0.259 -0.718,0.575 l -3.709,21.016 c -0.086,0.46 0.201,0.633 0.517,0.633 h 4.313 c 0.316,0 0.632,-0.317 0.69,-0.633 l 1.15,-6.555 2.501,6.555 c 0.173,0.46 0.403,0.633 0.719,0.633 h 5.175 c 0.374,0 0.517,-0.345 0.374,-0.633 l -3.68,-8.05 6.555,-7.446 c 0.23,-0.23 0.201,-0.604 -0.202,-0.604 z m 20.014,5.923 c 0,-3.422 -1.955,-6.182 -6.124,-6.182 -4.801,0 -8.079,2.128 -9.027,7.82 l -0.317,1.898 a 8.854,8.854 0 0 0 -0.115,1.466 c 0,4.083 3.163,6.066 6.354,6.066 2.415,0 4.37,-0.287 6.296,-0.89 0.489,-0.145 0.633,-0.346 0.719,-0.806 l 0.46,-2.587 v -0.115 c 0,-0.26 -0.173,-0.374 -0.431,-0.374 h -0.115 c -1.093,0.115 -3.997,0.23 -5.52,0.23 -1.438,0 -2.358,-0.201 -2.358,-1.639 0,-0.259 0.029,-0.546 0.086,-0.891 h 8.942 A 0.737,0.737 0 0 0 70.573,23.8 l 0.288,-1.725 c 0.086,-0.546 0.144,-1.092 0.144,-1.638 z M 65.83,20.235 c 0,0.345 -0.058,0.748 -0.144,1.15 h -4.255 c 0.345,-1.638 1.035,-2.846 2.645,-2.846 1.294,0 1.754,0.69 1.754,1.696 z m 24.527,-5.29 c 0,-0.23 -0.259,-0.43 -0.517,-0.43 h -4.744 c -0.316,0 -0.604,0.23 -0.719,0.545 l -4.111,10.408 h -0.23 c -0.172,0 -0.201,-0.144 -0.23,-0.489 l -0.518,-9.89 c -0.028,-0.316 -0.143,-0.575 -0.46,-0.575 h -4.627 c -0.489,0 -0.719,0.23 -0.719,0.546 v 0.087 l 1.667,13.685 c 0.173,1.466 0.92,1.983 2.272,1.983 h 0.374 l -0.403,0.95 c -0.345,0.833 -0.949,1.092 -1.754,1.092 -1.092,0 -2.817,-0.173 -3.881,-0.23 h -0.029 c -0.345,0 -0.69,0.287 -0.747,0.603 l -0.489,2.79 v 0.085 c 0,0.26 0.259,0.345 0.546,0.46 0.748,0.288 2.645,0.518 3.795,0.518 4.514,0 6.153,-1.783 7.562,-4.859 l 7.906,-17.077 a 0.533,0.533 0 0 0 0.057,-0.202 z"
         id="path4" />
      <path
         fill="#2e3234"
         d="m 103.13,15.175 c 0,-0.287 -0.173,-0.373 -0.489,-0.46 -0.776,-0.2 -2.156,-0.46 -3.853,-0.46 -4.427,0 -7.273,2.214 -8.193,7.562 l -0.374,2.156 a 11.156,11.156 0 0 0 -0.144,1.639 c 0,3.363 1.955,5.893 5.664,5.893 1.696,0 3.019,-0.23 4.025,-0.46 0.403,-0.086 0.633,-0.23 0.69,-0.603 l 0.575,-3.22 v -0.115 c 0,-0.26 -0.201,-0.432 -0.46,-0.432 h -0.057 c -1.007,0.058 -1.927,0.173 -3.335,0.173 -0.978,0 -1.553,-0.345 -1.553,-1.639 0,-0.345 0.029,-0.747 0.115,-1.236 l 0.374,-2.156 c 0.402,-2.387 1.236,-2.904 2.472,-2.904 1.409,0 2.272,0.144 3.249,0.201 h 0.058 c 0.316,0 0.603,-0.23 0.66,-0.546 l 0.576,-3.249 z m 17.943,-5.663 c 0,-0.288 -0.258,-0.49 -0.546,-0.49 h -4.284 c -0.316,0 -0.603,0.26 -0.66,0.576 l -0.863,4.859 c -0.575,-0.087 -1.553,-0.202 -2.013,-0.202 -5.232,0 -7.849,2.185 -8.797,7.504 l -0.403,2.243 a 9.023,9.023 0 0 0 -0.144,1.466 c 0,3.536 2.444,6.037 6.383,6.037 2.587,0 5.031,-0.402 6.584,-0.718 0.92,-0.202 1.063,-0.374 1.15,-0.92 l 3.594,-20.27 z m -7.158,9.43 -1.38,7.877 c -0.547,0.086 -1.15,0.144 -1.984,0.144 -1.236,0 -1.667,-0.719 -1.667,-1.84 0,-0.345 0.028,-0.719 0.114,-1.121 l 0.403,-2.243 c 0.287,-1.667 0.977,-2.932 2.587,-2.932 0.69,0 1.352,0.057 1.927,0.115 z m 23.176,0.2 c 0,-3.22 -1.323,-4.887 -4.514,-4.887 -1.063,0 -2.645,0.26 -4.657,1.582 l 0.144,-0.748 c 0.086,-0.431 -0.115,-0.575 -0.49,-0.575 h -3.938 c -0.316,0 -0.604,0.259 -0.661,0.575 l -2.76,15.525 c -0.058,0.403 0.259,0.633 0.661,0.633 h 4.111 c 0.432,0 0.719,-0.288 0.777,-0.633 l 1.955,-11.126 c 0.517,-0.288 1.58,-0.633 2.443,-0.633 0.978,0 1.352,0.23 1.352,1.122 0,0.488 -0.115,0.977 -0.202,1.466 l -1.61,9.171 c -0.057,0.288 0,0.633 0.489,0.633 h 4.313 c 0.345,0 0.66,-0.317 0.718,-0.633 l 1.582,-8.97 c 0.143,-0.805 0.287,-1.754 0.287,-2.501 z"
         id="path6" />
    </g>
  </g>
</svg>
