<?xml version="1.0" encoding="UTF-8" standalone="no"?>
<svg
   width="150"
   height="150"
   viewBox="0 0 96 96"
   version="1.1"
   id="svg84"
   sodipodi:docname="Microsoft_Azure.svg"
   inkscape:version="1.2.1 (9c6d41e410, 2022-07-14)"
   xmlns:inkscape="http://www.inkscape.org/namespaces/inkscape"
   xmlns:sodipodi="http://sodipodi.sourceforge.net/DTD/sodipodi-0.dtd"
   xmlns="http://www.w3.org/2000/svg"
   xmlns:svg="http://www.w3.org/2000/svg">
  <sodipodi:namedview
     id="namedview86"
     pagecolor="#ffffff"
     bordercolor="#000000"
     borderopacity="0.25"
     inkscape:showpageshadow="2"
     inkscape:pageopacity="0.0"
     inkscape:pagecheckerboard="0"
     inkscape:deskcolor="#d1d1d1"
     showgrid="false"
     inkscape:zoom="5.2133333"
     inkscape:cx="42.679028"
     inkscape:cy="75"
     inkscape:window-width="1920"
     inkscape:window-height="1011"
     inkscape:window-x="0"
     inkscape:window-y="0"
     inkscape:window-maximized="1"
     inkscape:current-layer="svg84" />
  <defs
     id="defs74">
    <linearGradient
       id="e399c19f-b68f-429d-b176-18c2117ff73c"
       x1="-1032.172"
       x2="-1059.213"
       y1="145.312"
       y2="65.426"
       gradientTransform="matrix(1,0,0,-1,1075,158)"
       gradientUnits="userSpaceOnUse">
      <stop
         offset="0"
         stop-color="#114a8b"
         id="stop53" />
      <stop
         offset="1"
         stop-color="#0669bc"
         id="stop55" />
    </linearGradient>
    <linearGradient
       id="ac2a6fc2-ca48-4327-9a3c-d4dcc3256e15"
       x1="-1023.725"
       x2="-1029.98"
       y1="108.083"
       y2="105.968"
       gradientTransform="matrix(1,0,0,-1,1075,158)"
       gradientUnits="userSpaceOnUse">
      <stop
         offset="0"
         stop-opacity=".3"
         id="stop58" />
      <stop
         offset=".071"
         stop-opacity=".2"
         id="stop60" />
      <stop
         offset=".321"
         stop-opacity=".1"
         id="stop62" />
      <stop
         offset=".623"
         stop-opacity=".05"
         id="stop64" />
      <stop
         offset="1"
         stop-opacity="0"
         id="stop66" />
    </linearGradient>
    <linearGradient
       id="a7fee970-a784-4bb1-af8d-63d18e5f7db9"
       x1="-1027.165"
       x2="-997.482"
       y1="147.642"
       y2="68.561"
       gradientTransform="matrix(1,0,0,-1,1075,158)"
       gradientUnits="userSpaceOnUse">
      <stop
         offset="0"
         stop-color="#3ccbf4"
         id="stop69" />
      <stop
         offset="1"
         stop-color="#2892df"
         id="stop71" />
    </linearGradient>
  </defs>
  <g
     id="g324"
     transform="matrix(0.66422019,0,0,0.66422019,16.4287,14.204679)">
    <path
       fill="url(#e399c19f-b68f-429d-b176-18c2117ff73c)"
       d="m 33.338,6.544 h 26.038 l -27.03,80.087 a 4.152,4.152 0 0 1 -3.933,2.824 H 8.149 A 4.145,4.145 0 0 1 4.221,83.985 L 29.404,9.368 a 4.152,4.152 0 0 1 3.934,-2.825 z"
       id="path76"
       style="fill:url(#e399c19f-b68f-429d-b176-18c2117ff73c)" />
    <path
       fill="#0078d4"
       d="M 71.175,60.261 H 29.885 A 1.911,1.911 0 0 0 28.58,63.57 l 26.532,24.764 a 4.171,4.171 0 0 0 2.846,1.121 h 23.38 z"
       id="path78" />
    <path
       fill="url(#ac2a6fc2-ca48-4327-9a3c-d4dcc3256e15)"
       d="M 33.338,6.544 A 4.118,4.118 0 0 0 29.395,9.423 L 4.252,83.917 a 4.14,4.14 0 0 0 3.908,5.538 h 20.787 a 4.443,4.443 0 0 0 3.41,-2.9 l 5.014,-14.777 17.91,16.705 a 4.237,4.237 0 0 0 2.666,0.972 H 81.24 L 71.024,60.261 41.243,60.268 59.47,6.544 Z"
       id="path80"
       style="fill:url(#ac2a6fc2-ca48-4327-9a3c-d4dcc3256e15)" />
    <path
       fill="url(#a7fee970-a784-4bb1-af8d-63d18e5f7db9)"
       d="M 66.595,9.364 A 4.145,4.145 0 0 0 62.667,6.544 H 33.648 a 4.146,4.146 0 0 1 3.928,2.82 l 25.184,74.62 a 4.146,4.146 0 0 1 -3.928,5.472 h 29.02 a 4.146,4.146 0 0 0 3.927,-5.472 z"
       id="path82"
       style="fill:url(#a7fee970-a784-4bb1-af8d-63d18e5f7db9)" />
  </g>
  <ellipse
     style="fill:#999999;stroke-width:1.16664;opacity:0.12530177;stroke:#ffffff;stroke-opacity:0.98863977"
     id="path326"
     cx="18.828966"
     cy="65.139839"
     rx="47.751892"
     ry="47.911427"
     transform="matrix(0.87905746,-0.47671583,0.48243468,0.87593195,0,0)" />
</svg>
