<?xml version="1.0" encoding="UTF-8" standalone="no"?>
<svg
   xmlns:dc="http://purl.org/dc/elements/1.1/"
   xmlns:cc="http://creativecommons.org/ns#"
   xmlns:rdf="http://www.w3.org/1999/02/22-rdf-syntax-ns#"
   xmlns:svg="http://www.w3.org/2000/svg"
   xmlns="http://www.w3.org/2000/svg"
   xmlns:sodipodi="http://sodipodi.sourceforge.net/DTD/sodipodi-0.dtd"
   xmlns:inkscape="http://www.inkscape.org/namespaces/inkscape"
   width="248.0px"
   height="248.0px"
   viewBox="0 0 248.0 248.0"
   version="1.1"
   id="SVGRoot"
   sodipodi:docname="nodejs-icon White.svg"
   inkscape:version="1.0.2-2 (e86c870879, 2021-01-15)">
  <defs
     id="defs1402">
    <inkscape:path-effect
       effect="fillet_chamfer"
       id="path-effect2040"
       is_visible="true"
       lpeversion="1"
       satellites_param="F,0,0,1,0,0,0,1 @ F,0,0,1,0,6.0755415,0,1 @ F,0,0,1,0,6.1445293,0,1 @ F,0,0,1,0,0,0,1"
       unit="px"
       method="auto"
       mode="F"
       radius="0"
       chamfer_steps="1"
       flexible="false"
       use_knot_distance="true"
       apply_no_radius="true"
       apply_with_radius="true"
       only_selected="true"
       hide_knots="false" />
    <style
       id="style1979">.cls-1{fill:url(#GreenGradient);}.cls-2{fill:#fff;}</style>
    <linearGradient
       id="GreenGradient"
       x1="-522.53"
       y1="465.47"
       x2="-416.47"
       y2="571.53"
       gradientTransform="rotate(-90,-456.5,24.5)"
       gradientUnits="userSpaceOnUse">
      <stop
         offset="0"
         stop-color="#1b660f"
         id="stop1981" />
      <stop
         offset="1"
         stop-color="#6cae3e"
         id="stop1983" />
    </linearGradient>
    <linearGradient
       id="OrangeGradient"
       x1="1131.1"
       y1="-516.47998"
       x2="1131.1"
       y2="-366.48001"
       gradientTransform="rotate(-135,816.69218,-8.7994369)"
       gradientUnits="userSpaceOnUse">
      <stop
         offset="0"
         stop-color="#c8511b"
         id="stop138" />
      <stop
         offset="1"
         stop-color="#f90"
         id="stop140" />
    </linearGradient>
    <linearGradient
       id="a"
       gradientTransform="matrix(10.948793,0,0,-10.948793,-716.33299,1823.6321)"
       gradientUnits="userSpaceOnUse"
       x1="62.57"
       x2="25.030001"
       y1="150.13"
       y2="85.110001">
      <stop
         offset="0"
         stop-color="#0052cc"
         id="stop2" />
      <stop
         offset=".92"
         stop-color="#2684ff"
         id="stop4-5" />
    </linearGradient>
    <filter
       style="color-interpolation-filters:sRGB;"
       inkscape:label="Colorize"
       id="filter754">
      <feComposite
         in2="SourceGraphic"
         operator="arithmetic"
         k1="0"
         k2="1"
         result="composite1"
         id="feComposite740" />
      <feColorMatrix
         in="composite1"
         values="1"
         type="saturate"
         result="colormatrix1"
         id="feColorMatrix742" />
      <feFlood
         flood-opacity="1"
         flood-color="rgb(66,101,153)"
         result="flood1"
         id="feFlood744" />
      <feBlend
         in="flood1"
         in2="colormatrix1"
         mode="multiply"
         result="blend1"
         id="feBlend746" />
      <feBlend
         in2="blend1"
         mode="screen"
         result="blend2"
         id="feBlend748" />
      <feColorMatrix
         in="blend2"
         values="1"
         type="saturate"
         result="colormatrix2"
         id="feColorMatrix750" />
      <feComposite
         in="colormatrix2"
         in2="SourceGraphic"
         operator="in"
         k2="1"
         result="composite2"
         id="feComposite752" />
    </filter>
    <filter
       style="color-interpolation-filters:sRGB;"
       inkscape:label="Colorize"
       id="filter562">
      <feComposite
         in2="SourceGraphic"
         operator="arithmetic"
         k1="0"
         k2="1"
         result="composite1"
         id="feComposite548" />
      <feColorMatrix
         in="composite1"
         values="1"
         type="saturate"
         result="colormatrix1"
         id="feColorMatrix550" />
      <feFlood
         flood-opacity="1"
         flood-color="rgb(29,131,239)"
         result="flood1"
         id="feFlood552" />
      <feBlend
         in="flood1"
         in2="colormatrix1"
         mode="multiply"
         result="blend1"
         id="feBlend554" />
      <feBlend
         in2="blend1"
         mode="screen"
         result="blend2"
         id="feBlend556" />
      <feColorMatrix
         in="blend2"
         values="1"
         type="saturate"
         result="colormatrix2"
         id="feColorMatrix558" />
      <feComposite
         in="colormatrix2"
         in2="SourceGraphic"
         operator="in"
         k2="1"
         result="composite2"
         id="feComposite560" />
    </filter>
    <filter
       style="color-interpolation-filters:sRGB;"
       inkscape:label="Colorize"
       id="filter213">
      <feComposite
         in2="SourceGraphic"
         operator="arithmetic"
         k1="0"
         k2="1"
         result="composite1"
         id="feComposite199" />
      <feColorMatrix
         in="composite1"
         values="1"
         type="saturate"
         result="colormatrix1"
         id="feColorMatrix201" />
      <feFlood
         flood-opacity="1"
         flood-color="rgb(0,119,158)"
         result="flood1"
         id="feFlood203" />
      <feBlend
         in="flood1"
         in2="colormatrix1"
         mode="multiply"
         result="blend1"
         id="feBlend205" />
      <feBlend
         in2="blend1"
         mode="screen"
         result="blend2"
         id="feBlend207" />
      <feColorMatrix
         in="blend2"
         values="1"
         type="saturate"
         result="colormatrix2"
         id="feColorMatrix209" />
      <feComposite
         in="colormatrix2"
         in2="SourceGraphic"
         operator="in"
         k2="1"
         result="composite2"
         id="feComposite211" />
    </filter>
    <filter
       style="color-interpolation-filters:sRGB;"
       inkscape:label="Colorize"
       id="filter104">
      <feComposite
         in2="SourceGraphic"
         operator="arithmetic"
         k1="0"
         k2="1"
         result="composite1"
         id="feComposite90" />
      <feColorMatrix
         in="composite1"
         values="1"
         type="saturate"
         result="colormatrix1"
         id="feColorMatrix92" />
      <feFlood
         flood-opacity="1"
         flood-color="rgb(0,119,158)"
         result="flood1"
         id="feFlood94" />
      <feBlend
         in="flood1"
         in2="colormatrix1"
         mode="multiply"
         result="blend1"
         id="feBlend96" />
      <feBlend
         in2="blend1"
         mode="screen"
         result="blend2"
         id="feBlend98" />
      <feColorMatrix
         in="blend2"
         values="1"
         type="saturate"
         result="colormatrix2"
         id="feColorMatrix100" />
      <feComposite
         in="colormatrix2"
         in2="SourceGraphic"
         operator="in"
         k2="1"
         result="composite2"
         id="feComposite102" />
    </filter>
    <filter
       style="color-interpolation-filters:sRGB;"
       inkscape:label="Colorize"
       id="filter178">
      <feComposite
         in2="SourceGraphic"
         operator="arithmetic"
         k1="0"
         k2="1"
         result="composite1"
         id="feComposite164" />
      <feColorMatrix
         in="composite1"
         values="1"
         type="saturate"
         result="colormatrix1"
         id="feColorMatrix166" />
      <feFlood
         flood-opacity="1"
         flood-color="rgb(0,119,158)"
         result="flood1"
         id="feFlood168" />
      <feBlend
         in="flood1"
         in2="colormatrix1"
         mode="multiply"
         result="blend1"
         id="feBlend170" />
      <feBlend
         in2="blend1"
         mode="screen"
         result="blend2"
         id="feBlend172" />
      <feColorMatrix
         in="blend2"
         values="1"
         type="saturate"
         result="colormatrix2"
         id="feColorMatrix174" />
      <feComposite
         in="colormatrix2"
         in2="SourceGraphic"
         operator="in"
         k2="1"
         result="composite2"
         id="feComposite176" />
    </filter>
    <filter
       style="color-interpolation-filters:sRGB;"
       inkscape:label="Colorize"
       id="filter121">
      <feComposite
         in2="SourceGraphic"
         operator="arithmetic"
         k1="0"
         k2="1"
         result="composite1"
         id="feComposite107" />
      <feColorMatrix
         in="composite1"
         values="1"
         type="saturate"
         result="colormatrix1"
         id="feColorMatrix109" />
      <feFlood
         flood-opacity="1"
         flood-color="rgb(0,145,158)"
         result="flood1"
         id="feFlood111" />
      <feBlend
         in="flood1"
         in2="colormatrix1"
         mode="multiply"
         result="blend1"
         id="feBlend113" />
      <feBlend
         in2="blend1"
         mode="screen"
         result="blend2"
         id="feBlend115" />
      <feColorMatrix
         in="blend2"
         values="1"
         type="saturate"
         result="colormatrix2"
         id="feColorMatrix117" />
      <feComposite
         in="colormatrix2"
         in2="SourceGraphic"
         operator="in"
         k2="1"
         result="composite2"
         id="feComposite119" />
    </filter>
    <filter
       style="color-interpolation-filters:sRGB;"
       inkscape:label="Colorize"
       id="filter140">
      <feComposite
         in2="SourceGraphic"
         operator="arithmetic"
         k1="0"
         k2="1"
         result="composite1"
         id="feComposite126" />
      <feColorMatrix
         in="composite1"
         values="1"
         type="saturate"
         result="colormatrix1"
         id="feColorMatrix128" />
      <feFlood
         flood-opacity="1"
         flood-color="rgb(0,119,158)"
         result="flood1"
         id="feFlood130" />
      <feBlend
         in="flood1"
         in2="colormatrix1"
         mode="multiply"
         result="blend1"
         id="feBlend132" />
      <feBlend
         in2="blend1"
         mode="screen"
         result="blend2"
         id="feBlend134" />
      <feColorMatrix
         in="blend2"
         values="1"
         type="saturate"
         result="colormatrix2"
         id="feColorMatrix136" />
      <feComposite
         in="colormatrix2"
         in2="SourceGraphic"
         operator="in"
         k2="1"
         result="composite2"
         id="feComposite138" />
    </filter>
  </defs>
  <sodipodi:namedview
     id="base"
     pagecolor="#ffffff"
     bordercolor="#666666"
     borderopacity="1.0"
     inkscape:pageopacity="0"
     inkscape:pageshadow="2"
     inkscape:zoom="1.1107323"
     inkscape:cx="124"
     inkscape:cy="124"
     inkscape:document-units="px"
     inkscape:current-layer="layer2"
     inkscape:document-rotation="0"
     showgrid="true"
     inkscape:window-width="1366"
     inkscape:window-height="705"
     inkscape:window-x="-8"
     inkscape:window-y="-8"
     inkscape:window-maximized="1"
     inkscape:snap-global="false"
     showguides="true">
    <inkscape:grid
       type="xygrid"
       id="grid1972" />
  </sodipodi:namedview>
  <metadata
     id="metadata1405">
    <rdf:RDF>
      <cc:Work
         rdf:about="">
        <dc:format>image/svg+xml</dc:format>
        <dc:type
           rdf:resource="http://purl.org/dc/dcmitype/StillImage" />
        <dc:title />
      </cc:Work>
    </rdf:RDF>
  </metadata>
  <g
     inkscape:groupmode="layer"
     id="layer3"
     inkscape:label="BG" />
  <g
     inkscape:groupmode="layer"
     id="layer4"
     inkscape:label="Bounding Box" />
  <g
     inkscape:groupmode="layer"
     id="layer2"
     inkscape:label="Top">
    <g
       id="g858"
       transform="translate(-0.19315289,-0.04989999)">
      <path
         style="fill:none;fill-opacity:1;stroke:#000000;stroke-width:4.5;stroke-linecap:round;stroke-linejoin:round;stroke-miterlimit:4;stroke-dasharray:none;stroke-opacity:1;paint-order:normal"
         id="path883"
         sodipodi:type="arc"
         sodipodi:cx="154.57903"
         sodipodi:cy="83.172447"
         sodipodi:rx="111.24604"
         sodipodi:ry="111.24604"
         sodipodi:start="5.9893981"
         sodipodi:end="5.9807042"
         sodipodi:open="true"
         sodipodi:arc-type="arc"
         transform="rotate(16.68412)"
         d="M 261.05862,50.957904 A 111.24604,111.24604 0 0 1 187.02492,189.58178 111.24604,111.24604 0 0 1 48.240468,115.84955 111.24604,111.24604 0 0 1 121.67088,-23.094836 111.24604,111.24604 0 0 1 260.77453,50.03341" />
      <path
         style="fill:#3d3846;fill-opacity:0.326613;stroke:none;stroke-width:4.45107;stroke-linecap:round;stroke-linejoin:round;stroke-miterlimit:4;stroke-dasharray:none;stroke-opacity:1;paint-order:normal"
         id="path885"
         sodipodi:type="arc"
         sodipodi:cx="154.57903"
         sodipodi:cy="83.172447"
         sodipodi:rx="110.03654"
         sodipodi:ry="110.03654"
         sodipodi:start="5.9893981"
         sodipodi:end="5.9807042"
         sodipodi:open="true"
         sodipodi:arc-type="arc"
         transform="rotate(16.68412)"
         d="M 259.90094,51.308151 A 110.03654,110.03654 0 0 1 186.67216,188.42486 110.03654,110.03654 0 0 1 49.396616,115.49427 110.03654,110.03654 0 0 1 122.02867,-21.939463 110.03654,110.03654 0 0 1 259.61994,50.393709" />
    </g>
    <g
       fill="#8cc84b"
       id="g6"
       transform="matrix(0.51569861,0,0,0.51569861,57.990605,51.300212)"
       style="display:inline;fill:#241f31">
      <path
         d="m 116.504,3.58 c 6.962,-3.985 16.03,-4.003 22.986,0 34.995,19.774 70.001,39.517 104.99,59.303 6.581,3.707 10.983,11.031 10.916,18.614 v 118.968 c 0.049,7.897 -4.788,15.396 -11.731,19.019 -34.88,19.665 -69.742,39.354 -104.616,59.019 -7.106,4.063 -16.356,3.75 -23.24,-0.646 -10.457,-6.062 -20.932,-12.094 -31.39,-18.15 -2.137,-1.274 -4.546,-2.288 -6.055,-4.36 1.334,-1.798 3.719,-2.022 5.657,-2.807 4.365,-1.388 8.374,-3.616 12.384,-5.778 1.014,-0.694 2.252,-0.428 3.224,0.193 8.942,5.127 17.805,10.403 26.777,15.481 1.914,1.105 3.852,-0.362 5.488,-1.274 34.228,-19.345 68.498,-38.617 102.72,-57.968 1.268,-0.61 1.969,-1.956 1.866,-3.345 0.024,-39.245 0.006,-78.497 0.012,-117.742 0.145,-1.576 -0.767,-3.025 -2.192,-3.67 -34.759,-19.575 -69.5,-39.18 -104.253,-58.76 a 3.621,3.621 0 0 0 -4.094,-0.006 C 91.2,39.257 56.465,58.88 21.712,78.454 c -1.42,0.646 -2.373,2.071 -2.204,3.653 0.006,39.245 0,78.497 0,117.748 a 3.329,3.329 0 0 0 1.89,3.303 c 9.274,5.259 18.56,10.481 27.84,15.722 5.228,2.814 11.647,4.486 17.407,2.33 5.083,-1.823 8.646,-7.01 8.549,-12.407 0.048,-39.016 -0.024,-78.038 0.036,-117.048 -0.127,-1.732 1.516,-3.163 3.2,-3 4.456,-0.03 8.918,-0.06 13.374,0.012 1.86,-0.042 3.14,1.823 2.91,3.568 -0.018,39.263 0.048,78.527 -0.03,117.79 0.012,10.464 -4.287,21.85 -13.966,26.97 -11.924,6.177 -26.662,4.867 -38.442,-1.056 -10.198,-5.09 -19.93,-11.097 -29.947,-16.55 C 5.368,215.886 0.555,208.357 0.604,200.466 V 81.497 C 0.531,73.757 5.108,66.3 11.894,62.647 46.768,42.966 81.636,23.27 116.504,3.58 Z"
         id="path2"
         style="fill:#241f31" />
      <path
         d="m 146.928,85.99 c 15.21,-0.979 31.493,-0.58 45.18,6.913 10.597,5.742 16.472,17.793 16.659,29.566 -0.296,1.588 -1.956,2.464 -3.472,2.355 -4.413,-0.006 -8.827,0.06 -13.24,-0.03 -1.872,0.072 -2.96,-1.654 -3.195,-3.309 -1.268,-5.633 -4.34,-11.212 -9.642,-13.929 -8.139,-4.075 -17.576,-3.87 -26.451,-3.785 -6.479,0.344 -13.446,0.905 -18.935,4.715 -4.214,2.886 -5.494,8.712 -3.99,13.404 1.418,3.369 5.307,4.456 8.489,5.458 18.33,4.794 37.754,4.317 55.734,10.626 7.444,2.572 14.726,7.572 17.274,15.366 3.333,10.446 1.872,22.932 -5.56,31.318 -6.027,6.901 -14.805,10.657 -23.56,12.697 -11.647,2.597 -23.734,2.663 -35.562,1.51 -11.122,-1.268 -22.696,-4.19 -31.282,-11.768 -7.342,-6.375 -10.928,-16.308 -10.572,-25.895 0.085,-1.619 1.697,-2.748 3.248,-2.615 4.444,-0.036 8.888,-0.048 13.332,0.006 1.775,-0.127 3.091,1.407 3.182,3.08 0.82,5.367 2.837,11 7.517,14.182 9.032,5.827 20.365,5.428 30.707,5.591 8.568,-0.38 18.186,-0.495 25.178,-6.158 3.689,-3.23 4.782,-8.634 3.785,-13.283 -1.08,-3.925 -5.186,-5.754 -8.712,-6.95 -18.095,-5.724 -37.736,-3.647 -55.656,-10.12 -7.275,-2.571 -14.31,-7.432 -17.105,-14.906 -3.9,-10.578 -2.113,-23.662 6.098,-31.765 8.006,-8.06 19.563,-11.164 30.551,-12.275 z"
         id="path4"
         style="fill:#241f31" />
    </g>
  </g>
</svg>
