<?xml version="1.0" encoding="UTF-8" standalone="no"?>
<svg
   xmlns:dc="http://purl.org/dc/elements/1.1/"
   xmlns:cc="http://creativecommons.org/ns#"
   xmlns:rdf="http://www.w3.org/1999/02/22-rdf-syntax-ns#"
   xmlns:svg="http://www.w3.org/2000/svg"
   xmlns="http://www.w3.org/2000/svg"
   xmlns:sodipodi="http://sodipodi.sourceforge.net/DTD/sodipodi-0.dtd"
   xmlns:inkscape="http://www.inkscape.org/namespaces/inkscape"
   width="248.0px"
   height="248.0px"
   viewBox="0 0 248.0 248.0"
   version="1.1"
   id="SVGRoot"
   sodipodi:docname="pastebin-svgrepo-com White.svg"
   inkscape:version="1.0.2-2 (e86c870879, 2021-01-15)">
  <defs
     id="defs1402">
    <inkscape:path-effect
       effect="fillet_chamfer"
       id="path-effect2040"
       is_visible="true"
       lpeversion="1"
       satellites_param="F,0,0,1,0,0,0,1 @ F,0,0,1,0,6.0755415,0,1 @ F,0,0,1,0,6.1445293,0,1 @ F,0,0,1,0,0,0,1"
       unit="px"
       method="auto"
       mode="F"
       radius="0"
       chamfer_steps="1"
       flexible="false"
       use_knot_distance="true"
       apply_no_radius="true"
       apply_with_radius="true"
       only_selected="true"
       hide_knots="false" />
    <style
       id="style1979">.cls-1{fill:url(#GreenGradient);}.cls-2{fill:#fff;}</style>
    <linearGradient
       id="GreenGradient"
       x1="-522.53"
       y1="465.47"
       x2="-416.47"
       y2="571.53"
       gradientTransform="rotate(-90,-456.5,24.5)"
       gradientUnits="userSpaceOnUse">
      <stop
         offset="0"
         stop-color="#1b660f"
         id="stop1981" />
      <stop
         offset="1"
         stop-color="#6cae3e"
         id="stop1983" />
    </linearGradient>
    <linearGradient
       id="OrangeGradient"
       x1="1131.1"
       y1="-516.47998"
       x2="1131.1"
       y2="-366.48001"
       gradientTransform="rotate(-135,816.69218,-8.7994369)"
       gradientUnits="userSpaceOnUse">
      <stop
         offset="0"
         stop-color="#c8511b"
         id="stop138" />
      <stop
         offset="1"
         stop-color="#f90"
         id="stop140" />
    </linearGradient>
  </defs>
  <sodipodi:namedview
     id="base"
     pagecolor="#ffffff"
     bordercolor="#666666"
     borderopacity="1.0"
     inkscape:pageopacity="0"
     inkscape:pageshadow="2"
     inkscape:zoom="0.78414574"
     inkscape:cx="131.70959"
     inkscape:cy="131.70959"
     inkscape:document-units="px"
     inkscape:current-layer="layer2"
     inkscape:document-rotation="0"
     showgrid="true"
     inkscape:window-width="1366"
     inkscape:window-height="705"
     inkscape:window-x="-8"
     inkscape:window-y="-8"
     inkscape:window-maximized="1"
     inkscape:snap-global="false"
     showguides="true">
    <inkscape:grid
       type="xygrid"
       id="grid1972" />
  </sodipodi:namedview>
  <metadata
     id="metadata1405">
    <rdf:RDF>
      <cc:Work
         rdf:about="">
        <dc:format>image/svg+xml</dc:format>
        <dc:type
           rdf:resource="http://purl.org/dc/dcmitype/StillImage" />
        <dc:title />
      </cc:Work>
    </rdf:RDF>
  </metadata>
  <g
     inkscape:groupmode="layer"
     id="layer3"
     inkscape:label="BG" />
  <g
     inkscape:groupmode="layer"
     id="layer4"
     inkscape:label="Bounding Box" />
  <g
     inkscape:groupmode="layer"
     id="layer2"
     inkscape:label="Top">
    <g
       id="g858"
       transform="translate(-0.19315289,-0.04989999)">
      <path
         style="fill:none;fill-opacity:1;stroke:#000000;stroke-width:4.5;stroke-linecap:round;stroke-linejoin:round;stroke-miterlimit:4;stroke-dasharray:none;stroke-opacity:1;paint-order:normal"
         id="path883"
         sodipodi:type="arc"
         sodipodi:cx="154.57903"
         sodipodi:cy="83.172447"
         sodipodi:rx="111.24604"
         sodipodi:ry="111.24604"
         sodipodi:start="5.9893981"
         sodipodi:end="5.9807042"
         sodipodi:open="true"
         sodipodi:arc-type="arc"
         transform="rotate(16.68412)"
         d="M 261.05862,50.957904 A 111.24604,111.24604 0 0 1 187.02492,189.58178 111.24604,111.24604 0 0 1 48.240468,115.84955 111.24604,111.24604 0 0 1 121.67088,-23.094836 111.24604,111.24604 0 0 1 260.77453,50.03341" />
      <path
         style="fill:#3d3846;fill-opacity:0.326613;stroke:none;stroke-width:4.45107;stroke-linecap:round;stroke-linejoin:round;stroke-miterlimit:4;stroke-dasharray:none;stroke-opacity:1;paint-order:normal"
         id="path885"
         sodipodi:type="arc"
         sodipodi:cx="154.57903"
         sodipodi:cy="83.172447"
         sodipodi:rx="110.03654"
         sodipodi:ry="110.03654"
         sodipodi:start="5.9893981"
         sodipodi:end="5.9807042"
         sodipodi:open="true"
         sodipodi:arc-type="arc"
         transform="rotate(16.68412)"
         d="M 259.90094,51.308151 A 110.03654,110.03654 0 0 1 186.67216,188.42486 110.03654,110.03654 0 0 1 49.396616,115.49427 110.03654,110.03654 0 0 1 122.02867,-21.939463 110.03654,110.03654 0 0 1 259.61994,50.393709" />
    </g>
    <path
       d="m 155.25581,49.288653 a 13.049439,13.049439 0 0 0 -4.50131,0.765782 L 65.621864,80.43672 a 13.080569,13.080569 0 0 0 -7.92554,16.72893 l 33.14657,92.86519 a 13.080569,13.080569 0 0 0 16.716476,7.91932 l 48.22564,-17.21455 c 4.9309,-1.91135 8.37381,-3.32462 9.11469,-3.78534 3.38065,-1.95492 5.98929,-5.08654 12.22762,-14.53119 5.6282,-8.47965 11.57391,-20.6886 13.05567,-26.64676 1.49421,-6.0391 1.48798,-9.2143 -3.12539,-22.8801 h 0.006 L 167.47099,57.979978 a 13.086795,13.086795 0 0 0 -12.21518,-8.691325 z m -0.52297,2.577513 c 4.48263,-0.193002 8.71623,2.509028 10.31628,6.972983 l 19.59284,54.912241 0.0498,-0.0187 c 1.68722,4.75035 3.09426,8.80962 3.27482,9.58785 0.63503,2.69581 -1.7557,7.14109 -4.58848,8.40494 -1.24517,0.62259 -4.42037,1.82418 -7.10995,2.6709 -8.69755,2.88881 -12.76305,5.47255 -15.30321,9.63766 -2.25999,3.67949 -1.96115,7.34653 0.99614,14.79891 2.87636,7.10995 3.3184,11.60504 1.40083,14.94211 -0.70353,1.17046 -1.87399,2.00473 -8.42984,4.56356 l -0.0125,-0.0311 -48.22565,17.21455 A 10.459474,10.459474 0 0 1 93.264754,189.15922 L 60.124414,96.29403 a 10.459474,10.459474 0 0 1 6.36285,-13.42922 L 151.6199,52.482528 c 1.02727,-0.373553 2.07945,-0.572781 3.11294,-0.616362 z m -6.45001,11.430711 -4.40792,3.206323 -3.08181,2.30358 0.70353,1.95492 0.46071,1.27631 3.25613,-1.96738 2.49035,6.92318 2.50903,6.99166 -2.23509,0.80314 -2.09812,0.7471 c 0.28017,0.90275 1.34479,3.99702 1.48176,4.13398 l 13.48525,-4.84995 -1.48176,-4.12776 -1.51911,0.54788 -2.75806,0.99614 -2.07945,-5.79007 z m -20.48314,7.358983 -4.41414,3.20633 -3.07559,2.30358 0.70353,1.95492 0.45449,1.27631 3.26236,-1.96738 2.49035,6.92317 2.50903,6.99166 -2.24132,0.80314 -2.09812,0.75334 c 0.28639,0.89652 1.34479,3.98456 1.48176,4.12775 l 13.49148,-4.84373 -1.48176,-4.12776 -1.51912,0.54165 -2.75806,0.99614 -2.07944,-5.79006 z m -21.95244,8.42984 a 9.5380444,9.5380444 0 0 0 -4.9807,1.38837 c -4.557336,2.7892 -5.291986,8.61039 -2.066986,15.9258 2.098116,4.83128 5.435186,7.58312 9.102226,7.56444 8.37381,-0.0436 11.58013,-8.71 6.75508,-18.36634 -1.91135,-4.10908 -5.21106,-6.45001 -8.80962,-6.51227 z m -1.18914,4.18379 c 1.04594,-0.056 2.22264,0.5292 3.35575,1.73702 0.90275,0.96501 2.16038,3.1752 2.7207,4.89977 2.17906,6.21342 1.02105,10.50928 -2.57751,9.6252 -3.74175,-0.87162 -7.75122,-12.88756 -5.19861,-15.4713 a 2.5339322,2.5339322 0 0 1 1.69967,-0.79069 z M 81.217684,87.9389 a 9.5380444,9.5380444 0 0 0 -4.9807,1.38837 c -4.55734,2.78919 -5.292,8.60416 -2.06699,15.91957 2.09812,4.83751 5.43519,7.58312 9.10223,7.56444 8.36758,-0.0436 11.58013,-8.70377 6.75508,-18.36634 -1.91135,-4.10908 -5.21729,-6.45001 -8.80962,-6.50604 z m -1.19537,4.18379 c 1.04595,-0.0623 2.22887,0.5292 3.36198,1.73079 0.90275,0.96502 2.16038,3.1752 2.72071,4.89977 2.17905,6.21965 1.02104,10.51551 -2.58374,9.63143 -3.73553,-0.87784 -7.73877,-12.90002 -5.19239,-15.4713 a 2.5339322,2.5339322 0 0 1 1.69344,-0.79069 z m 83.190176,4.07795 a 9.5442703,9.5442703 0 0 0 -4.98071,1.38837 c -4.55734,2.7892 -5.29199,8.60417 -2.06699,15.9258 2.09812,4.83128 5.43519,7.58312 9.10224,7.56444 8.3738,-0.0436 11.58013,-8.71 6.75507,-18.36634 -1.91134,-4.10908 -5.21106,-6.45001 -8.80961,-6.51227 z m -1.18915,4.18379 c 1.04595,-0.056 2.22264,0.5292 3.35575,1.7308 0.90275,0.96501 2.16038,3.17519 2.72071,4.89976 2.17906,6.21965 1.02104,10.51551 -2.57751,9.63143 -3.74176,-0.87784 -7.745,-12.90001 -5.19861,-15.4713 a 2.5339322,2.5339322 0 0 1 1.69966,-0.79069 z m -23.44665,4.66941 a 9.5380444,9.5380444 0 0 0 -4.9807,1.38214 c -4.54489,2.7892 -5.27955,8.61039 -2.06077,15.9258 2.09812,4.83128 5.43519,7.58312 9.10223,7.56444 8.36758,-0.0436 11.58014,-8.70378 6.75508,-18.36634 -1.91134,-4.10908 -5.21728,-6.45001 -8.81584,-6.50604 z m -1.18292,4.17756 c 1.03972,-0.056 2.22264,0.5292 3.35575,1.73702 0.90275,0.96501 2.16038,3.1752 2.72071,4.89977 2.17906,6.21342 1.02104,10.50928 -2.58374,9.63143 -3.73553,-0.88407 -7.74499,-12.90002 -5.19861,-15.4713 a 2.540158,2.540158 0 0 1 1.69967,-0.79692 z m -23.32214,4.62583 a 9.5442703,9.5442703 0 0 0 -4.9807,1.38837 c -4.55734,2.78919 -5.29199,8.60416 -2.06699,15.91957 2.09812,4.83751 5.43519,7.58935 9.10223,7.57067 8.37381,-0.0436 11.58014,-8.71001 6.75508,-18.37257 -1.91134,-4.10908 -5.21728,-6.45001 -8.80962,-6.50604 z m -1.19536,4.18379 c 1.05217,-0.0623 2.22886,0.5292 3.36197,1.73079 0.90275,0.96502 2.16038,3.1752 2.72071,4.89977 2.17906,6.21965 1.02104,10.51551 -2.57752,9.63143 -3.74175,-0.87785 -7.74499,-12.90002 -5.1986,-15.4713 a 2.5339322,2.5339322 0 0 1 1.69344,-0.79069 z m -21.883956,3.83514 -4.40792,3.20633 -3.08181,2.29735 0.70352,1.95492 0.46072,1.28253 3.26236,-1.96737 2.48412,6.92317 2.50903,6.98544 -2.23509,0.80936 -2.09812,0.74711 c 0.28017,0.90275 1.34479,3.99078 1.48176,4.12775 l 13.485246,-4.84373 -1.48176,-4.12776 -1.51912,0.54788 -2.758056,0.98991 -2.07944,-5.79006 z m 97.522136,8.28042 c 0.21168,0 0.30507,0.29261 0.39846,0.84049 0.14319,0.68485 -0.39846,3.3931 -1.21405,5.95817 -2.91993,8.94036 -12.7755,26.2981 -19.16947,33.60106 l -2.54016,2.92616 0.31752,-4.15266 c 0.18677,-3.53007 -0.0996,-5.05541 -2.34716,-10.64625 -3.08803,-7.86328 -3.31839,-10.77077 -0.98369,-14.38178 2.12303,-3.2001 6.4002,-5.64687 15.24095,-8.53568 4.48263,-1.48176 7.31541,-2.88258 8.62284,-4.13398 0.82182,-0.90275 1.28876,-1.36969 1.57515,-1.46308 a 0.31129388,0.31129388 0 0 1 0.0934,-0.0187 z m -40.02616,9.19562 -4.40793,3.20633 -3.08181,2.30357 0.70353,1.95493 0.46071,1.2763 3.25614,-1.96738 2.49035,6.92318 2.50903,6.99166 -2.23509,0.80314 -2.09812,0.7471 c 0.28016,0.90276 1.34479,3.99702 1.48176,4.13399 l 13.48525,-4.84996 -1.48176,-4.12153 -1.51912,0.54165 -2.75806,0.99614 -2.07944,-5.79007 z m -22.28242,8.28042 a 9.5380444,9.5380444 0 0 0 -4.9807,1.38837 c -4.55112,2.78919 -5.28577,8.60416 -2.06699,15.92579 2.09812,4.83128 5.43519,7.58312 9.10223,7.56444 8.3738,-0.0436 11.58013,-8.71 6.7613,-18.36634 -1.91134,-4.10907 -5.21728,-6.45 -8.81584,-6.51226 z m -1.18914,4.18379 c 1.04594,-0.056 2.22886,0.5292 3.36197,1.73702 0.89653,0.95878 2.15415,3.17519 2.72071,4.89976 2.17906,6.21343 1.02104,10.50928 -2.58374,9.62521 -3.73553,-0.87785 -7.74499,-12.90002 -5.19861,-15.47131 a 2.5339322,2.5339322 0 0 1 1.69967,-0.79068 z m -21.88396,3.83514 -4.420366,3.20632 -3.07559,2.30358 0.70353,1.9487 0.46071,1.28253 3.262356,-1.96738 2.49035,6.92318 2.50903,6.98543 -2.24132,0.80937 -2.09812,0.7471 c 0.28017,0.90275 1.34479,3.99701 1.48176,4.13398 l 13.48525,-4.84995 -1.48176,-4.12776 -1.51911,0.54788 -2.75806,0.99614 -2.07945,-5.79007 z"
       id="path4"
       style="stroke-width:6.22588" />
  </g>
</svg>
