<?xml version="1.0" encoding="UTF-8" standalone="no"?>
<svg
   xmlns:dc="http://purl.org/dc/elements/1.1/"
   xmlns:cc="http://creativecommons.org/ns#"
   xmlns:rdf="http://www.w3.org/1999/02/22-rdf-syntax-ns#"
   xmlns:svg="http://www.w3.org/2000/svg"
   xmlns="http://www.w3.org/2000/svg"
   xmlns:sodipodi="http://sodipodi.sourceforge.net/DTD/sodipodi-0.dtd"
   xmlns:inkscape="http://www.inkscape.org/namespaces/inkscape"
   width="248.0px"
   height="248.0px"
   viewBox="0 0 248.0 248.0"
   version="1.1"
   id="SVGRoot"
   sodipodi:docname="pastebin-svgrepo-com Dark.svg"
   inkscape:version="1.0.2-2 (e86c870879, 2021-01-15)">
  <defs
     id="defs1402">
    <inkscape:path-effect
       effect="fillet_chamfer"
       id="path-effect2040"
       is_visible="true"
       lpeversion="1"
       satellites_param="F,0,0,1,0,0,0,1 @ F,0,0,1,0,6.0755415,0,1 @ F,0,0,1,0,6.1445293,0,1 @ F,0,0,1,0,0,0,1"
       unit="px"
       method="auto"
       mode="F"
       radius="0"
       chamfer_steps="1"
       flexible="false"
       use_knot_distance="true"
       apply_no_radius="true"
       apply_with_radius="true"
       only_selected="true"
       hide_knots="false" />
    <style
       id="style1979">.cls-1{fill:url(#GreenGradient);}.cls-2{fill:#fff;}</style>
    <linearGradient
       id="GreenGradient"
       x1="-522.53"
       y1="465.47"
       x2="-416.47"
       y2="571.53"
       gradientTransform="rotate(-90,-456.5,24.5)"
       gradientUnits="userSpaceOnUse">
      <stop
         offset="0"
         stop-color="#1b660f"
         id="stop1981" />
      <stop
         offset="1"
         stop-color="#6cae3e"
         id="stop1983" />
    </linearGradient>
  </defs>
  <sodipodi:namedview
     id="base"
     pagecolor="#101010"
     bordercolor="#666666"
     borderopacity="1.0"
     inkscape:pageopacity="0"
     inkscape:pageshadow="2"
     inkscape:zoom="1.0055549"
     inkscape:cx="124"
     inkscape:cy="124"
     inkscape:document-units="px"
     inkscape:current-layer="layer2"
     inkscape:document-rotation="0"
     showgrid="true"
     inkscape:window-width="1366"
     inkscape:window-height="705"
     inkscape:window-x="-8"
     inkscape:window-y="-8"
     inkscape:window-maximized="1"
     inkscape:snap-global="false"
     showguides="true">
    <inkscape:grid
       type="xygrid"
       id="grid1972" />
  </sodipodi:namedview>
  <metadata
     id="metadata1405">
    <rdf:RDF>
      <cc:Work
         rdf:about="">
        <dc:format>image/svg+xml</dc:format>
        <dc:type
           rdf:resource="http://purl.org/dc/dcmitype/StillImage" />
        <dc:title />
      </cc:Work>
    </rdf:RDF>
  </metadata>
  <g
     inkscape:groupmode="layer"
     id="layer3"
     inkscape:label="BG" />
  <g
     inkscape:groupmode="layer"
     id="layer4"
     inkscape:label="Bounding Box" />
  <g
     inkscape:groupmode="layer"
     id="layer2"
     inkscape:label="Top">
    <g
       id="g847"
       transform="translate(-0.19315289,-0.04989999)"
       style="fill:#5e5c64">
      <path
         style="fill:#5e5c64;fill-opacity:0.326613;stroke:none;stroke-width:3;stroke-linecap:round;stroke-linejoin:round;stroke-miterlimit:4;stroke-dasharray:none;stroke-opacity:1;paint-order:normal"
         id="path885"
         sodipodi:type="arc"
         sodipodi:cx="154.57903"
         sodipodi:cy="83.172447"
         sodipodi:rx="111.24603"
         sodipodi:ry="111.24603"
         sodipodi:start="5.9893981"
         sodipodi:end="5.9807042"
         sodipodi:open="true"
         sodipodi:arc-type="arc"
         transform="rotate(16.68412)"
         d="M 261.05862,50.957906 A 111.24603,111.24603 0 0 1 187.02492,189.58177 111.24603,111.24603 0 0 1 48.240476,115.84954 111.24603,111.24603 0 0 1 121.67088,-23.094829 111.24603,111.24603 0 0 1 260.77453,50.033412" />
      <path
         style="fill:#5e5c64;fill-opacity:1;stroke:#ffffff;stroke-width:4.5;stroke-linecap:round;stroke-linejoin:round;stroke-miterlimit:4;stroke-dasharray:none;stroke-opacity:1;paint-order:normal"
         id="path883-9"
         sodipodi:type="arc"
         sodipodi:cx="154.57903"
         sodipodi:cy="83.172447"
         sodipodi:rx="111.24604"
         sodipodi:ry="111.24604"
         sodipodi:start="5.9893981"
         sodipodi:end="5.9807042"
         sodipodi:open="true"
         sodipodi:arc-type="arc"
         transform="rotate(16.68412)"
         d="M 261.05862,50.957904 A 111.24604,111.24604 0 0 1 187.02492,189.58178 111.24604,111.24604 0 0 1 48.240468,115.84955 111.24604,111.24604 0 0 1 121.67088,-23.094836 111.24604,111.24604 0 0 1 260.77453,50.03341" />
    </g>
    <path
       d="m 155.25582,49.288653 a 13.049439,13.049439 0 0 0 -4.50131,0.765782 L 65.621863,80.436718 a 13.080569,13.080569 0 0 0 -7.925542,16.728933 l 33.146575,92.865189 a 13.080569,13.080569 0 0 0 16.716484,7.91932 l 48.22564,-17.21455 c 4.9309,-1.91135 8.37381,-3.32462 9.11469,-3.78534 3.38065,-1.95492 5.98929,-5.08654 12.22762,-14.53119 5.6282,-8.47965 11.57391,-20.6886 13.05567,-26.64676 1.49421,-6.0391 1.48798,-9.2143 -3.12539,-22.8801 h 0.006 L 167.471,57.979978 a 13.086795,13.086795 0 0 0 -12.21518,-8.691325 z m -0.52297,2.577513 c 4.48263,-0.193002 8.71623,2.509028 10.31628,6.972983 l 19.59284,54.912241 0.0498,-0.0187 c 1.68722,4.75035 3.09426,8.80962 3.27482,9.58785 0.63503,2.69581 -1.7557,7.14109 -4.58848,8.40494 -1.24517,0.62259 -4.42037,1.82418 -7.10995,2.6709 -8.69755,2.88881 -12.76305,5.47255 -15.30321,9.63766 -2.25999,3.67949 -1.96115,7.34653 0.99614,14.79891 2.87636,7.10995 3.3184,11.60504 1.40083,14.94211 -0.70353,1.17046 -1.87399,2.00473 -8.42984,4.56356 l -0.0125,-0.0311 -48.22565,17.21455 A 10.459474,10.459474 0 0 1 93.264756,189.15922 L 60.124413,96.294028 A 10.459474,10.459474 0 0 1 66.48726,82.86481 l 85.13265,-30.382282 c 1.02727,-0.373553 2.07945,-0.572781 3.11294,-0.616362 z m -6.45001,11.430711 -4.40792,3.206327 -3.08181,2.303575 0.70353,1.954925 0.46071,1.276305 3.25613,-1.967377 2.49035,6.923176 2.50903,6.99166 -2.23509,0.803138 -2.09812,0.747106 c 0.28017,0.902752 1.34479,3.997013 1.48176,4.133982 l 13.48525,-4.849958 -1.48176,-4.127757 -1.51911,0.547877 -2.75806,0.996141 -2.07945,-5.790067 z m -20.48314,7.358987 -4.41414,3.206327 -3.07559,2.303575 0.70353,1.954926 0.45449,1.276304 3.26236,-1.967377 2.49035,6.923176 2.50903,6.99166 -2.24132,0.803139 -2.09812,0.753331 c 0.28639,0.896526 1.34479,3.984561 1.48176,4.127757 l 13.49148,-4.843733 -1.48176,-4.127757 -1.51912,0.541651 -2.75806,0.996141 -2.07944,-5.790066 z m -21.95244,8.429839 a 9.5380444,9.5380444 0 0 0 -4.9807,1.38837 c -4.557344,2.789193 -5.292004,8.610389 -2.066994,15.925795 2.098124,4.831282 5.435194,7.583122 9.102234,7.564442 8.37381,-0.0436 11.58013,-8.710003 6.75508,-18.36634 -1.91135,-4.109079 -5.21106,-6.450009 -8.80962,-6.512267 z m -1.18914,4.183789 c 1.04594,-0.05603 2.22264,0.5292 3.35575,1.73702 0.90275,0.965011 2.16038,3.175198 2.7207,4.899766 2.17906,6.213426 1.02105,10.509282 -2.57751,9.625206 -3.74175,-0.871622 -7.75122,-12.887566 -5.19861,-15.471305 a 2.5339322,2.5339322 0 0 1 1.69967,-0.790687 z M 81.217686,87.9389 a 9.5380444,9.5380444 0 0 0 -4.980702,1.388371 c -4.557342,2.789193 -5.291995,8.604163 -2.066991,15.919569 2.098121,4.83751 5.435191,7.58312 9.102233,7.56444 8.36758,-0.0436 11.58013,-8.70377 6.75508,-18.366338 -1.91135,-4.109079 -5.217288,-6.450009 -8.80962,-6.506042 z m -1.195368,4.18379 c 1.045947,-0.06226 2.228864,0.5292 3.361974,1.730794 0.902752,0.965011 2.160379,3.175198 2.720708,4.899766 2.179056,6.21965 1.021046,10.51551 -2.583739,9.63143 -3.735526,-0.87784 -7.738766,-12.900016 -5.192382,-15.471303 a 2.5339322,2.5339322 0 0 1 1.693439,-0.790687 z m 83.190182,4.07795 a 9.5442703,9.5442703 0 0 0 -4.98071,1.388371 c -4.55734,2.789199 -5.29199,8.604169 -2.06699,15.925799 2.09812,4.83128 5.43519,7.58312 9.10224,7.56444 8.3738,-0.0436 11.58013,-8.71 6.75507,-18.36634 -1.91134,-4.109081 -5.21106,-6.450011 -8.80961,-6.51227 z m -1.18915,4.18379 c 1.04595,-0.056 2.22264,0.5292 3.35575,1.7308 0.90275,0.96501 2.16038,3.17519 2.72071,4.89976 2.17906,6.21965 1.02104,10.51551 -2.57751,9.63143 -3.74176,-0.87784 -7.745,-12.90001 -5.19861,-15.4713 a 2.5339322,2.5339322 0 0 1 1.69966,-0.79069 z m -23.44665,4.66941 a 9.5380444,9.5380444 0 0 0 -4.9807,1.38214 c -4.54489,2.7892 -5.27955,8.61039 -2.06077,15.9258 2.09812,4.83128 5.43519,7.58312 9.10223,7.56444 8.36758,-0.0436 11.58014,-8.70378 6.75508,-18.36634 -1.91134,-4.10908 -5.21728,-6.45001 -8.81584,-6.50604 z m -1.18292,4.17756 c 1.03972,-0.056 2.22264,0.5292 3.35575,1.73702 0.90275,0.96501 2.16038,3.1752 2.72071,4.89977 2.17906,6.21342 1.02104,10.50928 -2.58374,9.63143 -3.73553,-0.88407 -7.74499,-12.90002 -5.19861,-15.4713 a 2.540158,2.540158 0 0 1 1.69967,-0.79692 z m -23.32214,4.62583 a 9.5442703,9.5442703 0 0 0 -4.9807,1.38837 c -4.55734,2.78919 -5.29199,8.60416 -2.06699,15.91957 2.09812,4.83751 5.43519,7.58935 9.10223,7.57067 8.37381,-0.0436 11.58014,-8.71001 6.75508,-18.37257 -1.91134,-4.10908 -5.21728,-6.45001 -8.80962,-6.50604 z m -1.19536,4.18379 c 1.05217,-0.0623 2.22886,0.5292 3.36197,1.73079 0.90275,0.96502 2.16038,3.1752 2.72071,4.89977 2.17906,6.21965 1.02104,10.51551 -2.57752,9.63143 -3.74175,-0.87785 -7.74499,-12.90002 -5.1986,-15.4713 a 2.5339322,2.5339322 0 0 1 1.69344,-0.79069 z m -21.883964,3.83514 -4.407923,3.20633 -3.081809,2.29735 0.703524,1.95492 0.460715,1.28253 3.262363,-1.96737 2.48412,6.92317 2.50903,6.98544 -2.23509,0.80936 -2.09812,0.74711 c 0.28016,0.90275 1.34479,3.99078 1.48176,4.12775 l 13.485254,-4.84373 -1.48176,-4.12776 -1.51912,0.54788 -2.758064,0.98991 -2.07944,-5.79006 z m 97.522144,8.28042 c 0.21168,0 0.30507,0.29261 0.39846,0.84049 0.14319,0.68485 -0.39846,3.3931 -1.21405,5.95817 -2.91993,8.94036 -12.7755,26.2981 -19.16947,33.60106 l -2.54016,2.92616 0.31752,-4.15266 c 0.18677,-3.53007 -0.0996,-5.05541 -2.34716,-10.64625 -3.08803,-7.86328 -3.31839,-10.77077 -0.98369,-14.38178 2.12303,-3.2001 6.4002,-5.64687 15.24095,-8.53568 4.48263,-1.48176 7.31541,-2.88258 8.62284,-4.13398 0.82182,-0.90275 1.28876,-1.36969 1.57515,-1.46308 a 0.31129388,0.31129388 0 0 1 0.0934,-0.0187 z m -40.02616,9.19562 -4.40793,3.20633 -3.08181,2.30357 0.70353,1.95493 0.46071,1.2763 3.25614,-1.96738 2.49035,6.92318 2.50903,6.99166 -2.23509,0.80314 -2.09812,0.7471 c 0.28016,0.90276 1.34479,3.99702 1.48176,4.13399 l 13.48525,-4.84996 -1.48176,-4.12153 -1.51912,0.54165 -2.75806,0.99614 -2.07944,-5.79007 z m -22.28242,8.28042 a 9.5380444,9.5380444 0 0 0 -4.9807,1.38837 c -4.55112,2.78919 -5.28577,8.60416 -2.06699,15.92579 2.09812,4.83128 5.43519,7.58312 9.10223,7.56444 8.3738,-0.0436 11.58013,-8.71 6.7613,-18.36634 -1.91134,-4.10907 -5.21728,-6.45 -8.81584,-6.51226 z m -1.18914,4.18379 c 1.04594,-0.056 2.22886,0.5292 3.36197,1.73702 0.89653,0.95878 2.15415,3.17519 2.72071,4.89976 2.17906,6.21343 1.02104,10.50928 -2.58374,9.62521 -3.73553,-0.87785 -7.74499,-12.90002 -5.19861,-15.47131 a 2.5339322,2.5339322 0 0 1 1.69967,-0.79068 z m -21.88396,3.83514 -4.420374,3.20632 -3.07559,2.30358 0.70353,1.9487 0.46071,1.28253 3.262364,-1.96738 2.49035,6.92318 2.50903,6.98543 -2.24132,0.80937 -2.09812,0.7471 c 0.28017,0.90275 1.34479,3.99701 1.48176,4.13398 l 13.48525,-4.84995 -1.48176,-4.12776 -1.51911,0.54788 -2.75806,0.99614 -2.07945,-5.79007 z"
       id="path4"
       style="stroke-width:6.22588;fill:#ffffff" />
  </g>
</svg>
