<?xml version="1.0" encoding="UTF-8" standalone="no"?>
<!-- Created with Vectornator for iOS (http://vectornator.io/) -->
<!DOCTYPE svg PUBLIC "-//W3C//DTD SVG 1.1//EN" "http://www.w3.org/Graphics/SVG/1.1/DTD/svg11.dtd">
<svg style="fill-rule:evenodd;clip-rule:evenodd;stroke-linecap:round;stroke-linejoin:round;"
    xmlns:xlink="http://www.w3.org/1999/xlink" xmlns="http://www.w3.org/2000/svg" xml:space="preserve"
    xmlns:vectornator="http://vectornator.io" width="248.0px" height="248.0px" viewBox="0 0 248.0 248.0" version="1.1"
    id="SVGRoot">
    <metadata>
        <vectornator:setting key="DimensionsVisible" value="0" />
        <vectornator:setting key="PencilOnly" value="0" />
        <vectornator:setting key="SnapToPoints" value="0" />
        <vectornator:setting key="OutlineMode" value="0" />
        <vectornator:setting key="CMYKEnabledKey" value="0" />
        <vectornator:setting key="RulersVisible" value="1" />
        <vectornator:setting key="SnapToEdges" value="0" />
        <vectornator:setting key="GuidesVisible" value="0" />
        <vectornator:setting key="DisplayWhiteBackground" value="0" />
        <vectornator:setting key="doHistoryDisabled" value="0" />
        <vectornator:setting key="SnapToGuides" value="1" />
        <vectornator:setting key="TimeLapseWatermarkDisabled" value="0" />
        <vectornator:setting key="Units" value="Points" />
        <vectornator:setting key="DynamicGuides" value="1" />
        <vectornator:setting key="IsolateActiveLayer" value="0" />
        <vectornator:setting key="SnapToGrid" value="0" />
    </metadata>
    <defs />
    <g id="layer2" vectornator:layerName="layer2">
        <g opacity="1">
            <path
                d="M235.246+123.711C235.405+185.056+185.875+234.952+124.53+235.245C63.186+235.537+13.1825+186.116+12.7567+124.772C12.3309+63.4286+61.6435+13.3177+122.986+12.7586C184.329+12.1995+234.547+61.4031+235.239+122.744"
                fill-opacity="0.326613" fill="#5e5c64" opacity="1" />
            <path stroke="#ffffff" stroke-width="4.5"
                d="M235.246+123.711C235.405+185.056+185.875+234.952+124.53+235.245C63.186+235.537+13.1825+186.116+12.7567+124.772C12.3308+63.4286+61.6435+13.3178+122.986+12.7586C184.329+12.1995+234.547+61.4031+235.239+122.744"
                fill="#5e5c64" stroke-linecap="round" opacity="1" stroke-linejoin="round" />
        </g>
    </g>
    <g id="pod" vectornator:layerName="pod">
        <g opacity="1">
            <path
                d="M123.404+40.6954C121.885+40.7719+120.398+41.1483+119.028+41.8026L59.3214+70.3311C56.1909+71.8261+53.9172+74.6535+53.1438+78.0131L38.4137+142.095C37.7265+145.078+38.2857+148.21+39.9638+150.778C40.1652+151.088+40.3818+151.389+40.6129+151.679L81.9395+203.062C84.1064+205.755+87.3919+207.324+90.8661+207.323L157.14+207.308C160.613+207.31+163.898+205.745+166.067+203.054L207.378+151.663C209.546+148.969+210.358+145.441+209.585+142.08L194.832+77.9978C194.058+74.6383+191.785+71.8109+188.654+70.3159L128.94+41.8026C127.217+40.9795+125.313+40.5988+123.404+40.6954Z"
                opacity="1" fill="#326ce5" />
            <path
                d="M123.372+36.0552C121.771+36.139+120.203+36.5388+118.759+37.2311L55.7233+67.3403C52.4187+68.9186+50.0185+71.9034+49.202+75.4499L33.6549+143.098C32.9272+146.249+33.5167+149.557+35.289+152.269C35.5024+152.596+35.7318+152.912+35.9762+153.216L79.6013+207.463C81.8889+210.306+85.357+211.961+89.0243+211.961L158.986+211.945C162.652+211.948+166.12+210.295+168.409+207.455L212.019+153.201C214.306+150.357+215.163+146.636+214.348+143.09L198.778+75.4346C197.96+71.891+195.56+68.9094+192.257+67.3327L129.221+37.2235C127.401+36.354+125.389+35.9522+123.372+36.0552ZM123.402+40.6979C125.312+40.6014+127.215+40.9821+128.938+41.8052L188.653+70.3184C191.783+71.8134+194.057+74.6408+194.83+78.0003L209.583+142.083C210.357+145.444+209.545+148.971+207.376+151.666L166.065+203.057C163.897+205.747+160.611+207.313+157.138+207.31L90.8646+207.326C87.3904+207.326+84.105+205.758+81.938+203.065L40.6114+151.681C40.3803+151.392+40.1637+151.091+39.9623+150.78C38.2842+148.213+37.725+145.081+38.4122+142.098L53.1423+78.0157C53.9157+74.6562+56.1894+71.8287+59.3199+70.3337L119.027+41.8052C120.396+41.1509+121.884+40.7745+123.402+40.6979Z"
                opacity="1" fill="#ffffff" />
        </g>
        <g opacity="1">
            <path
                d="M108.948+197.746L108.948+181.466L110.766+181.466L110.766+182.995C111.194+182.397+111.678+181.948+112.217+181.649C112.757+181.35+113.41+181.2+114.179+181.2C115.184+181.2+116.07+181.459+116.839+181.976C117.607+182.493+118.187+183.222+118.578+184.164C118.97+185.106+119.166+186.139+119.166+187.262C119.166+188.466+118.95+189.55+118.517+190.514C118.085+191.479+117.457+192.217+116.633+192.731C115.81+193.244+114.943+193.501+114.035+193.501C113.37+193.501+112.773+193.361+112.245+193.08C111.717+192.799+111.283+192.445+110.943+192.016L110.943+197.746L108.948+197.746ZM110.754+187.417C110.754+188.932+111.061+190.051+111.674+190.775C112.287+191.499+113.03+191.861+113.902+191.861C114.788+191.861+115.547+191.486+116.179+190.736C116.811+189.986+117.127+188.824+117.127+187.251C117.127+185.751+116.818+184.628+116.201+183.882C115.584+183.136+114.847+182.763+113.99+182.763C113.141+182.763+112.389+183.16+111.735+183.954C111.081+184.748+110.754+185.902+110.754+187.417Z"
                opacity="1" fill="#ffffff" />
            <path
                d="M120.828+187.351C120.828+185.171+121.434+183.557+122.646+182.508C123.658+181.636+124.891+181.2+126.347+181.2C127.965+181.2+129.287+181.73+130.314+182.79C131.341+183.85+131.855+185.315+131.855+187.184C131.855+188.699+131.628+189.89+131.173+190.758C130.719+191.626+130.058+192.301+129.19+192.781C128.321+193.261+127.374+193.501+126.347+193.501C124.699+193.501+123.368+192.973+122.352+191.916C121.336+190.86+120.828+189.338+120.828+187.351ZM122.878+187.351C122.878+188.858+123.207+189.986+123.865+190.736C124.522+191.486+125.35+191.861+126.347+191.861C127.337+191.861+128.161+191.484+128.818+190.731C129.476+189.977+129.805+188.828+129.805+187.284C129.805+185.829+129.474+184.726+128.813+183.976C128.151+183.226+127.33+182.851+126.347+182.851C125.35+182.851+124.522+183.224+123.865+183.97C123.207+184.717+122.878+185.843+122.878+187.351Z"
                opacity="1" fill="#ffffff" />
            <path
                d="M141.829+193.235L141.829+191.75C141.082+192.917+139.985+193.501+138.537+193.501C137.599+193.501+136.736+193.243+135.95+192.725C135.163+192.208+134.553+191.486+134.121+190.559C133.689+189.632+133.473+188.566+133.473+187.362C133.473+186.187+133.669+185.121+134.06+184.164C134.452+183.208+135.039+182.474+135.822+181.965C136.605+181.455+137.481+181.2+138.449+181.2C139.158+181.2+139.79+181.35+140.344+181.649C140.898+181.948+141.348+182.338+141.696+182.818L141.696+176.989L143.679+176.989L143.679+193.235L141.829+193.235ZM135.523+187.362C135.523+188.869+135.841+189.995+136.476+190.742C137.111+191.488+137.861+191.861+138.726+191.861C139.597+191.861+140.338+191.504+140.948+190.792C141.557+190.079+141.862+188.991+141.862+187.528C141.862+185.917+141.552+184.735+140.931+183.982C140.31+183.228+139.546+182.851+138.637+182.851C137.75+182.851+137.01+183.213+136.415+183.937C135.82+184.661+135.523+185.803+135.523+187.362Z"
                opacity="1" fill="#ffffff" />
        </g>
        <g opacity="1">
            <path d="M87.6018+94.9658L124+84.4107L160.398+94.9658L124+105.521L87.6018+94.9658Z" opacity="1"
                fill="#ffffff" />
            <path d="M87.6018+99.0077L87.6018+137.737L121.515+156.523L121.683+109.144L87.6018+99.0077Z" opacity="1"
                fill="#ffffff" />
            <path d="M160.398+99.0077L160.398+137.737L126.485+156.523L126.317+109.144L160.398+99.0077Z" opacity="1"
                fill="#ffffff" />
        </g>
    </g>
</svg>