<?xml version="1.0" encoding="UTF-8" standalone="no"?>
<!-- Created with Vectornator for iOS (http://vectornator.io/) -->
<!DOCTYPE svg PUBLIC "-//W3C//DTD SVG 1.1//EN" "http://www.w3.org/Graphics/SVG/1.1/DTD/svg11.dtd">
<svg style="fill-rule:evenodd;clip-rule:evenodd;stroke-linecap:round;stroke-linejoin:round;"
    xmlns:xlink="http://www.w3.org/1999/xlink" xmlns="http://www.w3.org/2000/svg" xml:space="preserve"
    xmlns:vectornator="http://vectornator.io" width="248.0px" height="248.0px" viewBox="0 0 248.0 248.0" version="1.1"
    id="SVGRoot">
    <metadata>
        <vectornator:setting key="DimensionsVisible" value="0" />
        <vectornator:setting key="PencilOnly" value="0" />
        <vectornator:setting key="SnapToPoints" value="0" />
        <vectornator:setting key="OutlineMode" value="0" />
        <vectornator:setting key="CMYKEnabledKey" value="0" />
        <vectornator:setting key="RulersVisible" value="1" />
        <vectornator:setting key="SnapToEdges" value="0" />
        <vectornator:setting key="GuidesVisible" value="0" />
        <vectornator:setting key="DisplayWhiteBackground" value="0" />
        <vectornator:setting key="doHistoryDisabled" value="0" />
        <vectornator:setting key="SnapToGuides" value="1" />
        <vectornator:setting key="TimeLapseWatermarkDisabled" value="0" />
        <vectornator:setting key="Units" value="Points" />
        <vectornator:setting key="DynamicGuides" value="1" />
        <vectornator:setting key="IsolateActiveLayer" value="0" />
        <vectornator:setting key="SnapToGrid" value="0" />
    </metadata>
    <defs />
    <g id="pod" vectornator:layerName="pod">
        <g opacity="1">
            <path
                d="M123.268+18.4678C121.405+18.5617+119.579+19.0236+117.898+19.8266L44.6256+54.8371C40.784+56.6718+37.9936+60.1416+37.0444+64.2645L18.9675+142.907C18.1242+146.568+18.8104+150.411+20.8699+153.562C21.117+153.943+21.3829+154.312+21.6664+154.668L72.3829+217.726C75.0422+221.031+79.0742+222.956+83.3377+222.955L164.67+222.936C168.932+222.939+172.963+221.018+175.625+217.717L226.322+154.649C228.983+151.342+229.98+147.013+229.031+142.888L210.926+64.2457C209.976+60.1229+207.186+56.653+203.344+54.8184L130.062+19.8266C127.948+18.8165+125.612+18.3493+123.268+18.4678Z"
                opacity="1" fill="#326ce5" />
            <path
                d="M123.229+12.7733C121.264+12.8762+119.34+13.3668+117.569+14.2164L40.21+51.1668C36.1546+53.1037+33.209+56.7666+32.2071+61.1189L13.1275+144.138C12.2345+148.004+12.9579+152.064+15.1329+155.392C15.3948+155.793+15.6762+156.181+15.9762+156.554L69.5134+223.127C72.3207+226.616+76.5768+228.647+81.0774+228.646L166.936+228.628C171.435+228.631+175.69+226.603+178.5+223.117L232.018+156.536C234.824+153.046+235.876+148.48+234.876+144.128L215.769+61.1001C214.764+56.7514+211.819+53.0923+207.766+51.1574L130.407+14.2071C128.173+13.14+125.705+12.647+123.229+12.7733ZM123.266+18.4709C125.61+18.3524+127.946+18.8196+130.06+19.8297L203.342+54.8215C207.184+56.6562+209.975+60.126+210.924+64.2488L229.029+142.891C229.978+147.016+228.981+151.345+226.32+154.652L175.623+217.72C172.962+221.022+168.93+222.943+164.668+222.939L83.3359+222.958C79.0723+222.959+75.0404+221.034+72.3811+217.729L21.6645+154.671C21.381+154.315+21.1152+153.946+20.868+153.565C18.8085+150.414+18.1224+146.571+18.9657+142.91L37.0426+64.2677C37.9918+60.1448+40.7821+56.675+44.6238+54.8403L117.897+19.8298C119.577+19.0268+121.403+18.5649+123.266+18.4709Z"
                opacity="1" fill="#ffffff" />
        </g>
        <g opacity="1">
            <path
                d="M105.528+211.202L105.528+191.223L107.758+191.223L107.758+193.1C108.284+192.365+108.878+191.815+109.54+191.447C110.202+191.08+111.004+190.897+111.947+190.897C113.18+190.897+114.268+191.214+115.211+191.849C116.154+192.483+116.866+193.379+117.347+194.535C117.827+195.691+118.067+196.958+118.067+198.336C118.067+199.814+117.802+201.144+117.272+202.327C116.741+203.511+115.971+204.417+114.96+205.047C113.949+205.678+112.886+205.993+111.771+205.993C110.955+205.993+110.222+205.82+109.574+205.476C108.926+205.131+108.393+204.696+107.976+204.17L107.976+211.202L105.528+211.202ZM107.745+198.526C107.745+200.385+108.121+201.759+108.874+202.647C109.626+203.536+110.537+203.98+111.607+203.98C112.695+203.98+113.627+203.52+114.402+202.599C115.177+201.679+115.565+200.253+115.565+198.322C115.565+196.482+115.186+195.104+114.429+194.188C113.672+193.272+112.768+192.814+111.716+192.814C110.673+192.814+109.751+193.302+108.948+194.276C108.146+195.251+107.745+196.668+107.745+198.526Z"
                opacity="1" fill="#ffffff" />
            <path
                d="M120.107+198.445C120.107+195.77+120.851+193.789+122.338+192.501C123.58+191.432+125.094+190.897+126.88+190.897C128.866+190.897+130.489+191.547+131.749+192.848C133.009+194.149+133.639+195.947+133.639+198.241C133.639+200.099+133.361+201.561+132.803+202.627C132.245+203.692+131.434+204.519+130.369+205.109C129.303+205.698+128.14+205.993+126.88+205.993C124.858+205.993+123.224+205.344+121.977+204.048C120.731+202.751+120.107+200.884+120.107+198.445ZM122.623+198.445C122.623+200.294+123.027+201.679+123.834+202.599C124.641+203.52+125.656+203.98+126.88+203.98C128.095+203.98+129.106+203.517+129.913+202.593C130.72+201.668+131.123+200.258+131.123+198.363C131.123+196.577+130.718+195.224+129.906+194.303C129.095+193.383+128.086+192.923+126.88+192.923C125.656+192.923+124.641+193.381+123.834+194.297C123.027+195.212+122.623+196.595+122.623+198.445Z"
                opacity="1" fill="#ffffff" />
            <path
                d="M145.88+205.666L145.88+203.844C144.964+205.276+143.617+205.993+141.84+205.993C140.689+205.993+139.63+205.675+138.665+205.041C137.699+204.406+136.951+203.52+136.421+202.382C135.89+201.244+135.625+199.936+135.625+198.458C135.625+197.017+135.865+195.709+136.346+194.535C136.826+193.36+137.547+192.461+138.508+191.835C139.469+191.209+140.544+190.897+141.731+190.897C142.602+190.897+143.377+191.08+144.057+191.447C144.737+191.815+145.29+192.293+145.716+192.882L145.716+185.729L148.151+185.729L148.151+205.666L145.88+205.666ZM138.141+198.458C138.141+200.308+138.531+201.691+139.311+202.606C140.09+203.522+141.011+203.98+142.071+203.98C143.141+203.98+144.05+203.542+144.798+202.667C145.546+201.793+145.92+200.457+145.92+198.662C145.92+196.686+145.54+195.235+144.778+194.31C144.016+193.385+143.078+192.923+141.963+192.923C140.875+192.923+139.966+193.367+139.236+194.256C138.506+195.144+138.141+196.545+138.141+198.458Z"
                opacity="1" fill="#ffffff" />
        </g>
        <g opacity="1">
            <path d="M79.3317+85.069L124+72.1157L168.668+85.069L124+98.0223L79.3317+85.069Z" opacity="1"
                fill="#ffffff" />
            <path d="M79.3317+90.0293L79.3317+137.559L120.95+160.613L121.156+102.469L79.3317+90.0293Z" opacity="1"
                fill="#ffffff" />
            <path d="M168.668+90.0293L168.668+137.559L127.05+160.613L126.844+102.469L168.668+90.0293Z" opacity="1"
                fill="#ffffff" />
        </g>
    </g>
</svg>