<?xml version="1.0" encoding="UTF-8" standalone="no"?>
<svg
   xmlns:dc="http://purl.org/dc/elements/1.1/"
   xmlns:cc="http://creativecommons.org/ns#"
   xmlns:rdf="http://www.w3.org/1999/02/22-rdf-syntax-ns#"
   xmlns:svg="http://www.w3.org/2000/svg"
   xmlns="http://www.w3.org/2000/svg"
   xmlns:xlink="http://www.w3.org/1999/xlink"
   xmlns:sodipodi="http://sodipodi.sourceforge.net/DTD/sodipodi-0.dtd"
   xmlns:inkscape="http://www.inkscape.org/namespaces/inkscape"
   width="248.0px"
   height="248.0px"
   viewBox="0 0 248.0 248.0"
   version="1.1"
   id="SVGRoot"
   sodipodi:docname="splunk White.svg"
   inkscape:version="1.0.2-2 (e86c870879, 2021-01-15)">
  <defs
     id="defs1402">
    <inkscape:path-effect
       effect="fillet_chamfer"
       id="path-effect2040"
       is_visible="true"
       lpeversion="1"
       satellites_param="F,0,0,1,0,0,0,1 @ F,0,0,1,0,6.0755415,0,1 @ F,0,0,1,0,6.1445293,0,1 @ F,0,0,1,0,0,0,1"
       unit="px"
       method="auto"
       mode="F"
       radius="0"
       chamfer_steps="1"
       flexible="false"
       use_knot_distance="true"
       apply_no_radius="true"
       apply_with_radius="true"
       only_selected="true"
       hide_knots="false" />
    <style
       id="style1979">.cls-1{fill:url(#GreenGradient);}.cls-2{fill:#fff;}</style>
    <linearGradient
       id="GreenGradient"
       x1="-522.53"
       y1="465.47"
       x2="-416.47"
       y2="571.53"
       gradientTransform="rotate(-90,-456.5,24.5)"
       gradientUnits="userSpaceOnUse">
      <stop
         offset="0"
         stop-color="#1b660f"
         id="stop1981" />
      <stop
         offset="1"
         stop-color="#6cae3e"
         id="stop1983" />
    </linearGradient>
    <linearGradient
       id="OrangeGradient"
       x1="1131.1"
       y1="-516.47998"
       x2="1131.1"
       y2="-366.48001"
       gradientTransform="rotate(-135,816.69218,-8.7994369)"
       gradientUnits="userSpaceOnUse">
      <stop
         offset="0"
         stop-color="#c8511b"
         id="stop138" />
      <stop
         offset="1"
         stop-color="#f90"
         id="stop140" />
    </linearGradient>
    <clipPath
       id="clip1">
      <path
         d="m 93,27 h 58 V 88.851563 H 93 Z m 0,0"
         id="path2" />
    </clipPath>
    <clipPath
       id="clip2">
      <path
         d="m 161,10 h 41 v 78.851563 h -41 z m 0,0"
         id="path5" />
    </clipPath>
    <clipPath
       id="clip3">
      <path
         d="m 206,0 h 65 v 88.851563 h -65 z m 0,0"
         id="path8" />
    </clipPath>
    <clipPath
       id="clip4">
      <path
         d="m 322,26 h 57 v 62.851563 h -57 z m 0,0"
         id="path11" />
    </clipPath>
    <clipPath
       id="clip5">
      <path
         d="m 415,26 h 58.05859 V 87 H 415 Z m 0,0"
         id="path14" />
    </clipPath>
    <clipPath
       id="clip6">
      <path
         d="M 0,3 H 87 V 88.851563 H 0 Z m 0,0"
         id="path17" />
    </clipPath>
    <clipPath
       id="b">
      <use
         xlink:href="#a"
         overflow="visible"
         id="use5"
         x="0"
         y="0"
         width="100%"
         height="100%" />
    </clipPath>
    <clipPath
       id="d">
      <use
         xlink:href="#c"
         overflow="visible"
         id="use21"
         x="0"
         y="0"
         width="100%"
         height="100%" />
    </clipPath>
    <linearGradient
       id="e"
       gradientUnits="userSpaceOnUse"
       x1="-17845.727"
       y1="-3022.7009"
       x2="-17300.025"
       y2="-3131.4309"
       gradientTransform="matrix(0.1741,0,0,-0.1741,5044.277,-686.514)">
      <stop
         offset="0"
         stop-color="#2b7a77"
         id="stop30" />
      <stop
         offset=".51"
         stop-color="#4ebaa9"
         id="stop32" />
      <stop
         offset="1"
         stop-color="#5cc2b1"
         id="stop34" />
    </linearGradient>
    <linearGradient
       id="f"
       gradientUnits="userSpaceOnUse"
       x1="-16495.199"
       y1="-6380.3711"
       x2="-16765.998"
       y2="-5744.4058"
       gradientTransform="matrix(0.1741,0,0,-0.1741,5044.277,-686.514)">
      <stop
         offset="0"
         stop-color="#236736"
         id="stop39" />
      <stop
         offset=".493"
         stop-color="#6ba443"
         id="stop41" />
      <stop
         offset="1"
         stop-color="#86c146"
         id="stop43" />
    </linearGradient>
    <linearGradient
       id="g"
       gradientUnits="userSpaceOnUse"
       x1="-16221.797"
       y1="-6660.6538"
       x2="-15823.801"
       y2="-5712.8491"
       gradientTransform="matrix(0.1741,0,0,-0.1741,5044.277,-686.514)">
      <stop
         offset="0"
         stop-color="#29a5e3"
         id="stop48" />
      <stop
         offset=".515"
         stop-color="#356eb9"
         id="stop50" />
      <stop
         offset="1"
         stop-color="#394da5"
         id="stop52" />
    </linearGradient>
    <path
       id="a"
       d="M 196.35,-37.141 H 1196.36 V 128.657 H 196.35 Z" />
    <path
       id="c"
       d="M 196.35,-37.141 H 1196.36 V 128.657 H 196.35 Z" />
    <radialGradient
       cx="202.91011"
       cy="65.021362"
       fx="202.91011"
       fy="65.021362"
       r="48.504616"
       id="a-5"
       gradientTransform="scale(1.0005153,0.99948493)"
       gradientUnits="userSpaceOnUse">
      <stop
         stop-color="#FFF"
         offset="0%"
         id="stop2" />
      <stop
         stop-color="#FCE800"
         offset="19.02%"
         id="stop4" />
      <stop
         stop-color="#EC8F27"
         offset="85.93%"
         id="stop6" />
    </radialGradient>
    <linearGradient
       x1="134.77487"
       y1="49.381653"
       x2="134.77487"
       y2="0.55994713"
       id="b-0"
       gradientTransform="scale(1.0256763,0.97496651)"
       gradientUnits="userSpaceOnUse">
      <stop
         stop-color="#F68B1F"
         offset="0%"
         id="stop9" />
      <stop
         stop-color="#FFF"
         offset="100%"
         id="stop11" />
    </linearGradient>
    <linearGradient
       x1="53.483879"
       y1="44.051418"
       x2="64.062614"
       y2="62.661644"
       id="c-7"
       gradientUnits="userSpaceOnUse">
      <stop
         stop-color="#FFF"
         offset="0%"
         id="stop14" />
      <stop
         stop-color="#FEF6ED"
         offset="4.821%"
         id="stop16" />
      <stop
         stop-color="#FBD0A5"
         offset="25.69%"
         id="stop18" />
      <stop
         stop-color="#F9B26B"
         offset="44.42%"
         id="stop20" />
      <stop
         stop-color="#F79D42"
         offset="60.34%"
         id="stop22" />
      <stop
         stop-color="#F69028"
         offset="72.82%"
         id="stop24" />
      <stop
         stop-color="#F68B1F"
         offset="80.33%"
         id="stop26" />
    </linearGradient>
    <linearGradient
       x1="2.05039"
       y1="68.696198"
       x2="42.65826"
       y2="192.964"
       id="d-8"
       gradientTransform="scale(1.409801,0.70931995)"
       gradientUnits="userSpaceOnUse">
      <stop
         stop-color="#FFF"
         offset="0%"
         id="stop29" />
      <stop
         stop-color="#FEF6ED"
         offset="4.821%"
         id="stop31" />
      <stop
         stop-color="#FBD0A5"
         offset="25.69%"
         id="stop33" />
      <stop
         stop-color="#F9B26B"
         offset="44.42%"
         id="stop35" />
      <stop
         stop-color="#F79D42"
         offset="60.34%"
         id="stop37" />
      <stop
         stop-color="#F69028"
         offset="72.82%"
         id="stop39-9" />
      <stop
         stop-color="#F68B1F"
         offset="80.33%"
         id="stop41-3" />
    </linearGradient>
    <linearGradient
       x1="180.28741"
       y1="90.57383"
       x2="173.40768"
       y2="123.44773"
       id="e-2"
       gradientTransform="scale(1.2768133,0.78319989)"
       gradientUnits="userSpaceOnUse">
      <stop
         stop-color="#FFF"
         offset="0%"
         id="stop44" />
      <stop
         stop-color="#FEF6ED"
         offset="4.821%"
         id="stop46" />
      <stop
         stop-color="#FBD0A5"
         offset="25.69%"
         id="stop48-4" />
      <stop
         stop-color="#F9B26B"
         offset="44.42%"
         id="stop50-9" />
      <stop
         stop-color="#F79D42"
         offset="60.34%"
         id="stop52-4" />
      <stop
         stop-color="#F69028"
         offset="72.82%"
         id="stop54" />
      <stop
         stop-color="#F68B1F"
         offset="80.33%"
         id="stop56" />
    </linearGradient>
    <linearGradient
       x1="43.736912"
       y1="243.13164"
       x2="43.736912"
       y2="325.8479"
       id="f-6"
       gradientTransform="scale(2.9399166,0.3401457)"
       gradientUnits="userSpaceOnUse">
      <stop
         stop-color="#F68B1F"
         offset="0%"
         id="stop59" />
      <stop
         stop-color="#CB672F"
         offset="53.08%"
         id="stop61" />
      <stop
         stop-color="#A1453F"
         offset="100%"
         id="stop63" />
    </linearGradient>
    <radialGradient
       cx="97.375191"
       cy="132.38023"
       fx="97.375191"
       fy="132.38023"
       r="38.978508"
       id="g-9"
       gradientTransform="scale(1.6664459,0.60007949)"
       gradientUnits="userSpaceOnUse">
      <stop
         stop-color="#FFF"
         offset="0%"
         id="stop66" />
      <stop
         stop-color="#FCE800"
         offset="13.34%"
         id="stop68" />
      <stop
         stop-color="#EC8F27"
         offset="85.93%"
         id="stop70" />
    </radialGradient>
    <clipPath
       id="SVGID_6_-5">
      <use
         xlink:href="#SVGID_5_"
         overflow="visible"
         id="use35-6"
         x="0"
         y="0"
         width="100%"
         height="100%" />
    </clipPath>
    <clipPath
       id="SVGID_9_-3">
      <use
         xlink:href="#SVGID_8_-7"
         overflow="visible"
         id="use48-3"
         x="0"
         y="0"
         width="100%"
         height="100%" />
    </clipPath>
    <clipPath
       id="SVGID_11_-0">
      <use
         xlink:href="#SVGID_10_-9"
         overflow="visible"
         id="use58-5"
         x="0"
         y="0"
         width="100%"
         height="100%" />
    </clipPath>
    <clipPath
       id="SVGID_13_-2">
      <use
         xlink:href="#SVGID_12_-4"
         overflow="visible"
         id="use68-7"
         x="0"
         y="0"
         width="100%"
         height="100%" />
    </clipPath>
    <clipPath
       id="SVGID_15_-4">
      <use
         xlink:href="#SVGID_14_-9"
         overflow="visible"
         id="use78-1"
         x="0"
         y="0"
         width="100%"
         height="100%" />
    </clipPath>
    <path
       id="path392"
       d="m 139.8,0 h -27.5 c -6.7,0 -12.2,5.5 -12.2,12.2 V 48 h -40 c -6.6,0 -12,5.4 -12,12 v 40 H 12 c -6.6,0 -12,5.4 -12,12 v 28 c 0,6.6 5.4,12 12,12 h 127.8 c 6.7,0 12.2,-5.5 12.2,-12.2 V 12.2 C 152,5.5 146.5,0 139.8,0 Z" />
    <path
       id="path399"
       d="m 139.8,0 h -27.5 c -6.7,0 -12.2,5.5 -12.2,12.2 V 48 h -40 c -6.6,0 -12,5.4 -12,12 v 40 H 12 c -6.6,0 -12,5.4 -12,12 v 28 c 0,6.6 5.4,12 12,12 h 127.8 c 6.7,0 12.2,-5.5 12.2,-12.2 V 12.2 C 152,5.5 146.5,0 139.8,0 Z" />
    <path
       id="path406"
       d="m 139.8,0 h -27.5 c -6.7,0 -12.2,5.5 -12.2,12.2 V 48 h -40 c -6.6,0 -12,5.4 -12,12 v 40 H 12 c -6.6,0 -12,5.4 -12,12 v 28 c 0,6.6 5.4,12 12,12 h 127.8 c 6.7,0 12.2,-5.5 12.2,-12.2 V 12.2 C 152,5.5 146.5,0 139.8,0 Z" />
    <path
       id="path413"
       d="m 139.8,0 h -27.5 c -6.7,0 -12.2,5.5 -12.2,12.2 V 48 h -40 c -6.6,0 -12,5.4 -12,12 v 40 H 12 c -6.6,0 -12,5.4 -12,12 v 28 c 0,6.6 5.4,12 12,12 h 127.8 c 6.7,0 12.2,-5.5 12.2,-12.2 V 12.2 C 152,5.5 146.5,0 139.8,0 Z" />
    <linearGradient
       id="a-4"
       gradientUnits="userSpaceOnUse"
       x1="175.5"
       x2="175.5"
       y1="45"
       y2="148.5"
       gradientTransform="matrix(0.36630442,0,0,0.36630442,59.707192,57.14917)">
      <stop
         offset="0"
         stop-color="#f05a28"
         id="stop2-0" />
      <stop
         offset="1"
         stop-color="#fbca0a"
         id="stop4-20" />
    </linearGradient>
    <mask
       id="a-0"
       height="8"
       maskUnits="userSpaceOnUse"
       width="55.9"
       x="0"
       y=".5">
      <path
         clip-rule="evenodd"
         d="M 78.8,32.9 H 0 V 0.5 h 78.8 z"
         fill="#ffffff"
         fill-rule="evenodd"
         id="path2-1" />
    </mask>
    <mask
       id="b-5"
       height="32.5"
       maskUnits="userSpaceOnUse"
       width="51.4"
       x="27.4"
       y=".5">
      <path
         clip-rule="evenodd"
         d="M 78.8,32.9 H 0 V 0.5 h 78.8 z"
         fill="#ffffff"
         fill-rule="evenodd"
         id="path5-0" />
    </mask>
  </defs>
  <sodipodi:namedview
     id="base"
     pagecolor="#ffffff"
     bordercolor="#666666"
     borderopacity="1.0"
     inkscape:pageopacity="0"
     inkscape:pageshadow="2"
     inkscape:zoom="0.58181644"
     inkscape:cx="124"
     inkscape:cy="124"
     inkscape:document-units="px"
     inkscape:current-layer="layer2"
     inkscape:document-rotation="0"
     showgrid="true"
     inkscape:window-width="1366"
     inkscape:window-height="705"
     inkscape:window-x="-8"
     inkscape:window-y="-8"
     inkscape:window-maximized="1"
     inkscape:snap-global="false"
     showguides="true">
    <inkscape:grid
       type="xygrid"
       id="grid1972" />
  </sodipodi:namedview>
  <metadata
     id="metadata1405">
    <rdf:RDF>
      <cc:Work
         rdf:about="">
        <dc:format>image/svg+xml</dc:format>
        <dc:type
           rdf:resource="http://purl.org/dc/dcmitype/StillImage" />
        <dc:title />
      </cc:Work>
    </rdf:RDF>
  </metadata>
  <g
     inkscape:groupmode="layer"
     id="layer3"
     inkscape:label="BG" />
  <g
     inkscape:groupmode="layer"
     id="layer4"
     inkscape:label="Bounding Box" />
  <g
     inkscape:groupmode="layer"
     id="layer2"
     inkscape:label="Top">
    <g
       id="g858"
       transform="translate(-0.19315289,-0.04989999)">
      <path
         style="fill:none;fill-opacity:1;stroke:#000000;stroke-width:4.5;stroke-linecap:round;stroke-linejoin:round;stroke-miterlimit:4;stroke-dasharray:none;stroke-opacity:1;paint-order:normal"
         id="path883"
         sodipodi:type="arc"
         sodipodi:cx="154.57903"
         sodipodi:cy="83.172447"
         sodipodi:rx="111.24604"
         sodipodi:ry="111.24604"
         sodipodi:start="5.9893981"
         sodipodi:end="5.9807042"
         sodipodi:open="true"
         sodipodi:arc-type="arc"
         transform="rotate(16.68412)"
         d="M 261.05862,50.957904 A 111.24604,111.24604 0 0 1 187.02492,189.58178 111.24604,111.24604 0 0 1 48.240468,115.84955 111.24604,111.24604 0 0 1 121.67088,-23.094836 111.24604,111.24604 0 0 1 260.77453,50.03341" />
      <path
         style="fill:#3d3846;fill-opacity:0.326613;stroke:none;stroke-width:4.45107;stroke-linecap:round;stroke-linejoin:round;stroke-miterlimit:4;stroke-dasharray:none;stroke-opacity:1;paint-order:normal"
         id="path885"
         sodipodi:type="arc"
         sodipodi:cx="154.57903"
         sodipodi:cy="83.172447"
         sodipodi:rx="110.03654"
         sodipodi:ry="110.03654"
         sodipodi:start="5.9893981"
         sodipodi:end="5.9807042"
         sodipodi:open="true"
         sodipodi:arc-type="arc"
         transform="rotate(16.68412)"
         d="M 259.90094,51.308151 A 110.03654,110.03654 0 0 1 186.67216,188.42486 110.03654,110.03654 0 0 1 49.396616,115.49427 110.03654,110.03654 0 0 1 122.02867,-21.939463 110.03654,110.03654 0 0 1 259.61994,50.393709" />
    </g>
    <g
       id="g975"
       transform="matrix(1.1533489,0,0,1.1533489,-35.208375,22.929515)">
      <path
         fill="#212121"
         d="m 107.68781,68.044242 0.19889,30.135299 h 4.5203 V 68.044242 Z m 55.94919,0 v 30.147353 h 5.43942 c 0,0 0.0452,-10.878843 0.10548,-10.866789 0.0603,0 8.10941,11.279642 8.18173,11.240466 0.0814,-0.02109 4.82466,-1.726752 4.82466,-1.774969 0,-0.03616 -8.0853,-10.369556 -8.0853,-10.38161 0,-0.02411 6.78044,-7.569987 6.72017,-7.630258 -0.18684,-0.174784 -3.86033,-1.762915 -3.9658,-1.705658 -0.0482,0.03616 -7.78094,8.428843 -7.78094,8.428843 V 68.044242 Z m -90.110567,9.191266 c -1.955781,0.412854 -3.791021,1.663468 -4.544403,3.109963 a 5.0476625,5.0476625 0 0 0 0.02411,4.484132 c 0.482165,0.931181 1.883456,2.226999 4.059225,3.754858 2.35658,1.67251 3.248585,2.507257 3.4746,3.296802 0.340528,1.166236 -0.177799,2.260147 -1.307872,2.802583 -0.56353,0.271218 -0.813653,0.304366 -1.814145,0.259163 -1.304859,-0.06027 -2.199877,-0.391758 -3.528844,-1.344034 -0.424907,-0.292312 -0.813653,-0.506273 -0.861869,-0.458056 -0.0452,0.04822 -0.470111,0.684071 -0.940222,1.413345 l -0.846802,1.304859 0.316421,0.247109 c 0.189852,0.129582 0.753383,0.473124 1.27171,0.765437 3.580073,1.988929 8.874845,1.672509 11.5599,-0.693112 A 5.3942184,5.3942184 0 0 0 82.202385,91.2213 c -0.259163,-1.753874 -1.226506,-2.905043 -4.264145,-5.107933 -2.386715,-1.729766 -3.516789,-2.682042 -3.775952,-3.188315 -0.506273,-0.991451 -0.15369,-1.943726 0.916113,-2.498216 0.542435,-0.280258 0.765436,-0.304366 1.838253,-0.259163 1.045695,0.03616 1.365129,0.120541 2.236039,0.530381 l 1.012546,0.494219 0.786531,-1.235548 c 0.436962,-0.681057 0.753383,-1.283763 0.720234,-1.34102 -0.141636,-0.210947 -1.802091,-0.907073 -2.838745,-1.175277 -1.377183,-0.367651 -4.03813,-0.473124 -5.306826,-0.201906 z m 23.906332,2.66396 c 2.380689,1.115006 3.649385,4.610701 3.134075,8.591574 -0.18082,1.413346 -0.684075,3.119003 -1.154186,3.908548 -0.473124,0.813653 -1.389237,1.696618 -2.121525,2.037146 -1.341021,0.632842 -3.32995,0.388746 -4.589606,-0.566543 -1.74182,-1.328967 -2.697109,-4.589606 -2.332472,-7.979827 0.343543,-3.10695 1.461562,-5.074785 3.414329,-5.981857 1.012547,-0.470111 2.651907,-0.470111 3.649385,-0.009 z m -2.166728,-3.462545 c -1.422386,0.319434 -2.55246,0.955289 -3.775953,2.118511 l -1.108979,1.060763 v -2.531366 h -5.095879 v 30.135299 h 5.095879 V 94.930955 l 0.979397,0.952276 c 1.787024,1.753874 3.88444,2.462054 6.331427,2.118511 1.600184,-0.223001 2.730261,-0.632841 3.920601,-1.43444 3.34502,-2.236039 5.19231,-6.699077 4.68604,-11.361008 -0.48216,-4.423861 -2.75437,-7.485608 -6.418819,-8.64883 -0.940221,-0.30738 -3.504735,-0.367651 -4.6107,-0.120541 z m 20.931983,0.647908 c 0,0 0.16574,15.926506 0.27121,16.387576 0.40984,1.753874 1.58813,3.42337 2.90806,4.143603 1.21144,0.65695 2.18782,0.858856 4.01402,0.858856 2.60068,-0.01205 4.17675,-0.635854 6.10843,-2.413837 l 0.98843,-0.895018 v 3.01353 h 5.24957 l -0.0693,-21.09471 h -5.18026 c 0,0 0.0693,13.102828 0,13.560885 -0.30738,1.838253 -1.72976,3.345018 -3.17927,3.827183 -0.85886,0.292312 -2.36562,0.527368 -3.27269,0.385732 -0.92817,-0.150677 -2.49521,-1.175277 -2.58863,-2.70615 V 77.154143 Z m 43.64796,21.09471 c 0,0 -0.16574,-15.926506 -0.27122,-16.387576 -0.40984,-1.753874 -1.58813,-3.42337 -2.90805,-4.143603 -1.21144,-0.65695 -2.18782,-0.858856 -4.01402,-0.858856 -2.60068,0.01205 -4.17676,0.635854 -6.10843,2.413837 l -0.98844,0.895018 v -3.01353 h -5.24957 l 0.0693,21.09471 h 5.18025 c 0,0 -0.0693,-13.102828 0,-13.560885 0.30738,-1.838253 1.72977,-3.345018 3.17928,-3.827183 0.85885,-0.292312 1.98893,-0.515313 3.27269,-0.385732 1.28075,0.138623 2.68204,1.304859 2.58862,2.70615 v 14.998338 z"
         id="path2-6"
         style="stroke-width:3.01353" />
      <path
         fill="#77b539"
         fill-rule="evenodd"
         d="m 187.74524,75.578067 v 4.520294 l 18.08118,6.02706 -18.08118,7.841205 v 4.212915 l 21.09471,-9.04059 v -6.02706 z"
         id="path4"
         style="stroke-width:3.01353" />
    </g>
  </g>
</svg>
