<?xml version="1.0" encoding="UTF-8" standalone="no"?>
<svg
   xmlns:dc="http://purl.org/dc/elements/1.1/"
   xmlns:cc="http://creativecommons.org/ns#"
   xmlns:rdf="http://www.w3.org/1999/02/22-rdf-syntax-ns#"
   xmlns:svg="http://www.w3.org/2000/svg"
   xmlns="http://www.w3.org/2000/svg"
   xmlns:xlink="http://www.w3.org/1999/xlink"
   xmlns:sodipodi="http://sodipodi.sourceforge.net/DTD/sodipodi-0.dtd"
   xmlns:inkscape="http://www.inkscape.org/namespaces/inkscape"
   width="248.0px"
   height="248.0px"
   viewBox="0 0 248.0 248.0"
   version="1.1"
   id="SVGRoot"
   sodipodi:docname="t-mobile-wordmark-1 White.svg"
   inkscape:version="1.0.2-2 (e86c870879, 2021-01-15)">
  <defs
     id="defs1402">
    <inkscape:path-effect
       effect="fillet_chamfer"
       id="path-effect2040"
       is_visible="true"
       lpeversion="1"
       satellites_param="F,0,0,1,0,0,0,1 @ F,0,0,1,0,6.0755415,0,1 @ F,0,0,1,0,6.1445293,0,1 @ F,0,0,1,0,0,0,1"
       unit="px"
       method="auto"
       mode="F"
       radius="0"
       chamfer_steps="1"
       flexible="false"
       use_knot_distance="true"
       apply_no_radius="true"
       apply_with_radius="true"
       only_selected="true"
       hide_knots="false" />
    <style
       id="style1979">.cls-1{fill:url(#GreenGradient);}.cls-2{fill:#fff;}</style>
    <linearGradient
       id="GreenGradient"
       x1="-522.53"
       y1="465.47"
       x2="-416.47"
       y2="571.53"
       gradientTransform="rotate(-90,-456.5,24.5)"
       gradientUnits="userSpaceOnUse">
      <stop
         offset="0"
         stop-color="#1b660f"
         id="stop1981" />
      <stop
         offset="1"
         stop-color="#6cae3e"
         id="stop1983" />
    </linearGradient>
    <linearGradient
       id="OrangeGradient"
       x1="1131.1"
       y1="-516.47998"
       x2="1131.1"
       y2="-366.48001"
       gradientTransform="rotate(-135,816.69218,-8.7994369)"
       gradientUnits="userSpaceOnUse">
      <stop
         offset="0"
         stop-color="#c8511b"
         id="stop138" />
      <stop
         offset="1"
         stop-color="#f90"
         id="stop140" />
    </linearGradient>
    <clipPath
       id="clip1">
      <path
         d="m 93,27 h 58 V 88.851563 H 93 Z m 0,0"
         id="path2" />
    </clipPath>
    <clipPath
       id="clip2">
      <path
         d="m 161,10 h 41 v 78.851563 h -41 z m 0,0"
         id="path5" />
    </clipPath>
    <clipPath
       id="clip3">
      <path
         d="m 206,0 h 65 v 88.851563 h -65 z m 0,0"
         id="path8" />
    </clipPath>
    <clipPath
       id="clip4">
      <path
         d="m 322,26 h 57 v 62.851563 h -57 z m 0,0"
         id="path11" />
    </clipPath>
    <clipPath
       id="clip5">
      <path
         d="m 415,26 h 58.05859 V 87 H 415 Z m 0,0"
         id="path14" />
    </clipPath>
    <clipPath
       id="clip6">
      <path
         d="M 0,3 H 87 V 88.851563 H 0 Z m 0,0"
         id="path17" />
    </clipPath>
    <clipPath
       id="b">
      <use
         xlink:href="#a"
         overflow="visible"
         id="use5"
         x="0"
         y="0"
         width="100%"
         height="100%" />
    </clipPath>
    <clipPath
       id="d">
      <use
         xlink:href="#c"
         overflow="visible"
         id="use21"
         x="0"
         y="0"
         width="100%"
         height="100%" />
    </clipPath>
    <linearGradient
       id="e"
       gradientUnits="userSpaceOnUse"
       x1="-17845.727"
       y1="-3022.7009"
       x2="-17300.025"
       y2="-3131.4309"
       gradientTransform="matrix(0.1741,0,0,-0.1741,5044.277,-686.514)">
      <stop
         offset="0"
         stop-color="#2b7a77"
         id="stop30" />
      <stop
         offset=".51"
         stop-color="#4ebaa9"
         id="stop32" />
      <stop
         offset="1"
         stop-color="#5cc2b1"
         id="stop34" />
    </linearGradient>
    <linearGradient
       id="f"
       gradientUnits="userSpaceOnUse"
       x1="-16495.199"
       y1="-6380.3711"
       x2="-16765.998"
       y2="-5744.4058"
       gradientTransform="matrix(0.1741,0,0,-0.1741,5044.277,-686.514)">
      <stop
         offset="0"
         stop-color="#236736"
         id="stop39" />
      <stop
         offset=".493"
         stop-color="#6ba443"
         id="stop41" />
      <stop
         offset="1"
         stop-color="#86c146"
         id="stop43" />
    </linearGradient>
    <linearGradient
       id="g"
       gradientUnits="userSpaceOnUse"
       x1="-16221.797"
       y1="-6660.6538"
       x2="-15823.801"
       y2="-5712.8491"
       gradientTransform="matrix(0.1741,0,0,-0.1741,5044.277,-686.514)">
      <stop
         offset="0"
         stop-color="#29a5e3"
         id="stop48" />
      <stop
         offset=".515"
         stop-color="#356eb9"
         id="stop50" />
      <stop
         offset="1"
         stop-color="#394da5"
         id="stop52" />
    </linearGradient>
    <path
       id="a"
       d="M 196.35,-37.141 H 1196.36 V 128.657 H 196.35 Z" />
    <path
       id="c"
       d="M 196.35,-37.141 H 1196.36 V 128.657 H 196.35 Z" />
    <radialGradient
       cx="202.91011"
       cy="65.021362"
       fx="202.91011"
       fy="65.021362"
       r="48.504616"
       id="a-5"
       gradientTransform="scale(1.0005153,0.99948493)"
       gradientUnits="userSpaceOnUse">
      <stop
         stop-color="#FFF"
         offset="0%"
         id="stop2" />
      <stop
         stop-color="#FCE800"
         offset="19.02%"
         id="stop4" />
      <stop
         stop-color="#EC8F27"
         offset="85.93%"
         id="stop6" />
    </radialGradient>
    <linearGradient
       x1="134.77487"
       y1="49.381653"
       x2="134.77487"
       y2="0.55994713"
       id="b-0"
       gradientTransform="scale(1.0256763,0.97496651)"
       gradientUnits="userSpaceOnUse">
      <stop
         stop-color="#F68B1F"
         offset="0%"
         id="stop9" />
      <stop
         stop-color="#FFF"
         offset="100%"
         id="stop11" />
    </linearGradient>
    <linearGradient
       x1="53.483879"
       y1="44.051418"
       x2="64.062614"
       y2="62.661644"
       id="c-7"
       gradientUnits="userSpaceOnUse">
      <stop
         stop-color="#FFF"
         offset="0%"
         id="stop14" />
      <stop
         stop-color="#FEF6ED"
         offset="4.821%"
         id="stop16" />
      <stop
         stop-color="#FBD0A5"
         offset="25.69%"
         id="stop18" />
      <stop
         stop-color="#F9B26B"
         offset="44.42%"
         id="stop20" />
      <stop
         stop-color="#F79D42"
         offset="60.34%"
         id="stop22" />
      <stop
         stop-color="#F69028"
         offset="72.82%"
         id="stop24" />
      <stop
         stop-color="#F68B1F"
         offset="80.33%"
         id="stop26" />
    </linearGradient>
    <linearGradient
       x1="2.05039"
       y1="68.696198"
       x2="42.65826"
       y2="192.964"
       id="d-8"
       gradientTransform="scale(1.409801,0.70931995)"
       gradientUnits="userSpaceOnUse">
      <stop
         stop-color="#FFF"
         offset="0%"
         id="stop29" />
      <stop
         stop-color="#FEF6ED"
         offset="4.821%"
         id="stop31" />
      <stop
         stop-color="#FBD0A5"
         offset="25.69%"
         id="stop33" />
      <stop
         stop-color="#F9B26B"
         offset="44.42%"
         id="stop35" />
      <stop
         stop-color="#F79D42"
         offset="60.34%"
         id="stop37" />
      <stop
         stop-color="#F69028"
         offset="72.82%"
         id="stop39-9" />
      <stop
         stop-color="#F68B1F"
         offset="80.33%"
         id="stop41-3" />
    </linearGradient>
    <linearGradient
       x1="180.28741"
       y1="90.57383"
       x2="173.40768"
       y2="123.44773"
       id="e-2"
       gradientTransform="scale(1.2768133,0.78319989)"
       gradientUnits="userSpaceOnUse">
      <stop
         stop-color="#FFF"
         offset="0%"
         id="stop44" />
      <stop
         stop-color="#FEF6ED"
         offset="4.821%"
         id="stop46" />
      <stop
         stop-color="#FBD0A5"
         offset="25.69%"
         id="stop48-4" />
      <stop
         stop-color="#F9B26B"
         offset="44.42%"
         id="stop50-9" />
      <stop
         stop-color="#F79D42"
         offset="60.34%"
         id="stop52-4" />
      <stop
         stop-color="#F69028"
         offset="72.82%"
         id="stop54" />
      <stop
         stop-color="#F68B1F"
         offset="80.33%"
         id="stop56" />
    </linearGradient>
    <linearGradient
       x1="43.736912"
       y1="243.13164"
       x2="43.736912"
       y2="325.8479"
       id="f-6"
       gradientTransform="scale(2.9399166,0.3401457)"
       gradientUnits="userSpaceOnUse">
      <stop
         stop-color="#F68B1F"
         offset="0%"
         id="stop59" />
      <stop
         stop-color="#CB672F"
         offset="53.08%"
         id="stop61" />
      <stop
         stop-color="#A1453F"
         offset="100%"
         id="stop63" />
    </linearGradient>
    <radialGradient
       cx="97.375191"
       cy="132.38023"
       fx="97.375191"
       fy="132.38023"
       r="38.978508"
       id="g-9"
       gradientTransform="scale(1.6664459,0.60007949)"
       gradientUnits="userSpaceOnUse">
      <stop
         stop-color="#FFF"
         offset="0%"
         id="stop66" />
      <stop
         stop-color="#FCE800"
         offset="13.34%"
         id="stop68" />
      <stop
         stop-color="#EC8F27"
         offset="85.93%"
         id="stop70" />
    </radialGradient>
    <clipPath
       id="SVGID_6_-5">
      <use
         xlink:href="#SVGID_5_"
         overflow="visible"
         id="use35-6"
         x="0"
         y="0"
         width="100%"
         height="100%" />
    </clipPath>
    <clipPath
       id="SVGID_9_-3">
      <use
         xlink:href="#SVGID_8_-7"
         overflow="visible"
         id="use48-3"
         x="0"
         y="0"
         width="100%"
         height="100%" />
    </clipPath>
    <clipPath
       id="SVGID_11_-0">
      <use
         xlink:href="#SVGID_10_-9"
         overflow="visible"
         id="use58-5"
         x="0"
         y="0"
         width="100%"
         height="100%" />
    </clipPath>
    <clipPath
       id="SVGID_13_-2">
      <use
         xlink:href="#SVGID_12_-4"
         overflow="visible"
         id="use68-7"
         x="0"
         y="0"
         width="100%"
         height="100%" />
    </clipPath>
    <clipPath
       id="SVGID_15_-4">
      <use
         xlink:href="#SVGID_14_-9"
         overflow="visible"
         id="use78-1"
         x="0"
         y="0"
         width="100%"
         height="100%" />
    </clipPath>
    <path
       id="path392"
       d="m 139.8,0 h -27.5 c -6.7,0 -12.2,5.5 -12.2,12.2 V 48 h -40 c -6.6,0 -12,5.4 -12,12 v 40 H 12 c -6.6,0 -12,5.4 -12,12 v 28 c 0,6.6 5.4,12 12,12 h 127.8 c 6.7,0 12.2,-5.5 12.2,-12.2 V 12.2 C 152,5.5 146.5,0 139.8,0 Z" />
    <path
       id="path399"
       d="m 139.8,0 h -27.5 c -6.7,0 -12.2,5.5 -12.2,12.2 V 48 h -40 c -6.6,0 -12,5.4 -12,12 v 40 H 12 c -6.6,0 -12,5.4 -12,12 v 28 c 0,6.6 5.4,12 12,12 h 127.8 c 6.7,0 12.2,-5.5 12.2,-12.2 V 12.2 C 152,5.5 146.5,0 139.8,0 Z" />
    <path
       id="path406"
       d="m 139.8,0 h -27.5 c -6.7,0 -12.2,5.5 -12.2,12.2 V 48 h -40 c -6.6,0 -12,5.4 -12,12 v 40 H 12 c -6.6,0 -12,5.4 -12,12 v 28 c 0,6.6 5.4,12 12,12 h 127.8 c 6.7,0 12.2,-5.5 12.2,-12.2 V 12.2 C 152,5.5 146.5,0 139.8,0 Z" />
    <path
       id="path413"
       d="m 139.8,0 h -27.5 c -6.7,0 -12.2,5.5 -12.2,12.2 V 48 h -40 c -6.6,0 -12,5.4 -12,12 v 40 H 12 c -6.6,0 -12,5.4 -12,12 v 28 c 0,6.6 5.4,12 12,12 h 127.8 c 6.7,0 12.2,-5.5 12.2,-12.2 V 12.2 C 152,5.5 146.5,0 139.8,0 Z" />
    <linearGradient
       id="a-4"
       gradientUnits="userSpaceOnUse"
       x1="175.5"
       x2="175.5"
       y1="45"
       y2="148.5"
       gradientTransform="matrix(0.36630442,0,0,0.36630442,59.707192,57.14917)">
      <stop
         offset="0"
         stop-color="#f05a28"
         id="stop2-0" />
      <stop
         offset="1"
         stop-color="#fbca0a"
         id="stop4-20" />
    </linearGradient>
    <mask
       id="a-0"
       height="8"
       maskUnits="userSpaceOnUse"
       width="55.9"
       x="0"
       y=".5">
      <path
         clip-rule="evenodd"
         d="M 78.8,32.9 H 0 V 0.5 h 78.8 z"
         fill="#ffffff"
         fill-rule="evenodd"
         id="path2-1" />
    </mask>
    <mask
       id="b-5"
       height="32.5"
       maskUnits="userSpaceOnUse"
       width="51.4"
       x="27.4"
       y=".5">
      <path
         clip-rule="evenodd"
         d="M 78.8,32.9 H 0 V 0.5 h 78.8 z"
         fill="#ffffff"
         fill-rule="evenodd"
         id="path5-0" />
    </mask>
    <linearGradient
       id="SVGID_1_-56"
       gradientUnits="userSpaceOnUse"
       x1="-130.0183"
       y1="593.36761"
       x2="-131.1685"
       y2="594.03522"
       gradientTransform="matrix(14.298,0,0,-22.802,2075.3821,13864.579)">
      <stop
         offset="5.550000e-002"
         style="stop-color:#FFFFFF"
         id="stop24-6" />
      <stop
         offset="1"
         style="stop-color:#FFFFFF;stop-opacity:0.2"
         id="stop26-9" />
    </linearGradient>
    <linearGradient
       id="SVGID_2_-9"
       gradientUnits="userSpaceOnUse"
       x1="-119.477"
       y1="593.36761"
       x2="-120.6273"
       y2="594.03522"
       gradientTransform="matrix(14.299,0,0,-22.802,2153.1946,13864.579)">
      <stop
         offset="5.550000e-002"
         style="stop-color:#FFFFFF"
         id="stop31-9" />
      <stop
         offset="1"
         style="stop-color:#FFFFFF;stop-opacity:0.2"
         id="stop33-6" />
    </linearGradient>
  </defs>
  <sodipodi:namedview
     id="base"
     pagecolor="#ffffff"
     bordercolor="#666666"
     borderopacity="1.0"
     inkscape:pageopacity="0"
     inkscape:pageshadow="2"
     inkscape:zoom="1.7379032"
     inkscape:cx="124"
     inkscape:cy="124"
     inkscape:document-units="px"
     inkscape:current-layer="layer2"
     inkscape:document-rotation="0"
     showgrid="true"
     inkscape:window-width="1366"
     inkscape:window-height="705"
     inkscape:window-x="-8"
     inkscape:window-y="-8"
     inkscape:window-maximized="1"
     inkscape:snap-global="false"
     showguides="true">
    <inkscape:grid
       type="xygrid"
       id="grid1972" />
  </sodipodi:namedview>
  <metadata
     id="metadata1405">
    <rdf:RDF>
      <cc:Work
         rdf:about="">
        <dc:format>image/svg+xml</dc:format>
        <dc:type
           rdf:resource="http://purl.org/dc/dcmitype/StillImage" />
        <dc:title />
      </cc:Work>
    </rdf:RDF>
  </metadata>
  <g
     inkscape:groupmode="layer"
     id="layer3"
     inkscape:label="BG" />
  <g
     inkscape:groupmode="layer"
     id="layer4"
     inkscape:label="Bounding Box" />
  <g
     inkscape:groupmode="layer"
     id="layer2"
     inkscape:label="Top">
    <g
       id="g858"
       transform="translate(-0.19315289,-0.04989999)">
      <path
         style="fill:none;fill-opacity:1;stroke:#000000;stroke-width:4.5;stroke-linecap:round;stroke-linejoin:round;stroke-miterlimit:4;stroke-dasharray:none;stroke-opacity:1;paint-order:normal"
         id="path883"
         sodipodi:type="arc"
         sodipodi:cx="154.57903"
         sodipodi:cy="83.172447"
         sodipodi:rx="111.24604"
         sodipodi:ry="111.24604"
         sodipodi:start="5.9893981"
         sodipodi:end="5.9807042"
         sodipodi:open="true"
         sodipodi:arc-type="arc"
         transform="rotate(16.68412)"
         d="M 261.05862,50.957904 A 111.24604,111.24604 0 0 1 187.02492,189.58178 111.24604,111.24604 0 0 1 48.240468,115.84955 111.24604,111.24604 0 0 1 121.67088,-23.094836 111.24604,111.24604 0 0 1 260.77453,50.03341" />
      <path
         style="fill:#3d3846;fill-opacity:0.326613;stroke:none;stroke-width:4.45107;stroke-linecap:round;stroke-linejoin:round;stroke-miterlimit:4;stroke-dasharray:none;stroke-opacity:1;paint-order:normal"
         id="path885"
         sodipodi:type="arc"
         sodipodi:cx="154.57903"
         sodipodi:cy="83.172447"
         sodipodi:rx="110.03654"
         sodipodi:ry="110.03654"
         sodipodi:start="5.9893981"
         sodipodi:end="5.9807042"
         sodipodi:open="true"
         sodipodi:arc-type="arc"
         transform="rotate(16.68412)"
         d="M 259.90094,51.308151 A 110.03654,110.03654 0 0 1 186.67216,188.42486 110.03654,110.03654 0 0 1 49.396616,115.49427 110.03654,110.03654 0 0 1 122.02867,-21.939463 110.03654,110.03654 0 0 1 259.61994,50.393709" />
    </g>
    <path
       d="m 167.97798,112.15061 a 2.282625,2.3421435 0 1 1 -4.56525,0 2.282625,2.3421435 0 1 1 4.56525,0 z m 34.78111,10.28694 h 5.81008 v 5.92912 h -5.81008 z m -115.230892,0 h 5.81008 v 5.92912 h -5.81008 z m -17.426991,0 h 5.810079 v 5.92912 h -5.810079 z m -17.162586,0 H 58.7487 v 5.92912 h -5.810079 z m -17.774002,0 h 5.810079 v 5.92912 h -5.810079 z"
       fill="#999b9e"
       id="path2-6"
       style="stroke-width:0.360718;fill:#5e5c64" />
    <path
       d="m 49.11826,110.60277 h 0.689332 c 4.452338,0 6.527547,2.38181 7.394712,8.73369 l 1.378663,-0.061 -0.183966,-10.07773 H 35.741046 l -0.223284,10.07773 1.326719,0.061 c 0.229777,-2.38182 0.505366,-3.66453 1.103436,-4.94724 1.057263,-2.38218 3.263773,-3.78645 5.975648,-3.78645 h 0.965281 v 21.92586 c 0,2.32086 -0.137794,3.05383 -0.688971,3.60357 -0.459915,0.42745 -1.379384,0.61069 -2.437008,0.61069 h -1.057264 v 1.4656 h 12.5959 v -1.4656 h -1.063756 c -1.050771,0 -1.976733,-0.1836 -2.429794,-0.61069 -0.551538,-0.54974 -0.689332,-1.28308 -0.689332,-3.60357 v -21.92586"
       fill="#ed008c"
       id="path4"
       style="stroke-width:0.360718" />
    <path
       d="m 109.04934,138.20885 7.3406,-25.61312 v 20.09955 c 0,2.19352 -0.12481,2.96438 -0.6226,3.49788 -0.3737,0.41482 -1.23979,0.59302 -2.20002,0.59302 h -0.37334 v 1.42267 h 10.37604 v -1.42267 h -0.53999 c -0.95446,0 -1.82595,-0.17784 -2.1993,-0.59302 -0.49851,-0.5335 -0.62295,-1.30436 -0.62295,-3.49788 v -17.13481 c 0,-2.19389 0.12444,-3.0239 0.62295,-3.5574 0.41483,-0.35567 1.24484,-0.59302 2.1993,-0.59302 h 0.53999 v -1.36387 h -8.05157 l -6.0597,20.69221 -5.92912,-20.69221 h -8.010093 v 1.36387 h 0.746686 c 2.200017,0 2.614842,0.47435 2.614842,3.32041 v 16.30444 c 0,2.60871 -0.124447,3.67607 -0.498151,4.44692 -0.414825,0.77086 -1.292451,1.30436 -2.199656,1.30436 h -0.664081 v 1.42267 h 8.549373 v -1.42267 h -0.53928 c -1.0789,0 -1.95076,-0.41519 -2.45468,-1.2452 -0.49202,-0.83001 -0.61647,-1.60086 -0.61647,-4.50608 v -18.43881 l 7.2984,25.61312 h 1.29282 m 23.4434,-20.04039 c -5.14636,0 -8.50789,4.03174 -8.50789,10.37604 0,6.10695 3.36153,10.25737 8.37803,10.25737 5.06267,0 8.42456,-4.15042 8.42456,-10.31653 0,-6.10731 -3.36189,-10.31688 -8.2947,-10.31688 m -0.16593,1.36351 c 1.48832,0 2.77464,0.94869 3.4802,2.54955 0.66408,1.48219 0.95446,3.49824 0.95446,6.40346 0,5.98792 -1.45261,8.95229 -4.39895,8.95229 -2.94093,0 -4.35819,-2.96473 -4.35819,-9.0118 0,-2.84607 0.29615,-4.86176 0.96023,-6.34395 0.65867,-1.54134 1.9926,-2.54955 3.36225,-2.54955 m 15.35611,-9.78266 -5.89377,0.29651 v 1.30435 h 0.28461 c 1.74335,0 2.12282,0.59302 2.12282,3.37957 v 19.26917 c 0,2.49004 -0.083,3.14258 -0.41482,4.20958 h 1.36964 c 1.03129,-1.71954 1.28632,-2.01569 1.70151,-2.01569 0.20164,0 0.40292,0.0592 0.69979,0.35567 2.03914,1.66002 2.91063,2.01569 4.77843,2.01569 4.47614,0 7.71358,-4.32825 7.71358,-10.49436 0,-5.81044 -2.99431,-9.72351 -7.47046,-9.72351 -2.3241,0 -4.01984,1.12652 -4.89133,3.14221 z m 4.30444,10.07917 c 2.66246,0 4.03174,2.84606 4.03174,8.41915 0,5.8696 -1.41112,8.8935 -4.10893,8.8935 -2.98819,0 -4.55983,-3.08342 -4.55983,-8.71566 0,-2.84607 0.37406,-4.80224 1.24555,-6.28479 0.7824,-1.42267 2.1167,-2.3122 3.39147,-2.3122 m 15.73559,-1.36351 -6.05357,0.35567 v 1.30435 h 0.45667 c 1.73686,0 2.11092,0.59302 2.11092,3.32041 v 10.02001 c 0,2.72775 -0.3737,3.37993 -2.11092,3.37993 h -0.65831 v 1.36315 h 9.03634 v -1.36315 h -0.65254 c -1.74912,0 -2.12823,-0.59338 -2.12823,-3.37993 v -15.00044 m 10.49941,-8.71566 -6.05357,0.29651 v 1.30435 h 0.45126 c 1.74299,0 2.11633,0.59302 2.11633,3.37957 v 18.73531 c 0,2.78691 -0.37334,3.37993 -2.11633,3.37993 h -0.65831 v 1.36315 h 9.04139 v -1.36315 h -0.66408 c -1.74912,0 -2.11669,-0.59338 -2.11669,-3.37993 z m 19.2937,18.617 c -0.202,-6.28479 -3.19018,-10.19785 -7.70781,-10.19785 -4.36396,0 -7.51231,4.26873 -7.51231,10.19785 0,6.34394 3.10686,10.4352 7.92136,10.4352 3.11264,0 5.27081,-1.66038 7.05564,-5.33646 l -1.24484,-0.65218 c -1.45261,3.08306 -2.90522,4.32826 -5.14672,4.32826 -3.27856,0 -4.68355,-2.60835 -4.72576,-8.77482 z m -11.3186,-1.48255 c 0.0357,-4.44657 1.48183,-7.23311 3.81207,-7.23311 2.3241,0 3.69339,2.72738 3.65227,7.23311 z m 24.55045,-9.19866 c 0.35062,0 0.69294,0.0898 1.02696,0.26981 0.33403,0.18 0.5941,0.43755 0.78023,0.7723 0.18686,0.33475 0.27992,0.68392 0.27992,1.04752 0,0.36 -0.092,0.70593 -0.27595,1.03779 a 1.940661,1.940661 0 0 1 -0.77193,0.77374 c -0.3315,0.1836 -0.67779,0.27559 -1.03959,0.27559 -0.3618,0 -0.70809,-0.0916 -1.03959,-0.27559 a 1.9442682,1.9442682 0 0 1 -0.77338,-0.77374 c -0.18469,-0.33186 -0.27703,-0.67779 -0.27703,-1.03779 0,-0.3636 0.0934,-0.71277 0.281,-1.04752 a 1.9283966,1.9283966 0 0 1 0.78131,-0.7723 c 0.33547,-0.17999 0.67779,-0.26981 1.02805,-0.26981 z m 0,0.34773 c -0.2929,0 -0.57859,0.075 -0.85562,0.22545 a 1.6196223,1.6196223 0 0 0 -0.65146,0.64388 1.7603022,1.7603022 0 0 0 -0.23447,0.87221 c 0,0.30048 0.0768,0.58833 0.23086,0.86392 a 1.6376582,1.6376582 0 0 0 0.64533,0.64424 c 0.27667,0.15403 0.56524,0.23086 0.86536,0.23086 a 1.7530878,1.7530878 0 0 0 0.86536,-0.23086 1.6246723,1.6246723 0 0 0 0.64388,-0.64424 1.7559736,1.7559736 0 0 0 0.22978,-0.86392 c 0,-0.30192 -0.0779,-0.59302 -0.23375,-0.87221 a 1.6073579,1.6073579 0 0 0 -0.65109,-0.64388 c -0.27812,-0.15042 -0.56272,-0.22545 -0.85418,-0.22545 z m -0.91622,2.89404 v -2.24727 h 0.77374 c 0.26368,0 0.45558,0.0209 0.57354,0.0624 0.11867,0.0415 0.21282,0.11399 0.2828,0.21751 0.0703,0.10317 0.10569,0.21319 0.10569,0.32934 0,0.16412 -0.0592,0.30733 -0.17675,0.42889 -0.11687,0.12156 -0.27307,0.1901 -0.46749,0.20489 0.0797,0.0332 0.1432,0.0729 0.19118,0.11904 0.0909,0.0884 0.20164,0.23699 0.33258,0.44548 l 0.27451,0.44008 h -0.44477 l -0.2002,-0.35459 c -0.15691,-0.27739 -0.2828,-0.45126 -0.37767,-0.52196 -0.0664,-0.0523 -0.1634,-0.0783 -0.29074,-0.0783 h -0.21354 v 0.95482 h -0.36288 z m 0.36324,-1.26324 h 0.44224 c 0.21066,0 0.35458,-0.0314 0.43178,-0.0945 0.0772,-0.0631 0.11507,-0.14646 0.11507,-0.25034 0,-0.0667 -0.0184,-0.12661 -0.0556,-0.17928 -0.0372,-0.0527 -0.088,-0.0923 -0.15439,-0.11831 -0.0656,-0.026 -0.18757,-0.0386 -0.36541,-0.0386 h -0.41374 z"
       fill="#999b9e"
       id="path6"
       style="stroke-width:0.360718;fill:#5e5c64" />
  </g>
</svg>
