<?xml version="1.0" encoding="UTF-8"?>
<svg width="48px" height="48px" viewBox="0 0 48 48" version="1.1" xmlns="http://www.w3.org/2000/svg" xmlns:xlink="http://www.w3.org/1999/xlink">
    <title>Icon-Resource/Analytics/Res_Amazon-EMR_HDFS-Cluster_48_Dark</title>
    <g id="Icon-Resource/Analytics/Res_Amazon-EMR_HDFS-Cluster_48" stroke="none" stroke-width="1" fill="none" fill-rule="evenodd">
        <path d="M36.946,26.491 C36.458,26.557 36.076,26.958 36.076,27.465 L36.076,30.446 L33.745,29.669 L36.433,25.74 L36.946,26.491 Z M38.076,34.329 L43.94,34.329 L43.94,28.465 L38.076,28.465 L38.076,34.329 Z M33.708,39.47 L33.708,37.076 C33.708,36.523 33.26,36.076 32.708,36.076 L29.36,36.076 L32.571,31.385 L36.076,32.553 L36.076,35.329 C36.076,35.882 36.523,36.329 37.076,36.329 L37.913,36.329 C36.394,37.481 34.831,38.642 33.708,39.47 L33.708,39.47 Z M25.844,43.94 L31.708,43.94 L31.708,38.076 L25.844,38.076 L25.844,43.94 Z M10.426,33.455 C6.423,33.455 4.106,32.304 4,31.82 L3.999,18.747 C5.648,19.546 8.087,19.927 10.426,19.927 C12.766,19.927 15.205,19.546 16.853,18.747 L16.854,31.812 C16.745,32.303 14.426,33.455 10.426,33.455 L10.426,33.455 Z M16.678,16.519 C16.07,17.07 13.88,17.927 10.426,17.927 C6.966,17.927 4.773,17.067 4.172,16.521 C4.774,15.97 6.966,15.112 10.426,15.112 C13.88,15.112 16.07,15.968 16.678,16.519 L16.678,16.519 Z M25.843,9.864 L31.707,9.864 L31.707,4 L25.843,4 L25.843,9.864 Z M37.913,11.611 L37.076,11.611 C36.523,11.611 36.076,12.058 36.076,12.611 L36.076,15.387 L32.571,16.555 L29.36,11.864 L32.708,11.864 C33.26,11.864 33.708,11.417 33.708,10.864 L33.708,8.47 C34.831,9.298 36.394,10.459 37.913,11.611 L37.913,11.611 Z M38.076,19.475 L43.94,19.475 L43.94,13.611 L38.076,13.611 L38.076,19.475 Z M33.745,18.271 L36.076,17.494 L36.076,20.475 C36.076,20.982 36.458,21.384 36.946,21.449 L36.433,22.2 L33.745,18.271 Z M18.853,24.701 L18.853,23.239 L31.772,18.929 L35.221,23.97 L31.772,29.011 L18.853,24.701 Z M24.25,11.648 C24.418,11.775 24.617,11.864 24.843,11.864 L26.937,11.864 L30.598,17.214 L18.853,21.132 L18.853,16.748 C18.853,16.669 18.837,16.595 18.828,16.519 C18.837,16.443 18.853,16.37 18.853,16.291 L18.801,16.291 C18.789,16.232 18.761,16.178 18.743,16.121 L24.25,11.648 Z M24.843,36.076 C24.617,36.076 24.418,36.165 24.25,36.293 L18.844,31.903 C18.845,31.875 18.853,31.848 18.853,31.82 L18.853,26.808 L30.598,30.726 L26.937,36.076 L24.843,36.076 Z M39.351,21.475 L44.94,21.475 C45.493,21.475 45.94,21.028 45.94,20.475 L45.94,12.611 C45.94,12.058 45.493,11.611 44.94,11.611 L41.195,11.611 C38.573,9.562 34.915,6.872 33.708,5.987 L33.708,3 C33.708,2.447 33.26,2 32.708,2 L24.843,2 C24.291,2 23.843,2.447 23.843,3 L23.843,9.4 L17.428,14.611 C15.811,13.594 13.058,13.112 10.426,13.112 C6.625,13.112 2.551,14.111 2.051,16.291 L2,16.291 C2,16.37 2.016,16.443 2.025,16.519 C2.016,16.595 2,16.669 2,16.748 L2,31.82 C2,34.317 6.368,35.455 10.426,35.455 C13.298,35.455 16.316,34.883 17.842,33.665 L23.843,38.54 L23.843,44.94 C23.843,45.493 24.291,45.94 24.843,45.94 L32.708,45.94 C33.26,45.94 33.708,45.493 33.708,44.94 L33.708,41.953 C34.915,41.068 38.573,38.378 41.195,36.329 L44.94,36.329 C45.493,36.329 45.94,35.882 45.94,35.329 L45.94,27.465 C45.94,26.912 45.493,26.465 44.94,26.465 L39.351,26.465 L37.644,23.97 L39.351,21.475 Z" id="Fill-6" fill="#A166FF"></path>
    </g>
</svg>