<?xml version="1.0" encoding="UTF-8"?>
<svg width="48px" height="48px" viewBox="0 0 48 48" version="1.1" xmlns="http://www.w3.org/2000/svg" xmlns:xlink="http://www.w3.org/1999/xlink">
    <title>Icon-Resource/Containers/Res_Amazon-Elastic-Container-Service_Container-3_48_Dark</title>
    <g id="Icon-Resource/Containers/Res_Amazon-Elastic-Container-Service_Container-3_48" stroke="none" stroke-width="1" fill="none" fill-rule="evenodd">
        <path d="M26.112,31.6134 L28.861,31.6134 L28.861,29.7384 L26.112,29.7384 L26.112,31.6134 Z M17.117,23.9904 L30.858,23.9904 L30.858,16.3714 L17.117,16.3714 L17.117,23.9904 Z M17.993,31.8624 L29.984,31.8624 L29.984,29.4894 L17.993,29.4894 L17.993,31.8624 Z M16.117,25.9914 L22.989,25.9914 L22.989,27.4894 L16.992,27.4894 C16.44,27.4894 15.992,27.9364 15.992,28.4894 L15.992,32.8624 C15.992,33.4144 16.44,33.8624 16.992,33.8624 L30.984,33.8624 C31.536,33.8624 31.984,33.4144 31.984,32.8624 L31.984,28.4894 C31.984,27.9364 31.536,27.4894 30.984,27.4894 L24.989,27.4894 L24.989,25.9914 L31.859,25.9914 C32.411,25.9914 32.859,25.5434 32.859,24.9914 L32.859,15.3714 C32.859,14.8194 32.411,14.3714 31.859,14.3714 L16.117,14.3714 C15.565,14.3714 15.117,14.8194 15.117,15.3714 L15.117,24.9914 C15.117,25.5434 15.565,25.9914 16.117,25.9914 L16.117,25.9914 Z M39.603,33.7364 L41.603,33.7364 L41.603,14.4984 L39.603,14.4984 L39.603,33.7364 Z M34.357,33.7364 L36.357,33.7364 L36.357,14.4984 L34.357,14.4984 L34.357,33.7364 Z M11.62,33.7364 L13.62,33.7364 L13.62,14.4984 L11.62,14.4984 L11.62,33.7364 Z M6.373,33.7364 L8.373,33.7364 L8.373,14.4984 L6.373,14.4984 L6.373,33.7364 Z M4,36.2344 L43.976,36.2344 L43.976,12.0004 L4,12.0004 L4,36.2344 Z M44.976,9.9994 L3,9.9994 C2.448,9.9994 2,10.4474 2,10.9994 L2,37.2344 C2,37.7864 2.448,38.2344 3,38.2344 L44.976,38.2344 C45.529,38.2344 45.976,37.7864 45.976,37.2344 L45.976,10.9994 C45.976,10.4474 45.529,9.9994 44.976,9.9994 L44.976,9.9994 Z" id="Amazon-Elastic-Container-Service-Container-3_Resource-Icon_light-bg" fill="#FF9900"></path>
    </g>
</svg>