<?xml version="1.0" encoding="UTF-8"?>
<svg width="48px" height="48px" viewBox="0 0 48 48" version="1.1" xmlns="http://www.w3.org/2000/svg" xmlns:xlink="http://www.w3.org/1999/xlink">
    <title>Icon-Resource/Networking-and-Content-Delivery/Res_AWS-Amazon-VPC_Internet-Gateway_48_Dark</title>
    <g id="Icon-Resource/Networking-and-Content-Delivery/Res_AWS-Amazon-VPC_Internet-Gateway_48" stroke="none" stroke-width="1" fill="none" fill-rule="evenodd">
        <path d="M33.4312,35.1778 L31.9332,35.1778 L31.9332,17.5018 C31.9332,17.1088 31.7022,16.7518 31.3442,16.5908 L31.2522,16.5488 C29.2432,15.6418 27.1642,14.7028 24.1762,14.7028 C21.0532,14.7028 18.7612,15.7118 16.4952,16.8368 C16.1552,17.0058 15.9402,17.3528 15.9402,17.7328 L15.9402,35.1778 L14.4772,35.1778 L14.4772,16.3118 C16.9112,14.3328 20.4202,13.2048 24.1862,13.2048 C27.6872,13.2048 31.0252,14.2018 33.4312,15.9528 L33.4312,35.1778 Z M24.1862,11.2048 C19.7612,11.2048 15.6172,12.6238 12.8152,15.0998 C12.6002,15.2888 12.4772,15.5618 12.4772,15.8488 L12.4772,36.1778 C12.4772,36.7308 12.9242,37.1778 13.4772,37.1778 L16.9402,37.1778 C17.4932,37.1778 17.9402,36.7308 17.9402,36.1778 L17.9402,18.3558 C19.8592,17.4288 21.7192,16.7028 24.1762,16.7028 C26.5112,16.7028 28.2092,17.3778 29.9332,18.1488 L29.9332,36.1778 C29.9332,36.7308 30.3802,37.1778 30.9332,37.1778 L34.4312,37.1778 C34.9842,37.1778 35.4312,36.7308 35.4312,36.1778 L35.4312,15.4578 C35.4312,15.1538 35.2922,14.8658 35.0532,14.6748 C32.2792,12.4698 28.3182,11.2048 24.1862,11.2048 L24.1862,11.2048 Z M23.9542,43.9088 C12.9522,43.9088 3.9992,34.9568 3.9992,23.9538 C3.9992,12.9508 12.9522,3.9998 23.9542,3.9998 C34.9572,3.9998 43.9092,12.9508 43.9092,23.9538 C43.9092,34.9568 34.9572,43.9088 23.9542,43.9088 L23.9542,43.9088 Z M23.9542,1.9998 C11.8482,1.9998 1.9992,11.8488 1.9992,23.9538 C1.9992,36.0608 11.8482,45.9088 23.9542,45.9088 C36.0602,45.9088 45.9092,36.0608 45.9092,23.9538 C45.9092,11.8488 36.0602,1.9998 23.9542,1.9998 L23.9542,1.9998 Z" id="AWS-Amazon-VPC_Internet-gateway_Resource-Icon_light-bg" fill="#A166FF"></path>
    </g>
</svg>