<?xml version="1.0" encoding="UTF-8"?>
<svg width="48px" height="48px" viewBox="0 0 48 48" version="1.1" xmlns="http://www.w3.org/2000/svg" xmlns:xlink="http://www.w3.org/1999/xlink">
    <title>Icon-Resource/Analytics/Res_Amazon-EMR_Cluster_48_Dark</title>
    <g id="Icon-Resource/Analytics/Res_Amazon-EMR_Cluster_48" stroke="none" stroke-width="1" fill="none" fill-rule="evenodd">
        <path d="M36.931,26.479 C36.443,26.545 36.061,26.946 36.061,27.453 L36.061,30.431 L33.733,29.655 L36.418,25.73 L36.931,26.479 Z M38.061,34.313 L43.921,34.313 L43.921,28.453 L38.061,28.453 L38.061,34.313 Z M33.694,39.452 L33.694,37.059 C33.694,36.506 33.246,36.059 32.694,36.059 L29.35,36.059 L32.558,31.371 L36.061,32.54 L36.061,35.313 C36.061,35.866 36.508,36.313 37.061,36.313 L37.895,36.313 C36.377,37.464 34.816,38.624 33.694,39.452 L33.694,39.452 Z M25.835,43.919 L31.694,43.919 L31.694,38.059 L25.835,38.059 L25.835,43.919 Z M4,29.946 L15.974,29.946 L15.974,17.972 L4,17.972 L4,29.946 Z M25.834,9.859 L31.693,9.859 L31.693,4 L25.834,4 L25.834,9.859 Z M37.896,11.606 L37.061,11.606 C36.508,11.606 36.061,12.053 36.061,12.606 L36.061,15.378 L32.558,16.547 L29.35,11.859 L32.694,11.859 C33.246,11.859 33.694,11.412 33.694,10.859 L33.694,8.467 C34.816,9.294 36.378,10.455 37.896,11.606 L37.896,11.606 Z M38.061,19.466 L43.921,19.466 L43.921,13.606 L38.061,13.606 L38.061,19.466 Z M33.732,18.263 L36.061,17.486 L36.061,20.466 C36.061,20.973 36.443,21.374 36.931,21.44 L36.418,22.189 L33.732,18.263 Z M17.974,24.4 L17.974,23.518 L31.759,18.92 L35.206,23.959 L31.759,28.998 L17.974,24.4 Z M24.243,11.643 C24.41,11.77 24.608,11.859 24.834,11.859 L26.927,11.859 L30.585,17.205 L17.974,21.41 L17.974,16.972 C17.974,16.901 17.948,16.838 17.934,16.772 L24.243,11.643 Z M24.834,36.059 C24.608,36.059 24.41,36.148 24.242,36.275 L17.934,31.146 C17.948,31.08 17.974,31.017 17.974,30.946 L17.974,26.507 L30.585,30.713 L26.927,36.059 L24.834,36.059 Z M39.335,21.466 L44.921,21.466 C45.474,21.466 45.921,21.019 45.921,20.466 L45.921,12.606 C45.921,12.053 45.474,11.606 44.921,11.606 L41.178,11.606 C38.557,9.558 34.9,6.869 33.694,5.985 L33.694,3 C33.694,2.447 33.246,2 32.694,2 L24.834,2 C24.282,2 23.834,2.447 23.834,3 L23.834,9.396 L15.745,15.972 L3,15.972 C2.448,15.972 2,16.419 2,16.972 L2,30.946 C2,31.499 2.448,31.946 3,31.946 L15.745,31.946 L23.834,38.523 L23.834,44.919 C23.834,45.472 24.282,45.919 24.834,45.919 L32.694,45.919 C33.246,45.919 33.694,45.472 33.694,44.919 L33.694,41.934 C34.9,41.049 38.556,38.36 41.178,36.313 L44.921,36.313 C45.474,36.313 45.921,35.866 45.921,35.313 L45.921,27.453 C45.921,26.9 45.474,26.453 44.921,26.453 L39.335,26.453 L37.629,23.959 L39.335,21.466 Z" id="Icon-Resource/48/Amazon-EMR_Cluster" fill="#A166FF"></path>
    </g>
</svg>