<?xml version="1.0" encoding="UTF-8"?>
<svg width="48px" height="48px" viewBox="0 0 48 48" version="1.1" xmlns="http://www.w3.org/2000/svg" xmlns:xlink="http://www.w3.org/1999/xlink">
    <title>Icon-Resource/Networking-Content-Delivery/Res_Amazon-Cloudfront_Functions_48_Dark</title>
    <g id="Icon-Resource/Networking-Content-Delivery/Res_Amazon-Cloudfront_Functions_48" stroke="none" stroke-width="1" fill="none" fill-rule="evenodd">
        <path d="M31.9,33.508 C31.014,33.508 30.294,32.787 30.294,31.901 C30.294,31.015 31.014,30.294 31.9,30.294 C32.787,30.294 33.507,31.015 33.507,31.901 C33.507,32.787 32.787,33.508 31.9,33.508 L31.9,33.508 Z M31.9,28.294 C29.912,28.294 28.294,29.912 28.294,31.901 C28.294,33.89 29.912,35.508 31.9,35.508 C33.889,35.508 35.507,33.89 35.507,31.901 C35.507,29.912 33.889,28.294 31.9,28.294 L31.9,28.294 Z M15.782,24.103 C14.896,24.103 14.175,23.382 14.175,22.496 C14.175,21.61 14.896,20.889 15.782,20.889 C16.669,20.889 17.389,21.61 17.389,22.496 C17.389,23.382 16.669,24.103 15.782,24.103 L15.782,24.103 Z M15.782,18.889 C13.794,18.889 12.175,20.507 12.175,22.496 C12.175,24.485 13.794,26.103 15.782,26.103 C17.771,26.103 19.389,24.485 19.389,22.496 C19.389,20.507 17.771,18.889 15.782,18.889 L15.782,18.889 Z M25.779,10.666 C26.666,10.666 27.386,11.387 27.386,12.273 C27.386,13.159 26.666,13.88 25.779,13.88 C24.893,13.88 24.172,13.159 24.172,12.273 C24.172,11.387 24.893,10.666 25.779,10.666 L25.779,10.666 Z M25.779,15.88 C27.768,15.88 29.386,14.262 29.386,12.273 C29.386,10.284 27.768,8.666 25.779,8.666 C23.791,8.666 22.172,10.284 22.172,12.273 C22.172,14.262 23.791,15.88 25.779,15.88 L25.779,15.88 Z M18.853,19.116 L17.175,18.027 C18.521,15.953 19.676,14.578 21.164,13.281 L22.478,14.788 C21.141,15.954 20.09,17.208 18.853,19.116 L18.853,19.116 Z M29.203,28.173 L27.822,29.62 C25.246,27.162 22.675,25.547 19.732,24.537 L20.38,22.645 C23.607,23.753 26.41,25.509 29.203,28.173 L29.203,28.173 Z M29.274,15.12 C31.754,18.902 33.149,23.052 33.422,27.458 L31.426,27.582 C31.175,23.528 29.888,19.704 27.602,16.217 L29.274,15.12 Z M44,27.115 L41.572,26.977 C41.109,26.945 40.647,27.278 40.54,27.756 C40.117,29.63 39.38,31.409 38.351,33.043 C38.09,33.456 38.167,33.997 38.531,34.322 L40.344,35.94 L35.94,40.345 L35.161,39.472 C35.693,37.536 34.752,35.589 34.706,35.498 L32.915,36.389 C32.921,36.402 33.341,37.282 33.336,38.24 C33.236,38.265 33.137,38.3 33.046,38.358 C32.529,38.685 31.992,38.971 31.445,39.238 C31.796,38.383 32.107,37.512 32.357,36.647 L30.437,36.09 C30.026,37.507 29.449,38.948 28.772,40.275 C28.435,40.373 28.098,40.473 27.754,40.55 C27.277,40.658 26.948,41.095 26.976,41.583 L27.115,44 L20.884,44 L21.023,41.581 C21.051,41.093 20.722,40.656 20.246,40.549 C18.969,40.26 17.743,39.815 16.571,39.242 C15.488,36.464 14.865,33.484 14.865,31.003 C14.865,29.894 15.059,28.968 15.284,27.897 L15.45,27.088 L13.487,26.701 L13.326,27.486 C13.088,28.618 12.865,29.687 12.865,31.003 C12.865,33.214 13.311,35.773 14.105,38.266 C13.946,38.32 13.795,38.401 13.675,38.534 L12.06,40.345 L7.655,35.94 L9.465,34.325 C9.83,34 9.906,33.459 9.645,33.046 C8.617,31.416 7.88,29.636 7.457,27.756 C7.349,27.278 6.884,26.945 6.424,26.977 L4,27.115 L4,20.885 L6.431,21.024 C6.884,21.048 7.354,20.723 7.463,20.246 C7.887,18.373 8.626,16.597 9.656,14.966 C9.917,14.552 9.84,14.011 9.476,13.686 L7.655,12.061 L12.06,7.655 L13.684,9.475 C14.009,9.84 14.552,9.915 14.963,9.655 C16.071,8.958 17.25,8.406 18.478,7.984 C19.428,8.482 20.712,9.213 21.865,10.088 L23.074,8.494 C22.348,7.943 21.581,7.45 20.861,7.023 C20.969,6.852 21.036,6.652 21.023,6.437 L20.884,4 L27.115,4 L26.976,6.439 C26.948,6.927 27.277,7.363 27.754,7.471 C28.562,7.654 29.348,7.906 30.117,8.204 C29.996,8.25 29.872,8.296 29.754,8.341 C29.478,8.447 29.207,8.55 28.946,8.645 L29.626,10.526 C29.898,10.427 30.18,10.32 30.468,10.21 C31.214,9.925 31.979,9.639 32.694,9.465 C32.806,9.531 32.922,9.589 33.033,9.659 C33.444,9.918 33.987,9.844 34.312,9.479 L35.939,7.655 L40.344,12.061 L38.527,13.682 C38.163,14.008 38.087,14.549 38.347,14.962 C39.377,16.593 40.114,18.37 40.538,20.246 C40.645,20.722 41.109,21.048 41.57,21.024 L44,20.885 L44,27.115 Z M45.686,19.099 C45.487,18.91 45.215,18.814 44.943,18.828 L42.283,18.98 C41.866,17.457 41.26,15.998 40.476,14.624 L42.466,12.848 C42.671,12.665 42.793,12.405 42.8,12.131 C42.808,11.856 42.702,11.59 42.507,11.395 L36.605,5.493 C36.411,5.298 36.144,5.194 35.87,5.2 C35.594,5.208 35.336,5.329 35.152,5.534 L33.371,7.53 C31.999,6.747 30.541,6.143 29.02,5.727 L29.171,3.057 C29.187,2.782 29.089,2.513 28.9,2.314 C28.712,2.113 28.449,2 28.173,2 L19.826,2 C19.55,2 19.288,2.113 19.099,2.314 C18.91,2.513 18.812,2.782 18.828,3.057 L18.979,5.724 C17.458,6.14 15.999,6.744 14.626,7.527 L12.847,5.534 C12.664,5.329 12.405,5.208 12.129,5.2 C11.861,5.196 11.588,5.298 11.394,5.493 L5.492,11.395 C5.297,11.59 5.191,11.856 5.199,12.131 C5.207,12.405 5.328,12.665 5.533,12.848 L7.527,14.627 C6.742,16.001 6.136,17.459 5.719,18.98 L3.056,18.828 C2.781,18.813 2.512,18.91 2.313,19.099 C2.113,19.288 2,19.551 2,19.826 L2,28.174 C2,28.449 2.113,28.712 2.313,28.901 C2.512,29.09 2.782,29.19 3.056,29.173 L5.712,29.021 C6.128,30.548 6.733,32.009 7.516,33.384 L5.533,35.153 C5.328,35.336 5.207,35.595 5.199,35.87 C5.191,36.145 5.297,36.411 5.492,36.606 L11.394,42.508 C11.588,42.703 11.859,42.816 12.129,42.8 C12.405,42.793 12.665,42.672 12.847,42.466 L14.617,40.484 C15.994,41.269 17.455,41.876 18.979,42.293 L18.828,44.943 C18.812,45.217 18.91,45.487 19.098,45.687 C19.288,45.887 19.55,46 19.826,46 L28.173,46 C28.449,46 28.712,45.887 28.901,45.687 C29.089,45.487 29.187,45.217 29.171,44.943 L29.02,42.296 C30.547,41.878 32.01,41.272 33.385,40.487 L35.152,42.466 C35.335,42.672 35.594,42.793 35.87,42.8 C36.147,42.819 36.411,42.703 36.605,42.508 L42.507,36.606 C42.702,36.411 42.808,36.145 42.8,35.87 C42.793,35.595 42.671,35.336 42.466,35.153 L40.48,33.381 C41.264,32.005 41.869,30.544 42.285,29.021 L44.943,29.173 C45.214,29.189 45.487,29.09 45.686,28.901 C45.886,28.712 46,28.449 46,28.174 L46,19.826 C46,19.551 45.886,19.288 45.686,19.099 L45.686,19.099 Z" id="Fill-1" fill="#A166FF"></path>
    </g>
</svg>