<?xml version="1.0" encoding="UTF-8"?>
<svg width="48px" height="48px" viewBox="0 0 48 48" version="1.1" xmlns="http://www.w3.org/2000/svg" xmlns:xlink="http://www.w3.org/1999/xlink">
    <title>Icon-Resource/Networking-and-Content-Delivery/Res_Amazon-Route-53_Routing-Controls_48_Dark</title>
    <g id="Icon-Resource/Networking-and-Content-Delivery/Res_Amazon-Route-53_Routing-Controls_48" stroke="none" stroke-width="1" fill="none" fill-rule="evenodd">
        <path d="M34.0547,39.446 C29.3917,40.284 25.4597,42.74 23.9917,43.752 C22.5247,42.74 18.5917,40.284 13.9287,39.446 C12.0487,39.108 6.7407,37.829 4.7607,34.011 L16.4637,34.011 C16.7157,36.255 18.6027,38.011 20.9127,38.011 C23.2237,38.011 25.1107,36.255 25.3627,34.011 L43.2227,34.011 C41.2427,37.829 35.9347,39.108 34.0547,39.446 L34.0547,39.446 Z M23.4127,33.511 C23.4127,34.89 22.2917,36.011 20.9127,36.011 C19.5337,36.011 18.4127,34.89 18.4127,33.511 C18.4127,32.133 19.5337,31.011 20.9127,31.011 C22.2917,31.011 23.4127,32.133 23.4127,33.511 L23.4127,33.511 Z M5.2787,26.011 L28.4637,26.011 C28.7157,28.255 30.6027,30.011 32.9127,30.011 C35.2237,30.011 37.1107,28.255 37.3627,26.011 L42.7047,26.011 C43.4267,27.385 43.9837,28.847 43.9837,30.82 C43.9837,31.237 43.9477,31.633 43.8847,32.011 L25.1367,32.011 C24.5157,30.269 22.8667,29.011 20.9127,29.011 C18.9597,29.011 17.3107,30.269 16.6897,32.011 L4.0987,32.011 C4.0357,31.633 3.9997,31.237 3.9997,30.82 C3.9997,28.847 4.5567,27.385 5.2787,26.011 L5.2787,26.011 Z M4.9407,11.199 C6.0947,9.796 8.6337,6.698 10.0267,4.916 C12.1477,6.849 14.5947,7.902 17.0187,7.902 C19.7187,7.902 21.9597,6.837 23.9917,4.569 C26.0237,6.837 28.2647,7.902 30.9647,7.902 C33.3887,7.902 35.8357,6.849 37.9567,4.916 C39.3497,6.698 41.8887,9.796 43.0427,11.199 C42.2107,12.071 40.8987,13.735 40.2617,16.011 L23.1367,16.011 C22.5157,14.269 20.8667,13.011 18.9127,13.011 C16.9597,13.011 15.3107,14.269 14.6897,16.011 L7.7217,16.011 C7.0847,13.735 5.7727,12.071 4.9407,11.199 L4.9407,11.199 Z M16.4127,17.511 C16.4127,16.133 17.5337,15.011 18.9127,15.011 C20.2917,15.011 21.4127,16.133 21.4127,17.511 C21.4127,18.89 20.2917,20.011 18.9127,20.011 C17.5337,20.011 16.4127,18.89 16.4127,17.511 L16.4127,17.511 Z M35.4127,25.511 C35.4127,26.89 34.2917,28.011 32.9127,28.011 C31.5337,28.011 30.4127,26.89 30.4127,25.511 C30.4127,24.133 31.5337,23.011 32.9127,23.011 C34.2917,23.011 35.4127,24.133 35.4127,25.511 L35.4127,25.511 Z M37.1367,24.011 C36.5157,22.269 34.8667,21.011 32.9127,21.011 C30.9597,21.011 29.3107,22.269 28.6897,24.011 L6.4097,24.011 C7.2867,22.471 8.0957,20.832 8.0957,18.68 C8.0957,18.449 8.0667,18.234 8.0507,18.011 L14.4637,18.011 C14.7157,20.255 16.6027,22.011 18.9127,22.011 C21.2237,22.011 23.1107,20.255 23.3627,18.011 L39.9327,18.011 C39.9167,18.234 39.8877,18.449 39.8877,18.68 C39.8877,20.832 40.6967,22.471 41.5737,24.011 L37.1367,24.011 Z M43.6467,23.603 C42.7027,21.977 41.8877,20.573 41.8877,18.68 C41.8877,14.682 45.0067,12.084 45.0357,12.06 C45.2427,11.892 45.3747,11.648 45.4027,11.383 C45.4287,11.117 45.3487,10.852 45.1787,10.646 C45.1267,10.584 40.0337,4.413 38.8707,2.818 C38.6967,2.577 38.4217,2.427 38.1237,2.409 C37.8427,2.388 37.5357,2.506 37.3327,2.724 C35.4157,4.773 33.1547,5.902 30.9647,5.902 C28.5487,5.902 26.6437,4.819 24.7857,2.392 C24.5967,2.145 24.3037,2 23.9917,2 C23.6807,2 23.3877,2.145 23.1987,2.392 C21.3397,4.819 19.4337,5.902 17.0187,5.902 C14.8287,5.902 12.5677,4.773 10.6507,2.724 C10.4467,2.506 10.1397,2.387 9.8597,2.409 C9.5617,2.427 9.2867,2.577 9.1127,2.818 C7.9497,4.413 2.8567,10.584 2.8047,10.646 C2.6357,10.851 2.5567,11.116 2.5817,11.381 C2.6087,11.645 2.7397,11.89 2.9457,12.058 C2.9767,12.084 6.0957,14.682 6.0957,18.68 C6.0957,20.573 5.2807,21.977 4.3367,23.603 C3.2417,25.49 1.9997,27.629 1.9997,30.82 C1.9997,36.152 6.3267,40.113 13.5757,41.415 C18.8887,42.369 23.3387,45.742 23.3837,45.777 C23.5627,45.914 23.7777,45.983 23.9917,45.983 C24.2067,45.983 24.4217,45.914 24.6007,45.777 C24.6457,45.742 29.0957,42.369 34.4087,41.415 C41.6567,40.113 45.9837,36.152 45.9837,30.82 C45.9837,27.629 44.7427,25.49 43.6467,23.603 L43.6467,23.603 Z" id="Fill-1" fill="#A166FF"></path>
    </g>
</svg>