<?xml version="1.0" encoding="UTF-8"?>
<svg width="48px" height="48px" viewBox="0 0 48 48" version="1.1" xmlns="http://www.w3.org/2000/svg" xmlns:xlink="http://www.w3.org/1999/xlink">
    <title>Icon-Resource/Storage/Res_Amazon-S3-Glacier_Vault_48_Dark</title>
    <g id="Icon-Resource/Storage/Res_Amazon-S3-Glacier_Vault_48" stroke="none" stroke-width="1" fill="none" fill-rule="evenodd">
        <path d="M26.3723,4 L34.2783,4 L38.4503,10.748 L26.3723,10.748 L26.3723,4 Z M25.3723,12.748 L40.2443,12.748 C40.6063,12.748 40.9413,12.552 41.1173,12.235 C41.2943,11.918 41.2853,11.53 41.0953,11.223 L35.6863,2.475 C35.5043,2.18 35.1833,2 34.8363,2 L25.3723,2 C24.8193,2 24.3723,2.447 24.3723,3 L24.3723,11.748 C24.3723,12.301 24.8193,12.748 25.3723,12.748 L25.3723,12.748 Z M20.8723,10.748 L8.7943,10.748 L12.9663,4 L20.8723,4 L20.8723,10.748 Z M21.8723,2 L12.4083,2 C12.0613,2 11.7403,2.18 11.5583,2.475 L6.1493,11.223 C5.9593,11.53 5.9503,11.918 6.1273,12.235 C6.3033,12.552 6.6383,12.748 7.0003,12.748 L21.8723,12.748 C22.4253,12.748 22.8723,12.301 22.8723,11.748 L22.8723,3 C22.8723,2.447 22.4253,2 21.8723,2 L21.8723,2 Z M26.3723,43.992 L39.2443,43.992 L39.2443,16.248 L26.3723,16.248 L26.3723,43.992 Z M40.2443,14.248 L25.3723,14.248 C24.8193,14.248 24.3723,14.695 24.3723,15.248 L24.3723,44.992 C24.3723,45.545 24.8193,45.992 25.3723,45.992 L40.2443,45.992 C40.7973,45.992 41.2443,45.545 41.2443,44.992 L41.2443,15.248 C41.2443,14.695 40.7973,14.248 40.2443,14.248 L40.2443,14.248 Z M8.0003,43.992 L20.8723,43.992 L20.8723,16.248 L8.0003,16.248 L8.0003,43.992 Z M21.8723,14.248 L7.0003,14.248 C6.4473,14.248 6.0003,14.695 6.0003,15.248 L6.0003,44.992 C6.0003,45.545 6.4473,45.992 7.0003,45.992 L21.8723,45.992 C22.4253,45.992 22.8723,45.545 22.8723,44.992 L22.8723,15.248 C22.8723,14.695 22.4253,14.248 21.8723,14.248 L21.8723,14.248 Z" id="AWS-Amazon-S3-Glacier_Vault_Resource-Icon_light-bg" fill="#6CAE3E"></path>
    </g>
</svg>