<?xml version="1.0" encoding="UTF-8"?>
<svg width="48px" height="48px" viewBox="0 0 48 48" version="1.1" xmlns="http://www.w3.org/2000/svg" xmlns:xlink="http://www.w3.org/1999/xlink">
    <title>Icon-Resource/Management-Governance/Res_Amazon-CloudWatch_Metrics-Insights_48_Dark</title>
    <g id="Icon-Resource/Management-Governance/Res_Amazon-CloudWatch_Metrics-Insights_48" stroke="none" stroke-width="1" fill="none" fill-rule="evenodd">
        <path d="M19.0117,34.688 L19.0027,27.92 C18.0477,28.271 16.8087,28.478 15.3427,28.478 C14.0667,28.478 12.3017,28.306 10.9847,27.8 L10.9997,34.75 C11.0497,34.806 11.5317,35.196 12.8957,35.427 C13.2477,35.487 13.6227,35.532 14.0157,35.56 C14.1737,35.572 14.3357,35.58 14.4997,35.586 C14.8297,35.598 15.1697,35.598 15.4997,35.586 C15.6637,35.58 15.8257,35.572 15.9847,35.56 C16.3767,35.532 16.7517,35.487 17.1037,35.427 C18.4687,35.196 18.9497,34.806 19.0117,34.688 L19.0117,34.688 Z M14.9997,25.015 C12.9807,25.015 11.7797,25.426 11.2657,25.726 C11.7667,26.02 13.1987,26.478 15.3427,26.478 C17.4477,26.478 18.5107,26.027 18.8897,25.774 C18.5227,25.54 17.2797,25.015 14.9997,25.015 L14.9997,25.015 Z M14.9997,23.015 C17.9867,23.015 20.9997,23.894 20.9997,25.859 L20.9997,34.75 C20.9997,35.514 20.5367,36.874 17.4387,37.399 C17.0277,37.469 16.5877,37.522 16.1277,37.555 C15.9457,37.568 15.7597,37.578 15.5727,37.585 C15.3837,37.592 15.1927,37.595 14.9997,37.595 C14.8077,37.595 14.6157,37.592 14.4277,37.585 C14.2407,37.578 14.0547,37.568 13.8717,37.555 C13.4117,37.522 12.9727,37.469 12.5607,37.399 C9.4627,36.874 8.9997,35.514 8.9997,34.75 L8.9997,25.859 C8.9997,23.894 12.0137,23.015 14.9997,23.015 L14.9997,23.015 Z M39.9997,5.5 C39.9997,6.327 40.6727,7 41.4997,7 C42.3267,7 42.9997,6.327 42.9997,5.5 C42.9997,4.673 42.3267,4 41.4997,4 C40.6727,4 39.9997,4.673 39.9997,5.5 L39.9997,5.5 Z M29.9997,22.5 C29.9997,21.673 29.3267,21 28.4997,21 C27.6727,21 26.9997,21.673 26.9997,22.5 C26.9997,23.327 27.6727,24 28.4997,24 C29.3267,24 29.9997,23.327 29.9997,22.5 L29.9997,22.5 Z M16.4997,12 C17.3267,12 17.9997,11.327 17.9997,10.5 C17.9997,9.673 17.3267,9 16.4997,9 C15.6727,9 14.9997,9.673 14.9997,10.5 C14.9997,11.327 15.6727,12 16.4997,12 L16.4997,12 Z M37.9997,5.5 C37.9997,3.57 39.5707,2 41.4997,2 C43.4297,2 44.9997,3.57 44.9997,5.5 C44.9997,7.43 43.4297,9 41.4997,9 C41.2757,9 41.0577,8.974 40.8457,8.934 L31.7107,21.114 C31.8957,21.539 31.9997,22.007 31.9997,22.5 C31.9997,24.43 30.4297,26 28.4997,26 C26.5707,26 24.9997,24.43 24.9997,22.5 C24.9997,21.962 25.1317,21.458 25.3507,21.002 L17.9987,13.65 C17.5427,13.868 17.0377,14 16.4997,14 C14.5707,14 12.9997,12.43 12.9997,10.5 C12.9997,8.57 14.5707,7 16.4997,7 C18.4297,7 19.9997,8.57 19.9997,10.5 C19.9997,11.163 19.8047,11.777 19.4827,12.306 L26.6937,19.517 C27.2227,19.196 27.8367,19 28.4997,19 C29.1927,19 29.8347,19.208 30.3787,19.557 L39.0507,7.994 C38.4037,7.358 37.9997,6.476 37.9997,5.5 L37.9997,5.5 Z M21.9997,44 L23.9997,44 L23.9997,41 L21.9997,41 L21.9997,44 Z M43.0637,39 L43.0497,33 L22.9997,33 L22.9997,31 L43.0447,31 L42.9997,12 L44.9997,12 L44.9997,39.063 C44.9997,40.131 44.1307,41 43.0637,41 L25.9997,41 L25.9997,44 L33.9997,44 L33.9997,46 L24.9997,46 L20.9997,46 L12.9997,46 L12.9997,44 L19.9997,44 L19.9997,41 L3.9517,41 C2.8757,41 1.9997,40.125 1.9997,39.048 L1.9997,33 L1.9997,31 L1.9997,27 L3.9997,27 L3.9997,31 L6.9997,31 L6.9997,33 L3.9997,33 L3.9997,39.048 L43.0637,39 Z M3.9997,18 L1.9997,18 L1.9997,10.937 C1.9997,9.869 2.8687,9 3.9367,9 L8.2647,9 C9.0947,5.178 12.5007,2.305 16.5677,2.305 C20.6347,2.305 24.0397,5.178 24.8697,9 L33.9997,9 L33.9997,11 L25.0597,11 C25.0397,11.886 24.8887,12.757 24.6017,13.588 L22.7107,12.934 C22.9477,12.251 23.0677,11.535 23.0677,10.805 C23.0677,7.221 20.1517,4.305 16.5677,4.305 C12.9837,4.305 10.0677,7.221 10.0677,10.805 C10.0677,14.389 12.9837,17.305 16.5677,17.305 C17.3277,17.305 18.0727,17.175 18.7807,16.919 L19.4597,18.8 C18.5327,19.135 17.5607,19.305 16.5677,19.305 C14.2377,19.305 12.1247,18.361 10.5877,16.838 L3.7507,24.081 L2.2957,22.708 L9.3357,15.25 C8.5687,14.007 8.1127,12.556 8.0777,11 L3.9367,11 L3.9997,18 Z" id="Fill-1" fill="#FF4F8B"></path>
    </g>
</svg>