<?xml version="1.0" encoding="UTF-8"?>
<svg width="48px" height="48px" viewBox="0 0 48 48" version="1.1" xmlns="http://www.w3.org/2000/svg" xmlns:xlink="http://www.w3.org/1999/xlink">
    <title>Icon-Resource/Analytics/Res_AWS-Glue_Crawler_48_Dark</title>
    <g id="Icon-Resource/Analytics/Res_AWS-Glue_Crawler_48" stroke="none" stroke-width="1" fill="none" fill-rule="evenodd">
        <path d="M34,44 C32.269,44 30.712,42.889 29.615,41.125 L34,38.202 L38.384,41.125 C37.288,42.889 35.73,44 34,44 L34,44 Z M33,28.071 L33,36.465 L28.734,39.31 C28.267,38.028 28,36.561 28,35 C28,30.959 29.81,28.49 33,28.071 L33,28.071 Z M34,24 C34.901,24 35.678,24.955 35.917,26.21 C35.283,26.072 34.639,26 34,26 C33.361,26 32.716,26.072 32.083,26.21 C32.322,24.955 33.099,24 34,24 L34,24 Z M40,35 C40,36.561 39.733,38.028 39.266,39.31 L35,36.465 L35,28.071 C38.19,28.49 40,30.959 40,35 L40,35 Z M46,30 L44,30 C44,31.916 42.85,32.976 41.917,33.523 C41.735,31.78 41.238,30.382 40.521,29.293 C41.597,28.517 43,26.942 43,24 L41,24 C41,26.283 39.864,27.347 39.18,27.785 C38.808,27.472 38.413,27.202 37.998,26.977 C37.994,25.965 37.748,25.024 37.329,24.238 C37.832,23.759 38.422,22.989 38.749,21.852 C39.48,21.555 40,20.838 40,20 C40,18.898 39.103,18 38,18 C36.897,18 36,18.898 36,20 C36,20.624 36.293,21.175 36.742,21.542 C36.545,22.083 36.271,22.469 36.03,22.717 C35.434,22.272 34.744,22 34,22 C33.256,22 32.566,22.272 31.969,22.717 C31.729,22.469 31.454,22.083 31.258,21.542 C31.707,21.175 32,20.624 32,20 C32,18.898 31.103,18 30,18 C28.897,18 28,18.898 28,20 C28,20.838 28.519,21.555 29.251,21.852 C29.578,22.989 30.168,23.759 30.67,24.238 C30.252,25.024 30.006,25.965 30.002,26.977 C29.585,27.203 29.188,27.475 28.814,27.791 C28.133,27.353 27,26.282 27,24 L25,24 C25,26.942 26.402,28.517 27.478,29.293 C26.762,30.382 26.264,31.78 26.083,33.523 C25.15,32.976 24,31.916 24,30 L22,30 C22,33.274 24.332,35.044 26.026,35.728 C26.083,36.904 26.271,38.03 26.576,39.078 C25.49,39.373 22,40.517 22,43 L24,43 C24,42.221 25.918,41.305 27.243,40.971 L27.182,40.726 C28.589,43.883 31.115,46 34,46 C36.885,46 39.41,43.883 40.818,40.726 L40.757,40.971 C42.082,41.305 44,42.221 44,43 L46,43 C46,40.517 42.51,39.373 41.424,39.078 C41.729,38.03 41.917,36.904 41.973,35.728 C43.667,35.044 46,33.274 46,30 L46,30 Z M17,15 L44,15 L44,10 L17,10 L17,15 Z M9,23 L15,23 L15,17 L9,17 L9,23 Z M9,30 L15,30 L15,25 L9,25 L9,30 Z M4,30 L7,30 L7,10 L4,10 L4,30 Z M4,8 L7,8 L7,4 L4,4 L4,8 Z M9,15 L15,15 L15,10 L9,10 L9,15 Z M9,8 L44,8 L44,4 L9,4 L9,8 Z M45,2 L3,2 C2.447,2 2,2.447 2,3 L2,31 C2,31.553 2.447,32 3,32 L20,32 L20,30 L17,30 L17,25 L22,25 L22,23 L17,23 L17,17 L44,17 L44,21 L46,21 L46,3 C46,2.447 45.553,2 45,2 L45,2 Z" id="Icon-Resource/48/AWS-Glue_Crawler" fill="#A166FF"></path>
    </g>
</svg>