<?xml version="1.0" encoding="UTF-8"?>
<svg width="48px" height="48px" viewBox="0 0 48 48" version="1.1" xmlns="http://www.w3.org/2000/svg" xmlns:xlink="http://www.w3.org/1999/xlink">
    <title>Icon-Resource/Front-end-Web-Mobile/Res_Amazon-Location-Service_Map _48_Dark</title>
    <g id="Icon-Resource/Front-end-Web-Mobile/Res_Amazon-Location-Service_Map-_48" stroke="none" stroke-width="1" fill="none" fill-rule="evenodd">
        <path d="M42.2059363,24.7523015 L32.1979363,22.2503015 L34.8669363,4.4583015 L43.9999363,8.6103015 L42.2059363,24.7523015 Z M33.9949363,41.1993015 L32.2189363,24.3163015 L42.1529363,26.8003015 L43.9299363,43.6833015 L33.9949363,41.1993015 Z M6.90593629,24.1393015 L17.9839363,25.8443015 L16.1899363,43.7883015 L4.20993629,41.2203015 L6.90593629,24.1393015 Z M4.22093629,4.3833015 L17.1159363,7.7813015 L18.0069363,23.8243015 L6.95093629,22.1233015 L4.22093629,4.3833015 Z M30.1919363,22.1333015 L20.0109363,23.8303015 L19.1179363,7.7693015 L32.8619363,4.3333015 L30.1919363,22.1333015 Z M19.9929363,25.8603015 L30.1909363,24.1603015 L31.9829363,41.1873015 L18.2019363,43.7713015 L19.9929363,25.8603015 Z M46.0679363,8.1103015 C46.1159363,7.6803015 45.8819363,7.2683015 45.4879363,7.0893015 L34.4879363,2.0893015 C34.2819363,1.9963015 34.0499363,1.9753015 33.8319363,2.0293015 L18.0809363,5.9673015 L3.25493629,2.0613015 C2.93093629,1.9743015 2.58093629,2.0593015 2.33093629,2.2853015 C2.07993629,2.5103015 1.95993629,2.8473015 2.01193629,3.1803015 L5.06193629,22.9983015 L2.08693629,41.8443015 C2.00393629,42.3683015 2.34593629,42.8663015 2.86393629,42.9783015 L16.8639363,45.9783015 C16.9929363,46.0053015 17.1259363,46.0063015 17.2589363,45.9823015 L33.0439363,43.0233015 L44.8319363,45.9703015 C44.9119363,45.9903015 44.9929363,46.0003015 45.0739363,46.0003015 C45.3119363,46.0003015 45.5459363,45.9143015 45.7299363,45.7543015 C45.9769363,45.5413015 46.1019363,45.2193015 46.0679363,44.8953015 L44.0799363,26.0023015 L46.0679363,8.1103015 Z" id="Fill-1" fill="#FF5252"></path>
    </g>
</svg>