<?xml version="1.0" encoding="UTF-8"?>
<svg width="48px" height="48px" viewBox="0 0 48 48" version="1.1" xmlns="http://www.w3.org/2000/svg" xmlns:xlink="http://www.w3.org/1999/xlink">
    <title>Icon-Resource/Storage/Res_Amazon-Elastic-Block-Store_Multiple-Volumes_48_Dark</title>
    <g id="Icon-Resource/Storage/Res_Amazon-Elastic-Block-Store_Multiple-Volumes_48" stroke="none" stroke-width="1" fill="none" fill-rule="evenodd">
        <path d="M7.917,7 L2,14.836 L30.607,14.699 L25.475,7 L7.917,7 Z M8.912,9.001 L24.405,9.001 L26.883,12.716 L6.032,12.817 L8.912,9.001 Z M29.17,9.736 L29.17,11.736 L33.143,11.736 L35.198,14.456 L31.596,14.441 L31.589,16.441 L39.227,16.473 L34.139,9.736 L29.17,9.736 Z M38.275,12.515 L38.275,14.515 L41.222,14.515 L42.458,16.151 L40.146,16.141 L40.139,18.141 L46.487,18.166 L46.487,18.165 L42.219,12.515 L38.275,12.515 Z M2.379,41.101 L30.281,41.101 L30.281,15.6 L2.379,15.6 L2.379,41.101 Z M4.38,39.101 L28.281,39.101 L28.281,17.6 L4.38,17.6 L4.38,39.101 Z M31.646,17.213 L31.646,19.213 L36.918,19.213 L36.918,36.709 L31.646,36.709 L31.646,38.71 L38.918,38.71 L38.918,17.213 L31.646,17.213 Z M40.235,18.948 L40.235,20.949 L44.197,20.949 L44.197,34.375 L40.235,34.375 L40.235,36.375 L46.197,36.375 L46.197,18.948 L40.235,18.948 Z" id="AWS-Amazon-Elastic-Block-Store_Multiple-Volumes_Resource-Icon_light-bg" fill="#6CAE3E"></path>
    </g>
</svg>