<?xml version="1.0" encoding="UTF-8"?>
<svg width="48px" height="48px" viewBox="0 0 48 48" version="1.1" xmlns="http://www.w3.org/2000/svg" xmlns:xlink="http://www.w3.org/1999/xlink">
    <title>Icon-Resource/Storage/Res_AWS-Backup_Backup-Restore_48_Dark</title>
    <g id="Icon-Resource/Storage/Res_AWS-Backup_Backup-Restore_48" stroke="none" stroke-width="1" fill="none" fill-rule="evenodd">
        <path d="M15.969,30.995794 L13.969,30.995794 L13.969,33.995794 C13.969,34.547794 14.416,34.995794 14.969,34.995794 L25.969,34.995794 L25.969,32.995794 L15.969,32.995794 L15.969,30.995794 Z M37.969,33.234794 L37.969,32.473794 C36.463,32.940794 34.585,33.012794 33.587,33.012794 C32.558,33.012794 30.519,32.925794 28.969,32.382794 L28.97,33.261794 C29.01,33.347794 29.508,33.827794 31.137,34.104794 C31.527,34.170794 31.943,34.219794 32.377,34.250794 C32.554,34.264794 32.733,34.273794 32.913,34.279794 C33.279,34.292794 33.657,34.292794 34.021,34.279794 C34.202,34.273794 34.38,34.264794 34.556,34.250794 C34.992,34.219794 35.407,34.170794 35.798,34.104794 C37.427,33.827794 37.925,33.347794 37.969,33.234794 L37.969,33.234794 Z M33.451,22.451794 C31.033,22.451794 29.694,22.968794 29.183,23.318794 C29.88,23.713794 31.441,24.093794 33.572,24.093794 C35.721,24.093794 37.158,23.718794 37.848,23.374794 C37.467,23.072794 36.094,22.451794 33.451,22.451794 L33.451,22.451794 Z M28.97,30.183794 C29.327,30.477794 30.804,31.011794 33.59,31.011794 C35.969,31.011794 37.377,30.630794 37.969,30.334794 L37.968,28.986794 C36.372,29.494794 34.383,29.553794 33.59,29.553794 C32.775,29.553794 30.607,29.490794 28.969,28.905794 L28.97,30.183794 Z M28.969,25.396794 L28.97,26.683794 C29.317,26.988794 30.795,27.552794 33.592,27.552794 C35.991,27.552794 37.388,27.137794 37.969,26.839794 L37.968,25.491794 C36.825,25.877794 35.307,26.094794 33.592,26.094794 C31.758,26.094794 30.14,25.839794 28.969,25.396794 L28.969,25.396794 Z M39.969,23.480794 L39.969,27.687794 L39.974,27.690794 C39.973,27.693794 39.97,27.695794 39.969,27.697794 L39.969,31.196794 L39.971,31.197794 C39.97,31.198794 39.97,31.199794 39.969,31.200794 L39.969,33.260794 C39.969,34.068794 39.471,35.509794 36.135,36.076794 C35.679,36.153794 35.197,36.210794 34.701,36.246794 C34.503,36.260794 34.3,36.271794 34.093,36.279794 C33.888,36.286794 33.68,36.290794 33.469,36.290794 C33.258,36.290794 33.05,36.286794 32.844,36.279794 C32.638,36.271794 32.434,36.260794 32.235,36.246794 C31.74,36.210794 31.258,36.153794 30.803,36.076794 C27.467,35.509794 26.969,34.069794 26.969,33.260794 L26.969,23.480794 C26.969,21.388794 30.234,20.451794 33.469,20.451794 C36.704,20.451794 39.969,21.388794 39.969,23.480794 L39.969,23.480794 Z M32.969,14.995794 L21.969,14.995794 L21.969,16.995794 L31.969,16.995794 L31.969,18.995794 L33.969,18.995794 L33.969,15.995794 C33.969,15.443794 33.522,14.995794 32.969,14.995794 L32.969,14.995794 Z M18.969,27.075794 L18.969,26.274794 C17.445,26.775794 15.494,26.853794 14.47,26.853794 C13.466,26.853794 11.503,26.769794 9.969,26.263794 L9.97,27.102794 C10.01,27.188794 10.508,27.668794 12.137,27.945794 C12.527,28.011794 12.943,28.061794 13.377,28.092794 C13.554,28.105794 13.733,28.114794 13.913,28.120794 C14.279,28.133794 14.657,28.133794 15.021,28.120794 C15.202,28.114794 15.38,28.105794 15.556,28.092794 C15.992,28.061794 16.407,28.011794 16.798,27.945794 C18.427,27.668794 18.925,27.188794 18.969,27.075794 L18.969,27.075794 Z M14.451,16.292794 C11.946,16.292794 10.594,16.848794 10.129,17.197794 C10.858,17.578794 12.391,17.934794 14.454,17.934794 C16.673,17.934794 18.138,17.535794 18.798,17.182794 C18.366,16.870794 17.007,16.292794 14.451,16.292794 L14.451,16.292794 Z M18.968,19.287794 C17.812,19.701794 16.252,19.935794 14.475,19.935794 C12.7,19.935794 11.13,19.696794 9.969,19.280794 L9.97,20.613794 C10.478,20.927794 11.937,21.392794 14.475,21.392794 C17.052,21.392794 18.475,20.914794 18.969,20.616794 L18.968,19.287794 Z M9.97,24.107794 C10.482,24.408794 11.937,24.852794 14.473,24.852794 C17.02,24.852794 18.46,24.415794 18.969,24.114794 L18.968,22.788794 C17.354,23.332794 15.285,23.394794 14.473,23.394794 C13.677,23.394794 11.591,23.336794 9.969,22.789794 L9.97,24.107794 Z M20.969,17.322794 L20.969,27.101794 C20.969,27.910794 20.471,29.350794 17.135,29.916794 C16.676,29.995794 16.194,30.052794 15.701,30.087794 C15.503,30.101794 15.3,30.113794 15.093,30.120794 C14.888,30.127794 14.68,30.131794 14.469,30.131794 C14.258,30.131794 14.05,30.127794 13.844,30.120794 C13.638,30.113794 13.434,30.101794 13.235,30.087794 C12.743,30.052794 12.262,29.995794 11.803,29.916794 C8.467,29.351794 7.969,27.910794 7.969,27.101794 L7.969,17.322794 C7.969,15.229794 11.234,14.292794 14.469,14.292794 C17.704,14.292794 20.969,15.229794 20.969,17.322794 L20.969,17.322794 Z M37.68,41.020794 C36.37,42.089794 34.92,42.988794 33.378,43.683794 C30.297,45.071794 27.084,45.740794 23.94,45.740794 C19.24,45.740794 14.684,44.245794 10.848,41.400794 C5.274,37.266794 2.048,30.922794 2,23.995794 L4.114,23.981794 C4.157,30.270794 7.071,36.029794 12.105,39.782794 C16.358,42.951794 21.589,44.271794 26.837,43.509794 C33.404,42.552794 39.011,38.465794 41.989,32.249794 C43.063,30.006794 43.684,27.553794 43.808,25.069794 C44.152,18.179794 41.161,11.911794 35.837,7.94179404 C27.779,1.93579404 16.626,2.99379404 9.787,9.99579404 L11.969,9.99579404 L11.969,11.995794 L7.974,11.995794 C7.97,12.000794 7.966,12.004794 7.962,12.009794 L7.944,11.995794 L6.969,11.995794 C6.416,11.995794 5.969,11.547794 5.969,10.995794 L5.969,5.99579404 L7.969,5.99579404 L7.969,8.89179404 C16.6,-0.261205957 31.822,-0.611205957 40.798,9.73479404 C42.464,11.655794 43.772,13.880794 44.63,16.274794 C47.855,25.270794 45.189,34.893794 37.68,41.020794 L37.68,41.020794 Z" id="Fill-1" fill="#6CAE3E"></path>
    </g>
</svg>