<?xml version="1.0" encoding="UTF-8"?>
<svg width="48px" height="48px" viewBox="0 0 48 48" version="1.1" xmlns="http://www.w3.org/2000/svg" xmlns:xlink="http://www.w3.org/1999/xlink">
    <title>Icon-Resource/Storage/Res_AWS-Backup_Database_48_Dark</title>
    <g id="Icon-Resource/Storage/Res_AWS-Backup_Database_48" stroke="none" stroke-width="1" fill="none" fill-rule="evenodd">
        <path d="M24,20.7676 C20.278,20.7676 18,19.4726 18,18.7676 L18,18.6636 C18,18.1056 19.727,16.7676 24,16.7676 C28.273,16.7676 30,18.1056 30,18.6636 L30,18.7676 C30,19.4726 27.722,20.7676 24,20.7676 L24,20.7676 Z M24.008,33.7616 L23.992,33.7616 C21.099,33.7406 18,33.0276 18,31.9996 L18,21.4996 C19.541,22.3376 21.778,22.7676 24,22.7676 C26.222,22.7676 28.459,22.3376 30,21.4996 L30,31.9996 C30,33.0276 26.901,33.7406 24.008,33.7616 L24.008,33.7616 Z M24,14.7676 C19.215,14.7676 16,16.3336 16,18.6636 L16,31.9996 C16,35.4366 22.106,35.7476 23.987,35.7616 L23.998,35.7616 L24.022,35.7616 C25.894,35.7476 32,35.4366 32,31.9996 L32,18.6636 C32,16.3336 28.785,14.7676 24,14.7676 L24,14.7676 Z M42,20.9996 C40.897,20.9996 40,20.1026 40,18.9996 C40,17.8966 40.897,16.9996 42,16.9996 C43.103,16.9996 44,17.8966 44,18.9996 C44,20.1026 43.103,20.9996 42,20.9996 L42,20.9996 Z M34.296,37.0296 C34.196,37.0226 34.101,36.9996 34,36.9996 C32.141,36.9996 30.589,38.2796 30.142,39.9996 L17.858,39.9996 C17.411,38.2796 15.859,36.9996 14,36.9996 C13.899,36.9996 13.804,37.0226 13.704,37.0296 L8.195,22.3376 C9.28,21.6216 10,20.3946 10,18.9996 C10,18.5106 9.899,18.0466 9.738,17.6136 L21.812,9.3416 C22.442,9.7556 23.192,9.9996 24,9.9996 C24.808,9.9996 25.558,9.7556 26.188,9.3416 L38.262,17.6136 C38.101,18.0466 38,18.5106 38,18.9996 C38,20.3946 38.72,21.6216 39.805,22.3376 L34.296,37.0296 Z M34,42.9996 C32.897,42.9996 32,42.1026 32,40.9996 C32,39.8966 32.897,38.9996 34,38.9996 C35.103,38.9996 36,39.8966 36,40.9996 C36,42.1026 35.103,42.9996 34,42.9996 L34,42.9996 Z M14,42.9996 C12.897,42.9996 12,42.1026 12,40.9996 C12,39.8966 12.897,38.9996 14,38.9996 C15.103,38.9996 16,39.8966 16,40.9996 C16,42.1026 15.103,42.9996 14,42.9996 L14,42.9996 Z M4,18.9996 C4,17.8966 4.897,16.9996 6,16.9996 C7.103,16.9996 8,17.8966 8,18.9996 C8,20.1026 7.103,20.9996 6,20.9996 C4.897,20.9996 4,20.1026 4,18.9996 L4,18.9996 Z M24,3.9996 C25.103,3.9996 26,4.8966 26,5.9996 C26,7.1026 25.103,7.9996 24,7.9996 C22.897,7.9996 22,7.1026 22,5.9996 C22,4.8966 22.897,3.9996 24,3.9996 L24,3.9996 Z M42,14.9996 C41.008,14.9996 40.111,15.3756 39.412,15.9756 L27.532,7.8376 C27.821,7.2846 28,6.6656 28,5.9996 C28,3.7946 26.206,1.9996 24,1.9996 C21.794,1.9996 20,3.7946 20,5.9996 C20,6.6656 20.179,7.2846 20.468,7.8376 L8.588,15.9756 C7.889,15.3756 6.992,14.9996 6,14.9996 C3.794,14.9996 2,16.7946 2,18.9996 C2,21.2056 3.794,22.9996 6,22.9996 C6.101,22.9996 6.196,22.9776 6.296,22.9706 L11.805,37.6626 C10.72,38.3786 10,39.6056 10,40.9996 C10,43.2056 11.794,44.9996 14,44.9996 C15.859,44.9996 17.411,43.7206 17.858,41.9996 L30.142,41.9996 C30.589,43.7206 32.141,44.9996 34,44.9996 C36.206,44.9996 38,43.2056 38,40.9996 C38,39.6056 37.28,38.3786 36.195,37.6626 L41.704,22.9706 C41.804,22.9776 41.899,22.9996 42,22.9996 C44.206,22.9996 46,21.2056 46,18.9996 C46,16.7946 44.206,14.9996 42,14.9996 L42,14.9996 Z" id="Fill-1" fill="#6CAE3E"></path>
    </g>
</svg>