<?xml version="1.0" encoding="UTF-8"?>
<svg width="48px" height="48px" viewBox="0 0 48 48" version="1.1" xmlns="http://www.w3.org/2000/svg" xmlns:xlink="http://www.w3.org/1999/xlink">
    <title>Icon-Resource/Security-Identity-and-Compliance/Res_AWS-WAF_Managed-Rule_48_Dark</title>
    <g id="Icon-Resource/Security-Identity-and-Compliance/Res_AWS-WAF_Managed-Rule_48" stroke="none" stroke-width="1" fill="none" fill-rule="evenodd">
        <path d="M13,10.0615 C14.72,10.0615 16.118,11.4605 16.118,13.1795 C16.118,14.8985 14.72,16.2975 13,16.2975 C11.28,16.2975 9.882,14.8985 9.882,13.1795 C9.882,11.4605 11.28,10.0615 13,10.0615 L13,10.0615 Z M13,18.2975 C15.822,18.2975 18.118,16.0015 18.118,13.1795 C18.118,10.3575 15.822,8.0615 13,8.0615 C10.178,8.0615 7.882,10.3575 7.882,13.1795 C7.882,16.0015 10.178,18.2975 13,18.2975 L13,18.2975 Z M4.18,11.9625 L6.064,11.9625 L6.262,11.2185 C6.419,10.6255 6.667,10.1755 6.976,9.6485 L7.366,8.9815 L6.032,7.6525 L7.52,6.1715 L8.312,6.9595 L8.938,7.4525 L9.602,7.0675 C10.144,6.7535 10.501,6.5455 11.037,6.4045 L11.782,6.2075 L11.782,4.3595 L14.218,4.3595 L14.218,6.2355 L14.959,6.4345 C15.482,6.5745 15.833,6.7815 16.446,7.1435 L17.118,7.5405 L18.426,6.2135 L19.878,7.6855 L18.565,9.0165 L18.943,9.6755 C19.296,10.2895 19.502,10.6635 19.646,11.2145 L19.841,11.9625 L21.82,11.9625 L21.82,14.3965 L19.934,14.3965 L19.736,15.1405 C19.59,15.6945 19.369,16.0845 19.023,16.6755 L18.631,17.3445 L19.965,18.6705 L18.478,20.1495 L17.142,18.8215 L16.376,19.2645 C15.844,19.5735 15.492,19.7775 14.964,19.9155 L14.218,20.1125 L14.218,21.9995 L11.782,21.9995 L11.782,20.1155 L11.039,19.9175 C10.46,19.7635 10.028,19.5245 9.482,19.2045 L8.813,18.8125 L7.489,20.1455 L6.014,18.6595 L6.801,17.8675 L7.292,17.2415 L6.908,16.5795 C6.595,16.0375 6.388,15.6785 6.246,15.1425 L6.051,14.3965 L4.18,14.3965 L4.18,11.9625 Z M3.589,16.3965 L4.562,16.3965 C4.648,16.6035 4.744,16.7985 4.849,16.9945 L4.181,17.6675 C3.639,18.2145 3.639,19.1045 4.181,19.6525 L6.49,21.9775 C7.023,22.5135 7.955,22.5145 8.488,21.9775 L9.151,21.3105 C9.354,21.4155 9.561,21.5135 9.782,21.6035 L9.782,22.5905 C9.782,23.3675 10.414,23.9995 11.191,23.9995 L14.809,23.9995 C15.586,23.9995 16.218,23.3675 16.218,22.5905 L16.218,21.5995 C16.428,21.5125 16.622,21.4165 16.813,21.3145 L17.484,21.9835 C18.035,22.5275 18.926,22.5275 19.471,21.9825 L21.796,19.6715 C22.064,19.4045 22.213,19.0495 22.213,18.6705 C22.213,18.2925 22.064,17.9365 21.797,17.6715 L21.132,17.0105 C21.234,16.8165 21.331,16.6145 21.42,16.3965 L22.411,16.3965 C23.188,16.3965 23.82,15.7655 23.82,14.9885 L23.82,11.3715 C23.82,10.5945 23.188,9.9625 22.411,9.9625 L21.334,9.9625 C21.246,9.7445 21.149,9.5415 21.048,9.3465 L21.711,8.6755 C22.25,8.1295 22.25,7.2415 21.711,6.6955 L19.431,4.3835 C18.895,3.8405 17.955,3.8425 17.423,4.3835 L16.784,5.0305 C16.603,4.9325 16.417,4.8405 16.218,4.7565 L16.218,3.7685 C16.218,2.9915 15.586,2.3595 14.809,2.3595 L11.191,2.3595 C10.414,2.3595 9.782,2.9915 9.782,3.7685 L9.782,4.7215 C9.576,4.8075 9.381,4.9025 9.185,5.0075 L8.515,4.3405 C7.97,3.7945 7.077,3.7915 6.524,4.3395 L4.202,6.6525 C3.934,6.9195 3.785,7.2745 3.785,7.6535 C3.785,8.0315 3.934,8.3865 4.2,8.6515 L4.871,9.3185 C4.766,9.5225 4.666,9.7355 4.575,9.9625 L3.589,9.9625 C2.812,9.9625 2.18,10.5945 2.18,11.3715 L2.18,14.9885 C2.18,15.7655 2.812,16.3965 3.589,16.3965 L3.589,16.3965 Z M32.592,40.4145 L34.945,38.0605 L32.592,35.7075 L34.006,34.2925 L36.359,36.6465 L38.713,34.2925 L40.127,35.7075 L37.773,38.0605 L40.127,40.4145 L38.713,41.8285 L36.359,39.4745 L34.006,41.8285 L32.592,40.4145 Z M41.066,22.2805 L35.73,27.6165 L31.781,24.8155 L32.937,23.1845 L35.51,25.0085 L39.652,20.8665 L41.066,22.2805 Z M41.066,8.2805 L35.73,13.6165 L31.781,10.8155 L32.937,9.1845 L35.51,11.0085 L39.652,6.8665 L41.066,8.2805 Z M4,43.9995 L44,43.9995 L44,31.9995 L4,31.9995 L4,43.9995 Z M23,1.9995 L23,3.9995 L44,3.9995 L44,15.9995 L26,15.9995 L26,17.9995 L44,17.9995 L44,29.9995 L4,29.9995 L4,22.9995 L2,22.9995 L2,29.9995 L2,30.9995 L2,45.9995 L46,45.9995 L46,30.9995 L46,29.9995 L46,16.9995 L46,15.9995 L46,1.9995 L23,1.9995 Z" id="Fill-1" fill="#FF5252"></path>
    </g>
</svg>