<?xml version="1.0" encoding="UTF-8"?>
<svg width="48px" height="48px" viewBox="0 0 48 48" version="1.1" xmlns="http://www.w3.org/2000/svg" xmlns:xlink="http://www.w3.org/1999/xlink">
    <title>Icon-Resource/Analytics/Res_AWS-Glue_Data-Catalog_48_Dark</title>
    <g id="Icon-Resource/Analytics/Res_AWS-Glue_Data-Catalog_48" stroke="none" stroke-width="1" fill="none" fill-rule="evenodd">
        <path d="M21.306,18.375 C23.678,18.932 26.68,19 28,19 C29.321,19 32.323,18.932 34.695,18.375 L29,29.764 L29,33 L27,33 L27,29.764 L21.306,18.375 Z M28,15 C31.95,15 34.573,15.561 35.617,16 C34.573,16.441 31.95,17 28,17 C24.051,17 21.429,16.441 20.384,16 C21.429,15.561 24.051,15 28,15 L28,15 Z M31,35 L31,30.236 L37.642,16.952 C37.868,16.674 38,16.359 38,16 C38,13.217 30.346,13 28,13 C25.655,13 18,13.217 18,16 C18,16.359 18.131,16.674 18.358,16.952 L25,30.236 L25,35 L31,35 Z M4,2 L9,2 L9,4 L6,4 L6,44 L9,44 L9,46 L4,46 L4,2 Z M16,42 L40,42 L40,40 L16,40 L16,42 Z M16,38 L40,38 L40,36 L16,36 L16,38 Z M16,12 L40,12 L40,10 L16,10 L16,12 Z M16,8 L40,8 L40,6 L16,6 L16,8 Z M13,44 L42,44 L42,4 L13,4 L13,44 Z M11,46 L44,46 L44,2 L11,2 L11,46 Z" id="Icon-Resource/48/AWS-Glue_Data-Catalog" fill="#A166FF"></path>
    </g>
</svg>