<?xml version="1.0" encoding="UTF-8"?>
<svg width="48px" height="48px" viewBox="0 0 48 48" version="1.1" xmlns="http://www.w3.org/2000/svg" xmlns:xlink="http://www.w3.org/1999/xlink">
    <title>Icon-Resource/Containers/Res_Amazon-Elastic-Container-Service_ECS-Anywhere_48_Dark</title>
    <g id="Icon-Resource/Containers/Res_Amazon-Elastic-Container-Service_ECS-Anywhere_48" stroke="none" stroke-width="1" fill="none" fill-rule="evenodd">
        <path d="M42,30.6721483 L36.52,27.4741483 C36.824,26.3711483 37,25.2161483 37,24.0181483 C37,18.2541483 33.227,13.3601483 28.021,11.6621483 C28.015,11.6531483 28.007,11.6461483 28,11.6381483 L28,4.92614833 L42,13.4211483 L42,30.6721483 Z M23.247,43.7371483 L6,33.7791483 L6,13.3771483 L20,4.92214833 L20,11.6541483 C14.784,13.3461483 11,18.2451483 11,24.0181483 C11,31.1861483 16.832,37.0181483 24,37.0181483 C27.274,37.0181483 30.263,35.7911483 32.551,33.7851483 L36.847,36.2561483 L23.247,43.7371483 Z M29.029,23.0181483 L25,23.0181483 L25,13.0681483 C25.629,13.1261483 26.238,13.2421483 26.832,13.4011483 C28.114,15.3311483 28.895,19.0841483 29.029,23.0181483 L29.029,23.0181483 Z M30.996,23.0181483 C30.913,19.9161483 30.442,16.8901483 29.591,14.5611483 C32.551,16.3181483 34.623,19.4161483 34.949,23.0181483 L30.996,23.0181483 Z M25,25.0181483 L29.043,25.0181483 C28.959,28.8001483 28.257,32.4891483 26.81,34.6401483 C26.223,34.7961483 25.621,34.9111483 25,34.9671483 L25,25.0181483 Z M21.184,34.6391483 C19.782,32.6301483 19.063,28.9211483 19.003,25.0181483 L23,25.0181483 L23,34.9671483 C22.377,34.9111483 21.772,34.7951483 21.184,34.6391483 L21.184,34.6391483 Z M17.008,25.0181483 C17.058,28.1111483 17.505,31.1191483 18.357,33.4431483 C15.425,31.6801483 13.375,28.5981483 13.051,25.0181483 L17.008,25.0181483 Z M17.029,23.0181483 L13.051,23.0181483 C13.383,19.3521483 15.521,16.2061483 18.565,14.4661483 C17.664,16.8751483 17.149,19.9231483 17.029,23.0181483 L17.029,23.0181483 Z M23,23.0181483 L19.029,23.0181483 C19.188,19.2481483 19.947,15.5821483 21.296,13.3681483 C21.85,13.2271483 22.417,13.1211483 23,13.0681483 L23,23.0181483 Z M29.572,33.4851483 C30.44,31.1371483 30.912,28.1101483 30.996,25.0181483 L34.949,25.0181483 C34.622,28.6271483 32.543,31.7311483 29.572,33.4851483 L29.572,33.4851483 Z M43.519,12.0041483 L27.519,2.29514833 C27.209,2.10814833 26.823,2.10114833 26.51,2.27814833 C26.194,2.45614833 26,2.78914833 26,3.15014833 L26,11.1881483 C25.347,11.0871483 24.682,11.0181483 24,11.0181483 C23.318,11.0181483 22.653,11.0871483 22,11.1881483 L22,3.15014833 C22,2.78914833 21.806,2.45714833 21.491,2.27914833 C21.178,2.10214833 20.791,2.10814833 20.483,2.29414833 L4.483,11.9561483 C4.184,12.1371483 4,12.4621483 4,12.8121483 L4,34.3571483 C4,34.7141483 4.19,35.0441483 4.5,35.2231483 L22.735,45.7521483 C22.89,45.8401483 23.063,45.8851483 23.235,45.8851483 C23.401,45.8851483 23.567,45.8441483 23.718,45.7611483 L39.368,37.1521483 C39.685,36.9781483 39.882,36.6471483 39.886,36.2861483 C39.889,35.9241483 39.697,35.5891483 39.385,35.4091483 L34.001,32.3121483 C34.734,31.4281483 35.345,30.4421483 35.826,29.3851483 L42.496,33.2771483 C42.651,33.3681483 42.826,33.4131483 43,33.4131483 C43.172,33.4131483 43.344,33.3691483 43.498,33.2801483 C43.809,33.1021483 44,32.7711483 44,32.4131483 L44,12.8591483 C44,12.5091483 43.817,12.1851483 43.519,12.0041483 L43.519,12.0041483 Z" id="Fill-1" fill="#FF9900"></path>
    </g>
</svg>