<?xml version="1.0" encoding="UTF-8"?>
<svg width="48px" height="48px" viewBox="0 0 48 48" version="1.1" xmlns="http://www.w3.org/2000/svg" xmlns:xlink="http://www.w3.org/1999/xlink">
    <title>Icon-Resource/Networking-and-Content-Delivery/Res_AWS-Amazon-VPC_Router_48_Dark</title>
    <g id="Icon-Resource/Networking-and-Content-Delivery/Res_AWS-Amazon-VPC_Router_48" stroke="none" stroke-width="1" fill="none" fill-rule="evenodd">
        <path d="M42.8282,23 L42.8282,25 L29.3112,25 L31.9492,27.638 L30.5352,29.052 L26.1902,24.707 C25.8002,24.316 25.8002,23.684 26.1902,23.293 L30.5352,18.948 L31.9492,20.362 L29.3112,23 L42.8282,23 Z M21.8102,24.707 L17.4662,29.052 L16.0522,27.638 L18.6892,25 L5.1732,25 L5.1732,23 L18.6892,23 L16.0522,20.362 L17.4662,18.948 L21.8102,23.293 C22.2012,23.684 22.2012,24.316 21.8102,24.707 L21.8102,24.707 Z M27.6382,36.328 L29.0522,37.742 L24.7072,42.087 C24.5122,42.282 24.2562,42.38 24.0002,42.38 C23.7442,42.38 23.4882,42.282 23.2932,42.087 L18.9482,37.742 L20.3622,36.328 L23.0002,38.966 L23.0002,9.325 L20.4152,12.341 L18.8952,11.04 L23.2402,5.971 C23.6212,5.527 24.3792,5.527 24.7602,5.971 L29.1042,11.04 L27.5852,12.341 L25.0002,9.325 L25.0002,38.966 L27.6382,36.328 Z M24.0002,44 C12.9722,44 4.0002,35.028 4.0002,24 C4.0002,12.972 12.9722,4 24.0002,4 C35.0282,4 44.0002,12.972 44.0002,24 C44.0002,35.028 35.0282,44 24.0002,44 L24.0002,44 Z M24.0002,2 C11.8692,2 2.0002,11.869 2.0002,24 C2.0002,36.131 11.8692,46 24.0002,46 C36.1312,46 46.0002,36.131 46.0002,24 C46.0002,11.869 36.1312,2 24.0002,2 L24.0002,2 Z" id="AWS-Amazon-VPC_Router_Resource-Icon_light-bg" fill="#A166FF"></path>
    </g>
</svg>