<?xml version="1.0" encoding="UTF-8"?>
<svg width="48px" height="48px" viewBox="0 0 48 48" version="1.1" xmlns="http://www.w3.org/2000/svg" xmlns:xlink="http://www.w3.org/1999/xlink">
    <title>Icon-Resource/Management-Governance/Res_Cloudwatch_Logs_48_Dark</title>
    <g id="Icon-Resource/Management-Governance/Res_Cloudwatch_Logs_48" stroke="none" stroke-width="1" fill="none" fill-rule="evenodd">
        <path d="M29.4998,17.0004 C26.2418,17.0004 23.4708,19.0924 22.4378,22.0004 L24.6068,22.0004 C25.5198,20.2224 27.3678,19.0004 29.4998,19.0004 C32.5318,19.0004 34.9998,21.4674 34.9998,24.5004 C34.9998,27.5324 32.5318,30.0004 29.4998,30.0004 C27.7958,30.0004 26.2708,29.2214 25.2608,28.0004 L22.8718,28.0004 C24.1318,30.3764 26.6288,32.0004 29.4998,32.0004 C33.6358,32.0004 36.9998,28.6364 36.9998,24.5004 C36.9998,20.3644 33.6358,17.0004 29.4998,17.0004 L29.4998,17.0004 Z M1.9998,33.0004 L14.9998,33.0004 L14.9998,31.0004 L1.9998,31.0004 L1.9998,33.0004 Z M1.9998,18.0004 L14.9998,18.0004 L14.9998,16.0004 L1.9998,16.0004 L1.9998,18.0004 Z M1.9998,26.0004 L28.9998,26.0004 L28.9998,24.0004 L1.9998,24.0004 L1.9998,26.0004 Z M43.8428,35.7384 L38.8178,31.2134 C38.3998,31.7924 37.9318,32.3304 37.4148,32.8214 L42.4118,37.3294 C42.8478,37.7224 43.5278,37.6874 43.9228,37.2494 C44.3148,36.8124 44.2798,36.1344 43.8428,35.7384 L43.8428,35.7384 Z M45.4088,38.5884 C44.8028,39.2594 43.9658,39.6004 43.1248,39.6004 C42.3938,39.6004 41.6588,39.3414 41.0738,38.8154 L35.8338,34.0894 C34.0168,35.2934 31.8398,36.0004 29.4998,36.0004 C24.3798,36.0004 20.0328,32.6344 18.5488,28.0004 L20.6768,28.0004 C22.0738,31.5094 25.4988,34.0004 29.4998,34.0004 C34.7378,34.0004 38.9998,29.7384 38.9998,24.5004 C38.9998,19.2624 34.7378,15.0004 29.4998,15.0004 C25.1278,15.0004 21.4458,17.9734 20.3448,22.0004 L18.2818,22.0004 C19.4278,16.8574 24.0188,13.0004 29.4998,13.0004 C35.8408,13.0004 40.9998,18.1584 40.9998,24.5004 C40.9998,26.2774 40.5828,27.9554 39.8588,29.4604 L45.1828,34.2544 C46.4368,35.3884 46.5378,37.3314 45.4088,38.5884 L45.4088,38.5884 Z M1.9998,41.0004 L20.9998,41.0004 L20.9998,39.0004 L1.9998,39.0004 L1.9998,41.0004 Z M1.9998,10.0004 L22.9998,10.0004 L22.9998,8.0004 L1.9998,8.0004 L1.9998,10.0004 Z" id="Amazon-Cloudwatch_Logs_Resource-Icon_light-bg" fill="#FF4F8B"></path>
    </g>
</svg>