<?xml version="1.0" encoding="UTF-8"?>
<svg width="48px" height="48px" viewBox="0 0 48 48" version="1.1" xmlns="http://www.w3.org/2000/svg" xmlns:xlink="http://www.w3.org/1999/xlink">
    <title>Icon-Resource/Storage/Res_AWS-Backup_Recovery-Point-Objective_48_Dark</title>
    <g id="Icon-Resource/Storage/Res_AWS-Backup_Recovery-Point-Objective_48" stroke="none" stroke-width="1" fill="none" fill-rule="evenodd">
        <path d="M23.1110276,16.8529511 L23.5450276,31.7729511 L24.4180276,31.7729511 L24.8500276,16.8529511 C24.2890276,16.6949511 23.6710276,16.6949511 23.1110276,16.8529511 M21.5730276,32.8019511 L21.0910276,16.2099511 C21.0810276,15.8209511 21.2970276,15.4609511 21.6450276,15.2869511 C23.1120276,14.5539511 24.8490276,14.5529511 26.3160276,15.2869511 C26.6650276,15.4609511 26.8810276,15.8209511 26.8700276,16.2099511 L26.3890276,32.8019511 C26.3740276,33.3429511 25.9300276,33.7729511 25.3890276,33.7729511 L22.5730276,33.7729511 C22.0320276,33.7729511 21.5890276,33.3429511 21.5730276,32.8019511 M22.7480276,38.5509511 C22.7480276,39.0799511 22.9390276,39.3379511 23.0840276,39.4869511 C23.2210276,39.6279511 23.4650276,39.8179511 23.9810276,39.8179511 C24.4960276,39.8179511 24.7400276,39.6279511 24.8800276,39.4849511 C25.0220276,39.3379511 25.2140276,39.0799511 25.2140276,38.5509511 C25.2140276,38.0219511 25.0220276,37.7649511 24.8790276,37.6169511 C24.7400276,37.4739511 24.4950276,37.2839511 23.9810276,37.2839511 C23.4660276,37.2839511 23.2210276,37.4739511 23.0820276,37.6169511 C22.8540276,37.8519511 22.7480276,38.1489511 22.7480276,38.5509511 M20.7480276,38.5509511 C20.7480276,37.6219511 21.0500276,36.8389511 21.6480276,36.2229511 C22.2480276,35.6079511 23.0530276,35.2839511 23.9810276,35.2839511 C24.9080276,35.2839511 25.7140276,35.6079511 26.3110276,36.2219511 C26.9110276,36.8369511 27.2140276,37.6209511 27.2140276,38.5509511 C27.2140276,39.4809511 26.9110276,40.2649511 26.3120276,40.8799511 C25.7150276,41.4939511 24.9090276,41.8179511 23.9810276,41.8179511 C23.0530276,41.8179511 22.2470276,41.4939511 21.6500276,40.8809511 C21.0500276,40.2639511 20.7480276,39.4799511 20.7480276,38.5509511 M45.4630276,40.0729511 C45.0560276,39.3859511 43.8350276,37.2709511 42.9190276,35.6859511 L41.1860276,36.6859511 C42.1060276,38.2779511 43.3340276,40.4009511 43.7450276,41.0969511 C44.0450276,41.5959511 44.0290276,42.2379511 43.7030276,42.8129511 C43.3630276,43.4139511 42.7840276,43.7729511 42.1550276,43.7729511 L5.80602757,43.7729511 C5.17702757,43.7729511 4.59802757,43.4139511 4.25802757,42.8129511 C3.93202757,42.2379511 3.91802757,41.5959511 4.22002757,41.0909511 L13.1530276,25.9849511 C13.2090276,25.8909511 13.2570276,25.7999511 13.2960276,25.7129511 L13.3090276,25.7209511 C13.3250276,25.6949511 13.7010276,25.0579511 22.3910276,10.3619511 C22.7010276,9.84595109 23.2960276,9.53795109 23.9800276,9.53795109 C24.6660276,9.53795109 25.2600276,9.84595109 25.5670276,10.3559511 L32.6150276,22.2749511 C33.6750276,24.0689511 34.2940276,25.1149511 34.7160276,25.6879511 L34.6550276,25.7259511 L36.7530276,29.2719511 L37.6530276,30.7299511 L39.3540276,29.6799511 L38.4640276,28.2379511 C37.3730276,26.3929511 36.7410276,25.3239511 36.3110276,24.7419511 L36.3750276,24.7039511 L27.2850276,9.33295109 C26.6100276,8.20895109 25.3750276,7.53795109 23.9800276,7.53795109 C22.5870276,7.53795109 21.3510276,8.20895109 20.6730276,9.33895109 L11.7410276,24.4439511 C11.6850276,24.5379511 11.6370276,24.6289511 11.5980276,24.7169511 L11.5850276,24.7079511 C11.5690276,24.7349511 11.1890276,25.3769511 2.50302757,40.0669511 C1.82702757,41.1919511 1.83302757,42.5869511 2.51702757,43.7979511 C3.20702757,45.0159511 4.46702757,45.7729511 5.80602757,45.7729511 L42.1550276,45.7729511 C43.4940276,45.7729511 44.7540276,45.0159511 45.4440276,43.7979511 C46.1290276,42.5869511 46.1350276,41.1929511 45.4630276,40.0729511 M5.04202757,21.6049511 L2.47402757,17.8219511 L4.12902757,16.6989511 L5.31702757,18.4499511 C6.10602757,14.1669511 8.23202757,10.2689511 11.5010276,7.27795109 C15.4690276,3.64795109 20.6130276,1.78395109 25.9870276,2.01995109 C37.0780276,2.51395109 45.6990276,11.9379511 45.2060276,23.0299511 C44.9260276,29.3099511 41.8130276,34.9889511 36.6660276,38.6109511 L35.5150276,36.9749511 C40.1520276,33.7129511 42.9560276,28.5979511 43.2080276,22.9409511 C43.6520276,12.9509511 35.8860276,4.46195109 25.8970276,4.01795109 C21.0660276,3.79695109 16.4240276,5.48395109 12.8500276,8.75395109 C9.88702757,11.4639511 7.96602757,15.0009511 7.26702757,18.8869511 L9.09002757,17.6489511 L10.2140276,19.3049511 L6.43002757,21.8719511 C6.25802757,21.9879511 6.06302757,22.0439511 5.87002757,22.0439511 C5.54902757,22.0439511 5.23502757,21.8909511 5.04202757,21.6049511" id="Fill-1" fill="#6CAE3E"></path>
    </g>
</svg>