<?xml version="1.0" encoding="UTF-8"?>
<svg width="48px" height="48px" viewBox="0 0 48 48" version="1.1" xmlns="http://www.w3.org/2000/svg" xmlns:xlink="http://www.w3.org/1999/xlink">
    <title>Icon-Resource/Database/Res_Amazon-RDS_Multi-AZ-DB-Cluster_48_Dark</title>
    <g id="Icon-Resource/Database/Res_Amazon-RDS_Multi-AZ-DB-Cluster_48" stroke="none" stroke-width="1" fill="none" fill-rule="evenodd">
        <path d="M38.189,13.07 C34.105,13.07 32,11.871 32,11.36 L32,8.272 C33.601,9.07 35.943,9.45 38.189,9.45 C40.617,9.45 42.625,9.043 44,8.342 L44,11.36 C44,11.973 42.058,13.07 38.189,13.07 L38.189,13.07 Z M38.189,18.329 C34.105,18.329 32,17.174 32,16.68 L32,13.925 C33.578,14.704 35.889,15.07 38.189,15.07 C40.639,15.07 42.636,14.679 44,13.993 L44,16.68 C44,17.256 42.003,18.329 38.189,18.329 L38.189,18.329 Z M38.189,29.514 C42.003,29.514 44,30.637 44,31.239 C44,31.841 42.003,32.964 38.189,32.964 C34.105,32.964 32,31.755 32,31.239 C32,30.723 34.105,29.514 38.189,29.514 L38.189,29.514 Z M38.189,38.584 C34.105,38.584 32,37.385 32,36.873 L32,33.786 C33.601,34.584 35.943,34.964 38.189,34.964 C40.617,34.964 42.625,34.557 44,33.856 L44,36.873 C44,37.487 42.058,38.584 38.189,38.584 L38.189,38.584 Z M38.189,43.843 C34.105,43.843 32,42.688 32,42.195 L32,39.439 C33.578,40.218 35.889,40.584 38.189,40.584 C40.639,40.584 42.636,40.193 44,39.507 L44,42.195 C44,42.77 42.003,43.843 38.189,43.843 L38.189,43.843 Z M12.243,30.21 C7.21,30.21 4,28.763 4,27.767 L4,23.614 C5.993,24.75 9.188,25.286 12.243,25.286 C15.582,25.286 18.29,24.697 20,23.695 L20,27.767 C20,28.791 17.304,30.21 12.243,30.21 L12.243,30.21 Z M12.243,36.932 C6.831,36.932 4,35.366 4,34.527 L4,30.545 C5.993,31.676 9.188,32.21 12.243,32.21 C15.582,32.21 18.29,31.623 20,30.625 L20,34.527 C20,35.535 17.304,36.932 12.243,36.932 L12.243,36.932 Z M4,16.196 C5.993,17.332 9.188,17.868 12.243,17.868 C15.582,17.868 18.29,17.279 20,16.277 L20,20.824 C20,21.857 17.304,23.286 12.243,23.286 C7.21,23.286 4,21.828 4,20.824 L4,16.196 Z M12.243,10.945 C17.237,10.945 20,12.4 20,13.406 C20,14.413 17.237,15.868 12.243,15.868 C6.831,15.868 4,14.266 4,13.406 C4,12.547 6.831,10.945 12.243,10.945 L12.243,10.945 Z M38.189,4 C42.003,4 44,5.123 44,5.725 C44,6.327 42.003,7.45 38.189,7.45 C34.105,7.45 32,6.241 32,5.725 C32,5.209 34.105,4 38.189,4 L38.189,4 Z M46,5.725 C46,3.497 42.861,2 38.189,2 C34.245,2 30,3.166 30,5.725 C30,5.793 30.014,5.856 30.02,5.922 L30,5.922 L30,16.508 L22,22.108 L22,13.922 L21.947,13.922 C21.98,13.754 22,13.582 22,13.406 C22,10.737 18.079,8.945 12.243,8.945 C7.578,8.945 2.585,10.195 2.053,12.922 L2,12.922 L2,34.527 C2,37.554 7.309,38.932 12.243,38.932 C18.169,38.932 22,37.203 22,34.527 L22,25.95 L30,31.55 L30,42.195 C30,44.715 34.113,45.843 38.189,45.843 C42.934,45.843 46,44.411 46,42.195 L46,30.922 L45.971,30.922 C45.685,28.871 42.634,27.514 38.189,27.514 C35.214,27.514 32.071,28.178 30.704,29.601 L22.743,24.029 L30.795,18.393 C32.183,19.717 35.193,20.329 38.189,20.329 C42.934,20.329 46,18.897 46,16.68 L46,5.922 L45.982,5.922 C45.988,5.856 46,5.792 46,5.725 L46,5.725 Z" id="Fill-1" fill="#527FFF"></path>
    </g>
</svg>