<?xml version="1.0" encoding="UTF-8"?>
<svg width="48px" height="48px" viewBox="0 0 48 48" version="1.1" xmlns="http://www.w3.org/2000/svg" xmlns:xlink="http://www.w3.org/1999/xlink">
    <title>Icon-Resource/Storage/Res_AWS-Storage-Gateway_Amazon-FSx-File-Gateway_48_Dark</title>
    <g id="Icon-Resource/Storage/Res_AWS-Storage-Gateway_Amazon-FSx-File-Gateway_48" stroke="none" stroke-width="1" fill="none" fill-rule="evenodd">
        <path d="M42.532,28.826 L45.696,24.252 L44.065,24.252 L41.604,27.896 L40.899,28.909 L44.234,33.865 L44.278,33.931 L45.993,33.931 L42.532,28.826 Z M37.245,33.931 L38.894,33.931 L41.132,30.542 L40.375,29.434 L37.245,33.931 Z M41.215,27.19 L39.274,24.318 L39.23,24.252 L37.532,24.252 L40.354,28.378 L41.215,27.19 Z M34.788,27.723 L33.084,27.046 C32.535,26.832 32.111,26.63 31.821,26.445 C31.548,26.271 31.35,26.078 31.235,25.872 C31.12,25.668 31.062,25.388 31.062,25.037 C31.062,24.411 31.253,23.945 31.643,23.614 C32.461,22.923 34.154,22.94 36.205,23.69 L36.473,23.788 L36.473,22.532 L36.356,22.479 C35.89,22.265 35.387,22.097 34.861,21.978 C34.335,21.86 33.825,21.8 33.344,21.8 C32.269,21.8 31.386,22.103 30.72,22.701 C30.048,23.305 29.707,24.102 29.707,25.071 C29.707,25.787 29.915,26.4 30.326,26.891 C30.729,27.372 31.36,27.788 32.203,28.128 L34.051,28.871 C34.655,29.112 35.096,29.383 35.36,29.677 C35.615,29.962 35.739,30.296 35.739,30.699 C35.739,31.379 35.506,31.901 35.024,32.294 C34.006,33.126 32.119,33.058 30.041,32.278 L29.77,32.177 L29.77,33.43 L29.881,33.486 C30.827,33.96 31.918,34.201 33.122,34.201 C34.302,34.201 35.269,33.878 36,33.243 C36.736,32.601 37.11,31.751 37.11,30.716 C37.11,30.001 36.919,29.395 36.542,28.917 C36.173,28.446 35.583,28.044 34.788,27.723 L34.788,27.723 Z M22.83,33.92 L24.17,33.92 L24.17,28.605 L28.61,28.605 L28.61,27.33 L24.17,27.33 L24.17,23.356 L29.423,23.356 L29.423,22.081 L22.83,22.081 L22.83,33.92 Z M30,20 L32,20 L32,7.073 C32,6.735 31.811,6.425 31.511,6.27 L31.203,6.112 C27.648,4.28 23.03,2 17,2 C10.507,2 6.307,4.031 2.446,6.294 C2.17,6.456 2,6.752 2,7.073 L2,46 L4,46 L4,7.5 C7.621,5.404 11.189,4 17,4 C22.498,4 26.486,5.69 30,7.5 L30,20 Z M37,36 L37,45 C37,45.55 36.55,46 36,46 L8.914,46 C8.415,46 8.011,45.597 8.011,45.098 L8,26.001 C8,25.451 8.449,25 9,25 L17,25 C17.228,25 17.497,25.169 17.596,25.375 L18.441,26.724 C18.522,26.893 18.693,27 18.88,27 L21,27 L21,29 L18,29 C17.653,29 17.5,29 17.203,28.209 L16.618,27.288 C16.547,27.114 16.188,27 16,27 L10,27 L10,44 L35,44 L35,36 L37,36 Z" id="Fill-1" fill="#6CAE3E"></path>
    </g>
</svg>