<?xml version="1.0" encoding="UTF-8"?>
<svg width="48px" height="48px" viewBox="0 0 48 48" version="1.1" xmlns="http://www.w3.org/2000/svg" xmlns:xlink="http://www.w3.org/1999/xlink">
    <title>Icon-Resource/Analytics/Res_Amazon-Redshift_Dense-Compute-Node_48_Dark</title>
    <g id="Icon-Resource/Analytics/Res_Amazon-Redshift_Dense-Compute-Node_48" stroke="none" stroke-width="1" fill="none" fill-rule="evenodd">
        <path d="M17.423,26.541 C17.771,26.541 18.267,26.45 18.909,26.27 L18.909,27.518 C18.41,27.752 17.851,27.87 17.23,27.87 C15.11,27.87 14.051,26.53 14.051,23.851 C14.051,22.526 14.327,21.512 14.879,20.808 C15.432,20.104 16.227,19.752 17.264,19.752 C17.793,19.752 18.312,19.854 18.819,20.059 L18.819,21.308 C18.297,21.148 17.842,21.069 17.456,21.069 C16.859,21.069 16.419,21.278 16.14,21.699 C15.86,22.119 15.72,22.783 15.72,23.692 L15.72,23.953 C15.72,24.847 15.856,25.501 16.128,25.917 C16.401,26.333 16.832,26.541 17.423,26.541 L17.423,26.541 Z M11.28,23.919 C11.28,24.805 11.159,25.462 10.917,25.89 C10.675,26.316 10.308,26.53 9.816,26.53 L9.147,26.53 L9.147,21.091 L9.805,21.091 C10.312,21.091 10.685,21.302 10.923,21.722 C11.161,22.142 11.28,22.799 11.28,23.692 L11.28,23.919 Z M9.93,19.877 L7.557,19.877 L7.557,27.745 L9.986,27.745 C10.941,27.745 11.666,27.412 12.166,26.746 C12.666,26.08 12.915,25.1 12.915,23.805 C12.915,22.519 12.661,21.542 12.154,20.876 C11.648,20.21 10.905,19.877 9.93,19.877 L9.93,19.877 Z M36.93,26.48 C36.442,26.548 36.061,26.948 36.061,27.454 L36.061,30.433 L33.732,29.655 L36.417,25.731 L36.93,26.48 Z M38.061,34.313 L43.92,34.313 L43.92,28.454 L38.061,28.454 L38.061,34.313 Z M33.694,39.452 L33.694,37.061 C33.694,36.508 33.246,36.061 32.694,36.061 L29.349,36.061 L32.558,31.371 L36.061,32.54 L36.061,35.313 C36.061,35.866 36.508,36.313 37.061,36.313 L37.896,36.313 C36.378,37.465 34.816,38.625 33.694,39.452 L33.694,39.452 Z M25.835,43.92 L31.694,43.92 L31.694,38.061 L25.835,38.061 L25.835,43.92 Z M23.087,31.947 C23.64,31.947 24.087,31.5 24.087,30.947 L24.087,28.545 L30.585,30.713 L26.926,36.061 L24.834,36.061 C24.608,36.061 24.409,36.149 24.241,36.276 L18.917,31.947 L23.087,31.947 Z M4,29.948 L22.087,29.948 L22.087,17.974 L4,17.974 L4,29.948 Z M24.241,11.645 C24.409,11.771 24.608,11.86 24.834,11.86 L26.926,11.86 L30.585,17.208 L24.087,19.376 L24.087,16.974 C24.087,16.421 23.64,15.974 23.087,15.974 L18.917,15.974 L24.241,11.645 Z M25.834,9.86 L31.693,9.86 L31.693,4 L25.834,4 L25.834,9.86 Z M37.896,11.607 L37.061,11.607 C36.508,11.607 36.061,12.055 36.061,12.607 L36.061,15.381 L32.558,16.55 L29.349,11.86 L32.694,11.86 C33.246,11.86 33.694,11.413 33.694,10.86 L33.694,8.469 C34.816,9.296 36.378,10.456 37.896,11.607 L37.896,11.607 Z M38.061,19.467 L43.92,19.467 L43.92,13.608 L38.061,13.608 L38.061,19.467 Z M33.732,18.266 L36.061,17.488 L36.061,20.467 C36.061,20.973 36.442,21.373 36.93,21.44 L36.417,22.19 L33.732,18.266 Z M24.087,21.483 L31.759,18.924 L35.205,23.96 L31.759,28.997 L24.087,26.437 L24.087,21.483 Z M39.334,21.467 L44.92,21.467 C45.473,21.467 45.92,21.02 45.92,20.467 L45.92,12.607 C45.92,12.055 45.473,11.607 44.92,11.607 L41.178,11.607 C38.557,9.56 34.9,6.87 33.694,5.986 L33.694,3 C33.694,2.447 33.246,2 32.694,2 L24.834,2 C24.281,2 23.834,2.447 23.834,3 L23.834,9.396 L15.745,15.974 L3,15.974 C2.447,15.974 2,16.421 2,16.974 L2,30.947 C2,31.5 2.447,31.947 3,31.947 L15.745,31.947 L23.834,38.523 L23.834,44.92 C23.834,45.473 24.281,45.92 24.834,45.92 L32.694,45.92 C33.246,45.92 33.694,45.473 33.694,44.92 L33.694,41.935 C34.9,41.051 38.557,38.361 41.178,36.313 L44.92,36.313 C45.473,36.313 45.92,35.866 45.92,35.313 L45.92,27.454 C45.92,26.901 45.473,26.454 44.92,26.454 L39.334,26.454 L37.628,23.96 L39.334,21.467 Z" id="Fill-19" fill="#A166FF"></path>
    </g>
</svg>