<?xml version="1.0" encoding="UTF-8"?>
<svg width="48px" height="48px" viewBox="0 0 48 48" version="1.1" xmlns="http://www.w3.org/2000/svg" xmlns:xlink="http://www.w3.org/1999/xlink">
    <title>Icon-Resource/Security-Identity-and-Compliance/Res_AWS-Identity-Access-Management_Long-Term-Security-Credential_48_Dark</title>
    <g id="Icon-Resource/Security-Identity-and-Compliance/Res_AWS-Identity-Access-Management_Long-Term-Security-Credential_48" stroke="none" stroke-width="1" fill="none" fill-rule="evenodd">
        <path d="M43.9593,37.7715 L45.9593,37.7715 L45.9593,42.1415 C45.9593,42.6945 45.5123,43.1415 44.9593,43.1415 L3.0003,43.1415 C2.4473,43.1415 2.0003,42.6945 2.0003,42.1415 L2.0003,37.7715 L4.0003,37.7715 L4.0003,41.1415 L43.9593,41.1415 L43.9593,37.7715 Z M39.3383,11.6215 C40.1433,11.6215 40.7973,12.2765 40.7973,13.0815 C40.7973,13.8855 40.1433,14.5405 39.3383,14.5405 C38.5333,14.5405 37.8783,13.8855 37.8783,13.0815 C37.8783,12.2765 38.5333,11.6215 39.3383,11.6215 L39.3383,11.6215 Z M39.3383,16.5405 C41.2453,16.5405 42.7973,14.9885 42.7973,13.0815 C42.7973,11.1725 41.2453,9.6215 39.3383,9.6215 C37.4303,9.6215 35.8783,11.1725 35.8783,13.0815 C35.8783,14.9885 37.4303,16.5405 39.3383,16.5405 L39.3383,16.5405 Z M14.5003,11.6215 L29.1843,11.6215 C29.6193,11.6215 30.0053,11.3385 30.1373,10.9225 C31.0703,7.9785 33.7793,6.0005 36.8783,6.0005 C40.7823,6.0005 43.9593,9.1765 43.9593,13.0815 C43.9593,16.9855 40.7823,20.1625 36.8783,20.1625 C33.7793,20.1625 31.0703,18.1835 30.1373,15.2385 C30.0053,14.8225 29.6193,14.5405 29.1843,14.5405 L26.6883,14.5405 C26.4233,14.5405 26.1693,14.6455 25.9813,14.8335 L24.5803,16.2345 L23.1803,14.8335 C22.9923,14.6455 22.7383,14.5405 22.4733,14.5405 L21.0663,14.5405 C20.8013,14.5405 20.5473,14.6455 20.3593,14.8335 L18.9593,16.2345 L17.5583,14.8335 C17.3703,14.6455 17.1163,14.5405 16.8513,14.5405 L15.1183,14.5405 L13.3353,12.9805 L14.5003,11.6215 Z M14.0843,16.2925 C14.2663,16.4525 14.5003,16.5405 14.7423,16.5405 L16.4373,16.5405 L18.2523,18.3555 C18.6273,18.7305 19.2913,18.7305 19.6663,18.3555 L21.4803,16.5405 L22.0593,16.5405 L23.8733,18.3555 C24.0613,18.5425 24.3143,18.6485 24.5803,18.6485 C24.8463,18.6485 25.1003,18.5425 25.2873,18.3555 L27.1033,16.5405 L28.4823,16.5405 C29.8673,19.9315 33.1533,22.1625 36.8783,22.1625 C41.8853,22.1625 45.9593,18.0875 45.9593,13.0815 C45.9593,8.0745 41.8853,4.0005 36.8783,4.0005 C33.1533,4.0005 29.8673,6.2305 28.4823,9.6215 L14.0403,9.6215 C13.7483,9.6215 13.4713,9.7495 13.2813,9.9705 L11.1723,12.4305 C10.8153,12.8465 10.8603,13.4725 11.2733,13.8345 L14.0843,16.2925 Z M8.6223,27.7845 C9.4273,27.7845 10.0813,28.4385 10.0813,29.2435 C10.0813,30.0475 9.4273,30.7035 8.6223,30.7035 C7.8173,30.7035 7.1623,30.0475 7.1623,29.2435 C7.1623,28.4385 7.8173,27.7845 8.6223,27.7845 L8.6223,27.7845 Z M8.6223,32.7035 C10.5293,32.7035 12.0813,31.1515 12.0813,29.2435 C12.0813,27.3355 10.5293,25.7845 8.6223,25.7845 C6.7143,25.7845 5.1623,27.3355 5.1623,29.2435 C5.1623,31.1515 6.7143,32.7035 8.6223,32.7035 L8.6223,32.7035 Z M11.0813,22.1625 C14.1813,22.1625 16.8903,24.1405 17.8233,27.0855 C17.9553,27.5015 18.3413,27.7845 18.7763,27.7845 L21.2713,27.7845 C21.5363,27.7845 21.7903,27.6785 21.9783,27.4915 L23.3793,26.0895 L24.7803,27.4915 C24.9683,27.6785 25.2223,27.7845 25.4873,27.7845 L26.8933,27.7845 C27.1583,27.7845 27.4123,27.6785 27.6003,27.4915 L29.0013,26.0895 L30.4013,27.4915 C30.5893,27.6785 30.8433,27.7845 31.1083,27.7845 L32.8413,27.7845 L34.6243,29.3435 L33.4603,30.7035 L18.7763,30.7035 C18.3413,30.7035 17.9553,30.9855 17.8233,31.4015 C16.8903,34.3465 14.1813,36.3255 11.0813,36.3255 C7.1773,36.3255 4.0003,33.1485 4.0003,29.2435 C4.0003,25.3385 7.1773,22.1625 11.0813,22.1625 L11.0813,22.1625 Z M11.0813,38.3255 C14.8073,38.3255 18.0933,36.0945 19.4783,32.7035 L33.9203,32.7035 C34.2123,32.7035 34.4893,32.5755 34.6803,32.3535 L36.7873,29.8935 C37.1443,29.4775 37.0993,28.8515 36.6863,28.4905 L33.8753,26.0315 C33.6933,25.8725 33.4593,25.7845 33.2173,25.7845 L31.5223,25.7845 L29.7083,23.9685 C29.5213,23.7815 29.2673,23.6755 29.0013,23.6755 C28.7353,23.6755 28.4813,23.7815 28.2943,23.9685 L26.4793,25.7845 L25.9013,25.7845 L24.0863,23.9685 C23.6953,23.5785 23.0633,23.5785 22.6723,23.9685 L20.8563,25.7845 L19.4783,25.7845 C18.0933,22.3925 14.8073,20.1625 11.0813,20.1625 C6.0743,20.1625 2.0003,24.2365 2.0003,29.2435 C2.0003,34.2505 6.0743,38.3255 11.0813,38.3255 L11.0813,38.3255 Z" id="AWS-Identity-and-Access-Management_Long-term-security-credential_Resource-Icon_light-bg" fill="#FF5252"></path>
    </g>
</svg>