<?xml version="1.0" encoding="UTF-8"?>
<svg width="48px" height="48px" viewBox="0 0 48 48" version="1.1" xmlns="http://www.w3.org/2000/svg" xmlns:xlink="http://www.w3.org/1999/xlink">
    <title>Icon-Resource/Business-Applications/Res_Amazon-Pinpoint_Journey_48_Dark</title>
    <g id="Icon-Resource/Business-Applications/Res_Amazon-Pinpoint_Journey_48" stroke="none" stroke-width="1" fill="none" fill-rule="evenodd">
        <path d="M42.96,21 C42.96,19.897 42.063,19 40.96,19 C39.857,19 38.96,19.897 38.96,21 C38.96,22.103 39.857,23 40.96,23 C42.063,23 42.96,22.103 42.96,21 L42.96,21 Z M37.96,37 C37.96,35.897 37.063,35 35.96,35 C34.857,35 33.96,35.897 33.96,37 C33.96,38.103 34.857,39 35.96,39 C37.063,39 37.96,38.103 37.96,37 L37.96,37 Z M28.96,20.5 C28.96,19.122 27.839,18 26.46,18 C25.081,18 23.96,19.122 23.96,20.5 C23.96,21.878 25.081,23 26.46,23 C27.839,23 28.96,21.878 28.96,20.5 L28.96,20.5 Z M18.131,30.008 L14.522,33.609 L13.109,32.193 L16.65,28.661 C15.994,28.283 15.244,28.05 14.435,28.05 C11.967,28.05 9.96,30.057 9.96,32.525 C9.96,34.993 11.967,37 14.435,37 C16.902,37 18.91,34.993 18.91,32.525 C18.91,31.592 18.622,30.726 18.131,30.008 L18.131,30.008 Z M21.46,10 C22.839,10 23.96,8.878 23.96,7.5 C23.96,6.122 22.839,5 21.46,5 C20.081,5 18.96,6.122 18.96,7.5 C18.96,8.878 20.081,10 21.46,10 L21.46,10 Z M44.96,21 C44.96,23.206 43.166,25 40.96,25 C40.911,25 40.866,24.987 40.817,24.985 L38.149,33.659 C39.237,34.375 39.96,35.603 39.96,37 C39.96,39.206 38.166,41 35.96,41 C33.754,41 31.96,39.206 31.96,37 C31.96,34.794 33.754,33 35.96,33 C36.06,33 36.152,33.022 36.25,33.029 L38.901,24.412 C38.035,23.887 37.392,23.048 37.117,22.05 L30.668,22.05 C30.033,23.767 28.395,25 26.46,25 C25.523,25 24.654,24.711 23.934,24.22 L19.56,28.583 C20.403,29.676 20.91,31.041 20.91,32.525 C20.91,36.095 18.005,39 14.435,39 C10.864,39 7.96,36.095 7.96,32.525 C7.96,28.955 10.864,26.05 14.435,26.05 C15.801,26.05 17.066,26.478 18.112,27.202 L22.582,22.743 C22.197,22.08 21.96,21.32 21.96,20.5 C21.96,19.047 22.664,17.766 23.735,16.943 L21.611,11.985 C21.56,11.986 21.512,12 21.46,12 C18.979,12 16.96,9.981 16.96,7.5 C16.96,5.019 18.979,3 21.46,3 C23.941,3 25.96,5.019 25.96,7.5 C25.96,9.219 24.981,10.698 23.56,11.456 L25.548,16.094 C25.843,16.033 26.148,16 26.46,16 C28.787,16 30.685,17.782 30.914,20.05 L37.087,20.05 C37.516,18.304 39.083,17 40.96,17 C43.166,17 44.96,18.794 44.96,21 L44.96,21 Z M24.699,27.294 C25.524,28.901 25.96,30.711 25.96,32.53 C25.96,38.86 20.811,44.01 14.481,44.01 C8.15,44.01 3,38.86 3,32.53 C3,26.2 8.15,21.05 14.481,21.05 C16.326,21.05 18.088,21.475 19.719,22.313 L18.805,24.092 C17.46,23.4 16.005,23.05 14.481,23.05 C9.253,23.05 5,27.303 5,32.53 C5,37.757 9.253,42.01 14.481,42.01 C19.707,42.01 23.96,37.757 23.96,32.53 C23.96,31.006 23.61,29.552 22.92,28.208 L24.699,27.294 Z" id="Fill-1" fill="#FF5252"></path>
    </g>
</svg>