<?xml version="1.0" encoding="UTF-8"?>
<svg width="48px" height="48px" viewBox="0 0 48 48" version="1.1" xmlns="http://www.w3.org/2000/svg" xmlns:xlink="http://www.w3.org/1999/xlink">
    <title>Icon-Resource/Compute/Res_Amazon-Elastic-Beanstalk_Deployment_48_Dark</title>
    <g id="Icon-Resource/Compute/Res_Amazon-Elastic-Beanstalk_Deployment_48" stroke="none" stroke-width="1" fill="none" fill-rule="evenodd">
        <path d="M13.302,5.892 L16.901,9.49 L15.487,10.904 L13.595,9.013 L13.595,19.392 L11.595,19.392 L11.595,9.013 L9.704,10.904 L8.29,9.49 L11.888,5.892 C12.279,5.501 12.911,5.501 13.302,5.892 M12.595,21.191 C7.856,21.191 4,17.334 4,12.595 C4,7.856 7.856,4 12.595,4 C17.334,4 21.191,7.856 21.191,12.595 C21.191,17.334 17.334,21.191 12.595,21.191 M23.191,12.595 C23.191,6.753 18.438,2 12.595,2 C6.753,2 2,6.753 2,12.595 C2,18.438 6.753,23.191 12.595,23.191 C18.438,23.191 23.191,18.438 23.191,12.595 M38.687,22.807 C34.119,27.468 26.783,28.166 22.744,28.1630096 C26.443,25.331 30.238,21.959 33.851,18.277 C37.607,14.444 41.043,10.382 43.9251333,6.397 C43.936,10.511 43.275,18.121 38.687,22.807 M45.784,3.303 C45.783,3.295 45.779,3.288 45.778,3.281 C45.764,3.186 45.74,3.092 45.7,3.003 C45.698,2.999 45.695,2.996 45.693,2.992 C45.684,2.973 45.671,2.959 45.661,2.942 C45.622,2.87 45.576,2.804 45.522,2.745 C45.5,2.722 45.479,2.704 45.455,2.683 C45.402,2.634 45.344,2.592 45.281,2.556 C45.254,2.541 45.231,2.527 45.203,2.514 C45.112,2.472 45.015,2.44 44.912,2.427 C44.373,2.357 31.587,0.888 24.406,8.225 C24.392,8.238 24.382,8.252 24.369,8.265 C24.362,8.272 24.354,8.279 24.347,8.287 C24.204,8.437 24.063,8.587 23.893,8.779 C23.819,8.862 23.747,8.943 23.682,9.025 L23.679,9.028 C23.675,9.032 23.671,9.037 23.668,9.04 L24.449,9.664 L25.22,10.301 C25.409,10.073 25.607,9.852 25.827,9.631 C26.158,9.292 26.507,8.977 26.866,8.678 C26.981,8.583 27.103,8.5 27.219,8.41 C27.47,8.214 27.722,8.02 27.984,7.842 C28.125,7.746 28.274,7.659 28.418,7.567 C28.665,7.411 28.912,7.256 29.165,7.114 C29.319,7.029 29.474,6.95 29.629,6.87 C29.885,6.737 30.141,6.606 30.401,6.487 C30.555,6.415 30.711,6.349 30.866,6.282 C31.136,6.166 31.406,6.055 31.68,5.953 C31.826,5.897 31.974,5.843 32.122,5.79 C32.413,5.688 32.704,5.592 32.996,5.502 C33.126,5.462 33.255,5.423 33.384,5.386 C33.707,5.293 34.03,5.207 34.351,5.129 C34.448,5.106 34.545,5.08 34.642,5.058 C35.017,4.971 35.39,4.893 35.76,4.824 C35.801,4.816 35.842,4.806 35.882,4.799 C38.454,4.328 40.838,4.255 42.472,4.288 C42.508,4.288 42.541,4.289 42.576,4.29 C42.717,4.293 42.842,4.298 42.971,4.302 C40.021,8.499 36.401,12.817 32.423,16.876 C28.572,20.802 24.512,24.373 20.602,27.281 C20.598,27.173 20.594,27.056 20.591,26.939 C20.589,26.868 20.587,26.794 20.586,26.719 C20.581,26.489 20.578,26.241 20.578,25.982 C20.578,25.836 20.578,25.69 20.58,25.537 C20.582,25.389 20.583,25.242 20.586,25.087 C20.594,24.783 20.605,24.465 20.621,24.136 C20.625,24.05 20.629,23.964 20.634,23.877 C20.656,23.464 20.686,23.038 20.727,22.596 L19.731,22.504 L18.737,22.393 L18.735,22.413 C18.734,22.418 18.734,22.424 18.733,22.43 L18.689,22.915 C18.677,23.079 18.668,23.232 18.659,23.386 C18.552,25.014 18.563,26.413 18.603,27.424 L18.573,27.424 L18.573,45.742 L20.573,45.742 L20.573,30.095 C21.097,30.128 21.821,30.161 22.702,30.161 C27.04,30.161 35.04,29.385 40.115,24.206 C47.284,16.884 45.849,3.854 45.784,3.303" id="Amazon-Elastic-Beanstalk-Deployment_Resource-Icon_light-bg" fill="#FF9900"></path>
    </g>
</svg>