<?xml version="1.0" encoding="UTF-8"?>
<svg width="48px" height="48px" viewBox="0 0 48 48" version="1.1" xmlns="http://www.w3.org/2000/svg" xmlns:xlink="http://www.w3.org/1999/xlink">
    <title>Icon-Resource/Networking-and-Content-Delivery/Res_AWS-Amazon-VPC_Customer-Gateway_48_Dark</title>
    <g id="Icon-Resource/Networking-and-Content-Delivery/Res_AWS-Amazon-VPC_Customer-Gateway_48" stroke="none" stroke-width="1" fill="none" fill-rule="evenodd">
        <path d="M42.2081,24.707 L37.8331,29.082 L36.4191,27.668 L39.0871,25 L25.0001,25 L25.0001,39.086 L27.6681,36.418 L29.0821,37.832 L24.7071,42.207 C24.5121,42.402 24.2561,42.5 24.0001,42.5 C23.7441,42.5 23.4881,42.402 23.2931,42.207 L18.9181,37.832 L20.3321,36.418 L23.0001,39.086 L23.0001,25 L8.9151,25 L11.5831,27.668 L10.1691,29.082 L5.7941,24.707 C5.4031,24.316 5.4031,23.684 5.7941,23.293 L10.1691,18.917 L11.5831,20.331 L8.9151,23 L23.0001,23 L23.0001,8.913 L20.3321,11.581 L18.9181,10.167 L23.2931,5.792 C23.6841,5.401 24.3161,5.401 24.7071,5.792 L29.0821,10.167 L27.6681,11.581 L25.0001,8.913 L25.0001,23 L39.0871,23 L36.4191,20.331 L37.8331,18.917 L42.2081,23.293 C42.5991,23.684 42.5991,24.316 42.2081,24.707 M24.0001,44 C12.9721,44 4.0001,35.028 4.0001,24 C4.0001,12.972 12.9721,4 24.0001,4 C35.0281,4 44.0001,12.972 44.0001,24 C44.0001,35.028 35.0281,44 24.0001,44 M24.0001,2 C11.8691,2 2.0001,11.869 2.0001,24 C2.0001,36.131 11.8691,46 24.0001,46 C36.1311,46 46.0001,36.131 46.0001,24 C46.0001,11.869 36.1311,2 24.0001,2" id="AWS-Amazon-VPC_Customer-gateway_Resource-Icon_light-bg" fill="#A166FF"></path>
    </g>
</svg>