<?xml version="1.0" encoding="UTF-8"?>
<svg width="48px" height="48px" viewBox="0 0 48 48" version="1.1" xmlns="http://www.w3.org/2000/svg" xmlns:xlink="http://www.w3.org/1999/xlink">
    <title>Icon-Resource/Networking-and-Content-Delivery/Res_AWS-Amazon-VPC_VPN-Connection_48_Dark</title>
    <g id="Icon-Resource/Networking-and-Content-Delivery/Res_AWS-Amazon-VPC_VPN-Connection_48" stroke="none" stroke-width="1" fill="none" fill-rule="evenodd">
        <path d="M43.5938631,15.2041 C43.5968,15.4721 43.4928,15.7281 43.3048,15.9191 L38.9358,20.3361 L37.5138,18.9301 L40.1318,16.2821 L7.4778,16.2821 L10.1258,18.8941 L8.7218,20.3181 L4.2978,15.9541 C4.1078,15.7661 3.9998,15.5101 3.9998,15.2421 C3.9998,14.9751 4.1078,14.7181 4.2978,14.5301 L8.7218,10.1661 L10.1258,11.5901 L7.3968,14.2821 L40.1828,14.2821 L37.4248,11.6261 L38.8118,10.1841 L43.2868,14.4951 C43.4808,14.6811 43.5908,14.9361 43.5938631,15.2041 L43.5938631,15.2041 Z M16.4758,12.5851 L14.4758,12.5851 L14.4758,12.2001 C14.4948,6.5741 18.8698,2.0001 24.2298,2.0001 C29.6248,2.0191 33.9678,6.6361 33.9478688,12.2921 L33.9478688,12.5851 L31.9478,12.5851 L31.9478,12.2881 C31.9638,7.7311 28.5158,4.0161 24.2608,4.0001 C19.9698,4.0001 16.4908,7.6801 16.4758,12.2041 L16.4758,12.5851 Z M22.8008,28.8161 C23.1648,28.4521 23.6488,28.2521 24.1638,28.2521 L24.1658,28.2521 C24.6828,28.2521 25.1678,28.4531 25.5328,28.8181 C25.8978,29.1831 26.0978,29.6671 26.0968037,30.1831 L26.0968037,30.1831 C26.0968037,30.7001 25.8958,31.1851 25.5308,31.5511 C25.1658,31.9141 24.6828,32.1141 24.1668,32.1141 L24.1648,32.1141 C23.1008,32.1141 22.2348,31.2481 22.2348,30.1831 C22.2358,29.6671 22.4368,29.1811 22.8008,28.8161 L22.8008,28.8161 Z M23.1658,33.9701 L23.1658,39.1221 L25.1658,39.1221 L25.1658,33.9711 C25.8298,33.7961 26.4448,33.4641 26.9438,32.9661 C27.6868,32.2241 28.0968018,31.2361 28.0968018,30.1841 C28.0978,29.1351 27.6908,28.1471 26.9478,27.4051 C26.2048,26.6611 25.2178,26.2521 24.1668,26.2521 L24.1618,26.2521 C23.1138,26.2521 22.1278,26.6601 21.3868,27.4021 C20.6448,28.1431 20.2358,29.1311 20.2348,30.1831 C20.2348,32.0031 21.4848,33.5241 23.1658,33.9701 L23.1658,33.9701 Z M37.1618,44.0191 L11.1598,44.0081 L11.1668,24.1341 L37.1718,24.1441 L37.1618,44.0191 Z M38.1718,22.1441 L33.9478,22.1421 L33.9478,17.8821 L31.9478,17.8821 L31.9478,22.1411 L16.4758,22.1361 L16.4758,17.8821 L14.4758,17.8821 L14.4758,22.1361 L10.1668,22.1341 C9.9028,22.1341 9.6478,22.2391 9.4598,22.4271 C9.2728,22.6141 9.1668,22.8681 9.1668,23.1341 L9.1598,45.0081 C9.1598,45.5591 9.6078,46.0081 10.1598,46.0081 L38.1618,46.0191 C38.7138,46.0191 39.1618,45.5721 39.1618,45.0191 L39.1718,23.1441 C39.1718,22.8801 39.0668,22.6251 38.8788,22.4371 C38.6918,22.2501 38.4378,22.1441 38.1718,22.1441 L38.1718,22.1441 Z" id="AWS-Amazon-VPC_VPN-connection_Resource-Icon_light-bg" fill="#A166FF"></path>
    </g>
</svg>