<?xml version="1.0" encoding="UTF-8"?>
<svg width="48px" height="48px" viewBox="0 0 48 48" version="1.1" xmlns="http://www.w3.org/2000/svg" xmlns:xlink="http://www.w3.org/1999/xlink">
    <title>Icon-Resource/Machine-Learning/Res_Amazon-Sagemaker_Notebook_48_Dark</title>
    <g id="Icon-Resource/Machine-Learning/Res_Amazon-Sagemaker_Notebook_48" stroke="none" stroke-width="1" fill="none" fill-rule="evenodd">
        <path d="M7.972,2 L7.972,7.206 L5,7.206 L5,9.205 L7.972,9.205 L7.972,12.467 L5,12.467 L5,14.467 L7.972,14.467 L7.972,17.78 L5,17.78 L5,19.78 L7.972,19.78 L7.972,23.054 L5,23.054 L5,25.053 L7.972,25.053 L7.972,28.246 L5,28.246 L5,30.246 L7.972,30.246 L7.972,33.479 L5,33.479 L5,35.479 L7.972,35.479 L7.972,38.793 L5,38.793 L5,40.793 L7.972,40.793 L7.972,45.972 L43.586,45.972 L43.586,2 L7.972,2 Z M9.972,4 L41.586,4 L41.586,43.972 L9.972,43.972 L9.972,40.793 L13.052,40.793 L13.052,38.793 L9.972,38.793 L9.972,35.479 L13.052,35.479 L13.052,33.479 L9.972,33.479 L9.972,30.246 L13.052,30.246 L13.052,28.246 L9.972,28.246 L9.972,25.053 L13.052,25.053 L13.052,23.054 L9.972,23.054 L9.972,19.78 L13.052,19.78 L13.052,17.78 L9.972,17.78 L9.972,14.467 L13.052,14.467 L13.052,12.467 L9.972,12.467 L9.972,9.205 L13.052,9.205 L13.052,7.206 L9.972,7.206 L9.972,4 Z M16.862,9.205 L36.56,9.205 L36.56,7.205 L16.862,7.205 L16.862,9.205 Z M16.862,15.594 L36.56,15.594 L36.56,13.594 L16.862,13.594 L16.862,15.594 Z M16.862,21.927 L36.56,21.927 L36.56,19.926 L16.862,19.926 L16.862,21.927 Z M16.862,28.313 L26.764,28.313 L26.764,26.313 L16.862,26.313 L16.862,28.313 Z" id="Amazon-Machine-Learning_Notebook-Icon_light-bg" fill="#56C0A7"></path>
    </g>
</svg>