<?xml version="1.0" encoding="UTF-8"?>
<svg width="48px" height="48px" viewBox="0 0 48 48" version="1.1" xmlns="http://www.w3.org/2000/svg" xmlns:xlink="http://www.w3.org/1999/xlink">
    <title>Icon-Resource/Storage/Res_Amazon-Elastic-Block-Store_Amazon-Data-Lifecycle-Manager_48_Dark</title>
    <g id="Icon-Resource/Storage/Res_Amazon-Elastic-Block-Store_Amazon-Data-Lifecycle-Manager_48" stroke="none" stroke-width="1" fill="none" fill-rule="evenodd">
        <path d="M41.7998,34.5498 C41.1938,34.5498 40.6998,34.0568 40.6998,33.4498 C40.6998,32.8438 41.1938,32.3498 41.7998,32.3498 C42.4058,32.3498 42.9008,32.8438 42.9008,33.4498 C42.9008,34.0568 42.4058,34.5498 41.7998,34.5498 L41.7998,34.5498 Z M41.7998,30.3498 C40.0908,30.3498 38.6998,31.7408 38.6998,33.4498 C38.6998,34.3198 39.0628,35.1038 39.6418,35.6678 C36.1048,40.8998 30.3108,43.9998 23.9498,43.9998 C18.8108,43.9998 13.9988,41.9758 10.4038,38.3008 L8.9738,39.6988 C12.9488,43.7618 18.2678,45.9998 23.9498,45.9998 C31.0908,45.9998 37.5838,42.4638 41.4738,36.5168 C41.5828,36.5288 41.6878,36.5498 41.7998,36.5498 C43.5098,36.5498 44.9008,35.1588 44.9008,33.4498 C44.9008,31.7408 43.5098,30.3498 41.7998,30.3498 L41.7998,30.3498 Z M6.1008,34.5498 C5.4938,34.5498 4.9998,34.0568 4.9998,33.4498 C4.9998,32.8438 5.4938,32.3498 6.1008,32.3498 C6.7068,32.3498 7.1998,32.8438 7.1998,33.4498 C7.1998,34.0568 6.7068,34.5498 6.1008,34.5498 L6.1008,34.5498 Z M6.1008,30.3498 C5.9898,30.3498 5.8848,30.3718 5.7768,30.3828 C5.2718,28.6578 4.9998,26.8708 4.9998,25.0498 C4.9998,17.1898 9.9438,10.0558 17.3008,7.2998 L16.5998,5.4258 C8.4648,8.4748 2.9998,16.3608 2.9998,25.0498 C2.9998,27.1618 3.3298,29.2338 3.9458,31.2288 C3.3648,31.7928 2.9998,32.5788 2.9998,33.4498 C2.9998,35.1588 4.3908,36.5498 6.1008,36.5498 C7.8098,36.5498 9.1998,35.1588 9.1998,33.4498 C9.1998,31.7408 7.8098,30.3498 6.1008,30.3498 L6.1008,30.3498 Z M23.9498,3.9998 C24.5568,3.9998 25.0498,4.4938 25.0498,5.0998 C25.0498,5.7068 24.5568,6.1998 23.9498,6.1998 C23.3438,6.1998 22.8508,5.7068 22.8508,5.0998 C22.8508,4.4938 23.3438,3.9998 23.9498,3.9998 L23.9498,3.9998 Z M23.9498,8.1998 C25.2208,8.1998 26.3138,7.4298 26.7908,6.3328 C36.0328,7.7148 42.9008,15.5948 42.9008,25.0498 C42.9008,25.6668 42.8698,26.2898 42.8108,26.9028 L44.8008,27.0968 C44.8668,26.4198 44.9008,25.7308 44.9008,25.0498 C44.9008,14.5468 37.2358,5.8028 26.9428,4.3348 C26.5998,2.9968 25.3938,1.9998 23.9498,1.9998 C22.2408,1.9998 20.8508,3.3908 20.8508,5.0998 C20.8508,6.8098 22.2408,8.1998 23.9498,8.1998 L23.9498,8.1998 Z M32.9498,16.1458 L32.9498,33.9548 C32.9498,34.7058 31.5028,35.7598 28.3258,36.2998 C28.2828,36.3068 28.2288,36.3148 28.1658,36.3228 C27.2348,36.4448 24.3408,36.6418 23.9708,36.6488 C22.4708,36.5558 20.0908,36.3878 19.5728,36.2998 C16.3978,35.7598 14.9498,34.7058 14.9498,33.9548 L14.9498,16.1458 C14.9498,15.1778 17.9578,13.4498 23.9498,13.4498 C29.9428,13.4498 32.9498,15.1778 32.9498,16.1458 L32.9498,16.1458 Z M12.9498,16.1458 L12.9498,33.9548 C12.9498,36.0188 15.2418,37.5928 19.2378,38.2718 C20.0618,38.4118 23.5158,38.6498 23.9498,38.6498 C24.3848,38.6498 27.8388,38.4118 28.6608,38.2718 C32.6578,37.5928 34.9498,36.0188 34.9498,33.9548 L34.9498,16.1458 C34.9498,13.3808 30.4268,11.4498 23.9498,11.4498 C17.4738,11.4498 12.9498,13.3808 12.9498,16.1458 L12.9498,16.1458 Z M23.2918,24.4168 C23.4608,24.2408 23.6888,24.1418 23.9328,24.1368 C23.9388,24.1368 23.9458,24.1368 23.9508,24.1368 C24.1878,24.1368 24.4118,24.2268 24.5828,24.3918 C24.7588,24.5608 24.8588,24.7878 24.8628,25.0318 C24.8678,25.2758 24.7778,25.5068 24.6088,25.6828 C24.4398,25.8588 24.2118,25.9588 23.9678,25.9628 C23.7408,26.0008 23.4918,25.8778 23.3178,25.7088 C23.1418,25.5398 23.0418,25.3118 23.0368,25.0688 C23.0318,24.8238 23.1228,24.5928 23.2918,24.4168 L23.2918,24.4168 Z M21.0368,25.1068 C21.0528,25.8848 21.3698,26.6108 21.9308,27.1498 C22.4948,27.6928 23.2228,27.9618 23.9488,27.9618 C24.7148,27.9618 25.4788,27.6628 26.0498,27.0688 C26.5888,26.5078 26.8778,25.7708 26.8628,24.9928 C26.8478,24.2148 26.5298,23.4888 25.9698,22.9498 C24.8108,21.8368 22.9638,21.8728 21.8508,23.0308 C21.3118,23.5918 21.0228,24.3288 21.0368,25.1068 L21.0368,25.1068 Z M24.4898,21.5038 C24.7678,21.5028 25.0308,21.3858 25.2198,21.1818 L26.2308,20.0858 L27.9428,21.3318 L27.2028,22.6478 C27.0678,22.8898 27.0378,23.1768 27.1218,23.4418 L27.4358,24.4248 C27.5218,24.6938 27.7158,24.9128 27.9718,25.0298 L29.3458,25.6618 L28.6908,27.6758 L27.2038,27.3778 C26.9308,27.3218 26.6438,27.3848 26.4168,27.5508 L25.5808,28.1628 C25.3568,28.3268 25.2108,28.5768 25.1788,28.8538 L25.0038,30.3488 L22.8858,30.3468 L22.7128,28.8638 C22.6808,28.5898 22.5368,28.3408 22.3148,28.1758 L21.4688,27.5498 C21.2408,27.3828 20.9538,27.3158 20.6778,27.3738 L19.2058,27.6678 L18.5538,25.6528 L19.9348,25.0188 C20.1888,24.9028 20.3818,24.6858 20.4688,24.4208 L20.7858,23.4468 C20.8718,23.1808 20.8438,22.8908 20.7068,22.6478 L19.9638,21.3248 L21.6788,20.0818 L22.6968,21.1878 C22.8878,21.3948 23.1218,21.5028 23.4388,21.5098 L24.4898,21.5038 Z M22.5468,18.0728 C22.2028,17.6978 21.6338,17.6438 21.2248,17.9408 L18.0698,20.2288 C17.6578,20.5278 17.5358,21.0858 17.7838,21.5288 L18.7478,23.2438 L18.7018,23.3838 L16.9108,24.2058 C16.4498,24.4178 16.2208,24.9408 16.3768,25.4228 L17.5778,29.1318 C17.7348,29.6138 18.2248,29.8998 18.7258,29.8038 L20.6358,29.4218 L20.7768,29.5258 L21.0018,31.4618 C21.0608,31.9658 21.4878,32.3458 21.9938,32.3458 L25.8928,32.3498 L25.8938,32.3498 C26.4008,32.3498 26.8278,31.9698 26.8868,31.4668 L27.1138,29.5188 L27.2428,29.4248 L29.1698,29.8118 C29.6598,29.9118 30.1588,29.6228 30.3178,29.1408 L31.5238,25.4338 C31.6808,24.9508 31.4508,24.4278 30.9888,24.2158 L29.2068,23.3968 L29.1598,23.2488 L30.1218,21.5358 C30.3698,21.0938 30.2478,20.5358 29.8388,20.2378 L26.6878,17.9448 C26.2768,17.6458 25.7068,17.7018 25.3628,18.0748 L24.0438,19.5068 L23.8688,19.5078 L22.5468,18.0728 Z" id="Fill-1" fill="#6CAE3E"></path>
    </g>
</svg>