<?xml version="1.0" encoding="UTF-8"?>
<svg width="48px" height="48px" viewBox="0 0 48 48" version="1.1" xmlns="http://www.w3.org/2000/svg" xmlns:xlink="http://www.w3.org/1999/xlink">
    <title>Icon-Resource/Database/Res_Amazon-Aurora_Amazon-RDS-Instance-Aternate_48_Dark</title>
    <g id="Icon-Resource/Database/Res_Amazon-Aurora_Amazon-RDS-Instance-Aternate_48" stroke="none" stroke-width="1" fill="none" fill-rule="evenodd">
        <path d="M23.8176,23.376 C23.9266,23.638 23.9826,23.953 23.9826,24.324 C23.9826,25.043 23.7506,25.612 23.2846,26.032 C22.8186,26.452 22.1776,26.662 21.3606,26.662 C21.0046,26.662 20.6486,26.62 20.2936,26.537 C19.9376,26.454 19.6386,26.345 19.3966,26.208 L19.3966,25.017 C19.6766,25.122 19.9936,25.211 20.3436,25.283 C20.6966,25.355 20.9976,25.392 21.2476,25.392 C21.6106,25.392 21.8856,25.306 22.0756,25.136 C22.2646,24.966 22.3596,24.722 22.3596,24.403 C22.3596,24.169 22.2926,23.971 22.1606,23.808 C22.0286,23.645 21.8066,23.48 21.4966,23.314 L20.8836,22.985 C20.3246,22.683 19.9216,22.356 19.6796,22.009 C19.4376,21.661 19.3166,21.237 19.3166,20.737 C19.3166,20.276 19.4236,19.873 19.6346,19.528 C19.8466,19.185 20.1356,18.92 20.5046,18.733 C20.8706,18.549 21.2926,18.456 21.7686,18.456 C22.3666,18.456 22.9616,18.592 23.5506,18.865 L23.5506,20.068 C22.9376,19.841 22.3966,19.728 21.9276,19.728 C21.6106,19.728 21.3606,19.807 21.1786,19.966 C20.9976,20.124 20.9066,20.345 20.9066,20.624 C20.9066,20.858 20.9646,21.051 21.0826,21.203 C21.1996,21.354 21.4246,21.521 21.7576,21.702 L22.3706,22.031 C22.7636,22.243 23.0766,22.455 23.3066,22.667 C23.5376,22.879 23.7086,23.115 23.8176,23.376 L23.8176,23.376 Z M16.7756,22.667 C16.7756,23.552 16.6536,24.208 16.4126,24.637 C16.1696,25.063 15.8016,25.277 15.3106,25.277 L14.6406,25.277 L14.6406,19.841 L15.2986,19.841 C15.8056,19.841 16.1786,20.051 16.4176,20.471 C16.6556,20.891 16.7756,21.548 16.7756,22.44 L16.7756,22.667 Z M15.4236,18.626 L13.0516,18.626 L13.0516,26.492 L15.4806,26.492 C16.4336,26.492 17.1606,26.159 17.6606,25.493 C18.1606,24.827 18.4096,23.848 18.4096,22.554 C18.4096,21.267 18.1556,20.292 17.6496,19.625 C17.1416,18.96 16.4006,18.626 15.4236,18.626 L15.4236,18.626 Z M9.9696,22.065 C9.8156,22.285 9.5896,22.395 9.2956,22.395 L8.5576,22.395 L8.5576,19.807 L9.2956,19.807 C9.5896,19.807 9.8156,19.916 9.9696,20.137 C10.1256,20.355 10.2036,20.677 10.2036,21.101 C10.2036,21.524 10.1256,21.846 9.9696,22.065 L9.9696,22.065 Z M11.4636,22.475 C11.6676,22.088 11.7696,21.63 11.7696,21.101 C11.7696,20.337 11.5626,19.733 11.1516,19.29 C10.7386,18.848 10.1846,18.626 9.4886,18.626 L7.0026,18.626 L7.0026,26.492 L8.5576,26.492 L8.5576,23.575 L9.1706,23.575 L10.5446,26.492 L12.1776,26.492 L10.5886,23.337 C10.9666,23.147 11.2586,22.859 11.4636,22.475 L11.4636,22.475 Z M41.2626,9.625 C41.4936,9.913 41.6096,10.333 41.6096,10.885 L41.6096,15.142 L40.0536,15.142 L40.0536,11.328 C40.0536,10.995 40.0086,10.753 39.9176,10.602 C39.8276,10.45 39.6716,10.374 39.4526,10.374 C39.2176,10.374 38.9606,10.465 38.6796,10.647 L38.6796,15.142 L37.1256,15.142 L37.1256,9.342 L38.3966,9.342 L38.5216,9.863 C39.1276,9.417 39.7066,9.194 40.2586,9.194 C40.6966,9.194 41.0316,9.338 41.2626,9.625 L41.2626,9.625 Z M34.2936,13.66 C34.1696,13.96 33.9656,14.109 33.6866,14.109 C33.4066,14.109 33.2046,13.96 33.0796,13.66 C32.9556,13.362 32.8916,12.891 32.8916,12.248 C32.8916,11.604 32.9556,11.131 33.0796,10.828 C33.2046,10.525 33.4066,10.374 33.6866,10.374 C33.9656,10.374 34.1696,10.525 34.2936,10.828 C34.4196,11.131 34.4806,11.604 34.4806,12.248 C34.4806,12.891 34.4196,13.362 34.2936,13.66 L34.2936,13.66 Z M33.6866,9.194 C32.9376,9.194 32.3586,9.459 31.9496,9.988 C31.5416,10.519 31.3376,11.271 31.3376,12.248 C31.3376,13.216 31.5416,13.965 31.9496,14.494 C32.3586,15.024 32.9376,15.289 33.6866,15.289 C34.4356,15.289 35.0146,15.024 35.4226,14.494 C35.8316,13.965 36.0366,13.216 36.0366,12.248 C36.0366,11.271 35.8316,10.519 35.4226,9.988 C35.0146,9.459 34.4356,9.194 33.6866,9.194 L33.6866,9.194 Z M28.2386,13.949 L30.6336,13.949 L30.6336,15.142 L26.6046,15.142 L26.6046,14.041 L28.9536,10.533 L26.6946,10.533 L26.6946,9.342 L30.5886,9.342 L30.5886,10.442 L28.2386,13.949 Z M24.2426,13.836 C23.9926,14.078 23.7446,14.199 23.4946,14.199 C23.3346,14.199 23.2086,14.134 23.1136,14.001 C23.0186,13.868 22.9706,13.688 22.9706,13.462 C22.9706,13.197 23.0306,12.995 23.1476,12.855 C23.2646,12.715 23.4336,12.646 23.6526,12.646 C23.8796,12.646 24.0766,12.672 24.2426,12.725 L24.2426,13.836 Z M23.7996,9.194 C23.4286,9.194 23.0656,9.235 22.7106,9.319 C22.3546,9.402 22.0676,9.516 21.8486,9.659 L21.8486,10.692 C22.5066,10.45 23.0626,10.329 23.5156,10.329 C23.7966,10.329 23.9876,10.399 24.0896,10.539 C24.1916,10.68 24.2426,10.945 24.2426,11.339 L24.2426,11.861 C23.8946,11.772 23.6026,11.725 23.3686,11.725 C22.8016,11.725 22.3516,11.89 22.0176,12.219 C21.6856,12.548 21.5186,12.996 21.5186,13.564 C21.5186,14.102 21.6546,14.523 21.9276,14.829 C22.1996,15.137 22.5706,15.289 23.0396,15.289 C23.2896,15.289 23.5356,15.227 23.7776,15.103 C24.0196,14.977 24.2056,14.816 24.3346,14.62 L24.4696,15.142 L25.6726,15.142 L25.6726,11.078 C25.6726,10.42 25.5256,9.941 25.2306,9.643 C24.9346,9.344 24.4586,9.194 23.7996,9.194 L23.7996,9.194 Z M18.8636,15.142 L18.8636,11.316 C18.8636,10.991 18.8186,10.753 18.7326,10.602 C18.6446,10.45 18.5006,10.374 18.2956,10.374 C18.0766,10.374 17.8266,10.465 17.5466,10.647 C17.5536,10.685 17.5576,10.727 17.5576,10.772 L17.5576,10.908 L17.5576,15.142 L16.0036,15.142 L16.0036,11.316 C16.0036,10.991 15.9596,10.753 15.8726,10.602 C15.7856,10.45 15.6396,10.374 15.4346,10.374 C15.2236,10.374 14.9766,10.465 14.6976,10.647 L14.6976,15.142 L13.1416,15.142 L13.1416,9.342 L14.4136,9.342 L14.5396,9.863 C15.1436,9.417 15.7116,9.194 16.2416,9.194 C16.7786,9.194 17.1566,9.425 17.3766,9.887 C17.9966,9.425 18.5716,9.194 19.1006,9.194 C19.5246,9.194 19.8506,9.34 20.0776,9.631 C20.3036,9.923 20.4186,10.341 20.4186,10.885 L20.4186,15.142 L18.8636,15.142 Z M8.6026,12.134 L9.2956,8.876 L10.0096,12.134 L8.6026,12.134 Z M8.4786,7.276 L6.2986,15.142 L7.9676,15.142 L8.3646,13.27 L10.2486,13.27 L10.6576,15.142 L12.4056,15.142 L10.2376,7.276 L8.4786,7.276 Z M43.9086,39.461 C43.9086,41.913 41.9136,43.908 39.4616,43.908 L8.4476,43.908 C5.9956,43.908 4.0006,41.913 4.0006,39.461 L4.0006,8.447 C4.0006,5.995 5.9956,4 8.4476,4 L39.4616,4 C41.9136,4 43.9086,5.995 43.9086,8.447 L43.9086,39.461 Z M39.4616,2 L8.4476,2 C4.8926,2 2.0006,4.893 2.0006,8.447 L2.0006,39.461 C2.0006,43.016 4.8926,45.908 8.4476,45.908 L39.4616,45.908 C43.0156,45.908 45.9086,43.016 45.9086,39.461 L45.9086,8.447 C45.9086,4.893 43.0156,2 39.4616,2 L39.4616,2 Z" id="Amazon-DATABASEAmazon-Aurora-Amazon-RDS-instance-alternate_Resource-Icon_light-bg" fill="#527FFF"></path>
    </g>
</svg>