<?xml version="1.0" encoding="UTF-8"?>
<svg width="48px" height="48px" viewBox="0 0 48 48" version="1.1" xmlns="http://www.w3.org/2000/svg" xmlns:xlink="http://www.w3.org/1999/xlink">
    <title>Icon-Resource/Quantum-Technologies/Res_Amazon-Braket-Chip _48_Dark</title>
    <g id="Icon-Resource/Quantum-Technologies/Res_Amazon-Braket-Chip-_48" stroke="none" stroke-width="1" fill="none" fill-rule="evenodd">
        <path d="M33.131,4.08174784 C32.92,4.02674784 32.709,4.00074784 32.501,4.00074784 C31.391,4.00074784 30.375,4.74674784 30.082,5.86974784 C29.735,7.20374784 30.536,8.57074784 31.869,8.91874784 C33.205,9.26874784 34.57,8.46374784 34.918,7.13074784 C35.266,5.79674784 34.464,4.42974784 33.131,4.08174784 L33.131,4.08174784 Z M22.131,10.0817478 C21.92,10.0267478 21.709,10.0007478 21.501,10.0007478 C20.391,10.0007478 19.375,10.7467478 19.082,11.8697478 C18.735,13.2037478 19.536,14.5707478 20.869,14.9187478 C22.206,15.2667478 23.57,14.4637478 23.918,13.1307478 C24.266,11.7967478 23.464,10.4297478 22.131,10.0817478 L22.131,10.0817478 Z M16,20.4997478 C16,19.1217478 14.879,17.9997478 13.5,17.9997478 C12.121,17.9997478 11,19.1217478 11,20.4997478 C11,21.8787478 12.121,22.9997478 13.5,22.9997478 C14.879,22.9997478 16,21.8787478 16,20.4997478 L16,20.4997478 Z M12,15.9997478 L12,16.2767478 C12.472,16.1087478 12.972,15.9997478 13.5,15.9997478 C14.228,15.9997478 14.904,16.1897478 15.514,16.4977478 C15.725,16.2807478 15.932,16.0637478 16.148,15.8487478 C16.6,15.3967478 17.057,14.9727478 17.513,14.5407478 C17.027,13.5917478 16.858,12.4757478 17.147,11.3657478 C17.18,11.2367478 17.238,11.1237478 17.282,10.9997478 L12,10.9997478 L12,15.9997478 Z M9,31.4997478 C9,30.1217478 7.879,28.9997478 6.5,28.9997478 C5.121,28.9997478 4,30.1217478 4,31.4997478 C4,32.8787478 5.121,33.9997478 6.5,33.9997478 C7.879,33.9997478 9,32.8787478 9,31.4997478 L9,31.4997478 Z M46.107,8.03374784 L44.122,8.27874784 C43.988,7.19974784 43.609,6.33974784 42.993,5.72574784 C41.781,4.51174784 39.561,4.24174784 36.701,4.91774784 C37.019,5.75974784 37.097,6.70074784 36.854,7.63474784 L36.854,7.63574784 C36.326,9.65674784 34.497,10.9997478 32.499,10.9997478 C32.124,10.9997478 31.744,10.9527478 31.365,10.8537478 C30.075,10.5177478 29.077,9.64374784 28.513,8.54074784 C28.342,8.64474784 28.172,8.74574784 28,8.85274784 L28,8.99974784 L27.758,8.99974784 C27.012,9.47274784 26.263,9.97674784 25.512,10.5107478 C25.978,11.4497478 26.138,12.5437478 25.854,13.6347478 L25.854,13.6357478 C25.326,15.6567478 23.497,16.9997478 21.499,16.9997478 C21.124,16.9997478 20.744,16.9527478 20.365,16.8537478 C19.777,16.7007478 19.247,16.4337478 18.789,16.0867478 C18.38,16.4767478 17.968,16.8567478 17.562,17.2637478 C17.391,17.4337478 17.227,17.6057478 17.059,17.7777478 C17.641,18.5367478 18,19.4727478 18,20.4997478 C18,22.9817478 15.982,24.9997478 13.5,24.9997478 C12.726,24.9997478 12.008,24.7857478 11.371,24.4397478 C10.539,25.5687478 9.762,26.6997478 9.069,27.8147478 C10.234,28.6287478 11,29.9747478 11,31.4997478 C11,33.9817478 8.982,35.9997478 6.5,35.9997478 C6.102,35.9997478 5.722,35.9317478 5.354,35.8337478 C4.492,38.9797478 4.718,41.3887478 6.024,42.6947478 C6.719,43.3897478 7.725,43.7827478 9.012,43.8617478 L8.889,45.8577478 C7.1,45.7487478 5.66,45.1597478 4.61,44.1087478 C2.684,42.1827478 2.341,38.9987478 3.562,34.8797478 C2.613,34.0547478 2,32.8537478 2,31.4997478 C2,29.0187478 4.019,26.9997478 6.5,26.9997478 C6.891,26.9997478 7.264,27.0657478 7.625,27.1597478 L7.257,26.9337478 C8.031,25.6737478 8.913,24.3937478 9.858,23.1217478 C9.827,23.0797478 9.791,23.0427478 9.762,22.9997478 L6,22.9997478 L6,20.9997478 L9.051,20.9997478 C9.032,20.8337478 9,20.6717478 9,20.4997478 C9,19.5757478 9.281,18.7157478 9.762,17.9997478 L6,17.9997478 L6,15.9997478 L10,15.9997478 L10,12.9997478 L6,12.9997478 L6,10.9997478 L10,10.9997478 L10,9.99974784 C10,9.44774784 10.447,8.99974784 11,8.99974784 L11,4.99974784 L13,4.99974784 L13,8.99974784 L16,8.99974784 L16,4.99974784 L18,4.99974784 L18,8.99974784 L18.701,8.99974784 C19.36,8.47574784 20.152,8.13774784 21,8.04074784 L21,4.99974784 L23,4.99974784 L23,8.28174784 C23.459,8.44574784 23.888,8.66074784 24.257,8.94774784 C24.838,8.53274784 25.42,8.13174784 26,7.75074784 L26,4.99974784 L28,4.99974784 L28,6.51274784 C28.006,6.50874784 28.012,6.50474784 28.018,6.50174784 C28.018,6.12574784 28.047,5.74674784 28.147,5.36574784 C28.773,2.96374784 31.236,1.52074784 33.635,2.14574784 C34.353,2.33274784 34.971,2.69874784 35.487,3.16374784 C39.455,2.05374784 42.54,2.44474784 44.407,4.31074784 C45.346,5.24874784 45.917,6.50074784 46.107,8.03374784 L46.107,8.03374784 Z M40,9.99974784 L38,9.99974784 L38,36.9997478 L12,36.9997478 L12,35.9997478 L10,35.9997478 L10,37.9997478 C10,38.5527478 10.447,38.9997478 11,38.9997478 L11,42.9997478 L13,42.9997478 L13,38.9997478 L16,38.9997478 L16,42.9997478 L18,42.9997478 L18,38.9997478 L21,38.9997478 L21,42.9997478 L23,42.9997478 L23,38.9997478 L26,38.9997478 L26,42.9997478 L28,42.9997478 L28,38.9997478 L31,38.9997478 L31,42.9997478 L33,42.9997478 L33,38.9997478 L36,38.9997478 L36,42.9997478 L38,42.9997478 L38,38.9997478 L39,38.9997478 C39.553,38.9997478 40,38.5527478 40,37.9997478 L43,37.9997478 L43,35.9997478 L40,35.9997478 L40,32.9997478 L43,32.9997478 L43,30.9997478 L40,30.9997478 L40,27.9997478 L43,27.9997478 L43,25.9997478 L40,25.9997478 L40,22.9997478 L43,22.9997478 L43,20.9997478 L40,20.9997478 L40,17.9997478 L43,17.9997478 L43,15.9997478 L40,15.9997478 L40,12.9997478 L43,12.9997478 L43,10.9997478 L40,10.9997478 L40,9.99974784 Z M18,25.9997478 L18,29.9997478 L31,29.9997478 L31,16.9997478 L28,16.9997478 L28,14.9997478 L32,14.9997478 C32.553,14.9997478 33,15.4477478 33,15.9997478 L33,30.9997478 C33,31.5527478 32.553,31.9997478 32,31.9997478 L17,31.9997478 C16.447,31.9997478 16,31.5527478 16,30.9997478 L16,25.9997478 L18,25.9997478 Z" id="Fill-1" fill="#FF9900"></path>
    </g>
</svg>