<?xml version="1.0" encoding="UTF-8"?>
<svg width="48px" height="48px" viewBox="0 0 48 48" version="1.1" xmlns="http://www.w3.org/2000/svg" xmlns:xlink="http://www.w3.org/1999/xlink">
    <title>Icon-Resource/Networking-and-Content-Delivery/Res_AWS-Amazon-VPC_Traffic-Mirroring_48_Dark</title>
    <g id="Icon-Resource/Networking-and-Content-Delivery/Res_AWS-Amazon-VPC_Traffic-Mirroring_48" stroke="none" stroke-width="1" fill="none" fill-rule="evenodd">
        <path d="M10.0904,26.916 C10.4814,27.307 10.4814,27.939 10.0904,28.33 C9.8954,28.525 9.6394,28.623 9.3834,28.623 C9.1274,28.623 8.8714,28.525 8.6764,28.33 L5.9404,25.595 C5.5494,25.204 5.5494,24.571 5.9404,24.181 L8.6764,21.444 C9.0674,21.054 9.6994,21.054 10.0904,21.444 C10.4814,21.835 10.4814,22.468 10.0904,22.858 L9.0614,23.888 L13.9434,23.888 L13.9434,25.888 L9.0624,25.888 L10.0904,26.916 Z M42.0094,25.595 L39.2734,28.33 C39.0774,28.525 38.8214,28.623 38.5664,28.623 C38.3104,28.623 38.0544,28.525 37.8594,28.33 C37.4684,27.939 37.4684,27.307 37.8594,26.916 L38.8884,25.888 L37.6534,25.888 L37.6534,23.888 L38.8884,23.888 L37.8594,22.858 C37.4684,22.468 37.4684,21.835 37.8594,21.444 C38.2494,21.054 38.8824,21.054 39.2734,21.444 L42.0094,24.181 C42.4004,24.571 42.4004,25.204 42.0094,25.595 L42.0094,25.595 Z M34.0064,25.888 L36.7414,25.888 L36.7414,23.888 L34.0064,23.888 L34.0064,25.888 Z M30.2084,14.14 L28.2744,16.074 L26.8604,14.66 L28.7944,12.726 L30.2084,14.14 Z M25.7104,19.415 L27.7104,19.415 L27.7104,16.68 L25.7104,16.68 L25.7104,19.415 Z M25.7104,23.063 L27.7104,23.063 L27.7104,20.327 L25.7104,20.327 L25.7104,23.063 Z M25.7104,26.711 L27.7104,26.711 L27.7104,23.976 L25.7104,23.976 L25.7104,26.711 Z M25.7104,30.359 L27.7104,30.359 L27.7104,27.623 L25.7104,27.623 L25.7104,30.359 Z M25.7104,34.006 L27.7104,34.006 L27.7104,31.271 L25.7104,31.271 L25.7104,34.006 Z M25.7104,37.655 L27.7104,37.655 L27.7104,34.919 L25.7104,34.919 L25.7104,37.655 Z M31.1824,12.208 L25.8174,12.208 L25.8174,10.208 L33.1824,10.208 L33.1824,17.592 L31.1824,17.592 L31.1824,12.208 Z M18.1814,12.208 L22.2384,16.266 L22.2384,37.655 L20.2384,37.655 L20.2384,17.094 L16.7844,13.64 L16.7844,17.592 L14.7844,17.592 L14.7844,10.208 L22.1514,10.208 L22.1514,12.208 L18.1814,12.208 Z M33.9184,29.447 L35.9184,29.447 L35.9184,35.919 L29.4464,35.919 L29.4464,33.919 L32.5044,33.919 L30.5634,31.978 L31.9774,30.564 L33.9184,32.505 L33.9184,29.447 Z M35.6114,20.136 L34.1974,18.722 L36.9464,15.973 L38.3614,17.387 L35.6114,20.136 Z M30.5634,22.356 L33.2724,19.647 L34.6864,21.062 L31.9774,23.77 L30.5634,22.356 Z M30.2704,26.711 L32.2704,26.711 L32.2704,24.029 L30.2704,24.029 L30.2704,26.711 Z M30.2704,30.359 L32.2704,30.359 L32.2704,27.704 L30.2704,27.704 L30.2704,30.359 Z M15.4454,33.919 L18.5024,33.919 L18.5024,35.919 L12.0304,35.919 L12.0304,29.447 L14.0304,29.447 L14.0304,32.505 L15.6794,30.857 L15.6794,23.478 L9.5884,17.387 L11.0024,15.973 L17.6794,22.649 L17.6794,31.686 L15.4454,33.919 Z M23.9744,43.95 C12.9604,43.95 3.9994,34.989 3.9994,23.976 C3.9994,12.961 12.9604,4 23.9744,4 C34.9884,4 43.9494,12.961 43.9494,23.976 C43.9494,34.989 34.9884,43.95 23.9744,43.95 L23.9744,43.95 Z M23.9744,2 C11.8574,2 1.9994,11.858 1.9994,23.976 C1.9994,36.093 11.8574,45.95 23.9744,45.95 C36.0914,45.95 45.9494,36.093 45.9494,23.976 C45.9494,11.858 36.0914,2 23.9744,2 L23.9744,2 Z" id="AWS-Amazon-VPC_Traffic-Mirroring_Resource-Icon_light-bg" fill="#A166FF"></path>
    </g>
</svg>