<?xml version="1.0" encoding="UTF-8"?>
<svg width="48px" height="48px" viewBox="0 0 48 48" version="1.1" xmlns="http://www.w3.org/2000/svg" xmlns:xlink="http://www.w3.org/1999/xlink">
    <title>Icon-Resource/Security, Identity, /Res_AWS-Network-Firewall_Endpoints_48_Dark</title>
    <g id="Icon-Resource/Security,-Identity,-/Res_AWS-Network-Firewall_Endpoints_48" stroke="none" stroke-width="1" fill="none" fill-rule="evenodd">
        <path d="M45.41225,23.293 L41.97425,19.855 L40.55925,21.269 L42.29125,23 L35.82825,23 L35.82825,25 L42.29125,25 L40.55925,26.731 L41.97425,28.146 L45.41225,24.707 C45.80325,24.316 45.80325,23.684 45.41225,23.293 L45.41225,23.293 Z M7.12125,21.293 L5.70725,19.879 L2.29325,23.293 C1.90225,23.684 1.90225,24.316 2.29325,24.707 L5.70725,28.121 L7.12125,26.707 L5.41425,25 L11.82825,25 L11.82825,23 L5.41425,23 L7.12125,21.293 Z M31.82825,25 L24.82825,25 L24.82825,28 L29.82825,28 L31.82825,28 L31.82825,25 Z M28.82825,30 L23.82825,30 L21.82825,30 L21.82825,33 L28.82825,33 L28.82825,30 Z M15.82825,28 L20.82825,28 L22.82825,28 L22.82825,25 L15.82825,25 L15.82825,28 Z M17.63025,23 L23.82825,23 L29.93425,23 C29.91225,21.739 29.59925,20.842 29.24725,20.241 C28.58325,21.485 27.49325,21.901 26.85325,21.929 C26.57725,21.93 26.31625,21.841 26.11925,21.652 C25.92225,21.463 25.81025,21.202 25.81025,20.93 C25.81025,17.192 23.48725,15.295 21.55725,14.363 C22.01325,15.626 22.18425,17.336 21.40925,19.466 C21.27525,19.833 20.93925,20.088 20.55025,20.12 C20.14425,20.15 19.78625,19.951 19.59625,19.61 C19.39525,19.251 19.02525,18.711 18.59125,18.244 C18.77325,19.536 18.74225,21.135 17.90525,22.406 C17.79425,22.601 17.71025,22.8 17.63025,23 L17.63025,23 Z M33.82825,24 L33.82825,29 C33.82825,29.552 33.38125,30 32.82825,30 L30.82825,30 L30.82825,34 C30.82825,34.552 30.38125,35 29.82825,35 L20.82825,35 C20.27525,35 19.82825,34.552 19.82825,34 L19.82825,30 L14.82825,30 C14.27525,30 13.82825,29.552 13.82825,29 L13.82825,24 C13.82825,23.448 14.27525,23 14.82825,23 L15.54225,23 C15.68425,22.458 15.87525,21.93 16.15525,21.439 C16.16325,21.426 16.21725,21.334 16.22525,21.321 C17.13025,19.947 16.47225,17.501 16.14125,16.674 C16.01925,16.366 16.05725,16.016 16.24325,15.742 C16.42925,15.467 16.73925,15.302 17.07025,15.302 C18.20325,15.302 19.19225,15.996 19.93325,16.753 C19.98225,14.54 18.61625,13.378 18.54325,13.317 C18.19625,13.03 18.08025,12.545 18.26425,12.134 C18.44725,11.724 18.87625,11.48 19.32425,11.552 C21.94025,11.952 26.63425,14.011 27.62425,18.979 C27.69525,18.768 27.75325,18.512 27.78625,18.199 C27.82125,17.865 28.02125,17.571 28.31825,17.417 C28.61825,17.262 28.97425,17.267 29.26625,17.429 C29.37425,17.49 31.88225,18.936 31.93725,23 L32.82825,23 C33.38125,23 33.82825,23.448 33.82825,24 L33.82825,24 Z M4.75025,18 C7.30625,9.895 14.89025,4 23.82825,4 C32.76625,4 40.35025,9.895 42.90625,18 L44.98925,18 C42.37125,8.777 33.87925,2 23.82825,2 C13.77725,2 5.28525,8.777 2.66725,18 L4.75025,18 Z M44.98925,30 C42.37125,39.223 33.87925,46 23.82825,46 C13.77725,46 5.28525,39.223 2.66725,30 L4.75025,30 C7.30625,38.105 14.89025,44 23.82825,44 C32.76625,44 40.35025,38.105 42.90625,30 L44.98925,30 Z" id="Fill-1" fill="#FF5252"></path>
    </g>
</svg>