<?xml version="1.0" encoding="UTF-8"?>
<svg width="48px" height="48px" viewBox="0 0 48 48" version="1.1" xmlns="http://www.w3.org/2000/svg" xmlns:xlink="http://www.w3.org/1999/xlink">
    <title>Icon-Resource/Management-Governance/Res_Amazon-CloudWatch_Evidently_48_Dark</title>
    <g id="Icon-Resource/Management-Governance/Res_Amazon-CloudWatch_Evidently_48" stroke="none" stroke-width="1" fill="none" fill-rule="evenodd">
        <path d="M9.5,21 C10.879,21 12,22.122 12,23.5 C12,24.878 10.879,26 9.5,26 C8.121,26 7,24.878 7,23.5 C7,22.122 8.121,21 9.5,21 L9.5,21 Z M23.5,12 C24.879,12 26,13.122 26,14.5 C26,15.878 24.879,17 23.5,17 C22.121,17 21,15.878 21,14.5 C21,13.122 22.121,12 23.5,12 L23.5,12 Z M39.5,4 C40.879,4 42,5.122 42,6.5 C42,7.878 40.879,9 39.5,9 C38.121,9 37,7.878 37,6.5 C37,5.122 38.121,4 39.5,4 L39.5,4 Z M9.5,28 C11.981,28 14,25.981 14,23.5 C14,22.89 13.875,22.309 13.654,21.778 L20.496,17.868 L20.451,17.789 C21.254,18.534 22.32,19 23.5,19 C25.981,19 28,16.981 28,14.5 C28,14.053 27.914,13.63 27.793,13.222 L35.898,9.169 C36.718,10.274 38.021,11 39.5,11 C41.981,11 44,8.981 44,6.5 C44,4.019 41.981,2 39.5,2 C37.019,2 35,4.019 35,6.5 C35,6.787 35.033,7.067 35.085,7.339 L26.81,11.477 C25.987,10.576 24.814,10 23.5,10 C21.019,10 19,12.019 19,14.5 C19,15.11 19.125,15.691 19.346,16.222 L12.504,20.132 L12.549,20.211 C11.746,19.466 10.68,19 9.5,19 C7.019,19 5,21.019 5,23.5 C5,25.981 7.019,28 9.5,28 L9.5,28 Z M42,41 C42,42.654 40.654,44 39,44 C37.346,44 36,42.654 36,41 L36,15 L42,15 L42,41 Z M46,13 L32,13 L32,15 L34,15 L34,41 C34,43.757 36.243,46 39,46 C41.757,46 44,43.757 44,41 L44,15 L46,15 L46,13 Z M27,41 C27,42.654 25.654,44 24,44 C22.346,44 21,42.654 21,41 L21,23 L27,23 L27,41 Z M17,23 L19,23 L19,41 C19,43.757 21.243,46 24,46 C26.757,46 29,43.757 29,41 L29,23 L31,23 L31,21 L17,21 L17,23 Z M12,41 C12,42.654 10.654,44 9,44 C7.346,44 6,42.654 6,41 L6,31 L12,31 L12,41 Z M2,31 L4,31 L4,41 C4,43.757 6.243,46 9,46 C11.757,46 14,43.757 14,41 L14,31 L16,31 L16,29 L2,29 L2,31 Z" id="Fill-3" fill="#FF4F8B"></path>
    </g>
</svg>