<?xml version="1.0" encoding="UTF-8"?>
<svg width="48px" height="48px" viewBox="0 0 48 48" version="1.1" xmlns="http://www.w3.org/2000/svg" xmlns:xlink="http://www.w3.org/1999/xlink">
    <title>Icon-Resource/Compute/Res_Amazon-Elastic-Beanstalk_Application_48_Dark</title>
    <g id="Icon-Resource/Compute/Res_Amazon-Elastic-Beanstalk_Application_48" stroke="none" stroke-width="1" fill="none" fill-rule="evenodd">
        <path d="M30.3558008,22.791794 C25.7258008,27.520794 18.2428008,28.219794 14.1828008,28.215811 C17.9428008,25.339794 21.7928008,21.918794 25.4478008,18.188794 C29.2668008,14.289794 32.7538008,10.168794 35.6678008,6.13679399 C35.6828008,10.294794 35.0198008,18.029794 30.3558008,22.791794 M18.3428008,8.50579399 C18.4578008,8.41079399 18.5768008,8.32379399 18.6928008,8.23179399 C18.9348008,8.04179399 19.1798008,7.85679399 19.4318008,7.68379399 C19.5708008,7.58779399 19.7108008,7.49579399 19.8528008,7.40479399 C20.0968008,7.24779399 20.3438008,7.09879399 20.5948008,6.95579399 C20.7388008,6.87379399 20.8798008,6.79179399 21.0258008,6.71479399 C21.3018008,6.56679399 21.5828008,6.43079399 21.8658008,6.29879399 C21.9858008,6.24179399 22.1038008,6.18179399 22.2238008,6.12779399 C22.6228008,5.95179399 23.0238008,5.78879399 23.4278008,5.64079399 C23.5358008,5.60079399 23.6428008,5.56779399 23.7498008,5.53079399 C24.0548008,5.42379399 24.3618008,5.32079399 24.6688008,5.22879399 C24.8318008,5.17979399 24.9948008,5.13479399 25.1578008,5.08979399 C25.4108008,5.01879399 25.6638008,4.95079399 25.9158008,4.88879399 C26.0878008,4.84679399 26.2588008,4.80579399 26.4308008,4.76679399 C26.6778008,4.71179399 26.9228008,4.66079399 27.1678008,4.61179399 C27.3328008,4.57979399 27.4988008,4.54579399 27.6628008,4.51779399 C27.9308008,4.46879399 28.1958008,4.42779399 28.4598008,4.38879399 C28.5898008,4.36879399 28.7238008,4.34579399 28.8528008,4.32779399 C29.2258008,4.27579399 29.5908008,4.23279399 29.9498008,4.19679399 C30.1088008,4.18079399 30.2608008,4.16879399 30.4178008,4.15479399 C30.6288008,4.13679399 30.8398008,4.11779399 31.0448008,4.10379399 C31.2118008,4.09179399 31.3748008,4.08279399 31.5358008,4.07379399 C31.7198008,4.06279399 31.9018008,4.05479399 32.0788008,4.04779399 C32.2348008,4.04079399 32.3898008,4.03479399 32.5408008,4.03079399 C32.7118008,4.02579399 32.8778008,4.02279399 33.0418008,4.02079399 C33.1778008,4.02079399 33.3178008,4.01779399 33.4468008,4.01779399 C33.6968008,4.01679399 33.9358008,4.01879399 34.1598008,4.02279399 C34.2678008,4.02479399 34.3648008,4.02779399 34.4658008,4.03079399 C34.5518008,4.03379399 34.6338008,4.03579399 34.7148008,4.03879399 C31.7338008,8.28179399 28.0638008,12.659794 24.0178008,16.788794 C20.1278008,20.760794 16.0148008,24.379794 12.0418008,27.332794 C12.0398008,27.265794 12.0378008,27.191794 12.0348008,27.120794 C12.0298008,26.969794 12.0248008,26.816794 12.0218008,26.648794 C12.0198008,26.528794 12.0198008,26.394794 12.0188008,26.266794 C12.0178008,26.103794 12.0158008,25.942794 12.0158008,25.768794 C12.0168008,25.605794 12.0218008,25.429794 12.0258008,25.258794 C12.0288008,25.091794 12.0298008,24.931794 12.0358008,24.756794 C12.0458008,24.423794 12.0618008,24.076794 12.0838008,23.717794 C12.0908008,23.585794 12.1038008,23.444794 12.1138008,23.309794 C12.1308008,23.060794 12.1488008,22.812794 12.1718008,22.554794 C12.1868008,22.392794 12.2078008,22.223794 12.2248008,22.057794 C12.2518008,21.815794 12.2768008,21.574794 12.3078008,21.326794 C12.3308008,21.149794 12.3598008,20.967794 12.3848008,20.787794 C12.4208008,20.542794 12.4578008,20.297794 12.4998008,20.049794 C12.5308008,19.861794 12.5678008,19.673794 12.6028008,19.483794 C12.6498008,19.236794 12.6988008,18.988794 12.7518008,18.738794 C12.7938008,18.545794 12.8398008,18.351794 12.8858008,18.156794 C12.9458008,17.907794 13.0078008,17.658794 13.0758008,17.408794 C13.1278008,17.213794 13.1838008,17.017794 13.2428008,16.821794 C13.3158008,16.571794 13.3948008,16.321794 13.4778008,16.072794 C13.5428008,15.878794 13.6088008,15.685794 13.6778008,15.491794 C13.7688008,15.241794 13.8678008,14.993794 13.9678008,14.745794 C14.0438008,14.557794 14.1208008,14.367794 14.2028008,14.181794 C14.3128008,13.932794 14.4328008,13.686794 14.5538008,13.440794 C14.6418008,13.262794 14.7278008,13.081794 14.8228008,12.904794 C14.9588008,12.652794 15.1058008,12.406794 15.2538008,12.160794 C15.3508008,12.000794 15.4428008,11.837794 15.5448008,11.679794 C15.7188008,11.412794 15.9098008,11.155794 16.0998008,10.898794 C16.1948008,10.772794 16.2808008,10.640794 16.3788008,10.516794 C16.6768008,10.142794 16.9918008,9.77879399 17.3308008,9.43379399 C17.6538008,9.10379399 17.9938008,8.79779399 18.3428008,8.50579399 M37.5268008,3.04079399 C37.5258008,3.03279399 37.5218008,3.02579399 37.5208008,3.01879399 C37.5068008,2.92379399 37.4838008,2.82979399 37.4428008,2.74079399 C37.4408008,2.73679399 37.4378008,2.73279399 37.4358008,2.72979399 C37.4268008,2.71079399 37.4148008,2.69679399 37.4048008,2.67979399 C37.3658008,2.60679399 37.3188008,2.54179399 37.2648008,2.48279399 C37.2438008,2.45979399 37.2208008,2.43979399 37.1978008,2.41979399 C37.1438008,2.37179399 37.0868008,2.33079399 37.0248008,2.29479399 C36.9988008,2.27979399 36.9728008,2.26479399 36.9458008,2.25179399 C36.8538008,2.20979399 36.7568008,2.17779399 36.6548008,2.16479399 C36.1088008,2.09579399 23.1688008,0.61579399 15.9018008,8.03379399 C10.1068008,13.948794 9.86380075,23.538794 10.0348008,27.451794 L10.0078008,27.451794 L10.0078008,45.989794 L12.0078008,45.989794 L12.0078008,30.146794 C12.6038008,30.187794 13.3858008,30.226794 14.3398008,30.226794 C18.8428008,30.226794 26.6898008,29.393794 31.7848008,24.190794 C39.0428008,16.782794 37.5918008,3.59879399 37.5268008,3.04079399" id="Amazon-Elastic-Beanstalk-Application_Resource-Icon_light-bg" fill="#FF9900"></path>
    </g>
</svg>