<?xml version="1.0" encoding="UTF-8"?>
<svg width="48px" height="48px" viewBox="0 0 48 48" version="1.1" xmlns="http://www.w3.org/2000/svg" xmlns:xlink="http://www.w3.org/1999/xlink">
    <title>Icon-Resource/Managment-Governance/Res_Amazon-Cloudwatch_Alarm_48_Dark</title>
    <g id="Icon-Resource/Managment-Governance/Res_Amazon-Cloudwatch_Alarm_48" stroke="none" stroke-width="1" fill="none" fill-rule="evenodd">
        <path d="M41.4246,40.6675 L34.6366,40.6675 L34.6366,19.8305 C36.8216,20.5265 39.2386,20.5265 41.4246,19.8305 L41.4246,40.6675 Z M41.9946,17.4595 C39.4996,18.6475 36.5596,18.6465 34.0666,17.4595 C33.7586,17.3125 33.3946,17.3335 33.1026,17.5165 C32.8126,17.6995 32.6366,18.0185 32.6366,18.3615 L32.6366,41.6675 C32.6366,42.2205 33.0836,42.6675 33.6366,42.6675 L42.4246,42.6675 C42.9776,42.6675 43.4246,42.2205 43.4246,41.6675 L43.4246,18.3615 C43.4246,18.0185 43.2486,17.6995 42.9586,17.5165 C42.6676,17.3335 42.3036,17.3115 41.9946,17.4595 L41.9946,17.4595 Z M38.0306,4.0005 C40.8716,4.0005 43.1826,6.3115 43.1826,9.1515 C43.1826,11.9925 40.8716,14.3035 38.0306,14.3035 C35.1906,14.3035 32.8796,11.9925 32.8796,9.1515 C32.8796,6.3115 35.1906,4.0005 38.0306,4.0005 L38.0306,4.0005 Z M38.0306,16.3035 C41.9746,16.3035 45.1826,13.0955 45.1826,9.1515 C45.1826,5.2085 41.9746,2.0005 38.0306,2.0005 C34.0876,2.0005 30.8796,5.2085 30.8796,9.1515 C30.8796,13.0955 34.0876,16.3035 38.0306,16.3035 L38.0306,16.3035 Z M2.0006,46.1835 L45.9406,46.1835 L45.9406,44.1835 L2.0006,44.1835 L2.0006,46.1835 Z M20.5756,40.6675 L27.3636,40.6675 L27.3636,27.7285 L20.5756,27.7285 L20.5756,40.6675 Z M19.5756,42.6675 L28.3636,42.6675 C28.9166,42.6675 29.3636,42.2205 29.3636,41.6675 L29.3636,26.7285 C29.3636,26.1755 28.9166,25.7285 28.3636,25.7285 L19.5756,25.7285 C19.0236,25.7285 18.5756,26.1755 18.5756,26.7285 L18.5756,41.6675 C18.5756,42.2205 19.0236,42.6675 19.5756,42.6675 L19.5756,42.6675 Z M6.5156,40.6675 L13.3036,40.6675 L13.3036,23.3345 L6.5156,23.3345 L6.5156,40.6675 Z M5.5156,42.6675 L14.3036,42.6675 C14.8566,42.6675 15.3036,42.2205 15.3036,41.6675 L15.3036,22.3345 C15.3036,21.7815 14.8566,21.3345 14.3036,21.3345 L5.5156,21.3345 C4.9626,21.3345 4.5156,21.7815 4.5156,22.3345 L4.5156,41.6675 C4.5156,42.2205 4.9626,42.6675 5.5156,42.6675 L5.5156,42.6675 Z" id="Amazon-Cloudwatch_alarm_Resource-Icon_light-bg" fill="#FF4F8B"></path>
    </g>
</svg>