<?xml version="1.0" encoding="UTF-8"?>
<svg width="48px" height="48px" viewBox="0 0 48 48" version="1.1" xmlns="http://www.w3.org/2000/svg" xmlns:xlink="http://www.w3.org/1999/xlink">
    <title>Icon-Resource/Storage/Res_Amazon-Simple-Storage-Service_S3-Object-Lambda-Access-Points_48_Dark</title>
    <g id="Icon-Resource/Storage/Res_Amazon-Simple-Storage-Service_S3-Object-Lambda-Access-Points_48" stroke="none" stroke-width="1" fill="none" fill-rule="evenodd">
        <path d="M26.512,41.141 L27.901,42.579 L24.634,45.735 C24.441,45.922 24.19,46.016 23.94,46.016 C23.678,46.016 23.417,45.913 23.221,45.711 L20.063,42.447 L21.5,41.057 L23,42.607 L23,34 L25,34 L25,42.6 L26.512,41.141 Z M27.229,37.878 L26.801,35.924 C32.506,34.674 36.647,29.521 36.647,23.671 C36.647,16.755 31.02,11.128 24.104,11.128 C17.187,11.128 11.56,16.755 11.56,23.671 C11.56,29.501 15.514,34.518 21.175,35.871 L20.71,37.817 C14.145,36.247 9.56,30.43 9.56,23.671 C9.56,15.652 16.084,9.128 24.104,9.128 C32.122,9.128 38.647,15.652 38.647,23.671 C38.647,30.454 33.845,36.429 27.229,37.878 L27.229,37.878 Z M46,19.826 L46,28.173 C46,28.448 45.887,28.711 45.687,28.9 C45.488,29.089 45.215,29.189 44.944,29.172 L42.285,29.02 C41.869,30.543 41.265,32.004 40.481,33.38 L42.467,35.152 C42.672,35.335 42.793,35.594 42.801,35.87 C42.809,36.144 42.702,36.411 42.508,36.605 L36.606,42.507 C36.411,42.703 36.148,42.818 35.87,42.8 C35.595,42.792 35.335,42.671 35.153,42.466 L33.386,40.486 C32.137,41.199 30.81,41.766 29.431,42.178 L28.859,40.261 C30.335,39.821 31.744,39.181 33.047,38.357 C33.458,38.095 34.001,38.17 34.327,38.537 L35.94,40.345 L40.345,35.939 L38.532,34.322 C38.167,33.996 38.091,33.455 38.352,33.042 C39.381,31.409 40.117,29.63 40.54,27.755 C40.648,27.277 41.11,26.945 41.573,26.976 L44,27.115 L44,20.885 L41.571,21.023 C41.11,21.047 40.646,20.722 40.538,20.245 C40.115,18.37 39.377,16.592 38.347,14.962 C38.086,14.549 38.162,14.007 38.527,13.682 L40.345,12.06 L35.94,7.655 L34.313,9.479 C33.988,9.844 33.445,9.918 33.033,9.659 C31.405,8.631 29.628,7.895 27.754,7.471 C27.278,7.363 26.949,6.927 26.977,6.438 L27.116,4 L20.885,4 L21.024,6.436 C21.052,6.925 20.723,7.361 20.246,7.469 C18.37,7.892 16.594,8.628 14.964,9.655 C14.553,9.914 14.01,9.839 13.685,9.475 L12.061,7.655 L7.656,12.06 L9.477,13.685 C9.841,14.011 9.917,14.552 9.657,14.966 C8.626,16.597 7.888,18.373 7.464,20.246 C7.355,20.723 6.885,21.047 6.432,21.023 L4,20.885 L4,27.115 L6.425,26.976 C6.885,26.945 7.35,27.277 7.457,27.755 C7.881,29.636 8.617,31.416 9.646,33.045 C9.907,33.459 9.83,34 9.465,34.326 L7.656,35.939 L12.061,40.345 L13.676,38.534 C14.001,38.166 14.543,38.093 14.956,38.353 C16.226,39.156 17.594,39.784 19.022,40.223 L18.436,42.135 C17.108,41.727 15.826,41.173 14.617,40.483 L12.848,42.466 C12.665,42.671 12.406,42.792 12.13,42.8 C12.12,42.8 12.112,42.8 12.102,42.8 C11.837,42.8 11.582,42.695 11.395,42.507 L5.492,36.605 C5.298,36.411 5.192,36.144 5.2,35.869 C5.207,35.594 5.328,35.334 5.534,35.151 L7.517,33.384 C6.734,32.009 6.128,30.547 5.712,29.02 L3.057,29.172 C2.783,29.19 2.513,29.089 2.314,28.9 C2.114,28.711 2,28.448 2,28.173 L2,19.826 C2,19.551 2.114,19.288 2.314,19.099 C2.513,18.91 2.782,18.812 3.057,18.828 L5.72,18.979 C6.137,17.458 6.742,16 7.528,14.626 L5.533,12.848 C5.328,12.665 5.207,12.405 5.2,12.13 C5.192,11.855 5.298,11.589 5.492,11.395 L11.395,5.493 C11.589,5.298 11.862,5.196 12.13,5.2 C12.406,5.208 12.664,5.328 12.848,5.534 L14.626,7.526 C15.999,6.744 17.458,6.14 18.98,5.724 L18.828,3.057 C18.813,2.782 18.91,2.513 19.1,2.313 C19.288,2.113 19.551,2 19.826,2 L28.174,2 C28.449,2 28.712,2.113 28.901,2.313 C29.09,2.513 29.188,2.782 29.172,3.057 L29.021,5.726 C30.541,6.143 31.999,6.747 33.371,7.53 L35.153,5.534 C35.336,5.328 35.595,5.208 35.87,5.2 C36.145,5.193 36.411,5.298 36.606,5.493 L42.508,11.395 C42.702,11.589 42.809,11.855 42.801,12.13 C42.793,12.406 42.672,12.665 42.467,12.848 L40.477,14.623 C41.261,15.997 41.866,17.456 42.283,18.979 L44.944,18.828 C45.216,18.813 45.488,18.91 45.687,19.099 C45.887,19.288 46,19.551 46,19.826 L46,19.826 Z M27,26 C28.103,26 29,26.897 29,28 C29,29.103 28.103,30 27,30 C25.898,30 25,29.103 25,28 C25,26.897 25.898,26 27,26 L27,26 Z M27,32 C29.206,32 31,30.205 31,28 C31,25.794 29.206,24 27,24 C24.794,24 23,25.794 23,28 C23,30.205 24.794,32 27,32 L27,32 Z M28.438,17.09 L30.03,20 L26.779,20 L28.438,17.09 Z M25.057,22 L31.716,22 C32.07,22 32.396,21.814 32.576,21.51 C32.756,21.206 32.763,20.83 32.593,20.52 L29.333,14.56 C29.159,14.242 28.827,14.043 28.465,14.04 C28.138,14.051 27.768,14.23 27.588,14.544 L24.189,20.504 C24.012,20.814 24.013,21.194 24.193,21.502 C24.371,21.81 24.7,22 25.057,22 L25.057,22 Z M16,25 L19,25 L19,22 L16,22 L16,25 Z M15,20 C14.448,20 14,20.448 14,21 L14,26 C14,26.552 14.448,27 15,27 L20,27 C20.553,27 21,26.552 21,26 L21,21 C21,20.448 20.553,20 20,20 L15,20 Z" id="Fill-1" fill="#6CAE3E"></path>
    </g>
</svg>