<?xml version="1.0" encoding="UTF-8"?>
<svg width="48px" height="48px" viewBox="0 0 48 48" version="1.1" xmlns="http://www.w3.org/2000/svg" xmlns:xlink="http://www.w3.org/1999/xlink">
    <title>Icon-Resource/Networking-and-Content-Delivery/Res_Amazon-Route-53_Resolver-DNS-Firewall_48_Dark</title>
    <g id="Icon-Resource/Networking-and-Content-Delivery/Res_Amazon-Route-53_Resolver-DNS-Firewall_48" stroke="none" stroke-width="1" fill="none" fill-rule="evenodd">
        <path d="M23.818,35.53875 C20.825,35.53875 18.078,34.02875 16.469,31.49975 C15.2,29.50575 15.178,26.92675 16.414,24.76975 L16.45,24.70875 C17.881,22.53575 17.58,19.62675 17.139,17.71875 C18.29,18.55575 19.302,20.04075 19.663,20.68775 C19.853,21.02975 20.228,21.23275 20.616,21.19875 C21.006,21.16775 21.342,20.91275 21.476,20.54475 C22.775,16.97775 22.169,14.26975 21.267,12.47575 C22.849,13.12375 24.794,14.24575 26.185,16.12675 C27.831,18.35175 28.4,21.22175 27.877,24.65575 C27.814,25.06275 28.007,25.46675 28.364,25.67275 C28.721,25.87775 29.167,25.84475 29.488,25.58875 C29.557,25.53375 30.907,24.42975 31.629,21.79975 C32.091,22.56275 32.522,23.74475 32.522,25.49775 C32.522,29.24775 31.391,35.53875 23.818,35.53875 M31.472,18.83775 C31.178,18.68075 30.826,18.67975 30.532,18.83475 C30.237,18.99075 30.04,19.28275 30.005,19.61475 C29.983,19.82675 29.956,20.02975 29.924,20.22475 C29.639,18.23475 28.923,16.46075 27.781,14.92075 C24.532,10.54475 19.033,9.71275 18.8,9.67975 C18.362,9.61375 17.926,9.85775 17.746,10.26875 C17.565,10.67975 17.683,11.16275 18.031,11.44675 C18.157,11.55075 20.732,13.71675 20.12,17.83775 C19.074,16.55975 17.479,15.11675 15.615,15.11675 C15.283,15.11675 14.972,15.28175 14.787,15.55675 C14.6,15.83175 14.563,16.18175 14.687,16.48975 C15.191,17.74375 16.191,21.46675 14.783,23.60375 C14.772,23.61975 14.723,23.70075 14.714,23.71675 L14.686,23.76375 C14.683,23.76775 14.681,23.77175 14.679,23.77575 C13.073,26.57875 13.112,29.95075 14.782,32.57375 C16.759,35.68275 20.137,37.53875 23.818,37.53875 C33.751,37.53875 34.522,28.32275 34.522,25.49775 C34.522,20.52975 31.596,18.90475 31.472,18.83775 M34.387,38.73275 C29.816,39.55375 25.918,41.78975 24.015,43.03875 C22.113,41.78975 18.214,39.55375 13.643,38.73275 C11.381,38.32575 4,36.53775 4,30.59875 C4,28.06675 4.945,26.43775 6.041,24.55175 C7.093,22.73775 8.287,20.68175 8.287,17.89275 C8.287,14.30075 6.602,11.60375 5.273,10.03575 C6.522,8.51375 8.27,6.37175 9.527,4.78975 C11.739,6.55775 14.258,7.51975 16.717,7.51975 C19.496,7.51975 21.893,6.50875 24.015,4.43575 C26.137,6.50875 28.535,7.51975 31.313,7.51975 C33.773,7.51975 36.292,6.55775 38.504,4.79075 C39.818,6.44575 41.63,8.66175 42.757,10.03675 C41.428,11.60475 39.744,14.30075 39.744,17.89275 C39.744,20.68375 40.938,22.73875 41.993,24.55375 C43.087,26.43975 44.031,28.06775 44.031,30.59875 C44.031,36.53775 36.649,38.32575 34.387,38.73275 M43.72,23.54675 C42.704,21.79775 41.744,20.14475 41.744,17.89275 C41.744,14.43175 43.656,11.93975 44.797,10.76375 C45.15,10.39775 45.173,9.82475 44.85,9.43275 C43.715,8.05375 40.917,4.64175 39.431,2.73675 C39.259,2.51675 39.004,2.37775 38.724,2.35575 C38.446,2.32875 38.171,2.42775 37.964,2.61775 C35.939,4.48875 33.577,5.51975 31.313,5.51975 C28.774,5.51975 26.693,4.50375 24.764,2.32175 C24.385,1.89275 23.645,1.89275 23.266,2.32175 C21.338,4.50375 19.256,5.51975 16.717,5.51975 C14.454,5.51975 12.091,4.48875 10.066,2.61775 C9.86,2.42775 9.586,2.32875 9.306,2.35575 C9.027,2.37775 8.771,2.51675 8.599,2.73675 C7.216,4.50875 4.611,7.69275 3.18,9.43275 C2.857,9.82575 2.881,10.39775 3.234,10.76375 C4.375,11.93975 6.287,14.43175 6.287,17.89275 C6.287,20.14375 5.327,21.79675 4.31,23.54775 C3.174,25.50475 2,27.52775 2,30.59875 C2,38.08875 10.641,40.22475 13.29,40.70175 C17.995,41.54675 21.96,44.03575 23.445,45.06675 C23.617,45.18475 23.816,45.24475 24.015,45.24475 C24.214,45.24475 24.414,45.18475 24.586,45.06675 C26.071,44.03575 30.036,41.54675 34.741,40.70175 C37.389,40.22475 46.031,38.08875 46.031,30.59875 C46.031,27.52975 44.857,25.50675 43.72,23.54675" id="Fill-1" fill="#A166FF"></path>
    </g>
</svg>