<?xml version="1.0" encoding="UTF-8"?>
<svg width="48px" height="48px" viewBox="0 0 48 48" version="1.1" xmlns="http://www.w3.org/2000/svg" xmlns:xlink="http://www.w3.org/1999/xlink">
    <title>Icon-Resource/Application-Integration/Res_Amazon-EventBridge-Rule_48_Dark</title>
    <g id="Icon-Resource/Application-Integration/Res_Amazon-EventBridge-Rule_48" stroke="none" stroke-width="1" fill="none" fill-rule="evenodd">
        <path d="M20.7122,24.916 L20.7122,22.916 L42.4202,22.916 L38.1932,18.689 L39.6072,17.275 L45.5412,23.209 C45.9312,23.6 45.9312,24.232 45.5412,24.623 L45.5412,24.623 L39.6072,30.557 L38.1932,29.143 L42.4202,24.916 L20.7122,24.916 Z M29.6672,6.839 L27.8272,6.054 L25.3722,11.81 L27.2122,12.595 L29.6672,6.839 Z M37.2232,13.274 L36.0222,11.675 L30.9872,15.456 L32.1882,17.056 L37.2232,13.274 Z M28.2832,34.812 L32.0952,39.774 L33.6802,38.556 L29.8692,33.593 L28.2832,34.812 Z M21.8692,36.844 L22.6522,43.032 L24.6372,42.78 L23.8532,36.592 L21.8692,36.844 Z M12.8402,41.193 L14.6792,41.978 L17.1352,36.223 L15.2952,35.437 L12.8402,41.193 Z M5.2832,34.758 L6.4842,36.357 L11.5192,32.576 L10.3182,30.977 L5.2832,34.758 Z M8.2662,24.651 L2.0002,25.444 L2.2522,27.429 L8.5182,26.636 L8.2662,24.651 Z M9.6942,18.151 L3.8772,15.743 L3.1112,17.591 L8.9292,19.999 L9.6942,18.151 Z M14.2242,13.221 L10.4132,8.258 L8.8272,9.477 L12.6382,14.439 L14.2242,13.221 Z M20.6382,11.188 L19.8552,5 L17.8712,5.252 L18.6542,11.44 L20.6382,11.188 Z M28.8752,28.623 L26.5872,32.586 C26.4082,32.895 26.0782,33.086 25.7212,33.086 L16.8772,33.086 C16.5192,33.086 16.1892,32.895 16.0112,32.586 L11.5892,24.927 C11.4102,24.617 11.4102,24.236 11.5892,23.927 L16.0112,16.268 C16.1892,15.958 16.5192,15.768 16.8772,15.768 L25.7212,15.768 C26.0782,15.768 26.4082,15.958 26.5872,16.268 L28.0962,18.884 L26.3642,19.884 L25.1432,17.768 L17.4542,17.768 L13.6092,24.427 L17.4542,31.086 L25.1432,31.086 L27.1422,27.623 L28.8752,28.623 Z" id="Amazon-EventBridge-Rule" fill="#FF4F8B"></path>
    </g>
</svg>