<?xml version="1.0" encoding="UTF-8"?>
<svg width="48px" height="48px" viewBox="0 0 48 48" version="1.1" xmlns="http://www.w3.org/2000/svg" xmlns:xlink="http://www.w3.org/1999/xlink">
    <title>Icon-Resource/Machine-Learning/Res_Icon-Amazon-SageMaker_Canvas_48_Dark</title>
    <g id="Icon-Resource/Machine-Learning/Res_Icon-Amazon-SageMaker_Canvas_48" stroke="none" stroke-width="1" fill="none" fill-rule="evenodd">
        <path d="M30.5865,31 L39.6725,39.26 L38.3275,40.74 L28.9995,32.26 L28.9995,36 L26.9995,36 L26.9995,30 C26.9995,29.448 27.4475,29 27.9995,29 L33.9995,29 L33.9995,31 L30.5865,31 Z M40.9995,22 L40.9995,33 L38.9995,33 L38.9995,23 L15.9995,23 L15.9995,40 L31.9995,40 L31.9995,42 L14.9995,42 C14.4475,42 13.9995,41.552 13.9995,41 L13.9995,22 C13.9995,21.448 14.4475,21 14.9995,21 L39.9995,21 C40.5525,21 40.9995,21.448 40.9995,22 L40.9995,22 Z M34.9995,17 L30.9995,17 L30.9995,15 L35.9995,15 C36.5525,15 36.9995,15.448 36.9995,16 L36.9995,19 L34.9995,19 L34.9995,17 Z M14.9995,17 L27.9995,17 L27.9995,15 L14.9995,15 L14.9995,17 Z M7.9995,15 L11.9995,15 L11.9995,17 L8.9995,17 L8.9995,19 L6.9995,19 L6.9995,16 C6.9995,15.448 7.4475,15 7.9995,15 L7.9995,15 Z M6.9995,27 L8.9995,27 L8.9995,22 L6.9995,22 L6.9995,27 Z M8.9995,32 L11.9995,32 L11.9995,34 L7.9995,34 C7.4475,34 6.9995,33.552 6.9995,33 L6.9995,30 L8.9995,30 L8.9995,32 Z M12.9995,8 L16.9995,8 L16.9995,6 L12.9995,6 L12.9995,8 Z M6.9995,8 L10.9995,8 L10.9995,6 L6.9995,6 L6.9995,8 Z M3.9995,44 L43.9995,44 L43.9995,12 L3.9995,12 L3.9995,44 Z M3.9995,10 L43.9995,10 L43.9995,4 L3.9995,4 L3.9995,10 Z M44.9995,2 L2.9995,2 C2.4475,2 1.9995,2.448 1.9995,3 L1.9995,45 C1.9995,45.552 2.4475,46 2.9995,46 L44.9995,46 C45.5525,46 45.9995,45.552 45.9995,45 L45.9995,3 C45.9995,2.448 45.5525,2 44.9995,2 L44.9995,2 Z" id="Fill-1" fill="#56C0A7"></path>
    </g>
</svg>