<?xml version="1.0" encoding="UTF-8"?>
<svg width="48px" height="48px" viewBox="0 0 48 48" version="1.1" xmlns="http://www.w3.org/2000/svg" xmlns:xlink="http://www.w3.org/1999/xlink">
    <title>Icon-Resource/Containers/Res_Amazon-Elastic-Container-Service_Container-2_48_Dark</title>
    <g id="Icon-Resource/Containers/Res_Amazon-Elastic-Container-Service_Container-2_48" stroke="none" stroke-width="1" fill="none" fill-rule="evenodd">
        <path d="M18.863,29.233 L29.102,29.233 L29.102,18.994 L18.863,18.994 L18.863,29.233 Z M17.737,31.014 L17.737,32.857 L19.737,32.857 L19.737,31.234 L21.234,31.234 L21.234,32.857 L23.234,32.857 L23.234,31.234 L24.731,31.234 L24.731,32.857 L26.731,32.857 L26.731,31.234 L28.228,31.234 L28.228,32.857 L30.228,32.857 L30.228,31.014 C30.502,30.861 30.728,30.635 30.882,30.36 L32.725,30.36 L32.725,28.36 L31.102,28.36 L31.102,26.863 L32.725,26.863 L32.725,24.863 L31.102,24.863 L31.102,23.365 L32.725,23.365 L32.725,21.365 L31.102,21.365 L31.102,19.868 L32.725,19.868 L32.725,17.868 L30.882,17.868 C30.729,17.594 30.502,17.367 30.228,17.214 L30.228,15.371 L28.228,15.371 L28.228,16.994 L26.731,16.994 L26.731,15.371 L24.731,15.371 L24.731,16.994 L23.234,16.994 L23.234,15.371 L21.234,15.371 L21.234,16.994 L19.737,16.994 L19.737,15.371 L17.737,15.371 L17.737,17.214 C17.461,17.367 17.236,17.594 17.082,17.868 L15.24,17.868 L15.24,19.868 L16.863,19.868 L16.863,21.365 L15.24,21.365 L15.24,23.365 L16.863,23.365 L16.863,24.863 L15.24,24.863 L15.24,26.863 L16.863,26.863 L16.863,28.36 L15.24,28.36 L15.24,30.36 L17.082,30.36 C17.236,30.635 17.461,30.861 17.737,31.014 L17.737,31.014 Z M39.593,33.731 L41.593,33.731 L41.593,14.498 L39.593,14.498 L39.593,33.731 Z M34.347,33.731 L36.347,33.731 L36.347,14.498 L34.347,14.498 L34.347,33.731 Z M11.616,33.731 L13.616,33.731 L13.616,14.498 L11.616,14.498 L11.616,33.731 Z M6.371,33.731 L8.371,33.731 L8.371,14.498 L6.371,14.498 L6.371,33.731 Z M4,36.228 L43.964,36.228 L43.964,12 L4,12 L4,36.228 Z M44.964,10 L3,10 C2.448,10 2,10.447 2,11 L2,37.228 C2,37.78 2.448,38.228 3,38.228 L44.964,38.228 C45.517,38.228 45.964,37.78 45.964,37.228 L45.964,11 C45.964,10.447 45.517,10 44.964,10 L44.964,10 Z" id="Amazon-Elastic-Container-Service-Container-2_Resource-Icon_light-bg" fill="#FF9900"></path>
    </g>
</svg>