<?xml version="1.0" encoding="UTF-8"?>
<svg width="48px" height="48px" viewBox="0 0 48 48" version="1.1" xmlns="http://www.w3.org/2000/svg" xmlns:xlink="http://www.w3.org/1999/xlink">
    <title>Icon-Resource/Database/Res_Amazon-DynamoDB_Items_48_Dark</title>
    <g id="Icon-Resource/Database/Res_Amazon-DynamoDB_Items_48" stroke="none" stroke-width="1" fill="none" fill-rule="evenodd">
        <path d="M35.375,40.5 C34.237,40.5 33.312,39.575 33.312,38.437 C33.312,37.3 34.237,36.375 35.375,36.375 C36.513,36.375 37.438,37.3 37.438,38.437 C37.438,39.575 36.513,40.5 35.375,40.5 L35.375,40.5 Z M35.375,34.375 C33.135,34.375 31.313,36.197 31.313,38.437 C31.313,40.678 33.135,42.5 35.375,42.5 C37.615,42.5 39.437,40.678 39.437,38.437 C39.437,36.197 37.615,34.375 35.375,34.375 L35.375,34.375 Z M35.375,25.625 C34.237,25.625 33.312,24.7 33.312,23.563 C33.312,22.425 34.237,21.5 35.375,21.5 C36.513,21.5 37.438,22.425 37.438,23.563 C37.438,24.7 36.513,25.625 35.375,25.625 L35.375,25.625 Z M35.375,19.5 C33.135,19.5 31.313,21.322 31.313,23.563 C31.313,25.803 33.135,27.625 35.375,27.625 C37.615,27.625 39.437,25.803 39.437,23.563 C39.437,21.322 37.615,19.5 35.375,19.5 L35.375,19.5 Z M35.375,6.625 C36.513,6.625 37.438,7.55 37.438,8.688 C37.438,9.825 36.513,10.75 35.375,10.75 C34.237,10.75 33.312,9.825 33.312,8.688 C33.312,7.55 34.237,6.625 35.375,6.625 L35.375,6.625 Z M35.375,12.75 C37.615,12.75 39.437,10.928 39.437,8.688 C39.437,6.447 37.615,4.625 35.375,4.625 C33.135,4.625 31.313,6.447 31.313,8.688 C31.313,10.928 33.135,12.75 35.375,12.75 L35.375,12.75 Z M4,43.125 L21.25,43.125 L21.25,33.75 L4,33.75 L4,43.125 Z M2,45.125 L23.25,45.125 L23.25,31.75 L2,31.75 L2,45.125 Z M4,28.25 L21.25,28.25 L21.25,18.875 L4,18.875 L4,28.25 Z M2,30.25 L23.25,30.25 L23.25,16.875 L2,16.875 L2,30.25 Z M4,13.375 L21.25,13.375 L21.25,4 L4,4 L4,13.375 Z M2,15.375 L23.25,15.375 L23.25,2 L2,2 L2,15.375 Z M26.75,43.125 L44,43.125 L44,33.75 L26.75,33.75 L26.75,43.125 Z M24.75,45.125 L46,45.125 L46,31.75 L24.75,31.75 L24.75,45.125 Z M26.75,28.25 L44,28.25 L44,18.875 L26.75,18.875 L26.75,28.25 Z M24.75,30.25 L46,30.25 L46,16.875 L24.75,16.875 L24.75,30.25 Z M26.75,13.375 L44,13.375 L44,4 L26.75,4 L26.75,13.375 Z M24.75,15.375 L46,15.375 L46,2 L24.75,2 L24.75,15.375 Z" id="Amazon-DATABASE_Amazon-DynamoDB_Items_Resource-Icon_light-bg" fill="#527FFF"></path>
    </g>
</svg>