<?xml version="1.0" encoding="UTF-8"?>
<svg width="48px" height="48px" viewBox="0 0 48 48" version="1.1" xmlns="http://www.w3.org/2000/svg" xmlns:xlink="http://www.w3.org/1999/xlink">
    <title>Icon-Resource/Database/Res_Amazon-ElastiCache_Cache-Node_48_Dark</title>
    <g id="Icon-Resource/Database/Res_Amazon-ElastiCache_Cache-Node_48" stroke="none" stroke-width="1" fill="none" fill-rule="evenodd">
        <path d="M33.8887,7.289 L37.8607,7.289 L37.8607,8.172 L34.9867,8.172 L34.9867,10.639 L37.3627,10.639 L37.3627,11.521 L34.9867,11.521 L34.9867,14.248 L37.8607,14.248 L37.8607,15.131 L33.8887,15.131 L33.8887,7.289 Z M31.0937,7.289 L32.1917,7.289 L32.1917,15.131 L31.0937,15.131 L31.0937,11.566 L28.2427,11.566 L28.2427,15.131 L27.1447,15.131 L27.1447,7.289 L28.2427,7.289 L28.2427,10.673 L31.0937,10.673 L31.0937,7.289 Z M24.4507,14.282 C24.7907,14.282 25.2817,14.188 25.9227,13.999 L25.9227,14.893 C25.4317,15.127 24.9007,15.244 24.3267,15.244 C22.3057,15.244 21.2947,13.909 21.2947,11.238 C21.2947,9.919 21.5547,8.915 22.0757,8.228 C22.5957,7.542 23.3617,7.199 24.3717,7.199 C24.8547,7.199 25.3417,7.301 25.8317,7.505 L25.8317,8.398 C25.3257,8.24 24.8817,8.161 24.4967,8.161 C23.7867,8.161 23.2687,8.393 22.9407,8.856 C22.6127,9.32 22.4487,10.065 22.4487,11.092 L22.4487,11.363 C22.4487,12.389 22.6077,13.132 22.9237,13.592 C23.2417,14.052 23.7497,14.282 24.4507,14.282 L24.4507,14.282 Z M16.9497,12.178 L17.9227,8.342 L18.8957,12.178 L16.9497,12.178 Z M17.3577,7.289 L15.0937,15.131 L16.2137,15.131 L16.7457,13.015 L19.1117,13.015 L19.6547,15.131 L20.8087,15.131 L18.5447,7.289 L17.3577,7.289 Z M13.1477,14.282 C13.4877,14.282 13.9777,14.188 14.6187,13.999 L14.6187,14.893 C14.1277,15.127 13.5967,15.244 13.0237,15.244 C11.0017,15.244 9.9917,13.909 9.9917,11.238 C9.9917,9.919 10.2507,8.915 10.7717,8.228 C11.2917,7.542 12.0577,7.199 13.0687,7.199 C13.5507,7.199 14.0377,7.301 14.5287,7.505 L14.5287,8.398 C14.0227,8.24 13.5777,8.161 13.1937,8.161 C12.4837,8.161 11.9647,8.393 11.6367,8.856 C11.3087,9.32 11.1447,10.065 11.1447,11.092 L11.1447,11.363 C11.1447,12.389 11.3037,13.132 11.6197,13.592 C11.9377,14.052 12.4467,14.282 13.1477,14.282 L13.1477,14.282 Z M43.7787,39.331 C43.7787,41.783 41.7837,43.778 39.3307,43.778 L8.4487,43.778 C5.9947,43.778 3.9997,41.783 3.9997,39.331 L3.9997,8.448 C3.9997,5.995 5.9947,4 8.4487,4 L39.3307,4 C41.7837,4 43.7787,5.995 43.7787,8.448 L43.7787,39.331 Z M39.3307,2 L8.4487,2 C4.8927,2 1.9997,4.893 1.9997,8.448 L1.9997,39.331 C1.9997,42.886 4.8927,45.778 8.4487,45.778 L39.3307,45.778 C42.8857,45.778 45.7787,42.886 45.7787,39.331 L45.7787,8.448 C45.7787,4.893 42.8857,2 39.3307,2 L39.3307,2 Z" id="Amazon-DATABASE_Amazon-ElastiCache_Cache-Node_Resource-Icon_light-bg" fill="#527FFF"></path>
    </g>
</svg>