<?xml version="1.0" encoding="UTF-8"?>
<svg width="48px" height="48px" viewBox="0 0 48 48" version="1.1" xmlns="http://www.w3.org/2000/svg" xmlns:xlink="http://www.w3.org/1999/xlink">
    <title>Icon-Resource/Machine-Learning/Res_Amazon-Sagemaker_Model_48_Dark</title>
    <g id="Icon-Resource/Machine-Learning/Res_Amazon-Sagemaker_Model_48" stroke="none" stroke-width="1" fill="none" fill-rule="evenodd">
        <path d="M29.9559,29.8297 C29.9559,30.3157 29.5599,30.7117 29.0749,30.7117 C28.5889,30.7117 28.1929,30.3157 28.1929,29.8297 C28.1929,29.3447 28.5889,28.9487 29.0749,28.9487 C29.5599,28.9487 29.9559,29.3447 29.9559,29.8297 L29.9559,29.8297 Z M32.8379,11.8947 C32.3519,11.8947 31.9559,11.4997 31.9559,11.0137 C31.9559,10.5267 32.3519,10.1317 32.8379,10.1317 C33.3239,10.1317 33.7199,10.5267 33.7199,11.0137 C33.7199,11.4997 33.3239,11.8947 32.8379,11.8947 L32.8379,11.8947 Z M29.4189,20.6907 C29.4189,21.1767 29.0229,21.5717 28.5369,21.5717 C28.0509,21.5717 27.6549,21.1767 27.6549,20.6907 C27.6549,20.2047 28.0509,19.8087 28.5369,19.8087 C29.0229,19.8087 29.4189,20.2047 29.4189,20.6907 L29.4189,20.6907 Z M34.1059,36.2817 C34.1059,35.7957 34.5019,35.3997 34.9879,35.3997 C35.4749,35.3997 35.8699,35.7957 35.8699,36.2817 C35.8699,36.7667 35.4749,37.1627 34.9879,37.1627 C34.5019,37.1627 34.1059,36.7667 34.1059,36.2817 L34.1059,36.2817 Z M38.5299,31.3027 C38.2149,31.4787 38.0199,31.8117 38.0199,32.1737 L38.0199,38.3647 L30.8809,42.5867 L30.8809,37.5507 L32.4139,37.5507 C32.8859,38.5017 33.8559,39.1627 34.9879,39.1627 C36.5769,39.1627 37.8699,37.8707 37.8699,36.2817 C37.8699,34.6927 36.5769,33.3997 34.9879,33.3997 C33.6539,33.3997 32.5379,34.3167 32.2119,35.5507 L29.8809,35.5507 C29.3279,35.5507 28.8809,35.9977 28.8809,36.5507 L28.8809,43.7687 L28.4759,44.0087 L24.9679,41.9757 L24.9679,16.0457 L27.8059,16.0457 L27.8059,17.9147 C26.5719,18.2407 25.6549,19.3557 25.6549,20.6907 C25.6549,22.2797 26.9479,23.5717 28.5369,23.5717 C30.1259,23.5717 31.4189,22.2797 31.4189,20.6907 C31.4189,19.5587 30.7569,18.5877 29.8059,18.1167 L29.8059,16.0457 L33.1059,16.0457 C33.6589,16.0457 34.1059,15.5987 34.1059,15.0457 L34.1059,13.5877 C35.0579,13.1167 35.7199,12.1447 35.7199,11.0137 C35.7199,9.4247 34.4269,8.1317 32.8379,8.1317 C31.2489,8.1317 29.9559,9.4247 29.9559,11.0137 C29.9559,12.3487 30.8729,13.4637 32.1059,13.7897 L32.1059,14.0457 L24.9679,14.0457 L24.9679,6.8037 L29.3659,4.1697 L38.5579,9.7737 L38.5589,15.9377 C38.5589,16.2987 38.7519,16.6307 39.0649,16.8087 L43.9339,19.5687 L43.9349,22.6467 L34.7199,22.6467 C34.1669,22.6467 33.7199,23.0947 33.7199,23.6467 L33.7199,28.5607 L31.6489,28.5607 C31.1779,27.6097 30.2069,26.9487 29.0749,26.9487 C27.4859,26.9487 26.1929,28.2407 26.1929,29.8297 C26.1929,31.4187 27.4859,32.7117 29.0749,32.7117 C30.4099,32.7117 31.5239,31.7947 31.8509,30.5607 L34.7199,30.5607 C35.2719,30.5607 35.7199,30.1137 35.7199,29.5607 L35.7199,24.6467 L43.9349,24.6467 L43.9349,28.2597 L38.5299,31.3027 Z M17.2469,28.4107 C17.7329,28.4107 18.1289,28.8067 18.1289,29.2927 C18.1289,29.7787 17.7329,30.1747 17.2469,30.1747 C16.7609,30.1747 16.3649,29.7787 16.3649,29.2927 C16.3649,28.8067 16.7609,28.4107 17.2469,28.4107 L17.2469,28.4107 Z M15.8279,12.6267 C15.8279,12.1407 16.2239,11.7447 16.7099,11.7447 C17.1949,11.7447 17.5909,12.1407 17.5909,12.6267 C17.5909,13.1127 17.1949,13.5087 16.7099,13.5087 C16.2239,13.5087 15.8279,13.1127 15.8279,12.6267 L15.8279,12.6267 Z M12.2149,20.6907 C12.2149,21.1767 11.8189,21.5717 11.3329,21.5717 C10.8479,21.5717 10.4519,21.1767 10.4519,20.6907 C10.4519,20.2047 10.8479,19.8087 11.3329,19.8087 C11.8189,19.8087 12.2149,20.2047 12.2149,20.6907 L12.2149,20.6907 Z M17.4399,37.8937 C17.4399,37.4077 17.8359,37.0127 18.3219,37.0127 C18.8089,37.0127 19.2039,37.4077 19.2039,37.8937 C19.2039,38.3807 18.8089,38.7757 18.3219,38.7757 C17.8359,38.7757 17.4399,38.3807 17.4399,37.8937 L17.4399,37.8937 Z M18.9119,44.0027 L9.3759,38.3627 L9.3769,32.1727 C9.3769,31.8087 9.1789,31.4727 8.8589,31.2967 L8.5009,31.0997 L11.1399,31.0997 L11.1399,38.1627 C11.1399,38.7157 11.5869,39.1627 12.1399,39.1627 L15.7479,39.1627 C16.2189,40.1137 17.1899,40.7757 18.3219,40.7757 C19.9109,40.7757 21.2039,39.4827 21.2039,37.8937 C21.2039,36.3057 19.9109,35.0127 18.3219,35.0127 C16.9879,35.0127 15.8719,35.9297 15.5459,37.1627 L13.1399,37.1627 L13.1399,30.0997 C13.1399,29.5467 12.6919,29.0997 12.1399,29.0997 L4.8639,29.0997 L4.0009,28.6247 L3.9999,19.5677 L8.8689,16.8067 C9.1829,16.6287 9.3759,16.2967 9.3759,15.9357 L9.3769,13.3567 L10.6019,13.3567 L10.6019,17.9147 C9.3689,18.2407 8.4519,19.3557 8.4519,20.6907 C8.4519,22.2797 9.7439,23.5717 11.3329,23.5717 C12.9219,23.5717 14.2149,22.2797 14.2149,20.6907 C14.2149,19.5597 13.5539,18.5887 12.6019,18.1167 L12.6019,13.3567 L13.9339,13.3567 C14.2599,14.5917 15.3749,15.5087 16.7099,15.5087 C18.2989,15.5087 19.5909,14.2157 19.5909,12.6267 C19.5909,11.0377 18.2989,9.7447 16.7099,9.7447 C15.5789,9.7447 14.6069,10.4057 14.1359,11.3567 L9.3769,11.3567 L9.3769,9.7717 L18.5679,4.1687 L22.9679,6.8027 L22.9679,18.3467 L16.9779,18.3467 C16.4259,18.3467 15.9779,18.7937 15.9779,19.3467 L15.9779,26.7187 C15.0269,27.1887 14.3649,28.1607 14.3649,29.2927 C14.3649,30.8817 15.6579,32.1747 17.2469,32.1747 C18.8359,32.1747 20.1289,30.8817 20.1289,29.2927 C20.1289,27.9577 19.2119,26.8427 17.9779,26.5167 L17.9779,20.3467 L22.9679,20.3467 L22.9679,41.5897 L18.9119,44.0027 Z M45.9339,18.9867 C45.9339,18.6267 45.7399,18.2947 45.4269,18.1167 L40.5589,15.3557 L40.5579,9.2127 C40.5579,8.8637 40.3759,8.5407 40.0779,8.3587 L29.8919,2.1477 C29.5739,1.9547 29.1769,1.9517 28.8569,2.1427 L23.9689,5.0697 L19.0769,2.1427 C18.7569,1.9507 18.3589,1.9527 18.0429,2.1467 L7.8559,8.3567 C7.5589,8.5387 7.3769,8.8617 7.3769,9.2107 L7.3759,15.3537 L2.5069,18.1157 C2.1929,18.2937 1.9999,18.6257 1.9999,18.9857 L2.0009,29.2157 C2.0009,29.5807 2.1989,29.9157 2.5179,30.0917 L7.3769,32.7637 L7.3759,38.9337 C7.3759,39.2867 7.5619,39.6137 7.8669,39.7937 L18.4049,46.0257 C18.7209,46.2127 19.1099,46.2127 19.4259,46.0247 L23.6399,43.5177 L27.9789,46.0317 C28.1339,46.1217 28.3079,46.1667 28.4799,46.1667 C28.6559,46.1667 28.8319,46.1197 28.9889,46.0267 L39.5289,39.7957 C39.8339,39.6157 40.0199,39.2887 40.0199,38.9347 L40.0199,32.7587 L45.4249,29.7157 C45.7399,29.5387 45.9349,29.2057 45.9349,28.8447 L45.9339,18.9867 Z" id="Amazon-Machine-Learning_Model-Icon_light-bg" fill="#56C0A7"></path>
    </g>
</svg>