<?xml version="1.0" encoding="UTF-8"?>
<svg width="48px" height="48px" viewBox="0 0 48 48" version="1.1" xmlns="http://www.w3.org/2000/svg" xmlns:xlink="http://www.w3.org/1999/xlink">
    <title>Icon-Resource/Security-Identity-and-Compliance/Res_AWS-Identity-Access-Management_AWS-STS_48_Dark</title>
    <g id="Icon-Resource/Security-Identity-and-Compliance/Res_AWS-Identity-Access-Management_AWS-STS_48" stroke="none" stroke-width="1" fill="none" fill-rule="evenodd">
        <path d="M4,36.251 L44,36.251 L44,12 L4,12 L4,36.251 Z M45,10 L3,10 C2.448,10 2,10.447 2,11 L2,37.251 C2,37.804 2.448,38.251 3,38.251 L45,38.251 C45.553,38.251 46,37.804 46,37.251 L46,11 C46,10.447 45.553,10 45,10 L45,10 Z M12.169,22.481 C13.091,22.481 13.841,23.231 13.841,24.153 C13.841,25.075 13.091,25.825 12.169,25.825 C11.247,25.825 10.497,25.075 10.497,24.153 C10.497,23.231 11.247,22.481 12.169,22.481 L12.169,22.481 Z M12.169,27.825 C14.194,27.825 15.841,26.178 15.841,24.153 C15.841,22.129 14.194,20.481 12.169,20.481 C10.145,20.481 8.497,22.129 8.497,24.153 C8.497,26.178 10.145,27.825 12.169,27.825 L12.169,27.825 Z M14.841,16.375 C18.245,16.375 21.221,18.549 22.246,21.783 C22.378,22.199 22.764,22.481 23.2,22.481 L25.909,22.481 C26.174,22.481 26.428,22.376 26.616,22.189 L28.199,20.606 L29.782,22.189 C29.969,22.376 30.223,22.481 30.489,22.481 L32.015,22.481 C32.281,22.481 32.534,22.376 32.722,22.189 L34.305,20.606 L35.888,22.189 C36.076,22.376 36.329,22.481 36.595,22.481 L38.509,22.481 L40.534,24.254 L39.189,25.825 L23.2,25.825 C22.764,25.825 22.378,26.107 22.246,26.523 C21.221,29.758 18.245,31.932 14.841,31.932 C10.552,31.932 7.063,28.442 7.063,24.153 C7.063,19.864 10.552,16.375 14.841,16.375 L14.841,16.375 Z M14.841,33.932 C18.872,33.932 22.425,31.507 23.903,27.825 L39.649,27.825 C39.941,27.825 40.218,27.697 40.409,27.476 L42.698,24.804 C43.054,24.388 43.009,23.762 42.596,23.4 L39.543,20.729 C39.362,20.569 39.127,20.481 38.885,20.481 L37.009,20.481 L35.012,18.485 C34.621,18.095 33.989,18.095 33.598,18.485 L31.601,20.481 L30.903,20.481 L28.906,18.485 C28.515,18.095 27.882,18.095 27.492,18.485 L25.494,20.481 L23.903,20.481 C22.425,16.8 18.871,14.375 14.841,14.375 C9.45,14.375 5.063,18.762 5.063,24.153 C5.063,29.545 9.45,33.932 14.841,33.932 L14.841,33.932 Z" id="AWS-Identity-and-Access-Management_AWS-STS_Resource-Icon_light-bg" fill="#FF5252"></path>
    </g>
</svg>