<?xml version="1.0" encoding="UTF-8"?>
<svg width="48px" height="48px" viewBox="0 0 48 48" version="1.1" xmlns="http://www.w3.org/2000/svg" xmlns:xlink="http://www.w3.org/1999/xlink">
    <title>Icon-Resource/Networking-and-Content-Delivery/Res_Amazon-VPC_Carrier-Gateway_48_Dark</title>
    <g id="Icon-Resource/Networking-and-Content-Delivery/Res_Amazon-VPC_Carrier-Gateway_48" stroke="none" stroke-width="1" fill="none" fill-rule="evenodd">
        <path d="M28.95,19.05 C30.271,20.372 31,22.13 31,24 C31,25.869 30.271,27.627 28.95,28.949 L30.364,30.363 C32.064,28.663 33,26.404 33,24 C33,21.596 32.064,19.336 30.364,17.636 L28.95,19.05 Z M25,38.22 L25,30.5 L23,30.5 L23,38.223 L18.964,33.88 L17.865,34.903 L23.998,41.5 L30.133,34.903 L29.035,33.88 L25,38.22 Z M44,24 C44,12.972 35.028,4 24,4 C12.971,4 4,12.972 4,24 C4,35.028 12.971,44 24,44 C35.028,44 44,35.028 44,24 L44,24 Z M46,24 C46,36.131 36.131,46 24,46 C11.869,46 2,36.131 2,24 C2,11.869 11.869,2 24,2 C36.131,2 46,11.869 46,24 L46,24 Z M34.606,13.393 L33.192,14.807 C35.647,17.263 37,20.528 37,24 C37,27.472 35.647,30.737 33.192,33.192 L34.606,34.606 C37.439,31.773 39,28.006 39,24 C39,19.993 37.439,16.226 34.606,13.393 L34.606,13.393 Z M17,24 C17,22.13 17.728,20.372 19.05,19.05 L17.636,17.636 C15.935,19.336 15,21.596 15,24 C15,26.404 15.935,28.663 17.636,30.363 L19.05,28.949 C17.728,27.627 17,25.869 17,24 L17,24 Z M24,22 C22.897,22 22,22.897 22,24 C22,25.103 22.897,26 24,26 C25.102,26 26,25.103 26,24 C26,22.897 25.102,22 24,22 L24,22 Z M24,20 C26.206,20 28,21.794 28,24 C28,26.205 26.206,28 24,28 C21.794,28 20,26.205 20,24 C20,21.794 21.794,20 24,20 L24,20 Z M23,9.777 L23,17.5 L25,17.5 L25,9.779 L29.035,14.12 L30.133,13.097 L23.998,6.5 L17.865,13.097 L18.964,14.12 L23,9.777 Z M14.807,14.807 C12.352,17.263 11,20.528 11,24 C11,27.472 12.352,30.737 14.807,33.192 L13.393,34.606 C10.56,31.773 9,28.006 9,24 C9,19.993 10.56,16.226 13.393,13.393 L14.807,14.807 Z" id="Fill-1" fill="#A166FF"></path>
    </g>
</svg>