<?xml version="1.0" encoding="UTF-8"?>
<svg width="48px" height="48px" viewBox="0 0 48 48" version="1.1" xmlns="http://www.w3.org/2000/svg" xmlns:xlink="http://www.w3.org/1999/xlink">
    <title>Icon-Resource/Containers/Res_Amazon-Elastic-Container-Service_Service_48_Dark</title>
    <g id="Icon-Resource/Containers/Res_Amazon-Elastic-Container-Service_Service_48" stroke="none" stroke-width="1" fill="none" fill-rule="evenodd">
        <path d="M24.933,38.213 L37.674,38.213 L37.674,36.213 L24.933,36.213 L24.933,38.213 Z M24.933,28.303 L37.674,28.303 L37.674,26.303 L24.933,26.303 L24.933,28.303 Z M24.933,18.393 L37.674,18.393 L37.674,16.393 L24.933,16.393 L24.933,18.393 Z M19.561,38.337 L21.808,38.337 L21.808,36.09 L19.561,36.09 L19.561,38.337 Z M18.561,40.337 L22.808,40.337 C23.361,40.337 23.808,39.89 23.808,39.337 L23.808,35.09 C23.808,34.537 23.361,34.09 22.808,34.09 L18.561,34.09 C18.009,34.09 17.561,34.537 17.561,35.09 L17.561,39.337 C17.561,39.89 18.009,40.337 18.561,40.337 L18.561,40.337 Z M19.561,28.427 L21.808,28.427 L21.808,26.18 L19.561,26.18 L19.561,28.427 Z M18.561,30.427 L22.808,30.427 C23.361,30.427 23.808,29.98 23.808,29.427 L23.808,25.18 C23.808,24.627 23.361,24.18 22.808,24.18 L18.561,24.18 C18.009,24.18 17.561,24.627 17.561,25.18 L17.561,29.427 C17.561,29.98 18.009,30.427 18.561,30.427 L18.561,30.427 Z M19.561,18.517 L21.808,18.517 L21.808,16.27 L19.561,16.27 L19.561,18.517 Z M18.561,20.517 L22.808,20.517 C23.361,20.517 23.808,20.07 23.808,19.517 L23.808,15.27 C23.808,14.717 23.361,14.27 22.808,14.27 L18.561,14.27 C18.009,14.27 17.561,14.717 17.561,15.27 L17.561,19.517 C17.561,20.07 18.009,20.517 18.561,20.517 L18.561,20.517 Z M16.023,44 L39.506,44 L39.506,12.022 L16.023,12.022 L16.023,44 Z M14.022,11.023 L14.022,39.753 L11.775,39.753 L11.775,7.776 L35.259,7.776 L35.259,10.023 L15.022,10.023 C14.469,10.023 14.022,10.47 14.022,11.023 L14.022,11.023 Z M9.775,6.776 L9.775,35.978 L8,35.978 L8,4 L31.483,4 L31.483,5.776 L10.775,5.776 C10.222,5.776 9.775,6.223 9.775,6.776 L9.775,6.776 Z M40.506,10.023 L37.259,10.023 L37.259,6.776 C37.259,6.223 36.811,5.776 36.259,5.776 L33.483,5.776 L33.483,3 C33.483,2.448 33.036,2 32.483,2 L7,2 C6.447,2 6,2.448 6,3 L6,36.978 C6,37.531 6.447,37.978 7,37.978 L9.775,37.978 L9.775,40.753 C9.775,41.306 10.222,41.753 10.775,41.753 L14.022,41.753 L14.022,45 C14.022,45.553 14.469,46 15.022,46 L40.506,46 C41.058,46 41.506,45.553 41.506,45 L41.506,11.023 C41.506,10.47 41.058,10.023 40.506,10.023 L40.506,10.023 Z" id="Amazon-Elastic-Container-Service_Service_Resource-Icon_light-bg" fill="#FF9900"></path>
    </g>
</svg>