<?xml version="1.0" encoding="UTF-8"?>
<svg width="48px" height="48px" viewBox="0 0 48 48" version="1.1" xmlns="http://www.w3.org/2000/svg" xmlns:xlink="http://www.w3.org/1999/xlink">
    <title>Icon-Resource/Networking-and-Content-Delivery/Res_AWS-Amazon-VPC_Endpoints_48_Dark</title>
    <g id="Icon-Resource/Networking-and-Content-Delivery/Res_AWS-Amazon-VPC_Endpoints_48" stroke="none" stroke-width="1" fill="none" fill-rule="evenodd">
        <path d="M20.6197,27.6015 L22.0337,29.0155 L26.3967,24.6515 C26.7877,24.2605 26.7877,23.6275 26.3967,23.2375 L22.0337,18.8735 L20.6197,20.2885 L23.2757,22.9445 L6.4907,22.9445 L6.4907,24.9445 L23.2767,24.9445 L20.6197,27.6015 Z M43.8897,23.9445 C43.8897,12.9475 34.9417,3.9995 23.9447,3.9995 C12.9467,3.9995 3.9997,12.9475 3.9997,23.9445 C3.9997,34.9425 12.9467,43.8895 23.9447,43.8895 C34.9417,43.8895 43.8897,34.9425 43.8897,23.9445 L43.8897,23.9445 Z M45.8897,23.9445 C45.8897,36.0445 36.0457,45.8895 23.9447,45.8895 C11.8447,45.8895 1.9997,36.0445 1.9997,23.9445 C1.9997,11.8435 11.8447,1.9995 23.9447,1.9995 C36.0457,1.9995 45.8897,11.8435 45.8897,23.9445 L45.8897,23.9445 Z M15.9627,26.5625 L15.9627,27.0165 C15.9627,27.0765 15.9677,27.1355 15.9777,27.1945 C16.0417,27.5435 17.5967,35.7575 23.9447,35.7575 C30.2927,35.7575 31.8477,27.5435 31.9107,27.1945 C31.9217,27.1355 31.9267,27.0765 31.9267,27.0165 L31.9267,16.4655 C31.9267,16.0575 31.6787,15.6905 31.2997,15.5385 L24.3177,12.7275 C24.0797,12.6315 23.8097,12.6315 23.5717,12.7275 L16.5897,15.5385 C16.2107,15.6905 15.9627,16.0575 15.9627,16.4655 L15.9627,21.3265 L17.9627,21.3265 L17.9627,17.1415 L23.9447,14.7335 L29.9267,17.1415 L29.9267,26.9175 C29.7647,27.6895 28.3467,33.7575 23.9447,33.7575 C19.5427,33.7575 18.1247,27.6895 17.9627,26.9175 L17.9627,26.5625 L15.9627,26.5625 Z M35.4167,13.3245 L35.4167,26.6755 C35.4167,31.2075 33.0187,39.7805 23.9447,39.7805 C19.2227,39.7805 15.7337,37.3375 13.8537,32.7165 C12.8547,30.2675 12.5767,27.8485 12.5007,26.6245 L14.4967,26.4995 C14.5527,27.3865 14.7807,29.6945 15.7067,31.9615 C17.2767,35.8235 20.0487,37.7805 23.9447,37.7805 C33.2797,37.7805 33.4157,27.1275 33.4167,26.6745 L33.4167,13.9995 L23.9447,10.1865 L14.4727,13.9995 L14.4727,21.3265 L12.4727,21.3265 L12.4727,13.3245 C12.4727,12.9155 12.7207,12.5485 13.0987,12.3965 L23.5717,8.1805 C23.8097,8.0845 24.0797,8.0845 24.3177,8.1805 L34.7897,12.3965 C35.1687,12.5485 35.4167,12.9155 35.4167,13.3245 L35.4167,13.3245 Z" id="AWS-Amazon-VPC_Endpoints_Resource-Icon_light-bg" fill="#A166FF"></path>
    </g>
</svg>