<?xml version="1.0" encoding="UTF-8"?>
<svg width="48px" height="48px" viewBox="0 0 48 48" version="1.1" xmlns="http://www.w3.org/2000/svg" xmlns:xlink="http://www.w3.org/1999/xlink">
    <title>Icon-Resource/Containers/Res_Amazon-Elastic-Container-Service_Container-1_48_Dark</title>
    <g id="Icon-Resource/Containers/Res_Amazon-Elastic-Container-Service_Container-1_48" stroke="none" stroke-width="1" fill="none" fill-rule="evenodd">
        <path d="M38.725,33.7354 L40.725,33.7354 L40.725,14.4974 L38.725,14.4974 L38.725,33.7354 Z M33.479,33.7354 L35.479,33.7354 L35.479,14.4974 L33.479,14.4974 L33.479,33.7354 Z M28.232,33.7354 L30.232,33.7354 L30.232,14.4974 L28.232,14.4974 L28.232,33.7354 Z M22.986,33.7354 L24.986,33.7354 L24.986,14.4974 L22.986,14.4974 L22.986,33.7354 Z M17.739,33.7354 L19.739,33.7354 L19.739,14.4974 L17.739,14.4974 L17.739,33.7354 Z M12.493,33.7354 L14.493,33.7354 L14.493,14.4974 L12.493,14.4974 L12.493,33.7354 Z M7.246,33.7354 L9.246,33.7354 L9.246,14.4974 L7.246,14.4974 L7.246,33.7354 Z M3.999,36.2324 L43.972,36.2324 L43.972,12.0004 L3.999,12.0004 L3.999,36.2324 Z M44.972,9.9994 L3,9.9994 C2.447,9.9994 2,10.4474 2,10.9994 L2,37.2324 C2,37.7844 2.447,38.2324 3,38.2324 L44.972,38.2324 C45.525,38.2324 45.972,37.7844 45.972,37.2324 L45.972,10.9994 C45.972,10.4474 45.525,9.9994 44.972,9.9994 L44.972,9.9994 Z" id="Amazon-Elastic-Container-Service-Container-1_Resource-Icon_light-bg" fill="#FF9900"></path>
    </g>
</svg>