<?xml version="1.0" encoding="UTF-8"?>
<svg width="48px" height="48px" viewBox="0 0 48 48" version="1.1" xmlns="http://www.w3.org/2000/svg" xmlns:xlink="http://www.w3.org/1999/xlink">
    <title>Icon-Resource/Analytics/Res_Amazon-Redshift_RA3_48_Dark</title>
    <g id="Icon-Resource/Analytics/Res_Amazon-Redshift_RA3_48" stroke="none" stroke-width="1" fill="none" fill-rule="evenodd">
        <path d="M40,17 L44,17 L44,13 L40,13 L40,17 Z M26.069,17.883 L30.369,10 L33,10 C33.133,10 33.258,9.971 33.373,9.925 L38,13.401 L38,14.702 L26.069,17.883 Z M36.826,28.035 L36.802,28.035 C36.802,29.911 31.544,32 24,32 C16.929,32 11.946,30.24 11.07,28.524 C11.267,26.456 16.059,24.22 23,24.02 L23,29 L25,29 L25,24.02 C31.411,24.204 35.99,26.115 36.826,28.035 L36.826,28.035 Z M24,44 C16.015,44 11.072,41.794 11.072,39.75 L11.072,39.748 L11.056,31.266 C13.879,33.135 19.071,34 24,34 C29.147,34 34.33,32.993 36.983,31.048 L37,39.75 C37,41.794 32.029,44 24,44 L24,44 Z M10,13.301 L14.708,9.941 C14.802,9.97 14.896,10 15,10 L17.781,10 L22.081,17.883 L10,14.662 L10,13.301 Z M4,17 L8,17 L8,13 L4,13 L4,17 Z M16,4 L20,4 L20,8 L18.969,8 L18.953,7.971 L18.9,8 L16,8 L16,4 Z M22,9 L22,7 L26,7 L26,9 C26,9.552 26.447,10 27,10 L28.091,10 L24.075,17.362 L20.06,10 L21,10 C21.553,10 22,9.552 22,9 L22,9 Z M28,4 L32,4 L32,8 L29.25,8 L29.197,7.971 L29.182,8 L28,8 L28,4 Z M45,11 L39,11 C38.776,11 38.581,11.087 38.414,11.211 L34,7.895 L34,3 C34,2.448 33.553,2 33,2 L27,2 C26.447,2 26,2.448 26,3 L26,5 L22,5 L22,3 C22,2.448 21.553,2 21,2 L15,2 C14.447,2 14,2.448 14,3 L14,7.989 L9.534,11.176 C9.377,11.074 9.201,11 9,11 L3,11 C2.447,11 2,11.448 2,12 L2,18 C2,18.552 2.447,19 3,19 L9,19 C9.553,19 10,18.552 10,18 L10,16.732 L23,20.199 L23,22.021 C14.982,22.236 9.051,25.012 9.051,28.657 L9.051,28.816 L9.037,28.82 C9.041,28.833 9.048,28.843 9.051,28.855 L9.072,39.752 C9.074,43.489 15.073,46 24,46 C31.466,46 39,44.067 39,39.748 L38.979,28.655 C38.979,25.012 33.034,22.236 25,22.021 L25,20.239 L38,16.772 L38,18 C38,18.552 38.447,19 39,19 L45,19 C45.553,19 46,18.552 46,18 L46,12 C46,11.448 45.553,11 45,11 L45,11 Z M29.127,41.836 C28.659,41.836 28.212,41.722 27.786,41.494 L27.786,40.792 C28.29,41.002 28.722,41.107 29.082,41.107 C29.43,41.107 29.697,41.004 29.883,40.797 C30.069,40.59 30.162,40.297 30.162,39.919 C30.162,39.559 30.073,39.283 29.896,39.091 C29.72,38.899 29.46,38.803 29.118,38.803 C28.938,38.803 28.722,38.818 28.47,38.848 L28.47,38.272 L29.955,36.202 L27.858,36.202 L27.858,35.482 L30.81,35.482 L30.81,36.148 L29.379,38.137 C29.877,38.143 30.274,38.307 30.571,38.628 C30.868,38.949 31.017,39.379 31.017,39.919 C31.017,40.513 30.849,40.981 30.513,41.323 C30.177,41.665 29.715,41.836 29.127,41.836 L29.127,41.836 Z M23.322,39.37 L24.871,39.37 L24.097,36.319 L23.322,39.37 Z M25.474,41.719 L25.042,40.036 L23.16,40.036 L22.737,41.719 L21.847,41.719 L23.646,35.482 L24.592,35.482 L26.392,41.719 L25.474,41.719 Z M17.688,38.506 L18.58,38.506 C18.874,38.506 19.101,38.404 19.259,38.2 C19.418,37.996 19.498,37.705 19.498,37.327 C19.498,36.955 19.42,36.67 19.264,36.472 C19.107,36.274 18.889,36.175 18.606,36.175 L17.688,36.175 L17.688,38.506 Z M16.852,41.719 L16.852,35.482 L18.696,35.482 C19.201,35.482 19.605,35.647 19.912,35.977 C20.218,36.307 20.371,36.754 20.371,37.318 C20.371,37.727 20.277,38.079 20.092,38.376 C19.905,38.673 19.642,38.893 19.3,39.037 L20.677,41.719 L19.741,41.719 L18.49,39.199 L17.688,39.199 L17.688,41.719 L16.852,41.719 Z" id="Fill-1" fill="#A166FF"></path>
    </g>
</svg>