<svg xmlns="http://www.w3.org/2000/svg" viewBox="0 0 24 24"><path d="m14.2 9.7-1.2.6V9c0-.6-.4-1-1-1s-1 .4-1 1v1l-.8-.6c-.5-.3-1.1-.2-1.4.2-.4.5-.3 1.1.2 1.4l1.1.8-1.3.7c-.5.3-.7.9-.4 1.4.2.3.5.5.9.5.2 0 .3 0 .5-.1l1.2-.6V15c0 .6.4 1 1 1s1-.4 1-1v-1l.8.6c.2.1.4.2.6.2.3 0 .6-.1.8-.4.3-.4.2-1.1-.2-1.4l-1.1-.8 1.3-.7c.5-.3.7-.9.4-1.4-.3-.5-1-.7-1.4-.4z"/><path d="M16 3H8C5.2 3 3 5.2 3 8v8c0 2.8 2.2 5 5 5h8c2.8 0 5-2.2 5-5V8c0-2.8-2.2-5-5-5zm3 13c0 1.7-1.3 3-3 3H8c-1.7 0-3-1.3-3-3V8c0-1.7 1.3-3 3-3h8c1.7 0 3 1.3 3 3v8z"/></svg>