<svg xmlns="http://www.w3.org/2000/svg" viewBox="0 0 24 24"><path d="M12 6h8c.6 0 1-.4 1-1s-.4-1-1-1h-8c-.6 0-1 .4-1 1s.4 1 1 1zm8 5h-8c-.6 0-1 .4-1 1s.4 1 1 1h8c.6 0 1-.4 1-1s-.4-1-1-1zm0 7h-8c-.6 0-1 .4-1 1s.4 1 1 1h8c.6 0 1-.4 1-1s-.4-1-1-1zM7.2 3.2 5.5 5.7 5 5.2c-.4-.4-1-.4-1.4 0s-.4 1 0 1.4L4.9 8c.2.2.4.3.7.3h.1c.3 0 .6-.2.7-.4l2.4-3.6c.3-.5.2-1.1-.2-1.4-.5-.3-1.1-.2-1.4.3zm0 7-1.7 2.5-.5-.5c-.4-.4-1-.4-1.4 0s-.4 1 0 1.4L4.9 15c.2.2.4.3.7.3h.1c.3 0 .6-.2.7-.4l2.4-3.6c.3-.5.2-1.1-.3-1.4-.4-.3-1-.2-1.3.3zm0 7-1.7 2.5-.5-.5c-.4-.4-1-.4-1.4 0s-.4 1 0 1.4L4.9 22c.2.2.4.3.7.3h.1c.3 0 .6-.2.7-.4l2.4-3.6c.3-.5.2-1.1-.3-1.4-.4-.3-1-.2-1.3.3z"/></svg>